  0
SECTION
  2
HEADER
  9
$ACADVER
  1
AC1014
  9
$HANDSEED
  5
FFFF
  9
$MEASUREMENT
 70
     1
  0
ENDSEC
  0
SECTION
  2
TABLES
  0
TABLE
  2
VPORT
  5
8
330
0
100
AcDbSymbolTable
 70
     4
  0
VPORT
  5
2E
330
8
100
AcDbSymbolTableRecord
100
AcDbViewportTableRecord
  2
*ACTIVE
 70
     0
 10
0.0
 20
0.0
 11
1.0
 21
1.0
 12
210.0
 22
148.5
 13
0.0
 23
0.0
 14
10.0
 24
10.0
 15
10.0
 25
10.0
 16
0.0
 26
0.0
 36
1.0
 17
0.0
 27
0.0
 37
0.0
 40
341.0
 41
1.24
 42
50.0
 43
0.0
 44
0.0
 50
0.0
 51
0.0
 71
     0
 72
   100
 73
     1
 74
     3
 75
     0
 76
     0
 77
     0
 78
     0
  0
ENDTAB
  0
TABLE
  2
LTYPE
  5
5
330
0
100
AcDbSymbolTable
 70
     1
  0
LTYPE
  5
14
330
5
100
AcDbSymbolTableRecord
100
AcDbLinetypeTableRecord
  2
BYBLOCK
 70
     0
  3

 72
    65
 73
     0
 40
0.0
  0
LTYPE
  5
15
330
5
100
AcDbSymbolTableRecord
100
AcDbLinetypeTableRecord
  2
BYLAYER
 70
     0
  3

 72
    65
 73
     0
 40
0.0
  0
LTYPE
  5
16
330
5
100
AcDbSymbolTableRecord
100
AcDbLinetypeTableRecord
  2
CONTINUOUS
 70
     0
  3
Solid line
 72
    65
 73
     0
 40
0.0
  0
ENDTAB
  0
TABLE
  2
LAYER
  5
2
100
AcDbSymbolTable
 70
1
  0
LAYER
  5
50
100
AcDbSymbolTableRecord
100
AcDbLayerTableRecord
  2
0
 70
0
  6
CONTINUOUS
  0
ENDTAB
  0
TABLE
  2
STYLE
  5
3
330
0
100
AcDbSymbolTable
 70
     1
  0
STYLE
  5
11
330
3
100
AcDbSymbolTableRecord
100
AcDbTextStyleTableRecord
  2
STANDARD
 70
     0
 40
0.0
 41
1.0
 50
0.0
 71
     0
 42
2.5
  3
txt
  4

  0
ENDTAB
  0
TABLE
  2
VIEW
  5
6
330
0
100
AcDbSymbolTable
 70
     0
  0
ENDTAB
  0
TABLE
  2
UCS
  5
7
330
0
100
AcDbSymbolTable
 70
     0
  0
ENDTAB
  0
TABLE
  2
APPID
  5
9
330
0
100
AcDbSymbolTable
 70
     2
  0
APPID
  5
12
330
9
100
AcDbSymbolTableRecord
100
AcDbRegAppTableRecord
  2
ACAD
 70
     0
  0
ENDTAB
  0
TABLE
  2
DIMSTYLE
  5
A
330
0
100
AcDbSymbolTable
 70
     1
  0
DIMSTYLE
105
27
330
A
100
AcDbSymbolTableRecord
100
AcDbDimStyleTableRecord
  2
ISO-25
 70
     0
  3

  4

  5

  6

  7

 40
1.0
 41
2.5
 42
0.625
 43
3.75
 44
1.25
 45
0.0
 46
0.0
 47
0.0
 48
0.0
140
2.5
141
2.5
142
0.0
143
0.03937007874016
144
1.0
145
0.0
146
1.0
147
0.625
 71
     0
 72
     0
 73
     0
 74
     0
 75
     0
 76
     0
 77
     1
 78
     8
170
     0
171
     3
172
     1
173
     0
174
     0
175
     0
176
     0
177
     0
178
     0
270
     2
271
     2
272
     2
273
     2
274
     3
340
11
275
     0
280
     0
281
     0
282
     0
283
     0
284
     8
285
     0
286
     0
287
     3
288
     0
  0
ENDTAB
  0
TABLE
  2
BLOCK_RECORD
  5
1
330
0
100
AcDbSymbolTable
 70
     1
  0
BLOCK_RECORD
  5
1F
330
1
100
AcDbSymbolTableRecord
100
AcDbBlockTableRecord
  2
*MODEL_SPACE
  0
BLOCK_RECORD
  5
1B
330
1
100
AcDbSymbolTableRecord
100
AcDbBlockTableRecord
  2
*PAPER_SPACE
  0
ENDTAB
  0
ENDSEC
  0
SECTION
  2
BLOCKS
  0
BLOCK
  5
20
330
1F
100
AcDbEntity
  8
0
100
AcDbBlockBegin
  2
*MODEL_SPACE
 70
     0
 10
0.0
 20
0.0
 30
0.0
  3
*MODEL_SPACE
  1

  0
ENDBLK
  5
21
330
1F
100
AcDbEntity
  8
0
100
AcDbBlockEnd
  0
BLOCK
  5
1C
330
1B
100
AcDbEntity
 67
     1
  8
0
100
AcDbBlockBegin
  2
*PAPER_SPACE
  1

  0
ENDBLK
  5
1D
330
1B
100
AcDbEntity
 67
     1
  8
0
100
AcDbBlockEnd
  0
ENDSEC
  0
SECTION
  2
ENTITIES
  0
SPLINE
  5
100
100
AcDbEntity
  8
0
 62
7
100
AcDbSpline
 70
8
 71
3
 72
8
 73
4
 74
0
 40
0
 40
0
 40
0
 40
0
 40
1
 40
1
 40
1
 40
1
 10
12.442939
 20
88.571161
 30
0.0
 10
12.442939
 20
89.366810
 30
0.0
 10
12.759010
 20
90.129872
 30
0.0
 10
13.321619
 20
90.692481
 30
0.0
  0
SPLINE
  5
101
100
AcDbEntity
  8
0
 62
7
100
AcDbSpline
 70
8
 71
3
 72
8
 73
4
 74
0
 40
0
 40
0
 40
0
 40
0
 40
1
 40
1
 40
1
 40
1
 10
13.321619
 20
90.692481
 30
0.0
 10
13.884228
 20
91.255090
 30
0.0
 10
14.647290
 20
91.571161
 30
0.0
 10
15.442939
 20
91.571161
 30
0.0
  0
LWPOLYLINE
  5
102
100
AcDbEntity
  8
0
 62
7
100
AcDbPolyline
 90
2
 70
0
 10
12.442939
 20
18.371259
 30
0.0
 10
12.442939
 20
88.571161
 30
0.0
  0
SPLINE
  5
103
100
AcDbEntity
  8
0
 62
7
100
AcDbSpline
 70
8
 71
3
 72
8
 73
4
 74
0
 40
0
 40
0
 40
0
 40
0
 40
1
 40
1
 40
1
 40
1
 10
252.830235
 20
91.571161
 30
0.0
 10
253.625885
 20
91.571161
 30
0.0
 10
254.388947
 20
91.255090
 30
0.0
 10
254.951556
 20
90.692481
 30
0.0
  0
SPLINE
  5
104
100
AcDbEntity
  8
0
 62
7
100
AcDbSpline
 70
8
 71
3
 72
8
 73
4
 74
0
 40
0
 40
0
 40
0
 40
0
 40
1
 40
1
 40
1
 40
1
 10
254.951556
 20
90.692481
 30
0.0
 10
255.514165
 20
90.129872
 30
0.0
 10
255.830235
 20
89.366810
 30
0.0
 10
255.830235
 20
88.571161
 30
0.0
  0
LWPOLYLINE
  5
105
100
AcDbEntity
  8
0
 62
7
100
AcDbPolyline
 90
2
 70
0
 10
15.442939
 20
91.571161
 30
0.0
 10
252.830235
 20
91.571161
 30
0.0
  0
SPLINE
  5
106
100
AcDbEntity
  8
0
 62
7
100
AcDbSpline
 70
8
 71
3
 72
8
 73
4
 74
0
 40
0
 40
0
 40
0
 40
0
 40
1
 40
1
 40
1
 40
1
 10
255.830235
 20
18.371259
 30
0.0
 10
255.830235
 20
17.575609
 30
0.0
 10
255.514165
 20
16.812548
 30
0.0
 10
254.951556
 20
16.249938
 30
0.0
  0
SPLINE
  5
107
100
AcDbEntity
  8
0
 62
7
100
AcDbSpline
 70
8
 71
3
 72
8
 73
4
 74
0
 40
0
 40
0
 40
0
 40
0
 40
1
 40
1
 40
1
 40
1
 10
254.951556
 20
16.249938
 30
0.0
 10
254.388947
 20
15.687329
 30
0.0
 10
253.625885
 20
15.371259
 30
0.0
 10
252.830235
 20
15.371259
 30
0.0
  0
LWPOLYLINE
  5
108
100
AcDbEntity
  8
0
 62
7
100
AcDbPolyline
 90
2
 70
0
 10
255.830235
 20
88.571161
 30
0.0
 10
255.830235
 20
18.371259
 30
0.0
  0
SPLINE
  5
109
100
AcDbEntity
  8
0
 62
7
100
AcDbSpline
 70
8
 71
3
 72
8
 73
4
 74
0
 40
0
 40
0
 40
0
 40
0
 40
1
 40
1
 40
1
 40
1
 10
15.442939
 20
15.371259
 30
0.0
 10
14.647290
 20
15.371259
 30
0.0
 10
13.884228
 20
15.687329
 30
0.0
 10
13.321619
 20
16.249938
 30
0.0
  0
SPLINE
  5
10a
100
AcDbEntity
  8
0
 62
7
100
AcDbSpline
 70
8
 71
3
 72
8
 73
4
 74
0
 40
0
 40
0
 40
0
 40
0
 40
1
 40
1
 40
1
 40
1
 10
13.321619
 20
16.249938
 30
0.0
 10
12.759010
 20
16.812548
 30
0.0
 10
12.442939
 20
17.575609
 30
0.0
 10
12.442939
 20
18.371259
 30
0.0
  0
LWPOLYLINE
  5
10b
100
AcDbEntity
  8
0
 62
7
100
AcDbPolyline
 90
2
 70
0
 10
252.830235
 20
15.371259
 30
0.0
 10
15.442939
 20
15.371259
 30
0.0
  0
SPLINE
  5
10c
100
AcDbEntity
  8
0
 62
7
100
AcDbSpline
 70
8
 71
3
 72
8
 73
4
 74
0
 40
0
 40
0
 40
0
 40
0
 40
1
 40
1
 40
1
 40
1
 10
225.259953
 20
89.049301
 30
0.0
 10
225.127345
 20
89.049301
 30
0.0
 10
225.000168
 20
88.996622
 30
0.0
 10
224.906400
 20
88.902854
 30
0.0
  0
SPLINE
  5
10d
100
AcDbEntity
  8
0
 62
7
100
AcDbSpline
 70
8
 71
3
 72
8
 73
4
 74
0
 40
0
 40
0
 40
0
 40
0
 40
1
 40
1
 40
1
 40
1
 10
224.906400
 20
88.902854
 30
0.0
 10
224.812631
 20
88.809086
 30
0.0
 10
224.759953
 20
88.681909
 30
0.0
 10
224.759953
 20
88.549301
 30
0.0
  0
LWPOLYLINE
  5
10e
100
AcDbEntity
  8
0
 62
7
100
AcDbPolyline
 90
2
 70
0
 10
252.547453
 20
89.049301
 30
0.0
 10
225.259953
 20
89.049301
 30
0.0
  0
SPLINE
  5
10f
100
AcDbEntity
  8
0
 62
7
100
AcDbSpline
 70
8
 71
3
 72
8
 73
4
 74
0
 40
0
 40
0
 40
0
 40
0
 40
1
 40
1
 40
1
 40
1
 10
224.759953
 20
75.549301
 30
0.0
 10
224.759953
 20
75.416692
 30
0.0
 10
224.812631
 20
75.289515
 30
0.0
 10
224.906400
 20
75.195747
 30
0.0
  0
SPLINE
  5
110
100
AcDbEntity
  8
0
 62
7
100
AcDbSpline
 70
8
 71
3
 72
8
 73
4
 74
0
 40
0
 40
0
 40
0
 40
0
 40
1
 40
1
 40
1
 40
1
 10
224.906400
 20
75.195747
 30
0.0
 10
225.000168
 20
75.101979
 30
0.0
 10
225.127345
 20
75.049301
 30
0.0
 10
225.259953
 20
75.049301
 30
0.0
  0
LWPOLYLINE
  5
111
100
AcDbEntity
  8
0
 62
7
100
AcDbPolyline
 90
2
 70
0
 10
224.759953
 20
88.549301
 30
0.0
 10
224.759953
 20
75.549301
 30
0.0
  0
SPLINE
  5
112
100
AcDbEntity
  8
0
 62
7
100
AcDbSpline
 70
8
 71
3
 72
8
 73
4
 74
0
 40
0
 40
0
 40
0
 40
0
 40
1
 40
1
 40
1
 40
1
 10
252.547453
 20
75.049301
 30
0.0
 10
252.680062
 20
75.049301
 30
0.0
 10
252.807239
 20
75.101979
 30
0.0
 10
252.901007
 20
75.195747
 30
0.0
  0
SPLINE
  5
113
100
AcDbEntity
  8
0
 62
7
100
AcDbSpline
 70
8
 71
3
 72
8
 73
4
 74
0
 40
0
 40
0
 40
0
 40
0
 40
1
 40
1
 40
1
 40
1
 10
252.901007
 20
75.195747
 30
0.0
 10
252.994775
 20
75.289515
 30
0.0
 10
253.047453
 20
75.416692
 30
0.0
 10
253.047453
 20
75.549301
 30
0.0
  0
LWPOLYLINE
  5
114
100
AcDbEntity
  8
0
 62
7
100
AcDbPolyline
 90
2
 70
0
 10
225.259953
 20
75.049301
 30
0.0
 10
252.547453
 20
75.049301
 30
0.0
  0
SPLINE
  5
115
100
AcDbEntity
  8
0
 62
7
100
AcDbSpline
 70
8
 71
3
 72
8
 73
4
 74
0
 40
0
 40
0
 40
0
 40
0
 40
1
 40
1
 40
1
 40
1
 10
253.047453
 20
88.549301
 30
0.0
 10
253.047453
 20
88.681909
 30
0.0
 10
252.994775
 20
88.809086
 30
0.0
 10
252.901007
 20
88.902854
 30
0.0
  0
SPLINE
  5
116
100
AcDbEntity
  8
0
 62
7
100
AcDbSpline
 70
8
 71
3
 72
8
 73
4
 74
0
 40
0
 40
0
 40
0
 40
0
 40
1
 40
1
 40
1
 40
1
 10
252.901007
 20
88.902854
 30
0.0
 10
252.807239
 20
88.996622
 30
0.0
 10
252.680062
 20
89.049301
 30
0.0
 10
252.547453
 20
89.049301
 30
0.0
  0
SPLINE
  5
117
100
AcDbEntity
  8
0
 62
7
100
AcDbSpline
 70
8
 71
3
 72
8
 73
4
 74
0
 40
0
 40
0
 40
0
 40
0
 40
1
 40
1
 40
1
 40
1
 10
176.502402
 20
18.902900
 30
0.0
 10
176.369794
 20
18.902900
 30
0.0
 10
176.242617
 20
18.955578
 30
0.0
 10
176.148849
 20
19.049346
 30
0.0
  0
SPLINE
  5
118
100
AcDbEntity
  8
0
 62
7
100
AcDbSpline
 70
8
 71
3
 72
8
 73
4
 74
0
 40
0
 40
0
 40
0
 40
0
 40
1
 40
1
 40
1
 40
1
 10
176.148849
 20
19.049346
 30
0.0
 10
176.055081
 20
19.143115
 30
0.0
 10
176.002402
 20
19.270292
 30
0.0
 10
176.002402
 20
19.402900
 30
0.0
  0
LWPOLYLINE
  5
119
100
AcDbEntity
  8
0
 62
7
100
AcDbPolyline
 90
2
 70
0
 10
253.047453
 20
75.549301
 30
0.0
 10
253.047453
 20
88.549301
 30
0.0
  0
SPLINE
  5
11a
100
AcDbEntity
  8
0
 62
7
100
AcDbSpline
 70
8
 71
3
 72
8
 73
4
 74
0
 40
0
 40
0
 40
0
 40
0
 40
1
 40
1
 40
1
 40
1
 10
176.002402
 20
32.402900
 30
0.0
 10
176.002402
 20
32.535508
 30
0.0
 10
176.055081
 20
32.662685
 30
0.0
 10
176.148849
 20
32.756453
 30
0.0
  0
SPLINE
  5
11b
100
AcDbEntity
  8
0
 62
7
100
AcDbSpline
 70
8
 71
3
 72
8
 73
4
 74
0
 40
0
 40
0
 40
0
 40
0
 40
1
 40
1
 40
1
 40
1
 10
176.148849
 20
32.756453
 30
0.0
 10
176.242617
 20
32.850222
 30
0.0
 10
176.369794
 20
32.902900
 30
0.0
 10
176.502402
 20
32.902900
 30
0.0
  0
LWPOLYLINE
  5
11c
100
AcDbEntity
  8
0
 62
7
100
AcDbPolyline
 90
2
 70
0
 10
176.002402
 20
19.402900
 30
0.0
 10
176.002402
 20
32.402900
 30
0.0
  0
SPLINE
  5
11d
100
AcDbEntity
  8
0
 62
7
100
AcDbSpline
 70
8
 71
3
 72
8
 73
4
 74
0
 40
0
 40
0
 40
0
 40
0
 40
1
 40
1
 40
1
 40
1
 10
182.252402
 20
32.902900
 30
0.0
 10
182.385011
 20
32.902900
 30
0.0
 10
182.512188
 20
32.850222
 30
0.0
 10
182.605956
 20
32.756453
 30
0.0
  0
SPLINE
  5
11e
100
AcDbEntity
  8
0
 62
7
100
AcDbSpline
 70
8
 71
3
 72
8
 73
4
 74
0
 40
0
 40
0
 40
0
 40
0
 40
1
 40
1
 40
1
 40
1
 10
182.605956
 20
32.756453
 30
0.0
 10
182.699724
 20
32.662685
 30
0.0
 10
182.752402
 20
32.535508
 30
0.0
 10
182.752402
 20
32.402900
 30
0.0
  0
LWPOLYLINE
  5
11f
100
AcDbEntity
  8
0
 62
7
100
AcDbPolyline
 90
2
 70
0
 10
176.502402
 20
32.902900
 30
0.0
 10
182.252402
 20
32.902900
 30
0.0
  0
SPLINE
  5
120
100
AcDbEntity
  8
0
 62
7
100
AcDbSpline
 70
8
 71
3
 72
8
 73
4
 74
0
 40
0
 40
0
 40
0
 40
0
 40
1
 40
1
 40
1
 40
1
 10
182.752402
 20
19.402900
 30
0.0
 10
182.752402
 20
19.270292
 30
0.0
 10
182.699724
 20
19.143115
 30
0.0
 10
182.605956
 20
19.049346
 30
0.0
  0
SPLINE
  5
121
100
AcDbEntity
  8
0
 62
7
100
AcDbSpline
 70
8
 71
3
 72
8
 73
4
 74
0
 40
0
 40
0
 40
0
 40
0
 40
1
 40
1
 40
1
 40
1
 10
182.605956
 20
19.049346
 30
0.0
 10
182.512188
 20
18.955578
 30
0.0
 10
182.385011
 20
18.902900
 30
0.0
 10
182.252402
 20
18.902900
 30
0.0
  0
LWPOLYLINE
  5
122
100
AcDbEntity
  8
0
 62
7
100
AcDbPolyline
 90
2
 70
0
 10
182.752402
 20
32.402900
 30
0.0
 10
182.752402
 20
19.402900
 30
0.0
  0
SPLINE
  5
123
100
AcDbEntity
  8
0
 62
7
100
AcDbSpline
 70
8
 71
3
 72
8
 73
4
 74
0
 40
0
 40
0
 40
0
 40
0
 40
1
 40
1
 40
1
 40
1
 10
167.327402
 20
18.402900
 30
0.0
 10
167.327402
 20
18.270292
 30
0.0
 10
167.274724
 20
18.143115
 30
0.0
 10
167.180956
 20
18.049346
 30
0.0
  0
SPLINE
  5
124
100
AcDbEntity
  8
0
 62
7
100
AcDbSpline
 70
8
 71
3
 72
8
 73
4
 74
0
 40
0
 40
0
 40
0
 40
0
 40
1
 40
1
 40
1
 40
1
 10
167.180956
 20
18.049346
 30
0.0
 10
167.087187
 20
17.955578
 30
0.0
 10
166.960010
 20
17.902900
 30
0.0
 10
166.827402
 20
17.902900
 30
0.0
  0
LWPOLYLINE
  5
125
100
AcDbEntity
  8
0
 62
7
100
AcDbPolyline
 90
2
 70
0
 10
182.252402
 20
18.902900
 30
0.0
 10
176.502402
 20
18.902900
 30
0.0
  0
SPLINE
  5
126
100
AcDbEntity
  8
0
 62
7
100
AcDbSpline
 70
8
 71
3
 72
8
 73
4
 74
0
 40
0
 40
0
 40
0
 40
0
 40
1
 40
1
 40
1
 40
1
 10
153.827402
 20
17.902900
 30
0.0
 10
153.694794
 20
17.902900
 30
0.0
 10
153.567617
 20
17.955578
 30
0.0
 10
153.473849
 20
18.049346
 30
0.0
  0
SPLINE
  5
127
100
AcDbEntity
  8
0
 62
7
100
AcDbSpline
 70
8
 71
3
 72
8
 73
4
 74
0
 40
0
 40
0
 40
0
 40
0
 40
1
 40
1
 40
1
 40
1
 10
153.473849
 20
18.049346
 30
0.0
 10
153.380080
 20
18.143115
 30
0.0
 10
153.327402
 20
18.270292
 30
0.0
 10
153.327402
 20
18.402900
 30
0.0
  0
LWPOLYLINE
  5
128
100
AcDbEntity
  8
0
 62
7
100
AcDbPolyline
 90
2
 70
0
 10
166.827402
 20
17.902900
 30
0.0
 10
153.827402
 20
17.902900
 30
0.0
  0
SPLINE
  5
129
100
AcDbEntity
  8
0
 62
7
100
AcDbSpline
 70
8
 71
3
 72
8
 73
4
 74
0
 40
0
 40
0
 40
0
 40
0
 40
1
 40
1
 40
1
 40
1
 10
153.327402
 20
31.402900
 30
0.0
 10
153.327402
 20
31.535508
 30
0.0
 10
153.380080
 20
31.662685
 30
0.0
 10
153.473849
 20
31.756453
 30
0.0
  0
SPLINE
  5
12a
100
AcDbEntity
  8
0
 62
7
100
AcDbSpline
 70
8
 71
3
 72
8
 73
4
 74
0
 40
0
 40
0
 40
0
 40
0
 40
1
 40
1
 40
1
 40
1
 10
153.473849
 20
31.756453
 30
0.0
 10
153.567617
 20
31.850222
 30
0.0
 10
153.694794
 20
31.902900
 30
0.0
 10
153.827402
 20
31.902900
 30
0.0
  0
LWPOLYLINE
  5
12b
100
AcDbEntity
  8
0
 62
7
100
AcDbPolyline
 90
2
 70
0
 10
153.327402
 20
18.402900
 30
0.0
 10
153.327402
 20
31.402900
 30
0.0
  0
SPLINE
  5
12c
100
AcDbEntity
  8
0
 62
7
100
AcDbSpline
 70
8
 71
3
 72
8
 73
4
 74
0
 40
0
 40
0
 40
0
 40
0
 40
1
 40
1
 40
1
 40
1
 10
166.827402
 20
31.902900
 30
0.0
 10
166.960010
 20
31.902900
 30
0.0
 10
167.087187
 20
31.850222
 30
0.0
 10
167.180956
 20
31.756453
 30
0.0
  0
SPLINE
  5
12d
100
AcDbEntity
  8
0
 62
7
100
AcDbSpline
 70
8
 71
3
 72
8
 73
4
 74
0
 40
0
 40
0
 40
0
 40
0
 40
1
 40
1
 40
1
 40
1
 10
167.180956
 20
31.756453
 30
0.0
 10
167.274724
 20
31.662685
 30
0.0
 10
167.327402
 20
31.535508
 30
0.0
 10
167.327402
 20
31.402900
 30
0.0
  0
LWPOLYLINE
  5
12e
100
AcDbEntity
  8
0
 62
7
100
AcDbPolyline
 90
2
 70
0
 10
153.827402
 20
31.902900
 30
0.0
 10
166.827402
 20
31.902900
 30
0.0
  0
SPLINE
  5
12f
100
AcDbEntity
  8
0
 62
7
100
AcDbSpline
 70
8
 71
3
 72
8
 73
4
 74
0
 40
0
 40
0
 40
0
 40
0
 40
1
 40
1
 40
1
 40
1
 10
138.402402
 20
18.902900
 30
0.0
 10
138.269794
 20
18.902900
 30
0.0
 10
138.142617
 20
18.955578
 30
0.0
 10
138.048848
 20
19.049346
 30
0.0
  0
SPLINE
  5
130
100
AcDbEntity
  8
0
 62
7
100
AcDbSpline
 70
8
 71
3
 72
8
 73
4
 74
0
 40
0
 40
0
 40
0
 40
0
 40
1
 40
1
 40
1
 40
1
 10
138.048848
 20
19.049346
 30
0.0
 10
137.955080
 20
19.143115
 30
0.0
 10
137.902402
 20
19.270292
 30
0.0
 10
137.902402
 20
19.402900
 30
0.0
  0
LWPOLYLINE
  5
131
100
AcDbEntity
  8
0
 62
7
100
AcDbPolyline
 90
2
 70
0
 10
167.327402
 20
31.402900
 30
0.0
 10
167.327402
 20
18.402900
 30
0.0
  0
SPLINE
  5
132
100
AcDbEntity
  8
0
 62
7
100
AcDbSpline
 70
8
 71
3
 72
8
 73
4
 74
0
 40
0
 40
0
 40
0
 40
0
 40
1
 40
1
 40
1
 40
1
 10
137.902402
 20
32.402900
 30
0.0
 10
137.902402
 20
32.535508
 30
0.0
 10
137.955080
 20
32.662685
 30
0.0
 10
138.048848
 20
32.756453
 30
0.0
  0
SPLINE
  5
133
100
AcDbEntity
  8
0
 62
7
100
AcDbSpline
 70
8
 71
3
 72
8
 73
4
 74
0
 40
0
 40
0
 40
0
 40
0
 40
1
 40
1
 40
1
 40
1
 10
138.048848
 20
32.756453
 30
0.0
 10
138.142617
 20
32.850222
 30
0.0
 10
138.269794
 20
32.902900
 30
0.0
 10
138.402402
 20
32.902900
 30
0.0
  0
LWPOLYLINE
  5
134
100
AcDbEntity
  8
0
 62
7
100
AcDbPolyline
 90
2
 70
0
 10
137.902402
 20
19.402900
 30
0.0
 10
137.902402
 20
32.402900
 30
0.0
  0
SPLINE
  5
135
100
AcDbEntity
  8
0
 62
7
100
AcDbSpline
 70
8
 71
3
 72
8
 73
4
 74
0
 40
0
 40
0
 40
0
 40
0
 40
1
 40
1
 40
1
 40
1
 10
144.152402
 20
32.902900
 30
0.0
 10
144.285010
 20
32.902900
 30
0.0
 10
144.412187
 20
32.850222
 30
0.0
 10
144.505955
 20
32.756453
 30
0.0
  0
SPLINE
  5
136
100
AcDbEntity
  8
0
 62
7
100
AcDbSpline
 70
8
 71
3
 72
8
 73
4
 74
0
 40
0
 40
0
 40
0
 40
0
 40
1
 40
1
 40
1
 40
1
 10
144.505955
 20
32.756453
 30
0.0
 10
144.599723
 20
32.662685
 30
0.0
 10
144.652402
 20
32.535508
 30
0.0
 10
144.652402
 20
32.402900
 30
0.0
  0
LWPOLYLINE
  5
137
100
AcDbEntity
  8
0
 62
7
100
AcDbPolyline
 90
2
 70
0
 10
138.402402
 20
32.902900
 30
0.0
 10
144.152402
 20
32.902900
 30
0.0
  0
SPLINE
  5
138
100
AcDbEntity
  8
0
 62
7
100
AcDbSpline
 70
8
 71
3
 72
8
 73
4
 74
0
 40
0
 40
0
 40
0
 40
0
 40
1
 40
1
 40
1
 40
1
 10
144.652402
 20
19.402900
 30
0.0
 10
144.652402
 20
19.270292
 30
0.0
 10
144.599723
 20
19.143115
 30
0.0
 10
144.505955
 20
19.049346
 30
0.0
  0
SPLINE
  5
139
100
AcDbEntity
  8
0
 62
7
100
AcDbSpline
 70
8
 71
3
 72
8
 73
4
 74
0
 40
0
 40
0
 40
0
 40
0
 40
1
 40
1
 40
1
 40
1
 10
144.505955
 20
19.049346
 30
0.0
 10
144.412187
 20
18.955578
 30
0.0
 10
144.285010
 20
18.902900
 30
0.0
 10
144.152402
 20
18.902900
 30
0.0
  0
LWPOLYLINE
  5
13a
100
AcDbEntity
  8
0
 62
7
100
AcDbPolyline
 90
2
 70
0
 10
144.652402
 20
32.402900
 30
0.0
 10
144.652402
 20
19.402900
 30
0.0
  0
SPLINE
  5
13b
100
AcDbEntity
  8
0
 62
7
100
AcDbSpline
 70
8
 71
3
 72
8
 73
4
 74
0
 40
0
 40
0
 40
0
 40
0
 40
1
 40
1
 40
1
 40
1
 10
119.356002
 20
18.902900
 30
0.0
 10
119.223393
 20
18.902900
 30
0.0
 10
119.096216
 20
18.955578
 30
0.0
 10
119.002448
 20
19.049346
 30
0.0
  0
SPLINE
  5
13c
100
AcDbEntity
  8
0
 62
7
100
AcDbSpline
 70
8
 71
3
 72
8
 73
4
 74
0
 40
0
 40
0
 40
0
 40
0
 40
1
 40
1
 40
1
 40
1
 10
119.002448
 20
19.049346
 30
0.0
 10
118.908680
 20
19.143115
 30
0.0
 10
118.856002
 20
19.270292
 30
0.0
 10
118.856002
 20
19.402900
 30
0.0
  0
LWPOLYLINE
  5
13d
100
AcDbEntity
  8
0
 62
7
100
AcDbPolyline
 90
2
 70
0
 10
144.152402
 20
18.902900
 30
0.0
 10
138.402402
 20
18.902900
 30
0.0
  0
SPLINE
  5
13e
100
AcDbEntity
  8
0
 62
7
100
AcDbSpline
 70
8
 71
3
 72
8
 73
4
 74
0
 40
0
 40
0
 40
0
 40
0
 40
1
 40
1
 40
1
 40
1
 10
118.856002
 20
32.402900
 30
0.0
 10
118.856002
 20
32.535508
 30
0.0
 10
118.908680
 20
32.662685
 30
0.0
 10
119.002448
 20
32.756453
 30
0.0
  0
SPLINE
  5
13f
100
AcDbEntity
  8
0
 62
7
100
AcDbSpline
 70
8
 71
3
 72
8
 73
4
 74
0
 40
0
 40
0
 40
0
 40
0
 40
1
 40
1
 40
1
 40
1
 10
119.002448
 20
32.756453
 30
0.0
 10
119.096216
 20
32.850222
 30
0.0
 10
119.223393
 20
32.902900
 30
0.0
 10
119.356002
 20
32.902900
 30
0.0
  0
LWPOLYLINE
  5
140
100
AcDbEntity
  8
0
 62
7
100
AcDbPolyline
 90
2
 70
0
 10
118.856002
 20
19.402900
 30
0.0
 10
118.856002
 20
32.402900
 30
0.0
  0
SPLINE
  5
141
100
AcDbEntity
  8
0
 62
7
100
AcDbSpline
 70
8
 71
3
 72
8
 73
4
 74
0
 40
0
 40
0
 40
0
 40
0
 40
1
 40
1
 40
1
 40
1
 10
125.106002
 20
32.902900
 30
0.0
 10
125.238610
 20
32.902900
 30
0.0
 10
125.365787
 20
32.850222
 30
0.0
 10
125.459555
 20
32.756453
 30
0.0
  0
SPLINE
  5
142
100
AcDbEntity
  8
0
 62
7
100
AcDbSpline
 70
8
 71
3
 72
8
 73
4
 74
0
 40
0
 40
0
 40
0
 40
0
 40
1
 40
1
 40
1
 40
1
 10
125.459555
 20
32.756453
 30
0.0
 10
125.553323
 20
32.662685
 30
0.0
 10
125.606002
 20
32.535508
 30
0.0
 10
125.606002
 20
32.402900
 30
0.0
  0
LWPOLYLINE
  5
143
100
AcDbEntity
  8
0
 62
7
100
AcDbPolyline
 90
2
 70
0
 10
119.356002
 20
32.902900
 30
0.0
 10
125.106002
 20
32.902900
 30
0.0
  0
SPLINE
  5
144
100
AcDbEntity
  8
0
 62
7
100
AcDbSpline
 70
8
 71
3
 72
8
 73
4
 74
0
 40
0
 40
0
 40
0
 40
0
 40
1
 40
1
 40
1
 40
1
 10
125.606002
 20
19.402900
 30
0.0
 10
125.606002
 20
19.270292
 30
0.0
 10
125.553323
 20
19.143115
 30
0.0
 10
125.459555
 20
19.049346
 30
0.0
  0
SPLINE
  5
145
100
AcDbEntity
  8
0
 62
7
100
AcDbSpline
 70
8
 71
3
 72
8
 73
4
 74
0
 40
0
 40
0
 40
0
 40
0
 40
1
 40
1
 40
1
 40
1
 10
125.459555
 20
19.049346
 30
0.0
 10
125.365787
 20
18.955578
 30
0.0
 10
125.238610
 20
18.902900
 30
0.0
 10
125.106002
 20
18.902900
 30
0.0
  0
LWPOLYLINE
  5
146
100
AcDbEntity
  8
0
 62
7
100
AcDbPolyline
 90
2
 70
0
 10
125.606002
 20
32.402900
 30
0.0
 10
125.606002
 20
19.402900
 30
0.0
  0
SPLINE
  5
147
100
AcDbEntity
  8
0
 62
7
100
AcDbSpline
 70
8
 71
3
 72
8
 73
4
 74
0
 40
0
 40
0
 40
0
 40
0
 40
1
 40
1
 40
1
 40
1
 10
110.181001
 20
18.402900
 30
0.0
 10
110.181001
 20
18.270292
 30
0.0
 10
110.128323
 20
18.143115
 30
0.0
 10
110.034555
 20
18.049346
 30
0.0
  0
SPLINE
  5
148
100
AcDbEntity
  8
0
 62
7
100
AcDbSpline
 70
8
 71
3
 72
8
 73
4
 74
0
 40
0
 40
0
 40
0
 40
0
 40
1
 40
1
 40
1
 40
1
 10
110.034555
 20
18.049346
 30
0.0
 10
109.940787
 20
17.955578
 30
0.0
 10
109.813610
 20
17.902900
 30
0.0
 10
109.681001
 20
17.902900
 30
0.0
  0
LWPOLYLINE
  5
149
100
AcDbEntity
  8
0
 62
7
100
AcDbPolyline
 90
2
 70
0
 10
125.106002
 20
18.902900
 30
0.0
 10
119.356002
 20
18.902900
 30
0.0
  0
SPLINE
  5
14a
100
AcDbEntity
  8
0
 62
7
100
AcDbSpline
 70
8
 71
3
 72
8
 73
4
 74
0
 40
0
 40
0
 40
0
 40
0
 40
1
 40
1
 40
1
 40
1
 10
96.681001
 20
17.902900
 30
0.0
 10
96.548393
 20
17.902900
 30
0.0
 10
96.421216
 20
17.955578
 30
0.0
 10
96.327448
 20
18.049346
 30
0.0
  0
SPLINE
  5
14b
100
AcDbEntity
  8
0
 62
7
100
AcDbSpline
 70
8
 71
3
 72
8
 73
4
 74
0
 40
0
 40
0
 40
0
 40
0
 40
1
 40
1
 40
1
 40
1
 10
96.327448
 20
18.049346
 30
0.0
 10
96.233680
 20
18.143115
 30
0.0
 10
96.181001
 20
18.270292
 30
0.0
 10
96.181001
 20
18.402900
 30
0.0
  0
LWPOLYLINE
  5
14c
100
AcDbEntity
  8
0
 62
7
100
AcDbPolyline
 90
2
 70
0
 10
109.681001
 20
17.902900
 30
0.0
 10
96.681001
 20
17.902900
 30
0.0
  0
SPLINE
  5
14d
100
AcDbEntity
  8
0
 62
7
100
AcDbSpline
 70
8
 71
3
 72
8
 73
4
 74
0
 40
0
 40
0
 40
0
 40
0
 40
1
 40
1
 40
1
 40
1
 10
96.181001
 20
31.402900
 30
0.0
 10
96.181001
 20
31.535508
 30
0.0
 10
96.233680
 20
31.662685
 30
0.0
 10
96.327448
 20
31.756453
 30
0.0
  0
SPLINE
  5
14e
100
AcDbEntity
  8
0
 62
7
100
AcDbSpline
 70
8
 71
3
 72
8
 73
4
 74
0
 40
0
 40
0
 40
0
 40
0
 40
1
 40
1
 40
1
 40
1
 10
96.327448
 20
31.756453
 30
0.0
 10
96.421216
 20
31.850222
 30
0.0
 10
96.548393
 20
31.902900
 30
0.0
 10
96.681001
 20
31.902900
 30
0.0
  0
LWPOLYLINE
  5
14f
100
AcDbEntity
  8
0
 62
7
100
AcDbPolyline
 90
2
 70
0
 10
96.181001
 20
18.402900
 30
0.0
 10
96.181001
 20
31.402900
 30
0.0
  0
SPLINE
  5
150
100
AcDbEntity
  8
0
 62
7
100
AcDbSpline
 70
8
 71
3
 72
8
 73
4
 74
0
 40
0
 40
0
 40
0
 40
0
 40
1
 40
1
 40
1
 40
1
 10
109.681001
 20
31.902900
 30
0.0
 10
109.813610
 20
31.902900
 30
0.0
 10
109.940787
 20
31.850222
 30
0.0
 10
110.034555
 20
31.756453
 30
0.0
  0
SPLINE
  5
151
100
AcDbEntity
  8
0
 62
7
100
AcDbSpline
 70
8
 71
3
 72
8
 73
4
 74
0
 40
0
 40
0
 40
0
 40
0
 40
1
 40
1
 40
1
 40
1
 10
110.034555
 20
31.756453
 30
0.0
 10
110.128323
 20
31.662685
 30
0.0
 10
110.181001
 20
31.535508
 30
0.0
 10
110.181001
 20
31.402900
 30
0.0
  0
LWPOLYLINE
  5
152
100
AcDbEntity
  8
0
 62
7
100
AcDbPolyline
 90
2
 70
0
 10
96.681001
 20
31.902900
 30
0.0
 10
109.681001
 20
31.902900
 30
0.0
  0
SPLINE
  5
153
100
AcDbEntity
  8
0
 62
7
100
AcDbSpline
 70
8
 71
3
 72
8
 73
4
 74
0
 40
0
 40
0
 40
0
 40
0
 40
1
 40
1
 40
1
 40
1
 10
81.256001
 20
18.902900
 30
0.0
 10
81.123393
 20
18.902900
 30
0.0
 10
80.996216
 20
18.955578
 30
0.0
 10
80.902448
 20
19.049346
 30
0.0
  0
SPLINE
  5
154
100
AcDbEntity
  8
0
 62
7
100
AcDbSpline
 70
8
 71
3
 72
8
 73
4
 74
0
 40
0
 40
0
 40
0
 40
0
 40
1
 40
1
 40
1
 40
1
 10
80.902448
 20
19.049346
 30
0.0
 10
80.808679
 20
19.143115
 30
0.0
 10
80.756001
 20
19.270292
 30
0.0
 10
80.756001
 20
19.402900
 30
0.0
  0
LWPOLYLINE
  5
155
100
AcDbEntity
  8
0
 62
7
100
AcDbPolyline
 90
2
 70
0
 10
110.181001
 20
31.402900
 30
0.0
 10
110.181001
 20
18.402900
 30
0.0
  0
SPLINE
  5
156
100
AcDbEntity
  8
0
 62
7
100
AcDbSpline
 70
8
 71
3
 72
8
 73
4
 74
0
 40
0
 40
0
 40
0
 40
0
 40
1
 40
1
 40
1
 40
1
 10
80.756001
 20
32.402900
 30
0.0
 10
80.756001
 20
32.535508
 30
0.0
 10
80.808679
 20
32.662685
 30
0.0
 10
80.902448
 20
32.756453
 30
0.0
  0
SPLINE
  5
157
100
AcDbEntity
  8
0
 62
7
100
AcDbSpline
 70
8
 71
3
 72
8
 73
4
 74
0
 40
0
 40
0
 40
0
 40
0
 40
1
 40
1
 40
1
 40
1
 10
80.902448
 20
32.756453
 30
0.0
 10
80.996216
 20
32.850222
 30
0.0
 10
81.123393
 20
32.902900
 30
0.0
 10
81.256001
 20
32.902900
 30
0.0
  0
LWPOLYLINE
  5
158
100
AcDbEntity
  8
0
 62
7
100
AcDbPolyline
 90
2
 70
0
 10
80.756001
 20
19.402900
 30
0.0
 10
80.756001
 20
32.402900
 30
0.0
  0
SPLINE
  5
159
100
AcDbEntity
  8
0
 62
7
100
AcDbSpline
 70
8
 71
3
 72
8
 73
4
 74
0
 40
0
 40
0
 40
0
 40
0
 40
1
 40
1
 40
1
 40
1
 10
87.006001
 20
32.902900
 30
0.0
 10
87.138609
 20
32.902900
 30
0.0
 10
87.265786
 20
32.850222
 30
0.0
 10
87.359555
 20
32.756453
 30
0.0
  0
SPLINE
  5
15a
100
AcDbEntity
  8
0
 62
7
100
AcDbSpline
 70
8
 71
3
 72
8
 73
4
 74
0
 40
0
 40
0
 40
0
 40
0
 40
1
 40
1
 40
1
 40
1
 10
87.359555
 20
32.756453
 30
0.0
 10
87.453323
 20
32.662685
 30
0.0
 10
87.506001
 20
32.535508
 30
0.0
 10
87.506001
 20
32.402900
 30
0.0
  0
LWPOLYLINE
  5
15b
100
AcDbEntity
  8
0
 62
7
100
AcDbPolyline
 90
2
 70
0
 10
81.256001
 20
32.902900
 30
0.0
 10
87.006001
 20
32.902900
 30
0.0
  0
SPLINE
  5
15c
100
AcDbEntity
  8
0
 62
7
100
AcDbSpline
 70
8
 71
3
 72
8
 73
4
 74
0
 40
0
 40
0
 40
0
 40
0
 40
1
 40
1
 40
1
 40
1
 10
87.506001
 20
19.402900
 30
0.0
 10
87.506001
 20
19.270292
 30
0.0
 10
87.453323
 20
19.143115
 30
0.0
 10
87.359555
 20
19.049346
 30
0.0
  0
SPLINE
  5
15d
100
AcDbEntity
  8
0
 62
7
100
AcDbSpline
 70
8
 71
3
 72
8
 73
4
 74
0
 40
0
 40
0
 40
0
 40
0
 40
1
 40
1
 40
1
 40
1
 10
87.359555
 20
19.049346
 30
0.0
 10
87.265786
 20
18.955578
 30
0.0
 10
87.138609
 20
18.902900
 30
0.0
 10
87.006001
 20
18.902900
 30
0.0
  0
LWPOLYLINE
  5
15e
100
AcDbEntity
  8
0
 62
7
100
AcDbPolyline
 90
2
 70
0
 10
87.506001
 20
32.402900
 30
0.0
 10
87.506001
 20
19.402900
 30
0.0
  0
SPLINE
  5
15f
100
AcDbEntity
  8
0
 62
7
100
AcDbSpline
 70
8
 71
3
 72
8
 73
4
 74
0
 40
0
 40
0
 40
0
 40
0
 40
1
 40
1
 40
1
 40
1
 10
247.784803
 20
70.000501
 30
0.0
 10
247.917411
 20
70.000501
 30
0.0
 10
248.044588
 20
69.947822
 30
0.0
 10
248.138357
 20
69.854054
 30
0.0
  0
SPLINE
  5
160
100
AcDbEntity
  8
0
 62
7
100
AcDbSpline
 70
8
 71
3
 72
8
 73
4
 74
0
 40
0
 40
0
 40
0
 40
0
 40
1
 40
1
 40
1
 40
1
 10
248.138357
 20
69.854054
 30
0.0
 10
248.232125
 20
69.760286
 30
0.0
 10
248.284803
 20
69.633109
 30
0.0
 10
248.284803
 20
69.500501
 30
0.0
  0
LWPOLYLINE
  5
161
100
AcDbEntity
  8
0
 62
7
100
AcDbPolyline
 90
2
 70
0
 10
87.006001
 20
18.902900
 30
0.0
 10
81.256001
 20
18.902900
 30
0.0
  0
SPLINE
  5
162
100
AcDbEntity
  8
0
 62
7
100
AcDbSpline
 70
8
 71
3
 72
8
 73
4
 74
0
 40
0
 40
0
 40
0
 40
0
 40
1
 40
1
 40
1
 40
1
 10
248.284803
 20
56.500500
 30
0.0
 10
248.284803
 20
56.367892
 30
0.0
 10
248.232125
 20
56.240715
 30
0.0
 10
248.138357
 20
56.146947
 30
0.0
  0
SPLINE
  5
163
100
AcDbEntity
  8
0
 62
7
100
AcDbSpline
 70
8
 71
3
 72
8
 73
4
 74
0
 40
0
 40
0
 40
0
 40
0
 40
1
 40
1
 40
1
 40
1
 10
248.138357
 20
56.146947
 30
0.0
 10
248.044588
 20
56.053179
 30
0.0
 10
247.917411
 20
56.000500
 30
0.0
 10
247.784803
 20
56.000500
 30
0.0
  0
LWPOLYLINE
  5
164
100
AcDbEntity
  8
0
 62
7
100
AcDbPolyline
 90
2
 70
0
 10
248.284803
 20
69.500501
 30
0.0
 10
248.284803
 20
56.500500
 30
0.0
  0
SPLINE
  5
165
100
AcDbEntity
  8
0
 62
7
100
AcDbSpline
 70
8
 71
3
 72
8
 73
4
 74
0
 40
0
 40
0
 40
0
 40
0
 40
1
 40
1
 40
1
 40
1
 10
234.784803
 20
56.000500
 30
0.0
 10
234.652195
 20
56.000500
 30
0.0
 10
234.525018
 20
56.053179
 30
0.0
 10
234.431250
 20
56.146947
 30
0.0
  0
SPLINE
  5
166
100
AcDbEntity
  8
0
 62
7
100
AcDbSpline
 70
8
 71
3
 72
8
 73
4
 74
0
 40
0
 40
0
 40
0
 40
0
 40
1
 40
1
 40
1
 40
1
 10
234.431250
 20
56.146947
 30
0.0
 10
234.337481
 20
56.240715
 30
0.0
 10
234.284803
 20
56.367892
 30
0.0
 10
234.284803
 20
56.500500
 30
0.0
  0
LWPOLYLINE
  5
167
100
AcDbEntity
  8
0
 62
7
100
AcDbPolyline
 90
2
 70
0
 10
247.784803
 20
56.000500
 30
0.0
 10
234.784803
 20
56.000500
 30
0.0
  0
SPLINE
  5
168
100
AcDbEntity
  8
0
 62
7
100
AcDbSpline
 70
8
 71
3
 72
8
 73
4
 74
0
 40
0
 40
0
 40
0
 40
0
 40
1
 40
1
 40
1
 40
1
 10
234.284803
 20
69.500501
 30
0.0
 10
234.284803
 20
69.633109
 30
0.0
 10
234.337481
 20
69.760286
 30
0.0
 10
234.431250
 20
69.854054
 30
0.0
  0
SPLINE
  5
169
100
AcDbEntity
  8
0
 62
7
100
AcDbSpline
 70
8
 71
3
 72
8
 73
4
 74
0
 40
0
 40
0
 40
0
 40
0
 40
1
 40
1
 40
1
 40
1
 10
234.431250
 20
69.854054
 30
0.0
 10
234.525018
 20
69.947822
 30
0.0
 10
234.652195
 20
70.000501
 30
0.0
 10
234.784803
 20
70.000501
 30
0.0
  0
LWPOLYLINE
  5
16a
100
AcDbEntity
  8
0
 62
7
100
AcDbPolyline
 90
2
 70
0
 10
234.284803
 20
56.500500
 30
0.0
 10
234.284803
 20
69.500501
 30
0.0
  0
LWPOLYLINE
  5
16b
100
AcDbEntity
  8
0
 62
7
100
AcDbPolyline
 90
2
 70
0
 10
234.784803
 20
70.000501
 30
0.0
 10
247.784803
 20
70.000501
 30
0.0
  0
SPLINE
  5
16c
100
AcDbEntity
  8
0
 62
7
100
AcDbSpline
 70
8
 71
3
 72
8
 73
4
 74
0
 40
0
 40
0
 40
0
 40
0
 40
1
 40
1
 40
1
 40
1
 10
250.665903
 20
31.402900
 30
0.0
 10
250.665903
 20
31.535508
 30
0.0
 10
250.613225
 20
31.662685
 30
0.0
 10
250.519457
 20
31.756453
 30
0.0
  0
SPLINE
  5
16d
100
AcDbEntity
  8
0
 62
7
100
AcDbSpline
 70
8
 71
3
 72
8
 73
4
 74
0
 40
0
 40
0
 40
0
 40
0
 40
1
 40
1
 40
1
 40
1
 10
250.519457
 20
31.756453
 30
0.0
 10
250.425688
 20
31.850222
 30
0.0
 10
250.298512
 20
31.902900
 30
0.0
 10
250.165903
 20
31.902900
 30
0.0
  0
LWPOLYLINE
  5
16e
100
AcDbEntity
  8
0
 62
7
100
AcDbPolyline
 90
2
 70
0
 10
250.665903
 20
18.402900
 30
0.0
 10
250.665903
 20
31.402900
 30
0.0
  0
SPLINE
  5
16f
100
AcDbEntity
  8
0
 62
7
100
AcDbSpline
 70
8
 71
3
 72
8
 73
4
 74
0
 40
0
 40
0
 40
0
 40
0
 40
1
 40
1
 40
1
 40
1
 10
237.165903
 20
31.902900
 30
0.0
 10
237.033295
 20
31.902900
 30
0.0
 10
236.906118
 20
31.850222
 30
0.0
 10
236.812350
 20
31.756453
 30
0.0
  0
SPLINE
  5
170
100
AcDbEntity
  8
0
 62
7
100
AcDbSpline
 70
8
 71
3
 72
8
 73
4
 74
0
 40
0
 40
0
 40
0
 40
0
 40
1
 40
1
 40
1
 40
1
 10
236.812350
 20
31.756453
 30
0.0
 10
236.718582
 20
31.662685
 30
0.0
 10
236.665903
 20
31.535508
 30
0.0
 10
236.665903
 20
31.402900
 30
0.0
  0
LWPOLYLINE
  5
171
100
AcDbEntity
  8
0
 62
7
100
AcDbPolyline
 90
2
 70
0
 10
250.165903
 20
31.902900
 30
0.0
 10
237.165903
 20
31.902900
 30
0.0
  0
SPLINE
  5
172
100
AcDbEntity
  8
0
 62
7
100
AcDbSpline
 70
8
 71
3
 72
8
 73
4
 74
0
 40
0
 40
0
 40
0
 40
0
 40
1
 40
1
 40
1
 40
1
 10
236.665903
 20
18.402900
 30
0.0
 10
236.665903
 20
18.270292
 30
0.0
 10
236.718582
 20
18.143115
 30
0.0
 10
236.812350
 20
18.049346
 30
0.0
  0
SPLINE
  5
173
100
AcDbEntity
  8
0
 62
7
100
AcDbSpline
 70
8
 71
3
 72
8
 73
4
 74
0
 40
0
 40
0
 40
0
 40
0
 40
1
 40
1
 40
1
 40
1
 10
236.812350
 20
18.049346
 30
0.0
 10
236.906118
 20
17.955578
 30
0.0
 10
237.033295
 20
17.902900
 30
0.0
 10
237.165903
 20
17.902900
 30
0.0
  0
LWPOLYLINE
  5
174
100
AcDbEntity
  8
0
 62
7
100
AcDbPolyline
 90
2
 70
0
 10
236.665903
 20
31.402900
 30
0.0
 10
236.665903
 20
18.402900
 30
0.0
  0
SPLINE
  5
175
100
AcDbEntity
  8
0
 62
7
100
AcDbSpline
 70
8
 71
3
 72
8
 73
4
 74
0
 40
0
 40
0
 40
0
 40
0
 40
1
 40
1
 40
1
 40
1
 10
250.165903
 20
17.902900
 30
0.0
 10
250.298512
 20
17.902900
 30
0.0
 10
250.425688
 20
17.955578
 30
0.0
 10
250.519457
 20
18.049346
 30
0.0
  0
SPLINE
  5
176
100
AcDbEntity
  8
0
 62
7
100
AcDbSpline
 70
8
 71
3
 72
8
 73
4
 74
0
 40
0
 40
0
 40
0
 40
0
 40
1
 40
1
 40
1
 40
1
 10
250.519457
 20
18.049346
 30
0.0
 10
250.613225
 20
18.143115
 30
0.0
 10
250.665903
 20
18.270292
 30
0.0
 10
250.665903
 20
18.402900
 30
0.0
  0
LWPOLYLINE
  5
177
100
AcDbEntity
  8
0
 62
7
100
AcDbPolyline
 90
2
 70
0
 10
237.165903
 20
17.902900
 30
0.0
 10
250.165903
 20
17.902900
 30
0.0
  0
SPLINE
  5
178
100
AcDbEntity
  8
0
 62
7
100
AcDbSpline
 70
8
 71
3
 72
8
 73
4
 74
0
 40
0
 40
0
 40
0
 40
0
 40
1
 40
1
 40
1
 40
1
 10
207.806103
 20
31.402900
 30
0.0
 10
207.806103
 20
31.535508
 30
0.0
 10
207.753424
 20
31.662685
 30
0.0
 10
207.659656
 20
31.756453
 30
0.0
  0
SPLINE
  5
179
100
AcDbEntity
  8
0
 62
7
100
AcDbSpline
 70
8
 71
3
 72
8
 73
4
 74
0
 40
0
 40
0
 40
0
 40
0
 40
1
 40
1
 40
1
 40
1
 10
207.659656
 20
31.756453
 30
0.0
 10
207.565888
 20
31.850222
 30
0.0
 10
207.438711
 20
31.902900
 30
0.0
 10
207.306103
 20
31.902900
 30
0.0
  0
LWPOLYLINE
  5
17a
100
AcDbEntity
  8
0
 62
7
100
AcDbPolyline
 90
2
 70
0
 10
207.806103
 20
18.402900
 30
0.0
 10
207.806103
 20
31.402900
 30
0.0
  0
SPLINE
  5
17b
100
AcDbEntity
  8
0
 62
7
100
AcDbSpline
 70
8
 71
3
 72
8
 73
4
 74
0
 40
0
 40
0
 40
0
 40
0
 40
1
 40
1
 40
1
 40
1
 10
194.306103
 20
31.902900
 30
0.0
 10
194.173494
 20
31.902900
 30
0.0
 10
194.046317
 20
31.850222
 30
0.0
 10
193.952549
 20
31.756453
 30
0.0
  0
SPLINE
  5
17c
100
AcDbEntity
  8
0
 62
7
100
AcDbSpline
 70
8
 71
3
 72
8
 73
4
 74
0
 40
0
 40
0
 40
0
 40
0
 40
1
 40
1
 40
1
 40
1
 10
193.952549
 20
31.756453
 30
0.0
 10
193.858781
 20
31.662685
 30
0.0
 10
193.806103
 20
31.535508
 30
0.0
 10
193.806103
 20
31.402900
 30
0.0
  0
LWPOLYLINE
  5
17d
100
AcDbEntity
  8
0
 62
7
100
AcDbPolyline
 90
2
 70
0
 10
207.306103
 20
31.902900
 30
0.0
 10
194.306103
 20
31.902900
 30
0.0
  0
SPLINE
  5
17e
100
AcDbEntity
  8
0
 62
7
100
AcDbSpline
 70
8
 71
3
 72
8
 73
4
 74
0
 40
0
 40
0
 40
0
 40
0
 40
1
 40
1
 40
1
 40
1
 10
193.806103
 20
18.402900
 30
0.0
 10
193.806103
 20
18.270292
 30
0.0
 10
193.858781
 20
18.143115
 30
0.0
 10
193.952549
 20
18.049346
 30
0.0
  0
SPLINE
  5
17f
100
AcDbEntity
  8
0
 62
7
100
AcDbSpline
 70
8
 71
3
 72
8
 73
4
 74
0
 40
0
 40
0
 40
0
 40
0
 40
1
 40
1
 40
1
 40
1
 10
193.952549
 20
18.049346
 30
0.0
 10
194.046317
 20
17.955578
 30
0.0
 10
194.173494
 20
17.902900
 30
0.0
 10
194.306103
 20
17.902900
 30
0.0
  0
LWPOLYLINE
  5
180
100
AcDbEntity
  8
0
 62
7
100
AcDbPolyline
 90
2
 70
0
 10
193.806103
 20
31.402900
 30
0.0
 10
193.806103
 20
18.402900
 30
0.0
  0
SPLINE
  5
181
100
AcDbEntity
  8
0
 62
7
100
AcDbSpline
 70
8
 71
3
 72
8
 73
4
 74
0
 40
0
 40
0
 40
0
 40
0
 40
1
 40
1
 40
1
 40
1
 10
207.306103
 20
17.902900
 30
0.0
 10
207.438711
 20
17.902900
 30
0.0
 10
207.565888
 20
17.955578
 30
0.0
 10
207.659656
 20
18.049346
 30
0.0
  0
SPLINE
  5
182
100
AcDbEntity
  8
0
 62
7
100
AcDbSpline
 70
8
 71
3
 72
8
 73
4
 74
0
 40
0
 40
0
 40
0
 40
0
 40
1
 40
1
 40
1
 40
1
 10
207.659656
 20
18.049346
 30
0.0
 10
207.753424
 20
18.143115
 30
0.0
 10
207.806103
 20
18.270292
 30
0.0
 10
207.806103
 20
18.402900
 30
0.0
  0
LWPOLYLINE
  5
183
100
AcDbEntity
  8
0
 62
7
100
AcDbPolyline
 90
2
 70
0
 10
194.306103
 20
17.902900
 30
0.0
 10
207.306103
 20
17.902900
 30
0.0
  0
SPLINE
  5
184
100
AcDbEntity
  8
0
 62
7
100
AcDbSpline
 70
8
 71
3
 72
8
 73
4
 74
0
 40
0
 40
0
 40
0
 40
0
 40
1
 40
1
 40
1
 40
1
 10
50.653501
 20
31.402900
 30
0.0
 10
50.653501
 20
31.535508
 30
0.0
 10
50.600822
 20
31.662685
 30
0.0
 10
50.507054
 20
31.756453
 30
0.0
  0
SPLINE
  5
185
100
AcDbEntity
  8
0
 62
7
100
AcDbSpline
 70
8
 71
3
 72
8
 73
4
 74
0
 40
0
 40
0
 40
0
 40
0
 40
1
 40
1
 40
1
 40
1
 10
50.507054
 20
31.756453
 30
0.0
 10
50.413286
 20
31.850222
 30
0.0
 10
50.286109
 20
31.902900
 30
0.0
 10
50.153501
 20
31.902900
 30
0.0
  0
LWPOLYLINE
  5
186
100
AcDbEntity
  8
0
 62
7
100
AcDbPolyline
 90
2
 70
0
 10
50.653501
 20
18.402900
 30
0.0
 10
50.653501
 20
31.402900
 30
0.0
  0
SPLINE
  5
187
100
AcDbEntity
  8
0
 62
7
100
AcDbSpline
 70
8
 71
3
 72
8
 73
4
 74
0
 40
0
 40
0
 40
0
 40
0
 40
1
 40
1
 40
1
 40
1
 10
37.153500
 20
31.902900
 30
0.0
 10
37.020892
 20
31.902900
 30
0.0
 10
36.893715
 20
31.850222
 30
0.0
 10
36.799947
 20
31.756453
 30
0.0
  0
SPLINE
  5
188
100
AcDbEntity
  8
0
 62
7
100
AcDbSpline
 70
8
 71
3
 72
8
 73
4
 74
0
 40
0
 40
0
 40
0
 40
0
 40
1
 40
1
 40
1
 40
1
 10
36.799947
 20
31.756453
 30
0.0
 10
36.706179
 20
31.662685
 30
0.0
 10
36.653500
 20
31.535508
 30
0.0
 10
36.653500
 20
31.402900
 30
0.0
  0
LWPOLYLINE
  5
189
100
AcDbEntity
  8
0
 62
7
100
AcDbPolyline
 90
2
 70
0
 10
50.153501
 20
31.902900
 30
0.0
 10
37.153500
 20
31.902900
 30
0.0
  0
SPLINE
  5
18a
100
AcDbEntity
  8
0
 62
7
100
AcDbSpline
 70
8
 71
3
 72
8
 73
4
 74
0
 40
0
 40
0
 40
0
 40
0
 40
1
 40
1
 40
1
 40
1
 10
36.653500
 20
18.402900
 30
0.0
 10
36.653500
 20
18.270292
 30
0.0
 10
36.706179
 20
18.143115
 30
0.0
 10
36.799947
 20
18.049346
 30
0.0
  0
SPLINE
  5
18b
100
AcDbEntity
  8
0
 62
7
100
AcDbSpline
 70
8
 71
3
 72
8
 73
4
 74
0
 40
0
 40
0
 40
0
 40
0
 40
1
 40
1
 40
1
 40
1
 10
36.799947
 20
18.049346
 30
0.0
 10
36.893715
 20
17.955578
 30
0.0
 10
37.020892
 20
17.902900
 30
0.0
 10
37.153500
 20
17.902900
 30
0.0
  0
LWPOLYLINE
  5
18c
100
AcDbEntity
  8
0
 62
7
100
AcDbPolyline
 90
2
 70
0
 10
36.653500
 20
31.402900
 30
0.0
 10
36.653500
 20
18.402900
 30
0.0
  0
SPLINE
  5
18d
100
AcDbEntity
  8
0
 62
7
100
AcDbSpline
 70
8
 71
3
 72
8
 73
4
 74
0
 40
0
 40
0
 40
0
 40
0
 40
1
 40
1
 40
1
 40
1
 10
50.153501
 20
17.902900
 30
0.0
 10
50.286109
 20
17.902900
 30
0.0
 10
50.413286
 20
17.955578
 30
0.0
 10
50.507054
 20
18.049346
 30
0.0
  0
SPLINE
  5
18e
100
AcDbEntity
  8
0
 62
7
100
AcDbSpline
 70
8
 71
3
 72
8
 73
4
 74
0
 40
0
 40
0
 40
0
 40
0
 40
1
 40
1
 40
1
 40
1
 10
50.507054
 20
18.049346
 30
0.0
 10
50.600822
 20
18.143115
 30
0.0
 10
50.653501
 20
18.270292
 30
0.0
 10
50.653501
 20
18.402900
 30
0.0
  0
SPLINE
  5
18f
100
AcDbEntity
  8
0
 62
7
100
AcDbSpline
 70
8
 71
3
 72
8
 73
4
 74
0
 40
0
 40
0
 40
0
 40
0
 40
1
 40
1
 40
1
 40
1
 10
36.366900
 20
37.451700
 30
0.0
 10
36.366900
 20
37.319092
 30
0.0
 10
36.314222
 20
37.191915
 30
0.0
 10
36.220454
 20
37.098147
 30
0.0
  0
SPLINE
  5
190
100
AcDbEntity
  8
0
 62
7
100
AcDbSpline
 70
8
 71
3
 72
8
 73
4
 74
0
 40
0
 40
0
 40
0
 40
0
 40
1
 40
1
 40
1
 40
1
 10
36.220454
 20
37.098147
 30
0.0
 10
36.126686
 20
37.004379
 30
0.0
 10
35.999509
 20
36.951700
 30
0.0
 10
35.866900
 20
36.951700
 30
0.0
  0
LWPOLYLINE
  5
191
100
AcDbEntity
  8
0
 62
7
100
AcDbPolyline
 90
2
 70
0
 10
37.153500
 20
17.902900
 30
0.0
 10
50.153501
 20
17.902900
 30
0.0
  0
SPLINE
  5
192
100
AcDbEntity
  8
0
 62
7
100
AcDbSpline
 70
8
 71
3
 72
8
 73
4
 74
0
 40
0
 40
0
 40
0
 40
0
 40
1
 40
1
 40
1
 40
1
 10
22.866900
 20
36.951700
 30
0.0
 10
22.734292
 20
36.951700
 30
0.0
 10
22.607115
 20
37.004379
 30
0.0
 10
22.513347
 20
37.098147
 30
0.0
  0
SPLINE
  5
193
100
AcDbEntity
  8
0
 62
7
100
AcDbSpline
 70
8
 71
3
 72
8
 73
4
 74
0
 40
0
 40
0
 40
0
 40
0
 40
1
 40
1
 40
1
 40
1
 10
22.513347
 20
37.098147
 30
0.0
 10
22.419579
 20
37.191915
 30
0.0
 10
22.366900
 20
37.319092
 30
0.0
 10
22.366900
 20
37.451700
 30
0.0
  0
LWPOLYLINE
  5
194
100
AcDbEntity
  8
0
 62
7
100
AcDbPolyline
 90
2
 70
0
 10
35.866900
 20
36.951700
 30
0.0
 10
22.866900
 20
36.951700
 30
0.0
  0
SPLINE
  5
195
100
AcDbEntity
  8
0
 62
7
100
AcDbSpline
 70
8
 71
3
 72
8
 73
4
 74
0
 40
0
 40
0
 40
0
 40
0
 40
1
 40
1
 40
1
 40
1
 10
22.366900
 20
50.451700
 30
0.0
 10
22.366900
 20
50.584309
 30
0.0
 10
22.419579
 20
50.711485
 30
0.0
 10
22.513347
 20
50.805254
 30
0.0
  0
SPLINE
  5
196
100
AcDbEntity
  8
0
 62
7
100
AcDbSpline
 70
8
 71
3
 72
8
 73
4
 74
0
 40
0
 40
0
 40
0
 40
0
 40
1
 40
1
 40
1
 40
1
 10
22.513347
 20
50.805254
 30
0.0
 10
22.607115
 20
50.899022
 30
0.0
 10
22.734292
 20
50.951700
 30
0.0
 10
22.866900
 20
50.951700
 30
0.0
  0
LWPOLYLINE
  5
197
100
AcDbEntity
  8
0
 62
7
100
AcDbPolyline
 90
2
 70
0
 10
22.366900
 20
37.451700
 30
0.0
 10
22.366900
 20
50.451700
 30
0.0
  0
SPLINE
  5
198
100
AcDbEntity
  8
0
 62
7
100
AcDbSpline
 70
8
 71
3
 72
8
 73
4
 74
0
 40
0
 40
0
 40
0
 40
0
 40
1
 40
1
 40
1
 40
1
 10
35.866900
 20
50.951700
 30
0.0
 10
35.999509
 20
50.951700
 30
0.0
 10
36.126686
 20
50.899022
 30
0.0
 10
36.220454
 20
50.805254
 30
0.0
  0
SPLINE
  5
199
100
AcDbEntity
  8
0
 62
7
100
AcDbSpline
 70
8
 71
3
 72
8
 73
4
 74
0
 40
0
 40
0
 40
0
 40
0
 40
1
 40
1
 40
1
 40
1
 10
36.220454
 20
50.805254
 30
0.0
 10
36.314222
 20
50.711485
 30
0.0
 10
36.366900
 20
50.584309
 30
0.0
 10
36.366900
 20
50.451700
 30
0.0
  0
LWPOLYLINE
  5
19a
100
AcDbEntity
  8
0
 62
7
100
AcDbPolyline
 90
2
 70
0
 10
22.866900
 20
50.951700
 30
0.0
 10
35.866900
 20
50.951700
 30
0.0
  0
LWPOLYLINE
  5
19b
100
AcDbEntity
  8
0
 62
7
100
AcDbPolyline
 90
2
 70
0
 10
36.366900
 20
50.451700
 30
0.0
 10
36.366900
 20
37.451700
 30
0.0
  0
SPLINE
  5
19c
100
AcDbEntity
  8
0
 62
7
100
AcDbSpline
 70
8
 71
3
 72
8
 73
4
 74
0
 40
0
 40
0
 40
0
 40
0
 40
1
 40
1
 40
1
 40
1
 10
31.604700
 20
69.500501
 30
0.0
 10
31.604700
 20
69.633109
 30
0.0
 10
31.552022
 20
69.760286
 30
0.0
 10
31.458254
 20
69.854054
 30
0.0
  0
SPLINE
  5
19d
100
AcDbEntity
  8
0
 62
7
100
AcDbSpline
 70
8
 71
3
 72
8
 73
4
 74
0
 40
0
 40
0
 40
0
 40
0
 40
1
 40
1
 40
1
 40
1
 10
31.458254
 20
69.854054
 30
0.0
 10
31.364486
 20
69.947822
 30
0.0
 10
31.237309
 20
70.000501
 30
0.0
 10
31.104700
 20
70.000501
 30
0.0
  0
LWPOLYLINE
  5
19e
100
AcDbEntity
  8
0
 62
7
100
AcDbPolyline
 90
2
 70
0
 10
31.604700
 20
56.500500
 30
0.0
 10
31.604700
 20
69.500501
 30
0.0
  0
SPLINE
  5
19f
100
AcDbEntity
  8
0
 62
7
100
AcDbSpline
 70
8
 71
3
 72
8
 73
4
 74
0
 40
0
 40
0
 40
0
 40
0
 40
1
 40
1
 40
1
 40
1
 10
18.104700
 20
70.000501
 30
0.0
 10
17.972092
 20
70.000501
 30
0.0
 10
17.844915
 20
69.947822
 30
0.0
 10
17.751147
 20
69.854054
 30
0.0
  0
SPLINE
  5
1a0
100
AcDbEntity
  8
0
 62
7
100
AcDbSpline
 70
8
 71
3
 72
8
 73
4
 74
0
 40
0
 40
0
 40
0
 40
0
 40
1
 40
1
 40
1
 40
1
 10
17.751147
 20
69.854054
 30
0.0
 10
17.657379
 20
69.760286
 30
0.0
 10
17.604700
 20
69.633109
 30
0.0
 10
17.604700
 20
69.500501
 30
0.0
  0
LWPOLYLINE
  5
1a1
100
AcDbEntity
  8
0
 62
7
100
AcDbPolyline
 90
2
 70
0
 10
31.104700
 20
70.000501
 30
0.0
 10
18.104700
 20
70.000501
 30
0.0
  0
SPLINE
  5
1a2
100
AcDbEntity
  8
0
 62
7
100
AcDbSpline
 70
8
 71
3
 72
8
 73
4
 74
0
 40
0
 40
0
 40
0
 40
0
 40
1
 40
1
 40
1
 40
1
 10
17.604700
 20
56.500500
 30
0.0
 10
17.604700
 20
56.367892
 30
0.0
 10
17.657379
 20
56.240715
 30
0.0
 10
17.751147
 20
56.146947
 30
0.0
  0
SPLINE
  5
1a3
100
AcDbEntity
  8
0
 62
7
100
AcDbSpline
 70
8
 71
3
 72
8
 73
4
 74
0
 40
0
 40
0
 40
0
 40
0
 40
1
 40
1
 40
1
 40
1
 10
17.751147
 20
56.146947
 30
0.0
 10
17.844915
 20
56.053179
 30
0.0
 10
17.972092
 20
56.000500
 30
0.0
 10
18.104700
 20
56.000500
 30
0.0
  0
LWPOLYLINE
  5
1a4
100
AcDbEntity
  8
0
 62
7
100
AcDbPolyline
 90
2
 70
0
 10
17.604700
 20
69.500501
 30
0.0
 10
17.604700
 20
56.500500
 30
0.0
  0
SPLINE
  5
1a5
100
AcDbEntity
  8
0
 62
7
100
AcDbSpline
 70
8
 71
3
 72
8
 73
4
 74
0
 40
0
 40
0
 40
0
 40
0
 40
1
 40
1
 40
1
 40
1
 10
31.104700
 20
56.000500
 30
0.0
 10
31.237309
 20
56.000500
 30
0.0
 10
31.364486
 20
56.053179
 30
0.0
 10
31.458254
 20
56.146947
 30
0.0
  0
SPLINE
  5
1a6
100
AcDbEntity
  8
0
 62
7
100
AcDbSpline
 70
8
 71
3
 72
8
 73
4
 74
0
 40
0
 40
0
 40
0
 40
0
 40
1
 40
1
 40
1
 40
1
 10
31.458254
 20
56.146947
 30
0.0
 10
31.552022
 20
56.240715
 30
0.0
 10
31.604700
 20
56.367892
 30
0.0
 10
31.604700
 20
56.500500
 30
0.0
  0
SPLINE
  5
1a7
100
AcDbEntity
  8
0
 62
7
100
AcDbSpline
 70
8
 71
3
 72
8
 73
4
 74
0
 40
0
 40
0
 40
0
 40
0
 40
1
 40
1
 40
1
 40
1
 10
229.236003
 20
18.402900
 30
0.0
 10
229.236003
 20
18.270292
 30
0.0
 10
229.183325
 20
18.143115
 30
0.0
 10
229.089556
 20
18.049346
 30
0.0
  0
SPLINE
  5
1a8
100
AcDbEntity
  8
0
 62
7
100
AcDbSpline
 70
8
 71
3
 72
8
 73
4
 74
0
 40
0
 40
0
 40
0
 40
0
 40
1
 40
1
 40
1
 40
1
 10
229.089556
 20
18.049346
 30
0.0
 10
228.995788
 20
17.955578
 30
0.0
 10
228.868611
 20
17.902900
 30
0.0
 10
228.736003
 20
17.902900
 30
0.0
  0
LWPOLYLINE
  5
1a9
100
AcDbEntity
  8
0
 62
7
100
AcDbPolyline
 90
2
 70
0
 10
18.104700
 20
56.000500
 30
0.0
 10
31.104700
 20
56.000500
 30
0.0
  0
SPLINE
  5
1aa
100
AcDbEntity
  8
0
 62
7
100
AcDbSpline
 70
8
 71
3
 72
8
 73
4
 74
0
 40
0
 40
0
 40
0
 40
0
 40
1
 40
1
 40
1
 40
1
 10
215.736003
 20
17.902900
 30
0.0
 10
215.603395
 20
17.902900
 30
0.0
 10
215.476218
 20
17.955578
 30
0.0
 10
215.382449
 20
18.049346
 30
0.0
  0
SPLINE
  5
1ab
100
AcDbEntity
  8
0
 62
7
100
AcDbSpline
 70
8
 71
3
 72
8
 73
4
 74
0
 40
0
 40
0
 40
0
 40
0
 40
1
 40
1
 40
1
 40
1
 10
215.382449
 20
18.049346
 30
0.0
 10
215.288681
 20
18.143115
 30
0.0
 10
215.236003
 20
18.270292
 30
0.0
 10
215.236003
 20
18.402900
 30
0.0
  0
LWPOLYLINE
  5
1ac
100
AcDbEntity
  8
0
 62
7
100
AcDbPolyline
 90
2
 70
0
 10
228.736003
 20
17.902900
 30
0.0
 10
215.736003
 20
17.902900
 30
0.0
  0
SPLINE
  5
1ad
100
AcDbEntity
  8
0
 62
7
100
AcDbSpline
 70
8
 71
3
 72
8
 73
4
 74
0
 40
0
 40
0
 40
0
 40
0
 40
1
 40
1
 40
1
 40
1
 10
215.236003
 20
31.402900
 30
0.0
 10
215.236003
 20
31.535508
 30
0.0
 10
215.288681
 20
31.662685
 30
0.0
 10
215.382449
 20
31.756453
 30
0.0
  0
SPLINE
  5
1ae
100
AcDbEntity
  8
0
 62
7
100
AcDbSpline
 70
8
 71
3
 72
8
 73
4
 74
0
 40
0
 40
0
 40
0
 40
0
 40
1
 40
1
 40
1
 40
1
 10
215.382449
 20
31.756453
 30
0.0
 10
215.476218
 20
31.850222
 30
0.0
 10
215.603395
 20
31.902900
 30
0.0
 10
215.736003
 20
31.902900
 30
0.0
  0
LWPOLYLINE
  5
1af
100
AcDbEntity
  8
0
 62
7
100
AcDbPolyline
 90
2
 70
0
 10
215.236003
 20
18.402900
 30
0.0
 10
215.236003
 20
31.402900
 30
0.0
  0
SPLINE
  5
1b0
100
AcDbEntity
  8
0
 62
7
100
AcDbSpline
 70
8
 71
3
 72
8
 73
4
 74
0
 40
0
 40
0
 40
0
 40
0
 40
1
 40
1
 40
1
 40
1
 10
228.736003
 20
31.902900
 30
0.0
 10
228.868611
 20
31.902900
 30
0.0
 10
228.995788
 20
31.850222
 30
0.0
 10
229.089556
 20
31.756453
 30
0.0
  0
SPLINE
  5
1b1
100
AcDbEntity
  8
0
 62
7
100
AcDbSpline
 70
8
 71
3
 72
8
 73
4
 74
0
 40
0
 40
0
 40
0
 40
0
 40
1
 40
1
 40
1
 40
1
 10
229.089556
 20
31.756453
 30
0.0
 10
229.183325
 20
31.662685
 30
0.0
 10
229.236003
 20
31.535508
 30
0.0
 10
229.236003
 20
31.402900
 30
0.0
  0
LWPOLYLINE
  5
1b2
100
AcDbEntity
  8
0
 62
7
100
AcDbPolyline
 90
2
 70
0
 10
215.736003
 20
31.902900
 30
0.0
 10
228.736003
 20
31.902900
 30
0.0
  0
SPLINE
  5
1b3
100
AcDbEntity
  8
0
 62
7
100
AcDbSpline
 70
8
 71
3
 72
8
 73
4
 74
0
 40
0
 40
0
 40
0
 40
0
 40
1
 40
1
 40
1
 40
1
 10
72.083401
 20
18.402900
 30
0.0
 10
72.083401
 20
18.270292
 30
0.0
 10
72.030723
 20
18.143115
 30
0.0
 10
71.936954
 20
18.049346
 30
0.0
  0
SPLINE
  5
1b4
100
AcDbEntity
  8
0
 62
7
100
AcDbSpline
 70
8
 71
3
 72
8
 73
4
 74
0
 40
0
 40
0
 40
0
 40
0
 40
1
 40
1
 40
1
 40
1
 10
71.936954
 20
18.049346
 30
0.0
 10
71.843186
 20
17.955578
 30
0.0
 10
71.716009
 20
17.902900
 30
0.0
 10
71.583401
 20
17.902900
 30
0.0
  0
LWPOLYLINE
  5
1b5
100
AcDbEntity
  8
0
 62
7
100
AcDbPolyline
 90
2
 70
0
 10
229.236003
 20
31.402900
 30
0.0
 10
229.236003
 20
18.402900
 30
0.0
  0
SPLINE
  5
1b6
100
AcDbEntity
  8
0
 62
7
100
AcDbSpline
 70
8
 71
3
 72
8
 73
4
 74
0
 40
0
 40
0
 40
0
 40
0
 40
1
 40
1
 40
1
 40
1
 10
58.583401
 20
17.902900
 30
0.0
 10
58.450793
 20
17.902900
 30
0.0
 10
58.323616
 20
17.955578
 30
0.0
 10
58.229847
 20
18.049346
 30
0.0
  0
SPLINE
  5
1b7
100
AcDbEntity
  8
0
 62
7
100
AcDbSpline
 70
8
 71
3
 72
8
 73
4
 74
0
 40
0
 40
0
 40
0
 40
0
 40
1
 40
1
 40
1
 40
1
 10
58.229847
 20
18.049346
 30
0.0
 10
58.136079
 20
18.143115
 30
0.0
 10
58.083401
 20
18.270292
 30
0.0
 10
58.083401
 20
18.402900
 30
0.0
  0
LWPOLYLINE
  5
1b8
100
AcDbEntity
  8
0
 62
7
100
AcDbPolyline
 90
2
 70
0
 10
71.583401
 20
17.902900
 30
0.0
 10
58.583401
 20
17.902900
 30
0.0
  0
SPLINE
  5
1b9
100
AcDbEntity
  8
0
 62
7
100
AcDbSpline
 70
8
 71
3
 72
8
 73
4
 74
0
 40
0
 40
0
 40
0
 40
0
 40
1
 40
1
 40
1
 40
1
 10
58.083401
 20
31.402900
 30
0.0
 10
58.083401
 20
31.535508
 30
0.0
 10
58.136079
 20
31.662685
 30
0.0
 10
58.229847
 20
31.756453
 30
0.0
  0
SPLINE
  5
1ba
100
AcDbEntity
  8
0
 62
7
100
AcDbSpline
 70
8
 71
3
 72
8
 73
4
 74
0
 40
0
 40
0
 40
0
 40
0
 40
1
 40
1
 40
1
 40
1
 10
58.229847
 20
31.756453
 30
0.0
 10
58.323616
 20
31.850222
 30
0.0
 10
58.450793
 20
31.902900
 30
0.0
 10
58.583401
 20
31.902900
 30
0.0
  0
LWPOLYLINE
  5
1bb
100
AcDbEntity
  8
0
 62
7
100
AcDbPolyline
 90
2
 70
0
 10
58.083401
 20
18.402900
 30
0.0
 10
58.083401
 20
31.402900
 30
0.0
  0
SPLINE
  5
1bc
100
AcDbEntity
  8
0
 62
7
100
AcDbSpline
 70
8
 71
3
 72
8
 73
4
 74
0
 40
0
 40
0
 40
0
 40
0
 40
1
 40
1
 40
1
 40
1
 10
71.583401
 20
31.902900
 30
0.0
 10
71.716009
 20
31.902900
 30
0.0
 10
71.843186
 20
31.850222
 30
0.0
 10
71.936954
 20
31.756453
 30
0.0
  0
SPLINE
  5
1bd
100
AcDbEntity
  8
0
 62
7
100
AcDbSpline
 70
8
 71
3
 72
8
 73
4
 74
0
 40
0
 40
0
 40
0
 40
0
 40
1
 40
1
 40
1
 40
1
 10
71.936954
 20
31.756453
 30
0.0
 10
72.030723
 20
31.662685
 30
0.0
 10
72.083401
 20
31.535508
 30
0.0
 10
72.083401
 20
31.402900
 30
0.0
  0
LWPOLYLINE
  5
1be
100
AcDbEntity
  8
0
 62
7
100
AcDbPolyline
 90
2
 70
0
 10
58.583401
 20
31.902900
 30
0.0
 10
71.583401
 20
31.902900
 30
0.0
  0
SPLINE
  5
1bf
100
AcDbEntity
  8
0
 62
7
100
AcDbSpline
 70
8
 71
3
 72
8
 73
4
 74
0
 40
0
 40
0
 40
0
 40
0
 40
1
 40
1
 40
1
 40
1
 10
29.223600
 20
18.402900
 30
0.0
 10
29.223600
 20
18.270292
 30
0.0
 10
29.170922
 20
18.143115
 30
0.0
 10
29.077154
 20
18.049346
 30
0.0
  0
SPLINE
  5
1c0
100
AcDbEntity
  8
0
 62
7
100
AcDbSpline
 70
8
 71
3
 72
8
 73
4
 74
0
 40
0
 40
0
 40
0
 40
0
 40
1
 40
1
 40
1
 40
1
 10
29.077154
 20
18.049346
 30
0.0
 10
28.983386
 20
17.955578
 30
0.0
 10
28.856209
 20
17.902900
 30
0.0
 10
28.723600
 20
17.902900
 30
0.0
  0
LWPOLYLINE
  5
1c1
100
AcDbEntity
  8
0
 62
7
100
AcDbPolyline
 90
2
 70
0
 10
72.083401
 20
31.402900
 30
0.0
 10
72.083401
 20
18.402900
 30
0.0
  0
SPLINE
  5
1c2
100
AcDbEntity
  8
0
 62
7
100
AcDbSpline
 70
8
 71
3
 72
8
 73
4
 74
0
 40
0
 40
0
 40
0
 40
0
 40
1
 40
1
 40
1
 40
1
 10
15.723600
 20
17.902900
 30
0.0
 10
15.590992
 20
17.902900
 30
0.0
 10
15.463815
 20
17.955578
 30
0.0
 10
15.370047
 20
18.049346
 30
0.0
  0
SPLINE
  5
1c3
100
AcDbEntity
  8
0
 62
7
100
AcDbSpline
 70
8
 71
3
 72
8
 73
4
 74
0
 40
0
 40
0
 40
0
 40
0
 40
1
 40
1
 40
1
 40
1
 10
15.370047
 20
18.049346
 30
0.0
 10
15.276279
 20
18.143115
 30
0.0
 10
15.223600
 20
18.270292
 30
0.0
 10
15.223600
 20
18.402900
 30
0.0
  0
LWPOLYLINE
  5
1c4
100
AcDbEntity
  8
0
 62
7
100
AcDbPolyline
 90
2
 70
0
 10
28.723600
 20
17.902900
 30
0.0
 10
15.723600
 20
17.902900
 30
0.0
  0
SPLINE
  5
1c5
100
AcDbEntity
  8
0
 62
7
100
AcDbSpline
 70
8
 71
3
 72
8
 73
4
 74
0
 40
0
 40
0
 40
0
 40
0
 40
1
 40
1
 40
1
 40
1
 10
15.223600
 20
31.402900
 30
0.0
 10
15.223600
 20
31.535508
 30
0.0
 10
15.276279
 20
31.662685
 30
0.0
 10
15.370047
 20
31.756453
 30
0.0
  0
SPLINE
  5
1c6
100
AcDbEntity
  8
0
 62
7
100
AcDbSpline
 70
8
 71
3
 72
8
 73
4
 74
0
 40
0
 40
0
 40
0
 40
0
 40
1
 40
1
 40
1
 40
1
 10
15.370047
 20
31.756453
 30
0.0
 10
15.463815
 20
31.850222
 30
0.0
 10
15.590992
 20
31.902900
 30
0.0
 10
15.723600
 20
31.902900
 30
0.0
  0
LWPOLYLINE
  5
1c7
100
AcDbEntity
  8
0
 62
7
100
AcDbPolyline
 90
2
 70
0
 10
15.223600
 20
18.402900
 30
0.0
 10
15.223600
 20
31.402900
 30
0.0
  0
SPLINE
  5
1c8
100
AcDbEntity
  8
0
 62
7
100
AcDbSpline
 70
8
 71
3
 72
8
 73
4
 74
0
 40
0
 40
0
 40
0
 40
0
 40
1
 40
1
 40
1
 40
1
 10
28.723600
 20
31.902900
 30
0.0
 10
28.856209
 20
31.902900
 30
0.0
 10
28.983386
 20
31.850222
 30
0.0
 10
29.077154
 20
31.756453
 30
0.0
  0
SPLINE
  5
1c9
100
AcDbEntity
  8
0
 62
7
100
AcDbSpline
 70
8
 71
3
 72
8
 73
4
 74
0
 40
0
 40
0
 40
0
 40
0
 40
1
 40
1
 40
1
 40
1
 10
29.077154
 20
31.756453
 30
0.0
 10
29.170922
 20
31.662685
 30
0.0
 10
29.223600
 20
31.535508
 30
0.0
 10
29.223600
 20
31.402900
 30
0.0
  0
LWPOLYLINE
  5
1ca
100
AcDbEntity
  8
0
 62
7
100
AcDbPolyline
 90
2
 70
0
 10
15.723600
 20
31.902900
 30
0.0
 10
28.723600
 20
31.902900
 30
0.0
  0
SPLINE
  5
1cb
100
AcDbEntity
  8
0
 62
7
100
AcDbSpline
 70
8
 71
3
 72
8
 73
4
 74
0
 40
0
 40
0
 40
0
 40
0
 40
1
 40
1
 40
1
 40
1
 10
62.559001
 20
37.451700
 30
0.0
 10
62.559001
 20
37.319092
 30
0.0
 10
62.506322
 20
37.191915
 30
0.0
 10
62.412554
 20
37.098147
 30
0.0
  0
SPLINE
  5
1cc
100
AcDbEntity
  8
0
 62
7
100
AcDbSpline
 70
8
 71
3
 72
8
 73
4
 74
0
 40
0
 40
0
 40
0
 40
0
 40
1
 40
1
 40
1
 40
1
 10
62.412554
 20
37.098147
 30
0.0
 10
62.318786
 20
37.004379
 30
0.0
 10
62.191609
 20
36.951700
 30
0.0
 10
62.059001
 20
36.951700
 30
0.0
  0
LWPOLYLINE
  5
1cd
100
AcDbEntity
  8
0
 62
7
100
AcDbPolyline
 90
2
 70
0
 10
29.223600
 20
31.402900
 30
0.0
 10
29.223600
 20
18.402900
 30
0.0
  0
SPLINE
  5
1ce
100
AcDbEntity
  8
0
 62
7
100
AcDbSpline
 70
8
 71
3
 72
8
 73
4
 74
0
 40
0
 40
0
 40
0
 40
0
 40
1
 40
1
 40
1
 40
1
 10
49.059001
 20
36.951700
 30
0.0
 10
48.926392
 20
36.951700
 30
0.0
 10
48.799215
 20
37.004379
 30
0.0
 10
48.705447
 20
37.098147
 30
0.0
  0
SPLINE
  5
1cf
100
AcDbEntity
  8
0
 62
7
100
AcDbSpline
 70
8
 71
3
 72
8
 73
4
 74
0
 40
0
 40
0
 40
0
 40
0
 40
1
 40
1
 40
1
 40
1
 10
48.705447
 20
37.098147
 30
0.0
 10
48.611679
 20
37.191915
 30
0.0
 10
48.559001
 20
37.319092
 30
0.0
 10
48.559001
 20
37.451700
 30
0.0
  0
LWPOLYLINE
  5
1d0
100
AcDbEntity
  8
0
 62
7
100
AcDbPolyline
 90
2
 70
0
 10
62.059001
 20
36.951700
 30
0.0
 10
49.059001
 20
36.951700
 30
0.0
  0
SPLINE
  5
1d1
100
AcDbEntity
  8
0
 62
7
100
AcDbSpline
 70
8
 71
3
 72
8
 73
4
 74
0
 40
0
 40
0
 40
0
 40
0
 40
1
 40
1
 40
1
 40
1
 10
48.559001
 20
50.451700
 30
0.0
 10
48.559001
 20
50.584309
 30
0.0
 10
48.611679
 20
50.711485
 30
0.0
 10
48.705447
 20
50.805254
 30
0.0
  0
SPLINE
  5
1d2
100
AcDbEntity
  8
0
 62
7
100
AcDbSpline
 70
8
 71
3
 72
8
 73
4
 74
0
 40
0
 40
0
 40
0
 40
0
 40
1
 40
1
 40
1
 40
1
 10
48.705447
 20
50.805254
 30
0.0
 10
48.799215
 20
50.899022
 30
0.0
 10
48.926392
 20
50.951700
 30
0.0
 10
49.059001
 20
50.951700
 30
0.0
  0
LWPOLYLINE
  5
1d3
100
AcDbEntity
  8
0
 62
7
100
AcDbPolyline
 90
2
 70
0
 10
48.559001
 20
37.451700
 30
0.0
 10
48.559001
 20
50.451700
 30
0.0
  0
SPLINE
  5
1d4
100
AcDbEntity
  8
0
 62
7
100
AcDbSpline
 70
8
 71
3
 72
8
 73
4
 74
0
 40
0
 40
0
 40
0
 40
0
 40
1
 40
1
 40
1
 40
1
 10
62.059001
 20
50.951700
 30
0.0
 10
62.191609
 20
50.951700
 30
0.0
 10
62.318786
 20
50.899022
 30
0.0
 10
62.412554
 20
50.805254
 30
0.0
  0
SPLINE
  5
1d5
100
AcDbEntity
  8
0
 62
7
100
AcDbSpline
 70
8
 71
3
 72
8
 73
4
 74
0
 40
0
 40
0
 40
0
 40
0
 40
1
 40
1
 40
1
 40
1
 10
62.412554
 20
50.805254
 30
0.0
 10
62.506322
 20
50.711485
 30
0.0
 10
62.559001
 20
50.584309
 30
0.0
 10
62.559001
 20
50.451700
 30
0.0
  0
LWPOLYLINE
  5
1d6
100
AcDbEntity
  8
0
 62
7
100
AcDbPolyline
 90
2
 70
0
 10
49.059001
 20
50.951700
 30
0.0
 10
62.059001
 20
50.951700
 30
0.0
  0
SPLINE
  5
1d7
100
AcDbEntity
  8
0
 62
7
100
AcDbSpline
 70
8
 71
3
 72
8
 73
4
 74
0
 40
0
 40
0
 40
0
 40
0
 40
1
 40
1
 40
1
 40
1
 10
81.607801
 20
37.451700
 30
0.0
 10
81.607801
 20
37.319092
 30
0.0
 10
81.555123
 20
37.191915
 30
0.0
 10
81.461354
 20
37.098147
 30
0.0
  0
SPLINE
  5
1d8
100
AcDbEntity
  8
0
 62
7
100
AcDbSpline
 70
8
 71
3
 72
8
 73
4
 74
0
 40
0
 40
0
 40
0
 40
0
 40
1
 40
1
 40
1
 40
1
 10
81.461354
 20
37.098147
 30
0.0
 10
81.367586
 20
37.004379
 30
0.0
 10
81.240409
 20
36.951700
 30
0.0
 10
81.107801
 20
36.951700
 30
0.0
  0
LWPOLYLINE
  5
1d9
100
AcDbEntity
  8
0
 62
7
100
AcDbPolyline
 90
2
 70
0
 10
62.559001
 20
50.451700
 30
0.0
 10
62.559001
 20
37.451700
 30
0.0
  0
SPLINE
  5
1da
100
AcDbEntity
  8
0
 62
7
100
AcDbSpline
 70
8
 71
3
 72
8
 73
4
 74
0
 40
0
 40
0
 40
0
 40
0
 40
1
 40
1
 40
1
 40
1
 10
68.107801
 20
36.951700
 30
0.0
 10
67.975193
 20
36.951700
 30
0.0
 10
67.848016
 20
37.004379
 30
0.0
 10
67.754247
 20
37.098147
 30
0.0
  0
SPLINE
  5
1db
100
AcDbEntity
  8
0
 62
7
100
AcDbSpline
 70
8
 71
3
 72
8
 73
4
 74
0
 40
0
 40
0
 40
0
 40
0
 40
1
 40
1
 40
1
 40
1
 10
67.754247
 20
37.098147
 30
0.0
 10
67.660479
 20
37.191915
 30
0.0
 10
67.607801
 20
37.319092
 30
0.0
 10
67.607801
 20
37.451700
 30
0.0
  0
LWPOLYLINE
  5
1dc
100
AcDbEntity
  8
0
 62
7
100
AcDbPolyline
 90
2
 70
0
 10
81.107801
 20
36.951700
 30
0.0
 10
68.107801
 20
36.951700
 30
0.0
  0
SPLINE
  5
1dd
100
AcDbEntity
  8
0
 62
7
100
AcDbSpline
 70
8
 71
3
 72
8
 73
4
 74
0
 40
0
 40
0
 40
0
 40
0
 40
1
 40
1
 40
1
 40
1
 10
67.607801
 20
50.451700
 30
0.0
 10
67.607801
 20
50.584309
 30
0.0
 10
67.660479
 20
50.711485
 30
0.0
 10
67.754247
 20
50.805254
 30
0.0
  0
SPLINE
  5
1de
100
AcDbEntity
  8
0
 62
7
100
AcDbSpline
 70
8
 71
3
 72
8
 73
4
 74
0
 40
0
 40
0
 40
0
 40
0
 40
1
 40
1
 40
1
 40
1
 10
67.754247
 20
50.805254
 30
0.0
 10
67.848016
 20
50.899022
 30
0.0
 10
67.975193
 20
50.951700
 30
0.0
 10
68.107801
 20
50.951700
 30
0.0
  0
LWPOLYLINE
  5
1df
100
AcDbEntity
  8
0
 62
7
100
AcDbPolyline
 90
2
 70
0
 10
67.607801
 20
37.451700
 30
0.0
 10
67.607801
 20
50.451700
 30
0.0
  0
SPLINE
  5
1e0
100
AcDbEntity
  8
0
 62
7
100
AcDbSpline
 70
8
 71
3
 72
8
 73
4
 74
0
 40
0
 40
0
 40
0
 40
0
 40
1
 40
1
 40
1
 40
1
 10
81.107801
 20
50.951700
 30
0.0
 10
81.240409
 20
50.951700
 30
0.0
 10
81.367586
 20
50.899022
 30
0.0
 10
81.461354
 20
50.805254
 30
0.0
  0
SPLINE
  5
1e1
100
AcDbEntity
  8
0
 62
7
100
AcDbSpline
 70
8
 71
3
 72
8
 73
4
 74
0
 40
0
 40
0
 40
0
 40
0
 40
1
 40
1
 40
1
 40
1
 10
81.461354
 20
50.805254
 30
0.0
 10
81.555123
 20
50.711485
 30
0.0
 10
81.607801
 20
50.584309
 30
0.0
 10
81.607801
 20
50.451700
 30
0.0
  0
LWPOLYLINE
  5
1e2
100
AcDbEntity
  8
0
 62
7
100
AcDbPolyline
 90
2
 70
0
 10
68.107801
 20
50.951700
 30
0.0
 10
81.107801
 20
50.951700
 30
0.0
  0
SPLINE
  5
1e3
100
AcDbEntity
  8
0
 62
7
100
AcDbSpline
 70
8
 71
3
 72
8
 73
4
 74
0
 40
0
 40
0
 40
0
 40
0
 40
1
 40
1
 40
1
 40
1
 10
100.656601
 20
37.451700
 30
0.0
 10
100.656601
 20
37.319092
 30
0.0
 10
100.603923
 20
37.191915
 30
0.0
 10
100.510155
 20
37.098147
 30
0.0
  0
SPLINE
  5
1e4
100
AcDbEntity
  8
0
 62
7
100
AcDbSpline
 70
8
 71
3
 72
8
 73
4
 74
0
 40
0
 40
0
 40
0
 40
0
 40
1
 40
1
 40
1
 40
1
 10
100.510155
 20
37.098147
 30
0.0
 10
100.416387
 20
37.004379
 30
0.0
 10
100.289210
 20
36.951700
 30
0.0
 10
100.156601
 20
36.951700
 30
0.0
  0
LWPOLYLINE
  5
1e5
100
AcDbEntity
  8
0
 62
7
100
AcDbPolyline
 90
2
 70
0
 10
81.607801
 20
50.451700
 30
0.0
 10
81.607801
 20
37.451700
 30
0.0
  0
SPLINE
  5
1e6
100
AcDbEntity
  8
0
 62
7
100
AcDbSpline
 70
8
 71
3
 72
8
 73
4
 74
0
 40
0
 40
0
 40
0
 40
0
 40
1
 40
1
 40
1
 40
1
 10
87.156601
 20
36.951700
 30
0.0
 10
87.023993
 20
36.951700
 30
0.0
 10
86.896816
 20
37.004379
 30
0.0
 10
86.803048
 20
37.098147
 30
0.0
  0
SPLINE
  5
1e7
100
AcDbEntity
  8
0
 62
7
100
AcDbSpline
 70
8
 71
3
 72
8
 73
4
 74
0
 40
0
 40
0
 40
0
 40
0
 40
1
 40
1
 40
1
 40
1
 10
86.803048
 20
37.098147
 30
0.0
 10
86.709280
 20
37.191915
 30
0.0
 10
86.656601
 20
37.319092
 30
0.0
 10
86.656601
 20
37.451700
 30
0.0
  0
LWPOLYLINE
  5
1e8
100
AcDbEntity
  8
0
 62
7
100
AcDbPolyline
 90
2
 70
0
 10
100.156601
 20
36.951700
 30
0.0
 10
87.156601
 20
36.951700
 30
0.0
  0
SPLINE
  5
1e9
100
AcDbEntity
  8
0
 62
7
100
AcDbSpline
 70
8
 71
3
 72
8
 73
4
 74
0
 40
0
 40
0
 40
0
 40
0
 40
1
 40
1
 40
1
 40
1
 10
86.656601
 20
50.451700
 30
0.0
 10
86.656601
 20
50.584309
 30
0.0
 10
86.709280
 20
50.711485
 30
0.0
 10
86.803048
 20
50.805254
 30
0.0
  0
SPLINE
  5
1ea
100
AcDbEntity
  8
0
 62
7
100
AcDbSpline
 70
8
 71
3
 72
8
 73
4
 74
0
 40
0
 40
0
 40
0
 40
0
 40
1
 40
1
 40
1
 40
1
 10
86.803048
 20
50.805254
 30
0.0
 10
86.896816
 20
50.899022
 30
0.0
 10
87.023993
 20
50.951700
 30
0.0
 10
87.156601
 20
50.951700
 30
0.0
  0
LWPOLYLINE
  5
1eb
100
AcDbEntity
  8
0
 62
7
100
AcDbPolyline
 90
2
 70
0
 10
86.656601
 20
37.451700
 30
0.0
 10
86.656601
 20
50.451700
 30
0.0
  0
SPLINE
  5
1ec
100
AcDbEntity
  8
0
 62
7
100
AcDbSpline
 70
8
 71
3
 72
8
 73
4
 74
0
 40
0
 40
0
 40
0
 40
0
 40
1
 40
1
 40
1
 40
1
 10
100.156601
 20
50.951700
 30
0.0
 10
100.289210
 20
50.951700
 30
0.0
 10
100.416387
 20
50.899022
 30
0.0
 10
100.510155
 20
50.805254
 30
0.0
  0
SPLINE
  5
1ed
100
AcDbEntity
  8
0
 62
7
100
AcDbSpline
 70
8
 71
3
 72
8
 73
4
 74
0
 40
0
 40
0
 40
0
 40
0
 40
1
 40
1
 40
1
 40
1
 10
100.510155
 20
50.805254
 30
0.0
 10
100.603923
 20
50.711485
 30
0.0
 10
100.656601
 20
50.584309
 30
0.0
 10
100.656601
 20
50.451700
 30
0.0
  0
LWPOLYLINE
  5
1ee
100
AcDbEntity
  8
0
 62
7
100
AcDbPolyline
 90
2
 70
0
 10
87.156601
 20
50.951700
 30
0.0
 10
100.156601
 20
50.951700
 30
0.0
  0
SPLINE
  5
1ef
100
AcDbEntity
  8
0
 62
7
100
AcDbSpline
 70
8
 71
3
 72
8
 73
4
 74
0
 40
0
 40
0
 40
0
 40
0
 40
1
 40
1
 40
1
 40
1
 10
119.705402
 20
37.451700
 30
0.0
 10
119.705402
 20
37.319092
 30
0.0
 10
119.652723
 20
37.191915
 30
0.0
 10
119.558955
 20
37.098147
 30
0.0
  0
SPLINE
  5
1f0
100
AcDbEntity
  8
0
 62
7
100
AcDbSpline
 70
8
 71
3
 72
8
 73
4
 74
0
 40
0
 40
0
 40
0
 40
0
 40
1
 40
1
 40
1
 40
1
 10
119.558955
 20
37.098147
 30
0.0
 10
119.465187
 20
37.004379
 30
0.0
 10
119.338010
 20
36.951700
 30
0.0
 10
119.205402
 20
36.951700
 30
0.0
  0
LWPOLYLINE
  5
1f1
100
AcDbEntity
  8
0
 62
7
100
AcDbPolyline
 90
2
 70
0
 10
100.656601
 20
50.451700
 30
0.0
 10
100.656601
 20
37.451700
 30
0.0
  0
SPLINE
  5
1f2
100
AcDbEntity
  8
0
 62
7
100
AcDbSpline
 70
8
 71
3
 72
8
 73
4
 74
0
 40
0
 40
0
 40
0
 40
0
 40
1
 40
1
 40
1
 40
1
 10
106.205401
 20
36.951700
 30
0.0
 10
106.072793
 20
36.951700
 30
0.0
 10
105.945616
 20
37.004379
 30
0.0
 10
105.851848
 20
37.098147
 30
0.0
  0
SPLINE
  5
1f3
100
AcDbEntity
  8
0
 62
7
100
AcDbSpline
 70
8
 71
3
 72
8
 73
4
 74
0
 40
0
 40
0
 40
0
 40
0
 40
1
 40
1
 40
1
 40
1
 10
105.851848
 20
37.098147
 30
0.0
 10
105.758080
 20
37.191915
 30
0.0
 10
105.705401
 20
37.319092
 30
0.0
 10
105.705401
 20
37.451700
 30
0.0
  0
LWPOLYLINE
  5
1f4
100
AcDbEntity
  8
0
 62
7
100
AcDbPolyline
 90
2
 70
0
 10
119.205402
 20
36.951700
 30
0.0
 10
106.205401
 20
36.951700
 30
0.0
  0
SPLINE
  5
1f5
100
AcDbEntity
  8
0
 62
7
100
AcDbSpline
 70
8
 71
3
 72
8
 73
4
 74
0
 40
0
 40
0
 40
0
 40
0
 40
1
 40
1
 40
1
 40
1
 10
105.705401
 20
50.451700
 30
0.0
 10
105.705401
 20
50.584309
 30
0.0
 10
105.758080
 20
50.711485
 30
0.0
 10
105.851848
 20
50.805254
 30
0.0
  0
SPLINE
  5
1f6
100
AcDbEntity
  8
0
 62
7
100
AcDbSpline
 70
8
 71
3
 72
8
 73
4
 74
0
 40
0
 40
0
 40
0
 40
0
 40
1
 40
1
 40
1
 40
1
 10
105.851848
 20
50.805254
 30
0.0
 10
105.945616
 20
50.899022
 30
0.0
 10
106.072793
 20
50.951700
 30
0.0
 10
106.205401
 20
50.951700
 30
0.0
  0
LWPOLYLINE
  5
1f7
100
AcDbEntity
  8
0
 62
7
100
AcDbPolyline
 90
2
 70
0
 10
105.705401
 20
37.451700
 30
0.0
 10
105.705401
 20
50.451700
 30
0.0
  0
SPLINE
  5
1f8
100
AcDbEntity
  8
0
 62
7
100
AcDbSpline
 70
8
 71
3
 72
8
 73
4
 74
0
 40
0
 40
0
 40
0
 40
0
 40
1
 40
1
 40
1
 40
1
 10
119.205402
 20
50.951700
 30
0.0
 10
119.338010
 20
50.951700
 30
0.0
 10
119.465187
 20
50.899022
 30
0.0
 10
119.558955
 20
50.805254
 30
0.0
  0
SPLINE
  5
1f9
100
AcDbEntity
  8
0
 62
7
100
AcDbSpline
 70
8
 71
3
 72
8
 73
4
 74
0
 40
0
 40
0
 40
0
 40
0
 40
1
 40
1
 40
1
 40
1
 10
119.558955
 20
50.805254
 30
0.0
 10
119.652723
 20
50.711485
 30
0.0
 10
119.705402
 20
50.584309
 30
0.0
 10
119.705402
 20
50.451700
 30
0.0
  0
LWPOLYLINE
  5
1fa
100
AcDbEntity
  8
0
 62
7
100
AcDbPolyline
 90
2
 70
0
 10
106.205401
 20
50.951700
 30
0.0
 10
119.205402
 20
50.951700
 30
0.0
  0
SPLINE
  5
1fb
100
AcDbEntity
  8
0
 62
7
100
AcDbSpline
 70
8
 71
3
 72
8
 73
4
 74
0
 40
0
 40
0
 40
0
 40
0
 40
1
 40
1
 40
1
 40
1
 10
138.754202
 20
37.451700
 30
0.0
 10
138.754202
 20
37.319092
 30
0.0
 10
138.701523
 20
37.191915
 30
0.0
 10
138.607755
 20
37.098147
 30
0.0
  0
SPLINE
  5
1fc
100
AcDbEntity
  8
0
 62
7
100
AcDbSpline
 70
8
 71
3
 72
8
 73
4
 74
0
 40
0
 40
0
 40
0
 40
0
 40
1
 40
1
 40
1
 40
1
 10
138.607755
 20
37.098147
 30
0.0
 10
138.513987
 20
37.004379
 30
0.0
 10
138.386810
 20
36.951700
 30
0.0
 10
138.254202
 20
36.951700
 30
0.0
  0
LWPOLYLINE
  5
1fd
100
AcDbEntity
  8
0
 62
7
100
AcDbPolyline
 90
2
 70
0
 10
119.705402
 20
50.451700
 30
0.0
 10
119.705402
 20
37.451700
 30
0.0
  0
SPLINE
  5
1fe
100
AcDbEntity
  8
0
 62
7
100
AcDbSpline
 70
8
 71
3
 72
8
 73
4
 74
0
 40
0
 40
0
 40
0
 40
0
 40
1
 40
1
 40
1
 40
1
 10
125.254202
 20
36.951700
 30
0.0
 10
125.121593
 20
36.951700
 30
0.0
 10
124.994416
 20
37.004379
 30
0.0
 10
124.900648
 20
37.098147
 30
0.0
  0
SPLINE
  5
1ff
100
AcDbEntity
  8
0
 62
7
100
AcDbSpline
 70
8
 71
3
 72
8
 73
4
 74
0
 40
0
 40
0
 40
0
 40
0
 40
1
 40
1
 40
1
 40
1
 10
124.900648
 20
37.098147
 30
0.0
 10
124.806880
 20
37.191915
 30
0.0
 10
124.754202
 20
37.319092
 30
0.0
 10
124.754202
 20
37.451700
 30
0.0
  0
LWPOLYLINE
  5
200
100
AcDbEntity
  8
0
 62
7
100
AcDbPolyline
 90
2
 70
0
 10
138.254202
 20
36.951700
 30
0.0
 10
125.254202
 20
36.951700
 30
0.0
  0
SPLINE
  5
201
100
AcDbEntity
  8
0
 62
7
100
AcDbSpline
 70
8
 71
3
 72
8
 73
4
 74
0
 40
0
 40
0
 40
0
 40
0
 40
1
 40
1
 40
1
 40
1
 10
124.754202
 20
50.451700
 30
0.0
 10
124.754202
 20
50.584309
 30
0.0
 10
124.806880
 20
50.711485
 30
0.0
 10
124.900648
 20
50.805254
 30
0.0
  0
SPLINE
  5
202
100
AcDbEntity
  8
0
 62
7
100
AcDbSpline
 70
8
 71
3
 72
8
 73
4
 74
0
 40
0
 40
0
 40
0
 40
0
 40
1
 40
1
 40
1
 40
1
 10
124.900648
 20
50.805254
 30
0.0
 10
124.994416
 20
50.899022
 30
0.0
 10
125.121593
 20
50.951700
 30
0.0
 10
125.254202
 20
50.951700
 30
0.0
  0
LWPOLYLINE
  5
203
100
AcDbEntity
  8
0
 62
7
100
AcDbPolyline
 90
2
 70
0
 10
124.754202
 20
37.451700
 30
0.0
 10
124.754202
 20
50.451700
 30
0.0
  0
SPLINE
  5
204
100
AcDbEntity
  8
0
 62
7
100
AcDbSpline
 70
8
 71
3
 72
8
 73
4
 74
0
 40
0
 40
0
 40
0
 40
0
 40
1
 40
1
 40
1
 40
1
 10
138.254202
 20
50.951700
 30
0.0
 10
138.386810
 20
50.951700
 30
0.0
 10
138.513987
 20
50.899022
 30
0.0
 10
138.607755
 20
50.805254
 30
0.0
  0
SPLINE
  5
205
100
AcDbEntity
  8
0
 62
7
100
AcDbSpline
 70
8
 71
3
 72
8
 73
4
 74
0
 40
0
 40
0
 40
0
 40
0
 40
1
 40
1
 40
1
 40
1
 10
138.607755
 20
50.805254
 30
0.0
 10
138.701523
 20
50.711485
 30
0.0
 10
138.754202
 20
50.584309
 30
0.0
 10
138.754202
 20
50.451700
 30
0.0
  0
LWPOLYLINE
  5
206
100
AcDbEntity
  8
0
 62
7
100
AcDbPolyline
 90
2
 70
0
 10
125.254202
 20
50.951700
 30
0.0
 10
138.254202
 20
50.951700
 30
0.0
  0
SPLINE
  5
207
100
AcDbEntity
  8
0
 62
7
100
AcDbSpline
 70
8
 71
3
 72
8
 73
4
 74
0
 40
0
 40
0
 40
0
 40
0
 40
1
 40
1
 40
1
 40
1
 10
157.803002
 20
37.451700
 30
0.0
 10
157.803002
 20
37.319092
 30
0.0
 10
157.750324
 20
37.191915
 30
0.0
 10
157.656555
 20
37.098147
 30
0.0
  0
SPLINE
  5
208
100
AcDbEntity
  8
0
 62
7
100
AcDbSpline
 70
8
 71
3
 72
8
 73
4
 74
0
 40
0
 40
0
 40
0
 40
0
 40
1
 40
1
 40
1
 40
1
 10
157.656555
 20
37.098147
 30
0.0
 10
157.562787
 20
37.004379
 30
0.0
 10
157.435610
 20
36.951700
 30
0.0
 10
157.303002
 20
36.951700
 30
0.0
  0
LWPOLYLINE
  5
209
100
AcDbEntity
  8
0
 62
7
100
AcDbPolyline
 90
2
 70
0
 10
138.754202
 20
50.451700
 30
0.0
 10
138.754202
 20
37.451700
 30
0.0
  0
SPLINE
  5
20a
100
AcDbEntity
  8
0
 62
7
100
AcDbSpline
 70
8
 71
3
 72
8
 73
4
 74
0
 40
0
 40
0
 40
0
 40
0
 40
1
 40
1
 40
1
 40
1
 10
144.303002
 20
36.951700
 30
0.0
 10
144.170394
 20
36.951700
 30
0.0
 10
144.043217
 20
37.004379
 30
0.0
 10
143.949448
 20
37.098147
 30
0.0
  0
SPLINE
  5
20b
100
AcDbEntity
  8
0
 62
7
100
AcDbSpline
 70
8
 71
3
 72
8
 73
4
 74
0
 40
0
 40
0
 40
0
 40
0
 40
1
 40
1
 40
1
 40
1
 10
143.949448
 20
37.098147
 30
0.0
 10
143.855680
 20
37.191915
 30
0.0
 10
143.803002
 20
37.319092
 30
0.0
 10
143.803002
 20
37.451700
 30
0.0
  0
LWPOLYLINE
  5
20c
100
AcDbEntity
  8
0
 62
7
100
AcDbPolyline
 90
2
 70
0
 10
157.303002
 20
36.951700
 30
0.0
 10
144.303002
 20
36.951700
 30
0.0
  0
SPLINE
  5
20d
100
AcDbEntity
  8
0
 62
7
100
AcDbSpline
 70
8
 71
3
 72
8
 73
4
 74
0
 40
0
 40
0
 40
0
 40
0
 40
1
 40
1
 40
1
 40
1
 10
143.803002
 20
50.451700
 30
0.0
 10
143.803002
 20
50.584309
 30
0.0
 10
143.855680
 20
50.711485
 30
0.0
 10
143.949448
 20
50.805254
 30
0.0
  0
SPLINE
  5
20e
100
AcDbEntity
  8
0
 62
7
100
AcDbSpline
 70
8
 71
3
 72
8
 73
4
 74
0
 40
0
 40
0
 40
0
 40
0
 40
1
 40
1
 40
1
 40
1
 10
143.949448
 20
50.805254
 30
0.0
 10
144.043217
 20
50.899022
 30
0.0
 10
144.170394
 20
50.951700
 30
0.0
 10
144.303002
 20
50.951700
 30
0.0
  0
LWPOLYLINE
  5
20f
100
AcDbEntity
  8
0
 62
7
100
AcDbPolyline
 90
2
 70
0
 10
143.803002
 20
37.451700
 30
0.0
 10
143.803002
 20
50.451700
 30
0.0
  0
SPLINE
  5
210
100
AcDbEntity
  8
0
 62
7
100
AcDbSpline
 70
8
 71
3
 72
8
 73
4
 74
0
 40
0
 40
0
 40
0
 40
0
 40
1
 40
1
 40
1
 40
1
 10
157.303002
 20
50.951700
 30
0.0
 10
157.435610
 20
50.951700
 30
0.0
 10
157.562787
 20
50.899022
 30
0.0
 10
157.656555
 20
50.805254
 30
0.0
  0
SPLINE
  5
211
100
AcDbEntity
  8
0
 62
7
100
AcDbSpline
 70
8
 71
3
 72
8
 73
4
 74
0
 40
0
 40
0
 40
0
 40
0
 40
1
 40
1
 40
1
 40
1
 10
157.656555
 20
50.805254
 30
0.0
 10
157.750324
 20
50.711485
 30
0.0
 10
157.803002
 20
50.584309
 30
0.0
 10
157.803002
 20
50.451700
 30
0.0
  0
LWPOLYLINE
  5
212
100
AcDbEntity
  8
0
 62
7
100
AcDbPolyline
 90
2
 70
0
 10
144.303002
 20
50.951700
 30
0.0
 10
157.303002
 20
50.951700
 30
0.0
  0
SPLINE
  5
213
100
AcDbEntity
  8
0
 62
7
100
AcDbSpline
 70
8
 71
3
 72
8
 73
4
 74
0
 40
0
 40
0
 40
0
 40
0
 40
1
 40
1
 40
1
 40
1
 10
176.851802
 20
37.451700
 30
0.0
 10
176.851802
 20
37.319092
 30
0.0
 10
176.799124
 20
37.191915
 30
0.0
 10
176.705356
 20
37.098147
 30
0.0
  0
SPLINE
  5
214
100
AcDbEntity
  8
0
 62
7
100
AcDbSpline
 70
8
 71
3
 72
8
 73
4
 74
0
 40
0
 40
0
 40
0
 40
0
 40
1
 40
1
 40
1
 40
1
 10
176.705356
 20
37.098147
 30
0.0
 10
176.611588
 20
37.004379
 30
0.0
 10
176.484411
 20
36.951700
 30
0.0
 10
176.351802
 20
36.951700
 30
0.0
  0
LWPOLYLINE
  5
215
100
AcDbEntity
  8
0
 62
7
100
AcDbPolyline
 90
2
 70
0
 10
157.803002
 20
50.451700
 30
0.0
 10
157.803002
 20
37.451700
 30
0.0
  0
SPLINE
  5
216
100
AcDbEntity
  8
0
 62
7
100
AcDbSpline
 70
8
 71
3
 72
8
 73
4
 74
0
 40
0
 40
0
 40
0
 40
0
 40
1
 40
1
 40
1
 40
1
 10
163.351802
 20
36.951700
 30
0.0
 10
163.219194
 20
36.951700
 30
0.0
 10
163.092017
 20
37.004379
 30
0.0
 10
162.998249
 20
37.098147
 30
0.0
  0
SPLINE
  5
217
100
AcDbEntity
  8
0
 62
7
100
AcDbSpline
 70
8
 71
3
 72
8
 73
4
 74
0
 40
0
 40
0
 40
0
 40
0
 40
1
 40
1
 40
1
 40
1
 10
162.998249
 20
37.098147
 30
0.0
 10
162.904481
 20
37.191915
 30
0.0
 10
162.851802
 20
37.319092
 30
0.0
 10
162.851802
 20
37.451700
 30
0.0
  0
LWPOLYLINE
  5
218
100
AcDbEntity
  8
0
 62
7
100
AcDbPolyline
 90
2
 70
0
 10
176.351802
 20
36.951700
 30
0.0
 10
163.351802
 20
36.951700
 30
0.0
  0
SPLINE
  5
219
100
AcDbEntity
  8
0
 62
7
100
AcDbSpline
 70
8
 71
3
 72
8
 73
4
 74
0
 40
0
 40
0
 40
0
 40
0
 40
1
 40
1
 40
1
 40
1
 10
162.851802
 20
50.451700
 30
0.0
 10
162.851802
 20
50.584309
 30
0.0
 10
162.904481
 20
50.711485
 30
0.0
 10
162.998249
 20
50.805254
 30
0.0
  0
SPLINE
  5
21a
100
AcDbEntity
  8
0
 62
7
100
AcDbSpline
 70
8
 71
3
 72
8
 73
4
 74
0
 40
0
 40
0
 40
0
 40
0
 40
1
 40
1
 40
1
 40
1
 10
162.998249
 20
50.805254
 30
0.0
 10
163.092017
 20
50.899022
 30
0.0
 10
163.219194
 20
50.951700
 30
0.0
 10
163.351802
 20
50.951700
 30
0.0
  0
LWPOLYLINE
  5
21b
100
AcDbEntity
  8
0
 62
7
100
AcDbPolyline
 90
2
 70
0
 10
162.851802
 20
37.451700
 30
0.0
 10
162.851802
 20
50.451700
 30
0.0
  0
SPLINE
  5
21c
100
AcDbEntity
  8
0
 62
7
100
AcDbSpline
 70
8
 71
3
 72
8
 73
4
 74
0
 40
0
 40
0
 40
0
 40
0
 40
1
 40
1
 40
1
 40
1
 10
176.351802
 20
50.951700
 30
0.0
 10
176.484411
 20
50.951700
 30
0.0
 10
176.611588
 20
50.899022
 30
0.0
 10
176.705356
 20
50.805254
 30
0.0
  0
SPLINE
  5
21d
100
AcDbEntity
  8
0
 62
7
100
AcDbSpline
 70
8
 71
3
 72
8
 73
4
 74
0
 40
0
 40
0
 40
0
 40
0
 40
1
 40
1
 40
1
 40
1
 10
176.705356
 20
50.805254
 30
0.0
 10
176.799124
 20
50.711485
 30
0.0
 10
176.851802
 20
50.584309
 30
0.0
 10
176.851802
 20
50.451700
 30
0.0
  0
LWPOLYLINE
  5
21e
100
AcDbEntity
  8
0
 62
7
100
AcDbPolyline
 90
2
 70
0
 10
163.351802
 20
50.951700
 30
0.0
 10
176.351802
 20
50.951700
 30
0.0
  0
SPLINE
  5
21f
100
AcDbEntity
  8
0
 62
7
100
AcDbSpline
 70
8
 71
3
 72
8
 73
4
 74
0
 40
0
 40
0
 40
0
 40
0
 40
1
 40
1
 40
1
 40
1
 10
195.900603
 20
37.451700
 30
0.0
 10
195.900603
 20
37.319092
 30
0.0
 10
195.847924
 20
37.191915
 30
0.0
 10
195.754156
 20
37.098147
 30
0.0
  0
SPLINE
  5
220
100
AcDbEntity
  8
0
 62
7
100
AcDbSpline
 70
8
 71
3
 72
8
 73
4
 74
0
 40
0
 40
0
 40
0
 40
0
 40
1
 40
1
 40
1
 40
1
 10
195.754156
 20
37.098147
 30
0.0
 10
195.660388
 20
37.004379
 30
0.0
 10
195.533211
 20
36.951700
 30
0.0
 10
195.400603
 20
36.951700
 30
0.0
  0
LWPOLYLINE
  5
221
100
AcDbEntity
  8
0
 62
7
100
AcDbPolyline
 90
2
 70
0
 10
176.851802
 20
50.451700
 30
0.0
 10
176.851802
 20
37.451700
 30
0.0
  0
SPLINE
  5
222
100
AcDbEntity
  8
0
 62
7
100
AcDbSpline
 70
8
 71
3
 72
8
 73
4
 74
0
 40
0
 40
0
 40
0
 40
0
 40
1
 40
1
 40
1
 40
1
 10
182.400602
 20
36.951700
 30
0.0
 10
182.267994
 20
36.951700
 30
0.0
 10
182.140817
 20
37.004379
 30
0.0
 10
182.047049
 20
37.098147
 30
0.0
  0
SPLINE
  5
223
100
AcDbEntity
  8
0
 62
7
100
AcDbSpline
 70
8
 71
3
 72
8
 73
4
 74
0
 40
0
 40
0
 40
0
 40
0
 40
1
 40
1
 40
1
 40
1
 10
182.047049
 20
37.098147
 30
0.0
 10
181.953281
 20
37.191915
 30
0.0
 10
181.900602
 20
37.319092
 30
0.0
 10
181.900602
 20
37.451700
 30
0.0
  0
LWPOLYLINE
  5
224
100
AcDbEntity
  8
0
 62
7
100
AcDbPolyline
 90
2
 70
0
 10
195.400603
 20
36.951700
 30
0.0
 10
182.400602
 20
36.951700
 30
0.0
  0
SPLINE
  5
225
100
AcDbEntity
  8
0
 62
7
100
AcDbSpline
 70
8
 71
3
 72
8
 73
4
 74
0
 40
0
 40
0
 40
0
 40
0
 40
1
 40
1
 40
1
 40
1
 10
181.900602
 20
50.451700
 30
0.0
 10
181.900602
 20
50.584309
 30
0.0
 10
181.953281
 20
50.711485
 30
0.0
 10
182.047049
 20
50.805254
 30
0.0
  0
SPLINE
  5
226
100
AcDbEntity
  8
0
 62
7
100
AcDbSpline
 70
8
 71
3
 72
8
 73
4
 74
0
 40
0
 40
0
 40
0
 40
0
 40
1
 40
1
 40
1
 40
1
 10
182.047049
 20
50.805254
 30
0.0
 10
182.140817
 20
50.899022
 30
0.0
 10
182.267994
 20
50.951700
 30
0.0
 10
182.400602
 20
50.951700
 30
0.0
  0
LWPOLYLINE
  5
227
100
AcDbEntity
  8
0
 62
7
100
AcDbPolyline
 90
2
 70
0
 10
181.900602
 20
37.451700
 30
0.0
 10
181.900602
 20
50.451700
 30
0.0
  0
SPLINE
  5
228
100
AcDbEntity
  8
0
 62
7
100
AcDbSpline
 70
8
 71
3
 72
8
 73
4
 74
0
 40
0
 40
0
 40
0
 40
0
 40
1
 40
1
 40
1
 40
1
 10
195.400603
 20
50.951700
 30
0.0
 10
195.533211
 20
50.951700
 30
0.0
 10
195.660388
 20
50.899022
 30
0.0
 10
195.754156
 20
50.805254
 30
0.0
  0
SPLINE
  5
229
100
AcDbEntity
  8
0
 62
7
100
AcDbSpline
 70
8
 71
3
 72
8
 73
4
 74
0
 40
0
 40
0
 40
0
 40
0
 40
1
 40
1
 40
1
 40
1
 10
195.754156
 20
50.805254
 30
0.0
 10
195.847924
 20
50.711485
 30
0.0
 10
195.900603
 20
50.584309
 30
0.0
 10
195.900603
 20
50.451700
 30
0.0
  0
LWPOLYLINE
  5
22a
100
AcDbEntity
  8
0
 62
7
100
AcDbPolyline
 90
2
 70
0
 10
182.400602
 20
50.951700
 30
0.0
 10
195.400603
 20
50.951700
 30
0.0
  0
SPLINE
  5
22b
100
AcDbEntity
  8
0
 62
7
100
AcDbSpline
 70
8
 71
3
 72
8
 73
4
 74
0
 40
0
 40
0
 40
0
 40
0
 40
1
 40
1
 40
1
 40
1
 10
214.949403
 20
37.451700
 30
0.0
 10
214.949403
 20
37.319092
 30
0.0
 10
214.896724
 20
37.191915
 30
0.0
 10
214.802956
 20
37.098147
 30
0.0
  0
SPLINE
  5
22c
100
AcDbEntity
  8
0
 62
7
100
AcDbSpline
 70
8
 71
3
 72
8
 73
4
 74
0
 40
0
 40
0
 40
0
 40
0
 40
1
 40
1
 40
1
 40
1
 10
214.802956
 20
37.098147
 30
0.0
 10
214.709188
 20
37.004379
 30
0.0
 10
214.582011
 20
36.951700
 30
0.0
 10
214.449403
 20
36.951700
 30
0.0
  0
LWPOLYLINE
  5
22d
100
AcDbEntity
  8
0
 62
7
100
AcDbPolyline
 90
2
 70
0
 10
195.900603
 20
50.451700
 30
0.0
 10
195.900603
 20
37.451700
 30
0.0
  0
SPLINE
  5
22e
100
AcDbEntity
  8
0
 62
7
100
AcDbSpline
 70
8
 71
3
 72
8
 73
4
 74
0
 40
0
 40
0
 40
0
 40
0
 40
1
 40
1
 40
1
 40
1
 10
201.449403
 20
36.951700
 30
0.0
 10
201.316794
 20
36.951700
 30
0.0
 10
201.189617
 20
37.004379
 30
0.0
 10
201.095849
 20
37.098147
 30
0.0
  0
SPLINE
  5
22f
100
AcDbEntity
  8
0
 62
7
100
AcDbSpline
 70
8
 71
3
 72
8
 73
4
 74
0
 40
0
 40
0
 40
0
 40
0
 40
1
 40
1
 40
1
 40
1
 10
201.095849
 20
37.098147
 30
0.0
 10
201.002081
 20
37.191915
 30
0.0
 10
200.949403
 20
37.319092
 30
0.0
 10
200.949403
 20
37.451700
 30
0.0
  0
LWPOLYLINE
  5
230
100
AcDbEntity
  8
0
 62
7
100
AcDbPolyline
 90
2
 70
0
 10
214.449403
 20
36.951700
 30
0.0
 10
201.449403
 20
36.951700
 30
0.0
  0
SPLINE
  5
231
100
AcDbEntity
  8
0
 62
7
100
AcDbSpline
 70
8
 71
3
 72
8
 73
4
 74
0
 40
0
 40
0
 40
0
 40
0
 40
1
 40
1
 40
1
 40
1
 10
200.949403
 20
50.451700
 30
0.0
 10
200.949403
 20
50.584309
 30
0.0
 10
201.002081
 20
50.711485
 30
0.0
 10
201.095849
 20
50.805254
 30
0.0
  0
SPLINE
  5
232
100
AcDbEntity
  8
0
 62
7
100
AcDbSpline
 70
8
 71
3
 72
8
 73
4
 74
0
 40
0
 40
0
 40
0
 40
0
 40
1
 40
1
 40
1
 40
1
 10
201.095849
 20
50.805254
 30
0.0
 10
201.189617
 20
50.899022
 30
0.0
 10
201.316794
 20
50.951700
 30
0.0
 10
201.449403
 20
50.951700
 30
0.0
  0
LWPOLYLINE
  5
233
100
AcDbEntity
  8
0
 62
7
100
AcDbPolyline
 90
2
 70
0
 10
200.949403
 20
37.451700
 30
0.0
 10
200.949403
 20
50.451700
 30
0.0
  0
SPLINE
  5
234
100
AcDbEntity
  8
0
 62
7
100
AcDbSpline
 70
8
 71
3
 72
8
 73
4
 74
0
 40
0
 40
0
 40
0
 40
0
 40
1
 40
1
 40
1
 40
1
 10
214.449403
 20
50.951700
 30
0.0
 10
214.582011
 20
50.951700
 30
0.0
 10
214.709188
 20
50.899022
 30
0.0
 10
214.802956
 20
50.805254
 30
0.0
  0
SPLINE
  5
235
100
AcDbEntity
  8
0
 62
7
100
AcDbSpline
 70
8
 71
3
 72
8
 73
4
 74
0
 40
0
 40
0
 40
0
 40
0
 40
1
 40
1
 40
1
 40
1
 10
214.802956
 20
50.805254
 30
0.0
 10
214.896724
 20
50.711485
 30
0.0
 10
214.949403
 20
50.584309
 30
0.0
 10
214.949403
 20
50.451700
 30
0.0
  0
LWPOLYLINE
  5
236
100
AcDbEntity
  8
0
 62
7
100
AcDbPolyline
 90
2
 70
0
 10
201.449403
 20
50.951700
 30
0.0
 10
214.449403
 20
50.951700
 30
0.0
  0
SPLINE
  5
237
100
AcDbEntity
  8
0
 62
7
100
AcDbSpline
 70
8
 71
3
 72
8
 73
4
 74
0
 40
0
 40
0
 40
0
 40
0
 40
1
 40
1
 40
1
 40
1
 10
233.998203
 20
37.451700
 30
0.0
 10
233.998203
 20
37.319092
 30
0.0
 10
233.945525
 20
37.191915
 30
0.0
 10
233.851756
 20
37.098147
 30
0.0
  0
SPLINE
  5
238
100
AcDbEntity
  8
0
 62
7
100
AcDbSpline
 70
8
 71
3
 72
8
 73
4
 74
0
 40
0
 40
0
 40
0
 40
0
 40
1
 40
1
 40
1
 40
1
 10
233.851756
 20
37.098147
 30
0.0
 10
233.757988
 20
37.004379
 30
0.0
 10
233.630811
 20
36.951700
 30
0.0
 10
233.498203
 20
36.951700
 30
0.0
  0
LWPOLYLINE
  5
239
100
AcDbEntity
  8
0
 62
7
100
AcDbPolyline
 90
2
 70
0
 10
214.949403
 20
50.451700
 30
0.0
 10
214.949403
 20
37.451700
 30
0.0
  0
SPLINE
  5
23a
100
AcDbEntity
  8
0
 62
7
100
AcDbSpline
 70
8
 71
3
 72
8
 73
4
 74
0
 40
0
 40
0
 40
0
 40
0
 40
1
 40
1
 40
1
 40
1
 10
220.498203
 20
36.951700
 30
0.0
 10
220.365595
 20
36.951700
 30
0.0
 10
220.238418
 20
37.004379
 30
0.0
 10
220.144649
 20
37.098147
 30
0.0
  0
SPLINE
  5
23b
100
AcDbEntity
  8
0
 62
7
100
AcDbSpline
 70
8
 71
3
 72
8
 73
4
 74
0
 40
0
 40
0
 40
0
 40
0
 40
1
 40
1
 40
1
 40
1
 10
220.144649
 20
37.098147
 30
0.0
 10
220.050881
 20
37.191915
 30
0.0
 10
219.998203
 20
37.319092
 30
0.0
 10
219.998203
 20
37.451700
 30
0.0
  0
LWPOLYLINE
  5
23c
100
AcDbEntity
  8
0
 62
7
100
AcDbPolyline
 90
2
 70
0
 10
233.498203
 20
36.951700
 30
0.0
 10
220.498203
 20
36.951700
 30
0.0
  0
SPLINE
  5
23d
100
AcDbEntity
  8
0
 62
7
100
AcDbSpline
 70
8
 71
3
 72
8
 73
4
 74
0
 40
0
 40
0
 40
0
 40
0
 40
1
 40
1
 40
1
 40
1
 10
219.998203
 20
50.451700
 30
0.0
 10
219.998203
 20
50.584309
 30
0.0
 10
220.050881
 20
50.711485
 30
0.0
 10
220.144649
 20
50.805254
 30
0.0
  0
SPLINE
  5
23e
100
AcDbEntity
  8
0
 62
7
100
AcDbSpline
 70
8
 71
3
 72
8
 73
4
 74
0
 40
0
 40
0
 40
0
 40
0
 40
1
 40
1
 40
1
 40
1
 10
220.144649
 20
50.805254
 30
0.0
 10
220.238418
 20
50.899022
 30
0.0
 10
220.365595
 20
50.951700
 30
0.0
 10
220.498203
 20
50.951700
 30
0.0
  0
LWPOLYLINE
  5
23f
100
AcDbEntity
  8
0
 62
7
100
AcDbPolyline
 90
2
 70
0
 10
219.998203
 20
37.451700
 30
0.0
 10
219.998203
 20
50.451700
 30
0.0
  0
SPLINE
  5
240
100
AcDbEntity
  8
0
 62
7
100
AcDbSpline
 70
8
 71
3
 72
8
 73
4
 74
0
 40
0
 40
0
 40
0
 40
0
 40
1
 40
1
 40
1
 40
1
 10
233.498203
 20
50.951700
 30
0.0
 10
233.630811
 20
50.951700
 30
0.0
 10
233.757988
 20
50.899022
 30
0.0
 10
233.851756
 20
50.805254
 30
0.0
  0
SPLINE
  5
241
100
AcDbEntity
  8
0
 62
7
100
AcDbSpline
 70
8
 71
3
 72
8
 73
4
 74
0
 40
0
 40
0
 40
0
 40
0
 40
1
 40
1
 40
1
 40
1
 10
233.851756
 20
50.805254
 30
0.0
 10
233.945525
 20
50.711485
 30
0.0
 10
233.998203
 20
50.584309
 30
0.0
 10
233.998203
 20
50.451700
 30
0.0
  0
LWPOLYLINE
  5
242
100
AcDbEntity
  8
0
 62
7
100
AcDbPolyline
 90
2
 70
0
 10
220.498203
 20
50.951700
 30
0.0
 10
233.498203
 20
50.951700
 30
0.0
  0
SPLINE
  5
243
100
AcDbEntity
  8
0
 62
7
100
AcDbSpline
 70
8
 71
3
 72
8
 73
4
 74
0
 40
0
 40
0
 40
0
 40
0
 40
1
 40
1
 40
1
 40
1
 10
253.047003
 20
37.451700
 30
0.0
 10
253.047003
 20
37.319092
 30
0.0
 10
252.994325
 20
37.191915
 30
0.0
 10
252.900557
 20
37.098147
 30
0.0
  0
SPLINE
  5
244
100
AcDbEntity
  8
0
 62
7
100
AcDbSpline
 70
8
 71
3
 72
8
 73
4
 74
0
 40
0
 40
0
 40
0
 40
0
 40
1
 40
1
 40
1
 40
1
 10
252.900557
 20
37.098147
 30
0.0
 10
252.806789
 20
37.004379
 30
0.0
 10
252.679612
 20
36.951700
 30
0.0
 10
252.547003
 20
36.951700
 30
0.0
  0
LWPOLYLINE
  5
245
100
AcDbEntity
  8
0
 62
7
100
AcDbPolyline
 90
2
 70
0
 10
233.998203
 20
50.451700
 30
0.0
 10
233.998203
 20
37.451700
 30
0.0
  0
SPLINE
  5
246
100
AcDbEntity
  8
0
 62
7
100
AcDbSpline
 70
8
 71
3
 72
8
 73
4
 74
0
 40
0
 40
0
 40
0
 40
0
 40
1
 40
1
 40
1
 40
1
 10
239.547003
 20
36.951700
 30
0.0
 10
239.414395
 20
36.951700
 30
0.0
 10
239.287218
 20
37.004379
 30
0.0
 10
239.193450
 20
37.098147
 30
0.0
  0
SPLINE
  5
247
100
AcDbEntity
  8
0
 62
7
100
AcDbSpline
 70
8
 71
3
 72
8
 73
4
 74
0
 40
0
 40
0
 40
0
 40
0
 40
1
 40
1
 40
1
 40
1
 10
239.193450
 20
37.098147
 30
0.0
 10
239.099682
 20
37.191915
 30
0.0
 10
239.047003
 20
37.319092
 30
0.0
 10
239.047003
 20
37.451700
 30
0.0
  0
LWPOLYLINE
  5
248
100
AcDbEntity
  8
0
 62
7
100
AcDbPolyline
 90
2
 70
0
 10
252.547003
 20
36.951700
 30
0.0
 10
239.547003
 20
36.951700
 30
0.0
  0
SPLINE
  5
249
100
AcDbEntity
  8
0
 62
7
100
AcDbSpline
 70
8
 71
3
 72
8
 73
4
 74
0
 40
0
 40
0
 40
0
 40
0
 40
1
 40
1
 40
1
 40
1
 10
239.047003
 20
50.451700
 30
0.0
 10
239.047003
 20
50.584309
 30
0.0
 10
239.099682
 20
50.711485
 30
0.0
 10
239.193450
 20
50.805254
 30
0.0
  0
SPLINE
  5
24a
100
AcDbEntity
  8
0
 62
7
100
AcDbSpline
 70
8
 71
3
 72
8
 73
4
 74
0
 40
0
 40
0
 40
0
 40
0
 40
1
 40
1
 40
1
 40
1
 10
239.193450
 20
50.805254
 30
0.0
 10
239.287218
 20
50.899022
 30
0.0
 10
239.414395
 20
50.951700
 30
0.0
 10
239.547003
 20
50.951700
 30
0.0
  0
LWPOLYLINE
  5
24b
100
AcDbEntity
  8
0
 62
7
100
AcDbPolyline
 90
2
 70
0
 10
239.047003
 20
37.451700
 30
0.0
 10
239.047003
 20
50.451700
 30
0.0
  0
SPLINE
  5
24c
100
AcDbEntity
  8
0
 62
7
100
AcDbSpline
 70
8
 71
3
 72
8
 73
4
 74
0
 40
0
 40
0
 40
0
 40
0
 40
1
 40
1
 40
1
 40
1
 10
252.547003
 20
50.951700
 30
0.0
 10
252.679612
 20
50.951700
 30
0.0
 10
252.806789
 20
50.899022
 30
0.0
 10
252.900557
 20
50.805254
 30
0.0
  0
SPLINE
  5
24d
100
AcDbEntity
  8
0
 62
7
100
AcDbSpline
 70
8
 71
3
 72
8
 73
4
 74
0
 40
0
 40
0
 40
0
 40
0
 40
1
 40
1
 40
1
 40
1
 10
252.900557
 20
50.805254
 30
0.0
 10
252.994325
 20
50.711485
 30
0.0
 10
253.047003
 20
50.584309
 30
0.0
 10
253.047003
 20
50.451700
 30
0.0
  0
LWPOLYLINE
  5
24e
100
AcDbEntity
  8
0
 62
7
100
AcDbPolyline
 90
2
 70
0
 10
239.547003
 20
50.951700
 30
0.0
 10
252.547003
 20
50.951700
 30
0.0
  0
SPLINE
  5
24f
100
AcDbEntity
  8
0
 62
7
100
AcDbSpline
 70
8
 71
3
 72
8
 73
4
 74
0
 40
0
 40
0
 40
0
 40
0
 40
1
 40
1
 40
1
 40
1
 10
224.473803
 20
56.500500
 30
0.0
 10
224.473803
 20
56.367892
 30
0.0
 10
224.421125
 20
56.240715
 30
0.0
 10
224.327356
 20
56.146947
 30
0.0
  0
SPLINE
  5
250
100
AcDbEntity
  8
0
 62
7
100
AcDbSpline
 70
8
 71
3
 72
8
 73
4
 74
0
 40
0
 40
0
 40
0
 40
0
 40
1
 40
1
 40
1
 40
1
 10
224.327356
 20
56.146947
 30
0.0
 10
224.233588
 20
56.053179
 30
0.0
 10
224.106411
 20
56.000500
 30
0.0
 10
223.973803
 20
56.000500
 30
0.0
  0
LWPOLYLINE
  5
251
100
AcDbEntity
  8
0
 62
7
100
AcDbPolyline
 90
2
 70
0
 10
253.047003
 20
50.451700
 30
0.0
 10
253.047003
 20
37.451700
 30
0.0
  0
SPLINE
  5
252
100
AcDbEntity
  8
0
 62
7
100
AcDbSpline
 70
8
 71
3
 72
8
 73
4
 74
0
 40
0
 40
0
 40
0
 40
0
 40
1
 40
1
 40
1
 40
1
 10
210.973803
 20
56.000500
 30
0.0
 10
210.841195
 20
56.000500
 30
0.0
 10
210.714018
 20
56.053179
 30
0.0
 10
210.620249
 20
56.146947
 30
0.0
  0
SPLINE
  5
253
100
AcDbEntity
  8
0
 62
7
100
AcDbSpline
 70
8
 71
3
 72
8
 73
4
 74
0
 40
0
 40
0
 40
0
 40
0
 40
1
 40
1
 40
1
 40
1
 10
210.620249
 20
56.146947
 30
0.0
 10
210.526481
 20
56.240715
 30
0.0
 10
210.473803
 20
56.367892
 30
0.0
 10
210.473803
 20
56.500500
 30
0.0
  0
LWPOLYLINE
  5
254
100
AcDbEntity
  8
0
 62
7
100
AcDbPolyline
 90
2
 70
0
 10
223.973803
 20
56.000500
 30
0.0
 10
210.973803
 20
56.000500
 30
0.0
  0
SPLINE
  5
255
100
AcDbEntity
  8
0
 62
7
100
AcDbSpline
 70
8
 71
3
 72
8
 73
4
 74
0
 40
0
 40
0
 40
0
 40
0
 40
1
 40
1
 40
1
 40
1
 10
210.473803
 20
69.500501
 30
0.0
 10
210.473803
 20
69.633109
 30
0.0
 10
210.526481
 20
69.760286
 30
0.0
 10
210.620249
 20
69.854054
 30
0.0
  0
SPLINE
  5
256
100
AcDbEntity
  8
0
 62
7
100
AcDbSpline
 70
8
 71
3
 72
8
 73
4
 74
0
 40
0
 40
0
 40
0
 40
0
 40
1
 40
1
 40
1
 40
1
 10
210.620249
 20
69.854054
 30
0.0
 10
210.714018
 20
69.947822
 30
0.0
 10
210.841195
 20
70.000501
 30
0.0
 10
210.973803
 20
70.000501
 30
0.0
  0
LWPOLYLINE
  5
257
100
AcDbEntity
  8
0
 62
7
100
AcDbPolyline
 90
2
 70
0
 10
210.473803
 20
56.500500
 30
0.0
 10
210.473803
 20
69.500501
 30
0.0
  0
SPLINE
  5
258
100
AcDbEntity
  8
0
 62
7
100
AcDbSpline
 70
8
 71
3
 72
8
 73
4
 74
0
 40
0
 40
0
 40
0
 40
0
 40
1
 40
1
 40
1
 40
1
 10
223.973803
 20
70.000501
 30
0.0
 10
224.106411
 20
70.000501
 30
0.0
 10
224.233588
 20
69.947822
 30
0.0
 10
224.327356
 20
69.854054
 30
0.0
  0
SPLINE
  5
259
100
AcDbEntity
  8
0
 62
7
100
AcDbSpline
 70
8
 71
3
 72
8
 73
4
 74
0
 40
0
 40
0
 40
0
 40
0
 40
1
 40
1
 40
1
 40
1
 10
224.327356
 20
69.854054
 30
0.0
 10
224.421125
 20
69.760286
 30
0.0
 10
224.473803
 20
69.633109
 30
0.0
 10
224.473803
 20
69.500501
 30
0.0
  0
LWPOLYLINE
  5
25a
100
AcDbEntity
  8
0
 62
7
100
AcDbPolyline
 90
2
 70
0
 10
210.973803
 20
70.000501
 30
0.0
 10
223.973803
 20
70.000501
 30
0.0
  0
SPLINE
  5
25b
100
AcDbEntity
  8
0
 62
7
100
AcDbSpline
 70
8
 71
3
 72
8
 73
4
 74
0
 40
0
 40
0
 40
0
 40
0
 40
1
 40
1
 40
1
 40
1
 10
205.425003
 20
56.500500
 30
0.0
 10
205.425003
 20
56.367892
 30
0.0
 10
205.372324
 20
56.240715
 30
0.0
 10
205.278556
 20
56.146947
 30
0.0
  0
SPLINE
  5
25c
100
AcDbEntity
  8
0
 62
7
100
AcDbSpline
 70
8
 71
3
 72
8
 73
4
 74
0
 40
0
 40
0
 40
0
 40
0
 40
1
 40
1
 40
1
 40
1
 10
205.278556
 20
56.146947
 30
0.0
 10
205.184788
 20
56.053179
 30
0.0
 10
205.057611
 20
56.000500
 30
0.0
 10
204.925003
 20
56.000500
 30
0.0
  0
LWPOLYLINE
  5
25d
100
AcDbEntity
  8
0
 62
7
100
AcDbPolyline
 90
2
 70
0
 10
224.473803
 20
69.500501
 30
0.0
 10
224.473803
 20
56.500500
 30
0.0
  0
SPLINE
  5
25e
100
AcDbEntity
  8
0
 62
7
100
AcDbSpline
 70
8
 71
3
 72
8
 73
4
 74
0
 40
0
 40
0
 40
0
 40
0
 40
1
 40
1
 40
1
 40
1
 10
191.925003
 20
56.000500
 30
0.0
 10
191.792394
 20
56.000500
 30
0.0
 10
191.665217
 20
56.053179
 30
0.0
 10
191.571449
 20
56.146947
 30
0.0
  0
SPLINE
  5
25f
100
AcDbEntity
  8
0
 62
7
100
AcDbSpline
 70
8
 71
3
 72
8
 73
4
 74
0
 40
0
 40
0
 40
0
 40
0
 40
1
 40
1
 40
1
 40
1
 10
191.571449
 20
56.146947
 30
0.0
 10
191.477681
 20
56.240715
 30
0.0
 10
191.425003
 20
56.367892
 30
0.0
 10
191.425003
 20
56.500500
 30
0.0
  0
LWPOLYLINE
  5
260
100
AcDbEntity
  8
0
 62
7
100
AcDbPolyline
 90
2
 70
0
 10
204.925003
 20
56.000500
 30
0.0
 10
191.925003
 20
56.000500
 30
0.0
  0
SPLINE
  5
261
100
AcDbEntity
  8
0
 62
7
100
AcDbSpline
 70
8
 71
3
 72
8
 73
4
 74
0
 40
0
 40
0
 40
0
 40
0
 40
1
 40
1
 40
1
 40
1
 10
191.425003
 20
69.500501
 30
0.0
 10
191.425003
 20
69.633109
 30
0.0
 10
191.477681
 20
69.760286
 30
0.0
 10
191.571449
 20
69.854054
 30
0.0
  0
SPLINE
  5
262
100
AcDbEntity
  8
0
 62
7
100
AcDbSpline
 70
8
 71
3
 72
8
 73
4
 74
0
 40
0
 40
0
 40
0
 40
0
 40
1
 40
1
 40
1
 40
1
 10
191.571449
 20
69.854054
 30
0.0
 10
191.665217
 20
69.947822
 30
0.0
 10
191.792394
 20
70.000501
 30
0.0
 10
191.925003
 20
70.000501
 30
0.0
  0
LWPOLYLINE
  5
263
100
AcDbEntity
  8
0
 62
7
100
AcDbPolyline
 90
2
 70
0
 10
191.425003
 20
56.500500
 30
0.0
 10
191.425003
 20
69.500501
 30
0.0
  0
SPLINE
  5
264
100
AcDbEntity
  8
0
 62
7
100
AcDbSpline
 70
8
 71
3
 72
8
 73
4
 74
0
 40
0
 40
0
 40
0
 40
0
 40
1
 40
1
 40
1
 40
1
 10
204.925003
 20
70.000501
 30
0.0
 10
205.057611
 20
70.000501
 30
0.0
 10
205.184788
 20
69.947822
 30
0.0
 10
205.278556
 20
69.854054
 30
0.0
  0
SPLINE
  5
265
100
AcDbEntity
  8
0
 62
7
100
AcDbSpline
 70
8
 71
3
 72
8
 73
4
 74
0
 40
0
 40
0
 40
0
 40
0
 40
1
 40
1
 40
1
 40
1
 10
205.278556
 20
69.854054
 30
0.0
 10
205.372324
 20
69.760286
 30
0.0
 10
205.425003
 20
69.633109
 30
0.0
 10
205.425003
 20
69.500501
 30
0.0
  0
LWPOLYLINE
  5
266
100
AcDbEntity
  8
0
 62
7
100
AcDbPolyline
 90
2
 70
0
 10
191.925003
 20
70.000501
 30
0.0
 10
204.925003
 20
70.000501
 30
0.0
  0
SPLINE
  5
267
100
AcDbEntity
  8
0
 62
7
100
AcDbSpline
 70
8
 71
3
 72
8
 73
4
 74
0
 40
0
 40
0
 40
0
 40
0
 40
1
 40
1
 40
1
 40
1
 10
186.376202
 20
56.500500
 30
0.0
 10
186.376202
 20
56.367892
 30
0.0
 10
186.323524
 20
56.240715
 30
0.0
 10
186.229756
 20
56.146947
 30
0.0
  0
SPLINE
  5
268
100
AcDbEntity
  8
0
 62
7
100
AcDbSpline
 70
8
 71
3
 72
8
 73
4
 74
0
 40
0
 40
0
 40
0
 40
0
 40
1
 40
1
 40
1
 40
1
 10
186.229756
 20
56.146947
 30
0.0
 10
186.135988
 20
56.053179
 30
0.0
 10
186.008811
 20
56.000500
 30
0.0
 10
185.876202
 20
56.000500
 30
0.0
  0
LWPOLYLINE
  5
269
100
AcDbEntity
  8
0
 62
7
100
AcDbPolyline
 90
2
 70
0
 10
205.425003
 20
69.500501
 30
0.0
 10
205.425003
 20
56.500500
 30
0.0
  0
SPLINE
  5
26a
100
AcDbEntity
  8
0
 62
7
100
AcDbSpline
 70
8
 71
3
 72
8
 73
4
 74
0
 40
0
 40
0
 40
0
 40
0
 40
1
 40
1
 40
1
 40
1
 10
172.876202
 20
56.000500
 30
0.0
 10
172.743594
 20
56.000500
 30
0.0
 10
172.616417
 20
56.053179
 30
0.0
 10
172.522649
 20
56.146947
 30
0.0
  0
SPLINE
  5
26b
100
AcDbEntity
  8
0
 62
7
100
AcDbSpline
 70
8
 71
3
 72
8
 73
4
 74
0
 40
0
 40
0
 40
0
 40
0
 40
1
 40
1
 40
1
 40
1
 10
172.522649
 20
56.146947
 30
0.0
 10
172.428881
 20
56.240715
 30
0.0
 10
172.376202
 20
56.367892
 30
0.0
 10
172.376202
 20
56.500500
 30
0.0
  0
LWPOLYLINE
  5
26c
100
AcDbEntity
  8
0
 62
7
100
AcDbPolyline
 90
2
 70
0
 10
185.876202
 20
56.000500
 30
0.0
 10
172.876202
 20
56.000500
 30
0.0
  0
SPLINE
  5
26d
100
AcDbEntity
  8
0
 62
7
100
AcDbSpline
 70
8
 71
3
 72
8
 73
4
 74
0
 40
0
 40
0
 40
0
 40
0
 40
1
 40
1
 40
1
 40
1
 10
172.376202
 20
69.500501
 30
0.0
 10
172.376202
 20
69.633109
 30
0.0
 10
172.428881
 20
69.760286
 30
0.0
 10
172.522649
 20
69.854054
 30
0.0
  0
SPLINE
  5
26e
100
AcDbEntity
  8
0
 62
7
100
AcDbSpline
 70
8
 71
3
 72
8
 73
4
 74
0
 40
0
 40
0
 40
0
 40
0
 40
1
 40
1
 40
1
 40
1
 10
172.522649
 20
69.854054
 30
0.0
 10
172.616417
 20
69.947822
 30
0.0
 10
172.743594
 20
70.000501
 30
0.0
 10
172.876202
 20
70.000501
 30
0.0
  0
LWPOLYLINE
  5
26f
100
AcDbEntity
  8
0
 62
7
100
AcDbPolyline
 90
2
 70
0
 10
172.376202
 20
56.500500
 30
0.0
 10
172.376202
 20
69.500501
 30
0.0
  0
SPLINE
  5
270
100
AcDbEntity
  8
0
 62
7
100
AcDbSpline
 70
8
 71
3
 72
8
 73
4
 74
0
 40
0
 40
0
 40
0
 40
0
 40
1
 40
1
 40
1
 40
1
 10
185.876202
 20
70.000501
 30
0.0
 10
186.008811
 20
70.000501
 30
0.0
 10
186.135988
 20
69.947822
 30
0.0
 10
186.229756
 20
69.854054
 30
0.0
  0
SPLINE
  5
271
100
AcDbEntity
  8
0
 62
7
100
AcDbSpline
 70
8
 71
3
 72
8
 73
4
 74
0
 40
0
 40
0
 40
0
 40
0
 40
1
 40
1
 40
1
 40
1
 10
186.229756
 20
69.854054
 30
0.0
 10
186.323524
 20
69.760286
 30
0.0
 10
186.376202
 20
69.633109
 30
0.0
 10
186.376202
 20
69.500501
 30
0.0
  0
LWPOLYLINE
  5
272
100
AcDbEntity
  8
0
 62
7
100
AcDbPolyline
 90
2
 70
0
 10
172.876202
 20
70.000501
 30
0.0
 10
185.876202
 20
70.000501
 30
0.0
  0
SPLINE
  5
273
100
AcDbEntity
  8
0
 62
7
100
AcDbSpline
 70
8
 71
3
 72
8
 73
4
 74
0
 40
0
 40
0
 40
0
 40
0
 40
1
 40
1
 40
1
 40
1
 10
167.327402
 20
56.500500
 30
0.0
 10
167.327402
 20
56.367892
 30
0.0
 10
167.274724
 20
56.240715
 30
0.0
 10
167.180956
 20
56.146947
 30
0.0
  0
SPLINE
  5
274
100
AcDbEntity
  8
0
 62
7
100
AcDbSpline
 70
8
 71
3
 72
8
 73
4
 74
0
 40
0
 40
0
 40
0
 40
0
 40
1
 40
1
 40
1
 40
1
 10
167.180956
 20
56.146947
 30
0.0
 10
167.087187
 20
56.053179
 30
0.0
 10
166.960010
 20
56.000500
 30
0.0
 10
166.827402
 20
56.000500
 30
0.0
  0
LWPOLYLINE
  5
275
100
AcDbEntity
  8
0
 62
7
100
AcDbPolyline
 90
2
 70
0
 10
186.376202
 20
69.500501
 30
0.0
 10
186.376202
 20
56.500500
 30
0.0
  0
SPLINE
  5
276
100
AcDbEntity
  8
0
 62
7
100
AcDbSpline
 70
8
 71
3
 72
8
 73
4
 74
0
 40
0
 40
0
 40
0
 40
0
 40
1
 40
1
 40
1
 40
1
 10
153.827402
 20
56.000500
 30
0.0
 10
153.694794
 20
56.000500
 30
0.0
 10
153.567617
 20
56.053179
 30
0.0
 10
153.473849
 20
56.146947
 30
0.0
  0
SPLINE
  5
277
100
AcDbEntity
  8
0
 62
7
100
AcDbSpline
 70
8
 71
3
 72
8
 73
4
 74
0
 40
0
 40
0
 40
0
 40
0
 40
1
 40
1
 40
1
 40
1
 10
153.473849
 20
56.146947
 30
0.0
 10
153.380080
 20
56.240715
 30
0.0
 10
153.327402
 20
56.367892
 30
0.0
 10
153.327402
 20
56.500500
 30
0.0
  0
LWPOLYLINE
  5
278
100
AcDbEntity
  8
0
 62
7
100
AcDbPolyline
 90
2
 70
0
 10
166.827402
 20
56.000500
 30
0.0
 10
153.827402
 20
56.000500
 30
0.0
  0
SPLINE
  5
279
100
AcDbEntity
  8
0
 62
7
100
AcDbSpline
 70
8
 71
3
 72
8
 73
4
 74
0
 40
0
 40
0
 40
0
 40
0
 40
1
 40
1
 40
1
 40
1
 10
153.327402
 20
69.500501
 30
0.0
 10
153.327402
 20
69.633109
 30
0.0
 10
153.380080
 20
69.760286
 30
0.0
 10
153.473849
 20
69.854054
 30
0.0
  0
SPLINE
  5
27a
100
AcDbEntity
  8
0
 62
7
100
AcDbSpline
 70
8
 71
3
 72
8
 73
4
 74
0
 40
0
 40
0
 40
0
 40
0
 40
1
 40
1
 40
1
 40
1
 10
153.473849
 20
69.854054
 30
0.0
 10
153.567617
 20
69.947822
 30
0.0
 10
153.694794
 20
70.000501
 30
0.0
 10
153.827402
 20
70.000501
 30
0.0
  0
LWPOLYLINE
  5
27b
100
AcDbEntity
  8
0
 62
7
100
AcDbPolyline
 90
2
 70
0
 10
153.327402
 20
56.500500
 30
0.0
 10
153.327402
 20
69.500501
 30
0.0
  0
SPLINE
  5
27c
100
AcDbEntity
  8
0
 62
7
100
AcDbSpline
 70
8
 71
3
 72
8
 73
4
 74
0
 40
0
 40
0
 40
0
 40
0
 40
1
 40
1
 40
1
 40
1
 10
166.827402
 20
70.000501
 30
0.0
 10
166.960010
 20
70.000501
 30
0.0
 10
167.087187
 20
69.947822
 30
0.0
 10
167.180956
 20
69.854054
 30
0.0
  0
SPLINE
  5
27d
100
AcDbEntity
  8
0
 62
7
100
AcDbSpline
 70
8
 71
3
 72
8
 73
4
 74
0
 40
0
 40
0
 40
0
 40
0
 40
1
 40
1
 40
1
 40
1
 10
167.180956
 20
69.854054
 30
0.0
 10
167.274724
 20
69.760286
 30
0.0
 10
167.327402
 20
69.633109
 30
0.0
 10
167.327402
 20
69.500501
 30
0.0
  0
LWPOLYLINE
  5
27e
100
AcDbEntity
  8
0
 62
7
100
AcDbPolyline
 90
2
 70
0
 10
153.827402
 20
70.000501
 30
0.0
 10
166.827402
 20
70.000501
 30
0.0
  0
SPLINE
  5
27f
100
AcDbEntity
  8
0
 62
7
100
AcDbSpline
 70
8
 71
3
 72
8
 73
4
 74
0
 40
0
 40
0
 40
0
 40
0
 40
1
 40
1
 40
1
 40
1
 10
148.278602
 20
56.500500
 30
0.0
 10
148.278602
 20
56.367892
 30
0.0
 10
148.225924
 20
56.240715
 30
0.0
 10
148.132155
 20
56.146947
 30
0.0
  0
SPLINE
  5
280
100
AcDbEntity
  8
0
 62
7
100
AcDbSpline
 70
8
 71
3
 72
8
 73
4
 74
0
 40
0
 40
0
 40
0
 40
0
 40
1
 40
1
 40
1
 40
1
 10
148.132155
 20
56.146947
 30
0.0
 10
148.038387
 20
56.053179
 30
0.0
 10
147.911210
 20
56.000500
 30
0.0
 10
147.778602
 20
56.000500
 30
0.0
  0
LWPOLYLINE
  5
281
100
AcDbEntity
  8
0
 62
7
100
AcDbPolyline
 90
2
 70
0
 10
167.327402
 20
69.500501
 30
0.0
 10
167.327402
 20
56.500500
 30
0.0
  0
SPLINE
  5
282
100
AcDbEntity
  8
0
 62
7
100
AcDbSpline
 70
8
 71
3
 72
8
 73
4
 74
0
 40
0
 40
0
 40
0
 40
0
 40
1
 40
1
 40
1
 40
1
 10
134.778602
 20
56.000500
 30
0.0
 10
134.645994
 20
56.000500
 30
0.0
 10
134.518817
 20
56.053179
 30
0.0
 10
134.425048
 20
56.146947
 30
0.0
  0
SPLINE
  5
283
100
AcDbEntity
  8
0
 62
7
100
AcDbSpline
 70
8
 71
3
 72
8
 73
4
 74
0
 40
0
 40
0
 40
0
 40
0
 40
1
 40
1
 40
1
 40
1
 10
134.425048
 20
56.146947
 30
0.0
 10
134.331280
 20
56.240715
 30
0.0
 10
134.278602
 20
56.367892
 30
0.0
 10
134.278602
 20
56.500500
 30
0.0
  0
LWPOLYLINE
  5
284
100
AcDbEntity
  8
0
 62
7
100
AcDbPolyline
 90
2
 70
0
 10
147.778602
 20
56.000500
 30
0.0
 10
134.778602
 20
56.000500
 30
0.0
  0
SPLINE
  5
285
100
AcDbEntity
  8
0
 62
7
100
AcDbSpline
 70
8
 71
3
 72
8
 73
4
 74
0
 40
0
 40
0
 40
0
 40
0
 40
1
 40
1
 40
1
 40
1
 10
134.278602
 20
69.500501
 30
0.0
 10
134.278602
 20
69.633109
 30
0.0
 10
134.331280
 20
69.760286
 30
0.0
 10
134.425048
 20
69.854054
 30
0.0
  0
SPLINE
  5
286
100
AcDbEntity
  8
0
 62
7
100
AcDbSpline
 70
8
 71
3
 72
8
 73
4
 74
0
 40
0
 40
0
 40
0
 40
0
 40
1
 40
1
 40
1
 40
1
 10
134.425048
 20
69.854054
 30
0.0
 10
134.518817
 20
69.947822
 30
0.0
 10
134.645994
 20
70.000501
 30
0.0
 10
134.778602
 20
70.000501
 30
0.0
  0
LWPOLYLINE
  5
287
100
AcDbEntity
  8
0
 62
7
100
AcDbPolyline
 90
2
 70
0
 10
134.278602
 20
56.500500
 30
0.0
 10
134.278602
 20
69.500501
 30
0.0
  0
SPLINE
  5
288
100
AcDbEntity
  8
0
 62
7
100
AcDbSpline
 70
8
 71
3
 72
8
 73
4
 74
0
 40
0
 40
0
 40
0
 40
0
 40
1
 40
1
 40
1
 40
1
 10
147.778602
 20
70.000501
 30
0.0
 10
147.911210
 20
70.000501
 30
0.0
 10
148.038387
 20
69.947822
 30
0.0
 10
148.132155
 20
69.854054
 30
0.0
  0
SPLINE
  5
289
100
AcDbEntity
  8
0
 62
7
100
AcDbSpline
 70
8
 71
3
 72
8
 73
4
 74
0
 40
0
 40
0
 40
0
 40
0
 40
1
 40
1
 40
1
 40
1
 10
148.132155
 20
69.854054
 30
0.0
 10
148.225924
 20
69.760286
 30
0.0
 10
148.278602
 20
69.633109
 30
0.0
 10
148.278602
 20
69.500501
 30
0.0
  0
LWPOLYLINE
  5
28a
100
AcDbEntity
  8
0
 62
7
100
AcDbPolyline
 90
2
 70
0
 10
134.778602
 20
70.000501
 30
0.0
 10
147.778602
 20
70.000501
 30
0.0
  0
SPLINE
  5
28b
100
AcDbEntity
  8
0
 62
7
100
AcDbSpline
 70
8
 71
3
 72
8
 73
4
 74
0
 40
0
 40
0
 40
0
 40
0
 40
1
 40
1
 40
1
 40
1
 10
129.229802
 20
56.500500
 30
0.0
 10
129.229802
 20
56.367892
 30
0.0
 10
129.177123
 20
56.240715
 30
0.0
 10
129.083355
 20
56.146947
 30
0.0
  0
SPLINE
  5
28c
100
AcDbEntity
  8
0
 62
7
100
AcDbSpline
 70
8
 71
3
 72
8
 73
4
 74
0
 40
0
 40
0
 40
0
 40
0
 40
1
 40
1
 40
1
 40
1
 10
129.083355
 20
56.146947
 30
0.0
 10
128.989587
 20
56.053179
 30
0.0
 10
128.862410
 20
56.000500
 30
0.0
 10
128.729802
 20
56.000500
 30
0.0
  0
LWPOLYLINE
  5
28d
100
AcDbEntity
  8
0
 62
7
100
AcDbPolyline
 90
2
 70
0
 10
148.278602
 20
69.500501
 30
0.0
 10
148.278602
 20
56.500500
 30
0.0
  0
SPLINE
  5
28e
100
AcDbEntity
  8
0
 62
7
100
AcDbSpline
 70
8
 71
3
 72
8
 73
4
 74
0
 40
0
 40
0
 40
0
 40
0
 40
1
 40
1
 40
1
 40
1
 10
115.729802
 20
56.000500
 30
0.0
 10
115.597193
 20
56.000500
 30
0.0
 10
115.470016
 20
56.053179
 30
0.0
 10
115.376248
 20
56.146947
 30
0.0
  0
SPLINE
  5
28f
100
AcDbEntity
  8
0
 62
7
100
AcDbSpline
 70
8
 71
3
 72
8
 73
4
 74
0
 40
0
 40
0
 40
0
 40
0
 40
1
 40
1
 40
1
 40
1
 10
115.376248
 20
56.146947
 30
0.0
 10
115.282480
 20
56.240715
 30
0.0
 10
115.229802
 20
56.367892
 30
0.0
 10
115.229802
 20
56.500500
 30
0.0
  0
LWPOLYLINE
  5
290
100
AcDbEntity
  8
0
 62
7
100
AcDbPolyline
 90
2
 70
0
 10
128.729802
 20
56.000500
 30
0.0
 10
115.729802
 20
56.000500
 30
0.0
  0
SPLINE
  5
291
100
AcDbEntity
  8
0
 62
7
100
AcDbSpline
 70
8
 71
3
 72
8
 73
4
 74
0
 40
0
 40
0
 40
0
 40
0
 40
1
 40
1
 40
1
 40
1
 10
115.229802
 20
69.500501
 30
0.0
 10
115.229802
 20
69.633109
 30
0.0
 10
115.282480
 20
69.760286
 30
0.0
 10
115.376248
 20
69.854054
 30
0.0
  0
SPLINE
  5
292
100
AcDbEntity
  8
0
 62
7
100
AcDbSpline
 70
8
 71
3
 72
8
 73
4
 74
0
 40
0
 40
0
 40
0
 40
0
 40
1
 40
1
 40
1
 40
1
 10
115.376248
 20
69.854054
 30
0.0
 10
115.470016
 20
69.947822
 30
0.0
 10
115.597193
 20
70.000501
 30
0.0
 10
115.729802
 20
70.000501
 30
0.0
  0
LWPOLYLINE
  5
293
100
AcDbEntity
  8
0
 62
7
100
AcDbPolyline
 90
2
 70
0
 10
115.229802
 20
56.500500
 30
0.0
 10
115.229802
 20
69.500501
 30
0.0
  0
SPLINE
  5
294
100
AcDbEntity
  8
0
 62
7
100
AcDbSpline
 70
8
 71
3
 72
8
 73
4
 74
0
 40
0
 40
0
 40
0
 40
0
 40
1
 40
1
 40
1
 40
1
 10
128.729802
 20
70.000501
 30
0.0
 10
128.862410
 20
70.000501
 30
0.0
 10
128.989587
 20
69.947822
 30
0.0
 10
129.083355
 20
69.854054
 30
0.0
  0
SPLINE
  5
295
100
AcDbEntity
  8
0
 62
7
100
AcDbSpline
 70
8
 71
3
 72
8
 73
4
 74
0
 40
0
 40
0
 40
0
 40
0
 40
1
 40
1
 40
1
 40
1
 10
129.083355
 20
69.854054
 30
0.0
 10
129.177123
 20
69.760286
 30
0.0
 10
129.229802
 20
69.633109
 30
0.0
 10
129.229802
 20
69.500501
 30
0.0
  0
LWPOLYLINE
  5
296
100
AcDbEntity
  8
0
 62
7
100
AcDbPolyline
 90
2
 70
0
 10
115.729802
 20
70.000501
 30
0.0
 10
128.729802
 20
70.000501
 30
0.0
  0
SPLINE
  5
297
100
AcDbEntity
  8
0
 62
7
100
AcDbSpline
 70
8
 71
3
 72
8
 73
4
 74
0
 40
0
 40
0
 40
0
 40
0
 40
1
 40
1
 40
1
 40
1
 10
110.181001
 20
56.500500
 30
0.0
 10
110.181001
 20
56.367892
 30
0.0
 10
110.128323
 20
56.240715
 30
0.0
 10
110.034555
 20
56.146947
 30
0.0
  0
SPLINE
  5
298
100
AcDbEntity
  8
0
 62
7
100
AcDbSpline
 70
8
 71
3
 72
8
 73
4
 74
0
 40
0
 40
0
 40
0
 40
0
 40
1
 40
1
 40
1
 40
1
 10
110.034555
 20
56.146947
 30
0.0
 10
109.940787
 20
56.053179
 30
0.0
 10
109.813610
 20
56.000500
 30
0.0
 10
109.681001
 20
56.000500
 30
0.0
  0
LWPOLYLINE
  5
299
100
AcDbEntity
  8
0
 62
7
100
AcDbPolyline
 90
2
 70
0
 10
129.229802
 20
69.500501
 30
0.0
 10
129.229802
 20
56.500500
 30
0.0
  0
SPLINE
  5
29a
100
AcDbEntity
  8
0
 62
7
100
AcDbSpline
 70
8
 71
3
 72
8
 73
4
 74
0
 40
0
 40
0
 40
0
 40
0
 40
1
 40
1
 40
1
 40
1
 10
96.681001
 20
56.000500
 30
0.0
 10
96.548393
 20
56.000500
 30
0.0
 10
96.421216
 20
56.053179
 30
0.0
 10
96.327448
 20
56.146947
 30
0.0
  0
SPLINE
  5
29b
100
AcDbEntity
  8
0
 62
7
100
AcDbSpline
 70
8
 71
3
 72
8
 73
4
 74
0
 40
0
 40
0
 40
0
 40
0
 40
1
 40
1
 40
1
 40
1
 10
96.327448
 20
56.146947
 30
0.0
 10
96.233680
 20
56.240715
 30
0.0
 10
96.181001
 20
56.367892
 30
0.0
 10
96.181001
 20
56.500500
 30
0.0
  0
LWPOLYLINE
  5
29c
100
AcDbEntity
  8
0
 62
7
100
AcDbPolyline
 90
2
 70
0
 10
109.681001
 20
56.000500
 30
0.0
 10
96.681001
 20
56.000500
 30
0.0
  0
SPLINE
  5
29d
100
AcDbEntity
  8
0
 62
7
100
AcDbSpline
 70
8
 71
3
 72
8
 73
4
 74
0
 40
0
 40
0
 40
0
 40
0
 40
1
 40
1
 40
1
 40
1
 10
96.181001
 20
69.500501
 30
0.0
 10
96.181001
 20
69.633109
 30
0.0
 10
96.233680
 20
69.760286
 30
0.0
 10
96.327448
 20
69.854054
 30
0.0
  0
SPLINE
  5
29e
100
AcDbEntity
  8
0
 62
7
100
AcDbSpline
 70
8
 71
3
 72
8
 73
4
 74
0
 40
0
 40
0
 40
0
 40
0
 40
1
 40
1
 40
1
 40
1
 10
96.327448
 20
69.854054
 30
0.0
 10
96.421216
 20
69.947822
 30
0.0
 10
96.548393
 20
70.000501
 30
0.0
 10
96.681001
 20
70.000501
 30
0.0
  0
LWPOLYLINE
  5
29f
100
AcDbEntity
  8
0
 62
7
100
AcDbPolyline
 90
2
 70
0
 10
96.181001
 20
56.500500
 30
0.0
 10
96.181001
 20
69.500501
 30
0.0
  0
SPLINE
  5
2a0
100
AcDbEntity
  8
0
 62
7
100
AcDbSpline
 70
8
 71
3
 72
8
 73
4
 74
0
 40
0
 40
0
 40
0
 40
0
 40
1
 40
1
 40
1
 40
1
 10
109.681001
 20
70.000501
 30
0.0
 10
109.813610
 20
70.000501
 30
0.0
 10
109.940787
 20
69.947822
 30
0.0
 10
110.034555
 20
69.854054
 30
0.0
  0
SPLINE
  5
2a1
100
AcDbEntity
  8
0
 62
7
100
AcDbSpline
 70
8
 71
3
 72
8
 73
4
 74
0
 40
0
 40
0
 40
0
 40
0
 40
1
 40
1
 40
1
 40
1
 10
110.034555
 20
69.854054
 30
0.0
 10
110.128323
 20
69.760286
 30
0.0
 10
110.181001
 20
69.633109
 30
0.0
 10
110.181001
 20
69.500501
 30
0.0
  0
LWPOLYLINE
  5
2a2
100
AcDbEntity
  8
0
 62
7
100
AcDbPolyline
 90
2
 70
0
 10
96.681001
 20
70.000501
 30
0.0
 10
109.681001
 20
70.000501
 30
0.0
  0
SPLINE
  5
2a3
100
AcDbEntity
  8
0
 62
7
100
AcDbSpline
 70
8
 71
3
 72
8
 73
4
 74
0
 40
0
 40
0
 40
0
 40
0
 40
1
 40
1
 40
1
 40
1
 10
91.132201
 20
56.500500
 30
0.0
 10
91.132201
 20
56.367892
 30
0.0
 10
91.079523
 20
56.240715
 30
0.0
 10
90.985755
 20
56.146947
 30
0.0
  0
SPLINE
  5
2a4
100
AcDbEntity
  8
0
 62
7
100
AcDbSpline
 70
8
 71
3
 72
8
 73
4
 74
0
 40
0
 40
0
 40
0
 40
0
 40
1
 40
1
 40
1
 40
1
 10
90.985755
 20
56.146947
 30
0.0
 10
90.891986
 20
56.053179
 30
0.0
 10
90.764809
 20
56.000500
 30
0.0
 10
90.632201
 20
56.000500
 30
0.0
  0
LWPOLYLINE
  5
2a5
100
AcDbEntity
  8
0
 62
7
100
AcDbPolyline
 90
2
 70
0
 10
110.181001
 20
69.500501
 30
0.0
 10
110.181001
 20
56.500500
 30
0.0
  0
SPLINE
  5
2a6
100
AcDbEntity
  8
0
 62
7
100
AcDbSpline
 70
8
 71
3
 72
8
 73
4
 74
0
 40
0
 40
0
 40
0
 40
0
 40
1
 40
1
 40
1
 40
1
 10
77.632201
 20
56.000500
 30
0.0
 10
77.499593
 20
56.000500
 30
0.0
 10
77.372416
 20
56.053179
 30
0.0
 10
77.278648
 20
56.146947
 30
0.0
  0
SPLINE
  5
2a7
100
AcDbEntity
  8
0
 62
7
100
AcDbSpline
 70
8
 71
3
 72
8
 73
4
 74
0
 40
0
 40
0
 40
0
 40
0
 40
1
 40
1
 40
1
 40
1
 10
77.278648
 20
56.146947
 30
0.0
 10
77.184879
 20
56.240715
 30
0.0
 10
77.132201
 20
56.367892
 30
0.0
 10
77.132201
 20
56.500500
 30
0.0
  0
LWPOLYLINE
  5
2a8
100
AcDbEntity
  8
0
 62
7
100
AcDbPolyline
 90
2
 70
0
 10
90.632201
 20
56.000500
 30
0.0
 10
77.632201
 20
56.000500
 30
0.0
  0
SPLINE
  5
2a9
100
AcDbEntity
  8
0
 62
7
100
AcDbSpline
 70
8
 71
3
 72
8
 73
4
 74
0
 40
0
 40
0
 40
0
 40
0
 40
1
 40
1
 40
1
 40
1
 10
77.132201
 20
69.500501
 30
0.0
 10
77.132201
 20
69.633109
 30
0.0
 10
77.184879
 20
69.760286
 30
0.0
 10
77.278648
 20
69.854054
 30
0.0
  0
SPLINE
  5
2aa
100
AcDbEntity
  8
0
 62
7
100
AcDbSpline
 70
8
 71
3
 72
8
 73
4
 74
0
 40
0
 40
0
 40
0
 40
0
 40
1
 40
1
 40
1
 40
1
 10
77.278648
 20
69.854054
 30
0.0
 10
77.372416
 20
69.947822
 30
0.0
 10
77.499593
 20
70.000501
 30
0.0
 10
77.632201
 20
70.000501
 30
0.0
  0
LWPOLYLINE
  5
2ab
100
AcDbEntity
  8
0
 62
7
100
AcDbPolyline
 90
2
 70
0
 10
77.132201
 20
56.500500
 30
0.0
 10
77.132201
 20
69.500501
 30
0.0
  0
SPLINE
  5
2ac
100
AcDbEntity
  8
0
 62
7
100
AcDbSpline
 70
8
 71
3
 72
8
 73
4
 74
0
 40
0
 40
0
 40
0
 40
0
 40
1
 40
1
 40
1
 40
1
 10
90.632201
 20
70.000501
 30
0.0
 10
90.764809
 20
70.000501
 30
0.0
 10
90.891986
 20
69.947822
 30
0.0
 10
90.985755
 20
69.854054
 30
0.0
  0
SPLINE
  5
2ad
100
AcDbEntity
  8
0
 62
7
100
AcDbSpline
 70
8
 71
3
 72
8
 73
4
 74
0
 40
0
 40
0
 40
0
 40
0
 40
1
 40
1
 40
1
 40
1
 10
90.985755
 20
69.854054
 30
0.0
 10
91.079523
 20
69.760286
 30
0.0
 10
91.132201
 20
69.633109
 30
0.0
 10
91.132201
 20
69.500501
 30
0.0
  0
LWPOLYLINE
  5
2ae
100
AcDbEntity
  8
0
 62
7
100
AcDbPolyline
 90
2
 70
0
 10
77.632201
 20
70.000501
 30
0.0
 10
90.632201
 20
70.000501
 30
0.0
  0
SPLINE
  5
2af
100
AcDbEntity
  8
0
 62
7
100
AcDbSpline
 70
8
 71
3
 72
8
 73
4
 74
0
 40
0
 40
0
 40
0
 40
0
 40
1
 40
1
 40
1
 40
1
 10
72.083401
 20
56.500500
 30
0.0
 10
72.083401
 20
56.367892
 30
0.0
 10
72.030723
 20
56.240715
 30
0.0
 10
71.936954
 20
56.146947
 30
0.0
  0
SPLINE
  5
2b0
100
AcDbEntity
  8
0
 62
7
100
AcDbSpline
 70
8
 71
3
 72
8
 73
4
 74
0
 40
0
 40
0
 40
0
 40
0
 40
1
 40
1
 40
1
 40
1
 10
71.936954
 20
56.146947
 30
0.0
 10
71.843186
 20
56.053179
 30
0.0
 10
71.716009
 20
56.000500
 30
0.0
 10
71.583401
 20
56.000500
 30
0.0
  0
LWPOLYLINE
  5
2b1
100
AcDbEntity
  8
0
 62
7
100
AcDbPolyline
 90
2
 70
0
 10
91.132201
 20
69.500501
 30
0.0
 10
91.132201
 20
56.500500
 30
0.0
  0
SPLINE
  5
2b2
100
AcDbEntity
  8
0
 62
7
100
AcDbSpline
 70
8
 71
3
 72
8
 73
4
 74
0
 40
0
 40
0
 40
0
 40
0
 40
1
 40
1
 40
1
 40
1
 10
58.583401
 20
56.000500
 30
0.0
 10
58.450793
 20
56.000500
 30
0.0
 10
58.323616
 20
56.053179
 30
0.0
 10
58.229847
 20
56.146947
 30
0.0
  0
SPLINE
  5
2b3
100
AcDbEntity
  8
0
 62
7
100
AcDbSpline
 70
8
 71
3
 72
8
 73
4
 74
0
 40
0
 40
0
 40
0
 40
0
 40
1
 40
1
 40
1
 40
1
 10
58.229847
 20
56.146947
 30
0.0
 10
58.136079
 20
56.240715
 30
0.0
 10
58.083401
 20
56.367892
 30
0.0
 10
58.083401
 20
56.500500
 30
0.0
  0
LWPOLYLINE
  5
2b4
100
AcDbEntity
  8
0
 62
7
100
AcDbPolyline
 90
2
 70
0
 10
71.583401
 20
56.000500
 30
0.0
 10
58.583401
 20
56.000500
 30
0.0
  0
SPLINE
  5
2b5
100
AcDbEntity
  8
0
 62
7
100
AcDbSpline
 70
8
 71
3
 72
8
 73
4
 74
0
 40
0
 40
0
 40
0
 40
0
 40
1
 40
1
 40
1
 40
1
 10
58.083401
 20
69.500501
 30
0.0
 10
58.083401
 20
69.633109
 30
0.0
 10
58.136079
 20
69.760286
 30
0.0
 10
58.229847
 20
69.854054
 30
0.0
  0
SPLINE
  5
2b6
100
AcDbEntity
  8
0
 62
7
100
AcDbSpline
 70
8
 71
3
 72
8
 73
4
 74
0
 40
0
 40
0
 40
0
 40
0
 40
1
 40
1
 40
1
 40
1
 10
58.229847
 20
69.854054
 30
0.0
 10
58.323616
 20
69.947822
 30
0.0
 10
58.450793
 20
70.000501
 30
0.0
 10
58.583401
 20
70.000501
 30
0.0
  0
LWPOLYLINE
  5
2b7
100
AcDbEntity
  8
0
 62
7
100
AcDbPolyline
 90
2
 70
0
 10
58.083401
 20
56.500500
 30
0.0
 10
58.083401
 20
69.500501
 30
0.0
  0
SPLINE
  5
2b8
100
AcDbEntity
  8
0
 62
7
100
AcDbSpline
 70
8
 71
3
 72
8
 73
4
 74
0
 40
0
 40
0
 40
0
 40
0
 40
1
 40
1
 40
1
 40
1
 10
71.583401
 20
70.000501
 30
0.0
 10
71.716009
 20
70.000501
 30
0.0
 10
71.843186
 20
69.947822
 30
0.0
 10
71.936954
 20
69.854054
 30
0.0
  0
SPLINE
  5
2b9
100
AcDbEntity
  8
0
 62
7
100
AcDbSpline
 70
8
 71
3
 72
8
 73
4
 74
0
 40
0
 40
0
 40
0
 40
0
 40
1
 40
1
 40
1
 40
1
 10
71.936954
 20
69.854054
 30
0.0
 10
72.030723
 20
69.760286
 30
0.0
 10
72.083401
 20
69.633109
 30
0.0
 10
72.083401
 20
69.500501
 30
0.0
  0
LWPOLYLINE
  5
2ba
100
AcDbEntity
  8
0
 62
7
100
AcDbPolyline
 90
2
 70
0
 10
58.583401
 20
70.000501
 30
0.0
 10
71.583401
 20
70.000501
 30
0.0
  0
SPLINE
  5
2bb
100
AcDbEntity
  8
0
 62
7
100
AcDbSpline
 70
8
 71
3
 72
8
 73
4
 74
0
 40
0
 40
0
 40
0
 40
0
 40
1
 40
1
 40
1
 40
1
 10
53.034601
 20
56.500500
 30
0.0
 10
53.034601
 20
56.367892
 30
0.0
 10
52.981922
 20
56.240715
 30
0.0
 10
52.888154
 20
56.146947
 30
0.0
  0
SPLINE
  5
2bc
100
AcDbEntity
  8
0
 62
7
100
AcDbSpline
 70
8
 71
3
 72
8
 73
4
 74
0
 40
0
 40
0
 40
0
 40
0
 40
1
 40
1
 40
1
 40
1
 10
52.888154
 20
56.146947
 30
0.0
 10
52.794386
 20
56.053179
 30
0.0
 10
52.667209
 20
56.000500
 30
0.0
 10
52.534601
 20
56.000500
 30
0.0
  0
LWPOLYLINE
  5
2bd
100
AcDbEntity
  8
0
 62
7
100
AcDbPolyline
 90
2
 70
0
 10
72.083401
 20
69.500501
 30
0.0
 10
72.083401
 20
56.500500
 30
0.0
  0
SPLINE
  5
2be
100
AcDbEntity
  8
0
 62
7
100
AcDbSpline
 70
8
 71
3
 72
8
 73
4
 74
0
 40
0
 40
0
 40
0
 40
0
 40
1
 40
1
 40
1
 40
1
 10
39.534601
 20
56.000500
 30
0.0
 10
39.401992
 20
56.000500
 30
0.0
 10
39.274815
 20
56.053179
 30
0.0
 10
39.181047
 20
56.146947
 30
0.0
  0
SPLINE
  5
2bf
100
AcDbEntity
  8
0
 62
7
100
AcDbSpline
 70
8
 71
3
 72
8
 73
4
 74
0
 40
0
 40
0
 40
0
 40
0
 40
1
 40
1
 40
1
 40
1
 10
39.181047
 20
56.146947
 30
0.0
 10
39.087279
 20
56.240715
 30
0.0
 10
39.034601
 20
56.367892
 30
0.0
 10
39.034601
 20
56.500500
 30
0.0
  0
LWPOLYLINE
  5
2c0
100
AcDbEntity
  8
0
 62
7
100
AcDbPolyline
 90
2
 70
0
 10
52.534601
 20
56.000500
 30
0.0
 10
39.534601
 20
56.000500
 30
0.0
  0
SPLINE
  5
2c1
100
AcDbEntity
  8
0
 62
7
100
AcDbSpline
 70
8
 71
3
 72
8
 73
4
 74
0
 40
0
 40
0
 40
0
 40
0
 40
1
 40
1
 40
1
 40
1
 10
39.034601
 20
69.500501
 30
0.0
 10
39.034601
 20
69.633109
 30
0.0
 10
39.087279
 20
69.760286
 30
0.0
 10
39.181047
 20
69.854054
 30
0.0
  0
SPLINE
  5
2c2
100
AcDbEntity
  8
0
 62
7
100
AcDbSpline
 70
8
 71
3
 72
8
 73
4
 74
0
 40
0
 40
0
 40
0
 40
0
 40
1
 40
1
 40
1
 40
1
 10
39.181047
 20
69.854054
 30
0.0
 10
39.274815
 20
69.947822
 30
0.0
 10
39.401992
 20
70.000501
 30
0.0
 10
39.534601
 20
70.000501
 30
0.0
  0
LWPOLYLINE
  5
2c3
100
AcDbEntity
  8
0
 62
7
100
AcDbPolyline
 90
2
 70
0
 10
39.034601
 20
56.500500
 30
0.0
 10
39.034601
 20
69.500501
 30
0.0
  0
SPLINE
  5
2c4
100
AcDbEntity
  8
0
 62
7
100
AcDbSpline
 70
8
 71
3
 72
8
 73
4
 74
0
 40
0
 40
0
 40
0
 40
0
 40
1
 40
1
 40
1
 40
1
 10
52.534601
 20
70.000501
 30
0.0
 10
52.667209
 20
70.000501
 30
0.0
 10
52.794386
 20
69.947822
 30
0.0
 10
52.888154
 20
69.854054
 30
0.0
  0
SPLINE
  5
2c5
100
AcDbEntity
  8
0
 62
7
100
AcDbSpline
 70
8
 71
3
 72
8
 73
4
 74
0
 40
0
 40
0
 40
0
 40
0
 40
1
 40
1
 40
1
 40
1
 10
52.888154
 20
69.854054
 30
0.0
 10
52.981922
 20
69.760286
 30
0.0
 10
53.034601
 20
69.633109
 30
0.0
 10
53.034601
 20
69.500501
 30
0.0
  0
LWPOLYLINE
  5
2c6
100
AcDbEntity
  8
0
 62
7
100
AcDbPolyline
 90
2
 70
0
 10
39.534601
 20
70.000501
 30
0.0
 10
52.534601
 20
70.000501
 30
0.0
  0
SPLINE
  5
2c7
100
AcDbEntity
  8
0
 62
7
100
AcDbSpline
 70
8
 71
3
 72
8
 73
4
 74
0
 40
0
 40
0
 40
0
 40
0
 40
1
 40
1
 40
1
 40
1
 10
219.711603
 20
75.549301
 30
0.0
 10
219.711603
 20
75.416692
 30
0.0
 10
219.658924
 20
75.289515
 30
0.0
 10
219.565156
 20
75.195747
 30
0.0
  0
SPLINE
  5
2c8
100
AcDbEntity
  8
0
 62
7
100
AcDbSpline
 70
8
 71
3
 72
8
 73
4
 74
0
 40
0
 40
0
 40
0
 40
0
 40
1
 40
1
 40
1
 40
1
 10
219.565156
 20
75.195747
 30
0.0
 10
219.471388
 20
75.101979
 30
0.0
 10
219.344211
 20
75.049301
 30
0.0
 10
219.211603
 20
75.049301
 30
0.0
  0
LWPOLYLINE
  5
2c9
100
AcDbEntity
  8
0
 62
7
100
AcDbPolyline
 90
2
 70
0
 10
53.034601
 20
69.500501
 30
0.0
 10
53.034601
 20
56.500500
 30
0.0
  0
SPLINE
  5
2ca
100
AcDbEntity
  8
0
 62
7
100
AcDbSpline
 70
8
 71
3
 72
8
 73
4
 74
0
 40
0
 40
0
 40
0
 40
0
 40
1
 40
1
 40
1
 40
1
 10
206.211603
 20
75.049301
 30
0.0
 10
206.078994
 20
75.049301
 30
0.0
 10
205.951818
 20
75.101979
 30
0.0
 10
205.858049
 20
75.195747
 30
0.0
  0
SPLINE
  5
2cb
100
AcDbEntity
  8
0
 62
7
100
AcDbSpline
 70
8
 71
3
 72
8
 73
4
 74
0
 40
0
 40
0
 40
0
 40
0
 40
1
 40
1
 40
1
 40
1
 10
205.858049
 20
75.195747
 30
0.0
 10
205.764281
 20
75.289515
 30
0.0
 10
205.711603
 20
75.416692
 30
0.0
 10
205.711603
 20
75.549301
 30
0.0
  0
LWPOLYLINE
  5
2cc
100
AcDbEntity
  8
0
 62
7
100
AcDbPolyline
 90
2
 70
0
 10
219.211603
 20
75.049301
 30
0.0
 10
206.211603
 20
75.049301
 30
0.0
  0
SPLINE
  5
2cd
100
AcDbEntity
  8
0
 62
7
100
AcDbSpline
 70
8
 71
3
 72
8
 73
4
 74
0
 40
0
 40
0
 40
0
 40
0
 40
1
 40
1
 40
1
 40
1
 10
205.711603
 20
88.549301
 30
0.0
 10
205.711603
 20
88.681909
 30
0.0
 10
205.764281
 20
88.809086
 30
0.0
 10
205.858049
 20
88.902854
 30
0.0
  0
SPLINE
  5
2ce
100
AcDbEntity
  8
0
 62
7
100
AcDbSpline
 70
8
 71
3
 72
8
 73
4
 74
0
 40
0
 40
0
 40
0
 40
0
 40
1
 40
1
 40
1
 40
1
 10
205.858049
 20
88.902854
 30
0.0
 10
205.951818
 20
88.996622
 30
0.0
 10
206.078994
 20
89.049301
 30
0.0
 10
206.211603
 20
89.049301
 30
0.0
  0
LWPOLYLINE
  5
2cf
100
AcDbEntity
  8
0
 62
7
100
AcDbPolyline
 90
2
 70
0
 10
205.711603
 20
75.549301
 30
0.0
 10
205.711603
 20
88.549301
 30
0.0
  0
SPLINE
  5
2d0
100
AcDbEntity
  8
0
 62
7
100
AcDbSpline
 70
8
 71
3
 72
8
 73
4
 74
0
 40
0
 40
0
 40
0
 40
0
 40
1
 40
1
 40
1
 40
1
 10
219.211603
 20
89.049301
 30
0.0
 10
219.344211
 20
89.049301
 30
0.0
 10
219.471388
 20
88.996622
 30
0.0
 10
219.565156
 20
88.902854
 30
0.0
  0
SPLINE
  5
2d1
100
AcDbEntity
  8
0
 62
7
100
AcDbSpline
 70
8
 71
3
 72
8
 73
4
 74
0
 40
0
 40
0
 40
0
 40
0
 40
1
 40
1
 40
1
 40
1
 10
219.565156
 20
88.902854
 30
0.0
 10
219.658924
 20
88.809086
 30
0.0
 10
219.711603
 20
88.681909
 30
0.0
 10
219.711603
 20
88.549301
 30
0.0
  0
LWPOLYLINE
  5
2d2
100
AcDbEntity
  8
0
 62
7
100
AcDbPolyline
 90
2
 70
0
 10
206.211603
 20
89.049301
 30
0.0
 10
219.211603
 20
89.049301
 30
0.0
  0
SPLINE
  5
2d3
100
AcDbEntity
  8
0
 62
7
100
AcDbSpline
 70
8
 71
3
 72
8
 73
4
 74
0
 40
0
 40
0
 40
0
 40
0
 40
1
 40
1
 40
1
 40
1
 10
200.662803
 20
75.549301
 30
0.0
 10
200.662803
 20
75.416692
 30
0.0
 10
200.610124
 20
75.289515
 30
0.0
 10
200.516356
 20
75.195747
 30
0.0
  0
SPLINE
  5
2d4
100
AcDbEntity
  8
0
 62
7
100
AcDbSpline
 70
8
 71
3
 72
8
 73
4
 74
0
 40
0
 40
0
 40
0
 40
0
 40
1
 40
1
 40
1
 40
1
 10
200.516356
 20
75.195747
 30
0.0
 10
200.422588
 20
75.101979
 30
0.0
 10
200.295411
 20
75.049301
 30
0.0
 10
200.162803
 20
75.049301
 30
0.0
  0
LWPOLYLINE
  5
2d5
100
AcDbEntity
  8
0
 62
7
100
AcDbPolyline
 90
2
 70
0
 10
219.711603
 20
88.549301
 30
0.0
 10
219.711603
 20
75.549301
 30
0.0
  0
SPLINE
  5
2d6
100
AcDbEntity
  8
0
 62
7
100
AcDbSpline
 70
8
 71
3
 72
8
 73
4
 74
0
 40
0
 40
0
 40
0
 40
0
 40
1
 40
1
 40
1
 40
1
 10
187.162802
 20
75.049301
 30
0.0
 10
187.030194
 20
75.049301
 30
0.0
 10
186.903017
 20
75.101979
 30
0.0
 10
186.809249
 20
75.195747
 30
0.0
  0
SPLINE
  5
2d7
100
AcDbEntity
  8
0
 62
7
100
AcDbSpline
 70
8
 71
3
 72
8
 73
4
 74
0
 40
0
 40
0
 40
0
 40
0
 40
1
 40
1
 40
1
 40
1
 10
186.809249
 20
75.195747
 30
0.0
 10
186.715481
 20
75.289515
 30
0.0
 10
186.662802
 20
75.416692
 30
0.0
 10
186.662802
 20
75.549301
 30
0.0
  0
LWPOLYLINE
  5
2d8
100
AcDbEntity
  8
0
 62
7
100
AcDbPolyline
 90
2
 70
0
 10
200.162803
 20
75.049301
 30
0.0
 10
187.162802
 20
75.049301
 30
0.0
  0
SPLINE
  5
2d9
100
AcDbEntity
  8
0
 62
7
100
AcDbSpline
 70
8
 71
3
 72
8
 73
4
 74
0
 40
0
 40
0
 40
0
 40
0
 40
1
 40
1
 40
1
 40
1
 10
186.662802
 20
88.549301
 30
0.0
 10
186.662802
 20
88.681909
 30
0.0
 10
186.715481
 20
88.809086
 30
0.0
 10
186.809249
 20
88.902854
 30
0.0
  0
SPLINE
  5
2da
100
AcDbEntity
  8
0
 62
7
100
AcDbSpline
 70
8
 71
3
 72
8
 73
4
 74
0
 40
0
 40
0
 40
0
 40
0
 40
1
 40
1
 40
1
 40
1
 10
186.809249
 20
88.902854
 30
0.0
 10
186.903017
 20
88.996622
 30
0.0
 10
187.030194
 20
89.049301
 30
0.0
 10
187.162802
 20
89.049301
 30
0.0
  0
LWPOLYLINE
  5
2db
100
AcDbEntity
  8
0
 62
7
100
AcDbPolyline
 90
2
 70
0
 10
186.662802
 20
75.549301
 30
0.0
 10
186.662802
 20
88.549301
 30
0.0
  0
SPLINE
  5
2dc
100
AcDbEntity
  8
0
 62
7
100
AcDbSpline
 70
8
 71
3
 72
8
 73
4
 74
0
 40
0
 40
0
 40
0
 40
0
 40
1
 40
1
 40
1
 40
1
 10
200.162803
 20
89.049301
 30
0.0
 10
200.295411
 20
89.049301
 30
0.0
 10
200.422588
 20
88.996622
 30
0.0
 10
200.516356
 20
88.902854
 30
0.0
  0
SPLINE
  5
2dd
100
AcDbEntity
  8
0
 62
7
100
AcDbSpline
 70
8
 71
3
 72
8
 73
4
 74
0
 40
0
 40
0
 40
0
 40
0
 40
1
 40
1
 40
1
 40
1
 10
200.516356
 20
88.902854
 30
0.0
 10
200.610124
 20
88.809086
 30
0.0
 10
200.662803
 20
88.681909
 30
0.0
 10
200.662803
 20
88.549301
 30
0.0
  0
LWPOLYLINE
  5
2de
100
AcDbEntity
  8
0
 62
7
100
AcDbPolyline
 90
2
 70
0
 10
187.162802
 20
89.049301
 30
0.0
 10
200.162803
 20
89.049301
 30
0.0
  0
SPLINE
  5
2df
100
AcDbEntity
  8
0
 62
7
100
AcDbSpline
 70
8
 71
3
 72
8
 73
4
 74
0
 40
0
 40
0
 40
0
 40
0
 40
1
 40
1
 40
1
 40
1
 10
181.614002
 20
75.549301
 30
0.0
 10
181.614002
 20
75.416692
 30
0.0
 10
181.561324
 20
75.289515
 30
0.0
 10
181.467556
 20
75.195747
 30
0.0
  0
SPLINE
  5
2e0
100
AcDbEntity
  8
0
 62
7
100
AcDbSpline
 70
8
 71
3
 72
8
 73
4
 74
0
 40
0
 40
0
 40
0
 40
0
 40
1
 40
1
 40
1
 40
1
 10
181.467556
 20
75.195747
 30
0.0
 10
181.373788
 20
75.101979
 30
0.0
 10
181.246611
 20
75.049301
 30
0.0
 10
181.114002
 20
75.049301
 30
0.0
  0
LWPOLYLINE
  5
2e1
100
AcDbEntity
  8
0
 62
7
100
AcDbPolyline
 90
2
 70
0
 10
200.662803
 20
88.549301
 30
0.0
 10
200.662803
 20
75.549301
 30
0.0
  0
SPLINE
  5
2e2
100
AcDbEntity
  8
0
 62
7
100
AcDbSpline
 70
8
 71
3
 72
8
 73
4
 74
0
 40
0
 40
0
 40
0
 40
0
 40
1
 40
1
 40
1
 40
1
 10
168.114002
 20
75.049301
 30
0.0
 10
167.981394
 20
75.049301
 30
0.0
 10
167.854217
 20
75.101979
 30
0.0
 10
167.760449
 20
75.195747
 30
0.0
  0
SPLINE
  5
2e3
100
AcDbEntity
  8
0
 62
7
100
AcDbSpline
 70
8
 71
3
 72
8
 73
4
 74
0
 40
0
 40
0
 40
0
 40
0
 40
1
 40
1
 40
1
 40
1
 10
167.760449
 20
75.195747
 30
0.0
 10
167.666681
 20
75.289515
 30
0.0
 10
167.614002
 20
75.416692
 30
0.0
 10
167.614002
 20
75.549301
 30
0.0
  0
LWPOLYLINE
  5
2e4
100
AcDbEntity
  8
0
 62
7
100
AcDbPolyline
 90
2
 70
0
 10
181.114002
 20
75.049301
 30
0.0
 10
168.114002
 20
75.049301
 30
0.0
  0
SPLINE
  5
2e5
100
AcDbEntity
  8
0
 62
7
100
AcDbSpline
 70
8
 71
3
 72
8
 73
4
 74
0
 40
0
 40
0
 40
0
 40
0
 40
1
 40
1
 40
1
 40
1
 10
167.614002
 20
88.549301
 30
0.0
 10
167.614002
 20
88.681909
 30
0.0
 10
167.666681
 20
88.809086
 30
0.0
 10
167.760449
 20
88.902854
 30
0.0
  0
SPLINE
  5
2e6
100
AcDbEntity
  8
0
 62
7
100
AcDbSpline
 70
8
 71
3
 72
8
 73
4
 74
0
 40
0
 40
0
 40
0
 40
0
 40
1
 40
1
 40
1
 40
1
 10
167.760449
 20
88.902854
 30
0.0
 10
167.854217
 20
88.996622
 30
0.0
 10
167.981394
 20
89.049301
 30
0.0
 10
168.114002
 20
89.049301
 30
0.0
  0
LWPOLYLINE
  5
2e7
100
AcDbEntity
  8
0
 62
7
100
AcDbPolyline
 90
2
 70
0
 10
167.614002
 20
75.549301
 30
0.0
 10
167.614002
 20
88.549301
 30
0.0
  0
SPLINE
  5
2e8
100
AcDbEntity
  8
0
 62
7
100
AcDbSpline
 70
8
 71
3
 72
8
 73
4
 74
0
 40
0
 40
0
 40
0
 40
0
 40
1
 40
1
 40
1
 40
1
 10
181.114002
 20
89.049301
 30
0.0
 10
181.246611
 20
89.049301
 30
0.0
 10
181.373788
 20
88.996622
 30
0.0
 10
181.467556
 20
88.902854
 30
0.0
  0
SPLINE
  5
2e9
100
AcDbEntity
  8
0
 62
7
100
AcDbSpline
 70
8
 71
3
 72
8
 73
4
 74
0
 40
0
 40
0
 40
0
 40
0
 40
1
 40
1
 40
1
 40
1
 10
181.467556
 20
88.902854
 30
0.0
 10
181.561324
 20
88.809086
 30
0.0
 10
181.614002
 20
88.681909
 30
0.0
 10
181.614002
 20
88.549301
 30
0.0
  0
LWPOLYLINE
  5
2ea
100
AcDbEntity
  8
0
 62
7
100
AcDbPolyline
 90
2
 70
0
 10
168.114002
 20
89.049301
 30
0.0
 10
181.114002
 20
89.049301
 30
0.0
  0
SPLINE
  5
2eb
100
AcDbEntity
  8
0
 62
7
100
AcDbSpline
 70
8
 71
3
 72
8
 73
4
 74
0
 40
0
 40
0
 40
0
 40
0
 40
1
 40
1
 40
1
 40
1
 10
162.565202
 20
75.549301
 30
0.0
 10
162.565202
 20
75.416692
 30
0.0
 10
162.512524
 20
75.289515
 30
0.0
 10
162.418756
 20
75.195747
 30
0.0
  0
SPLINE
  5
2ec
100
AcDbEntity
  8
0
 62
7
100
AcDbSpline
 70
8
 71
3
 72
8
 73
4
 74
0
 40
0
 40
0
 40
0
 40
0
 40
1
 40
1
 40
1
 40
1
 10
162.418756
 20
75.195747
 30
0.0
 10
162.324987
 20
75.101979
 30
0.0
 10
162.197810
 20
75.049301
 30
0.0
 10
162.065202
 20
75.049301
 30
0.0
  0
LWPOLYLINE
  5
2ed
100
AcDbEntity
  8
0
 62
7
100
AcDbPolyline
 90
2
 70
0
 10
181.614002
 20
88.549301
 30
0.0
 10
181.614002
 20
75.549301
 30
0.0
  0
SPLINE
  5
2ee
100
AcDbEntity
  8
0
 62
7
100
AcDbSpline
 70
8
 71
3
 72
8
 73
4
 74
0
 40
0
 40
0
 40
0
 40
0
 40
1
 40
1
 40
1
 40
1
 10
149.065202
 20
75.049301
 30
0.0
 10
148.932594
 20
75.049301
 30
0.0
 10
148.805417
 20
75.101979
 30
0.0
 10
148.711649
 20
75.195747
 30
0.0
  0
SPLINE
  5
2ef
100
AcDbEntity
  8
0
 62
7
100
AcDbSpline
 70
8
 71
3
 72
8
 73
4
 74
0
 40
0
 40
0
 40
0
 40
0
 40
1
 40
1
 40
1
 40
1
 10
148.711649
 20
75.195747
 30
0.0
 10
148.617880
 20
75.289515
 30
0.0
 10
148.565202
 20
75.416692
 30
0.0
 10
148.565202
 20
75.549301
 30
0.0
  0
LWPOLYLINE
  5
2f0
100
AcDbEntity
  8
0
 62
7
100
AcDbPolyline
 90
2
 70
0
 10
162.065202
 20
75.049301
 30
0.0
 10
149.065202
 20
75.049301
 30
0.0
  0
SPLINE
  5
2f1
100
AcDbEntity
  8
0
 62
7
100
AcDbSpline
 70
8
 71
3
 72
8
 73
4
 74
0
 40
0
 40
0
 40
0
 40
0
 40
1
 40
1
 40
1
 40
1
 10
148.565202
 20
88.549301
 30
0.0
 10
148.565202
 20
88.681909
 30
0.0
 10
148.617880
 20
88.809086
 30
0.0
 10
148.711649
 20
88.902854
 30
0.0
  0
SPLINE
  5
2f2
100
AcDbEntity
  8
0
 62
7
100
AcDbSpline
 70
8
 71
3
 72
8
 73
4
 74
0
 40
0
 40
0
 40
0
 40
0
 40
1
 40
1
 40
1
 40
1
 10
148.711649
 20
88.902854
 30
0.0
 10
148.805417
 20
88.996622
 30
0.0
 10
148.932594
 20
89.049301
 30
0.0
 10
149.065202
 20
89.049301
 30
0.0
  0
LWPOLYLINE
  5
2f3
100
AcDbEntity
  8
0
 62
7
100
AcDbPolyline
 90
2
 70
0
 10
148.565202
 20
75.549301
 30
0.0
 10
148.565202
 20
88.549301
 30
0.0
  0
SPLINE
  5
2f4
100
AcDbEntity
  8
0
 62
7
100
AcDbSpline
 70
8
 71
3
 72
8
 73
4
 74
0
 40
0
 40
0
 40
0
 40
0
 40
1
 40
1
 40
1
 40
1
 10
162.065202
 20
89.049301
 30
0.0
 10
162.197810
 20
89.049301
 30
0.0
 10
162.324987
 20
88.996622
 30
0.0
 10
162.418756
 20
88.902854
 30
0.0
  0
SPLINE
  5
2f5
100
AcDbEntity
  8
0
 62
7
100
AcDbSpline
 70
8
 71
3
 72
8
 73
4
 74
0
 40
0
 40
0
 40
0
 40
0
 40
1
 40
1
 40
1
 40
1
 10
162.418756
 20
88.902854
 30
0.0
 10
162.512524
 20
88.809086
 30
0.0
 10
162.565202
 20
88.681909
 30
0.0
 10
162.565202
 20
88.549301
 30
0.0
  0
LWPOLYLINE
  5
2f6
100
AcDbEntity
  8
0
 62
7
100
AcDbPolyline
 90
2
 70
0
 10
149.065202
 20
89.049301
 30
0.0
 10
162.065202
 20
89.049301
 30
0.0
  0
SPLINE
  5
2f7
100
AcDbEntity
  8
0
 62
7
100
AcDbSpline
 70
8
 71
3
 72
8
 73
4
 74
0
 40
0
 40
0
 40
0
 40
0
 40
1
 40
1
 40
1
 40
1
 10
143.516402
 20
75.549301
 30
0.0
 10
143.516402
 20
75.416692
 30
0.0
 10
143.463723
 20
75.289515
 30
0.0
 10
143.369955
 20
75.195747
 30
0.0
  0
SPLINE
  5
2f8
100
AcDbEntity
  8
0
 62
7
100
AcDbSpline
 70
8
 71
3
 72
8
 73
4
 74
0
 40
0
 40
0
 40
0
 40
0
 40
1
 40
1
 40
1
 40
1
 10
143.369955
 20
75.195747
 30
0.0
 10
143.276187
 20
75.101979
 30
0.0
 10
143.149010
 20
75.049301
 30
0.0
 10
143.016402
 20
75.049301
 30
0.0
  0
LWPOLYLINE
  5
2f9
100
AcDbEntity
  8
0
 62
7
100
AcDbPolyline
 90
2
 70
0
 10
162.565202
 20
88.549301
 30
0.0
 10
162.565202
 20
75.549301
 30
0.0
  0
SPLINE
  5
2fa
100
AcDbEntity
  8
0
 62
7
100
AcDbSpline
 70
8
 71
3
 72
8
 73
4
 74
0
 40
0
 40
0
 40
0
 40
0
 40
1
 40
1
 40
1
 40
1
 10
130.016402
 20
75.049301
 30
0.0
 10
129.883793
 20
75.049301
 30
0.0
 10
129.756617
 20
75.101979
 30
0.0
 10
129.662848
 20
75.195747
 30
0.0
  0
SPLINE
  5
2fb
100
AcDbEntity
  8
0
 62
7
100
AcDbSpline
 70
8
 71
3
 72
8
 73
4
 74
0
 40
0
 40
0
 40
0
 40
0
 40
1
 40
1
 40
1
 40
1
 10
129.662848
 20
75.195747
 30
0.0
 10
129.569080
 20
75.289515
 30
0.0
 10
129.516402
 20
75.416692
 30
0.0
 10
129.516402
 20
75.549301
 30
0.0
  0
LWPOLYLINE
  5
2fc
100
AcDbEntity
  8
0
 62
7
100
AcDbPolyline
 90
2
 70
0
 10
143.016402
 20
75.049301
 30
0.0
 10
130.016402
 20
75.049301
 30
0.0
  0
SPLINE
  5
2fd
100
AcDbEntity
  8
0
 62
7
100
AcDbSpline
 70
8
 71
3
 72
8
 73
4
 74
0
 40
0
 40
0
 40
0
 40
0
 40
1
 40
1
 40
1
 40
1
 10
129.516402
 20
88.549301
 30
0.0
 10
129.516402
 20
88.681909
 30
0.0
 10
129.569080
 20
88.809086
 30
0.0
 10
129.662848
 20
88.902854
 30
0.0
  0
SPLINE
  5
2fe
100
AcDbEntity
  8
0
 62
7
100
AcDbSpline
 70
8
 71
3
 72
8
 73
4
 74
0
 40
0
 40
0
 40
0
 40
0
 40
1
 40
1
 40
1
 40
1
 10
129.662848
 20
88.902854
 30
0.0
 10
129.756617
 20
88.996622
 30
0.0
 10
129.883793
 20
89.049301
 30
0.0
 10
130.016402
 20
89.049301
 30
0.0
  0
LWPOLYLINE
  5
2ff
100
AcDbEntity
  8
0
 62
7
100
AcDbPolyline
 90
2
 70
0
 10
129.516402
 20
75.549301
 30
0.0
 10
129.516402
 20
88.549301
 30
0.0
  0
SPLINE
  5
300
100
AcDbEntity
  8
0
 62
7
100
AcDbSpline
 70
8
 71
3
 72
8
 73
4
 74
0
 40
0
 40
0
 40
0
 40
0
 40
1
 40
1
 40
1
 40
1
 10
143.016402
 20
89.049301
 30
0.0
 10
143.149010
 20
89.049301
 30
0.0
 10
143.276187
 20
88.996622
 30
0.0
 10
143.369955
 20
88.902854
 30
0.0
  0
SPLINE
  5
301
100
AcDbEntity
  8
0
 62
7
100
AcDbSpline
 70
8
 71
3
 72
8
 73
4
 74
0
 40
0
 40
0
 40
0
 40
0
 40
1
 40
1
 40
1
 40
1
 10
143.369955
 20
88.902854
 30
0.0
 10
143.463723
 20
88.809086
 30
0.0
 10
143.516402
 20
88.681909
 30
0.0
 10
143.516402
 20
88.549301
 30
0.0
  0
LWPOLYLINE
  5
302
100
AcDbEntity
  8
0
 62
7
100
AcDbPolyline
 90
2
 70
0
 10
130.016402
 20
89.049301
 30
0.0
 10
143.016402
 20
89.049301
 30
0.0
  0
SPLINE
  5
303
100
AcDbEntity
  8
0
 62
7
100
AcDbSpline
 70
8
 71
3
 72
8
 73
4
 74
0
 40
0
 40
0
 40
0
 40
0
 40
1
 40
1
 40
1
 40
1
 10
124.467602
 20
75.549301
 30
0.0
 10
124.467602
 20
75.416692
 30
0.0
 10
124.414923
 20
75.289515
 30
0.0
 10
124.321155
 20
75.195747
 30
0.0
  0
SPLINE
  5
304
100
AcDbEntity
  8
0
 62
7
100
AcDbSpline
 70
8
 71
3
 72
8
 73
4
 74
0
 40
0
 40
0
 40
0
 40
0
 40
1
 40
1
 40
1
 40
1
 10
124.321155
 20
75.195747
 30
0.0
 10
124.227387
 20
75.101979
 30
0.0
 10
124.100210
 20
75.049301
 30
0.0
 10
123.967602
 20
75.049301
 30
0.0
  0
LWPOLYLINE
  5
305
100
AcDbEntity
  8
0
 62
7
100
AcDbPolyline
 90
2
 70
0
 10
143.516402
 20
88.549301
 30
0.0
 10
143.516402
 20
75.549301
 30
0.0
  0
SPLINE
  5
306
100
AcDbEntity
  8
0
 62
7
100
AcDbSpline
 70
8
 71
3
 72
8
 73
4
 74
0
 40
0
 40
0
 40
0
 40
0
 40
1
 40
1
 40
1
 40
1
 10
110.967601
 20
75.049301
 30
0.0
 10
110.834993
 20
75.049301
 30
0.0
 10
110.707816
 20
75.101979
 30
0.0
 10
110.614048
 20
75.195747
 30
0.0
  0
SPLINE
  5
307
100
AcDbEntity
  8
0
 62
7
100
AcDbSpline
 70
8
 71
3
 72
8
 73
4
 74
0
 40
0
 40
0
 40
0
 40
0
 40
1
 40
1
 40
1
 40
1
 10
110.614048
 20
75.195747
 30
0.0
 10
110.520280
 20
75.289515
 30
0.0
 10
110.467601
 20
75.416692
 30
0.0
 10
110.467601
 20
75.549301
 30
0.0
  0
LWPOLYLINE
  5
308
100
AcDbEntity
  8
0
 62
7
100
AcDbPolyline
 90
2
 70
0
 10
123.967602
 20
75.049301
 30
0.0
 10
110.967601
 20
75.049301
 30
0.0
  0
SPLINE
  5
309
100
AcDbEntity
  8
0
 62
7
100
AcDbSpline
 70
8
 71
3
 72
8
 73
4
 74
0
 40
0
 40
0
 40
0
 40
0
 40
1
 40
1
 40
1
 40
1
 10
110.467601
 20
88.549301
 30
0.0
 10
110.467601
 20
88.681909
 30
0.0
 10
110.520280
 20
88.809086
 30
0.0
 10
110.614048
 20
88.902854
 30
0.0
  0
SPLINE
  5
30a
100
AcDbEntity
  8
0
 62
7
100
AcDbSpline
 70
8
 71
3
 72
8
 73
4
 74
0
 40
0
 40
0
 40
0
 40
0
 40
1
 40
1
 40
1
 40
1
 10
110.614048
 20
88.902854
 30
0.0
 10
110.707816
 20
88.996622
 30
0.0
 10
110.834993
 20
89.049301
 30
0.0
 10
110.967601
 20
89.049301
 30
0.0
  0
LWPOLYLINE
  5
30b
100
AcDbEntity
  8
0
 62
7
100
AcDbPolyline
 90
2
 70
0
 10
110.467601
 20
75.549301
 30
0.0
 10
110.467601
 20
88.549301
 30
0.0
  0
SPLINE
  5
30c
100
AcDbEntity
  8
0
 62
7
100
AcDbSpline
 70
8
 71
3
 72
8
 73
4
 74
0
 40
0
 40
0
 40
0
 40
0
 40
1
 40
1
 40
1
 40
1
 10
123.967602
 20
89.049301
 30
0.0
 10
124.100210
 20
89.049301
 30
0.0
 10
124.227387
 20
88.996622
 30
0.0
 10
124.321155
 20
88.902854
 30
0.0
  0
SPLINE
  5
30d
100
AcDbEntity
  8
0
 62
7
100
AcDbSpline
 70
8
 71
3
 72
8
 73
4
 74
0
 40
0
 40
0
 40
0
 40
0
 40
1
 40
1
 40
1
 40
1
 10
124.321155
 20
88.902854
 30
0.0
 10
124.414923
 20
88.809086
 30
0.0
 10
124.467602
 20
88.681909
 30
0.0
 10
124.467602
 20
88.549301
 30
0.0
  0
LWPOLYLINE
  5
30e
100
AcDbEntity
  8
0
 62
7
100
AcDbPolyline
 90
2
 70
0
 10
110.967601
 20
89.049301
 30
0.0
 10
123.967602
 20
89.049301
 30
0.0
  0
SPLINE
  5
30f
100
AcDbEntity
  8
0
 62
7
100
AcDbSpline
 70
8
 71
3
 72
8
 73
4
 74
0
 40
0
 40
0
 40
0
 40
0
 40
1
 40
1
 40
1
 40
1
 10
105.418801
 20
75.549301
 30
0.0
 10
105.418801
 20
75.416692
 30
0.0
 10
105.366123
 20
75.289515
 30
0.0
 10
105.272355
 20
75.195747
 30
0.0
  0
SPLINE
  5
310
100
AcDbEntity
  8
0
 62
7
100
AcDbSpline
 70
8
 71
3
 72
8
 73
4
 74
0
 40
0
 40
0
 40
0
 40
0
 40
1
 40
1
 40
1
 40
1
 10
105.272355
 20
75.195747
 30
0.0
 10
105.178587
 20
75.101979
 30
0.0
 10
105.051410
 20
75.049301
 30
0.0
 10
104.918801
 20
75.049301
 30
0.0
  0
LWPOLYLINE
  5
311
100
AcDbEntity
  8
0
 62
7
100
AcDbPolyline
 90
2
 70
0
 10
124.467602
 20
88.549301
 30
0.0
 10
124.467602
 20
75.549301
 30
0.0
  0
SPLINE
  5
312
100
AcDbEntity
  8
0
 62
7
100
AcDbSpline
 70
8
 71
3
 72
8
 73
4
 74
0
 40
0
 40
0
 40
0
 40
0
 40
1
 40
1
 40
1
 40
1
 10
91.918801
 20
75.049301
 30
0.0
 10
91.786193
 20
75.049301
 30
0.0
 10
91.659016
 20
75.101979
 30
0.0
 10
91.565248
 20
75.195747
 30
0.0
  0
SPLINE
  5
313
100
AcDbEntity
  8
0
 62
7
100
AcDbSpline
 70
8
 71
3
 72
8
 73
4
 74
0
 40
0
 40
0
 40
0
 40
0
 40
1
 40
1
 40
1
 40
1
 10
91.565248
 20
75.195747
 30
0.0
 10
91.471480
 20
75.289515
 30
0.0
 10
91.418801
 20
75.416692
 30
0.0
 10
91.418801
 20
75.549301
 30
0.0
  0
LWPOLYLINE
  5
314
100
AcDbEntity
  8
0
 62
7
100
AcDbPolyline
 90
2
 70
0
 10
104.918801
 20
75.049301
 30
0.0
 10
91.918801
 20
75.049301
 30
0.0
  0
SPLINE
  5
315
100
AcDbEntity
  8
0
 62
7
100
AcDbSpline
 70
8
 71
3
 72
8
 73
4
 74
0
 40
0
 40
0
 40
0
 40
0
 40
1
 40
1
 40
1
 40
1
 10
91.418801
 20
88.549301
 30
0.0
 10
91.418801
 20
88.681909
 30
0.0
 10
91.471480
 20
88.809086
 30
0.0
 10
91.565248
 20
88.902854
 30
0.0
  0
SPLINE
  5
316
100
AcDbEntity
  8
0
 62
7
100
AcDbSpline
 70
8
 71
3
 72
8
 73
4
 74
0
 40
0
 40
0
 40
0
 40
0
 40
1
 40
1
 40
1
 40
1
 10
91.565248
 20
88.902854
 30
0.0
 10
91.659016
 20
88.996622
 30
0.0
 10
91.786193
 20
89.049301
 30
0.0
 10
91.918801
 20
89.049301
 30
0.0
  0
LWPOLYLINE
  5
317
100
AcDbEntity
  8
0
 62
7
100
AcDbPolyline
 90
2
 70
0
 10
91.418801
 20
75.549301
 30
0.0
 10
91.418801
 20
88.549301
 30
0.0
  0
SPLINE
  5
318
100
AcDbEntity
  8
0
 62
7
100
AcDbSpline
 70
8
 71
3
 72
8
 73
4
 74
0
 40
0
 40
0
 40
0
 40
0
 40
1
 40
1
 40
1
 40
1
 10
104.918801
 20
89.049301
 30
0.0
 10
105.051410
 20
89.049301
 30
0.0
 10
105.178587
 20
88.996622
 30
0.0
 10
105.272355
 20
88.902854
 30
0.0
  0
SPLINE
  5
319
100
AcDbEntity
  8
0
 62
7
100
AcDbSpline
 70
8
 71
3
 72
8
 73
4
 74
0
 40
0
 40
0
 40
0
 40
0
 40
1
 40
1
 40
1
 40
1
 10
105.272355
 20
88.902854
 30
0.0
 10
105.366123
 20
88.809086
 30
0.0
 10
105.418801
 20
88.681909
 30
0.0
 10
105.418801
 20
88.549301
 30
0.0
  0
LWPOLYLINE
  5
31a
100
AcDbEntity
  8
0
 62
7
100
AcDbPolyline
 90
2
 70
0
 10
91.918801
 20
89.049301
 30
0.0
 10
104.918801
 20
89.049301
 30
0.0
  0
SPLINE
  5
31b
100
AcDbEntity
  8
0
 62
7
100
AcDbSpline
 70
8
 71
3
 72
8
 73
4
 74
0
 40
0
 40
0
 40
0
 40
0
 40
1
 40
1
 40
1
 40
1
 10
86.370001
 20
75.549301
 30
0.0
 10
86.370001
 20
75.416692
 30
0.0
 10
86.317323
 20
75.289515
 30
0.0
 10
86.223555
 20
75.195747
 30
0.0
  0
SPLINE
  5
31c
100
AcDbEntity
  8
0
 62
7
100
AcDbSpline
 70
8
 71
3
 72
8
 73
4
 74
0
 40
0
 40
0
 40
0
 40
0
 40
1
 40
1
 40
1
 40
1
 10
86.223555
 20
75.195747
 30
0.0
 10
86.129786
 20
75.101979
 30
0.0
 10
86.002609
 20
75.049301
 30
0.0
 10
85.870001
 20
75.049301
 30
0.0
  0
LWPOLYLINE
  5
31d
100
AcDbEntity
  8
0
 62
7
100
AcDbPolyline
 90
2
 70
0
 10
105.418801
 20
88.549301
 30
0.0
 10
105.418801
 20
75.549301
 30
0.0
  0
SPLINE
  5
31e
100
AcDbEntity
  8
0
 62
7
100
AcDbSpline
 70
8
 71
3
 72
8
 73
4
 74
0
 40
0
 40
0
 40
0
 40
0
 40
1
 40
1
 40
1
 40
1
 10
72.870001
 20
75.049301
 30
0.0
 10
72.737393
 20
75.049301
 30
0.0
 10
72.610216
 20
75.101979
 30
0.0
 10
72.516448
 20
75.195747
 30
0.0
  0
SPLINE
  5
31f
100
AcDbEntity
  8
0
 62
7
100
AcDbSpline
 70
8
 71
3
 72
8
 73
4
 74
0
 40
0
 40
0
 40
0
 40
0
 40
1
 40
1
 40
1
 40
1
 10
72.516448
 20
75.195747
 30
0.0
 10
72.422679
 20
75.289515
 30
0.0
 10
72.370001
 20
75.416692
 30
0.0
 10
72.370001
 20
75.549301
 30
0.0
  0
LWPOLYLINE
  5
320
100
AcDbEntity
  8
0
 62
7
100
AcDbPolyline
 90
2
 70
0
 10
85.870001
 20
75.049301
 30
0.0
 10
72.870001
 20
75.049301
 30
0.0
  0
SPLINE
  5
321
100
AcDbEntity
  8
0
 62
7
100
AcDbSpline
 70
8
 71
3
 72
8
 73
4
 74
0
 40
0
 40
0
 40
0
 40
0
 40
1
 40
1
 40
1
 40
1
 10
72.370001
 20
88.549301
 30
0.0
 10
72.370001
 20
88.681909
 30
0.0
 10
72.422679
 20
88.809086
 30
0.0
 10
72.516448
 20
88.902854
 30
0.0
  0
SPLINE
  5
322
100
AcDbEntity
  8
0
 62
7
100
AcDbSpline
 70
8
 71
3
 72
8
 73
4
 74
0
 40
0
 40
0
 40
0
 40
0
 40
1
 40
1
 40
1
 40
1
 10
72.516448
 20
88.902854
 30
0.0
 10
72.610216
 20
88.996622
 30
0.0
 10
72.737393
 20
89.049301
 30
0.0
 10
72.870001
 20
89.049301
 30
0.0
  0
LWPOLYLINE
  5
323
100
AcDbEntity
  8
0
 62
7
100
AcDbPolyline
 90
2
 70
0
 10
72.370001
 20
75.549301
 30
0.0
 10
72.370001
 20
88.549301
 30
0.0
  0
SPLINE
  5
324
100
AcDbEntity
  8
0
 62
7
100
AcDbSpline
 70
8
 71
3
 72
8
 73
4
 74
0
 40
0
 40
0
 40
0
 40
0
 40
1
 40
1
 40
1
 40
1
 10
85.870001
 20
89.049301
 30
0.0
 10
86.002609
 20
89.049301
 30
0.0
 10
86.129786
 20
88.996622
 30
0.0
 10
86.223555
 20
88.902854
 30
0.0
  0
SPLINE
  5
325
100
AcDbEntity
  8
0
 62
7
100
AcDbSpline
 70
8
 71
3
 72
8
 73
4
 74
0
 40
0
 40
0
 40
0
 40
0
 40
1
 40
1
 40
1
 40
1
 10
86.223555
 20
88.902854
 30
0.0
 10
86.317323
 20
88.809086
 30
0.0
 10
86.370001
 20
88.681909
 30
0.0
 10
86.370001
 20
88.549301
 30
0.0
  0
LWPOLYLINE
  5
326
100
AcDbEntity
  8
0
 62
7
100
AcDbPolyline
 90
2
 70
0
 10
72.870001
 20
89.049301
 30
0.0
 10
85.870001
 20
89.049301
 30
0.0
  0
SPLINE
  5
327
100
AcDbEntity
  8
0
 62
7
100
AcDbSpline
 70
8
 71
3
 72
8
 73
4
 74
0
 40
0
 40
0
 40
0
 40
0
 40
1
 40
1
 40
1
 40
1
 10
67.321201
 20
75.549301
 30
0.0
 10
67.321201
 20
75.416692
 30
0.0
 10
67.268522
 20
75.289515
 30
0.0
 10
67.174754
 20
75.195747
 30
0.0
  0
SPLINE
  5
328
100
AcDbEntity
  8
0
 62
7
100
AcDbSpline
 70
8
 71
3
 72
8
 73
4
 74
0
 40
0
 40
0
 40
0
 40
0
 40
1
 40
1
 40
1
 40
1
 10
67.174754
 20
75.195747
 30
0.0
 10
67.080986
 20
75.101979
 30
0.0
 10
66.953809
 20
75.049301
 30
0.0
 10
66.821201
 20
75.049301
 30
0.0
  0
LWPOLYLINE
  5
329
100
AcDbEntity
  8
0
 62
7
100
AcDbPolyline
 90
2
 70
0
 10
86.370001
 20
88.549301
 30
0.0
 10
86.370001
 20
75.549301
 30
0.0
  0
SPLINE
  5
32a
100
AcDbEntity
  8
0
 62
7
100
AcDbSpline
 70
8
 71
3
 72
8
 73
4
 74
0
 40
0
 40
0
 40
0
 40
0
 40
1
 40
1
 40
1
 40
1
 10
53.821201
 20
75.049301
 30
0.0
 10
53.688592
 20
75.049301
 30
0.0
 10
53.561416
 20
75.101979
 30
0.0
 10
53.467647
 20
75.195747
 30
0.0
  0
SPLINE
  5
32b
100
AcDbEntity
  8
0
 62
7
100
AcDbSpline
 70
8
 71
3
 72
8
 73
4
 74
0
 40
0
 40
0
 40
0
 40
0
 40
1
 40
1
 40
1
 40
1
 10
53.467647
 20
75.195747
 30
0.0
 10
53.373879
 20
75.289515
 30
0.0
 10
53.321201
 20
75.416692
 30
0.0
 10
53.321201
 20
75.549301
 30
0.0
  0
LWPOLYLINE
  5
32c
100
AcDbEntity
  8
0
 62
7
100
AcDbPolyline
 90
2
 70
0
 10
66.821201
 20
75.049301
 30
0.0
 10
53.821201
 20
75.049301
 30
0.0
  0
SPLINE
  5
32d
100
AcDbEntity
  8
0
 62
7
100
AcDbSpline
 70
8
 71
3
 72
8
 73
4
 74
0
 40
0
 40
0
 40
0
 40
0
 40
1
 40
1
 40
1
 40
1
 10
53.321201
 20
88.549301
 30
0.0
 10
53.321201
 20
88.681909
 30
0.0
 10
53.373879
 20
88.809086
 30
0.0
 10
53.467647
 20
88.902854
 30
0.0
  0
SPLINE
  5
32e
100
AcDbEntity
  8
0
 62
7
100
AcDbSpline
 70
8
 71
3
 72
8
 73
4
 74
0
 40
0
 40
0
 40
0
 40
0
 40
1
 40
1
 40
1
 40
1
 10
53.467647
 20
88.902854
 30
0.0
 10
53.561416
 20
88.996622
 30
0.0
 10
53.688592
 20
89.049301
 30
0.0
 10
53.821201
 20
89.049301
 30
0.0
  0
LWPOLYLINE
  5
32f
100
AcDbEntity
  8
0
 62
7
100
AcDbPolyline
 90
2
 70
0
 10
53.321201
 20
75.549301
 30
0.0
 10
53.321201
 20
88.549301
 30
0.0
  0
SPLINE
  5
330
100
AcDbEntity
  8
0
 62
7
100
AcDbSpline
 70
8
 71
3
 72
8
 73
4
 74
0
 40
0
 40
0
 40
0
 40
0
 40
1
 40
1
 40
1
 40
1
 10
66.821201
 20
89.049301
 30
0.0
 10
66.953809
 20
89.049301
 30
0.0
 10
67.080986
 20
88.996622
 30
0.0
 10
67.174754
 20
88.902854
 30
0.0
  0
SPLINE
  5
331
100
AcDbEntity
  8
0
 62
7
100
AcDbSpline
 70
8
 71
3
 72
8
 73
4
 74
0
 40
0
 40
0
 40
0
 40
0
 40
1
 40
1
 40
1
 40
1
 10
67.174754
 20
88.902854
 30
0.0
 10
67.268522
 20
88.809086
 30
0.0
 10
67.321201
 20
88.681909
 30
0.0
 10
67.321201
 20
88.549301
 30
0.0
  0
LWPOLYLINE
  5
332
100
AcDbEntity
  8
0
 62
7
100
AcDbPolyline
 90
2
 70
0
 10
53.821201
 20
89.049301
 30
0.0
 10
66.821201
 20
89.049301
 30
0.0
  0
SPLINE
  5
333
100
AcDbEntity
  8
0
 62
7
100
AcDbSpline
 70
8
 71
3
 72
8
 73
4
 74
0
 40
0
 40
0
 40
0
 40
0
 40
1
 40
1
 40
1
 40
1
 10
48.272401
 20
75.549301
 30
0.0
 10
48.272401
 20
75.416692
 30
0.0
 10
48.219722
 20
75.289515
 30
0.0
 10
48.125954
 20
75.195747
 30
0.0
  0
SPLINE
  5
334
100
AcDbEntity
  8
0
 62
7
100
AcDbSpline
 70
8
 71
3
 72
8
 73
4
 74
0
 40
0
 40
0
 40
0
 40
0
 40
1
 40
1
 40
1
 40
1
 10
48.125954
 20
75.195747
 30
0.0
 10
48.032186
 20
75.101979
 30
0.0
 10
47.905009
 20
75.049301
 30
0.0
 10
47.772401
 20
75.049301
 30
0.0
  0
LWPOLYLINE
  5
335
100
AcDbEntity
  8
0
 62
7
100
AcDbPolyline
 90
2
 70
0
 10
67.321201
 20
88.549301
 30
0.0
 10
67.321201
 20
75.549301
 30
0.0
  0
SPLINE
  5
336
100
AcDbEntity
  8
0
 62
7
100
AcDbSpline
 70
8
 71
3
 72
8
 73
4
 74
0
 40
0
 40
0
 40
0
 40
0
 40
1
 40
1
 40
1
 40
1
 10
34.772400
 20
75.049301
 30
0.0
 10
34.639792
 20
75.049301
 30
0.0
 10
34.512615
 20
75.101979
 30
0.0
 10
34.418847
 20
75.195747
 30
0.0
  0
SPLINE
  5
337
100
AcDbEntity
  8
0
 62
7
100
AcDbSpline
 70
8
 71
3
 72
8
 73
4
 74
0
 40
0
 40
0
 40
0
 40
0
 40
1
 40
1
 40
1
 40
1
 10
34.418847
 20
75.195747
 30
0.0
 10
34.325079
 20
75.289515
 30
0.0
 10
34.272400
 20
75.416692
 30
0.0
 10
34.272400
 20
75.549301
 30
0.0
  0
LWPOLYLINE
  5
338
100
AcDbEntity
  8
0
 62
7
100
AcDbPolyline
 90
2
 70
0
 10
47.772401
 20
75.049301
 30
0.0
 10
34.772400
 20
75.049301
 30
0.0
  0
SPLINE
  5
339
100
AcDbEntity
  8
0
 62
7
100
AcDbSpline
 70
8
 71
3
 72
8
 73
4
 74
0
 40
0
 40
0
 40
0
 40
0
 40
1
 40
1
 40
1
 40
1
 10
34.272400
 20
88.549301
 30
0.0
 10
34.272400
 20
88.681909
 30
0.0
 10
34.325079
 20
88.809086
 30
0.0
 10
34.418847
 20
88.902854
 30
0.0
  0
SPLINE
  5
33a
100
AcDbEntity
  8
0
 62
7
100
AcDbSpline
 70
8
 71
3
 72
8
 73
4
 74
0
 40
0
 40
0
 40
0
 40
0
 40
1
 40
1
 40
1
 40
1
 10
34.418847
 20
88.902854
 30
0.0
 10
34.512615
 20
88.996622
 30
0.0
 10
34.639792
 20
89.049301
 30
0.0
 10
34.772400
 20
89.049301
 30
0.0
  0
LWPOLYLINE
  5
33b
100
AcDbEntity
  8
0
 62
7
100
AcDbPolyline
 90
2
 70
0
 10
34.272400
 20
75.549301
 30
0.0
 10
34.272400
 20
88.549301
 30
0.0
  0
SPLINE
  5
33c
100
AcDbEntity
  8
0
 62
7
100
AcDbSpline
 70
8
 71
3
 72
8
 73
4
 74
0
 40
0
 40
0
 40
0
 40
0
 40
1
 40
1
 40
1
 40
1
 10
47.772401
 20
89.049301
 30
0.0
 10
47.905009
 20
89.049301
 30
0.0
 10
48.032186
 20
88.996622
 30
0.0
 10
48.125954
 20
88.902854
 30
0.0
  0
SPLINE
  5
33d
100
AcDbEntity
  8
0
 62
7
100
AcDbSpline
 70
8
 71
3
 72
8
 73
4
 74
0
 40
0
 40
0
 40
0
 40
0
 40
1
 40
1
 40
1
 40
1
 10
48.125954
 20
88.902854
 30
0.0
 10
48.219722
 20
88.809086
 30
0.0
 10
48.272401
 20
88.681909
 30
0.0
 10
48.272401
 20
88.549301
 30
0.0
  0
LWPOLYLINE
  5
33e
100
AcDbEntity
  8
0
 62
7
100
AcDbPolyline
 90
2
 70
0
 10
34.772400
 20
89.049301
 30
0.0
 10
47.772401
 20
89.049301
 30
0.0
  0
SPLINE
  5
33f
100
AcDbEntity
  8
0
 62
7
100
AcDbSpline
 70
8
 71
3
 72
8
 73
4
 74
0
 40
0
 40
0
 40
0
 40
0
 40
1
 40
1
 40
1
 40
1
 10
29.223600
 20
75.549301
 30
0.0
 10
29.223600
 20
75.416692
 30
0.0
 10
29.170922
 20
75.289515
 30
0.0
 10
29.077154
 20
75.195747
 30
0.0
  0
SPLINE
  5
340
100
AcDbEntity
  8
0
 62
7
100
AcDbSpline
 70
8
 71
3
 72
8
 73
4
 74
0
 40
0
 40
0
 40
0
 40
0
 40
1
 40
1
 40
1
 40
1
 10
29.077154
 20
75.195747
 30
0.0
 10
28.983386
 20
75.101979
 30
0.0
 10
28.856209
 20
75.049301
 30
0.0
 10
28.723600
 20
75.049301
 30
0.0
  0
LWPOLYLINE
  5
341
100
AcDbEntity
  8
0
 62
7
100
AcDbPolyline
 90
2
 70
0
 10
48.272401
 20
88.549301
 30
0.0
 10
48.272401
 20
75.549301
 30
0.0
  0
SPLINE
  5
342
100
AcDbEntity
  8
0
 62
7
100
AcDbSpline
 70
8
 71
3
 72
8
 73
4
 74
0
 40
0
 40
0
 40
0
 40
0
 40
1
 40
1
 40
1
 40
1
 10
15.723600
 20
75.049301
 30
0.0
 10
15.590992
 20
75.049301
 30
0.0
 10
15.463815
 20
75.101979
 30
0.0
 10
15.370047
 20
75.195747
 30
0.0
  0
SPLINE
  5
343
100
AcDbEntity
  8
0
 62
7
100
AcDbSpline
 70
8
 71
3
 72
8
 73
4
 74
0
 40
0
 40
0
 40
0
 40
0
 40
1
 40
1
 40
1
 40
1
 10
15.370047
 20
75.195747
 30
0.0
 10
15.276279
 20
75.289515
 30
0.0
 10
15.223600
 20
75.416692
 30
0.0
 10
15.223600
 20
75.549301
 30
0.0
  0
LWPOLYLINE
  5
344
100
AcDbEntity
  8
0
 62
7
100
AcDbPolyline
 90
2
 70
0
 10
28.723600
 20
75.049301
 30
0.0
 10
15.723600
 20
75.049301
 30
0.0
  0
SPLINE
  5
345
100
AcDbEntity
  8
0
 62
7
100
AcDbSpline
 70
8
 71
3
 72
8
 73
4
 74
0
 40
0
 40
0
 40
0
 40
0
 40
1
 40
1
 40
1
 40
1
 10
15.223600
 20
88.549301
 30
0.0
 10
15.223600
 20
88.681909
 30
0.0
 10
15.276279
 20
88.809086
 30
0.0
 10
15.370047
 20
88.902854
 30
0.0
  0
SPLINE
  5
346
100
AcDbEntity
  8
0
 62
7
100
AcDbSpline
 70
8
 71
3
 72
8
 73
4
 74
0
 40
0
 40
0
 40
0
 40
0
 40
1
 40
1
 40
1
 40
1
 10
15.370047
 20
88.902854
 30
0.0
 10
15.463815
 20
88.996622
 30
0.0
 10
15.590992
 20
89.049301
 30
0.0
 10
15.723600
 20
89.049301
 30
0.0
  0
LWPOLYLINE
  5
347
100
AcDbEntity
  8
0
 62
7
100
AcDbPolyline
 90
2
 70
0
 10
15.223600
 20
75.549301
 30
0.0
 10
15.223600
 20
88.549301
 30
0.0
  0
SPLINE
  5
348
100
AcDbEntity
  8
0
 62
7
100
AcDbSpline
 70
8
 71
3
 72
8
 73
4
 74
0
 40
0
 40
0
 40
0
 40
0
 40
1
 40
1
 40
1
 40
1
 10
28.723600
 20
89.049301
 30
0.0
 10
28.856209
 20
89.049301
 30
0.0
 10
28.983386
 20
88.996622
 30
0.0
 10
29.077154
 20
88.902854
 30
0.0
  0
SPLINE
  5
349
100
AcDbEntity
  8
0
 62
7
100
AcDbSpline
 70
8
 71
3
 72
8
 73
4
 74
0
 40
0
 40
0
 40
0
 40
0
 40
1
 40
1
 40
1
 40
1
 10
29.077154
 20
88.902854
 30
0.0
 10
29.170922
 20
88.809086
 30
0.0
 10
29.223600
 20
88.681909
 30
0.0
 10
29.223600
 20
88.549301
 30
0.0
  0
LWPOLYLINE
  5
34a
100
AcDbEntity
  8
0
 62
7
100
AcDbPolyline
 90
2
 70
0
 10
15.723600
 20
89.049301
 30
0.0
 10
28.723600
 20
89.049301
 30
0.0
  0
SPLINE
  5
34b
100
AcDbEntity
  8
0
 62
7
100
AcDbSpline
 70
8
 71
3
 72
8
 73
4
 74
0
 40
0
 40
0
 40
0
 40
0
 40
1
 40
1
 40
1
 40
1
 10
46.658411
 20
72.534561
 30
0.0
 10
46.658411
 20
73.210905
 30
0.0
 10
46.389735
 20
73.859548
 30
0.0
 10
45.911487
 20
74.337796
 30
0.0
  0
SPLINE
  5
34c
100
AcDbEntity
  8
0
 62
7
100
AcDbSpline
 70
8
 71
3
 72
8
 73
4
 74
0
 40
0
 40
0
 40
0
 40
0
 40
1
 40
1
 40
1
 40
1
 10
45.911487
 20
74.337796
 30
0.0
 10
45.433239
 20
74.816044
 30
0.0
 10
44.784596
 20
75.084721
 30
0.0
 10
44.108251
 20
75.084721
 30
0.0
  0
SPLINE
  5
34d
100
AcDbEntity
  8
0
 62
7
100
AcDbSpline
 70
8
 71
3
 72
8
 73
4
 74
0
 40
0
 40
0
 40
0
 40
0
 40
1
 40
1
 40
1
 40
1
 10
44.108251
 20
75.084721
 30
0.0
 10
43.431907
 20
75.084721
 30
0.0
 10
42.783264
 20
74.816044
 30
0.0
 10
42.305016
 20
74.337796
 30
0.0
  0
SPLINE
  5
34e
100
AcDbEntity
  8
0
 62
7
100
AcDbSpline
 70
8
 71
3
 72
8
 73
4
 74
0
 40
0
 40
0
 40
0
 40
0
 40
1
 40
1
 40
1
 40
1
 10
42.305016
 20
74.337796
 30
0.0
 10
41.826768
 20
73.859548
 30
0.0
 10
41.558091
 20
73.210905
 30
0.0
 10
41.558091
 20
72.534561
 30
0.0
  0
SPLINE
  5
34f
100
AcDbEntity
  8
0
 62
7
100
AcDbSpline
 70
8
 71
3
 72
8
 73
4
 74
0
 40
0
 40
0
 40
0
 40
0
 40
1
 40
1
 40
1
 40
1
 10
41.558091
 20
72.534561
 30
0.0
 10
41.558091
 20
71.858216
 30
0.0
 10
41.826768
 20
71.209573
 30
0.0
 10
42.305016
 20
70.731325
 30
0.0
  0
SPLINE
  5
350
100
AcDbEntity
  8
0
 62
7
100
AcDbSpline
 70
8
 71
3
 72
8
 73
4
 74
0
 40
0
 40
0
 40
0
 40
0
 40
1
 40
1
 40
1
 40
1
 10
42.305016
 20
70.731325
 30
0.0
 10
42.783264
 20
70.253077
 30
0.0
 10
43.431907
 20
69.984401
 30
0.0
 10
44.108251
 20
69.984401
 30
0.0
  0
SPLINE
  5
351
100
AcDbEntity
  8
0
 62
7
100
AcDbSpline
 70
8
 71
3
 72
8
 73
4
 74
0
 40
0
 40
0
 40
0
 40
0
 40
1
 40
1
 40
1
 40
1
 10
44.108251
 20
69.984401
 30
0.0
 10
44.784596
 20
69.984401
 30
0.0
 10
45.433239
 20
70.253077
 30
0.0
 10
45.911487
 20
70.731325
 30
0.0
  0
SPLINE
  5
352
100
AcDbEntity
  8
0
 62
7
100
AcDbSpline
 70
8
 71
3
 72
8
 73
4
 74
0
 40
0
 40
0
 40
0
 40
0
 40
1
 40
1
 40
1
 40
1
 10
45.911487
 20
70.731325
 30
0.0
 10
46.389735
 20
71.209573
 30
0.0
 10
46.658411
 20
71.858216
 30
0.0
 10
46.658411
 20
72.534561
 30
0.0
  0
SPLINE
  5
353
100
AcDbEntity
  8
0
 62
7
100
AcDbSpline
 70
8
 71
3
 72
8
 73
4
 74
0
 40
0
 40
0
 40
0
 40
0
 40
1
 40
1
 40
1
 40
1
 10
225.921454
 20
74.851041
 30
0.0
 10
225.921454
 20
75.527385
 30
0.0
 10
225.652777
 20
76.176028
 30
0.0
 10
225.174529
 20
76.654276
 30
0.0
  0
SPLINE
  5
354
100
AcDbEntity
  8
0
 62
7
100
AcDbSpline
 70
8
 71
3
 72
8
 73
4
 74
0
 40
0
 40
0
 40
0
 40
0
 40
1
 40
1
 40
1
 40
1
 10
225.174529
 20
76.654276
 30
0.0
 10
224.696281
 20
77.132524
 30
0.0
 10
224.047638
 20
77.401201
 30
0.0
 10
223.371294
 20
77.401201
 30
0.0
  0
SPLINE
  5
355
100
AcDbEntity
  8
0
 62
7
100
AcDbSpline
 70
8
 71
3
 72
8
 73
4
 74
0
 40
0
 40
0
 40
0
 40
0
 40
1
 40
1
 40
1
 40
1
 10
223.371294
 20
77.401201
 30
0.0
 10
222.694949
 20
77.401201
 30
0.0
 10
222.046306
 20
77.132524
 30
0.0
 10
221.568058
 20
76.654276
 30
0.0
  0
SPLINE
  5
356
100
AcDbEntity
  8
0
 62
7
100
AcDbSpline
 70
8
 71
3
 72
8
 73
4
 74
0
 40
0
 40
0
 40
0
 40
0
 40
1
 40
1
 40
1
 40
1
 10
221.568058
 20
76.654276
 30
0.0
 10
221.089810
 20
76.176028
 30
0.0
 10
220.821134
 20
75.527385
 30
0.0
 10
220.821134
 20
74.851041
 30
0.0
  0
SPLINE
  5
357
100
AcDbEntity
  8
0
 62
7
100
AcDbSpline
 70
8
 71
3
 72
8
 73
4
 74
0
 40
0
 40
0
 40
0
 40
0
 40
1
 40
1
 40
1
 40
1
 10
220.821134
 20
74.851041
 30
0.0
 10
220.821134
 20
74.174696
 30
0.0
 10
221.089810
 20
73.526053
 30
0.0
 10
221.568058
 20
73.047805
 30
0.0
  0
SPLINE
  5
358
100
AcDbEntity
  8
0
 62
7
100
AcDbSpline
 70
8
 71
3
 72
8
 73
4
 74
0
 40
0
 40
0
 40
0
 40
0
 40
1
 40
1
 40
1
 40
1
 10
221.568058
 20
73.047805
 30
0.0
 10
222.046306
 20
72.569557
 30
0.0
 10
222.694949
 20
72.300881
 30
0.0
 10
223.371294
 20
72.300881
 30
0.0
  0
SPLINE
  5
359
100
AcDbEntity
  8
0
 62
7
100
AcDbSpline
 70
8
 71
3
 72
8
 73
4
 74
0
 40
0
 40
0
 40
0
 40
0
 40
1
 40
1
 40
1
 40
1
 10
223.371294
 20
72.300881
 30
0.0
 10
224.047638
 20
72.300881
 30
0.0
 10
224.696281
 20
72.569557
 30
0.0
 10
225.174529
 20
73.047805
 30
0.0
  0
SPLINE
  5
35a
100
AcDbEntity
  8
0
 62
7
100
AcDbSpline
 70
8
 71
3
 72
8
 73
4
 74
0
 40
0
 40
0
 40
0
 40
0
 40
1
 40
1
 40
1
 40
1
 10
225.174529
 20
73.047805
 30
0.0
 10
225.652777
 20
73.526053
 30
0.0
 10
225.921454
 20
74.174696
 30
0.0
 10
225.921454
 20
74.851041
 30
0.0
  0
SPLINE
  5
35b
100
AcDbEntity
  8
0
 62
7
100
AcDbSpline
 70
8
 71
3
 72
8
 73
4
 74
0
 40
0
 40
0
 40
0
 40
0
 40
1
 40
1
 40
1
 40
1
 10
122.858410
 20
72.532021
 30
0.0
 10
122.858410
 20
73.208366
 30
0.0
 10
122.589734
 20
73.857009
 30
0.0
 10
122.111486
 20
74.335258
 30
0.0
  0
SPLINE
  5
35c
100
AcDbEntity
  8
0
 62
7
100
AcDbSpline
 70
8
 71
3
 72
8
 73
4
 74
0
 40
0
 40
0
 40
0
 40
0
 40
1
 40
1
 40
1
 40
1
 10
122.111486
 20
74.335258
 30
0.0
 10
121.633238
 20
74.813506
 30
0.0
 10
120.984595
 20
75.082183
 30
0.0
 10
120.308250
 20
75.082183
 30
0.0
  0
SPLINE
  5
35d
100
AcDbEntity
  8
0
 62
7
100
AcDbSpline
 70
8
 71
3
 72
8
 73
4
 74
0
 40
0
 40
0
 40
0
 40
0
 40
1
 40
1
 40
1
 40
1
 10
120.308250
 20
75.082183
 30
0.0
 10
119.631905
 20
75.082183
 30
0.0
 10
118.983261
 20
74.813506
 30
0.0
 10
118.505013
 20
74.335258
 30
0.0
  0
SPLINE
  5
35e
100
AcDbEntity
  8
0
 62
7
100
AcDbSpline
 70
8
 71
3
 72
8
 73
4
 74
0
 40
0
 40
0
 40
0
 40
0
 40
1
 40
1
 40
1
 40
1
 10
118.505013
 20
74.335258
 30
0.0
 10
118.026766
 20
73.857009
 30
0.0
 10
117.758089
 20
73.208366
 30
0.0
 10
117.758090
 20
72.532021
 30
0.0
  0
SPLINE
  5
35f
100
AcDbEntity
  8
0
 62
7
100
AcDbSpline
 70
8
 71
3
 72
8
 73
4
 74
0
 40
0
 40
0
 40
0
 40
0
 40
1
 40
1
 40
1
 40
1
 10
117.758090
 20
72.532021
 30
0.0
 10
117.758090
 20
71.123606
 30
0.0
 10
118.899835
 20
69.981861
 30
0.0
 10
120.308250
 20
69.981861
 30
0.0
  0
SPLINE
  5
360
100
AcDbEntity
  8
0
 62
7
100
AcDbSpline
 70
8
 71
3
 72
8
 73
4
 74
0
 40
0
 40
0
 40
0
 40
0
 40
1
 40
1
 40
1
 40
1
 10
120.308250
 20
69.981861
 30
0.0
 10
121.716664
 20
69.981861
 30
0.0
 10
122.858410
 20
71.123606
 30
0.0
 10
122.858410
 20
72.532021
 30
0.0
  0
SPLINE
  5
361
100
AcDbEntity
  8
0
 62
7
100
AcDbSpline
 70
8
 71
3
 72
8
 73
4
 74
0
 40
0
 40
0
 40
0
 40
0
 40
1
 40
1
 40
1
 40
1
 10
153.394295
 20
53.484558
 30
0.0
 10
153.394295
 20
54.892972
 30
0.0
 10
152.252550
 20
56.034718
 30
0.0
 10
150.844135
 20
56.034718
 30
0.0
  0
SPLINE
  5
362
100
AcDbEntity
  8
0
 62
7
100
AcDbSpline
 70
8
 71
3
 72
8
 73
4
 74
0
 40
0
 40
0
 40
0
 40
0
 40
1
 40
1
 40
1
 40
1
 10
150.844135
 20
56.034718
 30
0.0
 10
150.167791
 20
56.034718
 30
0.0
 10
149.519148
 20
55.766041
 30
0.0
 10
149.040900
 20
55.287793
 30
0.0
  0
SPLINE
  5
363
100
AcDbEntity
  8
0
 62
7
100
AcDbSpline
 70
8
 71
3
 72
8
 73
4
 74
0
 40
0
 40
0
 40
0
 40
0
 40
1
 40
1
 40
1
 40
1
 10
149.040900
 20
55.287793
 30
0.0
 10
148.562652
 20
54.809545
 30
0.0
 10
148.293975
 20
54.160902
 30
0.0
 10
148.293975
 20
53.484558
 30
0.0
  0
SPLINE
  5
364
100
AcDbEntity
  8
0
 62
7
100
AcDbSpline
 70
8
 71
3
 72
8
 73
4
 74
0
 40
0
 40
0
 40
0
 40
0
 40
1
 40
1
 40
1
 40
1
 10
148.293975
 20
53.484558
 30
0.0
 10
148.293975
 20
52.808213
 30
0.0
 10
148.562652
 20
52.159570
 30
0.0
 10
149.040900
 20
51.681322
 30
0.0
  0
SPLINE
  5
365
100
AcDbEntity
  8
0
 62
7
100
AcDbSpline
 70
8
 71
3
 72
8
 73
4
 74
0
 40
0
 40
0
 40
0
 40
0
 40
1
 40
1
 40
1
 40
1
 10
149.040900
 20
51.681322
 30
0.0
 10
149.519148
 20
51.203075
 30
0.0
 10
150.167791
 20
50.934398
 30
0.0
 10
150.844135
 20
50.934398
 30
0.0
  0
SPLINE
  5
366
100
AcDbEntity
  8
0
 62
7
100
AcDbSpline
 70
8
 71
3
 72
8
 73
4
 74
0
 40
0
 40
0
 40
0
 40
0
 40
1
 40
1
 40
1
 40
1
 10
150.844135
 20
50.934398
 30
0.0
 10
152.252550
 20
50.934398
 30
0.0
 10
153.394295
 20
52.076143
 30
0.0
 10
153.394295
 20
53.484558
 30
0.0
  0
SPLINE
  5
367
100
AcDbEntity
  8
0
 62
7
100
AcDbSpline
 70
8
 71
3
 72
8
 73
4
 74
0
 40
0
 40
0
 40
0
 40
0
 40
1
 40
1
 40
1
 40
1
 10
45.131874
 20
37.777200
 30
0.0
 10
45.131874
 20
38.453545
 30
0.0
 10
44.863197
 20
39.102189
 30
0.0
 10
44.384948
 20
39.580436
 30
0.0
  0
SPLINE
  5
368
100
AcDbEntity
  8
0
 62
7
100
AcDbSpline
 70
8
 71
3
 72
8
 73
4
 74
0
 40
0
 40
0
 40
0
 40
0
 40
1
 40
1
 40
1
 40
1
 10
44.384948
 20
39.580436
 30
0.0
 10
43.906700
 20
40.058684
 30
0.0
 10
43.258056
 20
40.327361
 30
0.0
 10
42.581711
 20
40.327360
 30
0.0
  0
SPLINE
  5
369
100
AcDbEntity
  8
0
 62
7
100
AcDbSpline
 70
8
 71
3
 72
8
 73
4
 74
0
 40
0
 40
0
 40
0
 40
0
 40
1
 40
1
 40
1
 40
1
 10
42.581711
 20
40.327360
 30
0.0
 10
41.905367
 20
40.327360
 30
0.0
 10
41.256724
 20
40.058683
 30
0.0
 10
40.778476
 20
39.580436
 30
0.0
  0
SPLINE
  5
36a
100
AcDbEntity
  8
0
 62
7
100
AcDbSpline
 70
8
 71
3
 72
8
 73
4
 74
0
 40
0
 40
0
 40
0
 40
0
 40
1
 40
1
 40
1
 40
1
 10
40.778476
 20
39.580436
 30
0.0
 10
40.300228
 20
39.102188
 30
0.0
 10
40.031551
 20
38.453545
 30
0.0
 10
40.031551
 20
37.777200
 30
0.0
  0
SPLINE
  5
36b
100
AcDbEntity
  8
0
 62
7
100
AcDbSpline
 70
8
 71
3
 72
8
 73
4
 74
0
 40
0
 40
0
 40
0
 40
0
 40
1
 40
1
 40
1
 40
1
 10
40.031551
 20
37.777200
 30
0.0
 10
40.031551
 20
37.100856
 30
0.0
 10
40.300228
 20
36.452212
 30
0.0
 10
40.778476
 20
35.973965
 30
0.0
  0
SPLINE
  5
36c
100
AcDbEntity
  8
0
 62
7
100
AcDbSpline
 70
8
 71
3
 72
8
 73
4
 74
0
 40
0
 40
0
 40
0
 40
0
 40
1
 40
1
 40
1
 40
1
 10
40.778476
 20
35.973965
 30
0.0
 10
41.256724
 20
35.495717
 30
0.0
 10
41.905367
 20
35.227040
 30
0.0
 10
42.581711
 20
35.227040
 30
0.0
  0
SPLINE
  5
36d
100
AcDbEntity
  8
0
 62
7
100
AcDbSpline
 70
8
 71
3
 72
8
 73
4
 74
0
 40
0
 40
0
 40
0
 40
0
 40
1
 40
1
 40
1
 40
1
 10
42.581711
 20
35.227040
 30
0.0
 10
43.258056
 20
35.227039
 30
0.0
 10
43.906700
 20
35.495716
 30
0.0
 10
44.384948
 20
35.973964
 30
0.0
  0
SPLINE
  5
36e
100
AcDbEntity
  8
0
 62
7
100
AcDbSpline
 70
8
 71
3
 72
8
 73
4
 74
0
 40
0
 40
0
 40
0
 40
0
 40
1
 40
1
 40
1
 40
1
 10
44.384948
 20
35.973964
 30
0.0
 10
44.863197
 20
36.452212
 30
0.0
 10
45.131874
 20
37.100855
 30
0.0
 10
45.131874
 20
37.777200
 30
0.0
  0
SPLINE
  5
36f
100
AcDbEntity
  8
0
 62
7
100
AcDbSpline
 70
8
 71
3
 72
8
 73
4
 74
0
 40
0
 40
0
 40
0
 40
0
 40
1
 40
1
 40
1
 40
1
 10
92.032974
 20
26.227820
 30
0.0
 10
92.032975
 20
26.904165
 30
0.0
 10
91.764298
 20
27.552810
 30
0.0
 10
91.286050
 20
28.031058
 30
0.0
  0
SPLINE
  5
370
100
AcDbEntity
  8
0
 62
7
100
AcDbSpline
 70
8
 71
3
 72
8
 73
4
 74
0
 40
0
 40
0
 40
0
 40
0
 40
1
 40
1
 40
1
 40
1
 10
91.286050
 20
28.031058
 30
0.0
 10
90.807801
 20
28.509306
 30
0.0
 10
90.159157
 20
28.777983
 30
0.0
 10
89.482812
 20
28.777983
 30
0.0
  0
SPLINE
  5
371
100
AcDbEntity
  8
0
 62
7
100
AcDbSpline
 70
8
 71
3
 72
8
 73
4
 74
0
 40
0
 40
0
 40
0
 40
0
 40
1
 40
1
 40
1
 40
1
 10
89.482812
 20
28.777983
 30
0.0
 10
88.806467
 20
28.777983
 30
0.0
 10
88.157823
 20
28.509305
 30
0.0
 10
87.679576
 20
28.031057
 30
0.0
  0
SPLINE
  5
372
100
AcDbEntity
  8
0
 62
7
100
AcDbSpline
 70
8
 71
3
 72
8
 73
4
 74
0
 40
0
 40
0
 40
0
 40
0
 40
1
 40
1
 40
1
 40
1
 10
87.679576
 20
28.031057
 30
0.0
 10
87.201328
 20
27.552809
 30
0.0
 10
86.932651
 20
26.904165
 30
0.0
 10
86.932652
 20
26.227820
 30
0.0
  0
SPLINE
  5
373
100
AcDbEntity
  8
0
 62
7
100
AcDbSpline
 70
8
 71
3
 72
8
 73
4
 74
0
 40
0
 40
0
 40
0
 40
0
 40
1
 40
1
 40
1
 40
1
 10
86.932652
 20
26.227820
 30
0.0
 10
86.932652
 20
25.551475
 30
0.0
 10
87.201329
 20
24.902832
 30
0.0
 10
87.679576
 20
24.424585
 30
0.0
  0
SPLINE
  5
374
100
AcDbEntity
  8
0
 62
7
100
AcDbSpline
 70
8
 71
3
 72
8
 73
4
 74
0
 40
0
 40
0
 40
0
 40
0
 40
1
 40
1
 40
1
 40
1
 10
87.679576
 20
24.424585
 30
0.0
 10
88.157824
 20
23.946337
 30
0.0
 10
88.806467
 20
23.677660
 30
0.0
 10
89.482812
 20
23.677660
 30
0.0
  0
SPLINE
  5
375
100
AcDbEntity
  8
0
 62
7
100
AcDbSpline
 70
8
 71
3
 72
8
 73
4
 74
0
 40
0
 40
0
 40
0
 40
0
 40
1
 40
1
 40
1
 40
1
 10
89.482812
 20
23.677660
 30
0.0
 10
90.159157
 20
23.677659
 30
0.0
 10
90.807801
 20
23.946336
 30
0.0
 10
91.286049
 20
24.424584
 30
0.0
  0
SPLINE
  5
376
100
AcDbEntity
  8
0
 62
7
100
AcDbSpline
 70
8
 71
3
 72
8
 73
4
 74
0
 40
0
 40
0
 40
0
 40
0
 40
1
 40
1
 40
1
 40
1
 10
91.286049
 20
24.424584
 30
0.0
 10
91.764297
 20
24.902831
 30
0.0
 10
92.032974
 20
25.551475
 30
0.0
 10
92.032974
 20
26.227820
 30
0.0
  0
LWPOLYLINE
  5
377
100
AcDbEntity
  8
0
 62
7
100
AcDbPolyline
 90
2
 70
0
 10
29.223600
 20
88.549301
 30
0.0
 10
29.223600
 20
75.549301
 30
0.0
  0
ENDSEC
  0
SECTION
  2
OBJECTS
  0
DICTIONARY
  5
C
330
0
100
AcDbDictionary
  3
ACAD_GROUP
350
D
  3
ACAD_MLINESTYLE
350
17
  0
DICTIONARY
  5
D
330
C
100
AcDbDictionary
  0
DICTIONARY
  5
1A
330
C
100
AcDbDictionary
  0
DICTIONARY
  5
17
330
C
100
AcDbDictionary
  3
STANDARD
350
18
  0
DICTIONARY
  5
19
330
C
100
AcDbDictionary
  0
ENDSEC
  0
EOF
