0
SECTION
2
HEADER
9
$INSUNITS
70
4
9
$ACADVER
1
AC1014
9
$HANDSEED
5
FFFF
0
ENDSEC
0
SECTION
2
TABLES
0
TABLE
2
VPORT
5
8
100
AcDbSymbolTable
0
ENDTAB
0
TABLE
2
LTYPE
5
5
100
AcDbSymbolTable
0
LTYPE
5
14
100
AcDbSymbolTableRecord
100
AcDbLinetypeTableRecord
2
BYBLOCK
70
0
0
LTYPE
5
15
100
AcDbSymbolTableRecord
100
AcDbLinetypeTableRecord
2
BYLAYER
70
0
0
ENDTAB
0
TABLE
2
LAYER
5
2
100
AcDbSymbolTable
70
2
0
LAYER
5
50
100
AcDbSymbolTableRecord
100
AcDbLayerTableRecord
2
0
70
0
6
CONTINUOUS
0
ENDTAB
0
TABLE
2
STYLE
5
3
100
AcDbSymbolTable
70
1
0
STYLE
5
11
100
AcDbSymbolTableRecord
100
AcDbTextStyleTableRecord
2
STANDARD
70
0
0
ENDTAB
0
TABLE
2
VIEW
5
6
100
AcDbSymbolTable
70
0
0
ENDTAB
0
TABLE
2
UCS
5
7
100
AcDbSymbolTable
70
0
0
ENDTAB
0
TABLE
2
APPID
5
9
100
AcDbSymbolTable
70
2
0
APPID
5
12
100
AcDbSymbolTableRecord
100
AcDbRegAppTableRecord
2
ACAD
70
0
0
ENDTAB
0
TABLE
2
DIMSTYLE
5
A
100
AcDbSymbolTable
70
1
0
ENDTAB
0
TABLE
2
BLOCK_RECORD
5
1
100
AcDbSymbolTable
70
1
0
BLOCK_RECORD
5
1F
100
AcDbSymbolTableRecord
100
AcDbBlockTableRecord
2
*MODEL_SPACE
0
BLOCK_RECORD
5
1B
100
AcDbSymbolTableRecord
100
AcDbBlockTableRecord
2
*PAPER_SPACE
0
ENDTAB
0
ENDSEC
0
SECTION
2
BLOCKS
0
BLOCK
5
20
100
AcDbEntity
100
AcDbBlockBegin
2
*MODEL_SPACE
0
ENDBLK
5
21
100
AcDbEntity
100
AcDbBlockEnd
0
BLOCK
5
1C
100
AcDbEntity
100
AcDbBlockBegin
2
*PAPER_SPACE
0
ENDBLK
5
1D
100
AcDbEntity
100
AcDbBlockEnd
0
ENDSEC
0
SECTION
2
ENTITIES
0
LWPOLYLINE
5
100
100
AcDbEntity
8
0
100
AcDbPolyline
90
8
70
1
43
0.0
10
-15.442939000000003
20
91.282741000000001
42
-0.41421356237309503
10
-12.442939000000003
20
88.282741000000001
10
-12.442938999999999
20
18.082840000000001
42
-0.41421356237309437
10
-15.442938999999996
20
15.082839999999999
10
-252.83023200000002
20
15.082840000000031
42
-0.41421356237309531
10
-255.830232
20
18.082840000000004
10
-255.83023200000002
20
88.282741000000001
42
-0.41421356237309503
10
-252.83023200000002
20
91.282741000000001
0
LWPOLYLINE
5
101
100
AcDbEntity
8
0
100
AcDbPolyline
90
8
70
1
43
0.0
10
-167.61400000000003
20
18.104700000000001
10
-167.61400000000003
20
31.104700000000001
42
0.41421356237309503
10
-168.11400000000003
20
31.604700000000001
10
-181.114
20
31.604700000000001
42
0.41421356237309503
10
-181.614
20
31.104700000000001
10
-181.614
20
18.104700000000001
42
0.41421356237309503
10
-181.114
20
17.604700000000001
10
-168.11400000000003
20
17.604700000000001
42
0.41421356237309503
0
LWPOLYLINE
5
102
100
AcDbEntity
8
0
100
AcDbPolyline
90
8
70
1
43
0.0
10
-186.6628
20
18.104700000000001
10
-186.6628
20
31.104700000000001
42
0.41421356237309503
10
-187.1628
20
31.604700000000001
10
-200.1628
20
31.604700000000001
42
0.41421356237309503
10
-200.66280000000003
20
31.104700000000001
10
-200.66280000000003
20
18.104700000000001
42
0.41421356237309503
10
-200.1628
20
17.604700000000001
10
-187.1628
20
17.604700000000001
42
0.41421356237309503
0
LWPOLYLINE
5
103
100
AcDbEntity
8
0
100
AcDbPolyline
90
8
70
1
43
0.0
10
-205.71160000000003
20
18.104700000000001
42
-0.41421356237309503
10
-206.21160000000003
20
17.604700000000001
10
-219.2116
20
17.604699999999994
42
-0.41421356237309503
10
-219.7116
20
18.104700000000001
10
-219.7116
20
31.104700000000001
42
-0.41421356237309503
10
-219.2116
20
31.604700000000001
10
-206.21160000000003
20
31.604700000000008
42
-0.41421356237309503
10
-205.71160000000003
20
31.104700000000001
0
LWPOLYLINE
5
104
100
AcDbEntity
8
0
100
AcDbPolyline
90
8
70
1
43
0.0
10
-191.92500000000001
20
50.653500000000015
42
-0.41421356237309503
10
-191.42500000000001
20
50.153500000000008
10
-191.42500000000001
20
37.153500000000001
42
-0.41421356237309503
10
-191.92500000000001
20
36.653500000000008
10
-204.92500000000004
20
36.653499999999994
42
-0.41421356237309503
10
-205.42500000000004
20
37.153500000000001
10
-205.42500000000004
20
50.153500000000008
42
-0.41421356237309503
10
-204.92500000000004
20
50.653500000000008
0
LWPOLYLINE
5
105
100
AcDbEntity
8
0
100
AcDbPolyline
90
8
70
1
43
0.0
10
-210.97380000000001
20
50.653500000000015
42
-0.41421356237309503
10
-210.47380000000001
20
50.153500000000008
10
-210.47380000000001
20
37.153500000000001
42
-0.41421356237309503
10
-210.97380000000001
20
36.653500000000008
10
-223.97380000000001
20
36.653499999999994
42
-0.41421356237309503
10
-224.47380000000004
20
37.153500000000001
10
-224.47380000000004
20
50.153500000000008
42
-0.41421356237309503
10
-223.97380000000001
20
50.653500000000008
0
LWPOLYLINE
5
106
100
AcDbEntity
8
0
100
AcDbPolyline
90
8
70
1
43
0.0
10
-225.87230721653324
20
31.604699999999738
42
-4.3948173301305147
10
-224.7599499999983
20
29.69890990742249
10
-224.75995
20
18.104700000000001
42
-0.41421356237309503
10
-225.25995
20
17.604700000000001
10
-254.23495000000003
20
17.604699999999994
42
-0.41421356237309503
10
-254.73495000000003
20
18.104700000000001
10
-254.73495000000003
20
31.104700000000001
42
-0.41421356237309503
10
-254.23495000000003
20
31.604700000000001
0
LWPOLYLINE
5
107
100
AcDbEntity
8
0
100
AcDbPolyline
90
8
70
1
43
0.0
10
-214.44940000000003
20
55.702300000000008
10
-201.44940000000003
20
55.702300000000008
42
0.41421356237309503
10
-200.94940000000003
20
56.202300000000001
10
-200.94940000000003
20
69.202300000000008
42
0.41421356237309503
10
-201.44940000000003
20
69.702299999999994
10
-214.44940000000003
20
69.702299999999994
42
0.41421356237309503
10
-214.9494
20
69.202300000000008
10
-214.94940000000003
20
56.202300000000001
42
0.41421356237309503
0
LWPOLYLINE
5
108
100
AcDbEntity
8
0
100
AcDbPolyline
90
8
70
1
43
0.0
10
-233.99820000000003
20
69.202300000000008
42
-0.41421356237309503
10
-233.4982
20
69.702299999999994
10
-220.4982
20
69.702300000000008
42
-0.41421356237309503
10
-219.9982
20
69.202300000000008
10
-219.9982
20
56.202300000000001
42
-0.41421356237309503
10
-220.4982
20
55.702300000000008
10
-233.4982
20
55.702299999999994
42
-0.41421356237309503
10
-233.99820000000003
20
56.202300000000001
0
LWPOLYLINE
5
109
100
AcDbEntity
8
0
100
AcDbPolyline
90
8
70
1
43
0.0
10
-195.4006
20
55.702299999999994
42
-0.41421356237309503
10
-195.9006
20
56.202300000000001
10
-195.9006
20
69.202300000000008
42
-0.41421356237309503
10
-195.4006
20
69.702299999999994
10
-182.4006
20
69.702300000000008
42
-0.41421356237309503
10
-181.9006
20
69.202300000000008
10
-181.9006
20
56.202300000000001
42
-0.41421356237309503
10
-182.4006
20
55.702300000000008
0
LWPOLYLINE
5
110
100
AcDbEntity
8
0
100
AcDbPolyline
90
8
70
1
43
0.0
10
-149.0652
20
31.604700000000001
10
-162.0652
20
31.604700000000001
42
0.41421356237309503
10
-162.5652
20
31.104700000000001
10
-162.5652
20
18.104700000000001
42
0.41421356237309503
10
-162.0652
20
17.604700000000001
10
-149.0652
20
17.604700000000001
42
0.41421356237309503
10
-148.5652
20
18.104700000000001
10
-148.5652
20
31.104700000000001
42
0.41421356237309503
0
LWPOLYLINE
5
111
100
AcDbEntity
8
0
100
AcDbPolyline
90
8
70
1
43
0.0
10
-215.73599999999999
20
88.751099999999994
10
-228.73599999999999
20
88.751099999999994
42
0.41421356237309503
10
-229.23599999999999
20
88.251100000000008
10
-229.23599999999999
20
75.251099999999994
42
0.41421356237309503
10
-228.73599999999999
20
74.751099999999994
10
-215.73599999999999
20
74.751099999999994
42
0.41421356237309503
10
-215.23600000000002
20
75.251099999999994
10
-215.23599999999999
20
88.251100000000008
42
0.41421356237309503
0
LWPOLYLINE
5
112
100
AcDbEntity
8
0
100
AcDbPolyline
90
8
70
1
43
0.0
10
-250.66590000000002
20
88.251100000000008
10
-250.66590000000002
20
75.251099999999994
42
0.41421356237309503
10
-250.16590000000002
20
74.751099999999994
10
-237.16589999999999
20
74.751099999999994
42
0.41421356237309503
10
-236.66589999999999
20
75.251099999999994
10
-236.66589999999999
20
88.251100000000008
42
0.41421356237309503
10
-237.16589999999999
20
88.751099999999994
10
-250.16590000000002
20
88.751100000000008
42
0.41421356237309503
0
LWPOLYLINE
5
113
100
AcDbEntity
8
0
100
AcDbPolyline
90
8
70
1
43
0.0
10
-194.30610000000001
20
88.751100000000008
42
-0.41421356237309503
10
-193.80610000000001
20
88.251100000000008
10
-193.80610000000001
20
75.251099999999994
42
-0.41421356237309503
10
-194.30610000000001
20
74.751099999999994
10
-207.30609999999999
20
74.751099999999994
42
-0.41421356237309503
10
-207.80609999999999
20
75.251099999999994
10
-207.80609999999999
20
88.251100000000008
42
-0.41421356237309503
10
-207.30609999999999
20
88.751100000000008
0
LWPOLYLINE
5
114
100
AcDbEntity
8
0
100
AcDbPolyline
90
8
70
1
43
0.0
10
-118.85599999999999
20
74.251100000000008
42
-0.41421356237309503
10
-119.35600000000001
20
73.751100000000008
10
-125.10599999999999
20
73.751099999999994
42
-0.41421356237309503
10
-125.60600000000001
20
74.251100000000008
10
-125.60600000000001
20
87.251099999999994
42
-0.41421356237309503
10
-125.10599999999999
20
87.751099999999994
10
-119.35600000000001
20
87.751099999999994
42
-0.41421356237309503
10
-118.85599999999999
20
87.251099999999994
0
LWPOLYLINE
5
115
100
AcDbEntity
8
0
100
AcDbPolyline
90
8
70
1
43
0.0
10
-119.7054
20
69.202300000000008
42
-0.41421356237309503
10
-119.20540000000001
20
69.702299999999994
10
-106.2054
20
69.702300000000008
42
-0.41421356237309503
10
-105.7054
20
69.202300000000008
10
-105.70540000000001
20
56.202300000000001
42
-0.41421356237309503
10
-106.2054
20
55.702300000000008
10
-119.20540000000001
20
55.702299999999994
42
-0.41421356237309503
10
-119.70540000000001
20
56.202300000000001
0
LWPOLYLINE
5
116
100
AcDbEntity
8
0
100
AcDbPolyline
90
8
70
1
43
0.0
10
-144.1524
20
73.751099999999994
42
-0.41421356237309503
10
-144.6524
20
74.251100000000008
10
-144.6524
20
87.251099999999994
42
-0.41421356237309503
10
-144.1524
20
87.751099999999994
10
-138.4024
20
87.751099999999994
42
-0.41421356237309503
10
-137.9024
20
87.251099999999994
10
-137.9024
20
74.251100000000008
42
-0.41421356237309503
10
-138.4024
20
73.751100000000008
0
LWPOLYLINE
5
117
100
AcDbEntity
8
0
100
AcDbPolyline
90
20
70
1
43
0.0
10
-120.62379517121019
20
31.604699999998704
42
-0.86737387350653794
10
-120.63220054854013
20
36.65350000000084
10
-128.72980000000001
20
36.653499999999994
42
-0.41421356237309503
10
-129.22980000000001
20
37.153500000000001
10
-129.22980000000001
20
50.153500000000008
42
-0.41421356237309503
10
-128.72980000000001
20
50.653500000000008
10
-115.72980000000001
20
50.653500000000015
42
-0.41421356237309503
10
-115.22980000000001
20
50.153500000000008
10
-115.22980000000001
20
37.153500000000001
42
-0.41421356237309503
10
-115.72980000000001
20
36.653500000000008
10
-119.9029994514501
20
36.653499999999426
42
-0.86737387350313411
10
-119.91140482878002
20
31.604700000000086
10
-110.96760000000002
20
31.604700000000008
42
-0.41421356237309503
10
-110.4676
20
31.104700000000001
10
-110.4676
20
18.104700000000001
42
-0.41421356237309503
10
-110.96760000000002
20
17.604700000000001
10
-123.9676
20
17.604699999999994
42
-0.41421356237309503
10
-124.4676
20
18.104700000000001
10
-124.4676
20
31.104700000000001
42
-0.41421356237309503
10
-123.9676
20
31.604700000000001
0
LWPOLYLINE
5
118
100
AcDbEntity
8
0
100
AcDbPolyline
90
10
70
1
43
0.0
10
-150.44257713723999
20
55.702299999999987
42
-14.079018076549922
10
-151.16342286276
20
55.70229999999998
10
-157.303
20
55.702299999999994
42
-0.41421356237309503
10
-157.803
20
56.202300000000001
10
-157.803
20
69.202300000000008
42
-0.41421356237309503
10
-157.303
20
69.702299999999994
10
-144.303
20
69.702300000000008
42
-0.41421356237309503
10
-143.803
20
69.202300000000008
10
-143.80300000000003
20
56.202300000000001
42
-0.41421356237309503
10
-144.303
20
55.702300000000008
0
LWPOLYLINE
5
119
100
AcDbEntity
8
0
100
AcDbPolyline
90
8
70
1
43
0.0
10
-138.75420000000003
20
69.202300000000008
42
-0.41421356237309503
10
-138.25420000000003
20
69.702299999999994
10
-125.2542
20
69.702300000000008
42
-0.41421356237309503
10
-124.7542
20
69.202300000000008
10
-124.7542
20
56.202300000000001
42
-0.41421356237309503
10
-125.2542
20
55.702300000000008
10
-138.25420000000003
20
55.702299999999994
42
-0.41421356237309503
10
-138.75420000000003
20
56.202300000000001
0
LWPOLYLINE
5
120
100
AcDbEntity
8
0
100
AcDbPolyline
90
8
70
1
43
0.0
10
-147.77860000000001
20
36.653499999999994
42
-0.41421356237309503
10
-148.27860000000004
20
37.153500000000001
10
-148.27860000000001
20
50.153500000000008
42
-0.41421356237309503
10
-147.77860000000001
20
50.653500000000008
10
-134.77860000000001
20
50.653500000000015
42
-0.41421356237309503
10
-134.27860000000001
20
50.153500000000008
10
-134.27860000000004
20
37.153500000000001
42
-0.41421356237309503
10
-134.77860000000001
20
36.653500000000008
0
LWPOLYLINE
5
121
100
AcDbEntity
8
0
100
AcDbPolyline
90
8
70
1
43
0.0
10
-163.35180000000003
20
69.702300000000008
42
-0.41421356237309503
10
-162.8518
20
69.202300000000008
10
-162.8518
20
56.202300000000001
42
-0.41421356237309503
10
-163.35180000000003
20
55.702300000000008
10
-176.35180000000003
20
55.702299999999994
42
-0.41421356237309503
10
-176.85180000000003
20
56.202300000000001
10
-176.85180000000003
20
69.202300000000008
42
-0.41421356237309503
10
-176.35180000000003
20
69.702299999999994
0
LWPOLYLINE
5
122
100
AcDbEntity
8
0
100
AcDbPolyline
90
8
70
1
43
0.0
10
-186.37620000000001
20
50.153500000000008
42
-0.41421356237309503
10
-185.87620000000001
20
50.653500000000008
10
-172.87620000000001
20
50.653500000000015
42
-0.41421356237309503
10
-172.37619999999998
20
50.153500000000008
10
-172.37619999999998
20
37.153500000000001
42
-0.41421356237309503
10
-172.87620000000001
20
36.653500000000008
10
-185.87620000000001
20
36.653499999999994
42
-0.41421356237309503
10
-186.37620000000001
20
37.153500000000001
0
LWPOLYLINE
5
123
100
AcDbEntity
8
0
100
AcDbPolyline
90
8
70
1
43
0.0
10
-153.32740000000001
20
37.153500000000001
10
-153.32740000000001
20
50.153500000000008
42
0.41421356237309503
10
-153.82740000000001
20
50.653500000000008
10
-166.82740000000001
20
50.653500000000008
42
0.41421356237309503
10
-167.32740000000004
20
50.153500000000008
10
-167.32740000000004
20
37.153500000000001
42
0.41421356237309503
10
-166.82740000000001
20
36.653500000000001
10
-153.82740000000001
20
36.653500000000008
42
0.41421356237309503
0
LWPOLYLINE
5
124
100
AcDbEntity
8
0
100
AcDbPolyline
90
8
70
1
43
0.0
10
-182.75239999999999
20
87.251099999999994
42
-0.41421356237309503
10
-182.25239999999999
20
87.751099999999994
10
-176.50239999999999
20
87.751099999999994
42
-0.41421356237309503
10
-176.00239999999999
20
87.251099999999994
10
-176.00239999999999
20
74.251100000000008
42
-0.41421356237309503
10
-176.50239999999999
20
73.751100000000008
10
-182.25239999999999
20
73.751099999999994
42
-0.41421356237309503
10
-182.75239999999999
20
74.251100000000008
0
LWPOLYLINE
5
125
100
AcDbEntity
8
0
100
AcDbPolyline
90
8
70
1
43
0.0
10
-153.32740000000001
20
75.251099999999994
42
-0.41421356237309503
10
-153.82740000000001
20
74.751099999999994
10
-166.82740000000001
20
74.751099999999994
42
-0.41421356237309503
10
-167.32740000000004
20
75.251099999999994
10
-167.32740000000004
20
88.251100000000008
42
-0.41421356237309503
10
-166.82740000000001
20
88.751100000000008
10
-153.82740000000001
20
88.751100000000008
42
-0.41421356237309503
10
-153.32740000000001
20
88.251100000000008
0
LWPOLYLINE
5
126
100
AcDbEntity
8
0
100
AcDbPolyline
90
8
70
1
43
0.0
10
-129.5164
20
18.104700000000001
10
-129.5164
20
31.104700000000001
42
0.41421356237309503
10
-130.01640000000003
20
31.604700000000001
10
-143.0164
20
31.604700000000001
42
0.41421356237309503
10
-143.5164
20
31.104700000000001
10
-143.5164
20
18.104700000000001
42
0.41421356237309503
10
-143.0164
20
17.604700000000001
10
-130.01640000000003
20
17.604700000000001
42
0.41421356237309503
0
LWPOLYLINE
5
127
100
AcDbEntity
8
0
100
AcDbPolyline
90
8
70
1
43
0.0
10
-71.583399999999997
20
36.653500000000001
10
-58.583399999999997
20
36.653500000000001
42
0.41421356237309503
10
-58.083400000000005
20
37.153500000000001
10
-58.083400000000005
20
50.153500000000008
42
0.41421356237309503
10
-58.583399999999997
20
50.653500000000008
10
-71.583399999999997
20
50.653500000000008
42
0.41421356237309503
10
-72.083399999999997
20
50.153500000000008
10
-72.083399999999997
20
37.153500000000001
42
0.41421356237309503
0
LWPOLYLINE
5
128
100
AcDbEntity
8
0
100
AcDbPolyline
90
8
70
1
43
0.0
10
-91.132199999999983
20
50.153500000000008
42
-0.41421356237309503
10
-90.632199999999997
20
50.653500000000008
10
-77.632200000000012
20
50.653500000000008
42
-0.41421356237309503
10
-77.132200000000012
20
50.153500000000008
10
-77.132200000000012
20
37.153500000000001
42
-0.41421356237309503
10
-77.632200000000012
20
36.653500000000008
10
-90.632199999999997
20
36.653499999999994
42
-0.41421356237309503
10
-91.132199999999997
20
37.153500000000001
0
LWPOLYLINE
5
129
100
AcDbEntity
8
0
100
AcDbPolyline
90
8
70
1
43
0.0
10
-110.18100000000001
20
50.153500000000008
42
-0.41421356237309503
10
-109.681
20
50.653500000000008
10
-96.681000000000012
20
50.653500000000015
42
-0.41421356237309503
10
-96.180999999999997
20
50.153500000000008
10
-96.181000000000012
20
37.153500000000001
42
-0.41421356237309503
10
-96.681000000000012
20
36.653500000000008
10
-109.681
20
36.653499999999994
42
-0.41421356237309503
10
-110.18100000000001
20
37.153500000000001
0
LWPOLYLINE
5
130
100
AcDbEntity
8
0
100
AcDbPolyline
90
10
70
1
43
0.0
10
-87.506000000003823
20
78.773147149683268
42
-2.7018957917944997
10
-87.505999999998863
20
82.093452850310982
10
-87.506
20
87.251099999999994
42
-0.41421356237309503
10
-87.006
20
87.751099999999994
10
-81.256
20
87.751099999999994
42
-0.41421356237309503
10
-80.756
20
87.251099999999994
10
-80.756000000000014
20
74.251100000000008
42
-0.41421356237309503
10
-81.256
20
73.751100000000008
10
-87.006
20
73.751099999999994
42
-0.41421356237309503
10
-87.506
20
74.251100000000008
0
LWPOLYLINE
5
131
100
AcDbEntity
8
0
100
AcDbPolyline
90
8
70
1
43
0.0
10
-96.681000000000012
20
88.751099999999994
10
-109.681
20
88.751099999999994
42
0.41421356237309503
10
-110.18100000000001
20
88.251100000000008
10
-110.18100000000001
20
75.251099999999994
42
0.41421356237309503
10
-109.681
20
74.751099999999994
10
-96.681000000000012
20
74.751099999999994
42
0.41421356237309503
10
-96.180999999999997
20
75.251099999999994
10
-96.180999999999997
20
88.251100000000008
42
0.41421356237309503
0
LWPOLYLINE
5
132
100
AcDbEntity
8
0
100
AcDbPolyline
90
8
70
1
43
0.0
10
-68.107799999999997
20
69.702299999999994
42
-0.41421356237309503
10
-67.607799999999997
20
69.202300000000008
10
-67.607799999999997
20
56.202300000000001
42
-0.41421356237309503
10
-68.107799999999997
20
55.702300000000008
10
-81.107799999999997
20
55.702299999999994
42
-0.41421356237309503
10
-81.607800000000012
20
56.202300000000001
10
-81.607799999999997
20
69.202300000000008
42
-0.41421356237309503
10
-81.107799999999997
20
69.702299999999994
0
LWPOLYLINE
5
133
100
AcDbEntity
8
0
100
AcDbPolyline
90
8
70
1
43
0.0
10
-87.156599999999997
20
69.702300000000008
42
-0.41421356237309503
10
-86.656599999999997
20
69.202300000000008
10
-86.656599999999997
20
56.202300000000001
42
-0.41421356237309503
10
-87.156599999999997
20
55.702300000000008
10
-100.1566
20
55.702299999999994
42
-0.41421356237309503
10
-100.65660000000001
20
56.202300000000001
10
-100.65660000000001
20
69.202300000000008
42
-0.41421356237309503
10
-100.1566
20
69.702299999999994
0
LWPOLYLINE
5
134
100
AcDbEntity
8
0
100
AcDbPolyline
90
8
70
1
43
0.0
10
-85.870000000000019
20
17.604699999999994
42
-0.41421356237309503
10
-86.370000000000019
20
18.104700000000001
10
-86.370000000000005
20
31.104700000000001
42
-0.41421356237309503
10
-85.870000000000019
20
31.604700000000001
10
-72.870000000000005
20
31.604700000000001
42
-0.41421356237309503
10
-72.370000000000005
20
31.104700000000001
10
-72.370000000000005
20
18.104700000000001
42
-0.41421356237309503
10
-72.870000000000005
20
17.604700000000001
0
LWPOLYLINE
5
135
100
AcDbEntity
8
0
100
AcDbPolyline
90
8
70
1
43
0.0
10
-91.418800000000005
20
18.104700000000001
42
-0.41421356237309503
10
-91.918800000000005
20
17.604700000000001
10
-104.91880000000002
20
17.604699999999994
42
-0.41421356237309503
10
-105.41880000000003
20
18.104700000000001
10
-105.41880000000003
20
31.104700000000001
42
-0.41421356237309503
10
-104.91880000000002
20
31.604700000000001
10
-91.918800000000005
20
31.604700000000008
42
-0.41421356237309503
10
-91.418800000000005
20
31.104700000000001
0
LWPOLYLINE
5
136
100
AcDbEntity
8
0
100
AcDbPolyline
90
8
70
1
43
0.0
10
-15.223600000000001
20
75.251099999999994
42
-0.41421356237309503
10
-15.723599999999999
20
74.751099999999994
10
-28.723600000000005
20
74.751099999999994
42
-0.41421356237309503
10
-29.223600000000005
20
75.251099999999994
10
-29.223600000000012
20
88.251100000000008
42
-0.41421356237309503
10
-28.723600000000005
20
88.751100000000008
10
-15.723599999999999
20
88.751100000000008
42
-0.41421356237309503
10
-15.223599999999999
20
88.251100000000008
0
LWPOLYLINE
5
137
100
AcDbEntity
8
0
100
AcDbPolyline
90
8
70
1
43
0.0
10
-35.866900000000001
20
55.702300000000008
42
-0.41421356237309503
10
-36.366900000000001
20
56.202300000000001
10
-36.366900000000001
20
69.202300000000008
42
-0.41421356237309503
10
-35.866900000000001
20
69.702299999999994
10
-22.866900000000001
20
69.702299999999994
42
-0.41421356237309503
10
-22.366900000000001
20
69.202300000000008
10
-22.366900000000001
20
56.202300000000001
42
-0.41421356237309503
10
-22.866900000000001
20
55.702300000000008
0
LWPOLYLINE
5
138
100
AcDbEntity
8
0
100
AcDbPolyline
90
8
70
1
43
0.0
10
-62.558999999999997
20
69.202300000000008
42
-0.41421356237309503
10
-62.058999999999997
20
69.702299999999994
10
-49.058999999999997
20
69.702299999999994
42
-0.41421356237309503
10
-48.558999999999997
20
69.202300000000008
10
-48.558999999999997
20
56.202300000000001
42
-0.41421356237309503
10
-49.058999999999997
20
55.702300000000008
10
-62.058999999999997
20
55.702300000000008
42
-0.41421356237309503
10
-62.558999999999997
20
56.202300000000001
0
LWPOLYLINE
5
139
100
AcDbEntity
8
0
100
AcDbPolyline
90
8
70
1
43
0.0
10
-58.583399999999997
20
88.751099999999994
42
-0.41421356237309503
10
-58.083400000000005
20
88.251100000000008
10
-58.083400000000005
20
75.251099999999994
42
-0.41421356237309503
10
-58.583399999999997
20
74.751099999999994
10
-71.583399999999997
20
74.751099999999994
42
-0.41421356237309503
10
-72.083399999999997
20
75.251099999999994
10
-72.083400000000012
20
88.251100000000008
42
-0.41421356237309503
10
-71.583399999999997
20
88.751100000000008
0
LWPOLYLINE
5
140
100
AcDbEntity
8
0
100
AcDbPolyline
90
8
70
1
43
0.0
10
-36.653500000000001
20
75.251099999999994
10
-36.653500000000001
20
88.251100000000008
42
0.41421356237309503
10
-37.153500000000001
20
88.751099999999994
10
-50.153500000000008
20
88.751100000000008
42
0.41421356237309503
10
-50.653500000000008
20
88.251100000000008
10
-50.653500000000008
20
75.251099999999994
42
0.41421356237309503
10
-50.153500000000008
20
74.751099999999994
10
-37.153500000000001
20
74.751099999999994
42
0.41421356237309503
0
LWPOLYLINE
5
141
100
AcDbEntity
8
0
100
AcDbPolyline
90
20
70
1
43
0.0
10
-44.432200548546
20
31.604700000000015
42
-0.86737387350398565
10
-44.423795171219005
20
36.653500000000058
10
-52.534600000000005
20
36.653500000000008
42
-0.41421356237309503
10
-53.034600000000005
20
37.153500000000001
10
-53.034600000000005
20
50.153500000000008
42
-0.41421356237309503
10
-52.534600000000005
20
50.653500000000008
10
-39.534599999999998
20
50.653500000000008
42
-0.41421356237309503
10
-39.034599999999998
20
50.153500000000008
10
-39.034599999999998
20
37.153500000000001
42
-0.41421356237309503
10
-39.534599999999998
20
36.653500000000008
10
-43.711404828780985
20
36.653500000000058
42
-0.86737387350398421
10
-43.702999451454005
20
31.604700000000015
10
-34.772400000000005
20
31.604700000000001
42
-0.41421356237309503
10
-34.272400000000005
20
31.104700000000001
10
-34.272400000000005
20
18.104700000000001
42
-0.41421356237309503
10
-34.772400000000005
20
17.604700000000001
10
-47.772399999999998
20
17.604700000000005
42
-0.41421356237309503
10
-48.272399999999998
20
18.104700000000001
10
-48.272399999999998
20
31.104700000000001
42
-0.41421356237309503
10
-47.772399999999998
20
31.604700000000001
0
LWPOLYLINE
5
142
100
AcDbEntity
8
0
100
AcDbPolyline
90
8
70
1
43
0.0
10
-31.604700000000001
20
50.153500000000008
10
-31.604700000000001
20
37.153500000000001
42
0.41421356237309503
10
-31.104700000000001
20
36.653500000000001
10
-18.104700000000001
20
36.653500000000008
42
0.41421356237309503
10
-17.604700000000001
20
37.153500000000001
10
-17.604700000000001
20
50.153500000000008
42
0.41421356237309503
10
-18.104700000000001
20
50.653500000000008
10
-31.104700000000001
20
50.653500000000008
42
0.41421356237309503
0
LWPOLYLINE
5
143
100
AcDbEntity
8
0
100
AcDbPolyline
90
8
70
1
43
0.0
10
-29.223600000000005
20
31.104700000000001
42
-0.41421356237309503
10
-28.723600000000005
20
31.604700000000001
10
-15.723599999999999
20
31.604700000000001
42
-0.41421356237309503
10
-15.223599999999999
20
31.104700000000001
10
-15.223599999999999
20
18.104700000000001
42
-0.41421356237309503
10
-15.723599999999999
20
17.604700000000001
10
-28.723600000000005
20
17.604700000000005
42
-0.41421356237309503
10
-29.223600000000005
20
18.104700000000001
0
LWPOLYLINE
5
144
100
AcDbEntity
8
0
100
AcDbPolyline
90
8
70
1
43
0.0
10
-53.321200000000005
20
18.104700000000001
42
-0.41421356237309503
10
-53.821200000000005
20
17.604700000000001
10
-66.821200000000005
20
17.604700000000005
42
-0.41421356237309503
10
-67.321200000000005
20
18.104700000000001
10
-67.321200000000005
20
31.104700000000001
42
-0.41421356237309503
10
-66.821200000000005
20
31.604700000000001
10
-53.821200000000005
20
31.604700000000001
42
-0.41421356237309503
10
-53.321200000000005
20
31.104700000000001
0
LWPOLYLINE
5
145
100
AcDbEntity
8
0
100
AcDbPolyline
90
8
70
1
43
0.0
10
-253.047
20
69.202300000000008
42
-0.41421356237309503
10
-252.547
20
69.702299999999994
10
-239.54700000000003
20
69.702300000000008
42
-0.41421356237309503
10
-239.04700000000003
20
69.202300000000008
10
-239.04700000000003
20
56.202300000000001
42
-0.41421356237309503
10
-239.54700000000003
20
55.702300000000008
10
-252.547
20
55.702299999999994
42
-0.41421356237309503
10
-253.047
20
56.202300000000001
0
LWPOLYLINE
5
146
100
AcDbEntity
8
0
100
AcDbPolyline
90
8
70
1
43
0.0
10
-234.78480000000002
20
50.653500000000015
42
-0.41421356237309503
10
-234.28480000000002
20
50.153500000000008
10
-234.28480000000002
20
37.153500000000001
42
-0.41421356237309503
10
-234.78480000000002
20
36.653500000000008
10
-247.78480000000002
20
36.653499999999994
42
-0.41421356237309503
10
-248.28480000000002
20
37.153500000000001
10
-248.28480000000002
20
50.153500000000008
42
-0.41421356237309503
10
-247.78480000000002
20
50.653500000000008
0
CIRCLE
5
147
100
AcDbEntity
8
0
100
AcDbCircle
10
-42.54046000000001
20
68.883920000000003
30
0
40
2.5499999999999998
210
0
220
0
230
1
0
ENDSEC
0
SECTION
2
OBJECTS
0
DICTIONARY
5
C
100
AcDbDictionary
3
ACAD_GROUP
350
D
3
ACAD_MLINESTYLE
350
17
0
DICTIONARY
5
D
100
AcDbDictionary
0
DICTIONARY
5
1A
330
C
100
AcDbDictionary
0
DICTIONARY
5
17
100
AcDbDictionary
0
ENDSEC
0
EOF
