G04 #@! TF.GenerationSoftware,KiCad,Pcbnew,(5.1.4)-1*
G04 #@! TF.CreationDate,2020-10-31T18:50:56-05:00*
G04 #@! TF.ProjectId,m3n3van,6d336e33-7661-46e2-9e6b-696361645f70,rev?*
G04 #@! TF.SameCoordinates,Original*
G04 #@! TF.FileFunction,Soldermask,Bot*
G04 #@! TF.FilePolarity,Negative*
%FSLAX46Y46*%
G04 Gerber Fmt 4.6, Leading zero omitted, Abs format (unit mm)*
G04 Created by KiCad (PCBNEW (5.1.4)-1) date 2020-10-31 18:50:56*
%MOMM*%
%LPD*%
G04 APERTURE LIST*
%ADD10C,0.010000*%
%ADD11C,0.400000*%
%ADD12C,0.100000*%
%ADD13C,2.250000*%
%ADD14C,3.987800*%
%ADD15C,1.750000*%
%ADD16R,1.000000X0.900000*%
%ADD17C,4.400000*%
%ADD18O,1.000000X1.600000*%
%ADD19O,1.000000X2.100000*%
%ADD20C,0.650000*%
%ADD21R,0.300000X1.450000*%
%ADD22R,0.600000X1.450000*%
%ADD23C,0.550000*%
%ADD24R,0.700000X1.000000*%
%ADD25R,0.700000X0.600000*%
%ADD26C,0.975000*%
%ADD27C,1.250000*%
%ADD28C,2.000000*%
%ADD29R,2.000000X3.200000*%
%ADD30R,2.000000X2.000000*%
%ADD31R,1.200000X0.900000*%
%ADD32C,3.048000*%
G04 APERTURE END LIST*
D10*
G36*
X342800570Y-239428764D02*
G01*
X343671950Y-239334552D01*
X344318979Y-239155883D01*
X344790447Y-238875046D01*
X345135142Y-238474331D01*
X345321436Y-238125614D01*
X345560638Y-237503168D01*
X345614370Y-236998828D01*
X345482633Y-236463037D01*
X345321436Y-236079360D01*
X345034921Y-235587330D01*
X344654698Y-235227183D01*
X344131980Y-234981207D01*
X343417977Y-234831690D01*
X342463900Y-234760921D01*
X341656051Y-234748741D01*
X340744021Y-234759128D01*
X340080033Y-234796425D01*
X339586974Y-234869840D01*
X339187726Y-234988581D01*
X339004719Y-235065308D01*
X338456002Y-235400115D01*
X338091822Y-235874062D01*
X337990667Y-236079360D01*
X337798221Y-236570903D01*
X337685940Y-236988320D01*
X337674101Y-237102487D01*
X337739748Y-237445089D01*
X337905041Y-237924776D01*
X337990667Y-238125614D01*
X338277182Y-238617644D01*
X338657405Y-238977791D01*
X339180123Y-239223768D01*
X339894126Y-239373284D01*
X340848203Y-239444053D01*
X341656051Y-239456233D01*
X342800570Y-239428764D01*
X342800570Y-239428764D01*
G37*
X342800570Y-239428764D02*
X343671950Y-239334552D01*
X344318979Y-239155883D01*
X344790447Y-238875046D01*
X345135142Y-238474331D01*
X345321436Y-238125614D01*
X345560638Y-237503168D01*
X345614370Y-236998828D01*
X345482633Y-236463037D01*
X345321436Y-236079360D01*
X345034921Y-235587330D01*
X344654698Y-235227183D01*
X344131980Y-234981207D01*
X343417977Y-234831690D01*
X342463900Y-234760921D01*
X341656051Y-234748741D01*
X340744021Y-234759128D01*
X340080033Y-234796425D01*
X339586974Y-234869840D01*
X339187726Y-234988581D01*
X339004719Y-235065308D01*
X338456002Y-235400115D01*
X338091822Y-235874062D01*
X337990667Y-236079360D01*
X337798221Y-236570903D01*
X337685940Y-236988320D01*
X337674101Y-237102487D01*
X337739748Y-237445089D01*
X337905041Y-237924776D01*
X337990667Y-238125614D01*
X338277182Y-238617644D01*
X338657405Y-238977791D01*
X339180123Y-239223768D01*
X339894126Y-239373284D01*
X340848203Y-239444053D01*
X341656051Y-239456233D01*
X342800570Y-239428764D01*
G36*
X278323647Y-239428764D02*
G01*
X279195027Y-239334552D01*
X279842056Y-239155883D01*
X280313524Y-238875046D01*
X280658219Y-238474331D01*
X280844513Y-238125614D01*
X281083715Y-237503168D01*
X281137447Y-236998828D01*
X281005710Y-236463037D01*
X280844513Y-236079360D01*
X280557997Y-235587330D01*
X280177775Y-235227183D01*
X279655057Y-234981207D01*
X278941054Y-234831690D01*
X277986977Y-234760921D01*
X277179128Y-234748741D01*
X276267097Y-234759128D01*
X275603110Y-234796425D01*
X275110051Y-234869840D01*
X274710803Y-234988581D01*
X274527796Y-235065308D01*
X273979078Y-235400115D01*
X273614899Y-235874062D01*
X273513744Y-236079360D01*
X273321298Y-236570903D01*
X273209017Y-236988320D01*
X273197177Y-237102487D01*
X273262825Y-237445089D01*
X273428118Y-237924776D01*
X273513744Y-238125614D01*
X273800259Y-238617644D01*
X274180481Y-238977791D01*
X274703200Y-239223768D01*
X275417203Y-239373284D01*
X276371280Y-239444053D01*
X277179128Y-239456233D01*
X278323647Y-239428764D01*
X278323647Y-239428764D01*
G37*
X278323647Y-239428764D02*
X279195027Y-239334552D01*
X279842056Y-239155883D01*
X280313524Y-238875046D01*
X280658219Y-238474331D01*
X280844513Y-238125614D01*
X281083715Y-237503168D01*
X281137447Y-236998828D01*
X281005710Y-236463037D01*
X280844513Y-236079360D01*
X280557997Y-235587330D01*
X280177775Y-235227183D01*
X279655057Y-234981207D01*
X278941054Y-234831690D01*
X277986977Y-234760921D01*
X277179128Y-234748741D01*
X276267097Y-234759128D01*
X275603110Y-234796425D01*
X275110051Y-234869840D01*
X274710803Y-234988581D01*
X274527796Y-235065308D01*
X273979078Y-235400115D01*
X273614899Y-235874062D01*
X273513744Y-236079360D01*
X273321298Y-236570903D01*
X273209017Y-236988320D01*
X273197177Y-237102487D01*
X273262825Y-237445089D01*
X273428118Y-237924776D01*
X273513744Y-238125614D01*
X273800259Y-238617644D01*
X274180481Y-238977791D01*
X274703200Y-239223768D01*
X275417203Y-239373284D01*
X276371280Y-239444053D01*
X277179128Y-239456233D01*
X278323647Y-239428764D01*
G36*
X344215303Y-226810512D02*
G01*
X344443011Y-226774394D01*
X345823720Y-226428008D01*
X346935244Y-225907167D01*
X347787199Y-225205670D01*
X348389205Y-224317320D01*
X348446931Y-224193790D01*
X348648296Y-223590273D01*
X348791760Y-222864670D01*
X348867744Y-222120076D01*
X348866665Y-221459588D01*
X348778944Y-220986302D01*
X348750763Y-220924304D01*
X348628898Y-220745504D01*
X348449907Y-220642173D01*
X348137555Y-220598470D01*
X347615608Y-220598551D01*
X347240642Y-220610474D01*
X346578626Y-220637059D01*
X346154830Y-220699352D01*
X345884941Y-220858065D01*
X345684649Y-221173906D01*
X345469639Y-221707588D01*
X345377103Y-221952344D01*
X344995456Y-222657759D01*
X344457428Y-223116277D01*
X343718210Y-223356081D01*
X343061369Y-223408845D01*
X342103080Y-223297887D01*
X341350875Y-222935435D01*
X340802668Y-222320410D01*
X340738248Y-222206951D01*
X340628389Y-221964846D01*
X340548275Y-221675548D01*
X340493401Y-221286325D01*
X340459259Y-220744447D01*
X340441343Y-219997181D01*
X340435146Y-218991797D01*
X340434898Y-218657519D01*
X340440569Y-217452683D01*
X340467380Y-216527378D01*
X340530029Y-215835557D01*
X340643212Y-215331173D01*
X340821629Y-214968179D01*
X341079975Y-214700529D01*
X341432949Y-214482175D01*
X341826619Y-214297283D01*
X342537974Y-213950184D01*
X342991927Y-213617736D01*
X343243912Y-213224159D01*
X343349358Y-212693671D01*
X343365667Y-212193259D01*
X343357545Y-211619789D01*
X343304575Y-211271513D01*
X343163846Y-211047992D01*
X342892450Y-210848785D01*
X342755090Y-210764042D01*
X342245365Y-210464321D01*
X341758130Y-210195770D01*
X341671871Y-210151155D01*
X341262769Y-209913371D01*
X340961294Y-209640423D01*
X340749824Y-209279704D01*
X340610739Y-208778606D01*
X340526419Y-208084521D01*
X340479243Y-207144840D01*
X340463584Y-206543671D01*
X340449884Y-205430316D01*
X340471243Y-204590814D01*
X340539524Y-203974208D01*
X340666591Y-203529536D01*
X340864308Y-203205840D01*
X341144537Y-202952159D01*
X341328081Y-202830209D01*
X341929332Y-202600386D01*
X342702529Y-202494855D01*
X343518474Y-202513991D01*
X344247969Y-202658168D01*
X344617134Y-202820665D01*
X345075556Y-203168726D01*
X345360424Y-203595070D01*
X345542984Y-204213677D01*
X345568240Y-204342269D01*
X345694341Y-204773973D01*
X345924509Y-205051523D01*
X346332807Y-205227786D01*
X346986338Y-205354592D01*
X347786990Y-205401680D01*
X348354113Y-205251130D01*
X348707598Y-204880887D01*
X348867337Y-204268895D01*
X348853222Y-203393102D01*
X348843567Y-203295433D01*
X348587766Y-202056204D01*
X348099566Y-201042707D01*
X347372932Y-200246576D01*
X346401827Y-199659445D01*
X346143633Y-199553231D01*
X345431326Y-199361572D01*
X344501182Y-199223358D01*
X343457348Y-199143374D01*
X342403973Y-199126403D01*
X341445204Y-199177230D01*
X340685188Y-199300639D01*
X340679128Y-199302208D01*
X339749247Y-199605904D01*
X339025934Y-200004306D01*
X338391223Y-200565292D01*
X338285736Y-200679399D01*
X337908725Y-201141872D01*
X337619156Y-201623518D01*
X337406123Y-202174851D01*
X337258722Y-202846387D01*
X337166048Y-203688639D01*
X337117193Y-204752122D01*
X337101254Y-206087351D01*
X337101120Y-206166590D01*
X337106684Y-207183206D01*
X337124602Y-208128107D01*
X337152675Y-208937025D01*
X337188699Y-209545691D01*
X337228314Y-209880049D01*
X337436248Y-210407427D01*
X337797481Y-210953873D01*
X337920301Y-211094419D01*
X338301684Y-211588717D01*
X338455554Y-212069613D01*
X338380522Y-212607462D01*
X338075200Y-213272620D01*
X337870474Y-213619008D01*
X337259898Y-214607688D01*
X337208996Y-218736358D01*
X337196188Y-220228679D01*
X337203205Y-221436909D01*
X337237252Y-222402350D01*
X337305533Y-223166308D01*
X337415252Y-223770088D01*
X337573613Y-224254993D01*
X337787821Y-224662327D01*
X338065080Y-225033396D01*
X338364272Y-225359984D01*
X339199603Y-226005402D01*
X340263358Y-226487354D01*
X341494550Y-226791650D01*
X342832194Y-226904100D01*
X344215303Y-226810512D01*
X344215303Y-226810512D01*
G37*
X344215303Y-226810512D02*
X344443011Y-226774394D01*
X345823720Y-226428008D01*
X346935244Y-225907167D01*
X347787199Y-225205670D01*
X348389205Y-224317320D01*
X348446931Y-224193790D01*
X348648296Y-223590273D01*
X348791760Y-222864670D01*
X348867744Y-222120076D01*
X348866665Y-221459588D01*
X348778944Y-220986302D01*
X348750763Y-220924304D01*
X348628898Y-220745504D01*
X348449907Y-220642173D01*
X348137555Y-220598470D01*
X347615608Y-220598551D01*
X347240642Y-220610474D01*
X346578626Y-220637059D01*
X346154830Y-220699352D01*
X345884941Y-220858065D01*
X345684649Y-221173906D01*
X345469639Y-221707588D01*
X345377103Y-221952344D01*
X344995456Y-222657759D01*
X344457428Y-223116277D01*
X343718210Y-223356081D01*
X343061369Y-223408845D01*
X342103080Y-223297887D01*
X341350875Y-222935435D01*
X340802668Y-222320410D01*
X340738248Y-222206951D01*
X340628389Y-221964846D01*
X340548275Y-221675548D01*
X340493401Y-221286325D01*
X340459259Y-220744447D01*
X340441343Y-219997181D01*
X340435146Y-218991797D01*
X340434898Y-218657519D01*
X340440569Y-217452683D01*
X340467380Y-216527378D01*
X340530029Y-215835557D01*
X340643212Y-215331173D01*
X340821629Y-214968179D01*
X341079975Y-214700529D01*
X341432949Y-214482175D01*
X341826619Y-214297283D01*
X342537974Y-213950184D01*
X342991927Y-213617736D01*
X343243912Y-213224159D01*
X343349358Y-212693671D01*
X343365667Y-212193259D01*
X343357545Y-211619789D01*
X343304575Y-211271513D01*
X343163846Y-211047992D01*
X342892450Y-210848785D01*
X342755090Y-210764042D01*
X342245365Y-210464321D01*
X341758130Y-210195770D01*
X341671871Y-210151155D01*
X341262769Y-209913371D01*
X340961294Y-209640423D01*
X340749824Y-209279704D01*
X340610739Y-208778606D01*
X340526419Y-208084521D01*
X340479243Y-207144840D01*
X340463584Y-206543671D01*
X340449884Y-205430316D01*
X340471243Y-204590814D01*
X340539524Y-203974208D01*
X340666591Y-203529536D01*
X340864308Y-203205840D01*
X341144537Y-202952159D01*
X341328081Y-202830209D01*
X341929332Y-202600386D01*
X342702529Y-202494855D01*
X343518474Y-202513991D01*
X344247969Y-202658168D01*
X344617134Y-202820665D01*
X345075556Y-203168726D01*
X345360424Y-203595070D01*
X345542984Y-204213677D01*
X345568240Y-204342269D01*
X345694341Y-204773973D01*
X345924509Y-205051523D01*
X346332807Y-205227786D01*
X346986338Y-205354592D01*
X347786990Y-205401680D01*
X348354113Y-205251130D01*
X348707598Y-204880887D01*
X348867337Y-204268895D01*
X348853222Y-203393102D01*
X348843567Y-203295433D01*
X348587766Y-202056204D01*
X348099566Y-201042707D01*
X347372932Y-200246576D01*
X346401827Y-199659445D01*
X346143633Y-199553231D01*
X345431326Y-199361572D01*
X344501182Y-199223358D01*
X343457348Y-199143374D01*
X342403973Y-199126403D01*
X341445204Y-199177230D01*
X340685188Y-199300639D01*
X340679128Y-199302208D01*
X339749247Y-199605904D01*
X339025934Y-200004306D01*
X338391223Y-200565292D01*
X338285736Y-200679399D01*
X337908725Y-201141872D01*
X337619156Y-201623518D01*
X337406123Y-202174851D01*
X337258722Y-202846387D01*
X337166048Y-203688639D01*
X337117193Y-204752122D01*
X337101254Y-206087351D01*
X337101120Y-206166590D01*
X337106684Y-207183206D01*
X337124602Y-208128107D01*
X337152675Y-208937025D01*
X337188699Y-209545691D01*
X337228314Y-209880049D01*
X337436248Y-210407427D01*
X337797481Y-210953873D01*
X337920301Y-211094419D01*
X338301684Y-211588717D01*
X338455554Y-212069613D01*
X338380522Y-212607462D01*
X338075200Y-213272620D01*
X337870474Y-213619008D01*
X337259898Y-214607688D01*
X337208996Y-218736358D01*
X337196188Y-220228679D01*
X337203205Y-221436909D01*
X337237252Y-222402350D01*
X337305533Y-223166308D01*
X337415252Y-223770088D01*
X337573613Y-224254993D01*
X337787821Y-224662327D01*
X338065080Y-225033396D01*
X338364272Y-225359984D01*
X339199603Y-226005402D01*
X340263358Y-226487354D01*
X341494550Y-226791650D01*
X342832194Y-226904100D01*
X344215303Y-226810512D01*
G36*
X310898959Y-226770130D02*
G01*
X311827680Y-226628714D01*
X312134016Y-226550053D01*
X313186602Y-226098538D01*
X314089322Y-225444497D01*
X314766013Y-224645634D01*
X314862346Y-224482964D01*
X315095367Y-223966264D01*
X315239363Y-223374991D01*
X315320105Y-222595318D01*
X315330492Y-222415151D01*
X315356868Y-221621449D01*
X315304686Y-221096542D01*
X315126026Y-220785028D01*
X314772970Y-220631505D01*
X314197597Y-220580571D01*
X313739910Y-220576205D01*
X313035193Y-220595443D01*
X312582165Y-220688439D01*
X312307543Y-220908117D01*
X312138043Y-221307401D01*
X312024290Y-221815181D01*
X311750022Y-222443145D01*
X311243551Y-222931100D01*
X310573938Y-223262654D01*
X309810244Y-223421418D01*
X309021530Y-223391002D01*
X308276857Y-223155017D01*
X307777168Y-222823124D01*
X307462267Y-222482883D01*
X307226278Y-222059376D01*
X307061064Y-221507896D01*
X306958490Y-220783737D01*
X306910420Y-219842192D01*
X306908718Y-218638557D01*
X306918502Y-218104722D01*
X306951525Y-217005563D01*
X307009509Y-216178465D01*
X307114439Y-215569866D01*
X307288299Y-215126199D01*
X307553072Y-214793899D01*
X307930743Y-214519403D01*
X308443296Y-214249145D01*
X308515189Y-214214320D01*
X309230524Y-213815963D01*
X309679077Y-213408059D01*
X309913629Y-212918440D01*
X309986963Y-212274939D01*
X309987462Y-212201293D01*
X309937254Y-211613021D01*
X309749703Y-211169886D01*
X309369414Y-210797900D01*
X308740996Y-210423074D01*
X308603487Y-210352733D01*
X307762691Y-209789397D01*
X307219894Y-209096368D01*
X307052804Y-208676750D01*
X306964881Y-208173890D01*
X306911289Y-207459410D01*
X306890697Y-206620555D01*
X306901778Y-205744572D01*
X306943200Y-204918707D01*
X307013634Y-204230207D01*
X307111751Y-203766316D01*
X307128305Y-203722618D01*
X307539147Y-203106352D01*
X308172796Y-202708280D01*
X309043183Y-202521162D01*
X309474393Y-202503737D01*
X310481579Y-202603773D01*
X311262580Y-202896465D01*
X311798881Y-203368717D01*
X312071969Y-204007434D01*
X312104128Y-204363725D01*
X312256509Y-204803888D01*
X312707000Y-205132252D01*
X313445626Y-205342491D01*
X313706629Y-205379794D01*
X314313901Y-205410835D01*
X314745362Y-205316023D01*
X314967514Y-205195448D01*
X315174478Y-205045026D01*
X315297460Y-204875816D01*
X315352855Y-204610798D01*
X315357056Y-204172949D01*
X315327430Y-203504464D01*
X315193624Y-202335622D01*
X314904254Y-201414052D01*
X314428139Y-200686079D01*
X313734102Y-200098025D01*
X313157296Y-199768376D01*
X312303056Y-199454352D01*
X311230840Y-199233146D01*
X310037221Y-199113308D01*
X308818769Y-199103384D01*
X307672058Y-199211922D01*
X307404712Y-199259196D01*
X306554102Y-199529108D01*
X305709651Y-199971947D01*
X304985928Y-200518249D01*
X304577723Y-200973231D01*
X304263426Y-201496008D01*
X304023357Y-202084227D01*
X303849182Y-202786892D01*
X303732568Y-203653006D01*
X303665180Y-204731573D01*
X303638687Y-206071596D01*
X303637462Y-206502143D01*
X303644595Y-207714114D01*
X303672922Y-208653336D01*
X303732834Y-209372524D01*
X303834724Y-209924388D01*
X303988982Y-210361644D01*
X304206001Y-210737004D01*
X304496171Y-211103181D01*
X304558401Y-211173790D01*
X304877688Y-211597430D01*
X305073580Y-211983164D01*
X305102846Y-212126171D01*
X305020080Y-212437161D01*
X304804228Y-212910236D01*
X304534965Y-213387561D01*
X304250305Y-213894299D01*
X304029395Y-214413477D01*
X303865794Y-214992484D01*
X303753058Y-215678714D01*
X303684744Y-216519558D01*
X303654409Y-217562406D01*
X303655610Y-218854650D01*
X303668621Y-219759968D01*
X303691514Y-220931369D01*
X303716832Y-221828717D01*
X303749836Y-222503583D01*
X303795786Y-223007543D01*
X303859943Y-223392169D01*
X303947568Y-223709037D01*
X304063921Y-224009720D01*
X304113743Y-224123686D01*
X304705666Y-225074121D01*
X305533715Y-225865721D01*
X306521517Y-226431215D01*
X306879679Y-226559866D01*
X307699131Y-226729253D01*
X308719171Y-226820616D01*
X309824285Y-226834170D01*
X310898959Y-226770130D01*
X310898959Y-226770130D01*
G37*
X310898959Y-226770130D02*
X311827680Y-226628714D01*
X312134016Y-226550053D01*
X313186602Y-226098538D01*
X314089322Y-225444497D01*
X314766013Y-224645634D01*
X314862346Y-224482964D01*
X315095367Y-223966264D01*
X315239363Y-223374991D01*
X315320105Y-222595318D01*
X315330492Y-222415151D01*
X315356868Y-221621449D01*
X315304686Y-221096542D01*
X315126026Y-220785028D01*
X314772970Y-220631505D01*
X314197597Y-220580571D01*
X313739910Y-220576205D01*
X313035193Y-220595443D01*
X312582165Y-220688439D01*
X312307543Y-220908117D01*
X312138043Y-221307401D01*
X312024290Y-221815181D01*
X311750022Y-222443145D01*
X311243551Y-222931100D01*
X310573938Y-223262654D01*
X309810244Y-223421418D01*
X309021530Y-223391002D01*
X308276857Y-223155017D01*
X307777168Y-222823124D01*
X307462267Y-222482883D01*
X307226278Y-222059376D01*
X307061064Y-221507896D01*
X306958490Y-220783737D01*
X306910420Y-219842192D01*
X306908718Y-218638557D01*
X306918502Y-218104722D01*
X306951525Y-217005563D01*
X307009509Y-216178465D01*
X307114439Y-215569866D01*
X307288299Y-215126199D01*
X307553072Y-214793899D01*
X307930743Y-214519403D01*
X308443296Y-214249145D01*
X308515189Y-214214320D01*
X309230524Y-213815963D01*
X309679077Y-213408059D01*
X309913629Y-212918440D01*
X309986963Y-212274939D01*
X309987462Y-212201293D01*
X309937254Y-211613021D01*
X309749703Y-211169886D01*
X309369414Y-210797900D01*
X308740996Y-210423074D01*
X308603487Y-210352733D01*
X307762691Y-209789397D01*
X307219894Y-209096368D01*
X307052804Y-208676750D01*
X306964881Y-208173890D01*
X306911289Y-207459410D01*
X306890697Y-206620555D01*
X306901778Y-205744572D01*
X306943200Y-204918707D01*
X307013634Y-204230207D01*
X307111751Y-203766316D01*
X307128305Y-203722618D01*
X307539147Y-203106352D01*
X308172796Y-202708280D01*
X309043183Y-202521162D01*
X309474393Y-202503737D01*
X310481579Y-202603773D01*
X311262580Y-202896465D01*
X311798881Y-203368717D01*
X312071969Y-204007434D01*
X312104128Y-204363725D01*
X312256509Y-204803888D01*
X312707000Y-205132252D01*
X313445626Y-205342491D01*
X313706629Y-205379794D01*
X314313901Y-205410835D01*
X314745362Y-205316023D01*
X314967514Y-205195448D01*
X315174478Y-205045026D01*
X315297460Y-204875816D01*
X315352855Y-204610798D01*
X315357056Y-204172949D01*
X315327430Y-203504464D01*
X315193624Y-202335622D01*
X314904254Y-201414052D01*
X314428139Y-200686079D01*
X313734102Y-200098025D01*
X313157296Y-199768376D01*
X312303056Y-199454352D01*
X311230840Y-199233146D01*
X310037221Y-199113308D01*
X308818769Y-199103384D01*
X307672058Y-199211922D01*
X307404712Y-199259196D01*
X306554102Y-199529108D01*
X305709651Y-199971947D01*
X304985928Y-200518249D01*
X304577723Y-200973231D01*
X304263426Y-201496008D01*
X304023357Y-202084227D01*
X303849182Y-202786892D01*
X303732568Y-203653006D01*
X303665180Y-204731573D01*
X303638687Y-206071596D01*
X303637462Y-206502143D01*
X303644595Y-207714114D01*
X303672922Y-208653336D01*
X303732834Y-209372524D01*
X303834724Y-209924388D01*
X303988982Y-210361644D01*
X304206001Y-210737004D01*
X304496171Y-211103181D01*
X304558401Y-211173790D01*
X304877688Y-211597430D01*
X305073580Y-211983164D01*
X305102846Y-212126171D01*
X305020080Y-212437161D01*
X304804228Y-212910236D01*
X304534965Y-213387561D01*
X304250305Y-213894299D01*
X304029395Y-214413477D01*
X303865794Y-214992484D01*
X303753058Y-215678714D01*
X303684744Y-216519558D01*
X303654409Y-217562406D01*
X303655610Y-218854650D01*
X303668621Y-219759968D01*
X303691514Y-220931369D01*
X303716832Y-221828717D01*
X303749836Y-222503583D01*
X303795786Y-223007543D01*
X303859943Y-223392169D01*
X303947568Y-223709037D01*
X304063921Y-224009720D01*
X304113743Y-224123686D01*
X304705666Y-225074121D01*
X305533715Y-225865721D01*
X306521517Y-226431215D01*
X306879679Y-226559866D01*
X307699131Y-226729253D01*
X308719171Y-226820616D01*
X309824285Y-226834170D01*
X310898959Y-226770130D01*
G36*
X355225579Y-226943632D02*
G01*
X355493088Y-226927827D01*
X355596695Y-226926205D01*
X355950862Y-226930379D01*
X356242102Y-226923624D01*
X356476548Y-226877027D01*
X356660332Y-226761673D01*
X356799585Y-226548650D01*
X356900440Y-226209044D01*
X356969030Y-225713940D01*
X357011486Y-225034425D01*
X357033941Y-224141585D01*
X357042526Y-223006506D01*
X357043374Y-221600276D01*
X357042590Y-220108678D01*
X357043415Y-218457707D01*
X357047911Y-217103076D01*
X357059111Y-216015485D01*
X357080046Y-215165633D01*
X357113749Y-214524219D01*
X357163252Y-214061944D01*
X357231587Y-213749507D01*
X357321787Y-213557607D01*
X357436883Y-213456944D01*
X357579908Y-213418217D01*
X357735591Y-213412103D01*
X358011865Y-213568958D01*
X358297220Y-214017455D01*
X358576629Y-214724484D01*
X358835064Y-215656939D01*
X358912407Y-216004783D01*
X359111834Y-216848698D01*
X359300553Y-217405598D01*
X359495241Y-217712957D01*
X359712571Y-217808248D01*
X359714920Y-217808256D01*
X359933069Y-217749592D01*
X360120472Y-217541299D01*
X360301711Y-217134925D01*
X360501371Y-216482020D01*
X360623631Y-216017231D01*
X360904559Y-215003418D01*
X361163276Y-214276433D01*
X361416794Y-213799832D01*
X361682128Y-213537172D01*
X361808395Y-213479544D01*
X362008266Y-213428766D01*
X362171828Y-213434173D01*
X362302291Y-213523760D01*
X362402864Y-213725526D01*
X362476757Y-214067466D01*
X362527180Y-214577577D01*
X362557342Y-215283856D01*
X362570453Y-216214300D01*
X362569724Y-217396906D01*
X362558363Y-218859670D01*
X362547330Y-219924923D01*
X362534060Y-221297271D01*
X362524754Y-222576499D01*
X362519462Y-223723694D01*
X362518235Y-224699942D01*
X362521123Y-225466330D01*
X362528179Y-225983944D01*
X362539112Y-226211911D01*
X362756353Y-226575225D01*
X363252618Y-226815754D01*
X364000891Y-226921976D01*
X364214354Y-226926205D01*
X364827947Y-226874058D01*
X365233900Y-226697539D01*
X365349208Y-226597792D01*
X365407954Y-226533715D01*
X365459157Y-226452667D01*
X365503258Y-226333428D01*
X365540696Y-226154780D01*
X365571910Y-225895504D01*
X365597340Y-225534381D01*
X365617427Y-225050193D01*
X365632609Y-224421720D01*
X365643326Y-223627745D01*
X365650019Y-222647048D01*
X365653126Y-221458410D01*
X365653088Y-220040613D01*
X365650344Y-218372439D01*
X365645334Y-216432668D01*
X365638497Y-214200081D01*
X365634144Y-212847556D01*
X365624808Y-210307883D01*
X365614102Y-208077644D01*
X365601737Y-206140630D01*
X365587426Y-204480637D01*
X365570883Y-203081456D01*
X365551820Y-201926883D01*
X365529950Y-201000711D01*
X365504987Y-200286733D01*
X365476642Y-199768742D01*
X365444630Y-199430533D01*
X365408662Y-199255898D01*
X365392871Y-199227981D01*
X365092779Y-199088771D01*
X364587749Y-198993237D01*
X363996663Y-198950634D01*
X363438399Y-198970218D01*
X363066949Y-199046891D01*
X362929005Y-199123031D01*
X362796859Y-199267051D01*
X362655289Y-199516717D01*
X362489071Y-199909796D01*
X362282984Y-200484052D01*
X362021803Y-201277252D01*
X361690305Y-202327160D01*
X361506418Y-202918308D01*
X361059053Y-204340990D01*
X360684492Y-205451553D01*
X360364707Y-206250591D01*
X360081669Y-206738700D01*
X359817350Y-206916478D01*
X359553721Y-206784519D01*
X359272752Y-206343419D01*
X358956416Y-205593775D01*
X358586684Y-204536183D01*
X358145527Y-203171238D01*
X358100923Y-203030880D01*
X357765307Y-201992709D01*
X357449197Y-201049522D01*
X357169474Y-200248984D01*
X356943016Y-199638757D01*
X356786704Y-199266503D01*
X356737717Y-199181578D01*
X356447063Y-199036033D01*
X355946013Y-198950604D01*
X355345550Y-198932887D01*
X354756657Y-198990481D01*
X354562805Y-199032692D01*
X354334131Y-199233243D01*
X354139056Y-199643017D01*
X354112186Y-199733823D01*
X354076784Y-200037798D01*
X354046770Y-200665678D01*
X354022160Y-201615771D01*
X354002970Y-202886384D01*
X353989214Y-204475827D01*
X353980908Y-206382407D01*
X353978068Y-208604432D01*
X353980709Y-211140211D01*
X353986842Y-213412589D01*
X353993686Y-215833912D01*
X353998606Y-217950010D01*
X354004031Y-219781271D01*
X354012390Y-221348081D01*
X354026111Y-222670828D01*
X354047624Y-223769899D01*
X354079356Y-224665682D01*
X354123738Y-225378564D01*
X354183196Y-225928931D01*
X354260160Y-226337171D01*
X354357059Y-226623672D01*
X354476322Y-226808820D01*
X354620376Y-226913003D01*
X354791651Y-226956608D01*
X354992576Y-226960022D01*
X355225579Y-226943632D01*
X355225579Y-226943632D01*
G37*
X355225579Y-226943632D02*
X355493088Y-226927827D01*
X355596695Y-226926205D01*
X355950862Y-226930379D01*
X356242102Y-226923624D01*
X356476548Y-226877027D01*
X356660332Y-226761673D01*
X356799585Y-226548650D01*
X356900440Y-226209044D01*
X356969030Y-225713940D01*
X357011486Y-225034425D01*
X357033941Y-224141585D01*
X357042526Y-223006506D01*
X357043374Y-221600276D01*
X357042590Y-220108678D01*
X357043415Y-218457707D01*
X357047911Y-217103076D01*
X357059111Y-216015485D01*
X357080046Y-215165633D01*
X357113749Y-214524219D01*
X357163252Y-214061944D01*
X357231587Y-213749507D01*
X357321787Y-213557607D01*
X357436883Y-213456944D01*
X357579908Y-213418217D01*
X357735591Y-213412103D01*
X358011865Y-213568958D01*
X358297220Y-214017455D01*
X358576629Y-214724484D01*
X358835064Y-215656939D01*
X358912407Y-216004783D01*
X359111834Y-216848698D01*
X359300553Y-217405598D01*
X359495241Y-217712957D01*
X359712571Y-217808248D01*
X359714920Y-217808256D01*
X359933069Y-217749592D01*
X360120472Y-217541299D01*
X360301711Y-217134925D01*
X360501371Y-216482020D01*
X360623631Y-216017231D01*
X360904559Y-215003418D01*
X361163276Y-214276433D01*
X361416794Y-213799832D01*
X361682128Y-213537172D01*
X361808395Y-213479544D01*
X362008266Y-213428766D01*
X362171828Y-213434173D01*
X362302291Y-213523760D01*
X362402864Y-213725526D01*
X362476757Y-214067466D01*
X362527180Y-214577577D01*
X362557342Y-215283856D01*
X362570453Y-216214300D01*
X362569724Y-217396906D01*
X362558363Y-218859670D01*
X362547330Y-219924923D01*
X362534060Y-221297271D01*
X362524754Y-222576499D01*
X362519462Y-223723694D01*
X362518235Y-224699942D01*
X362521123Y-225466330D01*
X362528179Y-225983944D01*
X362539112Y-226211911D01*
X362756353Y-226575225D01*
X363252618Y-226815754D01*
X364000891Y-226921976D01*
X364214354Y-226926205D01*
X364827947Y-226874058D01*
X365233900Y-226697539D01*
X365349208Y-226597792D01*
X365407954Y-226533715D01*
X365459157Y-226452667D01*
X365503258Y-226333428D01*
X365540696Y-226154780D01*
X365571910Y-225895504D01*
X365597340Y-225534381D01*
X365617427Y-225050193D01*
X365632609Y-224421720D01*
X365643326Y-223627745D01*
X365650019Y-222647048D01*
X365653126Y-221458410D01*
X365653088Y-220040613D01*
X365650344Y-218372439D01*
X365645334Y-216432668D01*
X365638497Y-214200081D01*
X365634144Y-212847556D01*
X365624808Y-210307883D01*
X365614102Y-208077644D01*
X365601737Y-206140630D01*
X365587426Y-204480637D01*
X365570883Y-203081456D01*
X365551820Y-201926883D01*
X365529950Y-201000711D01*
X365504987Y-200286733D01*
X365476642Y-199768742D01*
X365444630Y-199430533D01*
X365408662Y-199255898D01*
X365392871Y-199227981D01*
X365092779Y-199088771D01*
X364587749Y-198993237D01*
X363996663Y-198950634D01*
X363438399Y-198970218D01*
X363066949Y-199046891D01*
X362929005Y-199123031D01*
X362796859Y-199267051D01*
X362655289Y-199516717D01*
X362489071Y-199909796D01*
X362282984Y-200484052D01*
X362021803Y-201277252D01*
X361690305Y-202327160D01*
X361506418Y-202918308D01*
X361059053Y-204340990D01*
X360684492Y-205451553D01*
X360364707Y-206250591D01*
X360081669Y-206738700D01*
X359817350Y-206916478D01*
X359553721Y-206784519D01*
X359272752Y-206343419D01*
X358956416Y-205593775D01*
X358586684Y-204536183D01*
X358145527Y-203171238D01*
X358100923Y-203030880D01*
X357765307Y-201992709D01*
X357449197Y-201049522D01*
X357169474Y-200248984D01*
X356943016Y-199638757D01*
X356786704Y-199266503D01*
X356737717Y-199181578D01*
X356447063Y-199036033D01*
X355946013Y-198950604D01*
X355345550Y-198932887D01*
X354756657Y-198990481D01*
X354562805Y-199032692D01*
X354334131Y-199233243D01*
X354139056Y-199643017D01*
X354112186Y-199733823D01*
X354076784Y-200037798D01*
X354046770Y-200665678D01*
X354022160Y-201615771D01*
X354002970Y-202886384D01*
X353989214Y-204475827D01*
X353980908Y-206382407D01*
X353978068Y-208604432D01*
X353980709Y-211140211D01*
X353986842Y-213412589D01*
X353993686Y-215833912D01*
X353998606Y-217950010D01*
X354004031Y-219781271D01*
X354012390Y-221348081D01*
X354026111Y-222670828D01*
X354047624Y-223769899D01*
X354079356Y-224665682D01*
X354123738Y-225378564D01*
X354183196Y-225928931D01*
X354260160Y-226337171D01*
X354357059Y-226623672D01*
X354476322Y-226808820D01*
X354620376Y-226913003D01*
X354791651Y-226956608D01*
X354992576Y-226960022D01*
X355225579Y-226943632D01*
G36*
X322920285Y-226872068D02*
G01*
X323399695Y-226743031D01*
X323408273Y-226739172D01*
X323532505Y-226678010D01*
X323644147Y-226598087D01*
X323752886Y-226471921D01*
X323868408Y-226272030D01*
X324000400Y-225970932D01*
X324158547Y-225541143D01*
X324352536Y-224955182D01*
X324592054Y-224185567D01*
X324886785Y-223204815D01*
X325246417Y-221985444D01*
X325680636Y-220499971D01*
X326031160Y-219297375D01*
X326424065Y-217951988D01*
X326793363Y-216693300D01*
X327128044Y-215558393D01*
X327417102Y-214584349D01*
X327649527Y-213808251D01*
X327814311Y-213267180D01*
X327900445Y-212998219D01*
X327904171Y-212988080D01*
X328134718Y-212664258D01*
X328414863Y-212637670D01*
X328667219Y-212905688D01*
X328715851Y-213015651D01*
X328754553Y-213280351D01*
X328789033Y-213841457D01*
X328818621Y-214669752D01*
X328842643Y-215736020D01*
X328860430Y-217011046D01*
X328871309Y-218465614D01*
X328874641Y-219926290D01*
X328874641Y-226419278D01*
X329236511Y-226672742D01*
X329674810Y-226842815D01*
X330324577Y-226922792D01*
X330502846Y-226926205D01*
X331187953Y-226871423D01*
X331687628Y-226721334D01*
X331769182Y-226672742D01*
X332131051Y-226419278D01*
X332131051Y-212934345D01*
X332130652Y-210514032D01*
X332129183Y-208398612D01*
X332126236Y-206567337D01*
X332121404Y-204999460D01*
X332114279Y-203674233D01*
X332104454Y-202570909D01*
X332091521Y-201668740D01*
X332075073Y-200946979D01*
X332054703Y-200384877D01*
X332030002Y-199961689D01*
X332000563Y-199656665D01*
X331965979Y-199449059D01*
X331925843Y-199318122D01*
X331879746Y-199243108D01*
X331861796Y-199225949D01*
X331501926Y-199076945D01*
X330952536Y-199003415D01*
X330331356Y-199003224D01*
X329756118Y-199074239D01*
X329344553Y-199214326D01*
X329267059Y-199272981D01*
X329157497Y-199487705D01*
X328967266Y-199976917D01*
X328709085Y-200703144D01*
X328395675Y-201628913D01*
X328039756Y-202716749D01*
X327654047Y-203929179D01*
X327305090Y-205053110D01*
X326770500Y-206794295D01*
X326322727Y-208250753D01*
X325952851Y-209449005D01*
X325651955Y-210415574D01*
X325411119Y-211176982D01*
X325221426Y-211759753D01*
X325073957Y-212190408D01*
X324959793Y-212495471D01*
X324870017Y-212701463D01*
X324795710Y-212834907D01*
X324727954Y-212922327D01*
X324657830Y-212990244D01*
X324626786Y-213018194D01*
X324304483Y-213191870D01*
X324077500Y-213192729D01*
X324015220Y-213137592D01*
X323964026Y-213005374D01*
X323922864Y-212767385D01*
X323890684Y-212394935D01*
X323866433Y-211859334D01*
X323849061Y-211131892D01*
X323837514Y-210183918D01*
X323830741Y-208986722D01*
X323827690Y-207511615D01*
X323827205Y-206365640D01*
X323825396Y-204646865D01*
X323819380Y-203226118D01*
X323808278Y-202075802D01*
X323791209Y-201168322D01*
X323767293Y-200476080D01*
X323735648Y-199971481D01*
X323695396Y-199626929D01*
X323645655Y-199414826D01*
X323602659Y-199327513D01*
X323284542Y-199119762D01*
X322759001Y-198986124D01*
X322137225Y-198933440D01*
X321530406Y-198968552D01*
X321049735Y-199098303D01*
X320937141Y-199163493D01*
X320570795Y-199428004D01*
X320570795Y-212921244D01*
X320571280Y-215351104D01*
X320572991Y-217475909D01*
X320576311Y-219316245D01*
X320581623Y-220892695D01*
X320589310Y-222225846D01*
X320599755Y-223336282D01*
X320613341Y-224244587D01*
X320630452Y-224971348D01*
X320651470Y-225537149D01*
X320676778Y-225962576D01*
X320706760Y-226268212D01*
X320741798Y-226474643D01*
X320782276Y-226602455D01*
X320826656Y-226670344D01*
X321151710Y-226822464D01*
X321683916Y-226908789D01*
X322310900Y-226926322D01*
X322920285Y-226872068D01*
X322920285Y-226872068D01*
G37*
X322920285Y-226872068D02*
X323399695Y-226743031D01*
X323408273Y-226739172D01*
X323532505Y-226678010D01*
X323644147Y-226598087D01*
X323752886Y-226471921D01*
X323868408Y-226272030D01*
X324000400Y-225970932D01*
X324158547Y-225541143D01*
X324352536Y-224955182D01*
X324592054Y-224185567D01*
X324886785Y-223204815D01*
X325246417Y-221985444D01*
X325680636Y-220499971D01*
X326031160Y-219297375D01*
X326424065Y-217951988D01*
X326793363Y-216693300D01*
X327128044Y-215558393D01*
X327417102Y-214584349D01*
X327649527Y-213808251D01*
X327814311Y-213267180D01*
X327900445Y-212998219D01*
X327904171Y-212988080D01*
X328134718Y-212664258D01*
X328414863Y-212637670D01*
X328667219Y-212905688D01*
X328715851Y-213015651D01*
X328754553Y-213280351D01*
X328789033Y-213841457D01*
X328818621Y-214669752D01*
X328842643Y-215736020D01*
X328860430Y-217011046D01*
X328871309Y-218465614D01*
X328874641Y-219926290D01*
X328874641Y-226419278D01*
X329236511Y-226672742D01*
X329674810Y-226842815D01*
X330324577Y-226922792D01*
X330502846Y-226926205D01*
X331187953Y-226871423D01*
X331687628Y-226721334D01*
X331769182Y-226672742D01*
X332131051Y-226419278D01*
X332131051Y-212934345D01*
X332130652Y-210514032D01*
X332129183Y-208398612D01*
X332126236Y-206567337D01*
X332121404Y-204999460D01*
X332114279Y-203674233D01*
X332104454Y-202570909D01*
X332091521Y-201668740D01*
X332075073Y-200946979D01*
X332054703Y-200384877D01*
X332030002Y-199961689D01*
X332000563Y-199656665D01*
X331965979Y-199449059D01*
X331925843Y-199318122D01*
X331879746Y-199243108D01*
X331861796Y-199225949D01*
X331501926Y-199076945D01*
X330952536Y-199003415D01*
X330331356Y-199003224D01*
X329756118Y-199074239D01*
X329344553Y-199214326D01*
X329267059Y-199272981D01*
X329157497Y-199487705D01*
X328967266Y-199976917D01*
X328709085Y-200703144D01*
X328395675Y-201628913D01*
X328039756Y-202716749D01*
X327654047Y-203929179D01*
X327305090Y-205053110D01*
X326770500Y-206794295D01*
X326322727Y-208250753D01*
X325952851Y-209449005D01*
X325651955Y-210415574D01*
X325411119Y-211176982D01*
X325221426Y-211759753D01*
X325073957Y-212190408D01*
X324959793Y-212495471D01*
X324870017Y-212701463D01*
X324795710Y-212834907D01*
X324727954Y-212922327D01*
X324657830Y-212990244D01*
X324626786Y-213018194D01*
X324304483Y-213191870D01*
X324077500Y-213192729D01*
X324015220Y-213137592D01*
X323964026Y-213005374D01*
X323922864Y-212767385D01*
X323890684Y-212394935D01*
X323866433Y-211859334D01*
X323849061Y-211131892D01*
X323837514Y-210183918D01*
X323830741Y-208986722D01*
X323827690Y-207511615D01*
X323827205Y-206365640D01*
X323825396Y-204646865D01*
X323819380Y-203226118D01*
X323808278Y-202075802D01*
X323791209Y-201168322D01*
X323767293Y-200476080D01*
X323735648Y-199971481D01*
X323695396Y-199626929D01*
X323645655Y-199414826D01*
X323602659Y-199327513D01*
X323284542Y-199119762D01*
X322759001Y-198986124D01*
X322137225Y-198933440D01*
X321530406Y-198968552D01*
X321049735Y-199098303D01*
X320937141Y-199163493D01*
X320570795Y-199428004D01*
X320570795Y-212921244D01*
X320571280Y-215351104D01*
X320572991Y-217475909D01*
X320576311Y-219316245D01*
X320581623Y-220892695D01*
X320589310Y-222225846D01*
X320599755Y-223336282D01*
X320613341Y-224244587D01*
X320630452Y-224971348D01*
X320651470Y-225537149D01*
X320676778Y-225962576D01*
X320706760Y-226268212D01*
X320741798Y-226474643D01*
X320782276Y-226602455D01*
X320826656Y-226670344D01*
X321151710Y-226822464D01*
X321683916Y-226908789D01*
X322310900Y-226926322D01*
X322920285Y-226872068D01*
G36*
X292469699Y-226767572D02*
G01*
X292680449Y-226763385D01*
X293197132Y-226720273D01*
X293586270Y-226543853D01*
X293965923Y-226209795D01*
X294296516Y-225811207D01*
X294494451Y-225441294D01*
X294519513Y-225314900D01*
X294546582Y-225103226D01*
X294624951Y-224596107D01*
X294750364Y-223818968D01*
X294918562Y-222797231D01*
X295125291Y-221556319D01*
X295366292Y-220121654D01*
X295637309Y-218518661D01*
X295934084Y-216772762D01*
X296252362Y-214909379D01*
X296587884Y-212953936D01*
X296639732Y-212652533D01*
X297038897Y-210328235D01*
X297384607Y-208303493D01*
X297680051Y-206557187D01*
X297928415Y-205068196D01*
X298132884Y-203815400D01*
X298296645Y-202777677D01*
X298422885Y-201933906D01*
X298514789Y-201262968D01*
X298575545Y-200743741D01*
X298608338Y-200355104D01*
X298616355Y-200075936D01*
X298602782Y-199885117D01*
X298580539Y-199787845D01*
X298326965Y-199297326D01*
X297924568Y-199023181D01*
X297304299Y-198923689D01*
X297145945Y-198921077D01*
X296377597Y-198998351D01*
X295835946Y-199219540D01*
X295580543Y-199519181D01*
X295525306Y-199741442D01*
X295420525Y-200247809D01*
X295273128Y-201001682D01*
X295090044Y-201966460D01*
X294878200Y-203105543D01*
X294644525Y-204382329D01*
X294395947Y-205760218D01*
X294341042Y-206067164D01*
X294029462Y-207792316D01*
X293762571Y-209221433D01*
X293533910Y-210380077D01*
X293337021Y-211293814D01*
X293165444Y-211988205D01*
X293012722Y-212488816D01*
X292872396Y-212821209D01*
X292738007Y-213010948D01*
X292603096Y-213083597D01*
X292567642Y-213086462D01*
X292472830Y-213058458D01*
X292381831Y-212955778D01*
X292288534Y-212750415D01*
X292186828Y-212414366D01*
X292070603Y-211919625D01*
X291933749Y-211238187D01*
X291770154Y-210342046D01*
X291573708Y-209203199D01*
X291338300Y-207793639D01*
X291111034Y-206410820D01*
X290880995Y-205018332D01*
X290660489Y-203708915D01*
X290456426Y-202521725D01*
X290275710Y-201495918D01*
X290125250Y-200670651D01*
X290011951Y-200085080D01*
X289942721Y-199778361D01*
X289938893Y-199765787D01*
X289671722Y-199294361D01*
X289364108Y-199073800D01*
X288887061Y-198968386D01*
X288282701Y-198931099D01*
X287687467Y-198960728D01*
X287237800Y-199056065D01*
X287158294Y-199093352D01*
X287031586Y-199173672D01*
X286925347Y-199269741D01*
X286842113Y-199402243D01*
X286784418Y-199591863D01*
X286754798Y-199859286D01*
X286755788Y-200225198D01*
X286789923Y-200710284D01*
X286859739Y-201335227D01*
X286967770Y-202120714D01*
X287116553Y-203087429D01*
X287308622Y-204256058D01*
X287546512Y-205647285D01*
X287832759Y-207281795D01*
X288169898Y-209180273D01*
X288560464Y-211363405D01*
X288881414Y-213152307D01*
X289312434Y-215556353D01*
X289689881Y-217660142D01*
X290019325Y-219483640D01*
X290306342Y-221046814D01*
X290556503Y-222369631D01*
X290775381Y-223472058D01*
X290968550Y-224374061D01*
X291141583Y-225095608D01*
X291300053Y-225656665D01*
X291449532Y-226077200D01*
X291595594Y-226377179D01*
X291743811Y-226576568D01*
X291899758Y-226695336D01*
X292069006Y-226753448D01*
X292257128Y-226770871D01*
X292469699Y-226767572D01*
X292469699Y-226767572D01*
G37*
X292469699Y-226767572D02*
X292680449Y-226763385D01*
X293197132Y-226720273D01*
X293586270Y-226543853D01*
X293965923Y-226209795D01*
X294296516Y-225811207D01*
X294494451Y-225441294D01*
X294519513Y-225314900D01*
X294546582Y-225103226D01*
X294624951Y-224596107D01*
X294750364Y-223818968D01*
X294918562Y-222797231D01*
X295125291Y-221556319D01*
X295366292Y-220121654D01*
X295637309Y-218518661D01*
X295934084Y-216772762D01*
X296252362Y-214909379D01*
X296587884Y-212953936D01*
X296639732Y-212652533D01*
X297038897Y-210328235D01*
X297384607Y-208303493D01*
X297680051Y-206557187D01*
X297928415Y-205068196D01*
X298132884Y-203815400D01*
X298296645Y-202777677D01*
X298422885Y-201933906D01*
X298514789Y-201262968D01*
X298575545Y-200743741D01*
X298608338Y-200355104D01*
X298616355Y-200075936D01*
X298602782Y-199885117D01*
X298580539Y-199787845D01*
X298326965Y-199297326D01*
X297924568Y-199023181D01*
X297304299Y-198923689D01*
X297145945Y-198921077D01*
X296377597Y-198998351D01*
X295835946Y-199219540D01*
X295580543Y-199519181D01*
X295525306Y-199741442D01*
X295420525Y-200247809D01*
X295273128Y-201001682D01*
X295090044Y-201966460D01*
X294878200Y-203105543D01*
X294644525Y-204382329D01*
X294395947Y-205760218D01*
X294341042Y-206067164D01*
X294029462Y-207792316D01*
X293762571Y-209221433D01*
X293533910Y-210380077D01*
X293337021Y-211293814D01*
X293165444Y-211988205D01*
X293012722Y-212488816D01*
X292872396Y-212821209D01*
X292738007Y-213010948D01*
X292603096Y-213083597D01*
X292567642Y-213086462D01*
X292472830Y-213058458D01*
X292381831Y-212955778D01*
X292288534Y-212750415D01*
X292186828Y-212414366D01*
X292070603Y-211919625D01*
X291933749Y-211238187D01*
X291770154Y-210342046D01*
X291573708Y-209203199D01*
X291338300Y-207793639D01*
X291111034Y-206410820D01*
X290880995Y-205018332D01*
X290660489Y-203708915D01*
X290456426Y-202521725D01*
X290275710Y-201495918D01*
X290125250Y-200670651D01*
X290011951Y-200085080D01*
X289942721Y-199778361D01*
X289938893Y-199765787D01*
X289671722Y-199294361D01*
X289364108Y-199073800D01*
X288887061Y-198968386D01*
X288282701Y-198931099D01*
X287687467Y-198960728D01*
X287237800Y-199056065D01*
X287158294Y-199093352D01*
X287031586Y-199173672D01*
X286925347Y-199269741D01*
X286842113Y-199402243D01*
X286784418Y-199591863D01*
X286754798Y-199859286D01*
X286755788Y-200225198D01*
X286789923Y-200710284D01*
X286859739Y-201335227D01*
X286967770Y-202120714D01*
X287116553Y-203087429D01*
X287308622Y-204256058D01*
X287546512Y-205647285D01*
X287832759Y-207281795D01*
X288169898Y-209180273D01*
X288560464Y-211363405D01*
X288881414Y-213152307D01*
X289312434Y-215556353D01*
X289689881Y-217660142D01*
X290019325Y-219483640D01*
X290306342Y-221046814D01*
X290556503Y-222369631D01*
X290775381Y-223472058D01*
X290968550Y-224374061D01*
X291141583Y-225095608D01*
X291300053Y-225656665D01*
X291449532Y-226077200D01*
X291595594Y-226377179D01*
X291743811Y-226576568D01*
X291899758Y-226695336D01*
X292069006Y-226753448D01*
X292257128Y-226770871D01*
X292469699Y-226767572D01*
G36*
X280844800Y-226908715D02*
G01*
X281245797Y-226840209D01*
X281515882Y-226696637D01*
X281650350Y-226569862D01*
X281895632Y-226179955D01*
X281982333Y-225827332D01*
X281957837Y-225609575D01*
X281887434Y-225100108D01*
X281775751Y-224328916D01*
X281627414Y-223325986D01*
X281447053Y-222121303D01*
X281239293Y-220744853D01*
X281008763Y-219226622D01*
X280760090Y-217596595D01*
X280497900Y-215884758D01*
X280226822Y-214121098D01*
X279951482Y-212335599D01*
X279676508Y-210558249D01*
X279406527Y-208819031D01*
X279146167Y-207147933D01*
X278900055Y-205574940D01*
X278672817Y-204130038D01*
X278469083Y-202843212D01*
X278293478Y-201744449D01*
X278150630Y-200863734D01*
X278045167Y-200231053D01*
X277981716Y-199876392D01*
X277968430Y-199816590D01*
X277771022Y-199364539D01*
X277455650Y-199089176D01*
X276953268Y-198953733D01*
X276286762Y-198921077D01*
X275665236Y-198938575D01*
X275268392Y-199008271D01*
X274996344Y-199155965D01*
X274852612Y-199291531D01*
X274783489Y-199390082D01*
X274710828Y-199553539D01*
X274630829Y-199802742D01*
X274539691Y-200158529D01*
X274433612Y-200641739D01*
X274308792Y-201273211D01*
X274161431Y-202073784D01*
X273987727Y-203064296D01*
X273783880Y-204265587D01*
X273546089Y-205698495D01*
X273270553Y-207383859D01*
X272953471Y-209342518D01*
X272591042Y-211595311D01*
X272463333Y-212391294D01*
X272142394Y-214399852D01*
X271836963Y-216325309D01*
X271576519Y-217979757D01*
X274900809Y-217979757D01*
X274957478Y-217215187D01*
X275064150Y-216268756D01*
X275187024Y-215294772D01*
X275284456Y-214590813D01*
X275368670Y-214103445D01*
X275451889Y-213779237D01*
X275546337Y-213564758D01*
X275664235Y-213406575D01*
X275736040Y-213331656D01*
X276102053Y-213106805D01*
X276460184Y-213199576D01*
X276670850Y-213390205D01*
X276828409Y-213702732D01*
X277003336Y-214287046D01*
X277181231Y-215090844D01*
X277264877Y-215547577D01*
X277463865Y-216842825D01*
X277562395Y-217839367D01*
X277560856Y-218548128D01*
X277459638Y-218980032D01*
X277390795Y-219078256D01*
X277125896Y-219184798D01*
X276637910Y-219254825D01*
X276165611Y-219273641D01*
X275599410Y-219263592D01*
X275270989Y-219211929D01*
X275092621Y-219086377D01*
X274976577Y-218854663D01*
X274968349Y-218833179D01*
X274904953Y-218505147D01*
X274900809Y-217979757D01*
X271576519Y-217979757D01*
X271550977Y-218142005D01*
X271288373Y-219824276D01*
X271053088Y-221346460D01*
X270849057Y-222682894D01*
X270680218Y-223807916D01*
X270550508Y-224695864D01*
X270463863Y-225321076D01*
X270424220Y-225657888D01*
X270422077Y-225697763D01*
X270510922Y-226273773D01*
X270800163Y-226653923D01*
X271323860Y-226863102D01*
X272103311Y-226926205D01*
X272792575Y-226886431D01*
X273279548Y-226734236D01*
X273608272Y-226420307D01*
X273822790Y-225895332D01*
X273967144Y-225110000D01*
X274005638Y-224796300D01*
X274148346Y-223894452D01*
X274336914Y-223257800D01*
X274466773Y-223020232D01*
X274642947Y-222818048D01*
X274853867Y-222696294D01*
X275181114Y-222634809D01*
X275706268Y-222613430D01*
X276120795Y-222611462D01*
X276792167Y-222618719D01*
X277220074Y-222654419D01*
X277486606Y-222739449D01*
X277673851Y-222894700D01*
X277785998Y-223035207D01*
X278001729Y-223495329D01*
X278192149Y-224251530D01*
X278310849Y-224975233D01*
X278440965Y-225798579D01*
X278597686Y-226350996D01*
X278833439Y-226686171D01*
X279200654Y-226857792D01*
X279751757Y-226919546D01*
X280216085Y-226926205D01*
X280844800Y-226908715D01*
X280844800Y-226908715D01*
G37*
X280844800Y-226908715D02*
X281245797Y-226840209D01*
X281515882Y-226696637D01*
X281650350Y-226569862D01*
X281895632Y-226179955D01*
X281982333Y-225827332D01*
X281957837Y-225609575D01*
X281887434Y-225100108D01*
X281775751Y-224328916D01*
X281627414Y-223325986D01*
X281447053Y-222121303D01*
X281239293Y-220744853D01*
X281008763Y-219226622D01*
X280760090Y-217596595D01*
X280497900Y-215884758D01*
X280226822Y-214121098D01*
X279951482Y-212335599D01*
X279676508Y-210558249D01*
X279406527Y-208819031D01*
X279146167Y-207147933D01*
X278900055Y-205574940D01*
X278672817Y-204130038D01*
X278469083Y-202843212D01*
X278293478Y-201744449D01*
X278150630Y-200863734D01*
X278045167Y-200231053D01*
X277981716Y-199876392D01*
X277968430Y-199816590D01*
X277771022Y-199364539D01*
X277455650Y-199089176D01*
X276953268Y-198953733D01*
X276286762Y-198921077D01*
X275665236Y-198938575D01*
X275268392Y-199008271D01*
X274996344Y-199155965D01*
X274852612Y-199291531D01*
X274783489Y-199390082D01*
X274710828Y-199553539D01*
X274630829Y-199802742D01*
X274539691Y-200158529D01*
X274433612Y-200641739D01*
X274308792Y-201273211D01*
X274161431Y-202073784D01*
X273987727Y-203064296D01*
X273783880Y-204265587D01*
X273546089Y-205698495D01*
X273270553Y-207383859D01*
X272953471Y-209342518D01*
X272591042Y-211595311D01*
X272463333Y-212391294D01*
X272142394Y-214399852D01*
X271836963Y-216325309D01*
X271576519Y-217979757D01*
X274900809Y-217979757D01*
X274957478Y-217215187D01*
X275064150Y-216268756D01*
X275187024Y-215294772D01*
X275284456Y-214590813D01*
X275368670Y-214103445D01*
X275451889Y-213779237D01*
X275546337Y-213564758D01*
X275664235Y-213406575D01*
X275736040Y-213331656D01*
X276102053Y-213106805D01*
X276460184Y-213199576D01*
X276670850Y-213390205D01*
X276828409Y-213702732D01*
X277003336Y-214287046D01*
X277181231Y-215090844D01*
X277264877Y-215547577D01*
X277463865Y-216842825D01*
X277562395Y-217839367D01*
X277560856Y-218548128D01*
X277459638Y-218980032D01*
X277390795Y-219078256D01*
X277125896Y-219184798D01*
X276637910Y-219254825D01*
X276165611Y-219273641D01*
X275599410Y-219263592D01*
X275270989Y-219211929D01*
X275092621Y-219086377D01*
X274976577Y-218854663D01*
X274968349Y-218833179D01*
X274904953Y-218505147D01*
X274900809Y-217979757D01*
X271576519Y-217979757D01*
X271550977Y-218142005D01*
X271288373Y-219824276D01*
X271053088Y-221346460D01*
X270849057Y-222682894D01*
X270680218Y-223807916D01*
X270550508Y-224695864D01*
X270463863Y-225321076D01*
X270424220Y-225657888D01*
X270422077Y-225697763D01*
X270510922Y-226273773D01*
X270800163Y-226653923D01*
X271323860Y-226863102D01*
X272103311Y-226926205D01*
X272792575Y-226886431D01*
X273279548Y-226734236D01*
X273608272Y-226420307D01*
X273822790Y-225895332D01*
X273967144Y-225110000D01*
X274005638Y-224796300D01*
X274148346Y-223894452D01*
X274336914Y-223257800D01*
X274466773Y-223020232D01*
X274642947Y-222818048D01*
X274853867Y-222696294D01*
X275181114Y-222634809D01*
X275706268Y-222613430D01*
X276120795Y-222611462D01*
X276792167Y-222618719D01*
X277220074Y-222654419D01*
X277486606Y-222739449D01*
X277673851Y-222894700D01*
X277785998Y-223035207D01*
X278001729Y-223495329D01*
X278192149Y-224251530D01*
X278310849Y-224975233D01*
X278440965Y-225798579D01*
X278597686Y-226350996D01*
X278833439Y-226686171D01*
X279200654Y-226857792D01*
X279751757Y-226919546D01*
X280216085Y-226926205D01*
X280844800Y-226908715D01*
G36*
X255999331Y-226862599D02*
G01*
X256610640Y-226663317D01*
X256989266Y-226315662D01*
X257045640Y-226216233D01*
X257128918Y-225985031D01*
X257290915Y-225477519D01*
X257520579Y-224730410D01*
X257806856Y-223780417D01*
X258138691Y-222664253D01*
X258505033Y-221418629D01*
X258894827Y-220080260D01*
X258939828Y-219924923D01*
X259335895Y-218561713D01*
X259713014Y-217272602D01*
X260059480Y-216096947D01*
X260363588Y-215074105D01*
X260613631Y-214243432D01*
X260797905Y-213644285D01*
X260904704Y-213316021D01*
X260908925Y-213304343D01*
X261161515Y-212778061D01*
X261415643Y-212539251D01*
X261648268Y-212599537D01*
X261797802Y-212855940D01*
X261835541Y-213117599D01*
X261869336Y-213674831D01*
X261898507Y-214497582D01*
X261922378Y-215555801D01*
X261940270Y-216819436D01*
X261951507Y-218258433D01*
X261955410Y-219842740D01*
X261955410Y-226419278D01*
X262317280Y-226672742D01*
X262735171Y-226838327D01*
X263329130Y-226920221D01*
X263497729Y-226923982D01*
X264227357Y-226897608D01*
X264703421Y-226801873D01*
X264995857Y-226604688D01*
X265174602Y-226273967D01*
X265219396Y-226134058D01*
X265255396Y-225852704D01*
X265285742Y-225273251D01*
X265310467Y-224392263D01*
X265329600Y-223206307D01*
X265343175Y-221711948D01*
X265351221Y-219905752D01*
X265353770Y-217784284D01*
X265350853Y-215344111D01*
X265342501Y-212581798D01*
X265342430Y-212563051D01*
X265334475Y-210137949D01*
X265328524Y-208018090D01*
X265322059Y-206183111D01*
X265312559Y-204612645D01*
X265297507Y-203286327D01*
X265274382Y-202183792D01*
X265240666Y-201284674D01*
X265193839Y-200568609D01*
X265131383Y-200015230D01*
X265050778Y-199604172D01*
X264949505Y-199315070D01*
X264825045Y-199127559D01*
X264674879Y-199021273D01*
X264496487Y-198975847D01*
X264287351Y-198970915D01*
X264044951Y-198986112D01*
X263766769Y-199001073D01*
X263665026Y-199002487D01*
X262947871Y-199040115D01*
X262503483Y-199158810D01*
X262365073Y-199255737D01*
X262263511Y-199462578D01*
X262079791Y-199946796D01*
X261825407Y-200673885D01*
X261511855Y-201609337D01*
X261150629Y-202718648D01*
X260753225Y-203967310D01*
X260331137Y-205320818D01*
X260168347Y-205849968D01*
X259737277Y-207247228D01*
X259325572Y-208564270D01*
X258945040Y-209764589D01*
X258607487Y-210811678D01*
X258324722Y-211669032D01*
X258108551Y-212300145D01*
X257970784Y-212668511D01*
X257943828Y-212727555D01*
X257667737Y-213113853D01*
X257368854Y-213220329D01*
X257326085Y-213216016D01*
X257243968Y-213197545D01*
X257176002Y-213148379D01*
X257120427Y-213039380D01*
X257075481Y-212841409D01*
X257039404Y-212525328D01*
X257010435Y-212061997D01*
X256986813Y-211422277D01*
X256966777Y-210577030D01*
X256948568Y-209497117D01*
X256930424Y-208153399D01*
X256910583Y-206516737D01*
X256907974Y-206296700D01*
X256884364Y-204506990D01*
X256859111Y-203020596D01*
X256831314Y-201815196D01*
X256800075Y-200868467D01*
X256764491Y-200158084D01*
X256723664Y-199661725D01*
X256676691Y-199357066D01*
X256622673Y-199221783D01*
X256622585Y-199221695D01*
X256360996Y-199105162D01*
X255884098Y-199005715D01*
X255378559Y-198951637D01*
X254779063Y-198929879D01*
X254399842Y-198972991D01*
X254138563Y-199101480D01*
X253995038Y-199228886D01*
X253651564Y-199572359D01*
X253651564Y-212993421D01*
X253652053Y-215416412D01*
X253653775Y-217534405D01*
X253657119Y-219368041D01*
X253662469Y-220937963D01*
X253670211Y-222264812D01*
X253680733Y-223369230D01*
X253694420Y-224271858D01*
X253711658Y-224993340D01*
X253732833Y-225554316D01*
X253758332Y-225975427D01*
X253788541Y-226277317D01*
X253823845Y-226480627D01*
X253864632Y-226605998D01*
X253907425Y-226670344D01*
X254265411Y-226847683D01*
X254897775Y-226922695D01*
X255120918Y-226926205D01*
X255999331Y-226862599D01*
X255999331Y-226862599D01*
G37*
X255999331Y-226862599D02*
X256610640Y-226663317D01*
X256989266Y-226315662D01*
X257045640Y-226216233D01*
X257128918Y-225985031D01*
X257290915Y-225477519D01*
X257520579Y-224730410D01*
X257806856Y-223780417D01*
X258138691Y-222664253D01*
X258505033Y-221418629D01*
X258894827Y-220080260D01*
X258939828Y-219924923D01*
X259335895Y-218561713D01*
X259713014Y-217272602D01*
X260059480Y-216096947D01*
X260363588Y-215074105D01*
X260613631Y-214243432D01*
X260797905Y-213644285D01*
X260904704Y-213316021D01*
X260908925Y-213304343D01*
X261161515Y-212778061D01*
X261415643Y-212539251D01*
X261648268Y-212599537D01*
X261797802Y-212855940D01*
X261835541Y-213117599D01*
X261869336Y-213674831D01*
X261898507Y-214497582D01*
X261922378Y-215555801D01*
X261940270Y-216819436D01*
X261951507Y-218258433D01*
X261955410Y-219842740D01*
X261955410Y-226419278D01*
X262317280Y-226672742D01*
X262735171Y-226838327D01*
X263329130Y-226920221D01*
X263497729Y-226923982D01*
X264227357Y-226897608D01*
X264703421Y-226801873D01*
X264995857Y-226604688D01*
X265174602Y-226273967D01*
X265219396Y-226134058D01*
X265255396Y-225852704D01*
X265285742Y-225273251D01*
X265310467Y-224392263D01*
X265329600Y-223206307D01*
X265343175Y-221711948D01*
X265351221Y-219905752D01*
X265353770Y-217784284D01*
X265350853Y-215344111D01*
X265342501Y-212581798D01*
X265342430Y-212563051D01*
X265334475Y-210137949D01*
X265328524Y-208018090D01*
X265322059Y-206183111D01*
X265312559Y-204612645D01*
X265297507Y-203286327D01*
X265274382Y-202183792D01*
X265240666Y-201284674D01*
X265193839Y-200568609D01*
X265131383Y-200015230D01*
X265050778Y-199604172D01*
X264949505Y-199315070D01*
X264825045Y-199127559D01*
X264674879Y-199021273D01*
X264496487Y-198975847D01*
X264287351Y-198970915D01*
X264044951Y-198986112D01*
X263766769Y-199001073D01*
X263665026Y-199002487D01*
X262947871Y-199040115D01*
X262503483Y-199158810D01*
X262365073Y-199255737D01*
X262263511Y-199462578D01*
X262079791Y-199946796D01*
X261825407Y-200673885D01*
X261511855Y-201609337D01*
X261150629Y-202718648D01*
X260753225Y-203967310D01*
X260331137Y-205320818D01*
X260168347Y-205849968D01*
X259737277Y-207247228D01*
X259325572Y-208564270D01*
X258945040Y-209764589D01*
X258607487Y-210811678D01*
X258324722Y-211669032D01*
X258108551Y-212300145D01*
X257970784Y-212668511D01*
X257943828Y-212727555D01*
X257667737Y-213113853D01*
X257368854Y-213220329D01*
X257326085Y-213216016D01*
X257243968Y-213197545D01*
X257176002Y-213148379D01*
X257120427Y-213039380D01*
X257075481Y-212841409D01*
X257039404Y-212525328D01*
X257010435Y-212061997D01*
X256986813Y-211422277D01*
X256966777Y-210577030D01*
X256948568Y-209497117D01*
X256930424Y-208153399D01*
X256910583Y-206516737D01*
X256907974Y-206296700D01*
X256884364Y-204506990D01*
X256859111Y-203020596D01*
X256831314Y-201815196D01*
X256800075Y-200868467D01*
X256764491Y-200158084D01*
X256723664Y-199661725D01*
X256676691Y-199357066D01*
X256622673Y-199221783D01*
X256622585Y-199221695D01*
X256360996Y-199105162D01*
X255884098Y-199005715D01*
X255378559Y-198951637D01*
X254779063Y-198929879D01*
X254399842Y-198972991D01*
X254138563Y-199101480D01*
X253995038Y-199228886D01*
X253651564Y-199572359D01*
X253651564Y-212993421D01*
X253652053Y-215416412D01*
X253653775Y-217534405D01*
X253657119Y-219368041D01*
X253662469Y-220937963D01*
X253670211Y-222264812D01*
X253680733Y-223369230D01*
X253694420Y-224271858D01*
X253711658Y-224993340D01*
X253732833Y-225554316D01*
X253758332Y-225975427D01*
X253788541Y-226277317D01*
X253823845Y-226480627D01*
X253864632Y-226605998D01*
X253907425Y-226670344D01*
X254265411Y-226847683D01*
X254897775Y-226922695D01*
X255120918Y-226926205D01*
X255999331Y-226862599D01*
G36*
X342800570Y-190419790D02*
G01*
X343671950Y-190325577D01*
X344318979Y-190146908D01*
X344790447Y-189866072D01*
X345135142Y-189465357D01*
X345321436Y-189116640D01*
X345560638Y-188494193D01*
X345614370Y-187989853D01*
X345482633Y-187454063D01*
X345321436Y-187070386D01*
X345034921Y-186578356D01*
X344654698Y-186218209D01*
X344131980Y-185972232D01*
X343417977Y-185822715D01*
X342463900Y-185751947D01*
X341656051Y-185739767D01*
X340744021Y-185750153D01*
X340080033Y-185787450D01*
X339586974Y-185860865D01*
X339187726Y-185979606D01*
X339004719Y-186056334D01*
X338456002Y-186391141D01*
X338091822Y-186865088D01*
X337990667Y-187070386D01*
X337798221Y-187561928D01*
X337685940Y-187979345D01*
X337674101Y-188093513D01*
X337739748Y-188436115D01*
X337905041Y-188915802D01*
X337990667Y-189116640D01*
X338277182Y-189608670D01*
X338657405Y-189968817D01*
X339180123Y-190214793D01*
X339894126Y-190364310D01*
X340848203Y-190435079D01*
X341656051Y-190447259D01*
X342800570Y-190419790D01*
X342800570Y-190419790D01*
G37*
X342800570Y-190419790D02*
X343671950Y-190325577D01*
X344318979Y-190146908D01*
X344790447Y-189866072D01*
X345135142Y-189465357D01*
X345321436Y-189116640D01*
X345560638Y-188494193D01*
X345614370Y-187989853D01*
X345482633Y-187454063D01*
X345321436Y-187070386D01*
X345034921Y-186578356D01*
X344654698Y-186218209D01*
X344131980Y-185972232D01*
X343417977Y-185822715D01*
X342463900Y-185751947D01*
X341656051Y-185739767D01*
X340744021Y-185750153D01*
X340080033Y-185787450D01*
X339586974Y-185860865D01*
X339187726Y-185979606D01*
X339004719Y-186056334D01*
X338456002Y-186391141D01*
X338091822Y-186865088D01*
X337990667Y-187070386D01*
X337798221Y-187561928D01*
X337685940Y-187979345D01*
X337674101Y-188093513D01*
X337739748Y-188436115D01*
X337905041Y-188915802D01*
X337990667Y-189116640D01*
X338277182Y-189608670D01*
X338657405Y-189968817D01*
X339180123Y-190214793D01*
X339894126Y-190364310D01*
X340848203Y-190435079D01*
X341656051Y-190447259D01*
X342800570Y-190419790D01*
G36*
X278160827Y-190256970D02*
G01*
X279032206Y-190162757D01*
X279679236Y-189984088D01*
X280150703Y-189703252D01*
X280495398Y-189302536D01*
X280681692Y-188953819D01*
X280920894Y-188331373D01*
X280974627Y-187827033D01*
X280842889Y-187291242D01*
X280681692Y-186907565D01*
X280395177Y-186415535D01*
X280014955Y-186055388D01*
X279492236Y-185809412D01*
X278778233Y-185659895D01*
X277824156Y-185589126D01*
X277016308Y-185576947D01*
X276104277Y-185587333D01*
X275440290Y-185624630D01*
X274947230Y-185698045D01*
X274547983Y-185816786D01*
X274364976Y-185893513D01*
X273816258Y-186228320D01*
X273452078Y-186702268D01*
X273350923Y-186907565D01*
X273158477Y-187399108D01*
X273046197Y-187816525D01*
X273034357Y-187930692D01*
X273100004Y-188273294D01*
X273265297Y-188752981D01*
X273350923Y-188953819D01*
X273637439Y-189445849D01*
X274017661Y-189805997D01*
X274540379Y-190051973D01*
X275254382Y-190201490D01*
X276208459Y-190272258D01*
X277016308Y-190284438D01*
X278160827Y-190256970D01*
X278160827Y-190256970D01*
G37*
X278160827Y-190256970D02*
X279032206Y-190162757D01*
X279679236Y-189984088D01*
X280150703Y-189703252D01*
X280495398Y-189302536D01*
X280681692Y-188953819D01*
X280920894Y-188331373D01*
X280974627Y-187827033D01*
X280842889Y-187291242D01*
X280681692Y-186907565D01*
X280395177Y-186415535D01*
X280014955Y-186055388D01*
X279492236Y-185809412D01*
X278778233Y-185659895D01*
X277824156Y-185589126D01*
X277016308Y-185576947D01*
X276104277Y-185587333D01*
X275440290Y-185624630D01*
X274947230Y-185698045D01*
X274547983Y-185816786D01*
X274364976Y-185893513D01*
X273816258Y-186228320D01*
X273452078Y-186702268D01*
X273350923Y-186907565D01*
X273158477Y-187399108D01*
X273046197Y-187816525D01*
X273034357Y-187930692D01*
X273100004Y-188273294D01*
X273265297Y-188752981D01*
X273350923Y-188953819D01*
X273637439Y-189445849D01*
X274017661Y-189805997D01*
X274540379Y-190051973D01*
X275254382Y-190201490D01*
X276208459Y-190272258D01*
X277016308Y-190284438D01*
X278160827Y-190256970D01*
G36*
X336824925Y-245163622D02*
G01*
X340388932Y-245162802D01*
X343696264Y-245161227D01*
X346756776Y-245158732D01*
X349580318Y-245155147D01*
X352176744Y-245150305D01*
X354555905Y-245144039D01*
X356727655Y-245136181D01*
X358701845Y-245126564D01*
X360488329Y-245115019D01*
X362096958Y-245101379D01*
X363537585Y-245085476D01*
X364820062Y-245067144D01*
X365954242Y-245046213D01*
X366949977Y-245022517D01*
X367817120Y-244995887D01*
X368565523Y-244966157D01*
X369205038Y-244933158D01*
X369745518Y-244896723D01*
X370196815Y-244856685D01*
X370568782Y-244812875D01*
X370871271Y-244765126D01*
X371114135Y-244713270D01*
X371307225Y-244657140D01*
X371460395Y-244596568D01*
X371583496Y-244531386D01*
X371686382Y-244461427D01*
X371778904Y-244386523D01*
X371870916Y-244306507D01*
X371972268Y-244221210D01*
X372092815Y-244130466D01*
X372143193Y-244096177D01*
X372828176Y-243536226D01*
X373437823Y-242853139D01*
X373561280Y-242678090D01*
X373694938Y-242482480D01*
X373816969Y-242308329D01*
X373927899Y-242140756D01*
X374028256Y-241964876D01*
X374118567Y-241765809D01*
X374199361Y-241528671D01*
X374271163Y-241238579D01*
X374334502Y-240880651D01*
X374389905Y-240440004D01*
X374437899Y-239901756D01*
X374479012Y-239251024D01*
X374513771Y-238472925D01*
X374542703Y-237552577D01*
X374566336Y-236475097D01*
X374585197Y-235225603D01*
X374599814Y-233789211D01*
X374610714Y-232151039D01*
X374618424Y-230296205D01*
X374623472Y-228209826D01*
X374626386Y-225877019D01*
X374627691Y-223282902D01*
X374627917Y-220412591D01*
X374627590Y-217251205D01*
X374627237Y-213783861D01*
X374627205Y-212598000D01*
X374627453Y-209028816D01*
X374627846Y-205770389D01*
X374627857Y-202807837D01*
X374626957Y-200126278D01*
X374624620Y-197710829D01*
X374620318Y-195546606D01*
X374613524Y-193618728D01*
X374603710Y-191912313D01*
X374590349Y-190412476D01*
X374572914Y-189104336D01*
X374550878Y-187973010D01*
X374523712Y-187003615D01*
X374490890Y-186181269D01*
X374451884Y-185491089D01*
X374406166Y-184918193D01*
X374353210Y-184447697D01*
X374292488Y-184064720D01*
X374223473Y-183754378D01*
X374145636Y-183501789D01*
X374058452Y-183292070D01*
X373961392Y-183110339D01*
X373853929Y-182941712D01*
X373735536Y-182771308D01*
X373605685Y-182584244D01*
X373561280Y-182517910D01*
X373001329Y-181832926D01*
X372318242Y-181223279D01*
X372143193Y-181099823D01*
X372013320Y-181007095D01*
X371906241Y-180919868D01*
X371812108Y-180837976D01*
X371721077Y-180761253D01*
X371623301Y-180689533D01*
X371508934Y-180622651D01*
X371368131Y-180560442D01*
X371191045Y-180502739D01*
X370967830Y-180449378D01*
X370688641Y-180400191D01*
X370343632Y-180355014D01*
X369922957Y-180313682D01*
X369416769Y-180276027D01*
X368815223Y-180241886D01*
X368108473Y-180211091D01*
X367286673Y-180183478D01*
X366339977Y-180158880D01*
X365258539Y-180137133D01*
X364032514Y-180118070D01*
X362652054Y-180101526D01*
X361107315Y-180087335D01*
X359388450Y-180075332D01*
X357485614Y-180065350D01*
X355388960Y-180057225D01*
X353088643Y-180050790D01*
X350574817Y-180045880D01*
X347837635Y-180042329D01*
X344867252Y-180039972D01*
X341653822Y-180038643D01*
X338187499Y-180038176D01*
X334458437Y-180038406D01*
X330456789Y-180039167D01*
X326172711Y-180040293D01*
X321596357Y-180041619D01*
X316717879Y-180042978D01*
X311527433Y-180044207D01*
X309424087Y-180044613D01*
X304107263Y-180045683D01*
X299106506Y-180046962D01*
X294412241Y-180048489D01*
X290014894Y-180050303D01*
X285904889Y-180052443D01*
X282072653Y-180054948D01*
X278508610Y-180057859D01*
X275203187Y-180061215D01*
X272146808Y-180065054D01*
X269329900Y-180069416D01*
X266742887Y-180074341D01*
X264376195Y-180079868D01*
X262220250Y-180086035D01*
X260265477Y-180092884D01*
X258502302Y-180100452D01*
X256921149Y-180108780D01*
X255512445Y-180117906D01*
X254266615Y-180127871D01*
X253174084Y-180138712D01*
X252225279Y-180150471D01*
X251410623Y-180163185D01*
X250720544Y-180176895D01*
X250145465Y-180191640D01*
X249675814Y-180207459D01*
X249302014Y-180224391D01*
X249014492Y-180242476D01*
X248803674Y-180261753D01*
X248659984Y-180282262D01*
X248604128Y-180294603D01*
X247478317Y-180738374D01*
X246454195Y-181413833D01*
X245625142Y-182255435D01*
X245436721Y-182517910D01*
X245303062Y-182713520D01*
X245181032Y-182887671D01*
X245070101Y-183055244D01*
X244969744Y-183231124D01*
X244879433Y-183430191D01*
X244798639Y-183667329D01*
X244726837Y-183957421D01*
X244663498Y-184315349D01*
X244608095Y-184755996D01*
X244560101Y-185294244D01*
X244518988Y-185944976D01*
X244484230Y-186723075D01*
X244455297Y-187643423D01*
X244431664Y-188720903D01*
X244412803Y-189970397D01*
X244398186Y-191406789D01*
X244387286Y-193044961D01*
X244379576Y-194899795D01*
X244374528Y-196986174D01*
X244371615Y-199318981D01*
X244370309Y-201913098D01*
X244370083Y-204783409D01*
X244370411Y-207944795D01*
X244370763Y-211412139D01*
X244370795Y-212598000D01*
X246494613Y-212598000D01*
X246494726Y-209102422D01*
X246495170Y-205917635D01*
X246496103Y-203028787D01*
X246497683Y-200421028D01*
X246500069Y-198079508D01*
X246503418Y-195989376D01*
X246507889Y-194135781D01*
X246513641Y-192503873D01*
X246520831Y-191078801D01*
X246529617Y-189845714D01*
X246540158Y-188789763D01*
X246552612Y-187896095D01*
X246567138Y-187149861D01*
X246583892Y-186536210D01*
X246603034Y-186040292D01*
X246624722Y-185647256D01*
X246649114Y-185342250D01*
X246676367Y-185110425D01*
X246706641Y-184936931D01*
X246740094Y-184806915D01*
X246776883Y-184705529D01*
X246792111Y-184670669D01*
X247328886Y-183824727D01*
X248078909Y-183090703D01*
X248844746Y-182618034D01*
X248910333Y-182591965D01*
X248995389Y-182567463D01*
X249109797Y-182544479D01*
X249263442Y-182522965D01*
X249466207Y-182502872D01*
X249727976Y-182484153D01*
X250058633Y-182466758D01*
X250468062Y-182450638D01*
X250966147Y-182435747D01*
X251562772Y-182422034D01*
X252267820Y-182409452D01*
X253091176Y-182397952D01*
X254042722Y-182387486D01*
X255132345Y-182378005D01*
X256369926Y-182369461D01*
X257765350Y-182361804D01*
X259328501Y-182354988D01*
X261069263Y-182348962D01*
X262997519Y-182343680D01*
X265123154Y-182339091D01*
X267456051Y-182335148D01*
X270006094Y-182331803D01*
X272783167Y-182329007D01*
X275797155Y-182326711D01*
X279057940Y-182324866D01*
X282575407Y-182323425D01*
X286359440Y-182322339D01*
X290419922Y-182321560D01*
X294766737Y-182321038D01*
X299409770Y-182320726D01*
X304358904Y-182320575D01*
X309499000Y-182320536D01*
X314756722Y-182320577D01*
X319698688Y-182320731D01*
X324334780Y-182321048D01*
X328674882Y-182321575D01*
X332728879Y-182322361D01*
X336506655Y-182323454D01*
X340018093Y-182324904D01*
X343273076Y-182326758D01*
X346281490Y-182329065D01*
X349053218Y-182331874D01*
X351598144Y-182335232D01*
X353926151Y-182339189D01*
X356047124Y-182343793D01*
X357970946Y-182349093D01*
X359707501Y-182355136D01*
X361266674Y-182361971D01*
X362658347Y-182369647D01*
X363892406Y-182378213D01*
X364978733Y-182387716D01*
X365927213Y-182398206D01*
X366747730Y-182409730D01*
X367450167Y-182422338D01*
X368044409Y-182436077D01*
X368540338Y-182450996D01*
X368947840Y-182467144D01*
X369276797Y-182484569D01*
X369537095Y-182503320D01*
X369738616Y-182523445D01*
X369891245Y-182544992D01*
X370004865Y-182568010D01*
X370089361Y-182592548D01*
X370153255Y-182618034D01*
X370999196Y-183154809D01*
X371733221Y-183904832D01*
X372205889Y-184670669D01*
X372244017Y-184764938D01*
X372278747Y-184882066D01*
X372310238Y-185036903D01*
X372338646Y-185244299D01*
X372364131Y-185519107D01*
X372386851Y-185876175D01*
X372406963Y-186330355D01*
X372424626Y-186896497D01*
X372439999Y-187589453D01*
X372453239Y-188424071D01*
X372464504Y-189415204D01*
X372473954Y-190577702D01*
X372481745Y-191926415D01*
X372488037Y-193476194D01*
X372492987Y-195241889D01*
X372496753Y-197238352D01*
X372499495Y-199480433D01*
X372501369Y-201982981D01*
X372502535Y-204760849D01*
X372503150Y-207828887D01*
X372503372Y-211201945D01*
X372503387Y-212598000D01*
X372503274Y-216093578D01*
X372502830Y-219278365D01*
X372501898Y-222167213D01*
X372500317Y-224774972D01*
X372497932Y-227116492D01*
X372494582Y-229206624D01*
X372490111Y-231060219D01*
X372484359Y-232692127D01*
X372477169Y-234117199D01*
X372468383Y-235350286D01*
X372457842Y-236406237D01*
X372445388Y-237299905D01*
X372430863Y-238046139D01*
X372414108Y-238659790D01*
X372394966Y-239155708D01*
X372373278Y-239548744D01*
X372348887Y-239853750D01*
X372321633Y-240085574D01*
X372291359Y-240259069D01*
X372257906Y-240389085D01*
X372221117Y-240490471D01*
X372205889Y-240525331D01*
X371669115Y-241371273D01*
X370919091Y-242105297D01*
X370153255Y-242577966D01*
X370087667Y-242604035D01*
X370002612Y-242628537D01*
X369888203Y-242651521D01*
X369734559Y-242673035D01*
X369531793Y-242693128D01*
X369270024Y-242711847D01*
X368939367Y-242729242D01*
X368529938Y-242745361D01*
X368031853Y-242760253D01*
X367435228Y-242773966D01*
X366730180Y-242786548D01*
X365906825Y-242798048D01*
X364955278Y-242808514D01*
X363865656Y-242817995D01*
X362628074Y-242826539D01*
X361232650Y-242834196D01*
X359669499Y-242841012D01*
X357928738Y-242847038D01*
X356000481Y-242852320D01*
X353874847Y-242856909D01*
X351541950Y-242860851D01*
X348991906Y-242864197D01*
X346214833Y-242866993D01*
X343200845Y-242869289D01*
X339940060Y-242871134D01*
X336422593Y-242872575D01*
X332638561Y-242873661D01*
X328578078Y-242874440D01*
X324231263Y-242874962D01*
X319588230Y-242875274D01*
X314639096Y-242875425D01*
X309499000Y-242875464D01*
X304241278Y-242875423D01*
X299299312Y-242875269D01*
X294663221Y-242874952D01*
X290323118Y-242874425D01*
X286269121Y-242873639D01*
X282491345Y-242872546D01*
X278979908Y-242871096D01*
X275724924Y-242869242D01*
X272716510Y-242866935D01*
X269944782Y-242864126D01*
X267399857Y-242860768D01*
X265071849Y-242856811D01*
X262950877Y-242852207D01*
X261027054Y-242846907D01*
X259290499Y-242840864D01*
X257731326Y-242834029D01*
X256339653Y-242826353D01*
X255105594Y-242817787D01*
X254019267Y-242808284D01*
X253070787Y-242797794D01*
X252250270Y-242786270D01*
X251547833Y-242773662D01*
X250953592Y-242759923D01*
X250457662Y-242745004D01*
X250050160Y-242728856D01*
X249721203Y-242711431D01*
X249460905Y-242692680D01*
X249259384Y-242672555D01*
X249106755Y-242651008D01*
X248993135Y-242627989D01*
X248908639Y-242603452D01*
X248844746Y-242577966D01*
X247998804Y-242041191D01*
X247264780Y-241291168D01*
X246792111Y-240525331D01*
X246753983Y-240431062D01*
X246719253Y-240313934D01*
X246687763Y-240159097D01*
X246659354Y-239951701D01*
X246633869Y-239676893D01*
X246611150Y-239319825D01*
X246591037Y-238865645D01*
X246573374Y-238299503D01*
X246558001Y-237606547D01*
X246544761Y-236771929D01*
X246533496Y-235780796D01*
X246524046Y-234618298D01*
X246516255Y-233269585D01*
X246509963Y-231719806D01*
X246505013Y-229954111D01*
X246501247Y-227957648D01*
X246498505Y-225715567D01*
X246496631Y-223213019D01*
X246495465Y-220435151D01*
X246494851Y-217367113D01*
X246494628Y-213994055D01*
X246494613Y-212598000D01*
X244370795Y-212598000D01*
X244370547Y-216167184D01*
X244370154Y-219425611D01*
X244370144Y-222388163D01*
X244371043Y-225069722D01*
X244373381Y-227485171D01*
X244377682Y-229649394D01*
X244384477Y-231577272D01*
X244394290Y-233283687D01*
X244407651Y-234783524D01*
X244425086Y-236091664D01*
X244447123Y-237222990D01*
X244474288Y-238192385D01*
X244507111Y-239014731D01*
X244546117Y-239704911D01*
X244591834Y-240277807D01*
X244644790Y-240748303D01*
X244705512Y-241131280D01*
X244774528Y-241441622D01*
X244852364Y-241694211D01*
X244939548Y-241903930D01*
X245036608Y-242085661D01*
X245144071Y-242254288D01*
X245262464Y-242424691D01*
X245392315Y-242611756D01*
X245436721Y-242678090D01*
X245996671Y-243363074D01*
X246679758Y-243972721D01*
X246854807Y-244096177D01*
X246984749Y-244188939D01*
X247091924Y-244276192D01*
X247186185Y-244358104D01*
X247277383Y-244434842D01*
X247375372Y-244506575D01*
X247490003Y-244573470D01*
X247631129Y-244635695D01*
X247808603Y-244693416D01*
X248032277Y-244746803D01*
X248312003Y-244796022D01*
X248657635Y-244841241D01*
X249079023Y-244882628D01*
X249586021Y-244920351D01*
X250188481Y-244954576D01*
X250896255Y-244985472D01*
X251719196Y-245013207D01*
X252667157Y-245037948D01*
X253749989Y-245059862D01*
X254977545Y-245079117D01*
X256359678Y-245095882D01*
X257906240Y-245110323D01*
X259627083Y-245122608D01*
X261532061Y-245132906D01*
X263631024Y-245141382D01*
X265933826Y-245148206D01*
X268450319Y-245153545D01*
X271190355Y-245157566D01*
X274163787Y-245160437D01*
X277380468Y-245162327D01*
X280850249Y-245163401D01*
X284582983Y-245163828D01*
X288588523Y-245163777D01*
X292876721Y-245163413D01*
X297457429Y-245162905D01*
X302340500Y-245162422D01*
X307535787Y-245162129D01*
X309499000Y-245162103D01*
X314809950Y-245162284D01*
X319805112Y-245162718D01*
X324494338Y-245163237D01*
X328887481Y-245163672D01*
X332994392Y-245163856D01*
X336824925Y-245163622D01*
X336824925Y-245163622D01*
G37*
X336824925Y-245163622D02*
X340388932Y-245162802D01*
X343696264Y-245161227D01*
X346756776Y-245158732D01*
X349580318Y-245155147D01*
X352176744Y-245150305D01*
X354555905Y-245144039D01*
X356727655Y-245136181D01*
X358701845Y-245126564D01*
X360488329Y-245115019D01*
X362096958Y-245101379D01*
X363537585Y-245085476D01*
X364820062Y-245067144D01*
X365954242Y-245046213D01*
X366949977Y-245022517D01*
X367817120Y-244995887D01*
X368565523Y-244966157D01*
X369205038Y-244933158D01*
X369745518Y-244896723D01*
X370196815Y-244856685D01*
X370568782Y-244812875D01*
X370871271Y-244765126D01*
X371114135Y-244713270D01*
X371307225Y-244657140D01*
X371460395Y-244596568D01*
X371583496Y-244531386D01*
X371686382Y-244461427D01*
X371778904Y-244386523D01*
X371870916Y-244306507D01*
X371972268Y-244221210D01*
X372092815Y-244130466D01*
X372143193Y-244096177D01*
X372828176Y-243536226D01*
X373437823Y-242853139D01*
X373561280Y-242678090D01*
X373694938Y-242482480D01*
X373816969Y-242308329D01*
X373927899Y-242140756D01*
X374028256Y-241964876D01*
X374118567Y-241765809D01*
X374199361Y-241528671D01*
X374271163Y-241238579D01*
X374334502Y-240880651D01*
X374389905Y-240440004D01*
X374437899Y-239901756D01*
X374479012Y-239251024D01*
X374513771Y-238472925D01*
X374542703Y-237552577D01*
X374566336Y-236475097D01*
X374585197Y-235225603D01*
X374599814Y-233789211D01*
X374610714Y-232151039D01*
X374618424Y-230296205D01*
X374623472Y-228209826D01*
X374626386Y-225877019D01*
X374627691Y-223282902D01*
X374627917Y-220412591D01*
X374627590Y-217251205D01*
X374627237Y-213783861D01*
X374627205Y-212598000D01*
X374627453Y-209028816D01*
X374627846Y-205770389D01*
X374627857Y-202807837D01*
X374626957Y-200126278D01*
X374624620Y-197710829D01*
X374620318Y-195546606D01*
X374613524Y-193618728D01*
X374603710Y-191912313D01*
X374590349Y-190412476D01*
X374572914Y-189104336D01*
X374550878Y-187973010D01*
X374523712Y-187003615D01*
X374490890Y-186181269D01*
X374451884Y-185491089D01*
X374406166Y-184918193D01*
X374353210Y-184447697D01*
X374292488Y-184064720D01*
X374223473Y-183754378D01*
X374145636Y-183501789D01*
X374058452Y-183292070D01*
X373961392Y-183110339D01*
X373853929Y-182941712D01*
X373735536Y-182771308D01*
X373605685Y-182584244D01*
X373561280Y-182517910D01*
X373001329Y-181832926D01*
X372318242Y-181223279D01*
X372143193Y-181099823D01*
X372013320Y-181007095D01*
X371906241Y-180919868D01*
X371812108Y-180837976D01*
X371721077Y-180761253D01*
X371623301Y-180689533D01*
X371508934Y-180622651D01*
X371368131Y-180560442D01*
X371191045Y-180502739D01*
X370967830Y-180449378D01*
X370688641Y-180400191D01*
X370343632Y-180355014D01*
X369922957Y-180313682D01*
X369416769Y-180276027D01*
X368815223Y-180241886D01*
X368108473Y-180211091D01*
X367286673Y-180183478D01*
X366339977Y-180158880D01*
X365258539Y-180137133D01*
X364032514Y-180118070D01*
X362652054Y-180101526D01*
X361107315Y-180087335D01*
X359388450Y-180075332D01*
X357485614Y-180065350D01*
X355388960Y-180057225D01*
X353088643Y-180050790D01*
X350574817Y-180045880D01*
X347837635Y-180042329D01*
X344867252Y-180039972D01*
X341653822Y-180038643D01*
X338187499Y-180038176D01*
X334458437Y-180038406D01*
X330456789Y-180039167D01*
X326172711Y-180040293D01*
X321596357Y-180041619D01*
X316717879Y-180042978D01*
X311527433Y-180044207D01*
X309424087Y-180044613D01*
X304107263Y-180045683D01*
X299106506Y-180046962D01*
X294412241Y-180048489D01*
X290014894Y-180050303D01*
X285904889Y-180052443D01*
X282072653Y-180054948D01*
X278508610Y-180057859D01*
X275203187Y-180061215D01*
X272146808Y-180065054D01*
X269329900Y-180069416D01*
X266742887Y-180074341D01*
X264376195Y-180079868D01*
X262220250Y-180086035D01*
X260265477Y-180092884D01*
X258502302Y-180100452D01*
X256921149Y-180108780D01*
X255512445Y-180117906D01*
X254266615Y-180127871D01*
X253174084Y-180138712D01*
X252225279Y-180150471D01*
X251410623Y-180163185D01*
X250720544Y-180176895D01*
X250145465Y-180191640D01*
X249675814Y-180207459D01*
X249302014Y-180224391D01*
X249014492Y-180242476D01*
X248803674Y-180261753D01*
X248659984Y-180282262D01*
X248604128Y-180294603D01*
X247478317Y-180738374D01*
X246454195Y-181413833D01*
X245625142Y-182255435D01*
X245436721Y-182517910D01*
X245303062Y-182713520D01*
X245181032Y-182887671D01*
X245070101Y-183055244D01*
X244969744Y-183231124D01*
X244879433Y-183430191D01*
X244798639Y-183667329D01*
X244726837Y-183957421D01*
X244663498Y-184315349D01*
X244608095Y-184755996D01*
X244560101Y-185294244D01*
X244518988Y-185944976D01*
X244484230Y-186723075D01*
X244455297Y-187643423D01*
X244431664Y-188720903D01*
X244412803Y-189970397D01*
X244398186Y-191406789D01*
X244387286Y-193044961D01*
X244379576Y-194899795D01*
X244374528Y-196986174D01*
X244371615Y-199318981D01*
X244370309Y-201913098D01*
X244370083Y-204783409D01*
X244370411Y-207944795D01*
X244370763Y-211412139D01*
X244370795Y-212598000D01*
X246494613Y-212598000D01*
X246494726Y-209102422D01*
X246495170Y-205917635D01*
X246496103Y-203028787D01*
X246497683Y-200421028D01*
X246500069Y-198079508D01*
X246503418Y-195989376D01*
X246507889Y-194135781D01*
X246513641Y-192503873D01*
X246520831Y-191078801D01*
X246529617Y-189845714D01*
X246540158Y-188789763D01*
X246552612Y-187896095D01*
X246567138Y-187149861D01*
X246583892Y-186536210D01*
X246603034Y-186040292D01*
X246624722Y-185647256D01*
X246649114Y-185342250D01*
X246676367Y-185110425D01*
X246706641Y-184936931D01*
X246740094Y-184806915D01*
X246776883Y-184705529D01*
X246792111Y-184670669D01*
X247328886Y-183824727D01*
X248078909Y-183090703D01*
X248844746Y-182618034D01*
X248910333Y-182591965D01*
X248995389Y-182567463D01*
X249109797Y-182544479D01*
X249263442Y-182522965D01*
X249466207Y-182502872D01*
X249727976Y-182484153D01*
X250058633Y-182466758D01*
X250468062Y-182450638D01*
X250966147Y-182435747D01*
X251562772Y-182422034D01*
X252267820Y-182409452D01*
X253091176Y-182397952D01*
X254042722Y-182387486D01*
X255132345Y-182378005D01*
X256369926Y-182369461D01*
X257765350Y-182361804D01*
X259328501Y-182354988D01*
X261069263Y-182348962D01*
X262997519Y-182343680D01*
X265123154Y-182339091D01*
X267456051Y-182335148D01*
X270006094Y-182331803D01*
X272783167Y-182329007D01*
X275797155Y-182326711D01*
X279057940Y-182324866D01*
X282575407Y-182323425D01*
X286359440Y-182322339D01*
X290419922Y-182321560D01*
X294766737Y-182321038D01*
X299409770Y-182320726D01*
X304358904Y-182320575D01*
X309499000Y-182320536D01*
X314756722Y-182320577D01*
X319698688Y-182320731D01*
X324334780Y-182321048D01*
X328674882Y-182321575D01*
X332728879Y-182322361D01*
X336506655Y-182323454D01*
X340018093Y-182324904D01*
X343273076Y-182326758D01*
X346281490Y-182329065D01*
X349053218Y-182331874D01*
X351598144Y-182335232D01*
X353926151Y-182339189D01*
X356047124Y-182343793D01*
X357970946Y-182349093D01*
X359707501Y-182355136D01*
X361266674Y-182361971D01*
X362658347Y-182369647D01*
X363892406Y-182378213D01*
X364978733Y-182387716D01*
X365927213Y-182398206D01*
X366747730Y-182409730D01*
X367450167Y-182422338D01*
X368044409Y-182436077D01*
X368540338Y-182450996D01*
X368947840Y-182467144D01*
X369276797Y-182484569D01*
X369537095Y-182503320D01*
X369738616Y-182523445D01*
X369891245Y-182544992D01*
X370004865Y-182568010D01*
X370089361Y-182592548D01*
X370153255Y-182618034D01*
X370999196Y-183154809D01*
X371733221Y-183904832D01*
X372205889Y-184670669D01*
X372244017Y-184764938D01*
X372278747Y-184882066D01*
X372310238Y-185036903D01*
X372338646Y-185244299D01*
X372364131Y-185519107D01*
X372386851Y-185876175D01*
X372406963Y-186330355D01*
X372424626Y-186896497D01*
X372439999Y-187589453D01*
X372453239Y-188424071D01*
X372464504Y-189415204D01*
X372473954Y-190577702D01*
X372481745Y-191926415D01*
X372488037Y-193476194D01*
X372492987Y-195241889D01*
X372496753Y-197238352D01*
X372499495Y-199480433D01*
X372501369Y-201982981D01*
X372502535Y-204760849D01*
X372503150Y-207828887D01*
X372503372Y-211201945D01*
X372503387Y-212598000D01*
X372503274Y-216093578D01*
X372502830Y-219278365D01*
X372501898Y-222167213D01*
X372500317Y-224774972D01*
X372497932Y-227116492D01*
X372494582Y-229206624D01*
X372490111Y-231060219D01*
X372484359Y-232692127D01*
X372477169Y-234117199D01*
X372468383Y-235350286D01*
X372457842Y-236406237D01*
X372445388Y-237299905D01*
X372430863Y-238046139D01*
X372414108Y-238659790D01*
X372394966Y-239155708D01*
X372373278Y-239548744D01*
X372348887Y-239853750D01*
X372321633Y-240085574D01*
X372291359Y-240259069D01*
X372257906Y-240389085D01*
X372221117Y-240490471D01*
X372205889Y-240525331D01*
X371669115Y-241371273D01*
X370919091Y-242105297D01*
X370153255Y-242577966D01*
X370087667Y-242604035D01*
X370002612Y-242628537D01*
X369888203Y-242651521D01*
X369734559Y-242673035D01*
X369531793Y-242693128D01*
X369270024Y-242711847D01*
X368939367Y-242729242D01*
X368529938Y-242745361D01*
X368031853Y-242760253D01*
X367435228Y-242773966D01*
X366730180Y-242786548D01*
X365906825Y-242798048D01*
X364955278Y-242808514D01*
X363865656Y-242817995D01*
X362628074Y-242826539D01*
X361232650Y-242834196D01*
X359669499Y-242841012D01*
X357928738Y-242847038D01*
X356000481Y-242852320D01*
X353874847Y-242856909D01*
X351541950Y-242860851D01*
X348991906Y-242864197D01*
X346214833Y-242866993D01*
X343200845Y-242869289D01*
X339940060Y-242871134D01*
X336422593Y-242872575D01*
X332638561Y-242873661D01*
X328578078Y-242874440D01*
X324231263Y-242874962D01*
X319588230Y-242875274D01*
X314639096Y-242875425D01*
X309499000Y-242875464D01*
X304241278Y-242875423D01*
X299299312Y-242875269D01*
X294663221Y-242874952D01*
X290323118Y-242874425D01*
X286269121Y-242873639D01*
X282491345Y-242872546D01*
X278979908Y-242871096D01*
X275724924Y-242869242D01*
X272716510Y-242866935D01*
X269944782Y-242864126D01*
X267399857Y-242860768D01*
X265071849Y-242856811D01*
X262950877Y-242852207D01*
X261027054Y-242846907D01*
X259290499Y-242840864D01*
X257731326Y-242834029D01*
X256339653Y-242826353D01*
X255105594Y-242817787D01*
X254019267Y-242808284D01*
X253070787Y-242797794D01*
X252250270Y-242786270D01*
X251547833Y-242773662D01*
X250953592Y-242759923D01*
X250457662Y-242745004D01*
X250050160Y-242728856D01*
X249721203Y-242711431D01*
X249460905Y-242692680D01*
X249259384Y-242672555D01*
X249106755Y-242651008D01*
X248993135Y-242627989D01*
X248908639Y-242603452D01*
X248844746Y-242577966D01*
X247998804Y-242041191D01*
X247264780Y-241291168D01*
X246792111Y-240525331D01*
X246753983Y-240431062D01*
X246719253Y-240313934D01*
X246687763Y-240159097D01*
X246659354Y-239951701D01*
X246633869Y-239676893D01*
X246611150Y-239319825D01*
X246591037Y-238865645D01*
X246573374Y-238299503D01*
X246558001Y-237606547D01*
X246544761Y-236771929D01*
X246533496Y-235780796D01*
X246524046Y-234618298D01*
X246516255Y-233269585D01*
X246509963Y-231719806D01*
X246505013Y-229954111D01*
X246501247Y-227957648D01*
X246498505Y-225715567D01*
X246496631Y-223213019D01*
X246495465Y-220435151D01*
X246494851Y-217367113D01*
X246494628Y-213994055D01*
X246494613Y-212598000D01*
X244370795Y-212598000D01*
X244370547Y-216167184D01*
X244370154Y-219425611D01*
X244370144Y-222388163D01*
X244371043Y-225069722D01*
X244373381Y-227485171D01*
X244377682Y-229649394D01*
X244384477Y-231577272D01*
X244394290Y-233283687D01*
X244407651Y-234783524D01*
X244425086Y-236091664D01*
X244447123Y-237222990D01*
X244474288Y-238192385D01*
X244507111Y-239014731D01*
X244546117Y-239704911D01*
X244591834Y-240277807D01*
X244644790Y-240748303D01*
X244705512Y-241131280D01*
X244774528Y-241441622D01*
X244852364Y-241694211D01*
X244939548Y-241903930D01*
X245036608Y-242085661D01*
X245144071Y-242254288D01*
X245262464Y-242424691D01*
X245392315Y-242611756D01*
X245436721Y-242678090D01*
X245996671Y-243363074D01*
X246679758Y-243972721D01*
X246854807Y-244096177D01*
X246984749Y-244188939D01*
X247091924Y-244276192D01*
X247186185Y-244358104D01*
X247277383Y-244434842D01*
X247375372Y-244506575D01*
X247490003Y-244573470D01*
X247631129Y-244635695D01*
X247808603Y-244693416D01*
X248032277Y-244746803D01*
X248312003Y-244796022D01*
X248657635Y-244841241D01*
X249079023Y-244882628D01*
X249586021Y-244920351D01*
X250188481Y-244954576D01*
X250896255Y-244985472D01*
X251719196Y-245013207D01*
X252667157Y-245037948D01*
X253749989Y-245059862D01*
X254977545Y-245079117D01*
X256359678Y-245095882D01*
X257906240Y-245110323D01*
X259627083Y-245122608D01*
X261532061Y-245132906D01*
X263631024Y-245141382D01*
X265933826Y-245148206D01*
X268450319Y-245153545D01*
X271190355Y-245157566D01*
X274163787Y-245160437D01*
X277380468Y-245162327D01*
X280850249Y-245163401D01*
X284582983Y-245163828D01*
X288588523Y-245163777D01*
X292876721Y-245163413D01*
X297457429Y-245162905D01*
X302340500Y-245162422D01*
X307535787Y-245162129D01*
X309499000Y-245162103D01*
X314809950Y-245162284D01*
X319805112Y-245162718D01*
X324494338Y-245163237D01*
X328887481Y-245163672D01*
X332994392Y-245163856D01*
X336824925Y-245163622D01*
D11*
X410591000Y-219202000D03*
D12*
G36*
X411863792Y-218212051D02*
G01*
X409601051Y-220474792D01*
X409318208Y-220191949D01*
X411580949Y-217929208D01*
X411863792Y-218212051D01*
X411863792Y-218212051D01*
G37*
D11*
X411439528Y-220050528D03*
D12*
G36*
X412712320Y-219060579D02*
G01*
X410449579Y-221323320D01*
X410166736Y-221040477D01*
X412429477Y-218777736D01*
X412712320Y-219060579D01*
X412712320Y-219060579D01*
G37*
D11*
X412288056Y-220899056D03*
D12*
G36*
X413560848Y-219909107D02*
G01*
X411298107Y-222171848D01*
X411015264Y-221889005D01*
X413278005Y-219626264D01*
X413560848Y-219909107D01*
X413560848Y-219909107D01*
G37*
D13*
X424815000Y-217963750D03*
D14*
X422275000Y-223043750D03*
D13*
X418465000Y-220503750D03*
D15*
X417195000Y-223043750D03*
X427355000Y-223043750D03*
D16*
X193967000Y-226713000D03*
X192367000Y-226713000D03*
X193967000Y-222613000D03*
X192367000Y-222613000D03*
D17*
X399487500Y-192342750D03*
X371238000Y-240977750D03*
X327087500Y-213519000D03*
X296437500Y-194469000D03*
X265587500Y-240692750D03*
X218637500Y-229242750D03*
X220237500Y-194468750D03*
D18*
X406354500Y-176209000D03*
X397714500Y-176209000D03*
D19*
X406354500Y-180389000D03*
X397714500Y-180389000D03*
D20*
X399144500Y-179859000D03*
X404924500Y-179859000D03*
D21*
X401784500Y-181304000D03*
X402284500Y-181304000D03*
X402784500Y-181304000D03*
X401284500Y-181304000D03*
X403284500Y-181304000D03*
X400784500Y-181304000D03*
X403784500Y-181304000D03*
X400284500Y-181304000D03*
D22*
X399584500Y-181304000D03*
X404484500Y-181304000D03*
X398809500Y-181304000D03*
X405259500Y-181304000D03*
D23*
X402054668Y-206501064D03*
D12*
G36*
X402779452Y-206836940D02*
G01*
X402390544Y-207225848D01*
X401329884Y-206165188D01*
X401718792Y-205776280D01*
X402779452Y-206836940D01*
X402779452Y-206836940D01*
G37*
D23*
X401488983Y-207066750D03*
D12*
G36*
X402213767Y-207402626D02*
G01*
X401824859Y-207791534D01*
X400764199Y-206730874D01*
X401153107Y-206341966D01*
X402213767Y-207402626D01*
X402213767Y-207402626D01*
G37*
D23*
X400923298Y-207632435D03*
D12*
G36*
X401648082Y-207968311D02*
G01*
X401259174Y-208357219D01*
X400198514Y-207296559D01*
X400587422Y-206907651D01*
X401648082Y-207968311D01*
X401648082Y-207968311D01*
G37*
D23*
X400357612Y-208198120D03*
D12*
G36*
X401082396Y-208533996D02*
G01*
X400693488Y-208922904D01*
X399632828Y-207862244D01*
X400021736Y-207473336D01*
X401082396Y-208533996D01*
X401082396Y-208533996D01*
G37*
D23*
X399791927Y-208763806D03*
D12*
G36*
X400516711Y-209099682D02*
G01*
X400127803Y-209488590D01*
X399067143Y-208427930D01*
X399456051Y-208039022D01*
X400516711Y-209099682D01*
X400516711Y-209099682D01*
G37*
D23*
X399226241Y-209329491D03*
D12*
G36*
X399951025Y-209665367D02*
G01*
X399562117Y-210054275D01*
X398501457Y-208993615D01*
X398890365Y-208604707D01*
X399951025Y-209665367D01*
X399951025Y-209665367D01*
G37*
D23*
X398660556Y-209895177D03*
D12*
G36*
X399385340Y-210231053D02*
G01*
X398996432Y-210619961D01*
X397935772Y-209559301D01*
X398324680Y-209170393D01*
X399385340Y-210231053D01*
X399385340Y-210231053D01*
G37*
D23*
X398094870Y-210460862D03*
D12*
G36*
X398819654Y-210796738D02*
G01*
X398430746Y-211185646D01*
X397370086Y-210124986D01*
X397758994Y-209736078D01*
X398819654Y-210796738D01*
X398819654Y-210796738D01*
G37*
D23*
X397529185Y-211026548D03*
D12*
G36*
X398253969Y-211362424D02*
G01*
X397865061Y-211751332D01*
X396804401Y-210690672D01*
X397193309Y-210301764D01*
X398253969Y-211362424D01*
X398253969Y-211362424D01*
G37*
D23*
X396963500Y-211592233D03*
D12*
G36*
X397688284Y-211928109D02*
G01*
X397299376Y-212317017D01*
X396238716Y-211256357D01*
X396627624Y-210867449D01*
X397688284Y-211928109D01*
X397688284Y-211928109D01*
G37*
D23*
X396397814Y-212157918D03*
D12*
G36*
X397122598Y-212493794D02*
G01*
X396733690Y-212882702D01*
X395673030Y-211822042D01*
X396061938Y-211433134D01*
X397122598Y-212493794D01*
X397122598Y-212493794D01*
G37*
D23*
X396397814Y-214562082D03*
D12*
G36*
X396733690Y-213837298D02*
G01*
X397122598Y-214226206D01*
X396061938Y-215286866D01*
X395673030Y-214897958D01*
X396733690Y-213837298D01*
X396733690Y-213837298D01*
G37*
D23*
X396963500Y-215127767D03*
D12*
G36*
X397299376Y-214402983D02*
G01*
X397688284Y-214791891D01*
X396627624Y-215852551D01*
X396238716Y-215463643D01*
X397299376Y-214402983D01*
X397299376Y-214402983D01*
G37*
D23*
X397529185Y-215693452D03*
D12*
G36*
X397865061Y-214968668D02*
G01*
X398253969Y-215357576D01*
X397193309Y-216418236D01*
X396804401Y-216029328D01*
X397865061Y-214968668D01*
X397865061Y-214968668D01*
G37*
D23*
X398094870Y-216259138D03*
D12*
G36*
X398430746Y-215534354D02*
G01*
X398819654Y-215923262D01*
X397758994Y-216983922D01*
X397370086Y-216595014D01*
X398430746Y-215534354D01*
X398430746Y-215534354D01*
G37*
D23*
X398660556Y-216824823D03*
D12*
G36*
X398996432Y-216100039D02*
G01*
X399385340Y-216488947D01*
X398324680Y-217549607D01*
X397935772Y-217160699D01*
X398996432Y-216100039D01*
X398996432Y-216100039D01*
G37*
D23*
X399226241Y-217390509D03*
D12*
G36*
X399562117Y-216665725D02*
G01*
X399951025Y-217054633D01*
X398890365Y-218115293D01*
X398501457Y-217726385D01*
X399562117Y-216665725D01*
X399562117Y-216665725D01*
G37*
D23*
X399791927Y-217956194D03*
D12*
G36*
X400127803Y-217231410D02*
G01*
X400516711Y-217620318D01*
X399456051Y-218680978D01*
X399067143Y-218292070D01*
X400127803Y-217231410D01*
X400127803Y-217231410D01*
G37*
D23*
X400357612Y-218521880D03*
D12*
G36*
X400693488Y-217797096D02*
G01*
X401082396Y-218186004D01*
X400021736Y-219246664D01*
X399632828Y-218857756D01*
X400693488Y-217797096D01*
X400693488Y-217797096D01*
G37*
D23*
X400923298Y-219087565D03*
D12*
G36*
X401259174Y-218362781D02*
G01*
X401648082Y-218751689D01*
X400587422Y-219812349D01*
X400198514Y-219423441D01*
X401259174Y-218362781D01*
X401259174Y-218362781D01*
G37*
D23*
X401488983Y-219653250D03*
D12*
G36*
X401824859Y-218928466D02*
G01*
X402213767Y-219317374D01*
X401153107Y-220378034D01*
X400764199Y-219989126D01*
X401824859Y-218928466D01*
X401824859Y-218928466D01*
G37*
D23*
X402054668Y-220218936D03*
D12*
G36*
X402390544Y-219494152D02*
G01*
X402779452Y-219883060D01*
X401718792Y-220943720D01*
X401329884Y-220554812D01*
X402390544Y-219494152D01*
X402390544Y-219494152D01*
G37*
D23*
X404458832Y-220218936D03*
D12*
G36*
X405183616Y-220554812D02*
G01*
X404794708Y-220943720D01*
X403734048Y-219883060D01*
X404122956Y-219494152D01*
X405183616Y-220554812D01*
X405183616Y-220554812D01*
G37*
D23*
X405024517Y-219653250D03*
D12*
G36*
X405749301Y-219989126D02*
G01*
X405360393Y-220378034D01*
X404299733Y-219317374D01*
X404688641Y-218928466D01*
X405749301Y-219989126D01*
X405749301Y-219989126D01*
G37*
D23*
X405590202Y-219087565D03*
D12*
G36*
X406314986Y-219423441D02*
G01*
X405926078Y-219812349D01*
X404865418Y-218751689D01*
X405254326Y-218362781D01*
X406314986Y-219423441D01*
X406314986Y-219423441D01*
G37*
D23*
X406155888Y-218521880D03*
D12*
G36*
X406880672Y-218857756D02*
G01*
X406491764Y-219246664D01*
X405431104Y-218186004D01*
X405820012Y-217797096D01*
X406880672Y-218857756D01*
X406880672Y-218857756D01*
G37*
D23*
X406721573Y-217956194D03*
D12*
G36*
X407446357Y-218292070D02*
G01*
X407057449Y-218680978D01*
X405996789Y-217620318D01*
X406385697Y-217231410D01*
X407446357Y-218292070D01*
X407446357Y-218292070D01*
G37*
D23*
X407287259Y-217390509D03*
D12*
G36*
X408012043Y-217726385D02*
G01*
X407623135Y-218115293D01*
X406562475Y-217054633D01*
X406951383Y-216665725D01*
X408012043Y-217726385D01*
X408012043Y-217726385D01*
G37*
D23*
X407852944Y-216824823D03*
D12*
G36*
X408577728Y-217160699D02*
G01*
X408188820Y-217549607D01*
X407128160Y-216488947D01*
X407517068Y-216100039D01*
X408577728Y-217160699D01*
X408577728Y-217160699D01*
G37*
D23*
X408418630Y-216259138D03*
D12*
G36*
X409143414Y-216595014D02*
G01*
X408754506Y-216983922D01*
X407693846Y-215923262D01*
X408082754Y-215534354D01*
X409143414Y-216595014D01*
X409143414Y-216595014D01*
G37*
D23*
X408984315Y-215693452D03*
D12*
G36*
X409709099Y-216029328D02*
G01*
X409320191Y-216418236D01*
X408259531Y-215357576D01*
X408648439Y-214968668D01*
X409709099Y-216029328D01*
X409709099Y-216029328D01*
G37*
D23*
X409550000Y-215127767D03*
D12*
G36*
X410274784Y-215463643D02*
G01*
X409885876Y-215852551D01*
X408825216Y-214791891D01*
X409214124Y-214402983D01*
X410274784Y-215463643D01*
X410274784Y-215463643D01*
G37*
D23*
X410115686Y-214562082D03*
D12*
G36*
X410840470Y-214897958D02*
G01*
X410451562Y-215286866D01*
X409390902Y-214226206D01*
X409779810Y-213837298D01*
X410840470Y-214897958D01*
X410840470Y-214897958D01*
G37*
D23*
X410115686Y-212157918D03*
D12*
G36*
X410451562Y-211433134D02*
G01*
X410840470Y-211822042D01*
X409779810Y-212882702D01*
X409390902Y-212493794D01*
X410451562Y-211433134D01*
X410451562Y-211433134D01*
G37*
D23*
X409550000Y-211592233D03*
D12*
G36*
X409885876Y-210867449D02*
G01*
X410274784Y-211256357D01*
X409214124Y-212317017D01*
X408825216Y-211928109D01*
X409885876Y-210867449D01*
X409885876Y-210867449D01*
G37*
D23*
X408984315Y-211026548D03*
D12*
G36*
X409320191Y-210301764D02*
G01*
X409709099Y-210690672D01*
X408648439Y-211751332D01*
X408259531Y-211362424D01*
X409320191Y-210301764D01*
X409320191Y-210301764D01*
G37*
D23*
X408418630Y-210460862D03*
D12*
G36*
X408754506Y-209736078D02*
G01*
X409143414Y-210124986D01*
X408082754Y-211185646D01*
X407693846Y-210796738D01*
X408754506Y-209736078D01*
X408754506Y-209736078D01*
G37*
D23*
X407852944Y-209895177D03*
D12*
G36*
X408188820Y-209170393D02*
G01*
X408577728Y-209559301D01*
X407517068Y-210619961D01*
X407128160Y-210231053D01*
X408188820Y-209170393D01*
X408188820Y-209170393D01*
G37*
D23*
X407287259Y-209329491D03*
D12*
G36*
X407623135Y-208604707D02*
G01*
X408012043Y-208993615D01*
X406951383Y-210054275D01*
X406562475Y-209665367D01*
X407623135Y-208604707D01*
X407623135Y-208604707D01*
G37*
D23*
X406721573Y-208763806D03*
D12*
G36*
X407057449Y-208039022D02*
G01*
X407446357Y-208427930D01*
X406385697Y-209488590D01*
X405996789Y-209099682D01*
X407057449Y-208039022D01*
X407057449Y-208039022D01*
G37*
D23*
X406155888Y-208198120D03*
D12*
G36*
X406491764Y-207473336D02*
G01*
X406880672Y-207862244D01*
X405820012Y-208922904D01*
X405431104Y-208533996D01*
X406491764Y-207473336D01*
X406491764Y-207473336D01*
G37*
D23*
X405590202Y-207632435D03*
D12*
G36*
X405926078Y-206907651D02*
G01*
X406314986Y-207296559D01*
X405254326Y-208357219D01*
X404865418Y-207968311D01*
X405926078Y-206907651D01*
X405926078Y-206907651D01*
G37*
D23*
X405024517Y-207066750D03*
D12*
G36*
X405360393Y-206341966D02*
G01*
X405749301Y-206730874D01*
X404688641Y-207791534D01*
X404299733Y-207402626D01*
X405360393Y-206341966D01*
X405360393Y-206341966D01*
G37*
D23*
X404458832Y-206501064D03*
D12*
G36*
X404794708Y-205776280D02*
G01*
X405183616Y-206165188D01*
X404122956Y-207225848D01*
X403734048Y-206836940D01*
X404794708Y-205776280D01*
X404794708Y-205776280D01*
G37*
D24*
X403336000Y-186829000D03*
D25*
X401336000Y-186629000D03*
X403336000Y-188529000D03*
X401336000Y-188529000D03*
D12*
G36*
X394664065Y-215190362D02*
G01*
X394687726Y-215193872D01*
X394710930Y-215199684D01*
X394733452Y-215207742D01*
X394755076Y-215217970D01*
X394775593Y-215230267D01*
X394794806Y-215244517D01*
X394812530Y-215260581D01*
X395157245Y-215605296D01*
X395173309Y-215623020D01*
X395187559Y-215642233D01*
X395199856Y-215662750D01*
X395210084Y-215684374D01*
X395218142Y-215706896D01*
X395223954Y-215730100D01*
X395227464Y-215753761D01*
X395228638Y-215777653D01*
X395227464Y-215801545D01*
X395223954Y-215825206D01*
X395218142Y-215848410D01*
X395210084Y-215870932D01*
X395199856Y-215892556D01*
X395187559Y-215913073D01*
X395173309Y-215932286D01*
X395157245Y-215950010D01*
X394512010Y-216595245D01*
X394494286Y-216611309D01*
X394475073Y-216625559D01*
X394454556Y-216637856D01*
X394432932Y-216648084D01*
X394410410Y-216656142D01*
X394387206Y-216661954D01*
X394363545Y-216665464D01*
X394339653Y-216666638D01*
X394315761Y-216665464D01*
X394292100Y-216661954D01*
X394268896Y-216656142D01*
X394246374Y-216648084D01*
X394224750Y-216637856D01*
X394204233Y-216625559D01*
X394185020Y-216611309D01*
X394167296Y-216595245D01*
X393822581Y-216250530D01*
X393806517Y-216232806D01*
X393792267Y-216213593D01*
X393779970Y-216193076D01*
X393769742Y-216171452D01*
X393761684Y-216148930D01*
X393755872Y-216125726D01*
X393752362Y-216102065D01*
X393751188Y-216078173D01*
X393752362Y-216054281D01*
X393755872Y-216030620D01*
X393761684Y-216007416D01*
X393769742Y-215984894D01*
X393779970Y-215963270D01*
X393792267Y-215942753D01*
X393806517Y-215923540D01*
X393822581Y-215905816D01*
X394467816Y-215260581D01*
X394485540Y-215244517D01*
X394504753Y-215230267D01*
X394525270Y-215217970D01*
X394546894Y-215207742D01*
X394569416Y-215199684D01*
X394592620Y-215193872D01*
X394616281Y-215190362D01*
X394640173Y-215189188D01*
X394664065Y-215190362D01*
X394664065Y-215190362D01*
G37*
D26*
X394489913Y-215927913D03*
D12*
G36*
X393338239Y-213864536D02*
G01*
X393361900Y-213868046D01*
X393385104Y-213873858D01*
X393407626Y-213881916D01*
X393429250Y-213892144D01*
X393449767Y-213904441D01*
X393468980Y-213918691D01*
X393486704Y-213934755D01*
X393831419Y-214279470D01*
X393847483Y-214297194D01*
X393861733Y-214316407D01*
X393874030Y-214336924D01*
X393884258Y-214358548D01*
X393892316Y-214381070D01*
X393898128Y-214404274D01*
X393901638Y-214427935D01*
X393902812Y-214451827D01*
X393901638Y-214475719D01*
X393898128Y-214499380D01*
X393892316Y-214522584D01*
X393884258Y-214545106D01*
X393874030Y-214566730D01*
X393861733Y-214587247D01*
X393847483Y-214606460D01*
X393831419Y-214624184D01*
X393186184Y-215269419D01*
X393168460Y-215285483D01*
X393149247Y-215299733D01*
X393128730Y-215312030D01*
X393107106Y-215322258D01*
X393084584Y-215330316D01*
X393061380Y-215336128D01*
X393037719Y-215339638D01*
X393013827Y-215340812D01*
X392989935Y-215339638D01*
X392966274Y-215336128D01*
X392943070Y-215330316D01*
X392920548Y-215322258D01*
X392898924Y-215312030D01*
X392878407Y-215299733D01*
X392859194Y-215285483D01*
X392841470Y-215269419D01*
X392496755Y-214924704D01*
X392480691Y-214906980D01*
X392466441Y-214887767D01*
X392454144Y-214867250D01*
X392443916Y-214845626D01*
X392435858Y-214823104D01*
X392430046Y-214799900D01*
X392426536Y-214776239D01*
X392425362Y-214752347D01*
X392426536Y-214728455D01*
X392430046Y-214704794D01*
X392435858Y-214681590D01*
X392443916Y-214659068D01*
X392454144Y-214637444D01*
X392466441Y-214616927D01*
X392480691Y-214597714D01*
X392496755Y-214579990D01*
X393141990Y-213934755D01*
X393159714Y-213918691D01*
X393178927Y-213904441D01*
X393199444Y-213892144D01*
X393221068Y-213881916D01*
X393243590Y-213873858D01*
X393266794Y-213868046D01*
X393290455Y-213864536D01*
X393314347Y-213863362D01*
X393338239Y-213864536D01*
X393338239Y-213864536D01*
G37*
D26*
X393164087Y-214602087D03*
D12*
G36*
X405356142Y-183742174D02*
G01*
X405379803Y-183745684D01*
X405403007Y-183751496D01*
X405425529Y-183759554D01*
X405447153Y-183769782D01*
X405467670Y-183782079D01*
X405486883Y-183796329D01*
X405504607Y-183812393D01*
X405520671Y-183830117D01*
X405534921Y-183849330D01*
X405547218Y-183869847D01*
X405557446Y-183891471D01*
X405565504Y-183913993D01*
X405571316Y-183937197D01*
X405574826Y-183960858D01*
X405576000Y-183984750D01*
X405576000Y-184472250D01*
X405574826Y-184496142D01*
X405571316Y-184519803D01*
X405565504Y-184543007D01*
X405557446Y-184565529D01*
X405547218Y-184587153D01*
X405534921Y-184607670D01*
X405520671Y-184626883D01*
X405504607Y-184644607D01*
X405486883Y-184660671D01*
X405467670Y-184674921D01*
X405447153Y-184687218D01*
X405425529Y-184697446D01*
X405403007Y-184705504D01*
X405379803Y-184711316D01*
X405356142Y-184714826D01*
X405332250Y-184716000D01*
X404419750Y-184716000D01*
X404395858Y-184714826D01*
X404372197Y-184711316D01*
X404348993Y-184705504D01*
X404326471Y-184697446D01*
X404304847Y-184687218D01*
X404284330Y-184674921D01*
X404265117Y-184660671D01*
X404247393Y-184644607D01*
X404231329Y-184626883D01*
X404217079Y-184607670D01*
X404204782Y-184587153D01*
X404194554Y-184565529D01*
X404186496Y-184543007D01*
X404180684Y-184519803D01*
X404177174Y-184496142D01*
X404176000Y-184472250D01*
X404176000Y-183984750D01*
X404177174Y-183960858D01*
X404180684Y-183937197D01*
X404186496Y-183913993D01*
X404194554Y-183891471D01*
X404204782Y-183869847D01*
X404217079Y-183849330D01*
X404231329Y-183830117D01*
X404247393Y-183812393D01*
X404265117Y-183796329D01*
X404284330Y-183782079D01*
X404304847Y-183769782D01*
X404326471Y-183759554D01*
X404348993Y-183751496D01*
X404372197Y-183745684D01*
X404395858Y-183742174D01*
X404419750Y-183741000D01*
X405332250Y-183741000D01*
X405356142Y-183742174D01*
X405356142Y-183742174D01*
G37*
D26*
X404876000Y-184228500D03*
D12*
G36*
X405356142Y-185617174D02*
G01*
X405379803Y-185620684D01*
X405403007Y-185626496D01*
X405425529Y-185634554D01*
X405447153Y-185644782D01*
X405467670Y-185657079D01*
X405486883Y-185671329D01*
X405504607Y-185687393D01*
X405520671Y-185705117D01*
X405534921Y-185724330D01*
X405547218Y-185744847D01*
X405557446Y-185766471D01*
X405565504Y-185788993D01*
X405571316Y-185812197D01*
X405574826Y-185835858D01*
X405576000Y-185859750D01*
X405576000Y-186347250D01*
X405574826Y-186371142D01*
X405571316Y-186394803D01*
X405565504Y-186418007D01*
X405557446Y-186440529D01*
X405547218Y-186462153D01*
X405534921Y-186482670D01*
X405520671Y-186501883D01*
X405504607Y-186519607D01*
X405486883Y-186535671D01*
X405467670Y-186549921D01*
X405447153Y-186562218D01*
X405425529Y-186572446D01*
X405403007Y-186580504D01*
X405379803Y-186586316D01*
X405356142Y-186589826D01*
X405332250Y-186591000D01*
X404419750Y-186591000D01*
X404395858Y-186589826D01*
X404372197Y-186586316D01*
X404348993Y-186580504D01*
X404326471Y-186572446D01*
X404304847Y-186562218D01*
X404284330Y-186549921D01*
X404265117Y-186535671D01*
X404247393Y-186519607D01*
X404231329Y-186501883D01*
X404217079Y-186482670D01*
X404204782Y-186462153D01*
X404194554Y-186440529D01*
X404186496Y-186418007D01*
X404180684Y-186394803D01*
X404177174Y-186371142D01*
X404176000Y-186347250D01*
X404176000Y-185859750D01*
X404177174Y-185835858D01*
X404180684Y-185812197D01*
X404186496Y-185788993D01*
X404194554Y-185766471D01*
X404204782Y-185744847D01*
X404217079Y-185724330D01*
X404231329Y-185705117D01*
X404247393Y-185687393D01*
X404265117Y-185671329D01*
X404284330Y-185657079D01*
X404304847Y-185644782D01*
X404326471Y-185634554D01*
X404348993Y-185626496D01*
X404372197Y-185620684D01*
X404395858Y-185617174D01*
X404419750Y-185616000D01*
X405332250Y-185616000D01*
X405356142Y-185617174D01*
X405356142Y-185617174D01*
G37*
D26*
X404876000Y-186103500D03*
D12*
G36*
X399895142Y-183615174D02*
G01*
X399918803Y-183618684D01*
X399942007Y-183624496D01*
X399964529Y-183632554D01*
X399986153Y-183642782D01*
X400006670Y-183655079D01*
X400025883Y-183669329D01*
X400043607Y-183685393D01*
X400059671Y-183703117D01*
X400073921Y-183722330D01*
X400086218Y-183742847D01*
X400096446Y-183764471D01*
X400104504Y-183786993D01*
X400110316Y-183810197D01*
X400113826Y-183833858D01*
X400115000Y-183857750D01*
X400115000Y-184345250D01*
X400113826Y-184369142D01*
X400110316Y-184392803D01*
X400104504Y-184416007D01*
X400096446Y-184438529D01*
X400086218Y-184460153D01*
X400073921Y-184480670D01*
X400059671Y-184499883D01*
X400043607Y-184517607D01*
X400025883Y-184533671D01*
X400006670Y-184547921D01*
X399986153Y-184560218D01*
X399964529Y-184570446D01*
X399942007Y-184578504D01*
X399918803Y-184584316D01*
X399895142Y-184587826D01*
X399871250Y-184589000D01*
X398958750Y-184589000D01*
X398934858Y-184587826D01*
X398911197Y-184584316D01*
X398887993Y-184578504D01*
X398865471Y-184570446D01*
X398843847Y-184560218D01*
X398823330Y-184547921D01*
X398804117Y-184533671D01*
X398786393Y-184517607D01*
X398770329Y-184499883D01*
X398756079Y-184480670D01*
X398743782Y-184460153D01*
X398733554Y-184438529D01*
X398725496Y-184416007D01*
X398719684Y-184392803D01*
X398716174Y-184369142D01*
X398715000Y-184345250D01*
X398715000Y-183857750D01*
X398716174Y-183833858D01*
X398719684Y-183810197D01*
X398725496Y-183786993D01*
X398733554Y-183764471D01*
X398743782Y-183742847D01*
X398756079Y-183722330D01*
X398770329Y-183703117D01*
X398786393Y-183685393D01*
X398804117Y-183669329D01*
X398823330Y-183655079D01*
X398843847Y-183642782D01*
X398865471Y-183632554D01*
X398887993Y-183624496D01*
X398911197Y-183618684D01*
X398934858Y-183615174D01*
X398958750Y-183614000D01*
X399871250Y-183614000D01*
X399895142Y-183615174D01*
X399895142Y-183615174D01*
G37*
D26*
X399415000Y-184101500D03*
D12*
G36*
X399895142Y-185490174D02*
G01*
X399918803Y-185493684D01*
X399942007Y-185499496D01*
X399964529Y-185507554D01*
X399986153Y-185517782D01*
X400006670Y-185530079D01*
X400025883Y-185544329D01*
X400043607Y-185560393D01*
X400059671Y-185578117D01*
X400073921Y-185597330D01*
X400086218Y-185617847D01*
X400096446Y-185639471D01*
X400104504Y-185661993D01*
X400110316Y-185685197D01*
X400113826Y-185708858D01*
X400115000Y-185732750D01*
X400115000Y-186220250D01*
X400113826Y-186244142D01*
X400110316Y-186267803D01*
X400104504Y-186291007D01*
X400096446Y-186313529D01*
X400086218Y-186335153D01*
X400073921Y-186355670D01*
X400059671Y-186374883D01*
X400043607Y-186392607D01*
X400025883Y-186408671D01*
X400006670Y-186422921D01*
X399986153Y-186435218D01*
X399964529Y-186445446D01*
X399942007Y-186453504D01*
X399918803Y-186459316D01*
X399895142Y-186462826D01*
X399871250Y-186464000D01*
X398958750Y-186464000D01*
X398934858Y-186462826D01*
X398911197Y-186459316D01*
X398887993Y-186453504D01*
X398865471Y-186445446D01*
X398843847Y-186435218D01*
X398823330Y-186422921D01*
X398804117Y-186408671D01*
X398786393Y-186392607D01*
X398770329Y-186374883D01*
X398756079Y-186355670D01*
X398743782Y-186335153D01*
X398733554Y-186313529D01*
X398725496Y-186291007D01*
X398719684Y-186267803D01*
X398716174Y-186244142D01*
X398715000Y-186220250D01*
X398715000Y-185732750D01*
X398716174Y-185708858D01*
X398719684Y-185685197D01*
X398725496Y-185661993D01*
X398733554Y-185639471D01*
X398743782Y-185617847D01*
X398756079Y-185597330D01*
X398770329Y-185578117D01*
X398786393Y-185560393D01*
X398804117Y-185544329D01*
X398823330Y-185530079D01*
X398843847Y-185517782D01*
X398865471Y-185507554D01*
X398887993Y-185499496D01*
X398911197Y-185493684D01*
X398934858Y-185490174D01*
X398958750Y-185489000D01*
X399871250Y-185489000D01*
X399895142Y-185490174D01*
X399895142Y-185490174D01*
G37*
D26*
X399415000Y-185976500D03*
D12*
G36*
X403705142Y-195172174D02*
G01*
X403728803Y-195175684D01*
X403752007Y-195181496D01*
X403774529Y-195189554D01*
X403796153Y-195199782D01*
X403816670Y-195212079D01*
X403835883Y-195226329D01*
X403853607Y-195242393D01*
X403869671Y-195260117D01*
X403883921Y-195279330D01*
X403896218Y-195299847D01*
X403906446Y-195321471D01*
X403914504Y-195343993D01*
X403920316Y-195367197D01*
X403923826Y-195390858D01*
X403925000Y-195414750D01*
X403925000Y-195902250D01*
X403923826Y-195926142D01*
X403920316Y-195949803D01*
X403914504Y-195973007D01*
X403906446Y-195995529D01*
X403896218Y-196017153D01*
X403883921Y-196037670D01*
X403869671Y-196056883D01*
X403853607Y-196074607D01*
X403835883Y-196090671D01*
X403816670Y-196104921D01*
X403796153Y-196117218D01*
X403774529Y-196127446D01*
X403752007Y-196135504D01*
X403728803Y-196141316D01*
X403705142Y-196144826D01*
X403681250Y-196146000D01*
X402768750Y-196146000D01*
X402744858Y-196144826D01*
X402721197Y-196141316D01*
X402697993Y-196135504D01*
X402675471Y-196127446D01*
X402653847Y-196117218D01*
X402633330Y-196104921D01*
X402614117Y-196090671D01*
X402596393Y-196074607D01*
X402580329Y-196056883D01*
X402566079Y-196037670D01*
X402553782Y-196017153D01*
X402543554Y-195995529D01*
X402535496Y-195973007D01*
X402529684Y-195949803D01*
X402526174Y-195926142D01*
X402525000Y-195902250D01*
X402525000Y-195414750D01*
X402526174Y-195390858D01*
X402529684Y-195367197D01*
X402535496Y-195343993D01*
X402543554Y-195321471D01*
X402553782Y-195299847D01*
X402566079Y-195279330D01*
X402580329Y-195260117D01*
X402596393Y-195242393D01*
X402614117Y-195226329D01*
X402633330Y-195212079D01*
X402653847Y-195199782D01*
X402675471Y-195189554D01*
X402697993Y-195181496D01*
X402721197Y-195175684D01*
X402744858Y-195172174D01*
X402768750Y-195171000D01*
X403681250Y-195171000D01*
X403705142Y-195172174D01*
X403705142Y-195172174D01*
G37*
D26*
X403225000Y-195658500D03*
D12*
G36*
X403705142Y-197047174D02*
G01*
X403728803Y-197050684D01*
X403752007Y-197056496D01*
X403774529Y-197064554D01*
X403796153Y-197074782D01*
X403816670Y-197087079D01*
X403835883Y-197101329D01*
X403853607Y-197117393D01*
X403869671Y-197135117D01*
X403883921Y-197154330D01*
X403896218Y-197174847D01*
X403906446Y-197196471D01*
X403914504Y-197218993D01*
X403920316Y-197242197D01*
X403923826Y-197265858D01*
X403925000Y-197289750D01*
X403925000Y-197777250D01*
X403923826Y-197801142D01*
X403920316Y-197824803D01*
X403914504Y-197848007D01*
X403906446Y-197870529D01*
X403896218Y-197892153D01*
X403883921Y-197912670D01*
X403869671Y-197931883D01*
X403853607Y-197949607D01*
X403835883Y-197965671D01*
X403816670Y-197979921D01*
X403796153Y-197992218D01*
X403774529Y-198002446D01*
X403752007Y-198010504D01*
X403728803Y-198016316D01*
X403705142Y-198019826D01*
X403681250Y-198021000D01*
X402768750Y-198021000D01*
X402744858Y-198019826D01*
X402721197Y-198016316D01*
X402697993Y-198010504D01*
X402675471Y-198002446D01*
X402653847Y-197992218D01*
X402633330Y-197979921D01*
X402614117Y-197965671D01*
X402596393Y-197949607D01*
X402580329Y-197931883D01*
X402566079Y-197912670D01*
X402553782Y-197892153D01*
X402543554Y-197870529D01*
X402535496Y-197848007D01*
X402529684Y-197824803D01*
X402526174Y-197801142D01*
X402525000Y-197777250D01*
X402525000Y-197289750D01*
X402526174Y-197265858D01*
X402529684Y-197242197D01*
X402535496Y-197218993D01*
X402543554Y-197196471D01*
X402553782Y-197174847D01*
X402566079Y-197154330D01*
X402580329Y-197135117D01*
X402596393Y-197117393D01*
X402614117Y-197101329D01*
X402633330Y-197087079D01*
X402653847Y-197074782D01*
X402675471Y-197064554D01*
X402697993Y-197056496D01*
X402721197Y-197050684D01*
X402744858Y-197047174D01*
X402768750Y-197046000D01*
X403681250Y-197046000D01*
X403705142Y-197047174D01*
X403705142Y-197047174D01*
G37*
D26*
X403225000Y-197533500D03*
D12*
G36*
X401800142Y-195172174D02*
G01*
X401823803Y-195175684D01*
X401847007Y-195181496D01*
X401869529Y-195189554D01*
X401891153Y-195199782D01*
X401911670Y-195212079D01*
X401930883Y-195226329D01*
X401948607Y-195242393D01*
X401964671Y-195260117D01*
X401978921Y-195279330D01*
X401991218Y-195299847D01*
X402001446Y-195321471D01*
X402009504Y-195343993D01*
X402015316Y-195367197D01*
X402018826Y-195390858D01*
X402020000Y-195414750D01*
X402020000Y-195902250D01*
X402018826Y-195926142D01*
X402015316Y-195949803D01*
X402009504Y-195973007D01*
X402001446Y-195995529D01*
X401991218Y-196017153D01*
X401978921Y-196037670D01*
X401964671Y-196056883D01*
X401948607Y-196074607D01*
X401930883Y-196090671D01*
X401911670Y-196104921D01*
X401891153Y-196117218D01*
X401869529Y-196127446D01*
X401847007Y-196135504D01*
X401823803Y-196141316D01*
X401800142Y-196144826D01*
X401776250Y-196146000D01*
X400863750Y-196146000D01*
X400839858Y-196144826D01*
X400816197Y-196141316D01*
X400792993Y-196135504D01*
X400770471Y-196127446D01*
X400748847Y-196117218D01*
X400728330Y-196104921D01*
X400709117Y-196090671D01*
X400691393Y-196074607D01*
X400675329Y-196056883D01*
X400661079Y-196037670D01*
X400648782Y-196017153D01*
X400638554Y-195995529D01*
X400630496Y-195973007D01*
X400624684Y-195949803D01*
X400621174Y-195926142D01*
X400620000Y-195902250D01*
X400620000Y-195414750D01*
X400621174Y-195390858D01*
X400624684Y-195367197D01*
X400630496Y-195343993D01*
X400638554Y-195321471D01*
X400648782Y-195299847D01*
X400661079Y-195279330D01*
X400675329Y-195260117D01*
X400691393Y-195242393D01*
X400709117Y-195226329D01*
X400728330Y-195212079D01*
X400748847Y-195199782D01*
X400770471Y-195189554D01*
X400792993Y-195181496D01*
X400816197Y-195175684D01*
X400839858Y-195172174D01*
X400863750Y-195171000D01*
X401776250Y-195171000D01*
X401800142Y-195172174D01*
X401800142Y-195172174D01*
G37*
D26*
X401320000Y-195658500D03*
D12*
G36*
X401800142Y-197047174D02*
G01*
X401823803Y-197050684D01*
X401847007Y-197056496D01*
X401869529Y-197064554D01*
X401891153Y-197074782D01*
X401911670Y-197087079D01*
X401930883Y-197101329D01*
X401948607Y-197117393D01*
X401964671Y-197135117D01*
X401978921Y-197154330D01*
X401991218Y-197174847D01*
X402001446Y-197196471D01*
X402009504Y-197218993D01*
X402015316Y-197242197D01*
X402018826Y-197265858D01*
X402020000Y-197289750D01*
X402020000Y-197777250D01*
X402018826Y-197801142D01*
X402015316Y-197824803D01*
X402009504Y-197848007D01*
X402001446Y-197870529D01*
X401991218Y-197892153D01*
X401978921Y-197912670D01*
X401964671Y-197931883D01*
X401948607Y-197949607D01*
X401930883Y-197965671D01*
X401911670Y-197979921D01*
X401891153Y-197992218D01*
X401869529Y-198002446D01*
X401847007Y-198010504D01*
X401823803Y-198016316D01*
X401800142Y-198019826D01*
X401776250Y-198021000D01*
X400863750Y-198021000D01*
X400839858Y-198019826D01*
X400816197Y-198016316D01*
X400792993Y-198010504D01*
X400770471Y-198002446D01*
X400748847Y-197992218D01*
X400728330Y-197979921D01*
X400709117Y-197965671D01*
X400691393Y-197949607D01*
X400675329Y-197931883D01*
X400661079Y-197912670D01*
X400648782Y-197892153D01*
X400638554Y-197870529D01*
X400630496Y-197848007D01*
X400624684Y-197824803D01*
X400621174Y-197801142D01*
X400620000Y-197777250D01*
X400620000Y-197289750D01*
X400621174Y-197265858D01*
X400624684Y-197242197D01*
X400630496Y-197218993D01*
X400638554Y-197196471D01*
X400648782Y-197174847D01*
X400661079Y-197154330D01*
X400675329Y-197135117D01*
X400691393Y-197117393D01*
X400709117Y-197101329D01*
X400728330Y-197087079D01*
X400748847Y-197074782D01*
X400770471Y-197064554D01*
X400792993Y-197056496D01*
X400816197Y-197050684D01*
X400839858Y-197047174D01*
X400863750Y-197046000D01*
X401776250Y-197046000D01*
X401800142Y-197047174D01*
X401800142Y-197047174D01*
G37*
D26*
X401320000Y-197533500D03*
D12*
G36*
X196949142Y-224382174D02*
G01*
X196972803Y-224385684D01*
X196996007Y-224391496D01*
X197018529Y-224399554D01*
X197040153Y-224409782D01*
X197060670Y-224422079D01*
X197079883Y-224436329D01*
X197097607Y-224452393D01*
X197113671Y-224470117D01*
X197127921Y-224489330D01*
X197140218Y-224509847D01*
X197150446Y-224531471D01*
X197158504Y-224553993D01*
X197164316Y-224577197D01*
X197167826Y-224600858D01*
X197169000Y-224624750D01*
X197169000Y-225112250D01*
X197167826Y-225136142D01*
X197164316Y-225159803D01*
X197158504Y-225183007D01*
X197150446Y-225205529D01*
X197140218Y-225227153D01*
X197127921Y-225247670D01*
X197113671Y-225266883D01*
X197097607Y-225284607D01*
X197079883Y-225300671D01*
X197060670Y-225314921D01*
X197040153Y-225327218D01*
X197018529Y-225337446D01*
X196996007Y-225345504D01*
X196972803Y-225351316D01*
X196949142Y-225354826D01*
X196925250Y-225356000D01*
X196012750Y-225356000D01*
X195988858Y-225354826D01*
X195965197Y-225351316D01*
X195941993Y-225345504D01*
X195919471Y-225337446D01*
X195897847Y-225327218D01*
X195877330Y-225314921D01*
X195858117Y-225300671D01*
X195840393Y-225284607D01*
X195824329Y-225266883D01*
X195810079Y-225247670D01*
X195797782Y-225227153D01*
X195787554Y-225205529D01*
X195779496Y-225183007D01*
X195773684Y-225159803D01*
X195770174Y-225136142D01*
X195769000Y-225112250D01*
X195769000Y-224624750D01*
X195770174Y-224600858D01*
X195773684Y-224577197D01*
X195779496Y-224553993D01*
X195787554Y-224531471D01*
X195797782Y-224509847D01*
X195810079Y-224489330D01*
X195824329Y-224470117D01*
X195840393Y-224452393D01*
X195858117Y-224436329D01*
X195877330Y-224422079D01*
X195897847Y-224409782D01*
X195919471Y-224399554D01*
X195941993Y-224391496D01*
X195965197Y-224385684D01*
X195988858Y-224382174D01*
X196012750Y-224381000D01*
X196925250Y-224381000D01*
X196949142Y-224382174D01*
X196949142Y-224382174D01*
G37*
D26*
X196469000Y-224868500D03*
D12*
G36*
X196949142Y-226257174D02*
G01*
X196972803Y-226260684D01*
X196996007Y-226266496D01*
X197018529Y-226274554D01*
X197040153Y-226284782D01*
X197060670Y-226297079D01*
X197079883Y-226311329D01*
X197097607Y-226327393D01*
X197113671Y-226345117D01*
X197127921Y-226364330D01*
X197140218Y-226384847D01*
X197150446Y-226406471D01*
X197158504Y-226428993D01*
X197164316Y-226452197D01*
X197167826Y-226475858D01*
X197169000Y-226499750D01*
X197169000Y-226987250D01*
X197167826Y-227011142D01*
X197164316Y-227034803D01*
X197158504Y-227058007D01*
X197150446Y-227080529D01*
X197140218Y-227102153D01*
X197127921Y-227122670D01*
X197113671Y-227141883D01*
X197097607Y-227159607D01*
X197079883Y-227175671D01*
X197060670Y-227189921D01*
X197040153Y-227202218D01*
X197018529Y-227212446D01*
X196996007Y-227220504D01*
X196972803Y-227226316D01*
X196949142Y-227229826D01*
X196925250Y-227231000D01*
X196012750Y-227231000D01*
X195988858Y-227229826D01*
X195965197Y-227226316D01*
X195941993Y-227220504D01*
X195919471Y-227212446D01*
X195897847Y-227202218D01*
X195877330Y-227189921D01*
X195858117Y-227175671D01*
X195840393Y-227159607D01*
X195824329Y-227141883D01*
X195810079Y-227122670D01*
X195797782Y-227102153D01*
X195787554Y-227080529D01*
X195779496Y-227058007D01*
X195773684Y-227034803D01*
X195770174Y-227011142D01*
X195769000Y-226987250D01*
X195769000Y-226499750D01*
X195770174Y-226475858D01*
X195773684Y-226452197D01*
X195779496Y-226428993D01*
X195787554Y-226406471D01*
X195797782Y-226384847D01*
X195810079Y-226364330D01*
X195824329Y-226345117D01*
X195840393Y-226327393D01*
X195858117Y-226311329D01*
X195877330Y-226297079D01*
X195897847Y-226284782D01*
X195919471Y-226274554D01*
X195941993Y-226266496D01*
X195965197Y-226260684D01*
X195988858Y-226257174D01*
X196012750Y-226256000D01*
X196925250Y-226256000D01*
X196949142Y-226257174D01*
X196949142Y-226257174D01*
G37*
D26*
X196469000Y-226743500D03*
D12*
G36*
X406541504Y-191651204D02*
G01*
X406565773Y-191654804D01*
X406589571Y-191660765D01*
X406612671Y-191669030D01*
X406634849Y-191679520D01*
X406655893Y-191692133D01*
X406675598Y-191706747D01*
X406693777Y-191723223D01*
X406710253Y-191741402D01*
X406724867Y-191761107D01*
X406737480Y-191782151D01*
X406747970Y-191804329D01*
X406756235Y-191827429D01*
X406762196Y-191851227D01*
X406765796Y-191875496D01*
X406767000Y-191900000D01*
X406767000Y-192650000D01*
X406765796Y-192674504D01*
X406762196Y-192698773D01*
X406756235Y-192722571D01*
X406747970Y-192745671D01*
X406737480Y-192767849D01*
X406724867Y-192788893D01*
X406710253Y-192808598D01*
X406693777Y-192826777D01*
X406675598Y-192843253D01*
X406655893Y-192857867D01*
X406634849Y-192870480D01*
X406612671Y-192880970D01*
X406589571Y-192889235D01*
X406565773Y-192895196D01*
X406541504Y-192898796D01*
X406517000Y-192900000D01*
X405267000Y-192900000D01*
X405242496Y-192898796D01*
X405218227Y-192895196D01*
X405194429Y-192889235D01*
X405171329Y-192880970D01*
X405149151Y-192870480D01*
X405128107Y-192857867D01*
X405108402Y-192843253D01*
X405090223Y-192826777D01*
X405073747Y-192808598D01*
X405059133Y-192788893D01*
X405046520Y-192767849D01*
X405036030Y-192745671D01*
X405027765Y-192722571D01*
X405021804Y-192698773D01*
X405018204Y-192674504D01*
X405017000Y-192650000D01*
X405017000Y-191900000D01*
X405018204Y-191875496D01*
X405021804Y-191851227D01*
X405027765Y-191827429D01*
X405036030Y-191804329D01*
X405046520Y-191782151D01*
X405059133Y-191761107D01*
X405073747Y-191741402D01*
X405090223Y-191723223D01*
X405108402Y-191706747D01*
X405128107Y-191692133D01*
X405149151Y-191679520D01*
X405171329Y-191669030D01*
X405194429Y-191660765D01*
X405218227Y-191654804D01*
X405242496Y-191651204D01*
X405267000Y-191650000D01*
X406517000Y-191650000D01*
X406541504Y-191651204D01*
X406541504Y-191651204D01*
G37*
D27*
X405892000Y-192275000D03*
D12*
G36*
X406541504Y-194451204D02*
G01*
X406565773Y-194454804D01*
X406589571Y-194460765D01*
X406612671Y-194469030D01*
X406634849Y-194479520D01*
X406655893Y-194492133D01*
X406675598Y-194506747D01*
X406693777Y-194523223D01*
X406710253Y-194541402D01*
X406724867Y-194561107D01*
X406737480Y-194582151D01*
X406747970Y-194604329D01*
X406756235Y-194627429D01*
X406762196Y-194651227D01*
X406765796Y-194675496D01*
X406767000Y-194700000D01*
X406767000Y-195450000D01*
X406765796Y-195474504D01*
X406762196Y-195498773D01*
X406756235Y-195522571D01*
X406747970Y-195545671D01*
X406737480Y-195567849D01*
X406724867Y-195588893D01*
X406710253Y-195608598D01*
X406693777Y-195626777D01*
X406675598Y-195643253D01*
X406655893Y-195657867D01*
X406634849Y-195670480D01*
X406612671Y-195680970D01*
X406589571Y-195689235D01*
X406565773Y-195695196D01*
X406541504Y-195698796D01*
X406517000Y-195700000D01*
X405267000Y-195700000D01*
X405242496Y-195698796D01*
X405218227Y-195695196D01*
X405194429Y-195689235D01*
X405171329Y-195680970D01*
X405149151Y-195670480D01*
X405128107Y-195657867D01*
X405108402Y-195643253D01*
X405090223Y-195626777D01*
X405073747Y-195608598D01*
X405059133Y-195588893D01*
X405046520Y-195567849D01*
X405036030Y-195545671D01*
X405027765Y-195522571D01*
X405021804Y-195498773D01*
X405018204Y-195474504D01*
X405017000Y-195450000D01*
X405017000Y-194700000D01*
X405018204Y-194675496D01*
X405021804Y-194651227D01*
X405027765Y-194627429D01*
X405036030Y-194604329D01*
X405046520Y-194582151D01*
X405059133Y-194561107D01*
X405073747Y-194541402D01*
X405090223Y-194523223D01*
X405108402Y-194506747D01*
X405128107Y-194492133D01*
X405149151Y-194479520D01*
X405171329Y-194469030D01*
X405194429Y-194460765D01*
X405218227Y-194454804D01*
X405242496Y-194451204D01*
X405267000Y-194450000D01*
X406517000Y-194450000D01*
X406541504Y-194451204D01*
X406541504Y-194451204D01*
G37*
D27*
X405892000Y-195075000D03*
D12*
G36*
X403117239Y-201037536D02*
G01*
X403140900Y-201041046D01*
X403164104Y-201046858D01*
X403186626Y-201054916D01*
X403208250Y-201065144D01*
X403228767Y-201077441D01*
X403247980Y-201091691D01*
X403265704Y-201107755D01*
X403610419Y-201452470D01*
X403626483Y-201470194D01*
X403640733Y-201489407D01*
X403653030Y-201509924D01*
X403663258Y-201531548D01*
X403671316Y-201554070D01*
X403677128Y-201577274D01*
X403680638Y-201600935D01*
X403681812Y-201624827D01*
X403680638Y-201648719D01*
X403677128Y-201672380D01*
X403671316Y-201695584D01*
X403663258Y-201718106D01*
X403653030Y-201739730D01*
X403640733Y-201760247D01*
X403626483Y-201779460D01*
X403610419Y-201797184D01*
X402965184Y-202442419D01*
X402947460Y-202458483D01*
X402928247Y-202472733D01*
X402907730Y-202485030D01*
X402886106Y-202495258D01*
X402863584Y-202503316D01*
X402840380Y-202509128D01*
X402816719Y-202512638D01*
X402792827Y-202513812D01*
X402768935Y-202512638D01*
X402745274Y-202509128D01*
X402722070Y-202503316D01*
X402699548Y-202495258D01*
X402677924Y-202485030D01*
X402657407Y-202472733D01*
X402638194Y-202458483D01*
X402620470Y-202442419D01*
X402275755Y-202097704D01*
X402259691Y-202079980D01*
X402245441Y-202060767D01*
X402233144Y-202040250D01*
X402222916Y-202018626D01*
X402214858Y-201996104D01*
X402209046Y-201972900D01*
X402205536Y-201949239D01*
X402204362Y-201925347D01*
X402205536Y-201901455D01*
X402209046Y-201877794D01*
X402214858Y-201854590D01*
X402222916Y-201832068D01*
X402233144Y-201810444D01*
X402245441Y-201789927D01*
X402259691Y-201770714D01*
X402275755Y-201752990D01*
X402920990Y-201107755D01*
X402938714Y-201091691D01*
X402957927Y-201077441D01*
X402978444Y-201065144D01*
X403000068Y-201054916D01*
X403022590Y-201046858D01*
X403045794Y-201041046D01*
X403069455Y-201037536D01*
X403093347Y-201036362D01*
X403117239Y-201037536D01*
X403117239Y-201037536D01*
G37*
D26*
X402943087Y-201775087D03*
D12*
G36*
X404443065Y-202363362D02*
G01*
X404466726Y-202366872D01*
X404489930Y-202372684D01*
X404512452Y-202380742D01*
X404534076Y-202390970D01*
X404554593Y-202403267D01*
X404573806Y-202417517D01*
X404591530Y-202433581D01*
X404936245Y-202778296D01*
X404952309Y-202796020D01*
X404966559Y-202815233D01*
X404978856Y-202835750D01*
X404989084Y-202857374D01*
X404997142Y-202879896D01*
X405002954Y-202903100D01*
X405006464Y-202926761D01*
X405007638Y-202950653D01*
X405006464Y-202974545D01*
X405002954Y-202998206D01*
X404997142Y-203021410D01*
X404989084Y-203043932D01*
X404978856Y-203065556D01*
X404966559Y-203086073D01*
X404952309Y-203105286D01*
X404936245Y-203123010D01*
X404291010Y-203768245D01*
X404273286Y-203784309D01*
X404254073Y-203798559D01*
X404233556Y-203810856D01*
X404211932Y-203821084D01*
X404189410Y-203829142D01*
X404166206Y-203834954D01*
X404142545Y-203838464D01*
X404118653Y-203839638D01*
X404094761Y-203838464D01*
X404071100Y-203834954D01*
X404047896Y-203829142D01*
X404025374Y-203821084D01*
X404003750Y-203810856D01*
X403983233Y-203798559D01*
X403964020Y-203784309D01*
X403946296Y-203768245D01*
X403601581Y-203423530D01*
X403585517Y-203405806D01*
X403571267Y-203386593D01*
X403558970Y-203366076D01*
X403548742Y-203344452D01*
X403540684Y-203321930D01*
X403534872Y-203298726D01*
X403531362Y-203275065D01*
X403530188Y-203251173D01*
X403531362Y-203227281D01*
X403534872Y-203203620D01*
X403540684Y-203180416D01*
X403548742Y-203157894D01*
X403558970Y-203136270D01*
X403571267Y-203115753D01*
X403585517Y-203096540D01*
X403601581Y-203078816D01*
X404246816Y-202433581D01*
X404264540Y-202417517D01*
X404283753Y-202403267D01*
X404304270Y-202390970D01*
X404325894Y-202380742D01*
X404348416Y-202372684D01*
X404371620Y-202366872D01*
X404395281Y-202363362D01*
X404419173Y-202362188D01*
X404443065Y-202363362D01*
X404443065Y-202363362D01*
G37*
D26*
X404268913Y-203100913D03*
D12*
G36*
X399053239Y-220214536D02*
G01*
X399076900Y-220218046D01*
X399100104Y-220223858D01*
X399122626Y-220231916D01*
X399144250Y-220242144D01*
X399164767Y-220254441D01*
X399183980Y-220268691D01*
X399201704Y-220284755D01*
X399546419Y-220629470D01*
X399562483Y-220647194D01*
X399576733Y-220666407D01*
X399589030Y-220686924D01*
X399599258Y-220708548D01*
X399607316Y-220731070D01*
X399613128Y-220754274D01*
X399616638Y-220777935D01*
X399617812Y-220801827D01*
X399616638Y-220825719D01*
X399613128Y-220849380D01*
X399607316Y-220872584D01*
X399599258Y-220895106D01*
X399589030Y-220916730D01*
X399576733Y-220937247D01*
X399562483Y-220956460D01*
X399546419Y-220974184D01*
X398901184Y-221619419D01*
X398883460Y-221635483D01*
X398864247Y-221649733D01*
X398843730Y-221662030D01*
X398822106Y-221672258D01*
X398799584Y-221680316D01*
X398776380Y-221686128D01*
X398752719Y-221689638D01*
X398728827Y-221690812D01*
X398704935Y-221689638D01*
X398681274Y-221686128D01*
X398658070Y-221680316D01*
X398635548Y-221672258D01*
X398613924Y-221662030D01*
X398593407Y-221649733D01*
X398574194Y-221635483D01*
X398556470Y-221619419D01*
X398211755Y-221274704D01*
X398195691Y-221256980D01*
X398181441Y-221237767D01*
X398169144Y-221217250D01*
X398158916Y-221195626D01*
X398150858Y-221173104D01*
X398145046Y-221149900D01*
X398141536Y-221126239D01*
X398140362Y-221102347D01*
X398141536Y-221078455D01*
X398145046Y-221054794D01*
X398150858Y-221031590D01*
X398158916Y-221009068D01*
X398169144Y-220987444D01*
X398181441Y-220966927D01*
X398195691Y-220947714D01*
X398211755Y-220929990D01*
X398856990Y-220284755D01*
X398874714Y-220268691D01*
X398893927Y-220254441D01*
X398914444Y-220242144D01*
X398936068Y-220231916D01*
X398958590Y-220223858D01*
X398981794Y-220218046D01*
X399005455Y-220214536D01*
X399029347Y-220213362D01*
X399053239Y-220214536D01*
X399053239Y-220214536D01*
G37*
D26*
X398879087Y-220952087D03*
D12*
G36*
X400379065Y-221540362D02*
G01*
X400402726Y-221543872D01*
X400425930Y-221549684D01*
X400448452Y-221557742D01*
X400470076Y-221567970D01*
X400490593Y-221580267D01*
X400509806Y-221594517D01*
X400527530Y-221610581D01*
X400872245Y-221955296D01*
X400888309Y-221973020D01*
X400902559Y-221992233D01*
X400914856Y-222012750D01*
X400925084Y-222034374D01*
X400933142Y-222056896D01*
X400938954Y-222080100D01*
X400942464Y-222103761D01*
X400943638Y-222127653D01*
X400942464Y-222151545D01*
X400938954Y-222175206D01*
X400933142Y-222198410D01*
X400925084Y-222220932D01*
X400914856Y-222242556D01*
X400902559Y-222263073D01*
X400888309Y-222282286D01*
X400872245Y-222300010D01*
X400227010Y-222945245D01*
X400209286Y-222961309D01*
X400190073Y-222975559D01*
X400169556Y-222987856D01*
X400147932Y-222998084D01*
X400125410Y-223006142D01*
X400102206Y-223011954D01*
X400078545Y-223015464D01*
X400054653Y-223016638D01*
X400030761Y-223015464D01*
X400007100Y-223011954D01*
X399983896Y-223006142D01*
X399961374Y-222998084D01*
X399939750Y-222987856D01*
X399919233Y-222975559D01*
X399900020Y-222961309D01*
X399882296Y-222945245D01*
X399537581Y-222600530D01*
X399521517Y-222582806D01*
X399507267Y-222563593D01*
X399494970Y-222543076D01*
X399484742Y-222521452D01*
X399476684Y-222498930D01*
X399470872Y-222475726D01*
X399467362Y-222452065D01*
X399466188Y-222428173D01*
X399467362Y-222404281D01*
X399470872Y-222380620D01*
X399476684Y-222357416D01*
X399484742Y-222334894D01*
X399494970Y-222313270D01*
X399507267Y-222292753D01*
X399521517Y-222273540D01*
X399537581Y-222255816D01*
X400182816Y-221610581D01*
X400200540Y-221594517D01*
X400219753Y-221580267D01*
X400240270Y-221567970D01*
X400261894Y-221557742D01*
X400284416Y-221549684D01*
X400307620Y-221543872D01*
X400331281Y-221540362D01*
X400355173Y-221539188D01*
X400379065Y-221540362D01*
X400379065Y-221540362D01*
G37*
D26*
X400204913Y-222277913D03*
D12*
G36*
X395252545Y-209165536D02*
G01*
X395276206Y-209169046D01*
X395299410Y-209174858D01*
X395321932Y-209182916D01*
X395343556Y-209193144D01*
X395364073Y-209205441D01*
X395383286Y-209219691D01*
X395401010Y-209235755D01*
X396046245Y-209880990D01*
X396062309Y-209898714D01*
X396076559Y-209917927D01*
X396088856Y-209938444D01*
X396099084Y-209960068D01*
X396107142Y-209982590D01*
X396112954Y-210005794D01*
X396116464Y-210029455D01*
X396117638Y-210053347D01*
X396116464Y-210077239D01*
X396112954Y-210100900D01*
X396107142Y-210124104D01*
X396099084Y-210146626D01*
X396088856Y-210168250D01*
X396076559Y-210188767D01*
X396062309Y-210207980D01*
X396046245Y-210225704D01*
X395701530Y-210570419D01*
X395683806Y-210586483D01*
X395664593Y-210600733D01*
X395644076Y-210613030D01*
X395622452Y-210623258D01*
X395599930Y-210631316D01*
X395576726Y-210637128D01*
X395553065Y-210640638D01*
X395529173Y-210641812D01*
X395505281Y-210640638D01*
X395481620Y-210637128D01*
X395458416Y-210631316D01*
X395435894Y-210623258D01*
X395414270Y-210613030D01*
X395393753Y-210600733D01*
X395374540Y-210586483D01*
X395356816Y-210570419D01*
X394711581Y-209925184D01*
X394695517Y-209907460D01*
X394681267Y-209888247D01*
X394668970Y-209867730D01*
X394658742Y-209846106D01*
X394650684Y-209823584D01*
X394644872Y-209800380D01*
X394641362Y-209776719D01*
X394640188Y-209752827D01*
X394641362Y-209728935D01*
X394644872Y-209705274D01*
X394650684Y-209682070D01*
X394658742Y-209659548D01*
X394668970Y-209637924D01*
X394681267Y-209617407D01*
X394695517Y-209598194D01*
X394711581Y-209580470D01*
X395056296Y-209235755D01*
X395074020Y-209219691D01*
X395093233Y-209205441D01*
X395113750Y-209193144D01*
X395135374Y-209182916D01*
X395157896Y-209174858D01*
X395181100Y-209169046D01*
X395204761Y-209165536D01*
X395228653Y-209164362D01*
X395252545Y-209165536D01*
X395252545Y-209165536D01*
G37*
D26*
X395378913Y-209903087D03*
D12*
G36*
X393926719Y-210491362D02*
G01*
X393950380Y-210494872D01*
X393973584Y-210500684D01*
X393996106Y-210508742D01*
X394017730Y-210518970D01*
X394038247Y-210531267D01*
X394057460Y-210545517D01*
X394075184Y-210561581D01*
X394720419Y-211206816D01*
X394736483Y-211224540D01*
X394750733Y-211243753D01*
X394763030Y-211264270D01*
X394773258Y-211285894D01*
X394781316Y-211308416D01*
X394787128Y-211331620D01*
X394790638Y-211355281D01*
X394791812Y-211379173D01*
X394790638Y-211403065D01*
X394787128Y-211426726D01*
X394781316Y-211449930D01*
X394773258Y-211472452D01*
X394763030Y-211494076D01*
X394750733Y-211514593D01*
X394736483Y-211533806D01*
X394720419Y-211551530D01*
X394375704Y-211896245D01*
X394357980Y-211912309D01*
X394338767Y-211926559D01*
X394318250Y-211938856D01*
X394296626Y-211949084D01*
X394274104Y-211957142D01*
X394250900Y-211962954D01*
X394227239Y-211966464D01*
X394203347Y-211967638D01*
X394179455Y-211966464D01*
X394155794Y-211962954D01*
X394132590Y-211957142D01*
X394110068Y-211949084D01*
X394088444Y-211938856D01*
X394067927Y-211926559D01*
X394048714Y-211912309D01*
X394030990Y-211896245D01*
X393385755Y-211251010D01*
X393369691Y-211233286D01*
X393355441Y-211214073D01*
X393343144Y-211193556D01*
X393332916Y-211171932D01*
X393324858Y-211149410D01*
X393319046Y-211126206D01*
X393315536Y-211102545D01*
X393314362Y-211078653D01*
X393315536Y-211054761D01*
X393319046Y-211031100D01*
X393324858Y-211007896D01*
X393332916Y-210985374D01*
X393343144Y-210963750D01*
X393355441Y-210943233D01*
X393369691Y-210924020D01*
X393385755Y-210906296D01*
X393730470Y-210561581D01*
X393748194Y-210545517D01*
X393767407Y-210531267D01*
X393787924Y-210518970D01*
X393809548Y-210508742D01*
X393832070Y-210500684D01*
X393855274Y-210494872D01*
X393878935Y-210491362D01*
X393902827Y-210490188D01*
X393926719Y-210491362D01*
X393926719Y-210491362D01*
G37*
D26*
X394053087Y-211228913D03*
D12*
G36*
X408578239Y-206371536D02*
G01*
X408601900Y-206375046D01*
X408625104Y-206380858D01*
X408647626Y-206388916D01*
X408669250Y-206399144D01*
X408689767Y-206411441D01*
X408708980Y-206425691D01*
X408726704Y-206441755D01*
X409071419Y-206786470D01*
X409087483Y-206804194D01*
X409101733Y-206823407D01*
X409114030Y-206843924D01*
X409124258Y-206865548D01*
X409132316Y-206888070D01*
X409138128Y-206911274D01*
X409141638Y-206934935D01*
X409142812Y-206958827D01*
X409141638Y-206982719D01*
X409138128Y-207006380D01*
X409132316Y-207029584D01*
X409124258Y-207052106D01*
X409114030Y-207073730D01*
X409101733Y-207094247D01*
X409087483Y-207113460D01*
X409071419Y-207131184D01*
X408426184Y-207776419D01*
X408408460Y-207792483D01*
X408389247Y-207806733D01*
X408368730Y-207819030D01*
X408347106Y-207829258D01*
X408324584Y-207837316D01*
X408301380Y-207843128D01*
X408277719Y-207846638D01*
X408253827Y-207847812D01*
X408229935Y-207846638D01*
X408206274Y-207843128D01*
X408183070Y-207837316D01*
X408160548Y-207829258D01*
X408138924Y-207819030D01*
X408118407Y-207806733D01*
X408099194Y-207792483D01*
X408081470Y-207776419D01*
X407736755Y-207431704D01*
X407720691Y-207413980D01*
X407706441Y-207394767D01*
X407694144Y-207374250D01*
X407683916Y-207352626D01*
X407675858Y-207330104D01*
X407670046Y-207306900D01*
X407666536Y-207283239D01*
X407665362Y-207259347D01*
X407666536Y-207235455D01*
X407670046Y-207211794D01*
X407675858Y-207188590D01*
X407683916Y-207166068D01*
X407694144Y-207144444D01*
X407706441Y-207123927D01*
X407720691Y-207104714D01*
X407736755Y-207086990D01*
X408381990Y-206441755D01*
X408399714Y-206425691D01*
X408418927Y-206411441D01*
X408439444Y-206399144D01*
X408461068Y-206388916D01*
X408483590Y-206380858D01*
X408506794Y-206375046D01*
X408530455Y-206371536D01*
X408554347Y-206370362D01*
X408578239Y-206371536D01*
X408578239Y-206371536D01*
G37*
D26*
X408404087Y-207109087D03*
D12*
G36*
X409904065Y-207697362D02*
G01*
X409927726Y-207700872D01*
X409950930Y-207706684D01*
X409973452Y-207714742D01*
X409995076Y-207724970D01*
X410015593Y-207737267D01*
X410034806Y-207751517D01*
X410052530Y-207767581D01*
X410397245Y-208112296D01*
X410413309Y-208130020D01*
X410427559Y-208149233D01*
X410439856Y-208169750D01*
X410450084Y-208191374D01*
X410458142Y-208213896D01*
X410463954Y-208237100D01*
X410467464Y-208260761D01*
X410468638Y-208284653D01*
X410467464Y-208308545D01*
X410463954Y-208332206D01*
X410458142Y-208355410D01*
X410450084Y-208377932D01*
X410439856Y-208399556D01*
X410427559Y-208420073D01*
X410413309Y-208439286D01*
X410397245Y-208457010D01*
X409752010Y-209102245D01*
X409734286Y-209118309D01*
X409715073Y-209132559D01*
X409694556Y-209144856D01*
X409672932Y-209155084D01*
X409650410Y-209163142D01*
X409627206Y-209168954D01*
X409603545Y-209172464D01*
X409579653Y-209173638D01*
X409555761Y-209172464D01*
X409532100Y-209168954D01*
X409508896Y-209163142D01*
X409486374Y-209155084D01*
X409464750Y-209144856D01*
X409444233Y-209132559D01*
X409425020Y-209118309D01*
X409407296Y-209102245D01*
X409062581Y-208757530D01*
X409046517Y-208739806D01*
X409032267Y-208720593D01*
X409019970Y-208700076D01*
X409009742Y-208678452D01*
X409001684Y-208655930D01*
X408995872Y-208632726D01*
X408992362Y-208609065D01*
X408991188Y-208585173D01*
X408992362Y-208561281D01*
X408995872Y-208537620D01*
X409001684Y-208514416D01*
X409009742Y-208491894D01*
X409019970Y-208470270D01*
X409032267Y-208449753D01*
X409046517Y-208430540D01*
X409062581Y-208412816D01*
X409707816Y-207767581D01*
X409725540Y-207751517D01*
X409744753Y-207737267D01*
X409765270Y-207724970D01*
X409786894Y-207714742D01*
X409809416Y-207706684D01*
X409832620Y-207700872D01*
X409856281Y-207697362D01*
X409880173Y-207696188D01*
X409904065Y-207697362D01*
X409904065Y-207697362D01*
G37*
D26*
X409729913Y-208434913D03*
D12*
G36*
X412341719Y-216079362D02*
G01*
X412365380Y-216082872D01*
X412388584Y-216088684D01*
X412411106Y-216096742D01*
X412432730Y-216106970D01*
X412453247Y-216119267D01*
X412472460Y-216133517D01*
X412490184Y-216149581D01*
X413135419Y-216794816D01*
X413151483Y-216812540D01*
X413165733Y-216831753D01*
X413178030Y-216852270D01*
X413188258Y-216873894D01*
X413196316Y-216896416D01*
X413202128Y-216919620D01*
X413205638Y-216943281D01*
X413206812Y-216967173D01*
X413205638Y-216991065D01*
X413202128Y-217014726D01*
X413196316Y-217037930D01*
X413188258Y-217060452D01*
X413178030Y-217082076D01*
X413165733Y-217102593D01*
X413151483Y-217121806D01*
X413135419Y-217139530D01*
X412790704Y-217484245D01*
X412772980Y-217500309D01*
X412753767Y-217514559D01*
X412733250Y-217526856D01*
X412711626Y-217537084D01*
X412689104Y-217545142D01*
X412665900Y-217550954D01*
X412642239Y-217554464D01*
X412618347Y-217555638D01*
X412594455Y-217554464D01*
X412570794Y-217550954D01*
X412547590Y-217545142D01*
X412525068Y-217537084D01*
X412503444Y-217526856D01*
X412482927Y-217514559D01*
X412463714Y-217500309D01*
X412445990Y-217484245D01*
X411800755Y-216839010D01*
X411784691Y-216821286D01*
X411770441Y-216802073D01*
X411758144Y-216781556D01*
X411747916Y-216759932D01*
X411739858Y-216737410D01*
X411734046Y-216714206D01*
X411730536Y-216690545D01*
X411729362Y-216666653D01*
X411730536Y-216642761D01*
X411734046Y-216619100D01*
X411739858Y-216595896D01*
X411747916Y-216573374D01*
X411758144Y-216551750D01*
X411770441Y-216531233D01*
X411784691Y-216512020D01*
X411800755Y-216494296D01*
X412145470Y-216149581D01*
X412163194Y-216133517D01*
X412182407Y-216119267D01*
X412202924Y-216106970D01*
X412224548Y-216096742D01*
X412247070Y-216088684D01*
X412270274Y-216082872D01*
X412293935Y-216079362D01*
X412317827Y-216078188D01*
X412341719Y-216079362D01*
X412341719Y-216079362D01*
G37*
D26*
X412468087Y-216816913D03*
D12*
G36*
X413667545Y-214753536D02*
G01*
X413691206Y-214757046D01*
X413714410Y-214762858D01*
X413736932Y-214770916D01*
X413758556Y-214781144D01*
X413779073Y-214793441D01*
X413798286Y-214807691D01*
X413816010Y-214823755D01*
X414461245Y-215468990D01*
X414477309Y-215486714D01*
X414491559Y-215505927D01*
X414503856Y-215526444D01*
X414514084Y-215548068D01*
X414522142Y-215570590D01*
X414527954Y-215593794D01*
X414531464Y-215617455D01*
X414532638Y-215641347D01*
X414531464Y-215665239D01*
X414527954Y-215688900D01*
X414522142Y-215712104D01*
X414514084Y-215734626D01*
X414503856Y-215756250D01*
X414491559Y-215776767D01*
X414477309Y-215795980D01*
X414461245Y-215813704D01*
X414116530Y-216158419D01*
X414098806Y-216174483D01*
X414079593Y-216188733D01*
X414059076Y-216201030D01*
X414037452Y-216211258D01*
X414014930Y-216219316D01*
X413991726Y-216225128D01*
X413968065Y-216228638D01*
X413944173Y-216229812D01*
X413920281Y-216228638D01*
X413896620Y-216225128D01*
X413873416Y-216219316D01*
X413850894Y-216211258D01*
X413829270Y-216201030D01*
X413808753Y-216188733D01*
X413789540Y-216174483D01*
X413771816Y-216158419D01*
X413126581Y-215513184D01*
X413110517Y-215495460D01*
X413096267Y-215476247D01*
X413083970Y-215455730D01*
X413073742Y-215434106D01*
X413065684Y-215411584D01*
X413059872Y-215388380D01*
X413056362Y-215364719D01*
X413055188Y-215340827D01*
X413056362Y-215316935D01*
X413059872Y-215293274D01*
X413065684Y-215270070D01*
X413073742Y-215247548D01*
X413083970Y-215225924D01*
X413096267Y-215205407D01*
X413110517Y-215186194D01*
X413126581Y-215168470D01*
X413471296Y-214823755D01*
X413489020Y-214807691D01*
X413508233Y-214793441D01*
X413528750Y-214781144D01*
X413550374Y-214770916D01*
X413572896Y-214762858D01*
X413596100Y-214757046D01*
X413619761Y-214753536D01*
X413643653Y-214752362D01*
X413667545Y-214753536D01*
X413667545Y-214753536D01*
G37*
D26*
X413793913Y-215491087D03*
D12*
G36*
X399895719Y-204649362D02*
G01*
X399919380Y-204652872D01*
X399942584Y-204658684D01*
X399965106Y-204666742D01*
X399986730Y-204676970D01*
X400007247Y-204689267D01*
X400026460Y-204703517D01*
X400044184Y-204719581D01*
X400689419Y-205364816D01*
X400705483Y-205382540D01*
X400719733Y-205401753D01*
X400732030Y-205422270D01*
X400742258Y-205443894D01*
X400750316Y-205466416D01*
X400756128Y-205489620D01*
X400759638Y-205513281D01*
X400760812Y-205537173D01*
X400759638Y-205561065D01*
X400756128Y-205584726D01*
X400750316Y-205607930D01*
X400742258Y-205630452D01*
X400732030Y-205652076D01*
X400719733Y-205672593D01*
X400705483Y-205691806D01*
X400689419Y-205709530D01*
X400344704Y-206054245D01*
X400326980Y-206070309D01*
X400307767Y-206084559D01*
X400287250Y-206096856D01*
X400265626Y-206107084D01*
X400243104Y-206115142D01*
X400219900Y-206120954D01*
X400196239Y-206124464D01*
X400172347Y-206125638D01*
X400148455Y-206124464D01*
X400124794Y-206120954D01*
X400101590Y-206115142D01*
X400079068Y-206107084D01*
X400057444Y-206096856D01*
X400036927Y-206084559D01*
X400017714Y-206070309D01*
X399999990Y-206054245D01*
X399354755Y-205409010D01*
X399338691Y-205391286D01*
X399324441Y-205372073D01*
X399312144Y-205351556D01*
X399301916Y-205329932D01*
X399293858Y-205307410D01*
X399288046Y-205284206D01*
X399284536Y-205260545D01*
X399283362Y-205236653D01*
X399284536Y-205212761D01*
X399288046Y-205189100D01*
X399293858Y-205165896D01*
X399301916Y-205143374D01*
X399312144Y-205121750D01*
X399324441Y-205101233D01*
X399338691Y-205082020D01*
X399354755Y-205064296D01*
X399699470Y-204719581D01*
X399717194Y-204703517D01*
X399736407Y-204689267D01*
X399756924Y-204676970D01*
X399778548Y-204666742D01*
X399801070Y-204658684D01*
X399824274Y-204652872D01*
X399847935Y-204649362D01*
X399871827Y-204648188D01*
X399895719Y-204649362D01*
X399895719Y-204649362D01*
G37*
D26*
X400022087Y-205386913D03*
D12*
G36*
X401221545Y-203323536D02*
G01*
X401245206Y-203327046D01*
X401268410Y-203332858D01*
X401290932Y-203340916D01*
X401312556Y-203351144D01*
X401333073Y-203363441D01*
X401352286Y-203377691D01*
X401370010Y-203393755D01*
X402015245Y-204038990D01*
X402031309Y-204056714D01*
X402045559Y-204075927D01*
X402057856Y-204096444D01*
X402068084Y-204118068D01*
X402076142Y-204140590D01*
X402081954Y-204163794D01*
X402085464Y-204187455D01*
X402086638Y-204211347D01*
X402085464Y-204235239D01*
X402081954Y-204258900D01*
X402076142Y-204282104D01*
X402068084Y-204304626D01*
X402057856Y-204326250D01*
X402045559Y-204346767D01*
X402031309Y-204365980D01*
X402015245Y-204383704D01*
X401670530Y-204728419D01*
X401652806Y-204744483D01*
X401633593Y-204758733D01*
X401613076Y-204771030D01*
X401591452Y-204781258D01*
X401568930Y-204789316D01*
X401545726Y-204795128D01*
X401522065Y-204798638D01*
X401498173Y-204799812D01*
X401474281Y-204798638D01*
X401450620Y-204795128D01*
X401427416Y-204789316D01*
X401404894Y-204781258D01*
X401383270Y-204771030D01*
X401362753Y-204758733D01*
X401343540Y-204744483D01*
X401325816Y-204728419D01*
X400680581Y-204083184D01*
X400664517Y-204065460D01*
X400650267Y-204046247D01*
X400637970Y-204025730D01*
X400627742Y-204004106D01*
X400619684Y-203981584D01*
X400613872Y-203958380D01*
X400610362Y-203934719D01*
X400609188Y-203910827D01*
X400610362Y-203886935D01*
X400613872Y-203863274D01*
X400619684Y-203840070D01*
X400627742Y-203817548D01*
X400637970Y-203795924D01*
X400650267Y-203775407D01*
X400664517Y-203756194D01*
X400680581Y-203738470D01*
X401025296Y-203393755D01*
X401043020Y-203377691D01*
X401062233Y-203363441D01*
X401082750Y-203351144D01*
X401104374Y-203340916D01*
X401126896Y-203332858D01*
X401150100Y-203327046D01*
X401173761Y-203323536D01*
X401197653Y-203322362D01*
X401221545Y-203323536D01*
X401221545Y-203323536D01*
G37*
D26*
X401347913Y-204061087D03*
D12*
G36*
X410920065Y-205538362D02*
G01*
X410943726Y-205541872D01*
X410966930Y-205547684D01*
X410989452Y-205555742D01*
X411011076Y-205565970D01*
X411031593Y-205578267D01*
X411050806Y-205592517D01*
X411068530Y-205608581D01*
X411413245Y-205953296D01*
X411429309Y-205971020D01*
X411443559Y-205990233D01*
X411455856Y-206010750D01*
X411466084Y-206032374D01*
X411474142Y-206054896D01*
X411479954Y-206078100D01*
X411483464Y-206101761D01*
X411484638Y-206125653D01*
X411483464Y-206149545D01*
X411479954Y-206173206D01*
X411474142Y-206196410D01*
X411466084Y-206218932D01*
X411455856Y-206240556D01*
X411443559Y-206261073D01*
X411429309Y-206280286D01*
X411413245Y-206298010D01*
X410768010Y-206943245D01*
X410750286Y-206959309D01*
X410731073Y-206973559D01*
X410710556Y-206985856D01*
X410688932Y-206996084D01*
X410666410Y-207004142D01*
X410643206Y-207009954D01*
X410619545Y-207013464D01*
X410595653Y-207014638D01*
X410571761Y-207013464D01*
X410548100Y-207009954D01*
X410524896Y-207004142D01*
X410502374Y-206996084D01*
X410480750Y-206985856D01*
X410460233Y-206973559D01*
X410441020Y-206959309D01*
X410423296Y-206943245D01*
X410078581Y-206598530D01*
X410062517Y-206580806D01*
X410048267Y-206561593D01*
X410035970Y-206541076D01*
X410025742Y-206519452D01*
X410017684Y-206496930D01*
X410011872Y-206473726D01*
X410008362Y-206450065D01*
X410007188Y-206426173D01*
X410008362Y-206402281D01*
X410011872Y-206378620D01*
X410017684Y-206355416D01*
X410025742Y-206332894D01*
X410035970Y-206311270D01*
X410048267Y-206290753D01*
X410062517Y-206271540D01*
X410078581Y-206253816D01*
X410723816Y-205608581D01*
X410741540Y-205592517D01*
X410760753Y-205578267D01*
X410781270Y-205565970D01*
X410802894Y-205555742D01*
X410825416Y-205547684D01*
X410848620Y-205541872D01*
X410872281Y-205538362D01*
X410896173Y-205537188D01*
X410920065Y-205538362D01*
X410920065Y-205538362D01*
G37*
D26*
X410745913Y-206275913D03*
D12*
G36*
X409594239Y-204212536D02*
G01*
X409617900Y-204216046D01*
X409641104Y-204221858D01*
X409663626Y-204229916D01*
X409685250Y-204240144D01*
X409705767Y-204252441D01*
X409724980Y-204266691D01*
X409742704Y-204282755D01*
X410087419Y-204627470D01*
X410103483Y-204645194D01*
X410117733Y-204664407D01*
X410130030Y-204684924D01*
X410140258Y-204706548D01*
X410148316Y-204729070D01*
X410154128Y-204752274D01*
X410157638Y-204775935D01*
X410158812Y-204799827D01*
X410157638Y-204823719D01*
X410154128Y-204847380D01*
X410148316Y-204870584D01*
X410140258Y-204893106D01*
X410130030Y-204914730D01*
X410117733Y-204935247D01*
X410103483Y-204954460D01*
X410087419Y-204972184D01*
X409442184Y-205617419D01*
X409424460Y-205633483D01*
X409405247Y-205647733D01*
X409384730Y-205660030D01*
X409363106Y-205670258D01*
X409340584Y-205678316D01*
X409317380Y-205684128D01*
X409293719Y-205687638D01*
X409269827Y-205688812D01*
X409245935Y-205687638D01*
X409222274Y-205684128D01*
X409199070Y-205678316D01*
X409176548Y-205670258D01*
X409154924Y-205660030D01*
X409134407Y-205647733D01*
X409115194Y-205633483D01*
X409097470Y-205617419D01*
X408752755Y-205272704D01*
X408736691Y-205254980D01*
X408722441Y-205235767D01*
X408710144Y-205215250D01*
X408699916Y-205193626D01*
X408691858Y-205171104D01*
X408686046Y-205147900D01*
X408682536Y-205124239D01*
X408681362Y-205100347D01*
X408682536Y-205076455D01*
X408686046Y-205052794D01*
X408691858Y-205029590D01*
X408699916Y-205007068D01*
X408710144Y-204985444D01*
X408722441Y-204964927D01*
X408736691Y-204945714D01*
X408752755Y-204927990D01*
X409397990Y-204282755D01*
X409415714Y-204266691D01*
X409434927Y-204252441D01*
X409455444Y-204240144D01*
X409477068Y-204229916D01*
X409499590Y-204221858D01*
X409522794Y-204216046D01*
X409546455Y-204212536D01*
X409570347Y-204211362D01*
X409594239Y-204212536D01*
X409594239Y-204212536D01*
G37*
D26*
X409420087Y-204950087D03*
D28*
X312975000Y-235055000D03*
X307975000Y-235055000D03*
D29*
X316075000Y-242055000D03*
X304875000Y-242055000D03*
D28*
X312975000Y-249555000D03*
X310475000Y-249555000D03*
D30*
X307975000Y-249555000D03*
D31*
X220853000Y-222251000D03*
X220853000Y-225551000D03*
D28*
X198675000Y-216005000D03*
X193675000Y-216005000D03*
D29*
X201775000Y-223005000D03*
X190575000Y-223005000D03*
D28*
X198675000Y-230505000D03*
X196175000Y-230505000D03*
D30*
X193675000Y-230505000D03*
D15*
X417830000Y-203993750D03*
X407670000Y-203993750D03*
D13*
X408940000Y-201453750D03*
D14*
X412750000Y-203993750D03*
D13*
X415290000Y-198913750D03*
D15*
X289242500Y-242093750D03*
X279082500Y-242093750D03*
D13*
X280352500Y-239553750D03*
D14*
X284162500Y-242093750D03*
D13*
X286702500Y-237013750D03*
D15*
X217805000Y-223043750D03*
X207645000Y-223043750D03*
D13*
X208915000Y-220503750D03*
D14*
X212725000Y-223043750D03*
D13*
X215265000Y-217963750D03*
D15*
X208280000Y-203993750D03*
X198120000Y-203993750D03*
D13*
X199390000Y-201453750D03*
D14*
X203200000Y-203993750D03*
D13*
X205740000Y-198913750D03*
D15*
X248761250Y-242093750D03*
X238601250Y-242093750D03*
D13*
X239871250Y-239553750D03*
D14*
X243681250Y-242093750D03*
D13*
X246221250Y-237013750D03*
D15*
X320198750Y-242093750D03*
X310038750Y-242093750D03*
D13*
X311308750Y-239553750D03*
D14*
X315118750Y-242093750D03*
D13*
X317658750Y-237013750D03*
D14*
X343693750Y-233838750D03*
X265118850Y-233838750D03*
D32*
X343693750Y-249078750D03*
X265118850Y-249078750D03*
D28*
X424735000Y-216005000D03*
X419735000Y-216005000D03*
D29*
X427835000Y-223005000D03*
X416635000Y-223005000D03*
D28*
X424735000Y-230505000D03*
X422235000Y-230505000D03*
D30*
X419735000Y-230505000D03*
D28*
X427148000Y-177905000D03*
X422148000Y-177905000D03*
D29*
X430248000Y-184905000D03*
X419048000Y-184905000D03*
D28*
X427148000Y-192405000D03*
X424648000Y-192405000D03*
D30*
X422148000Y-192405000D03*
D28*
X200961000Y-177905000D03*
X195961000Y-177905000D03*
D29*
X204061000Y-184905000D03*
X192861000Y-184905000D03*
D28*
X200961000Y-192405000D03*
X198461000Y-192405000D03*
D30*
X195961000Y-192405000D03*
D15*
X402907500Y-184943750D03*
X413067500Y-184943750D03*
D13*
X411797500Y-187483750D03*
D14*
X407987500Y-184943750D03*
D13*
X405447500Y-190023750D03*
D31*
X430276000Y-188850000D03*
X430276000Y-192150000D03*
D15*
X298767500Y-242093750D03*
X288607500Y-242093750D03*
D13*
X289877500Y-239553750D03*
D14*
X293687500Y-242093750D03*
D13*
X296227500Y-237013750D03*
D15*
X336867500Y-242093750D03*
X326707500Y-242093750D03*
D13*
X327977500Y-239553750D03*
D14*
X331787500Y-242093750D03*
D13*
X334327500Y-237013750D03*
D14*
X355600000Y-233838750D03*
X317500000Y-233838750D03*
D32*
X355600000Y-249078750D03*
X317500000Y-249078750D03*
D14*
X348456250Y-233838750D03*
X324643750Y-233838750D03*
D32*
X348456250Y-249078750D03*
X324643750Y-249078750D03*
D15*
X341630000Y-242093750D03*
X331470000Y-242093750D03*
D14*
X336550000Y-242093750D03*
D13*
X332740000Y-239553750D03*
X339090000Y-237013750D03*
X315277500Y-237013750D03*
D14*
X312737500Y-242093750D03*
D13*
X308927500Y-239553750D03*
D15*
X307657500Y-242093750D03*
X317817500Y-242093750D03*
D32*
X265112500Y-249078750D03*
X360362500Y-249078750D03*
D14*
X265112500Y-233838750D03*
X360362500Y-233838750D03*
X331787500Y-233838750D03*
X293687500Y-233838750D03*
D32*
X331787500Y-249078750D03*
X293687500Y-249078750D03*
D15*
X264795000Y-242093750D03*
X274955000Y-242093750D03*
D13*
X273685000Y-244633750D03*
D14*
X269875000Y-242093750D03*
D13*
X267335000Y-247173750D03*
D15*
X253523750Y-242093750D03*
X243363750Y-242093750D03*
D13*
X244633750Y-239553750D03*
D14*
X248443750Y-242093750D03*
D13*
X250983750Y-237013750D03*
D15*
X229711250Y-242093750D03*
X219551250Y-242093750D03*
D13*
X220821250Y-239553750D03*
D14*
X224631250Y-242093750D03*
D13*
X227171250Y-237013750D03*
X293846250Y-237013750D03*
D14*
X291306250Y-242093750D03*
D13*
X287496250Y-239553750D03*
D15*
X286226250Y-242093750D03*
X296386250Y-242093750D03*
D32*
X279400000Y-249078750D03*
X303212500Y-249078750D03*
D14*
X279400000Y-233838750D03*
X303212500Y-233838750D03*
D13*
X281940000Y-237013750D03*
X275590000Y-239553750D03*
D14*
X279400000Y-242093750D03*
D15*
X274320000Y-242093750D03*
X284480000Y-242093750D03*
D32*
X260350000Y-249078750D03*
X298450000Y-249078750D03*
D14*
X260350000Y-233838750D03*
X298450000Y-233838750D03*
D13*
X424815000Y-237013750D03*
D14*
X422275000Y-242093750D03*
D13*
X418465000Y-239553750D03*
D15*
X417195000Y-242093750D03*
X427355000Y-242093750D03*
D13*
X422433750Y-237013750D03*
D14*
X419893750Y-242093750D03*
D13*
X416083750Y-239553750D03*
D15*
X414813750Y-242093750D03*
X424973750Y-242093750D03*
D13*
X405765000Y-237013750D03*
D14*
X403225000Y-242093750D03*
D13*
X399415000Y-239553750D03*
D15*
X398145000Y-242093750D03*
X408305000Y-242093750D03*
D13*
X401002500Y-237013750D03*
D14*
X398462500Y-242093750D03*
D13*
X394652500Y-239553750D03*
D15*
X393382500Y-242093750D03*
X403542500Y-242093750D03*
D13*
X386715000Y-237013750D03*
D14*
X384175000Y-242093750D03*
D13*
X380365000Y-239553750D03*
D15*
X379095000Y-242093750D03*
X389255000Y-242093750D03*
D13*
X374491250Y-247173750D03*
D14*
X377031250Y-242093750D03*
D13*
X380841250Y-244633750D03*
D15*
X382111250Y-242093750D03*
X371951250Y-242093750D03*
D13*
X367665000Y-237013750D03*
D14*
X365125000Y-242093750D03*
D13*
X361315000Y-239553750D03*
D15*
X360045000Y-242093750D03*
X370205000Y-242093750D03*
D13*
X365283750Y-237013750D03*
D14*
X362743750Y-242093750D03*
D13*
X358933750Y-239553750D03*
D15*
X357663750Y-242093750D03*
X367823750Y-242093750D03*
D13*
X265271250Y-237013750D03*
D14*
X262731250Y-242093750D03*
D13*
X258921250Y-239553750D03*
D15*
X257651250Y-242093750D03*
X267811250Y-242093750D03*
D13*
X258127500Y-237013750D03*
D14*
X255587500Y-242093750D03*
D13*
X251777500Y-239553750D03*
D15*
X250507500Y-242093750D03*
X260667500Y-242093750D03*
D13*
X243840000Y-237013750D03*
D14*
X241300000Y-242093750D03*
D13*
X237490000Y-239553750D03*
D15*
X236220000Y-242093750D03*
X246380000Y-242093750D03*
D13*
X239077500Y-237013750D03*
D14*
X236537500Y-242093750D03*
D13*
X232727500Y-239553750D03*
D15*
X231457500Y-242093750D03*
X241617500Y-242093750D03*
D13*
X224790000Y-237013750D03*
D14*
X222250000Y-242093750D03*
D13*
X218440000Y-239553750D03*
D15*
X217170000Y-242093750D03*
X227330000Y-242093750D03*
D13*
X220027500Y-237013750D03*
D14*
X217487500Y-242093750D03*
D13*
X213677500Y-239553750D03*
D15*
X212407500Y-242093750D03*
X222567500Y-242093750D03*
D13*
X222408750Y-237013750D03*
D14*
X219868750Y-242093750D03*
D13*
X216058750Y-239553750D03*
D15*
X214788750Y-242093750D03*
X224948750Y-242093750D03*
D13*
X203358750Y-237013750D03*
D14*
X200818750Y-242093750D03*
D13*
X197008750Y-239553750D03*
D15*
X195738750Y-242093750D03*
X205898750Y-242093750D03*
D13*
X200977500Y-237013750D03*
D14*
X198437500Y-242093750D03*
D13*
X194627500Y-239553750D03*
D15*
X193357500Y-242093750D03*
X203517500Y-242093750D03*
D13*
X400685000Y-228123750D03*
D14*
X403225000Y-223043750D03*
D13*
X407035000Y-225583750D03*
D15*
X408305000Y-223043750D03*
X398145000Y-223043750D03*
D13*
X386715000Y-217963750D03*
D14*
X384175000Y-223043750D03*
D13*
X380365000Y-220503750D03*
D15*
X379095000Y-223043750D03*
X389255000Y-223043750D03*
D13*
X367665000Y-217963750D03*
D14*
X365125000Y-223043750D03*
D13*
X361315000Y-220503750D03*
D15*
X360045000Y-223043750D03*
X370205000Y-223043750D03*
D13*
X348615000Y-217963750D03*
D14*
X346075000Y-223043750D03*
D13*
X342265000Y-220503750D03*
D15*
X340995000Y-223043750D03*
X351155000Y-223043750D03*
D13*
X329565000Y-217963750D03*
D14*
X327025000Y-223043750D03*
D13*
X323215000Y-220503750D03*
D15*
X321945000Y-223043750D03*
X332105000Y-223043750D03*
D13*
X310515000Y-217963750D03*
D14*
X307975000Y-223043750D03*
D13*
X304165000Y-220503750D03*
D15*
X302895000Y-223043750D03*
X313055000Y-223043750D03*
D13*
X291465000Y-217963750D03*
D14*
X288925000Y-223043750D03*
D13*
X285115000Y-220503750D03*
D15*
X283845000Y-223043750D03*
X294005000Y-223043750D03*
D13*
X272415000Y-217963750D03*
D14*
X269875000Y-223043750D03*
D13*
X266065000Y-220503750D03*
D15*
X264795000Y-223043750D03*
X274955000Y-223043750D03*
D13*
X253365000Y-217963750D03*
D14*
X250825000Y-223043750D03*
D13*
X247015000Y-220503750D03*
D15*
X245745000Y-223043750D03*
X255905000Y-223043750D03*
D13*
X234315000Y-217963750D03*
D14*
X231775000Y-223043750D03*
D13*
X227965000Y-220503750D03*
D15*
X226695000Y-223043750D03*
X236855000Y-223043750D03*
D13*
X208121250Y-217963750D03*
D14*
X205581250Y-223043750D03*
D13*
X201771250Y-220503750D03*
D15*
X200501250Y-223043750D03*
X210661250Y-223043750D03*
D13*
X420052500Y-198913750D03*
D14*
X417512500Y-203993750D03*
D13*
X413702500Y-201453750D03*
D15*
X412432500Y-203993750D03*
X422592500Y-203993750D03*
D13*
X396240000Y-198913750D03*
D14*
X393700000Y-203993750D03*
D13*
X389890000Y-201453750D03*
D15*
X388620000Y-203993750D03*
X398780000Y-203993750D03*
D13*
X377190000Y-198913750D03*
D14*
X374650000Y-203993750D03*
D13*
X370840000Y-201453750D03*
D15*
X369570000Y-203993750D03*
X379730000Y-203993750D03*
D13*
X358140000Y-198913750D03*
D14*
X355600000Y-203993750D03*
D13*
X351790000Y-201453750D03*
D15*
X350520000Y-203993750D03*
X360680000Y-203993750D03*
D13*
X339090000Y-198913750D03*
D14*
X336550000Y-203993750D03*
D13*
X332740000Y-201453750D03*
D15*
X331470000Y-203993750D03*
X341630000Y-203993750D03*
D13*
X320040000Y-198913750D03*
D14*
X317500000Y-203993750D03*
D13*
X313690000Y-201453750D03*
D15*
X312420000Y-203993750D03*
X322580000Y-203993750D03*
D13*
X300990000Y-198913750D03*
D14*
X298450000Y-203993750D03*
D13*
X294640000Y-201453750D03*
D15*
X293370000Y-203993750D03*
X303530000Y-203993750D03*
D13*
X281940000Y-198913750D03*
D14*
X279400000Y-203993750D03*
D13*
X275590000Y-201453750D03*
D15*
X274320000Y-203993750D03*
X284480000Y-203993750D03*
D13*
X262890000Y-198913750D03*
D14*
X260350000Y-203993750D03*
D13*
X256540000Y-201453750D03*
D15*
X255270000Y-203993750D03*
X265430000Y-203993750D03*
D13*
X243840000Y-198913750D03*
D14*
X241300000Y-203993750D03*
D13*
X237490000Y-201453750D03*
D15*
X236220000Y-203993750D03*
X246380000Y-203993750D03*
D13*
X224790000Y-198913750D03*
D14*
X222250000Y-203993750D03*
D13*
X218440000Y-201453750D03*
D15*
X217170000Y-203993750D03*
X227330000Y-203993750D03*
D13*
X203358750Y-198913750D03*
D14*
X200818750Y-203993750D03*
D13*
X197008750Y-201453750D03*
D15*
X195738750Y-203993750D03*
X205898750Y-203993750D03*
D13*
X417671250Y-179863750D03*
D14*
X415131250Y-184943750D03*
D13*
X411321250Y-182403750D03*
D15*
X410051250Y-184943750D03*
X420211250Y-184943750D03*
D13*
X391477500Y-179863750D03*
D14*
X388937500Y-184943750D03*
D13*
X385127500Y-182403750D03*
D15*
X383857500Y-184943750D03*
X394017500Y-184943750D03*
D13*
X372427500Y-179863750D03*
D14*
X369887500Y-184943750D03*
D13*
X366077500Y-182403750D03*
D15*
X364807500Y-184943750D03*
X374967500Y-184943750D03*
D13*
X353377500Y-179863750D03*
D14*
X350837500Y-184943750D03*
D13*
X347027500Y-182403750D03*
D15*
X345757500Y-184943750D03*
X355917500Y-184943750D03*
D13*
X334327500Y-179863750D03*
D14*
X331787500Y-184943750D03*
D13*
X327977500Y-182403750D03*
D15*
X326707500Y-184943750D03*
X336867500Y-184943750D03*
D13*
X315277500Y-179863750D03*
D14*
X312737500Y-184943750D03*
D13*
X308927500Y-182403750D03*
D15*
X307657500Y-184943750D03*
X317817500Y-184943750D03*
D13*
X296227500Y-179863750D03*
D14*
X293687500Y-184943750D03*
D13*
X289877500Y-182403750D03*
D15*
X288607500Y-184943750D03*
X298767500Y-184943750D03*
D13*
X277177500Y-179863750D03*
D14*
X274637500Y-184943750D03*
D13*
X270827500Y-182403750D03*
D15*
X269557500Y-184943750D03*
X279717500Y-184943750D03*
D13*
X258127500Y-179863750D03*
D14*
X255587500Y-184943750D03*
D13*
X251777500Y-182403750D03*
D15*
X250507500Y-184943750D03*
X260667500Y-184943750D03*
D13*
X239077500Y-179863750D03*
D14*
X236537500Y-184943750D03*
D13*
X232727500Y-182403750D03*
D15*
X231457500Y-184943750D03*
X241617500Y-184943750D03*
D13*
X220027500Y-179863750D03*
D14*
X217487500Y-184943750D03*
D13*
X213677500Y-182403750D03*
D15*
X212407500Y-184943750D03*
X222567500Y-184943750D03*
D13*
X200977500Y-179863750D03*
D14*
X198437500Y-184943750D03*
D13*
X194627500Y-182403750D03*
D15*
X193357500Y-184943750D03*
X203517500Y-184943750D03*
D31*
X206962500Y-187474750D03*
X206962500Y-184174750D03*
X226012500Y-187474750D03*
X226012500Y-184174750D03*
X245062500Y-187474750D03*
X245062500Y-184174750D03*
X264112500Y-187474750D03*
X264112500Y-184174750D03*
X283162500Y-187474750D03*
X283162500Y-184174750D03*
X302212500Y-187474750D03*
X302212500Y-184174750D03*
X321262500Y-187474750D03*
X321262500Y-184174750D03*
X340312500Y-187474750D03*
X340312500Y-184174750D03*
X359362500Y-187474750D03*
X359362500Y-184174750D03*
X378412500Y-187474750D03*
X378412500Y-184174750D03*
X396367000Y-187474750D03*
X396367000Y-184174750D03*
X409829000Y-191896000D03*
X409829000Y-188596000D03*
X211137500Y-206501000D03*
X211137500Y-203201000D03*
X230775000Y-206524750D03*
X230775000Y-203224750D03*
X249825000Y-206524750D03*
X249825000Y-203224750D03*
X268875000Y-206524750D03*
X268875000Y-203224750D03*
X287925000Y-206524750D03*
X287925000Y-203224750D03*
X306975000Y-206524750D03*
X306975000Y-203224750D03*
X326025000Y-206524750D03*
X326025000Y-203224750D03*
X345075000Y-206524750D03*
X345075000Y-203224750D03*
X364125000Y-206524750D03*
X364125000Y-203224750D03*
X383175000Y-206524750D03*
X383175000Y-203224750D03*
X393446000Y-195327000D03*
X393446000Y-198627000D03*
X426466000Y-206501000D03*
X426466000Y-203201000D03*
X203200000Y-230758000D03*
X203200000Y-227458000D03*
X240300000Y-225574750D03*
X240300000Y-222274750D03*
X259350000Y-225574750D03*
X259350000Y-222274750D03*
X278400000Y-225574750D03*
X278400000Y-222274750D03*
X297450000Y-225574750D03*
X297450000Y-222274750D03*
X316500000Y-225574750D03*
X316500000Y-222274750D03*
X335550000Y-225574750D03*
X335550000Y-222274750D03*
X354600000Y-225574750D03*
X354600000Y-222274750D03*
X373650000Y-225574750D03*
X373650000Y-222274750D03*
X392700000Y-225574750D03*
X392700000Y-222274750D03*
X411607000Y-227839000D03*
X411607000Y-231139000D03*
X430276000Y-225574750D03*
X430276000Y-222274750D03*
X209232500Y-248569750D03*
X209232500Y-245269750D03*
X233299000Y-248538000D03*
X233299000Y-245238000D03*
X251714000Y-248569750D03*
X251714000Y-245269750D03*
X255778000Y-248569750D03*
X255778000Y-245269750D03*
X284175200Y-248588800D03*
X284175200Y-245288800D03*
X320992500Y-247268000D03*
X320992500Y-243968000D03*
X337820000Y-248569750D03*
X337820000Y-245269750D03*
X371729000Y-248665000D03*
X371729000Y-245365000D03*
X391477500Y-248569750D03*
X391477500Y-245269750D03*
X411543500Y-248569750D03*
X411543500Y-245269750D03*
X430149000Y-248569750D03*
X430149000Y-245269750D03*
M02*
