G04 #@! TF.GenerationSoftware,KiCad,Pcbnew,(5.1.4)-1*
G04 #@! TF.CreationDate,2020-10-31T18:50:56-05:00*
G04 #@! TF.ProjectId,m3n3van,6d336e33-7661-46e2-9e6b-696361645f70,rev?*
G04 #@! TF.SameCoordinates,Original*
G04 #@! TF.FileFunction,Soldermask,Top*
G04 #@! TF.FilePolarity,Negative*
%FSLAX46Y46*%
G04 Gerber Fmt 4.6, Leading zero omitted, Abs format (unit mm)*
G04 Created by KiCad (PCBNEW (5.1.4)-1) date 2020-10-31 18:50:56*
%MOMM*%
%LPD*%
G04 APERTURE LIST*
%ADD10C,3.987800*%
%ADD11C,1.750000*%
%ADD12C,4.400000*%
%ADD13O,1.000000X1.600000*%
%ADD14O,1.000000X2.100000*%
%ADD15C,0.650000*%
%ADD16C,2.000000*%
%ADD17R,2.000000X3.200000*%
%ADD18R,2.000000X2.000000*%
%ADD19C,3.048000*%
G04 APERTURE END LIST*
D10*
X422275000Y-223043750D03*
D11*
X417195000Y-223043750D03*
X427355000Y-223043750D03*
D12*
X399487500Y-192342750D03*
X371238000Y-240977750D03*
X327087500Y-213519000D03*
X296437500Y-194469000D03*
X265587500Y-240692750D03*
X218637500Y-229242750D03*
X220237500Y-194468750D03*
D13*
X406354500Y-176209000D03*
X397714500Y-176209000D03*
D14*
X406354500Y-180389000D03*
X397714500Y-180389000D03*
D15*
X399144500Y-179859000D03*
X404924500Y-179859000D03*
D16*
X312975000Y-235055000D03*
X307975000Y-235055000D03*
D17*
X316075000Y-242055000D03*
X304875000Y-242055000D03*
D16*
X312975000Y-249555000D03*
X310475000Y-249555000D03*
D18*
X307975000Y-249555000D03*
D16*
X198675000Y-216005000D03*
X193675000Y-216005000D03*
D17*
X201775000Y-223005000D03*
X190575000Y-223005000D03*
D16*
X198675000Y-230505000D03*
X196175000Y-230505000D03*
D18*
X193675000Y-230505000D03*
D11*
X417830000Y-203993750D03*
X407670000Y-203993750D03*
D10*
X412750000Y-203993750D03*
D11*
X289242500Y-242093750D03*
X279082500Y-242093750D03*
D10*
X284162500Y-242093750D03*
D11*
X217805000Y-223043750D03*
X207645000Y-223043750D03*
D10*
X212725000Y-223043750D03*
D11*
X208280000Y-203993750D03*
X198120000Y-203993750D03*
D10*
X203200000Y-203993750D03*
D11*
X248761250Y-242093750D03*
X238601250Y-242093750D03*
D10*
X243681250Y-242093750D03*
D11*
X320198750Y-242093750D03*
X310038750Y-242093750D03*
D10*
X315118750Y-242093750D03*
X343693750Y-233838750D03*
X265118850Y-233838750D03*
D19*
X343693750Y-249078750D03*
X265118850Y-249078750D03*
D16*
X424735000Y-216005000D03*
X419735000Y-216005000D03*
D17*
X427835000Y-223005000D03*
X416635000Y-223005000D03*
D16*
X424735000Y-230505000D03*
X422235000Y-230505000D03*
D18*
X419735000Y-230505000D03*
D16*
X427148000Y-177905000D03*
X422148000Y-177905000D03*
D17*
X430248000Y-184905000D03*
X419048000Y-184905000D03*
D16*
X427148000Y-192405000D03*
X424648000Y-192405000D03*
D18*
X422148000Y-192405000D03*
D16*
X200961000Y-177905000D03*
X195961000Y-177905000D03*
D17*
X204061000Y-184905000D03*
X192861000Y-184905000D03*
D16*
X200961000Y-192405000D03*
X198461000Y-192405000D03*
D18*
X195961000Y-192405000D03*
D11*
X402907500Y-184943750D03*
X413067500Y-184943750D03*
D10*
X407987500Y-184943750D03*
D11*
X298767500Y-242093750D03*
X288607500Y-242093750D03*
D10*
X293687500Y-242093750D03*
D11*
X336867500Y-242093750D03*
X326707500Y-242093750D03*
D10*
X331787500Y-242093750D03*
X355600000Y-233838750D03*
X317500000Y-233838750D03*
D19*
X355600000Y-249078750D03*
X317500000Y-249078750D03*
D10*
X348456250Y-233838750D03*
X324643750Y-233838750D03*
D19*
X348456250Y-249078750D03*
X324643750Y-249078750D03*
D11*
X341630000Y-242093750D03*
X331470000Y-242093750D03*
D10*
X336550000Y-242093750D03*
X312737500Y-242093750D03*
D11*
X307657500Y-242093750D03*
X317817500Y-242093750D03*
D19*
X265112500Y-249078750D03*
X360362500Y-249078750D03*
D10*
X265112500Y-233838750D03*
X360362500Y-233838750D03*
X331787500Y-233838750D03*
X293687500Y-233838750D03*
D19*
X331787500Y-249078750D03*
X293687500Y-249078750D03*
D11*
X264795000Y-242093750D03*
X274955000Y-242093750D03*
D10*
X269875000Y-242093750D03*
D11*
X253523750Y-242093750D03*
X243363750Y-242093750D03*
D10*
X248443750Y-242093750D03*
D11*
X229711250Y-242093750D03*
X219551250Y-242093750D03*
D10*
X224631250Y-242093750D03*
X291306250Y-242093750D03*
D11*
X286226250Y-242093750D03*
X296386250Y-242093750D03*
D19*
X279400000Y-249078750D03*
X303212500Y-249078750D03*
D10*
X279400000Y-233838750D03*
X303212500Y-233838750D03*
X279400000Y-242093750D03*
D11*
X274320000Y-242093750D03*
X284480000Y-242093750D03*
D19*
X260350000Y-249078750D03*
X298450000Y-249078750D03*
D10*
X260350000Y-233838750D03*
X298450000Y-233838750D03*
X422275000Y-242093750D03*
D11*
X417195000Y-242093750D03*
X427355000Y-242093750D03*
D10*
X419893750Y-242093750D03*
D11*
X414813750Y-242093750D03*
X424973750Y-242093750D03*
D10*
X403225000Y-242093750D03*
D11*
X398145000Y-242093750D03*
X408305000Y-242093750D03*
D10*
X398462500Y-242093750D03*
D11*
X393382500Y-242093750D03*
X403542500Y-242093750D03*
D10*
X384175000Y-242093750D03*
D11*
X379095000Y-242093750D03*
X389255000Y-242093750D03*
D10*
X377031250Y-242093750D03*
D11*
X382111250Y-242093750D03*
X371951250Y-242093750D03*
D10*
X365125000Y-242093750D03*
D11*
X360045000Y-242093750D03*
X370205000Y-242093750D03*
D10*
X362743750Y-242093750D03*
D11*
X357663750Y-242093750D03*
X367823750Y-242093750D03*
D10*
X262731250Y-242093750D03*
D11*
X257651250Y-242093750D03*
X267811250Y-242093750D03*
D10*
X255587500Y-242093750D03*
D11*
X250507500Y-242093750D03*
X260667500Y-242093750D03*
D10*
X241300000Y-242093750D03*
D11*
X236220000Y-242093750D03*
X246380000Y-242093750D03*
D10*
X236537500Y-242093750D03*
D11*
X231457500Y-242093750D03*
X241617500Y-242093750D03*
D10*
X222250000Y-242093750D03*
D11*
X217170000Y-242093750D03*
X227330000Y-242093750D03*
D10*
X217487500Y-242093750D03*
D11*
X212407500Y-242093750D03*
X222567500Y-242093750D03*
D10*
X219868750Y-242093750D03*
D11*
X214788750Y-242093750D03*
X224948750Y-242093750D03*
D10*
X200818750Y-242093750D03*
D11*
X195738750Y-242093750D03*
X205898750Y-242093750D03*
D10*
X198437500Y-242093750D03*
D11*
X193357500Y-242093750D03*
X203517500Y-242093750D03*
D10*
X403225000Y-223043750D03*
D11*
X408305000Y-223043750D03*
X398145000Y-223043750D03*
D10*
X384175000Y-223043750D03*
D11*
X379095000Y-223043750D03*
X389255000Y-223043750D03*
D10*
X365125000Y-223043750D03*
D11*
X360045000Y-223043750D03*
X370205000Y-223043750D03*
D10*
X346075000Y-223043750D03*
D11*
X340995000Y-223043750D03*
X351155000Y-223043750D03*
D10*
X327025000Y-223043750D03*
D11*
X321945000Y-223043750D03*
X332105000Y-223043750D03*
D10*
X307975000Y-223043750D03*
D11*
X302895000Y-223043750D03*
X313055000Y-223043750D03*
D10*
X288925000Y-223043750D03*
D11*
X283845000Y-223043750D03*
X294005000Y-223043750D03*
D10*
X269875000Y-223043750D03*
D11*
X264795000Y-223043750D03*
X274955000Y-223043750D03*
D10*
X250825000Y-223043750D03*
D11*
X245745000Y-223043750D03*
X255905000Y-223043750D03*
D10*
X231775000Y-223043750D03*
D11*
X226695000Y-223043750D03*
X236855000Y-223043750D03*
D10*
X205581250Y-223043750D03*
D11*
X200501250Y-223043750D03*
X210661250Y-223043750D03*
D10*
X417512500Y-203993750D03*
D11*
X412432500Y-203993750D03*
X422592500Y-203993750D03*
D10*
X393700000Y-203993750D03*
D11*
X388620000Y-203993750D03*
X398780000Y-203993750D03*
D10*
X374650000Y-203993750D03*
D11*
X369570000Y-203993750D03*
X379730000Y-203993750D03*
D10*
X355600000Y-203993750D03*
D11*
X350520000Y-203993750D03*
X360680000Y-203993750D03*
D10*
X336550000Y-203993750D03*
D11*
X331470000Y-203993750D03*
X341630000Y-203993750D03*
D10*
X317500000Y-203993750D03*
D11*
X312420000Y-203993750D03*
X322580000Y-203993750D03*
D10*
X298450000Y-203993750D03*
D11*
X293370000Y-203993750D03*
X303530000Y-203993750D03*
D10*
X279400000Y-203993750D03*
D11*
X274320000Y-203993750D03*
X284480000Y-203993750D03*
D10*
X260350000Y-203993750D03*
D11*
X255270000Y-203993750D03*
X265430000Y-203993750D03*
D10*
X241300000Y-203993750D03*
D11*
X236220000Y-203993750D03*
X246380000Y-203993750D03*
D10*
X222250000Y-203993750D03*
D11*
X217170000Y-203993750D03*
X227330000Y-203993750D03*
D10*
X200818750Y-203993750D03*
D11*
X195738750Y-203993750D03*
X205898750Y-203993750D03*
D10*
X415131250Y-184943750D03*
D11*
X410051250Y-184943750D03*
X420211250Y-184943750D03*
D10*
X388937500Y-184943750D03*
D11*
X383857500Y-184943750D03*
X394017500Y-184943750D03*
D10*
X369887500Y-184943750D03*
D11*
X364807500Y-184943750D03*
X374967500Y-184943750D03*
D10*
X350837500Y-184943750D03*
D11*
X345757500Y-184943750D03*
X355917500Y-184943750D03*
D10*
X331787500Y-184943750D03*
D11*
X326707500Y-184943750D03*
X336867500Y-184943750D03*
D10*
X312737500Y-184943750D03*
D11*
X307657500Y-184943750D03*
X317817500Y-184943750D03*
D10*
X293687500Y-184943750D03*
D11*
X288607500Y-184943750D03*
X298767500Y-184943750D03*
D10*
X274637500Y-184943750D03*
D11*
X269557500Y-184943750D03*
X279717500Y-184943750D03*
D10*
X255587500Y-184943750D03*
D11*
X250507500Y-184943750D03*
X260667500Y-184943750D03*
D10*
X236537500Y-184943750D03*
D11*
X231457500Y-184943750D03*
X241617500Y-184943750D03*
D10*
X217487500Y-184943750D03*
D11*
X212407500Y-184943750D03*
X222567500Y-184943750D03*
D10*
X198437500Y-184943750D03*
D11*
X193357500Y-184943750D03*
X203517500Y-184943750D03*
M02*
