M48
; DRILL file {KiCad (5.1.4)-1} date 10/31/2020 18:51:04
; FORMAT={-:-/ absolute / inch / decimal}
; #@! TF.CreationDate,2020-10-31T18:51:04-05:00
; #@! TF.GenerationSoftware,Kicad,Pcbnew,(5.1.4)-1
; #@! TF.FileFunction,Plated,1,2,PTH
FMAT,2
INCH
T1C0.0157
T2C0.0236
T3C0.0394
T4C0.0579
T5C0.0591
T6C0.0866
%
G90
G05
T1
X7.61Y-8.985
X7.63Y-7.95
X7.635Y-8.71
X7.6879Y-7.9033
X7.7057Y-8.585
X7.72Y-8.505
X7.735Y-8.71
X7.95Y-9.2064
X8.145Y-8.675
X8.15Y-7.97
X8.45Y-7.42
X8.48Y-9.055
X9.025Y-9.445
X9.075Y-9.39
X9.2Y-7.4485
X9.535Y-9.4
X9.95Y-7.4663
X10.27Y-9.445
X10.345Y-9.145
X10.57Y-9.435
X10.65Y-9.285
X10.7Y-7.484
X10.76Y-9.455
X10.875Y-9.15
X10.9Y-9.845
X11.14Y-9.415
X11.45Y-7.5017
X11.465Y-9.845
X11.655Y-9.765
X11.845Y-9.765
X11.99Y-8.915
X12.04Y-9.84
X12.07Y-9.15
X12.2Y-7.5194
X12.39Y-9.765
X12.61Y-9.0687
X12.64Y-9.82
X12.65Y-9.0687
X12.6894Y-9.0687
X12.76Y-8.92
X12.92Y-9.845
X13.3Y-9.84
X13.475Y-8.9435
X13.625Y-9.765
X13.855Y-9.765
X14.095Y-9.765
X14.315Y-8.9613
X14.555Y-9.775
X14.805Y-8.98
X15.055Y-8.979
X15.13Y-8.1985
X15.133Y-7.487
X15.2144Y-9.0155
X15.25Y-9.79
X15.2535Y-9.0333
X15.28Y-7.78
X15.38Y-8.26
X15.385Y-8.1425
X15.41Y-7.69
X15.4165Y-8.3881
X15.445Y-8.25
X15.4598Y-8.8148
X15.495Y-8.695
X15.495Y-8.9967
X15.52Y-8.87
X15.52Y-8.8301
X15.645Y-8.725
X15.67Y-7.3524
X15.67Y-7.42
X15.6995Y-7.1972
X15.705Y-7.375
X15.715Y-7.935
X15.73Y-7.74
X15.75Y-8.815
X15.82Y-7.2103
X15.825Y-7.905
X15.84Y-7.49
X15.905Y-7.86
X15.925Y-7.54
X15.9415Y-8.04
X15.955Y-7.2
X15.955Y-7.375
X15.9742Y-7.925
X16.01Y-7.74
X16.01Y-7.8
X16.065Y-7.555
X16.135Y-8.97
X16.135Y-9.01
X16.1698Y-8.2402
X16.18Y-8.8527
X16.18Y-8.9098
X16.2275Y-8.2575
X16.275Y-8.93
X16.275Y-9.01
X16.29Y-8.25
X16.29Y-8.405
X16.315Y-8.61
X16.34Y-7.4
X16.3462Y-8.2756
X16.4Y-8.515
X16.405Y-8.245
X16.445Y-7.8
X16.5772Y-8.1222
X16.625Y-8.94
X16.7243Y-7.9807
X16.89Y-6.965
T3
X7.715Y-7.0041
X7.715Y-7.575
X7.8134Y-7.575
X7.9119Y-7.0041
X7.9119Y-7.575
X7.625Y-8.5041
X7.625Y-9.075
X7.7234Y-9.075
X7.8219Y-8.5041
X7.8219Y-9.075
X16.525Y-8.5041
X16.525Y-9.075
X16.6234Y-9.075
X16.7219Y-8.5041
X16.7219Y-9.075
X12.125Y-9.2541
X12.125Y-9.825
X12.2234Y-9.825
X12.3219Y-9.2541
X12.3219Y-9.825
X16.62Y-7.0041
X16.62Y-7.575
X16.7184Y-7.575
X16.8169Y-7.0041
X16.8169Y-7.575
T4
X13.1Y-9.4313
X13.35Y-9.3312
X16.3812Y-9.4313
X16.6312Y-9.3312
X14.225Y-8.6813
X14.475Y-8.5812
X11.3187Y-9.4313
X11.5687Y-9.3312
X11.4125Y-7.1812
X11.6625Y-7.0812
X7.9437Y-8.6813
X8.1937Y-8.5812
X16.1Y-7.9312
X16.35Y-7.8312
X12.1625Y-9.4313
X12.4125Y-9.3312
X14.975Y-8.6813
X15.225Y-8.5812
X10.85Y-9.4313
X11.1Y-9.3312
X14.975Y-9.4313
X15.225Y-9.3312
X10.475Y-8.6813
X10.725Y-8.5812
X12.725Y-8.6813
X12.975Y-8.5812
X9.1625Y-7.1812
X9.4125Y-7.0812
X10.85Y-7.9312
X11.1Y-7.8312
X11.975Y-8.6813
X12.225Y-8.5812
X9.9125Y-7.1812
X10.1625Y-7.0812
X14.6Y-7.9312
X14.85Y-7.8312
X13.475Y-8.6813
X13.725Y-8.5812
X12.9125Y-7.1812
X13.1625Y-7.0812
X7.7562Y-7.9312
X8.0062Y-7.8312
X9.1625Y-9.4313
X9.4125Y-9.3312
X11.4125Y-9.4313
X11.6625Y-9.3312
X14.225Y-9.4313
X14.475Y-9.3312
X12.9125Y-9.4313
X13.1625Y-9.3312
X7.7562Y-9.4313
X8.0062Y-9.3312
X10.525Y-9.7312
X10.775Y-9.6312
X12.1625Y-7.1812
X12.4125Y-7.0812
X8.4125Y-9.4313
X8.6625Y-9.3312
X16.475Y-9.4313
X16.725Y-9.3312
X14.1312Y-9.4313
X14.3812Y-9.3312
X10.6625Y-7.1812
X10.9125Y-7.0812
X8.6937Y-9.4313
X8.9437Y-9.3312
X13.1Y-7.9312
X13.35Y-7.8312
X15.725Y-9.4313
X15.975Y-9.3312
X9.4437Y-9.4313
X9.6937Y-9.3312
X8.5062Y-9.4313
X8.7562Y-9.3312
X15.1625Y-7.1812
X15.4125Y-7.0812
X7.6625Y-7.1812
X7.9125Y-7.0812
X11.0375Y-9.4313
X11.2875Y-9.3312
X11.225Y-8.6813
X11.475Y-8.5812
X10.1937Y-9.4313
X10.4437Y-9.3312
X9.35Y-7.9312
X9.6Y-7.8312
X14.7438Y-9.7312
X14.9938Y-9.6312
X16.1937Y-7.1812
X16.4437Y-7.0812
X9.725Y-8.6813
X9.975Y-8.5812
X16.475Y-8.6813
X16.725Y-8.5812
X15.775Y-8.9812
X16.025Y-8.8812
X11.6Y-7.9312
X11.85Y-7.8312
X7.6625Y-9.4313
X7.9125Y-9.3312
X8.4125Y-7.1812
X8.6625Y-7.0812
X12.2562Y-9.4313
X12.5062Y-9.3312
X9.9125Y-9.4313
X10.1625Y-9.3312
X9.6312Y-9.4313
X9.8812Y-9.3312
X15.5375Y-9.4313
X15.7875Y-9.3312
X12.35Y-7.9312
X12.6Y-7.8312
X15.35Y-7.9312
X15.6Y-7.8312
X16.2875Y-7.9312
X16.5375Y-7.8312
X13.6625Y-7.1812
X13.9125Y-7.0812
X7.85Y-7.9312
X8.1Y-7.8312
X10.1Y-7.9312
X10.35Y-7.8312
X8.6Y-9.4313
X8.85Y-9.3312
X8.6Y-7.9312
X8.85Y-7.8312
X13.85Y-7.9312
X14.1Y-7.8312
X15.9625Y-7.4813
X16.2125Y-7.3812
X14.4125Y-7.1812
X14.6625Y-7.0812
X8.975Y-8.6813
X9.225Y-8.5812
X8.225Y-8.6813
X8.475Y-8.5812
X9.35Y-9.4313
X9.6Y-9.3312
T6
X8.6708Y-7.6562
X8.6078Y-9.0253
X10.4562Y-9.4761
X15.7279Y-7.5725
X11.6708Y-7.6563
X14.6157Y-9.4873
X12.8775Y-8.4063
T2
G00X15.6581Y-6.9256
M15
G01X15.6581Y-6.9492
M16
G05
G00X15.6581Y-7.0803
M15
G01X15.6581Y-7.1236
M16
G05
G00X15.9982Y-6.9256
M15
G01X15.9982Y-6.9492
M16
G05
G00X15.9982Y-7.0803
M15
G01X15.9982Y-7.1236
M16
G05
T5
G00X16.403Y-8.8053
M15
G01X16.403Y-8.7541
M16
G05
G00X16.8439Y-8.8053
M15
G01X16.8439Y-8.7541
M16
G05
G00X12.003Y-9.5553
M15
G01X12.003Y-9.5041
M16
G05
G00X12.4439Y-9.5553
M15
G01X12.4439Y-9.5041
M16
G05
G00X16.498Y-7.3053
M15
G01X16.498Y-7.2541
M16
G05
G00X16.9389Y-7.3053
M15
G01X16.9389Y-7.2541
M16
G05
G00X7.593Y-7.3053
M15
G01X7.593Y-7.2541
M16
G05
G00X8.0339Y-7.3053
M15
G01X8.0339Y-7.2541
M16
G05
G00X7.503Y-8.8053
M15
G01X7.503Y-8.7541
M16
G05
G00X7.9439Y-8.8053
M15
G01X7.9439Y-8.7541
M16
G05
T0
M30
