M48
; DRILL file {KiCad (5.1.4)-1} date 10/31/2020 18:51:04
; FORMAT={-:-/ absolute / inch / decimal}
; #@! TF.CreationDate,2020-10-31T18:51:04-05:00
; #@! TF.GenerationSoftware,Kicad,Pcbnew,(5.1.4)-1
; #@! TF.FileFunction,NonPlated,1,2,NPTH
FMAT,2
INCH
T1C0.0256
T2C0.0689
T3C0.1200
T4C0.1570
%
G90
G05
T1
X15.7144Y-7.0811
X15.9419Y-7.0811
T2
X12.675Y-8.7812
X13.075Y-8.7812
X9.1125Y-7.2812
X9.5125Y-7.2812
X10.8Y-8.0312
X11.2Y-8.0312
X11.925Y-8.7812
X12.325Y-8.7812
X9.8625Y-7.2812
X10.2625Y-7.2812
X14.55Y-8.0312
X14.95Y-8.0312
X13.425Y-8.7812
X13.825Y-8.7812
X12.8625Y-7.2812
X13.2625Y-7.2812
X7.7062Y-8.0312
X8.1062Y-8.0312
X9.1125Y-9.5312
X9.5125Y-9.5312
X11.3625Y-9.5312
X11.7625Y-9.5312
X14.175Y-9.5312
X14.575Y-9.5312
X12.8625Y-9.5312
X13.2625Y-9.5312
X7.7062Y-9.5312
X8.1062Y-9.5312
X10.425Y-9.5312
X10.825Y-9.5312
X12.1125Y-7.2812
X12.5125Y-7.2812
X8.3625Y-9.5312
X8.7625Y-9.5312
X16.425Y-9.5312
X16.825Y-9.5312
X14.0812Y-9.5312
X14.4812Y-9.5312
X10.6125Y-7.2812
X11.0125Y-7.2812
X8.6437Y-9.5312
X9.0437Y-9.5312
X13.05Y-8.0312
X13.45Y-8.0312
X15.675Y-9.5312
X16.075Y-9.5312
X9.3937Y-9.5312
X9.7937Y-9.5312
X8.4562Y-9.5312
X8.8562Y-9.5312
X15.1125Y-7.2812
X15.5125Y-7.2812
X7.6125Y-7.2812
X8.0125Y-7.2812
X10.9875Y-9.5312
X11.3875Y-9.5312
X11.175Y-8.7812
X11.575Y-8.7812
X10.1437Y-9.5312
X10.5437Y-9.5312
X9.3Y-8.0312
X9.7Y-8.0312
X14.6437Y-9.5312
X15.0437Y-9.5312
X16.1438Y-7.2812
X16.5437Y-7.2812
X9.675Y-8.7812
X10.075Y-8.7812
X16.425Y-8.7812
X16.825Y-8.7812
X15.675Y-8.7812
X16.075Y-8.7812
X11.55Y-8.0312
X11.95Y-8.0312
X7.6125Y-9.5312
X8.0125Y-9.5312
X8.3625Y-7.2812
X8.7625Y-7.2812
X12.2062Y-9.5312
X12.6062Y-9.5312
X9.8625Y-9.5312
X10.2625Y-9.5312
X9.5812Y-9.5312
X9.9812Y-9.5312
X15.4875Y-9.5312
X15.8875Y-9.5312
X12.3Y-8.0312
X12.7Y-8.0312
X15.3Y-8.0312
X15.7Y-8.0312
X16.2375Y-8.0312
X16.6375Y-8.0312
X13.6125Y-7.2812
X14.0125Y-7.2812
X7.8Y-8.0312
X8.2Y-8.0312
X10.05Y-8.0312
X10.45Y-8.0312
X8.55Y-9.5312
X8.95Y-9.5312
X8.55Y-8.0312
X8.95Y-8.0312
X13.8Y-8.0312
X14.2Y-8.0312
X15.8625Y-7.2812
X16.2625Y-7.2812
X14.3625Y-7.2812
X14.7625Y-7.2812
X8.925Y-8.7812
X9.325Y-8.7812
X8.175Y-8.7812
X8.575Y-8.7812
X9.3Y-9.5312
X9.7Y-9.5312
X13.05Y-9.5312
X13.45Y-9.5312
X16.3313Y-9.5312
X16.7312Y-9.5312
X14.175Y-8.7812
X14.575Y-8.7812
X11.2687Y-9.5312
X11.6687Y-9.5312
X11.3625Y-7.2812
X11.7625Y-7.2812
X7.8937Y-8.7812
X8.2937Y-8.7812
X16.05Y-8.0312
X16.45Y-8.0312
X12.1125Y-9.5312
X12.5125Y-9.5312
X14.925Y-8.7812
X15.325Y-8.7812
X10.8Y-9.5312
X11.2Y-9.5312
X14.925Y-9.5312
X15.325Y-9.5312
X10.425Y-8.7812
X10.825Y-8.7812
T3
X10.4377Y-9.8063
X13.5312Y-9.8063
X12.5Y-9.8063
X12.7812Y-9.8063
X13.7188Y-9.8063
X14.0Y-9.8063
X11.0Y-9.8063
X11.9375Y-9.8063
X10.4375Y-9.8063
X11.5625Y-9.8063
X13.0625Y-9.8063
X14.1875Y-9.8063
X10.25Y-9.8063
X11.75Y-9.8063
T4
X12.875Y-8.7812
X9.3125Y-7.2812
X11.0Y-8.0312
X12.125Y-8.7812
X10.0625Y-7.2812
X14.75Y-8.0312
X13.625Y-8.7812
X13.0625Y-7.2812
X7.9062Y-8.0312
X9.3125Y-9.5312
X11.5625Y-9.5312
X14.375Y-9.5312
X13.0625Y-9.5312
X7.9062Y-9.5312
X10.625Y-9.5312
X12.3125Y-7.2812
X8.5625Y-9.5312
X16.625Y-9.5312
X14.2812Y-9.5312
X10.8125Y-7.2812
X8.8438Y-9.5312
X13.25Y-8.0312
X15.875Y-9.5312
X9.5938Y-9.5312
X8.6562Y-9.5312
X15.3125Y-7.2812
X7.8125Y-7.2812
X11.1875Y-9.5312
X11.375Y-8.7812
X10.3438Y-9.5312
X9.5Y-8.0312
X14.8438Y-9.5312
X16.3438Y-7.2812
X9.875Y-8.7812
X16.625Y-8.7812
X15.875Y-8.7812
X11.75Y-8.0312
X7.8125Y-9.5312
X8.5625Y-7.2812
X10.4377Y-9.2062
X12.4062Y-9.5312
X13.5312Y-9.2062
X10.0625Y-9.5312
X9.7812Y-9.5312
X15.6875Y-9.5312
X12.5Y-8.0312
X15.5Y-8.0312
X16.4375Y-8.0312
X13.8125Y-7.2812
X8.0Y-8.0312
X10.25Y-8.0312
X8.75Y-9.5312
X8.75Y-8.0312
X14.0Y-8.0312
X16.0625Y-7.2812
X14.5625Y-7.2812
X9.125Y-8.7812
X8.375Y-8.7812
X9.5Y-9.5312
X12.5Y-9.2062
X12.7812Y-9.2062
X13.25Y-9.5312
X13.7188Y-9.2062
X14.0Y-9.2062
X16.5312Y-9.5312
X14.375Y-8.7812
X11.0Y-9.2062
X11.4688Y-9.5312
X11.9375Y-9.2062
X11.5625Y-7.2812
X8.0938Y-8.7812
X16.25Y-8.0312
X10.4375Y-9.2062
X11.5625Y-9.2062
X12.3125Y-9.5312
X13.0625Y-9.2062
X14.1875Y-9.2062
X15.125Y-8.7812
X10.25Y-9.2062
X11.0Y-9.5312
X11.75Y-9.2062
X15.125Y-9.5312
X10.625Y-8.7812
T0
M30
