  0
SECTION
  2
HEADER
  9
$ACADVER
  1
AC1014
  9
$HANDSEED
  5
FFFF
  9
$MEASUREMENT
 70
     1
  0
ENDSEC
  0
SECTION
  2
TABLES
  0
TABLE
  2
VPORT
  5
8
330
0
100
AcDbSymbolTable
 70
     4
  0
VPORT
  5
2E
330
8
100
AcDbSymbolTableRecord
100
AcDbViewportTableRecord
  2
*ACTIVE
 70
     0
 10
0.0
 20
0.0
 11
1.0
 21
1.0
 12
210.0
 22
148.5
 13
0.0
 23
0.0
 14
10.0
 24
10.0
 15
10.0
 25
10.0
 16
0.0
 26
0.0
 36
1.0
 17
0.0
 27
0.0
 37
0.0
 40
341.0
 41
1.24
 42
50.0
 43
0.0
 44
0.0
 50
0.0
 51
0.0
 71
     0
 72
   100
 73
     1
 74
     3
 75
     0
 76
     0
 77
     0
 78
     0
  0
ENDTAB
  0
TABLE
  2
LTYPE
  5
5
330
0
100
AcDbSymbolTable
 70
     1
  0
LTYPE
  5
14
330
5
100
AcDbSymbolTableRecord
100
AcDbLinetypeTableRecord
  2
BYBLOCK
 70
     0
  3

 72
    65
 73
     0
 40
0.0
  0
LTYPE
  5
15
330
5
100
AcDbSymbolTableRecord
100
AcDbLinetypeTableRecord
  2
BYLAYER
 70
     0
  3

 72
    65
 73
     0
 40
0.0
  0
LTYPE
  5
16
330
5
100
AcDbSymbolTableRecord
100
AcDbLinetypeTableRecord
  2
CONTINUOUS
 70
     0
  3
Solid line
 72
    65
 73
     0
 40
0.0
  0
ENDTAB
  0
TABLE
  2
LAYER
  5
2
100
AcDbSymbolTable
 70
1
  0
LAYER
  5
50
100
AcDbSymbolTableRecord
100
AcDbLayerTableRecord
  2
0
 70
0
  6
CONTINUOUS
  0
ENDTAB
  0
TABLE
  2
STYLE
  5
3
330
0
100
AcDbSymbolTable
 70
     1
  0
STYLE
  5
11
330
3
100
AcDbSymbolTableRecord
100
AcDbTextStyleTableRecord
  2
STANDARD
 70
     0
 40
0.0
 41
1.0
 50
0.0
 71
     0
 42
2.5
  3
txt
  4

  0
ENDTAB
  0
TABLE
  2
VIEW
  5
6
330
0
100
AcDbSymbolTable
 70
     0
  0
ENDTAB
  0
TABLE
  2
UCS
  5
7
330
0
100
AcDbSymbolTable
 70
     0
  0
ENDTAB
  0
TABLE
  2
APPID
  5
9
330
0
100
AcDbSymbolTable
 70
     2
  0
APPID
  5
12
330
9
100
AcDbSymbolTableRecord
100
AcDbRegAppTableRecord
  2
ACAD
 70
     0
  0
ENDTAB
  0
TABLE
  2
DIMSTYLE
  5
A
330
0
100
AcDbSymbolTable
 70
     1
  0
DIMSTYLE
105
27
330
A
100
AcDbSymbolTableRecord
100
AcDbDimStyleTableRecord
  2
ISO-25
 70
     0
  3

  4

  5

  6

  7

 40
1.0
 41
2.5
 42
0.625
 43
3.75
 44
1.25
 45
0.0
 46
0.0
 47
0.0
 48
0.0
140
2.5
141
2.5
142
0.0
143
0.03937007874016
144
1.0
145
0.0
146
1.0
147
0.625
 71
     0
 72
     0
 73
     0
 74
     0
 75
     0
 76
     0
 77
     1
 78
     8
170
     0
171
     3
172
     1
173
     0
174
     0
175
     0
176
     0
177
     0
178
     0
270
     2
271
     2
272
     2
273
     2
274
     3
340
11
275
     0
280
     0
281
     0
282
     0
283
     0
284
     8
285
     0
286
     0
287
     3
288
     0
  0
ENDTAB
  0
TABLE
  2
BLOCK_RECORD
  5
1
330
0
100
AcDbSymbolTable
 70
     1
  0
BLOCK_RECORD
  5
1F
330
1
100
AcDbSymbolTableRecord
100
AcDbBlockTableRecord
  2
*MODEL_SPACE
  0
BLOCK_RECORD
  5
1B
330
1
100
AcDbSymbolTableRecord
100
AcDbBlockTableRecord
  2
*PAPER_SPACE
  0
ENDTAB
  0
ENDSEC
  0
SECTION
  2
BLOCKS
  0
BLOCK
  5
20
330
1F
100
AcDbEntity
  8
0
100
AcDbBlockBegin
  2
*MODEL_SPACE
 70
     0
 10
0.0
 20
0.0
 30
0.0
  3
*MODEL_SPACE
  1

  0
ENDBLK
  5
21
330
1F
100
AcDbEntity
  8
0
100
AcDbBlockEnd
  0
BLOCK
  5
1C
330
1B
100
AcDbEntity
 67
     1
  8
0
100
AcDbBlockBegin
  2
*PAPER_SPACE
  1

  0
ENDBLK
  5
1D
330
1B
100
AcDbEntity
 67
     1
  8
0
100
AcDbBlockEnd
  0
ENDSEC
  0
SECTION
  2
ENTITIES
  0
LWPOLYLINE
  5
100
100
AcDbEntity
  8
0
 62
7
100
AcDbPolyline
 90
2
 70
0
 10
4.399280
 20
-6.777919
 30
0.0
 10
4.399280
 20
-40.150979
 30
0.0
  0
LWPOLYLINE
  5
101
100
AcDbEntity
  8
0
 62
7
100
AcDbPolyline
 90
2
 70
0
 10
191.950340
 20
-2.716459
 30
0.0
 10
191.455040
 20
-1.182299
 30
0.0
  0
LWPOLYLINE
  5
102
100
AcDbEntity
  8
0
 62
7
100
AcDbPolyline
 90
2
 70
0
 10
65.879980
 20
-1.182299
 30
0.0
 10
65.384680
 20
-2.716459
 30
0.0
  0
LWPOLYLINE
  5
103
100
AcDbEntity
  8
0
 62
7
100
AcDbPolyline
 90
2
 70
0
 10
184.464960
 20
-3.529259
 30
0.0
 10
72.870060
 20
-3.529259
 30
0.0
  0
SPLINE
  5
104
100
AcDbEntity
  8
0
 62
7
100
AcDbSpline
 70
8
 71
3
 72
8
 73
4
 74
0
 40
0
 40
0
 40
0
 40
0
 40
1
 40
1
 40
1
 40
1
 10
72.871584
 20
-85.379743
 30
0.0
 10
72.362102
 20
-85.379747
 30
0.0
 10
71.910670
 20
-85.708089
 30
0.0
 10
71.753730
 20
-86.192797
 30
0.0
  0
SPLINE
  5
105
100
AcDbEntity
  8
0
 62
7
100
AcDbSpline
 70
8
 71
3
 72
8
 73
4
 74
0
 40
0
 40
0
 40
0
 40
0
 40
1
 40
1
 40
1
 40
1
 10
249.687842
 20
-85.379743
 30
0.0
 10
250.549815
 20
-85.379790
 30
0.0
 10
251.376501
 20
-85.037411
 30
0.0
 10
251.986031
 20
-84.427928
 30
0.0
  0
SPLINE
  5
106
100
AcDbEntity
  8
0
 62
7
100
AcDbSpline
 70
8
 71
3
 72
8
 73
4
 74
0
 40
0
 40
0
 40
0
 40
0
 40
1
 40
1
 40
1
 40
1
 10
251.986031
 20
-84.427928
 30
0.0
 10
252.595562
 20
-83.818445
 30
0.0
 10
252.938006
 20
-82.991786
 30
0.0
 10
252.938026
 20
-82.129813
 30
0.0
  0
SPLINE
  5
107
100
AcDbEntity
  8
0
 62
7
100
AcDbSpline
 70
8
 71
3
 72
8
 73
4
 74
0
 40
0
 40
0
 40
0
 40
0
 40
1
 40
1
 40
1
 40
1
 10
4.399991
 20
-48.756499
 30
0.0
 10
4.399987
 20
-48.247016
 30
0.0
 10
4.071645
 20
-47.795585
 30
0.0
 10
3.586937
 20
-47.638645
 30
0.0
  0
LWPOLYLINE
  5
108
100
AcDbEntity
  8
0
 62
7
100
AcDbPolyline
 90
2
 70
0
 10
65.384680
 20
-86.191019
 30
0.0
 10
65.879980
 20
-87.722639
 30
0.0
  0
SPLINE
  5
109
100
AcDbEntity
  8
0
 62
7
100
AcDbSpline
 70
8
 71
3
 72
8
 73
4
 74
0
 40
0
 40
0
 40
0
 40
0
 40
1
 40
1
 40
1
 40
1
 10
64.268350
 20
-3.529970
 30
0.0
 10
64.777832
 20
-3.529966
 30
0.0
 10
65.229264
 20
-3.201624
 30
0.0
 10
65.386204
 20
-2.716916
 30
0.0
  0
SPLINE
  5
10a
100
AcDbEntity
  8
0
 62
7
100
AcDbSpline
 70
8
 71
3
 72
8
 73
4
 74
0
 40
0
 40
0
 40
0
 40
0
 40
1
 40
1
 40
1
 40
1
 10
71.257668
 20
-1.184786
 30
0.0
 10
70.880421
 20
-0.019291
 30
0.0
 10
69.794994
 20
0.770248
 30
0.0
 10
68.569967
 20
0.770248
 30
0.0
  0
SPLINE
  5
10b
100
AcDbEntity
  8
0
 62
7
100
AcDbSpline
 70
8
 71
3
 72
8
 73
4
 74
0
 40
0
 40
0
 40
0
 40
0
 40
1
 40
1
 40
1
 40
1
 10
68.569967
 20
0.770248
 30
0.0
 10
67.344940
 20
0.770248
 30
0.0
 10
66.259513
 20
-0.019291
 30
0.0
 10
65.882266
 20
-1.184786
 30
0.0
  0
SPLINE
  5
10c
100
AcDbEntity
  8
0
 62
7
100
AcDbSpline
 70
8
 71
3
 72
8
 73
4
 74
0
 40
0
 40
0
 40
0
 40
0
 40
1
 40
1
 40
1
 40
1
 10
191.951610
 20
-2.716916
 30
0.0
 10
192.108550
 20
-3.201624
 30
0.0
 10
192.559982
 20
-3.529966
 30
0.0
 10
193.069464
 20
-3.529970
 30
0.0
  0
LWPOLYLINE
  5
10d
100
AcDbEntity
  8
0
 62
7
100
AcDbPolyline
 90
2
 70
0
 10
2.052320
 20
-47.141059
 30
0.0
 10
3.586480
 20
-47.636359
 30
0.0
  0
SPLINE
  5
10e
100
AcDbEntity
  8
0
 62
7
100
AcDbSpline
 70
8
 71
3
 72
8
 73
4
 74
0
 40
0
 40
0
 40
0
 40
0
 40
1
 40
1
 40
1
 40
1
 10
252.938026
 20
-6.779976
 30
0.0
 10
252.938026
 20
-5.917990
 30
0.0
 10
252.595591
 20
-5.091311
 30
0.0
 10
251.986058
 20
-4.481812
 30
0.0
  0
SPLINE
  5
10f
100
AcDbEntity
  8
0
 62
7
100
AcDbSpline
 70
8
 71
3
 72
8
 73
4
 74
0
 40
0
 40
0
 40
0
 40
0
 40
1
 40
1
 40
1
 40
1
 10
251.986058
 20
-4.481812
 30
0.0
 10
251.376526
 20
-3.872312
 30
0.0
 10
250.549828
 20
-3.529923
 30
0.0
 10
249.687842
 20
-3.529970
 30
0.0
  0
SPLINE
  5
110
100
AcDbEntity
  8
0
 62
7
100
AcDbSpline
 70
8
 71
3
 72
8
 73
4
 74
0
 40
0
 40
0
 40
0
 40
0
 40
1
 40
1
 40
1
 40
1
 10
71.753730
 20
-2.716916
 30
0.0
 10
71.910670
 20
-3.201624
 30
0.0
 10
72.362102
 20
-3.529966
 30
0.0
 10
72.871584
 20
-3.529970
 30
0.0
  0
SPLINE
  5
111
100
AcDbEntity
  8
0
 62
7
100
AcDbSpline
 70
8
 71
3
 72
8
 73
4
 74
0
 40
0
 40
0
 40
0
 40
0
 40
1
 40
1
 40
1
 40
1
 10
7.649997
 20
-3.529970
 30
0.0
 10
6.788042
 20
-3.529970
 30
0.0
 10
5.961390
 20
-3.872380
 30
0.0
 10
5.351896
 20
-4.481875
 30
0.0
  0
SPLINE
  5
112
100
AcDbEntity
  8
0
 62
7
100
AcDbSpline
 70
8
 71
3
 72
8
 73
4
 74
0
 40
0
 40
0
 40
0
 40
0
 40
1
 40
1
 40
1
 40
1
 10
5.351896
 20
-4.481875
 30
0.0
 10
4.742402
 20
-5.091369
 30
0.0
 10
4.399991
 20
-5.918021
 30
0.0
 10
4.399991
 20
-6.779976
 30
0.0
  0
SPLINE
  5
113
100
AcDbEntity
  8
0
 62
7
100
AcDbSpline
 70
8
 71
3
 72
8
 73
4
 74
0
 40
0
 40
0
 40
0
 40
0
 40
1
 40
1
 40
1
 40
1
 10
255.282700
 20
-47.142583
 30
0.0
 10
256.448194
 20
-46.765336
 30
0.0
 10
257.237734
 20
-45.679909
 30
0.0
 10
257.237734
 20
-44.454882
 30
0.0
  0
SPLINE
  5
114
100
AcDbEntity
  8
0
 62
7
100
AcDbSpline
 70
8
 71
3
 72
8
 73
4
 74
0
 40
0
 40
0
 40
0
 40
0
 40
1
 40
1
 40
1
 40
1
 10
257.237734
 20
-44.454882
 30
0.0
 10
257.237734
 20
-43.229855
 30
0.0
 10
256.448194
 20
-42.144428
 30
0.0
 10
255.282700
 20
-41.767181
 30
0.0
  0
SPLINE
  5
115
100
AcDbEntity
  8
0
 62
7
100
AcDbSpline
 70
8
 71
3
 72
8
 73
4
 74
0
 40
0
 40
0
 40
0
 40
0
 40
1
 40
1
 40
1
 40
1
 10
185.584084
 20
-86.192797
 30
0.0
 10
185.427144
 20
-85.708089
 30
0.0
 10
184.975712
 20
-85.379747
 30
0.0
 10
184.466230
 20
-85.379743
 30
0.0
  0
SPLINE
  5
116
100
AcDbEntity
  8
0
 62
7
100
AcDbSpline
 70
8
 71
3
 72
8
 73
4
 74
0
 40
0
 40
0
 40
0
 40
0
 40
1
 40
1
 40
1
 40
1
 10
193.069464
 20
-85.379743
 30
0.0
 10
192.559982
 20
-85.379747
 30
0.0
 10
192.108550
 20
-85.708089
 30
0.0
 10
191.951610
 20
-86.192797
 30
0.0
  0
LWPOLYLINE
  5
117
100
AcDbEntity
  8
0
 62
7
100
AcDbPolyline
 90
2
 70
0
 10
249.687080
 20
-3.529259
 30
0.0
 10
193.067940
 20
-3.529259
 30
0.0
  0
LWPOLYLINE
  5
118
100
AcDbEntity
  8
0
 62
7
100
AcDbPolyline
 90
2
 70
0
 10
252.935740
 20
-82.129559
 30
0.0
 10
252.935740
 20
-48.753959
 30
0.0
  0
LWPOLYLINE
  5
119
100
AcDbEntity
  8
0
 62
7
100
AcDbPolyline
 90
2
 70
0
 10
64.267080
 20
-3.529259
 30
0.0
 10
7.647940
 20
-3.529259
 30
0.0
  0
LWPOLYLINE
  5
11a
100
AcDbEntity
  8
0
 62
7
100
AcDbPolyline
 90
2
 70
0
 10
255.282700
 20
-41.766419
 30
0.0
 10
253.748540
 20
-41.271119
 30
0.0
  0
SPLINE
  5
11b
100
AcDbEntity
  8
0
 62
7
100
AcDbSpline
 70
8
 71
3
 72
8
 73
4
 74
0
 40
0
 40
0
 40
0
 40
0
 40
1
 40
1
 40
1
 40
1
 10
186.080400
 20
-87.724925
 30
0.0
 10
186.457770
 20
-88.890219
 30
0.0
 10
187.543099
 20
-89.679566
 30
0.0
 10
188.767974
 20
-89.679566
 30
0.0
  0
SPLINE
  5
11c
100
AcDbEntity
  8
0
 62
7
100
AcDbSpline
 70
8
 71
3
 72
8
 73
4
 74
0
 40
0
 40
0
 40
0
 40
0
 40
1
 40
1
 40
1
 40
1
 10
188.767974
 20
-89.679566
 30
0.0
 10
189.992849
 20
-89.679566
 30
0.0
 10
191.078178
 20
-88.890219
 30
0.0
 10
191.455548
 20
-87.724925
 30
0.0
  0
SPLINE
  5
11d
100
AcDbEntity
  8
0
 62
7
100
AcDbSpline
 70
8
 71
3
 72
8
 73
4
 74
0
 40
0
 40
0
 40
0
 40
0
 40
1
 40
1
 40
1
 40
1
 10
191.455548
 20
-1.184786
 30
0.0
 10
191.078151
 20
-0.019519
 30
0.0
 10
189.992831
 20
0.769799
 30
0.0
 10
188.767974
 20
0.769799
 30
0.0
  0
SPLINE
  5
11e
100
AcDbEntity
  8
0
 62
7
100
AcDbSpline
 70
8
 71
3
 72
8
 73
4
 74
0
 40
0
 40
0
 40
0
 40
0
 40
1
 40
1
 40
1
 40
1
 10
188.767974
 20
0.769799
 30
0.0
 10
187.543117
 20
0.769799
 30
0.0
 10
186.457797
 20
-0.019519
 30
0.0
 10
186.080400
 20
-1.184786
 30
0.0
  0
LWPOLYLINE
  5
11f
100
AcDbEntity
  8
0
 62
7
100
AcDbPolyline
 90
2
 70
0
 10
253.748540
 20
-47.636359
 30
0.0
 10
255.282700
 20
-47.141059
 30
0.0
  0
SPLINE
  5
120
100
AcDbEntity
  8
0
 62
7
100
AcDbSpline
 70
8
 71
3
 72
8
 73
4
 74
0
 40
0
 40
0
 40
0
 40
0
 40
1
 40
1
 40
1
 40
1
 10
65.882266
 20
-87.724925
 30
0.0
 10
66.259540
 20
-88.890391
 30
0.0
 10
67.344958
 20
-89.679901
 30
0.0
 10
68.569967
 20
-89.679901
 30
0.0
  0
SPLINE
  5
121
100
AcDbEntity
  8
0
 62
7
100
AcDbSpline
 70
8
 71
3
 72
8
 73
4
 74
0
 40
0
 40
0
 40
0
 40
0
 40
1
 40
1
 40
1
 40
1
 10
68.569967
 20
-89.679901
 30
0.0
 10
69.794976
 20
-89.679901
 30
0.0
 10
70.880394
 20
-88.890391
 30
0.0
 10
71.257668
 20
-87.724925
 30
0.0
  0
SPLINE
  5
122
100
AcDbEntity
  8
0
 62
7
100
AcDbSpline
 70
8
 71
3
 72
8
 73
4
 74
0
 40
0
 40
0
 40
0
 40
0
 40
1
 40
1
 40
1
 40
1
 10
3.586937
 20
-41.271119
 30
0.0
 10
4.071645
 20
-41.114179
 30
0.0
 10
4.399987
 20
-40.662747
 30
0.0
 10
4.399991
 20
-40.153265
 30
0.0
  0
LWPOLYLINE
  5
123
100
AcDbEntity
  8
0
 62
7
100
AcDbPolyline
 90
2
 70
0
 10
71.752460
 20
-2.716459
 30
0.0
 10
71.257160
 20
-1.182299
 30
0.0
  0
SPLINE
  5
124
100
AcDbEntity
  8
0
 62
7
100
AcDbSpline
 70
8
 71
3
 72
8
 73
4
 74
0
 40
0
 40
0
 40
0
 40
0
 40
1
 40
1
 40
1
 40
1
 10
65.386204
 20
-86.192797
 30
0.0
 10
65.229264
 20
-85.708089
 30
0.0
 10
64.777832
 20
-85.379747
 30
0.0
 10
64.268350
 20
-85.379743
 30
0.0
  0
LWPOLYLINE
  5
125
100
AcDbEntity
  8
0
 62
7
100
AcDbPolyline
 90
2
 70
0
 10
252.935740
 20
-40.150979
 30
0.0
 10
252.935740
 20
-6.777919
 30
0.0
  0
SPLINE
  5
126
100
AcDbEntity
  8
0
 62
7
100
AcDbSpline
 70
8
 71
3
 72
8
 73
4
 74
0
 40
0
 40
0
 40
0
 40
0
 40
1
 40
1
 40
1
 40
1
 10
252.938026
 20
-40.153265
 30
0.0
 10
252.938030
 20
-40.662747
 30
0.0
 10
253.266372
 20
-41.114179
 30
0.0
 10
253.751080
 20
-41.271119
 30
0.0
  0
LWPOLYLINE
  5
127
100
AcDbEntity
  8
0
 62
7
100
AcDbPolyline
 90
2
 70
0
 10
3.586480
 20
-41.271119
 30
0.0
 10
2.052320
 20
-41.766419
 30
0.0
  0
LWPOLYLINE
  5
128
100
AcDbEntity
  8
0
 62
7
100
AcDbPolyline
 90
2
 70
0
 10
71.257160
 20
-87.722639
 30
0.0
 10
71.752460
 20
-86.191019
 30
0.0
  0
SPLINE
  5
129
100
AcDbEntity
  8
0
 62
7
100
AcDbSpline
 70
8
 71
3
 72
8
 73
4
 74
0
 40
0
 40
0
 40
0
 40
0
 40
1
 40
1
 40
1
 40
1
 10
184.466230
 20
-3.529970
 30
0.0
 10
184.975712
 20
-3.529966
 30
0.0
 10
185.427144
 20
-3.201624
 30
0.0
 10
185.584084
 20
-2.716916
 30
0.0
  0
LWPOLYLINE
  5
12a
100
AcDbEntity
  8
0
 62
7
100
AcDbPolyline
 90
2
 70
0
 10
185.582560
 20
-86.191019
 30
0.0
 10
186.077860
 20
-87.722639
 30
0.0
  0
SPLINE
  5
12b
100
AcDbEntity
  8
0
 62
7
100
AcDbSpline
 70
8
 71
3
 72
8
 73
4
 74
0
 40
0
 40
0
 40
0
 40
0
 40
1
 40
1
 40
1
 40
1
 10
253.751080
 20
-47.638645
 30
0.0
 10
253.266372
 20
-47.795585
 30
0.0
 10
252.938030
 20
-48.247016
 30
0.0
 10
252.938026
 20
-48.756499
 30
0.0
  0
LWPOLYLINE
  5
12c
100
AcDbEntity
  8
0
 62
7
100
AcDbPolyline
 90
2
 70
0
 10
191.455040
 20
-87.722639
 30
0.0
 10
191.950340
 20
-86.191019
 30
0.0
  0
LWPOLYLINE
  5
12d
100
AcDbEntity
  8
0
 62
7
100
AcDbPolyline
 90
2
 70
0
 10
193.067940
 20
-85.378219
 30
0.0
 10
249.687080
 20
-85.378219
 30
0.0
  0
LWPOLYLINE
  5
12e
100
AcDbEntity
  8
0
 62
7
100
AcDbPolyline
 90
2
 70
0
 10
72.870060
 20
-85.378219
 30
0.0
 10
184.464960
 20
-85.378219
 30
0.0
  0
LWPOLYLINE
  5
12f
100
AcDbEntity
  8
0
 62
7
100
AcDbPolyline
 90
2
 70
0
 10
7.647940
 20
-85.378219
 30
0.0
 10
64.267080
 20
-85.378219
 30
0.0
  0
SPLINE
  5
130
100
AcDbEntity
  8
0
 62
7
100
AcDbSpline
 70
8
 71
3
 72
8
 73
4
 74
0
 40
0
 40
0
 40
0
 40
0
 40
1
 40
1
 40
1
 40
1
 10
4.399991
 20
-82.129813
 30
0.0
 10
4.400033
 20
-83.924712
 30
0.0
 10
5.855098
 20
-85.379743
 30
0.0
 10
7.649997
 20
-85.379743
 30
0.0
  0
LWPOLYLINE
  5
131
100
AcDbEntity
  8
0
 62
7
100
AcDbPolyline
 90
2
 70
0
 10
4.399280
 20
-48.753959
 30
0.0
 10
4.399280
 20
-82.129559
 30
0.0
  0
SPLINE
  5
132
100
AcDbEntity
  8
0
 62
7
100
AcDbSpline
 70
8
 71
3
 72
8
 73
4
 74
0
 40
0
 40
0
 40
0
 40
0
 40
1
 40
1
 40
1
 40
1
 10
2.054804
 20
-41.767181
 30
0.0
 10
0.889310
 20
-42.144428
 30
0.0
 10
0.099771
 20
-43.229856
 30
0.0
 10
0.099772
 20
-44.454883
 30
0.0
  0
SPLINE
  5
133
100
AcDbEntity
  8
0
 62
7
100
AcDbSpline
 70
8
 71
3
 72
8
 73
4
 74
0
 40
0
 40
0
 40
0
 40
0
 40
1
 40
1
 40
1
 40
1
 10
0.099772
 20
-44.454883
 30
0.0
 10
0.099772
 20
-45.679910
 30
0.0
 10
0.889312
 20
-46.765337
 30
0.0
 10
2.054807
 20
-47.142583
 30
0.0
  0
SPLINE
  5
134
100
AcDbEntity
  8
0
 62
7
100
AcDbSpline
 70
8
 71
3
 72
8
 73
4
 74
0
 40
0
 40
0
 40
0
 40
0
 40
1
 40
1
 40
1
 40
1
 10
2.425002
 20
-43.530009
 30
0.0
 10
2.050874
 20
-43.530009
 30
0.0
 10
1.713586
 20
-43.755378
 30
0.0
 10
1.570413
 20
-44.101027
 30
0.0
  0
SPLINE
  5
135
100
AcDbEntity
  8
0
 62
7
100
AcDbSpline
 70
8
 71
3
 72
8
 73
4
 74
0
 40
0
 40
0
 40
0
 40
0
 40
1
 40
1
 40
1
 40
1
 10
1.570413
 20
-44.101027
 30
0.0
 10
1.427241
 20
-44.446676
 30
0.0
 10
1.506380
 20
-44.844534
 30
0.0
 10
1.770928
 20
-45.109082
 30
0.0
  0
SPLINE
  5
136
100
AcDbEntity
  8
0
 62
7
100
AcDbSpline
 70
8
 71
3
 72
8
 73
4
 74
0
 40
0
 40
0
 40
0
 40
0
 40
1
 40
1
 40
1
 40
1
 10
1.770928
 20
-45.109082
 30
0.0
 10
2.035476
 20
-45.373630
 30
0.0
 10
2.433335
 20
-45.452769
 30
0.0
 10
2.778983
 20
-45.309597
 30
0.0
  0
SPLINE
  5
137
100
AcDbEntity
  8
0
 62
7
100
AcDbSpline
 70
8
 71
3
 72
8
 73
4
 74
0
 40
0
 40
0
 40
0
 40
0
 40
1
 40
1
 40
1
 40
1
 10
2.778983
 20
-45.309597
 30
0.0
 10
3.124632
 20
-45.166425
 30
0.0
 10
3.350001
 20
-44.829136
 30
0.0
 10
3.350001
 20
-44.455009
 30
0.0
  0
SPLINE
  5
138
100
AcDbEntity
  8
0
 62
7
100
AcDbSpline
 70
8
 71
3
 72
8
 73
4
 74
0
 40
0
 40
0
 40
0
 40
0
 40
1
 40
1
 40
1
 40
1
 10
3.350001
 20
-44.455009
 30
0.0
 10
3.350001
 20
-43.944146
 30
0.0
 10
2.935865
 20
-43.530009
 30
0.0
 10
2.425002
 20
-43.530009
 30
0.0
  0
LWPOLYLINE
  5
139
100
AcDbEntity
  8
0
 62
7
100
AcDbPolyline
 90
2
 70
0
 10
186.077860
 20
-1.182299
 30
0.0
 10
185.582560
 20
-2.716459
 30
0.0
  0
SPLINE
  5
13a
100
AcDbEntity
  8
0
 62
7
100
AcDbSpline
 70
8
 71
3
 72
8
 73
4
 74
0
 40
0
 40
0
 40
0
 40
0
 40
1
 40
1
 40
1
 40
1
 10
254.911860
 20
-43.530009
 30
0.0
 10
254.537733
 20
-43.530009
 30
0.0
 10
254.200444
 20
-43.755378
 30
0.0
 10
254.057272
 20
-44.101027
 30
0.0
  0
SPLINE
  5
13b
100
AcDbEntity
  8
0
 62
7
100
AcDbSpline
 70
8
 71
3
 72
8
 73
4
 74
0
 40
0
 40
0
 40
0
 40
0
 40
1
 40
1
 40
1
 40
1
 10
254.057272
 20
-44.101027
 30
0.0
 10
253.914100
 20
-44.446676
 30
0.0
 10
253.993239
 20
-44.844534
 30
0.0
 10
254.257787
 20
-45.109082
 30
0.0
  0
SPLINE
  5
13c
100
AcDbEntity
  8
0
 62
7
100
AcDbSpline
 70
8
 71
3
 72
8
 73
4
 74
0
 40
0
 40
0
 40
0
 40
0
 40
1
 40
1
 40
1
 40
1
 10
254.257787
 20
-45.109082
 30
0.0
 10
254.522335
 20
-45.373630
 30
0.0
 10
254.920193
 20
-45.452769
 30
0.0
 10
255.265842
 20
-45.309597
 30
0.0
  0
SPLINE
  5
13d
100
AcDbEntity
  8
0
 62
7
100
AcDbSpline
 70
8
 71
3
 72
8
 73
4
 74
0
 40
0
 40
0
 40
0
 40
0
 40
1
 40
1
 40
1
 40
1
 10
255.265842
 20
-45.309597
 30
0.0
 10
255.611491
 20
-45.166425
 30
0.0
 10
255.836859
 20
-44.829136
 30
0.0
 10
255.836859
 20
-44.455009
 30
0.0
  0
SPLINE
  5
13e
100
AcDbEntity
  8
0
 62
7
100
AcDbSpline
 70
8
 71
3
 72
8
 73
4
 74
0
 40
0
 40
0
 40
0
 40
0
 40
1
 40
1
 40
1
 40
1
 10
255.836859
 20
-44.455009
 30
0.0
 10
255.836859
 20
-44.209684
 30
0.0
 10
255.739404
 20
-43.974407
 30
0.0
 10
255.565933
 20
-43.800936
 30
0.0
  0
SPLINE
  5
13f
100
AcDbEntity
  8
0
 62
7
100
AcDbSpline
 70
8
 71
3
 72
8
 73
4
 74
0
 40
0
 40
0
 40
0
 40
0
 40
1
 40
1
 40
1
 40
1
 10
255.565933
 20
-43.800936
 30
0.0
 10
255.392462
 20
-43.627464
 30
0.0
 10
255.157185
 20
-43.530009
 30
0.0
 10
254.911860
 20
-43.530009
 30
0.0
  0
LWPOLYLINE
  5
140
100
AcDbEntity
  8
0
 62
7
100
AcDbPolyline
 90
1
 70
1
 10
2.425002
 20
-43.530009
 30
0.0
  0
SPLINE
  5
141
100
AcDbEntity
  8
0
 62
7
100
AcDbSpline
 70
8
 71
3
 72
8
 73
4
 74
0
 40
0
 40
0
 40
0
 40
0
 40
1
 40
1
 40
1
 40
1
 10
188.767974
 20
-0.629981
 30
0.0
 10
188.393847
 20
-0.629981
 30
0.0
 10
188.056558
 20
-0.855350
 30
0.0
 10
187.913386
 20
-1.200998
 30
0.0
  0
SPLINE
  5
142
100
AcDbEntity
  8
0
 62
7
100
AcDbSpline
 70
8
 71
3
 72
8
 73
4
 74
0
 40
0
 40
0
 40
0
 40
0
 40
1
 40
1
 40
1
 40
1
 10
187.913386
 20
-1.200998
 30
0.0
 10
187.770214
 20
-1.546647
 30
0.0
 10
187.849353
 20
-1.944506
 30
0.0
 10
188.113901
 20
-2.209054
 30
0.0
  0
SPLINE
  5
143
100
AcDbEntity
  8
0
 62
7
100
AcDbSpline
 70
8
 71
3
 72
8
 73
4
 74
0
 40
0
 40
0
 40
0
 40
0
 40
1
 40
1
 40
1
 40
1
 10
188.113901
 20
-2.209054
 30
0.0
 10
188.378449
 20
-2.473602
 30
0.0
 10
188.776307
 20
-2.552741
 30
0.0
 10
189.121956
 20
-2.409568
 30
0.0
  0
SPLINE
  5
144
100
AcDbEntity
  8
0
 62
7
100
AcDbSpline
 70
8
 71
3
 72
8
 73
4
 74
0
 40
0
 40
0
 40
0
 40
0
 40
1
 40
1
 40
1
 40
1
 10
189.121956
 20
-2.409568
 30
0.0
 10
189.467605
 20
-2.266396
 30
0.0
 10
189.692973
 20
-1.929108
 30
0.0
 10
189.692973
 20
-1.554980
 30
0.0
  0
SPLINE
  5
145
100
AcDbEntity
  8
0
 62
7
100
AcDbSpline
 70
8
 71
3
 72
8
 73
4
 74
0
 40
0
 40
0
 40
0
 40
0
 40
1
 40
1
 40
1
 40
1
 10
189.692973
 20
-1.554980
 30
0.0
 10
189.692973
 20
-1.309655
 30
0.0
 10
189.595518
 20
-1.074378
 30
0.0
 10
189.422047
 20
-0.900907
 30
0.0
  0
SPLINE
  5
146
100
AcDbEntity
  8
0
 62
7
100
AcDbSpline
 70
8
 71
3
 72
8
 73
4
 74
0
 40
0
 40
0
 40
0
 40
0
 40
1
 40
1
 40
1
 40
1
 10
189.422047
 20
-0.900907
 30
0.0
 10
189.248576
 20
-0.727436
 30
0.0
 10
189.013299
 20
-0.629981
 30
0.0
 10
188.767974
 20
-0.629981
 30
0.0
  0
LWPOLYLINE
  5
147
100
AcDbEntity
  8
0
 62
7
100
AcDbPolyline
 90
1
 70
1
 10
254.911860
 20
-43.530009
 30
0.0
  0
SPLINE
  5
148
100
AcDbEntity
  8
0
 62
7
100
AcDbSpline
 70
8
 71
3
 72
8
 73
4
 74
0
 40
0
 40
0
 40
0
 40
0
 40
1
 40
1
 40
1
 40
1
 10
68.570094
 20
-0.629981
 30
0.0
 10
68.195967
 20
-0.629981
 30
0.0
 10
67.858678
 20
-0.855350
 30
0.0
 10
67.715506
 20
-1.200998
 30
0.0
  0
SPLINE
  5
149
100
AcDbEntity
  8
0
 62
7
100
AcDbSpline
 70
8
 71
3
 72
8
 73
4
 74
0
 40
0
 40
0
 40
0
 40
0
 40
1
 40
1
 40
1
 40
1
 10
67.715506
 20
-1.200998
 30
0.0
 10
67.572334
 20
-1.546647
 30
0.0
 10
67.651473
 20
-1.944506
 30
0.0
 10
67.916021
 20
-2.209054
 30
0.0
  0
SPLINE
  5
14a
100
AcDbEntity
  8
0
 62
7
100
AcDbSpline
 70
8
 71
3
 72
8
 73
4
 74
0
 40
0
 40
0
 40
0
 40
0
 40
1
 40
1
 40
1
 40
1
 10
67.916021
 20
-2.209054
 30
0.0
 10
68.180569
 20
-2.473602
 30
0.0
 10
68.578427
 20
-2.552741
 30
0.0
 10
68.924076
 20
-2.409568
 30
0.0
  0
SPLINE
  5
14b
100
AcDbEntity
  8
0
 62
7
100
AcDbSpline
 70
8
 71
3
 72
8
 73
4
 74
0
 40
0
 40
0
 40
0
 40
0
 40
1
 40
1
 40
1
 40
1
 10
68.924076
 20
-2.409568
 30
0.0
 10
69.269725
 20
-2.266396
 30
0.0
 10
69.495093
 20
-1.929108
 30
0.0
 10
69.495093
 20
-1.554980
 30
0.0
  0
SPLINE
  5
14c
100
AcDbEntity
  8
0
 62
7
100
AcDbSpline
 70
8
 71
3
 72
8
 73
4
 74
0
 40
0
 40
0
 40
0
 40
0
 40
1
 40
1
 40
1
 40
1
 10
69.495093
 20
-1.554980
 30
0.0
 10
69.495093
 20
-1.309655
 30
0.0
 10
69.397638
 20
-1.074378
 30
0.0
 10
69.224167
 20
-0.900907
 30
0.0
  0
SPLINE
  5
14d
100
AcDbEntity
  8
0
 62
7
100
AcDbSpline
 70
8
 71
3
 72
8
 73
4
 74
0
 40
0
 40
0
 40
0
 40
0
 40
1
 40
1
 40
1
 40
1
 10
69.224167
 20
-0.900907
 30
0.0
 10
69.050696
 20
-0.727436
 30
0.0
 10
68.815419
 20
-0.629981
 30
0.0
 10
68.570094
 20
-0.629981
 30
0.0
  0
LWPOLYLINE
  5
14e
100
AcDbEntity
  8
0
 62
7
100
AcDbPolyline
 90
1
 70
1
 10
188.767974
 20
-0.629981
 30
0.0
  0
SPLINE
  5
14f
100
AcDbEntity
  8
0
 62
7
100
AcDbSpline
 70
8
 71
3
 72
8
 73
4
 74
0
 40
0
 40
0
 40
0
 40
0
 40
1
 40
1
 40
1
 40
1
 10
68.570094
 20
-86.429847
 30
0.0
 10
68.195967
 20
-86.429847
 30
0.0
 10
67.858678
 20
-86.655216
 30
0.0
 10
67.715506
 20
-87.000865
 30
0.0
  0
SPLINE
  5
150
100
AcDbEntity
  8
0
 62
7
100
AcDbSpline
 70
8
 71
3
 72
8
 73
4
 74
0
 40
0
 40
0
 40
0
 40
0
 40
1
 40
1
 40
1
 40
1
 10
67.715506
 20
-87.000865
 30
0.0
 10
67.572334
 20
-87.346514
 30
0.0
 10
67.651473
 20
-87.744372
 30
0.0
 10
67.916021
 20
-88.008920
 30
0.0
  0
SPLINE
  5
151
100
AcDbEntity
  8
0
 62
7
100
AcDbSpline
 70
8
 71
3
 72
8
 73
4
 74
0
 40
0
 40
0
 40
0
 40
0
 40
1
 40
1
 40
1
 40
1
 10
67.916021
 20
-88.008920
 30
0.0
 10
68.180569
 20
-88.273468
 30
0.0
 10
68.578427
 20
-88.352607
 30
0.0
 10
68.924076
 20
-88.209435
 30
0.0
  0
SPLINE
  5
152
100
AcDbEntity
  8
0
 62
7
100
AcDbSpline
 70
8
 71
3
 72
8
 73
4
 74
0
 40
0
 40
0
 40
0
 40
0
 40
1
 40
1
 40
1
 40
1
 10
68.924076
 20
-88.209435
 30
0.0
 10
69.269725
 20
-88.066263
 30
0.0
 10
69.495093
 20
-87.728974
 30
0.0
 10
69.495093
 20
-87.354847
 30
0.0
  0
SPLINE
  5
153
100
AcDbEntity
  8
0
 62
7
100
AcDbSpline
 70
8
 71
3
 72
8
 73
4
 74
0
 40
0
 40
0
 40
0
 40
0
 40
1
 40
1
 40
1
 40
1
 10
69.495093
 20
-87.354847
 30
0.0
 10
69.495093
 20
-87.109522
 30
0.0
 10
69.397638
 20
-86.874245
 30
0.0
 10
69.224167
 20
-86.700774
 30
0.0
  0
SPLINE
  5
154
100
AcDbEntity
  8
0
 62
7
100
AcDbSpline
 70
8
 71
3
 72
8
 73
4
 74
0
 40
0
 40
0
 40
0
 40
0
 40
1
 40
1
 40
1
 40
1
 10
69.224167
 20
-86.700774
 30
0.0
 10
69.050696
 20
-86.527302
 30
0.0
 10
68.815419
 20
-86.429847
 30
0.0
 10
68.570094
 20
-86.429847
 30
0.0
  0
LWPOLYLINE
  5
155
100
AcDbEntity
  8
0
 62
7
100
AcDbPolyline
 90
1
 70
1
 10
68.570094
 20
-0.629981
 30
0.0
  0
SPLINE
  5
156
100
AcDbEntity
  8
0
 62
7
100
AcDbSpline
 70
8
 71
3
 72
8
 73
4
 74
0
 40
0
 40
0
 40
0
 40
0
 40
1
 40
1
 40
1
 40
1
 10
188.767974
 20
-86.429847
 30
0.0
 10
188.393847
 20
-86.429847
 30
0.0
 10
188.056558
 20
-86.655216
 30
0.0
 10
187.913386
 20
-87.000865
 30
0.0
  0
SPLINE
  5
157
100
AcDbEntity
  8
0
 62
7
100
AcDbSpline
 70
8
 71
3
 72
8
 73
4
 74
0
 40
0
 40
0
 40
0
 40
0
 40
1
 40
1
 40
1
 40
1
 10
187.913386
 20
-87.000865
 30
0.0
 10
187.770214
 20
-87.346514
 30
0.0
 10
187.849353
 20
-87.744372
 30
0.0
 10
188.113901
 20
-88.008920
 30
0.0
  0
SPLINE
  5
158
100
AcDbEntity
  8
0
 62
7
100
AcDbSpline
 70
8
 71
3
 72
8
 73
4
 74
0
 40
0
 40
0
 40
0
 40
0
 40
1
 40
1
 40
1
 40
1
 10
188.113901
 20
-88.008920
 30
0.0
 10
188.378449
 20
-88.273468
 30
0.0
 10
188.776307
 20
-88.352607
 30
0.0
 10
189.121956
 20
-88.209435
 30
0.0
  0
SPLINE
  5
159
100
AcDbEntity
  8
0
 62
7
100
AcDbSpline
 70
8
 71
3
 72
8
 73
4
 74
0
 40
0
 40
0
 40
0
 40
0
 40
1
 40
1
 40
1
 40
1
 10
189.121956
 20
-88.209435
 30
0.0
 10
189.467605
 20
-88.066263
 30
0.0
 10
189.692973
 20
-87.728974
 30
0.0
 10
189.692973
 20
-87.354847
 30
0.0
  0
SPLINE
  5
15a
100
AcDbEntity
  8
0
 62
7
100
AcDbSpline
 70
8
 71
3
 72
8
 73
4
 74
0
 40
0
 40
0
 40
0
 40
0
 40
1
 40
1
 40
1
 40
1
 10
189.692973
 20
-87.354847
 30
0.0
 10
189.692973
 20
-87.109522
 30
0.0
 10
189.595518
 20
-86.874245
 30
0.0
 10
189.422047
 20
-86.700774
 30
0.0
  0
SPLINE
  5
15b
100
AcDbEntity
  8
0
 62
7
100
AcDbSpline
 70
8
 71
3
 72
8
 73
4
 74
0
 40
0
 40
0
 40
0
 40
0
 40
1
 40
1
 40
1
 40
1
 10
189.422047
 20
-86.700774
 30
0.0
 10
189.248576
 20
-86.527302
 30
0.0
 10
189.013299
 20
-86.429847
 30
0.0
 10
188.767974
 20
-86.429847
 30
0.0
  0
LWPOLYLINE
  5
15c
100
AcDbEntity
  8
0
 62
7
100
AcDbPolyline
 90
1
 70
1
 10
68.570094
 20
-86.429847
 30
0.0
  0
LWPOLYLINE
  5
15d
100
AcDbEntity
  8
0
 62
7
100
AcDbPolyline
 90
1
 70
1
 10
188.767974
 20
-86.429847
 30
0.0
  0
LWPOLYLINE
  5
15e
100
AcDbEntity
  8
0
 62
7
100
AcDbPolyline
 90
2
 70
0
 10
247.075960
 20
-8.886119
 30
0.0
 10
219.788740
 20
-8.886119
 30
0.0
  0
LWPOLYLINE
  5
15f
100
AcDbEntity
  8
0
 62
7
100
AcDbPolyline
 90
2
 70
0
 10
219.288360
 20
-9.386499
 30
0.0
 10
219.288360
 20
-22.386219
 30
0.0
  0
LWPOLYLINE
  5
160
100
AcDbEntity
  8
0
 62
7
100
AcDbPolyline
 90
2
 70
0
 10
219.788740
 20
-22.886599
 30
0.0
 10
247.075960
 20
-22.886599
 30
0.0
  0
SPLINE
  5
161
100
AcDbEntity
  8
0
 62
7
100
AcDbSpline
 70
8
 71
3
 72
8
 73
4
 74
0
 40
0
 40
0
 40
0
 40
0
 40
1
 40
1
 40
1
 40
1
 10
247.576594
 20
-9.387921
 30
0.0
 10
247.576594
 20
-9.111829
 30
0.0
 10
247.352814
 20
-8.887992
 30
0.0
 10
247.076722
 20
-8.887922
 30
0.0
  0
SPLINE
  5
162
100
AcDbEntity
  8
0
 62
7
100
AcDbSpline
 70
8
 71
3
 72
8
 73
4
 74
0
 40
0
 40
0
 40
0
 40
0
 40
1
 40
1
 40
1
 40
1
 10
219.788994
 20
-8.887922
 30
0.0
 10
219.512902
 20
-8.887992
 30
0.0
 10
219.289122
 20
-9.111829
 30
0.0
 10
219.289122
 20
-9.387921
 30
0.0
  0
SPLINE
  5
163
100
AcDbEntity
  8
0
 62
7
100
AcDbSpline
 70
8
 71
3
 72
8
 73
4
 74
0
 40
0
 40
0
 40
0
 40
0
 40
1
 40
1
 40
1
 40
1
 10
219.289122
 20
-22.387921
 30
0.0
 10
219.289122
 20
-22.664013
 30
0.0
 10
219.512902
 20
-22.887850
 30
0.0
 10
219.788994
 20
-22.887920
 30
0.0
  0
SPLINE
  5
164
100
AcDbEntity
  8
0
 62
7
100
AcDbSpline
 70
8
 71
3
 72
8
 73
4
 74
0
 40
0
 40
0
 40
0
 40
0
 40
1
 40
1
 40
1
 40
1
 10
247.076722
 20
-22.887920
 30
0.0
 10
247.352814
 20
-22.887850
 30
0.0
 10
247.576594
 20
-22.664013
 30
0.0
 10
247.576594
 20
-22.387921
 30
0.0
  0
SPLINE
  5
165
100
AcDbEntity
  8
0
 62
7
100
AcDbSpline
 70
8
 71
3
 72
8
 73
4
 74
0
 40
0
 40
0
 40
0
 40
0
 40
1
 40
1
 40
1
 40
1
 10
170.531536
 20
-78.534443
 30
0.0
 10
170.531570
 20
-78.667051
 30
0.0
 10
170.584280
 20
-78.794214
 30
0.0
 10
170.678072
 20
-78.887958
 30
0.0
  0
SPLINE
  5
166
100
AcDbEntity
  8
0
 62
7
100
AcDbSpline
 70
8
 71
3
 72
8
 73
4
 74
0
 40
0
 40
0
 40
0
 40
0
 40
1
 40
1
 40
1
 40
1
 10
170.678072
 20
-78.887958
 30
0.0
 10
170.771864
 20
-78.981703
 30
0.0
 10
170.899054
 20
-79.034349
 30
0.0
 10
171.031662
 20
-79.034315
 30
0.0
  0
SPLINE
  5
167
100
AcDbEntity
  8
0
 62
7
100
AcDbSpline
 70
8
 71
3
 72
8
 73
4
 74
0
 40
0
 40
0
 40
0
 40
0
 40
1
 40
1
 40
1
 40
1
 10
176.781460
 20
-79.034315
 30
0.0
 10
176.914068
 20
-79.034349
 30
0.0
 10
177.041258
 20
-78.981703
 30
0.0
 10
177.135050
 20
-78.887958
 30
0.0
  0
SPLINE
  5
168
100
AcDbEntity
  8
0
 62
7
100
AcDbSpline
 70
8
 71
3
 72
8
 73
4
 74
0
 40
0
 40
0
 40
0
 40
0
 40
1
 40
1
 40
1
 40
1
 10
177.135050
 20
-78.887958
 30
0.0
 10
177.228842
 20
-78.794214
 30
0.0
 10
177.281552
 20
-78.667051
 30
0.0
 10
177.281586
 20
-78.534443
 30
0.0
  0
SPLINE
  5
169
100
AcDbEntity
  8
0
 62
7
100
AcDbSpline
 70
8
 71
3
 72
8
 73
4
 74
0
 40
0
 40
0
 40
0
 40
0
 40
1
 40
1
 40
1
 40
1
 10
177.281586
 20
-65.534215
 30
0.0
 10
177.281552
 20
-65.401607
 30
0.0
 10
177.228842
 20
-65.274444
 30
0.0
 10
177.135050
 20
-65.180699
 30
0.0
  0
SPLINE
  5
16a
100
AcDbEntity
  8
0
 62
7
100
AcDbSpline
 70
8
 71
3
 72
8
 73
4
 74
0
 40
0
 40
0
 40
0
 40
0
 40
1
 40
1
 40
1
 40
1
 10
177.135050
 20
-65.180699
 30
0.0
 10
177.041258
 20
-65.086955
 30
0.0
 10
176.914068
 20
-65.034309
 30
0.0
 10
176.781460
 20
-65.034343
 30
0.0
  0
SPLINE
  5
16b
100
AcDbEntity
  8
0
 62
7
100
AcDbSpline
 70
8
 71
3
 72
8
 73
4
 74
0
 40
0
 40
0
 40
0
 40
0
 40
1
 40
1
 40
1
 40
1
 10
171.031662
 20
-65.034343
 30
0.0
 10
170.899054
 20
-65.034309
 30
0.0
 10
170.771864
 20
-65.086955
 30
0.0
 10
170.678072
 20
-65.180699
 30
0.0
  0
SPLINE
  5
16c
100
AcDbEntity
  8
0
 62
7
100
AcDbSpline
 70
8
 71
3
 72
8
 73
4
 74
0
 40
0
 40
0
 40
0
 40
0
 40
1
 40
1
 40
1
 40
1
 10
170.678072
 20
-65.180699
 30
0.0
 10
170.584280
 20
-65.274444
 30
0.0
 10
170.531570
 20
-65.401607
 30
0.0
 10
170.531536
 20
-65.534215
 30
0.0
  0
SPLINE
  5
16d
100
AcDbEntity
  8
0
 62
7
100
AcDbSpline
 70
8
 71
3
 72
8
 73
4
 74
0
 40
0
 40
0
 40
0
 40
0
 40
1
 40
1
 40
1
 40
1
 10
161.356548
 20
-80.034313
 30
0.0
 10
161.489156
 20
-80.034347
 30
0.0
 10
161.616346
 20
-79.981701
 30
0.0
 10
161.710138
 20
-79.887956
 30
0.0
  0
SPLINE
  5
16e
100
AcDbEntity
  8
0
 62
7
100
AcDbSpline
 70
8
 71
3
 72
8
 73
4
 74
0
 40
0
 40
0
 40
0
 40
0
 40
1
 40
1
 40
1
 40
1
 10
161.710138
 20
-79.887956
 30
0.0
 10
161.803930
 20
-79.794212
 30
0.0
 10
161.856640
 20
-79.667049
 30
0.0
 10
161.856674
 20
-79.534441
 30
0.0
  0
SPLINE
  5
16f
100
AcDbEntity
  8
0
 62
7
100
AcDbSpline
 70
8
 71
3
 72
8
 73
4
 74
0
 40
0
 40
0
 40
0
 40
0
 40
1
 40
1
 40
1
 40
1
 10
161.856674
 20
-66.534213
 30
0.0
 10
161.856640
 20
-66.401605
 30
0.0
 10
161.803930
 20
-66.274442
 30
0.0
 10
161.710138
 20
-66.180697
 30
0.0
  0
SPLINE
  5
170
100
AcDbEntity
  8
0
 62
7
100
AcDbSpline
 70
8
 71
3
 72
8
 73
4
 74
0
 40
0
 40
0
 40
0
 40
0
 40
1
 40
1
 40
1
 40
1
 10
161.710138
 20
-66.180697
 30
0.0
 10
161.616346
 20
-66.086953
 30
0.0
 10
161.489156
 20
-66.034307
 30
0.0
 10
161.356548
 20
-66.034341
 30
0.0
  0
SPLINE
  5
171
100
AcDbEntity
  8
0
 62
7
100
AcDbSpline
 70
8
 71
3
 72
8
 73
4
 74
0
 40
0
 40
0
 40
0
 40
0
 40
1
 40
1
 40
1
 40
1
 10
148.356574
 20
-66.034341
 30
0.0
 10
148.223966
 20
-66.034307
 30
0.0
 10
148.096776
 20
-66.086953
 30
0.0
 10
148.002984
 20
-66.180697
 30
0.0
  0
SPLINE
  5
172
100
AcDbEntity
  8
0
 62
7
100
AcDbSpline
 70
8
 71
3
 72
8
 73
4
 74
0
 40
0
 40
0
 40
0
 40
0
 40
1
 40
1
 40
1
 40
1
 10
148.002984
 20
-66.180697
 30
0.0
 10
147.909192
 20
-66.274442
 30
0.0
 10
147.856482
 20
-66.401605
 30
0.0
 10
147.856448
 20
-66.534213
 30
0.0
  0
SPLINE
  5
173
100
AcDbEntity
  8
0
 62
7
100
AcDbSpline
 70
8
 71
3
 72
8
 73
4
 74
0
 40
0
 40
0
 40
0
 40
0
 40
1
 40
1
 40
1
 40
1
 10
147.856448
 20
-79.534441
 30
0.0
 10
147.856482
 20
-79.667049
 30
0.0
 10
147.909192
 20
-79.794212
 30
0.0
 10
148.002984
 20
-79.887956
 30
0.0
  0
SPLINE
  5
174
100
AcDbEntity
  8
0
 62
7
100
AcDbSpline
 70
8
 71
3
 72
8
 73
4
 74
0
 40
0
 40
0
 40
0
 40
0
 40
1
 40
1
 40
1
 40
1
 10
148.002984
 20
-79.887956
 30
0.0
 10
148.096776
 20
-79.981701
 30
0.0
 10
148.223966
 20
-80.034347
 30
0.0
 10
148.356574
 20
-80.034313
 30
0.0
  0
SPLINE
  5
175
100
AcDbEntity
  8
0
 62
7
100
AcDbSpline
 70
8
 71
3
 72
8
 73
4
 74
0
 40
0
 40
0
 40
0
 40
0
 40
1
 40
1
 40
1
 40
1
 10
132.431536
 20
-78.534443
 30
0.0
 10
132.431570
 20
-78.667051
 30
0.0
 10
132.484280
 20
-78.794214
 30
0.0
 10
132.578072
 20
-78.887958
 30
0.0
  0
SPLINE
  5
176
100
AcDbEntity
  8
0
 62
7
100
AcDbSpline
 70
8
 71
3
 72
8
 73
4
 74
0
 40
0
 40
0
 40
0
 40
0
 40
1
 40
1
 40
1
 40
1
 10
132.578072
 20
-78.887958
 30
0.0
 10
132.671864
 20
-78.981703
 30
0.0
 10
132.799054
 20
-79.034349
 30
0.0
 10
132.931662
 20
-79.034315
 30
0.0
  0
SPLINE
  5
177
100
AcDbEntity
  8
0
 62
7
100
AcDbSpline
 70
8
 71
3
 72
8
 73
4
 74
0
 40
0
 40
0
 40
0
 40
0
 40
1
 40
1
 40
1
 40
1
 10
138.681460
 20
-79.034315
 30
0.0
 10
138.814068
 20
-79.034349
 30
0.0
 10
138.941258
 20
-78.981703
 30
0.0
 10
139.035050
 20
-78.887958
 30
0.0
  0
SPLINE
  5
178
100
AcDbEntity
  8
0
 62
7
100
AcDbSpline
 70
8
 71
3
 72
8
 73
4
 74
0
 40
0
 40
0
 40
0
 40
0
 40
1
 40
1
 40
1
 40
1
 10
139.035050
 20
-78.887958
 30
0.0
 10
139.128842
 20
-78.794214
 30
0.0
 10
139.181552
 20
-78.667051
 30
0.0
 10
139.181586
 20
-78.534443
 30
0.0
  0
SPLINE
  5
179
100
AcDbEntity
  8
0
 62
7
100
AcDbSpline
 70
8
 71
3
 72
8
 73
4
 74
0
 40
0
 40
0
 40
0
 40
0
 40
1
 40
1
 40
1
 40
1
 10
139.181586
 20
-65.534215
 30
0.0
 10
139.181552
 20
-65.401607
 30
0.0
 10
139.128842
 20
-65.274444
 30
0.0
 10
139.035050
 20
-65.180699
 30
0.0
  0
SPLINE
  5
17a
100
AcDbEntity
  8
0
 62
7
100
AcDbSpline
 70
8
 71
3
 72
8
 73
4
 74
0
 40
0
 40
0
 40
0
 40
0
 40
1
 40
1
 40
1
 40
1
 10
139.035050
 20
-65.180699
 30
0.0
 10
138.941258
 20
-65.086955
 30
0.0
 10
138.814068
 20
-65.034309
 30
0.0
 10
138.681460
 20
-65.034343
 30
0.0
  0
SPLINE
  5
17b
100
AcDbEntity
  8
0
 62
7
100
AcDbSpline
 70
8
 71
3
 72
8
 73
4
 74
0
 40
0
 40
0
 40
0
 40
0
 40
1
 40
1
 40
1
 40
1
 10
132.931662
 20
-65.034343
 30
0.0
 10
132.799054
 20
-65.034309
 30
0.0
 10
132.671864
 20
-65.086955
 30
0.0
 10
132.578072
 20
-65.180699
 30
0.0
  0
SPLINE
  5
17c
100
AcDbEntity
  8
0
 62
7
100
AcDbSpline
 70
8
 71
3
 72
8
 73
4
 74
0
 40
0
 40
0
 40
0
 40
0
 40
1
 40
1
 40
1
 40
1
 10
132.578072
 20
-65.180699
 30
0.0
 10
132.484280
 20
-65.274444
 30
0.0
 10
132.431570
 20
-65.401607
 30
0.0
 10
132.431536
 20
-65.534215
 30
0.0
  0
LWPOLYLINE
  5
17d
100
AcDbEntity
  8
0
 62
7
100
AcDbPolyline
 90
2
 70
0
 10
247.576340
 20
-22.386219
 30
0.0
 10
247.576340
 20
-9.386499
 30
0.0
  0
LWPOLYLINE
  5
17e
100
AcDbEntity
  8
0
 62
7
100
AcDbPolyline
 90
2
 70
0
 10
161.356040
 20
-80.034059
 30
0.0
 10
148.356320
 20
-80.034059
 30
0.0
  0
LWPOLYLINE
  5
17f
100
AcDbEntity
  8
0
 62
7
100
AcDbPolyline
 90
2
 70
0
 10
147.855940
 20
-79.533679
 30
0.0
 10
147.855940
 20
-66.533959
 30
0.0
  0
LWPOLYLINE
  5
180
100
AcDbEntity
  8
0
 62
7
100
AcDbPolyline
 90
2
 70
0
 10
148.356320
 20
-66.033579
 30
0.0
 10
161.356040
 20
-66.033579
 30
0.0
  0
LWPOLYLINE
  5
181
100
AcDbEntity
  8
0
 62
7
100
AcDbPolyline
 90
2
 70
0
 10
161.856420
 20
-66.533959
 30
0.0
 10
161.856420
 20
-79.533679
 30
0.0
  0
LWPOLYLINE
  5
182
100
AcDbEntity
  8
0
 62
7
100
AcDbPolyline
 90
2
 70
0
 10
170.530520
 20
-78.532919
 30
0.0
 10
170.530520
 20
-65.533199
 30
0.0
  0
LWPOLYLINE
  5
183
100
AcDbEntity
  8
0
 62
7
100
AcDbPolyline
 90
2
 70
0
 10
171.030900
 20
-65.032819
 30
0.0
 10
176.781460
 20
-65.032819
 30
0.0
  0
LWPOLYLINE
  5
184
100
AcDbEntity
  8
0
 62
7
100
AcDbPolyline
 90
2
 70
0
 10
177.279300
 20
-65.533199
 30
0.0
 10
177.279300
 20
-78.532919
 30
0.0
  0
LWPOLYLINE
  5
185
100
AcDbEntity
  8
0
 62
7
100
AcDbPolyline
 90
2
 70
0
 10
176.781460
 20
-79.033299
 30
0.0
 10
171.030900
 20
-79.033299
 30
0.0
  0
LWPOLYLINE
  5
186
100
AcDbEntity
  8
0
 62
7
100
AcDbPolyline
 90
2
 70
0
 10
132.430520
 20
-78.532919
 30
0.0
 10
132.430520
 20
-65.533199
 30
0.0
  0
LWPOLYLINE
  5
187
100
AcDbEntity
  8
0
 62
7
100
AcDbPolyline
 90
2
 70
0
 10
132.930900
 20
-65.032819
 30
0.0
 10
138.681460
 20
-65.032819
 30
0.0
  0
LWPOLYLINE
  5
188
100
AcDbEntity
  8
0
 62
7
100
AcDbPolyline
 90
2
 70
0
 10
139.179300
 20
-65.533199
 30
0.0
 10
139.179300
 20
-78.532919
 30
0.0
  0
SPLINE
  5
189
100
AcDbEntity
  8
0
 62
7
100
AcDbSpline
 70
8
 71
3
 72
8
 73
4
 74
0
 40
0
 40
0
 40
0
 40
0
 40
1
 40
1
 40
1
 40
1
 10
113.385092
 20
-78.534443
 30
0.0
 10
113.385126
 20
-78.667051
 30
0.0
 10
113.437836
 20
-78.794214
 30
0.0
 10
113.531628
 20
-78.887958
 30
0.0
  0
SPLINE
  5
18a
100
AcDbEntity
  8
0
 62
7
100
AcDbSpline
 70
8
 71
3
 72
8
 73
4
 74
0
 40
0
 40
0
 40
0
 40
0
 40
1
 40
1
 40
1
 40
1
 10
113.531628
 20
-78.887958
 30
0.0
 10
113.625420
 20
-78.981703
 30
0.0
 10
113.752610
 20
-79.034349
 30
0.0
 10
113.885218
 20
-79.034315
 30
0.0
  0
SPLINE
  5
18b
100
AcDbEntity
  8
0
 62
7
100
AcDbSpline
 70
8
 71
3
 72
8
 73
4
 74
0
 40
0
 40
0
 40
0
 40
0
 40
1
 40
1
 40
1
 40
1
 10
119.635270
 20
-79.034315
 30
0.0
 10
119.911313
 20
-79.034245
 30
0.0
 10
120.135072
 20
-78.810486
 30
0.0
 10
120.135142
 20
-78.534443
 30
0.0
  0
SPLINE
  5
18c
100
AcDbEntity
  8
0
 62
7
100
AcDbSpline
 70
8
 71
3
 72
8
 73
4
 74
0
 40
0
 40
0
 40
0
 40
0
 40
1
 40
1
 40
1
 40
1
 10
120.135142
 20
-65.534215
 30
0.0
 10
120.135072
 20
-65.258172
 30
0.0
 10
119.911313
 20
-65.034413
 30
0.0
 10
119.635270
 20
-65.034343
 30
0.0
  0
SPLINE
  5
18d
100
AcDbEntity
  8
0
 62
7
100
AcDbSpline
 70
8
 71
3
 72
8
 73
4
 74
0
 40
0
 40
0
 40
0
 40
0
 40
1
 40
1
 40
1
 40
1
 10
113.885218
 20
-65.034343
 30
0.0
 10
113.752610
 20
-65.034309
 30
0.0
 10
113.625420
 20
-65.086955
 30
0.0
 10
113.531628
 20
-65.180699
 30
0.0
  0
SPLINE
  5
18e
100
AcDbEntity
  8
0
 62
7
100
AcDbSpline
 70
8
 71
3
 72
8
 73
4
 74
0
 40
0
 40
0
 40
0
 40
0
 40
1
 40
1
 40
1
 40
1
 10
113.531628
 20
-65.180699
 30
0.0
 10
113.437836
 20
-65.274444
 30
0.0
 10
113.385126
 20
-65.401607
 30
0.0
 10
113.385092
 20
-65.534215
 30
0.0
  0
SPLINE
  5
18f
100
AcDbEntity
  8
0
 62
7
100
AcDbSpline
 70
8
 71
3
 72
8
 73
4
 74
0
 40
0
 40
0
 40
0
 40
0
 40
1
 40
1
 40
1
 40
1
 10
104.210104
 20
-80.034313
 30
0.0
 10
104.342712
 20
-80.034347
 30
0.0
 10
104.469902
 20
-79.981701
 30
0.0
 10
104.563694
 20
-79.887956
 30
0.0
  0
SPLINE
  5
190
100
AcDbEntity
  8
0
 62
7
100
AcDbSpline
 70
8
 71
3
 72
8
 73
4
 74
0
 40
0
 40
0
 40
0
 40
0
 40
1
 40
1
 40
1
 40
1
 10
104.563694
 20
-79.887956
 30
0.0
 10
104.657486
 20
-79.794212
 30
0.0
 10
104.710196
 20
-79.667049
 30
0.0
 10
104.710230
 20
-79.534441
 30
0.0
  0
SPLINE
  5
191
100
AcDbEntity
  8
0
 62
7
100
AcDbSpline
 70
8
 71
3
 72
8
 73
4
 74
0
 40
0
 40
0
 40
0
 40
0
 40
1
 40
1
 40
1
 40
1
 10
104.710230
 20
-66.534213
 30
0.0
 10
104.710196
 20
-66.401605
 30
0.0
 10
104.657486
 20
-66.274442
 30
0.0
 10
104.563694
 20
-66.180697
 30
0.0
  0
SPLINE
  5
192
100
AcDbEntity
  8
0
 62
7
100
AcDbSpline
 70
8
 71
3
 72
8
 73
4
 74
0
 40
0
 40
0
 40
0
 40
0
 40
1
 40
1
 40
1
 40
1
 10
104.563694
 20
-66.180697
 30
0.0
 10
104.469902
 20
-66.086953
 30
0.0
 10
104.342712
 20
-66.034307
 30
0.0
 10
104.210104
 20
-66.034341
 30
0.0
  0
SPLINE
  5
193
100
AcDbEntity
  8
0
 62
7
100
AcDbSpline
 70
8
 71
3
 72
8
 73
4
 74
0
 40
0
 40
0
 40
0
 40
0
 40
1
 40
1
 40
1
 40
1
 10
91.210130
 20
-66.034341
 30
0.0
 10
90.934087
 20
-66.034411
 30
0.0
 10
90.710328
 20
-66.258170
 30
0.0
 10
90.710258
 20
-66.534213
 30
0.0
  0
SPLINE
  5
194
100
AcDbEntity
  8
0
 62
7
100
AcDbSpline
 70
8
 71
3
 72
8
 73
4
 74
0
 40
0
 40
0
 40
0
 40
0
 40
1
 40
1
 40
1
 40
1
 10
90.710258
 20
-79.534441
 30
0.0
 10
90.710328
 20
-79.810484
 30
0.0
 10
90.934087
 20
-80.034243
 30
0.0
 10
91.210130
 20
-80.034313
 30
0.0
  0
SPLINE
  5
195
100
AcDbEntity
  8
0
 62
7
100
AcDbSpline
 70
8
 71
3
 72
8
 73
4
 74
0
 40
0
 40
0
 40
0
 40
0
 40
1
 40
1
 40
1
 40
1
 10
75.285092
 20
-78.534443
 30
0.0
 10
75.285126
 20
-78.667051
 30
0.0
 10
75.337836
 20
-78.794214
 30
0.0
 10
75.431628
 20
-78.887958
 30
0.0
  0
SPLINE
  5
196
100
AcDbEntity
  8
0
 62
7
100
AcDbSpline
 70
8
 71
3
 72
8
 73
4
 74
0
 40
0
 40
0
 40
0
 40
0
 40
1
 40
1
 40
1
 40
1
 10
75.431628
 20
-78.887958
 30
0.0
 10
75.525420
 20
-78.981703
 30
0.0
 10
75.652610
 20
-79.034349
 30
0.0
 10
75.785218
 20
-79.034315
 30
0.0
  0
SPLINE
  5
197
100
AcDbEntity
  8
0
 62
7
100
AcDbSpline
 70
8
 71
3
 72
8
 73
4
 74
0
 40
0
 40
0
 40
0
 40
0
 40
1
 40
1
 40
1
 40
1
 10
81.535270
 20
-79.034315
 30
0.0
 10
81.811313
 20
-79.034245
 30
0.0
 10
82.035072
 20
-78.810486
 30
0.0
 10
82.035142
 20
-78.534443
 30
0.0
  0
SPLINE
  5
198
100
AcDbEntity
  8
0
 62
7
100
AcDbSpline
 70
8
 71
3
 72
8
 73
4
 74
0
 40
0
 40
0
 40
0
 40
0
 40
1
 40
1
 40
1
 40
1
 10
82.035142
 20
-65.534215
 30
0.0
 10
82.035072
 20
-65.258172
 30
0.0
 10
81.811313
 20
-65.034413
 30
0.0
 10
81.535270
 20
-65.034343
 30
0.0
  0
SPLINE
  5
199
100
AcDbEntity
  8
0
 62
7
100
AcDbSpline
 70
8
 71
3
 72
8
 73
4
 74
0
 40
0
 40
0
 40
0
 40
0
 40
1
 40
1
 40
1
 40
1
 10
75.785218
 20
-65.034343
 30
0.0
 10
75.652610
 20
-65.034309
 30
0.0
 10
75.525420
 20
-65.086955
 30
0.0
 10
75.431628
 20
-65.180699
 30
0.0
  0
SPLINE
  5
19a
100
AcDbEntity
  8
0
 62
7
100
AcDbSpline
 70
8
 71
3
 72
8
 73
4
 74
0
 40
0
 40
0
 40
0
 40
0
 40
1
 40
1
 40
1
 40
1
 10
75.431628
 20
-65.180699
 30
0.0
 10
75.337836
 20
-65.274444
 30
0.0
 10
75.285126
 20
-65.401607
 30
0.0
 10
75.285092
 20
-65.534215
 30
0.0
  0
LWPOLYLINE
  5
19b
100
AcDbEntity
  8
0
 62
7
100
AcDbPolyline
 90
2
 70
0
 10
138.681460
 20
-79.033299
 30
0.0
 10
132.930900
 20
-79.033299
 30
0.0
  0
LWPOLYLINE
  5
19c
100
AcDbEntity
  8
0
 62
7
100
AcDbPolyline
 90
2
 70
0
 10
104.208580
 20
-80.034059
 30
0.0
 10
91.208860
 20
-80.034059
 30
0.0
  0
LWPOLYLINE
  5
19d
100
AcDbEntity
  8
0
 62
7
100
AcDbPolyline
 90
2
 70
0
 10
90.708480
 20
-79.533679
 30
0.0
 10
90.708480
 20
-66.533959
 30
0.0
  0
LWPOLYLINE
  5
19e
100
AcDbEntity
  8
0
 62
7
100
AcDbPolyline
 90
2
 70
0
 10
91.208860
 20
-66.033579
 30
0.0
 10
104.208580
 20
-66.033579
 30
0.0
  0
LWPOLYLINE
  5
19f
100
AcDbEntity
  8
0
 62
7
100
AcDbPolyline
 90
2
 70
0
 10
104.708960
 20
-66.533959
 30
0.0
 10
104.708960
 20
-79.533679
 30
0.0
  0
LWPOLYLINE
  5
1a0
100
AcDbEntity
  8
0
 62
7
100
AcDbPolyline
 90
2
 70
0
 10
113.383060
 20
-78.532919
 30
0.0
 10
113.383060
 20
-65.533199
 30
0.0
  0
LWPOLYLINE
  5
1a1
100
AcDbEntity
  8
0
 62
7
100
AcDbPolyline
 90
2
 70
0
 10
113.883440
 20
-65.032819
 30
0.0
 10
119.634000
 20
-65.032819
 30
0.0
  0
LWPOLYLINE
  5
1a2
100
AcDbEntity
  8
0
 62
7
100
AcDbPolyline
 90
2
 70
0
 10
120.134380
 20
-65.533199
 30
0.0
 10
120.134380
 20
-78.532919
 30
0.0
  0
LWPOLYLINE
  5
1a3
100
AcDbEntity
  8
0
 62
7
100
AcDbPolyline
 90
2
 70
0
 10
119.634000
 20
-79.033299
 30
0.0
 10
113.883440
 20
-79.033299
 30
0.0
  0
LWPOLYLINE
  5
1a4
100
AcDbEntity
  8
0
 62
7
100
AcDbPolyline
 90
2
 70
0
 10
75.283060
 20
-78.532919
 30
0.0
 10
75.283060
 20
-65.533199
 30
0.0
  0
LWPOLYLINE
  5
1a5
100
AcDbEntity
  8
0
 62
7
100
AcDbPolyline
 90
2
 70
0
 10
75.783440
 20
-65.032819
 30
0.0
 10
81.534000
 20
-65.032819
 30
0.0
  0
LWPOLYLINE
  5
1a6
100
AcDbEntity
  8
0
 62
7
100
AcDbPolyline
 90
2
 70
0
 10
82.034380
 20
-65.533199
 30
0.0
 10
82.034380
 20
-78.532919
 30
0.0
  0
SPLINE
  5
1a7
100
AcDbEntity
  8
0
 62
7
100
AcDbSpline
 70
8
 71
3
 72
8
 73
4
 74
0
 40
0
 40
0
 40
0
 40
0
 40
1
 40
1
 40
1
 40
1
 10
242.813840
 20
-28.436753
 30
0.0
 10
242.813874
 20
-28.304145
 30
0.0
 10
242.761228
 20
-28.176955
 30
0.0
 10
242.667483
 20
-28.083163
 30
0.0
  0
SPLINE
  5
1a8
100
AcDbEntity
  8
0
 62
7
100
AcDbSpline
 70
8
 71
3
 72
8
 73
4
 74
0
 40
0
 40
0
 40
0
 40
0
 40
1
 40
1
 40
1
 40
1
 10
242.667483
 20
-28.083163
 30
0.0
 10
242.573739
 20
-27.989371
 30
0.0
 10
242.446576
 20
-27.936661
 30
0.0
 10
242.313968
 20
-27.936627
 30
0.0
  0
SPLINE
  5
1a9
100
AcDbEntity
  8
0
 62
7
100
AcDbSpline
 70
8
 71
3
 72
8
 73
4
 74
0
 40
0
 40
0
 40
0
 40
0
 40
1
 40
1
 40
1
 40
1
 10
229.313994
 20
-27.936627
 30
0.0
 10
229.181342
 20
-27.936593
 30
0.0
 10
229.054113
 20
-27.989274
 30
0.0
 10
228.960314
 20
-28.083073
 30
0.0
  0
SPLINE
  5
1aa
100
AcDbEntity
  8
0
 62
7
100
AcDbSpline
 70
8
 71
3
 72
8
 73
4
 74
0
 40
0
 40
0
 40
0
 40
0
 40
1
 40
1
 40
1
 40
1
 10
228.960314
 20
-28.083073
 30
0.0
 10
228.866515
 20
-28.176872
 30
0.0
 10
228.813834
 20
-28.304101
 30
0.0
 10
228.813868
 20
-28.436753
 30
0.0
  0
SPLINE
  5
1ab
100
AcDbEntity
  8
0
 62
7
100
AcDbSpline
 70
8
 71
3
 72
8
 73
4
 74
0
 40
0
 40
0
 40
0
 40
0
 40
1
 40
1
 40
1
 40
1
 10
228.813868
 20
-41.436727
 30
0.0
 10
228.813834
 20
-41.569379
 30
0.0
 10
228.866515
 20
-41.696607
 30
0.0
 10
228.960314
 20
-41.790407
 30
0.0
  0
SPLINE
  5
1ac
100
AcDbEntity
  8
0
 62
7
100
AcDbSpline
 70
8
 71
3
 72
8
 73
4
 74
0
 40
0
 40
0
 40
0
 40
0
 40
1
 40
1
 40
1
 40
1
 10
228.960314
 20
-41.790407
 30
0.0
 10
229.054113
 20
-41.884206
 30
0.0
 10
229.181342
 20
-41.936887
 30
0.0
 10
229.313994
 20
-41.936853
 30
0.0
  0
SPLINE
  5
1ad
100
AcDbEntity
  8
0
 62
7
100
AcDbSpline
 70
8
 71
3
 72
8
 73
4
 74
0
 40
0
 40
0
 40
0
 40
0
 40
1
 40
1
 40
1
 40
1
 10
242.313968
 20
-41.936853
 30
0.0
 10
242.446576
 20
-41.936819
 30
0.0
 10
242.573739
 20
-41.884109
 30
0.0
 10
242.667483
 20
-41.790317
 30
0.0
  0
SPLINE
  5
1ae
100
AcDbEntity
  8
0
 62
7
100
AcDbSpline
 70
8
 71
3
 72
8
 73
4
 74
0
 40
0
 40
0
 40
0
 40
0
 40
1
 40
1
 40
1
 40
1
 10
242.667483
 20
-41.790317
 30
0.0
 10
242.761228
 20
-41.696525
 30
0.0
 10
242.813874
 20
-41.569335
 30
0.0
 10
242.813840
 20
-41.436727
 30
0.0
  0
LWPOLYLINE
  5
1af
100
AcDbEntity
  8
0
 62
7
100
AcDbPolyline
 90
2
 70
0
 10
81.534000
 20
-79.033299
 30
0.0
 10
75.783440
 20
-79.033299
 30
0.0
  0
LWPOLYLINE
  5
1b0
100
AcDbEntity
  8
0
 62
7
100
AcDbPolyline
 90
2
 70
0
 10
242.813840
 20
-41.436219
 30
0.0
 10
242.813840
 20
-28.436499
 30
0.0
  0
LWPOLYLINE
  5
1b1
100
AcDbEntity
  8
0
 62
7
100
AcDbPolyline
 90
2
 70
0
 10
229.313740
 20
-41.936599
 30
0.0
 10
242.313460
 20
-41.936599
 30
0.0
  0
LWPOLYLINE
  5
1b2
100
AcDbEntity
  8
0
 62
7
100
AcDbPolyline
 90
2
 70
0
 10
228.813360
 20
-28.436499
 30
0.0
 10
228.813360
 20
-41.436219
 30
0.0
  0
LWPOLYLINE
  5
1b3
100
AcDbEntity
  8
0
 62
7
100
AcDbPolyline
 90
2
 70
0
 10
242.313460
 20
-27.936119
 30
0.0
 10
229.313740
 20
-27.936119
 30
0.0
  0
LWPOLYLINE
  5
1b4
100
AcDbEntity
  8
0
 62
7
100
AcDbPolyline
 90
2
 70
0
 10
245.193820
 20
-79.533679
 30
0.0
 10
245.193820
 20
-66.533959
 30
0.0
  0
LWPOLYLINE
  5
1b5
100
AcDbEntity
  8
0
 62
7
100
AcDbPolyline
 90
2
 70
0
 10
231.693720
 20
-80.034059
 30
0.0
 10
244.693440
 20
-80.034059
 30
0.0
  0
LWPOLYLINE
  5
1b6
100
AcDbEntity
  8
0
 62
7
100
AcDbPolyline
 90
2
 70
0
 10
231.193340
 20
-66.533959
 30
0.0
 10
231.193340
 20
-79.533679
 30
0.0
  0
SPLINE
  5
1b7
100
AcDbEntity
  8
0
 62
7
100
AcDbSpline
 70
8
 71
3
 72
8
 73
4
 74
0
 40
0
 40
0
 40
0
 40
0
 40
1
 40
1
 40
1
 40
1
 10
245.195090
 20
-66.534213
 30
0.0
 10
245.195056
 20
-66.401605
 30
0.0
 10
245.142346
 20
-66.274442
 30
0.0
 10
245.048554
 20
-66.180697
 30
0.0
  0
SPLINE
  5
1b8
100
AcDbEntity
  8
0
 62
7
100
AcDbSpline
 70
8
 71
3
 72
8
 73
4
 74
0
 40
0
 40
0
 40
0
 40
0
 40
1
 40
1
 40
1
 40
1
 10
245.048554
 20
-66.180697
 30
0.0
 10
244.954762
 20
-66.086953
 30
0.0
 10
244.827572
 20
-66.034307
 30
0.0
 10
244.694964
 20
-66.034341
 30
0.0
  0
SPLINE
  5
1b9
100
AcDbEntity
  8
0
 62
7
100
AcDbSpline
 70
8
 71
3
 72
8
 73
4
 74
0
 40
0
 40
0
 40
0
 40
0
 40
1
 40
1
 40
1
 40
1
 10
231.694990
 20
-66.034341
 30
0.0
 10
231.418947
 20
-66.034411
 30
0.0
 10
231.195188
 20
-66.258170
 30
0.0
 10
231.195118
 20
-66.534213
 30
0.0
  0
SPLINE
  5
1ba
100
AcDbEntity
  8
0
 62
7
100
AcDbSpline
 70
8
 71
3
 72
8
 73
4
 74
0
 40
0
 40
0
 40
0
 40
0
 40
1
 40
1
 40
1
 40
1
 10
231.195118
 20
-79.534441
 30
0.0
 10
231.195188
 20
-79.810484
 30
0.0
 10
231.418947
 20
-80.034243
 30
0.0
 10
231.694990
 20
-80.034313
 30
0.0
  0
SPLINE
  5
1bb
100
AcDbEntity
  8
0
 62
7
100
AcDbSpline
 70
8
 71
3
 72
8
 73
4
 74
0
 40
0
 40
0
 40
0
 40
0
 40
1
 40
1
 40
1
 40
1
 10
244.694964
 20
-80.034313
 30
0.0
 10
244.827572
 20
-80.034347
 30
0.0
 10
244.954762
 20
-79.981701
 30
0.0
 10
245.048554
 20
-79.887956
 30
0.0
  0
SPLINE
  5
1bc
100
AcDbEntity
  8
0
 62
7
100
AcDbSpline
 70
8
 71
3
 72
8
 73
4
 74
0
 40
0
 40
0
 40
0
 40
0
 40
1
 40
1
 40
1
 40
1
 10
245.048554
 20
-79.887956
 30
0.0
 10
245.142346
 20
-79.794212
 30
0.0
 10
245.195056
 20
-79.667049
 30
0.0
 10
245.195090
 20
-79.534441
 30
0.0
  0
LWPOLYLINE
  5
1bd
100
AcDbEntity
  8
0
 62
7
100
AcDbPolyline
 90
2
 70
0
 10
244.693440
 20
-66.033579
 30
0.0
 10
231.693720
 20
-66.033579
 30
0.0
  0
LWPOLYLINE
  5
1be
100
AcDbEntity
  8
0
 62
7
100
AcDbPolyline
 90
2
 70
0
 10
202.333860
 20
-79.533679
 30
0.0
 10
202.333860
 20
-66.533959
 30
0.0
  0
LWPOLYLINE
  5
1bf
100
AcDbEntity
  8
0
 62
7
100
AcDbPolyline
 90
2
 70
0
 10
188.833760
 20
-80.034059
 30
0.0
 10
201.833480
 20
-80.034059
 30
0.0
  0
LWPOLYLINE
  5
1c0
100
AcDbEntity
  8
0
 62
7
100
AcDbPolyline
 90
2
 70
0
 10
188.333380
 20
-66.533959
 30
0.0
 10
188.333380
 20
-79.533679
 30
0.0
  0
SPLINE
  5
1c1
100
AcDbEntity
  8
0
 62
7
100
AcDbSpline
 70
8
 71
3
 72
8
 73
4
 74
0
 40
0
 40
0
 40
0
 40
0
 40
1
 40
1
 40
1
 40
1
 10
202.335384
 20
-66.534213
 30
0.0
 10
202.335350
 20
-66.401605
 30
0.0
 10
202.282640
 20
-66.274442
 30
0.0
 10
202.188848
 20
-66.180697
 30
0.0
  0
SPLINE
  5
1c2
100
AcDbEntity
  8
0
 62
7
100
AcDbSpline
 70
8
 71
3
 72
8
 73
4
 74
0
 40
0
 40
0
 40
0
 40
0
 40
1
 40
1
 40
1
 40
1
 10
202.188848
 20
-66.180697
 30
0.0
 10
202.095056
 20
-66.086953
 30
0.0
 10
201.967866
 20
-66.034307
 30
0.0
 10
201.835258
 20
-66.034341
 30
0.0
  0
SPLINE
  5
1c3
100
AcDbEntity
  8
0
 62
7
100
AcDbSpline
 70
8
 71
3
 72
8
 73
4
 74
0
 40
0
 40
0
 40
0
 40
0
 40
1
 40
1
 40
1
 40
1
 10
188.835284
 20
-66.034341
 30
0.0
 10
188.702676
 20
-66.034307
 30
0.0
 10
188.575486
 20
-66.086953
 30
0.0
 10
188.481694
 20
-66.180697
 30
0.0
  0
SPLINE
  5
1c4
100
AcDbEntity
  8
0
 62
7
100
AcDbSpline
 70
8
 71
3
 72
8
 73
4
 74
0
 40
0
 40
0
 40
0
 40
0
 40
1
 40
1
 40
1
 40
1
 10
188.481694
 20
-66.180697
 30
0.0
 10
188.387902
 20
-66.274442
 30
0.0
 10
188.335192
 20
-66.401605
 30
0.0
 10
188.335158
 20
-66.534213
 30
0.0
  0
SPLINE
  5
1c5
100
AcDbEntity
  8
0
 62
7
100
AcDbSpline
 70
8
 71
3
 72
8
 73
4
 74
0
 40
0
 40
0
 40
0
 40
0
 40
1
 40
1
 40
1
 40
1
 10
188.335158
 20
-79.534441
 30
0.0
 10
188.335192
 20
-79.667049
 30
0.0
 10
188.387902
 20
-79.794212
 30
0.0
 10
188.481694
 20
-79.887956
 30
0.0
  0
SPLINE
  5
1c6
100
AcDbEntity
  8
0
 62
7
100
AcDbSpline
 70
8
 71
3
 72
8
 73
4
 74
0
 40
0
 40
0
 40
0
 40
0
 40
1
 40
1
 40
1
 40
1
 10
188.481694
 20
-79.887956
 30
0.0
 10
188.575486
 20
-79.981701
 30
0.0
 10
188.702676
 20
-80.034347
 30
0.0
 10
188.835284
 20
-80.034313
 30
0.0
  0
SPLINE
  5
1c7
100
AcDbEntity
  8
0
 62
7
100
AcDbSpline
 70
8
 71
3
 72
8
 73
4
 74
0
 40
0
 40
0
 40
0
 40
0
 40
1
 40
1
 40
1
 40
1
 10
201.835258
 20
-80.034313
 30
0.0
 10
201.967866
 20
-80.034347
 30
0.0
 10
202.095056
 20
-79.981701
 30
0.0
 10
202.188848
 20
-79.887956
 30
0.0
  0
SPLINE
  5
1c8
100
AcDbEntity
  8
0
 62
7
100
AcDbSpline
 70
8
 71
3
 72
8
 73
4
 74
0
 40
0
 40
0
 40
0
 40
0
 40
1
 40
1
 40
1
 40
1
 10
202.188848
 20
-79.887956
 30
0.0
 10
202.282640
 20
-79.794212
 30
0.0
 10
202.335350
 20
-79.667049
 30
0.0
 10
202.335384
 20
-79.534441
 30
0.0
  0
LWPOLYLINE
  5
1c9
100
AcDbEntity
  8
0
 62
7
100
AcDbPolyline
 90
2
 70
0
 10
201.833480
 20
-66.033579
 30
0.0
 10
188.833760
 20
-66.033579
 30
0.0
  0
LWPOLYLINE
  5
1ca
100
AcDbEntity
  8
0
 62
7
100
AcDbPolyline
 90
2
 70
0
 10
45.181520
 20
-79.533679
 30
0.0
 10
45.181520
 20
-66.533959
 30
0.0
  0
LWPOLYLINE
  5
1cb
100
AcDbEntity
  8
0
 62
7
100
AcDbPolyline
 90
2
 70
0
 10
31.681420
 20
-80.034059
 30
0.0
 10
44.681140
 20
-80.034059
 30
0.0
  0
LWPOLYLINE
  5
1cc
100
AcDbEntity
  8
0
 62
7
100
AcDbPolyline
 90
2
 70
0
 10
31.181040
 20
-66.533959
 30
0.0
 10
31.181040
 20
-79.533679
 30
0.0
  0
SPLINE
  5
1cd
100
AcDbEntity
  8
0
 62
7
100
AcDbSpline
 70
8
 71
3
 72
8
 73
4
 74
0
 40
0
 40
0
 40
0
 40
0
 40
1
 40
1
 40
1
 40
1
 10
45.182536
 20
-66.534213
 30
0.0
 10
45.182466
 20
-66.258170
 30
0.0
 10
44.958707
 20
-66.034411
 30
0.0
 10
44.682664
 20
-66.034341
 30
0.0
  0
SPLINE
  5
1ce
100
AcDbEntity
  8
0
 62
7
100
AcDbSpline
 70
8
 71
3
 72
8
 73
4
 74
0
 40
0
 40
0
 40
0
 40
0
 40
1
 40
1
 40
1
 40
1
 10
31.682690
 20
-66.034341
 30
0.0
 10
31.550082
 20
-66.034307
 30
0.0
 10
31.422892
 20
-66.086953
 30
0.0
 10
31.329100
 20
-66.180697
 30
0.0
  0
SPLINE
  5
1cf
100
AcDbEntity
  8
0
 62
7
100
AcDbSpline
 70
8
 71
3
 72
8
 73
4
 74
0
 40
0
 40
0
 40
0
 40
0
 40
1
 40
1
 40
1
 40
1
 10
31.329100
 20
-66.180697
 30
0.0
 10
31.235308
 20
-66.274442
 30
0.0
 10
31.182598
 20
-66.401605
 30
0.0
 10
31.182564
 20
-66.534213
 30
0.0
  0
SPLINE
  5
1d0
100
AcDbEntity
  8
0
 62
7
100
AcDbSpline
 70
8
 71
3
 72
8
 73
4
 74
0
 40
0
 40
0
 40
0
 40
0
 40
1
 40
1
 40
1
 40
1
 10
31.182564
 20
-79.534441
 30
0.0
 10
31.182598
 20
-79.667049
 30
0.0
 10
31.235308
 20
-79.794212
 30
0.0
 10
31.329100
 20
-79.887956
 30
0.0
  0
SPLINE
  5
1d1
100
AcDbEntity
  8
0
 62
7
100
AcDbSpline
 70
8
 71
3
 72
8
 73
4
 74
0
 40
0
 40
0
 40
0
 40
0
 40
1
 40
1
 40
1
 40
1
 10
31.329100
 20
-79.887956
 30
0.0
 10
31.422892
 20
-79.981701
 30
0.0
 10
31.550082
 20
-80.034347
 30
0.0
 10
31.682690
 20
-80.034313
 30
0.0
  0
SPLINE
  5
1d2
100
AcDbEntity
  8
0
 62
7
100
AcDbSpline
 70
8
 71
3
 72
8
 73
4
 74
0
 40
0
 40
0
 40
0
 40
0
 40
1
 40
1
 40
1
 40
1
 10
44.682664
 20
-80.034313
 30
0.0
 10
44.958707
 20
-80.034243
 30
0.0
 10
45.182466
 20
-79.810484
 30
0.0
 10
45.182536
 20
-79.534441
 30
0.0
  0
SPLINE
  5
1d3
100
AcDbEntity
  8
0
 62
7
100
AcDbSpline
 70
8
 71
3
 72
8
 73
4
 74
0
 40
0
 40
0
 40
0
 40
0
 40
1
 40
1
 40
1
 40
1
 10
30.396180
 20
-60.985583
 30
0.0
 10
30.528788
 20
-60.985549
 30
0.0
 10
30.655951
 20
-60.932839
 30
0.0
 10
30.749695
 20
-60.839047
 30
0.0
  0
SPLINE
  5
1d4
100
AcDbEntity
  8
0
 62
7
100
AcDbSpline
 70
8
 71
3
 72
8
 73
4
 74
0
 40
0
 40
0
 40
0
 40
0
 40
1
 40
1
 40
1
 40
1
 10
30.749695
 20
-60.839047
 30
0.0
 10
30.843440
 20
-60.745255
 30
0.0
 10
30.896086
 20
-60.618065
 30
0.0
 10
30.896052
 20
-60.485457
 30
0.0
  0
SPLINE
  5
1d5
100
AcDbEntity
  8
0
 62
7
100
AcDbSpline
 70
8
 71
3
 72
8
 73
4
 74
0
 40
0
 40
0
 40
0
 40
0
 40
1
 40
1
 40
1
 40
1
 10
16.896055
 20
-60.485457
 30
0.0
 10
16.896021
 20
-60.618087
 30
0.0
 10
16.948684
 20
-60.745296
 30
0.0
 10
17.042456
 20
-60.839092
 30
0.0
  0
SPLINE
  5
1d6
100
AcDbEntity
  8
0
 62
7
100
AcDbSpline
 70
8
 71
3
 72
8
 73
4
 74
0
 40
0
 40
0
 40
0
 40
0
 40
1
 40
1
 40
1
 40
1
 10
17.042456
 20
-60.839092
 30
0.0
 10
17.136228
 20
-60.932887
 30
0.0
 10
17.263424
 20
-60.985583
 30
0.0
 10
17.396054
 20
-60.985583
 30
0.0
  0
SPLINE
  5
1d7
100
AcDbEntity
  8
0
 62
7
100
AcDbSpline
 70
8
 71
3
 72
8
 73
4
 74
0
 40
0
 40
0
 40
0
 40
0
 40
1
 40
1
 40
1
 40
1
 10
17.396054
 20
-46.985611
 30
0.0
 10
17.119961
 20
-46.985611
 30
0.0
 10
16.896125
 20
-47.209391
 30
0.0
 10
16.896055
 20
-47.485483
 30
0.0
  0
SPLINE
  5
1d8
100
AcDbEntity
  8
0
 62
7
100
AcDbSpline
 70
8
 71
3
 72
8
 73
4
 74
0
 40
0
 40
0
 40
0
 40
0
 40
1
 40
1
 40
1
 40
1
 10
30.896052
 20
-47.485483
 30
0.0
 10
30.895982
 20
-47.209440
 30
0.0
 10
30.672223
 20
-46.985681
 30
0.0
 10
30.396180
 20
-46.985611
 30
0.0
  0
LWPOLYLINE
  5
1d9
100
AcDbEntity
  8
0
 62
7
100
AcDbPolyline
 90
2
 70
0
 10
44.681140
 20
-66.033579
 30
0.0
 10
31.681420
 20
-66.033579
 30
0.0
  0
LWPOLYLINE
  5
1da
100
AcDbEntity
  8
0
 62
7
100
AcDbPolyline
 90
2
 70
0
 10
30.894020
 20
-60.483679
 30
0.0
 10
30.894020
 20
-47.483959
 30
0.0
  0
LWPOLYLINE
  5
1db
100
AcDbEntity
  8
0
 62
7
100
AcDbPolyline
 90
2
 70
0
 10
17.393920
 20
-60.984059
 30
0.0
 10
30.393640
 20
-60.984059
 30
0.0
  0
LWPOLYLINE
  5
1dc
100
AcDbEntity
  8
0
 62
7
100
AcDbPolyline
 90
2
 70
0
 10
16.893540
 20
-47.483959
 30
0.0
 10
16.893540
 20
-60.483679
 30
0.0
  0
LWPOLYLINE
  5
1dd
100
AcDbEntity
  8
0
 62
7
100
AcDbPolyline
 90
2
 70
0
 10
30.393640
 20
-46.983579
 30
0.0
 10
17.393920
 20
-46.983579
 30
0.0
  0
LWPOLYLINE
  5
1de
100
AcDbEntity
  8
0
 62
7
100
AcDbPolyline
 90
2
 70
0
 10
26.131520
 20
-41.436219
 30
0.0
 10
26.131520
 20
-28.436499
 30
0.0
  0
LWPOLYLINE
  5
1df
100
AcDbEntity
  8
0
 62
7
100
AcDbPolyline
 90
2
 70
0
 10
12.631420
 20
-41.936599
 30
0.0
 10
25.633680
 20
-41.936599
 30
0.0
  0
LWPOLYLINE
  5
1e0
100
AcDbEntity
  8
0
 62
7
100
AcDbPolyline
 90
2
 70
0
 10
12.133580
 20
-28.436499
 30
0.0
 10
12.133580
 20
-41.436219
 30
0.0
  0
SPLINE
  5
1e1
100
AcDbEntity
  8
0
 62
7
100
AcDbSpline
 70
8
 71
3
 72
8
 73
4
 74
0
 40
0
 40
0
 40
0
 40
0
 40
1
 40
1
 40
1
 40
1
 10
26.133806
 20
-28.436753
 30
0.0
 10
26.133840
 20
-28.304145
 30
0.0
 10
26.081194
 20
-28.176955
 30
0.0
 10
25.987449
 20
-28.083163
 30
0.0
  0
SPLINE
  5
1e2
100
AcDbEntity
  8
0
 62
7
100
AcDbSpline
 70
8
 71
3
 72
8
 73
4
 74
0
 40
0
 40
0
 40
0
 40
0
 40
1
 40
1
 40
1
 40
1
 10
25.987449
 20
-28.083163
 30
0.0
 10
25.893705
 20
-27.989371
 30
0.0
 10
25.766542
 20
-27.936661
 30
0.0
 10
25.633934
 20
-27.936627
 30
0.0
  0
SPLINE
  5
1e3
100
AcDbEntity
  8
0
 62
7
100
AcDbSpline
 70
8
 71
3
 72
8
 73
4
 74
0
 40
0
 40
0
 40
0
 40
0
 40
1
 40
1
 40
1
 40
1
 10
12.633858
 20
-27.936627
 30
0.0
 10
12.501228
 20
-27.936627
 30
0.0
 10
12.374032
 20
-27.989323
 30
0.0
 10
12.280261
 20
-28.083118
 30
0.0
  0
SPLINE
  5
1e4
100
AcDbEntity
  8
0
 62
7
100
AcDbSpline
 70
8
 71
3
 72
8
 73
4
 74
0
 40
0
 40
0
 40
0
 40
0
 40
1
 40
1
 40
1
 40
1
 10
12.280261
 20
-28.083118
 30
0.0
 10
12.186489
 20
-28.176914
 30
0.0
 10
12.133826
 20
-28.304123
 30
0.0
 10
12.133859
 20
-28.436753
 30
0.0
  0
SPLINE
  5
1e5
100
AcDbEntity
  8
0
 62
7
100
AcDbSpline
 70
8
 71
3
 72
8
 73
4
 74
0
 40
0
 40
0
 40
0
 40
0
 40
1
 40
1
 40
1
 40
1
 10
12.133859
 20
-41.436727
 30
0.0
 10
12.133826
 20
-41.569357
 30
0.0
 10
12.186489
 20
-41.696566
 30
0.0
 10
12.280261
 20
-41.790362
 30
0.0
  0
SPLINE
  5
1e6
100
AcDbEntity
  8
0
 62
7
100
AcDbSpline
 70
8
 71
3
 72
8
 73
4
 74
0
 40
0
 40
0
 40
0
 40
0
 40
1
 40
1
 40
1
 40
1
 10
12.280261
 20
-41.790362
 30
0.0
 10
12.374032
 20
-41.884157
 30
0.0
 10
12.501228
 20
-41.936853
 30
0.0
 10
12.633858
 20
-41.936853
 30
0.0
  0
SPLINE
  5
1e7
100
AcDbEntity
  8
0
 62
7
100
AcDbSpline
 70
8
 71
3
 72
8
 73
4
 74
0
 40
0
 40
0
 40
0
 40
0
 40
1
 40
1
 40
1
 40
1
 10
25.633934
 20
-41.936853
 30
0.0
 10
25.766542
 20
-41.936819
 30
0.0
 10
25.893705
 20
-41.884109
 30
0.0
 10
25.987449
 20
-41.790317
 30
0.0
  0
SPLINE
  5
1e8
100
AcDbEntity
  8
0
 62
7
100
AcDbSpline
 70
8
 71
3
 72
8
 73
4
 74
0
 40
0
 40
0
 40
0
 40
0
 40
1
 40
1
 40
1
 40
1
 10
25.987449
 20
-41.790317
 30
0.0
 10
26.081194
 20
-41.696525
 30
0.0
 10
26.133840
 20
-41.569335
 30
0.0
 10
26.133806
 20
-41.436727
 30
0.0
  0
SPLINE
  5
1e9
100
AcDbEntity
  8
0
 62
7
100
AcDbSpline
 70
8
 71
3
 72
8
 73
4
 74
0
 40
0
 40
0
 40
0
 40
0
 40
1
 40
1
 40
1
 40
1
 10
223.265238
 20
-80.034313
 30
0.0
 10
223.541281
 20
-80.034243
 30
0.0
 10
223.765040
 20
-79.810484
 30
0.0
 10
223.765110
 20
-79.534441
 30
0.0
  0
SPLINE
  5
1ea
100
AcDbEntity
  8
0
 62
7
100
AcDbSpline
 70
8
 71
3
 72
8
 73
4
 74
0
 40
0
 40
0
 40
0
 40
0
 40
1
 40
1
 40
1
 40
1
 10
209.765138
 20
-79.534441
 30
0.0
 10
209.765172
 20
-79.667049
 30
0.0
 10
209.817882
 20
-79.794212
 30
0.0
 10
209.911674
 20
-79.887956
 30
0.0
  0
SPLINE
  5
1eb
100
AcDbEntity
  8
0
 62
7
100
AcDbSpline
 70
8
 71
3
 72
8
 73
4
 74
0
 40
0
 40
0
 40
0
 40
0
 40
1
 40
1
 40
1
 40
1
 10
209.911674
 20
-79.887956
 30
0.0
 10
210.005466
 20
-79.981701
 30
0.0
 10
210.132656
 20
-80.034347
 30
0.0
 10
210.265264
 20
-80.034313
 30
0.0
  0
SPLINE
  5
1ec
100
AcDbEntity
  8
0
 62
7
100
AcDbSpline
 70
8
 71
3
 72
8
 73
4
 74
0
 40
0
 40
0
 40
0
 40
0
 40
1
 40
1
 40
1
 40
1
 10
210.265264
 20
-66.034341
 30
0.0
 10
210.132656
 20
-66.034307
 30
0.0
 10
210.005466
 20
-66.086953
 30
0.0
 10
209.911674
 20
-66.180697
 30
0.0
  0
SPLINE
  5
1ed
100
AcDbEntity
  8
0
 62
7
100
AcDbSpline
 70
8
 71
3
 72
8
 73
4
 74
0
 40
0
 40
0
 40
0
 40
0
 40
1
 40
1
 40
1
 40
1
 10
209.911674
 20
-66.180697
 30
0.0
 10
209.817882
 20
-66.274442
 30
0.0
 10
209.765172
 20
-66.401605
 30
0.0
 10
209.765138
 20
-66.534213
 30
0.0
  0
SPLINE
  5
1ee
100
AcDbEntity
  8
0
 62
7
100
AcDbSpline
 70
8
 71
3
 72
8
 73
4
 74
0
 40
0
 40
0
 40
0
 40
0
 40
1
 40
1
 40
1
 40
1
 10
223.765110
 20
-66.534213
 30
0.0
 10
223.765040
 20
-66.258170
 30
0.0
 10
223.541281
 20
-66.034411
 30
0.0
 10
223.265238
 20
-66.034341
 30
0.0
  0
LWPOLYLINE
  5
1ef
100
AcDbEntity
  8
0
 62
7
100
AcDbPolyline
 90
2
 70
0
 10
25.633680
 20
-27.936119
 30
0.0
 10
12.631420
 20
-27.936119
 30
0.0
  0
LWPOLYLINE
  5
1f0
100
AcDbEntity
  8
0
 62
7
100
AcDbPolyline
 90
2
 70
0
 10
223.763840
 20
-79.533679
 30
0.0
 10
223.763840
 20
-66.533959
 30
0.0
  0
LWPOLYLINE
  5
1f1
100
AcDbEntity
  8
0
 62
7
100
AcDbPolyline
 90
2
 70
0
 10
210.263740
 20
-80.034059
 30
0.0
 10
223.263460
 20
-80.034059
 30
0.0
  0
LWPOLYLINE
  5
1f2
100
AcDbEntity
  8
0
 62
7
100
AcDbPolyline
 90
2
 70
0
 10
209.763360
 20
-66.533959
 30
0.0
 10
209.763360
 20
-79.533679
 30
0.0
  0
SPLINE
  5
1f3
100
AcDbEntity
  8
0
 62
7
100
AcDbSpline
 70
8
 71
3
 72
8
 73
4
 74
0
 40
0
 40
0
 40
0
 40
0
 40
1
 40
1
 40
1
 40
1
 10
66.112644
 20
-80.034313
 30
0.0
 10
66.388687
 20
-80.034243
 30
0.0
 10
66.612446
 20
-79.810484
 30
0.0
 10
66.612516
 20
-79.534441
 30
0.0
  0
SPLINE
  5
1f4
100
AcDbEntity
  8
0
 62
7
100
AcDbSpline
 70
8
 71
3
 72
8
 73
4
 74
0
 40
0
 40
0
 40
0
 40
0
 40
1
 40
1
 40
1
 40
1
 10
52.612544
 20
-79.534441
 30
0.0
 10
52.612578
 20
-79.667049
 30
0.0
 10
52.665288
 20
-79.794212
 30
0.0
 10
52.759080
 20
-79.887956
 30
0.0
  0
SPLINE
  5
1f5
100
AcDbEntity
  8
0
 62
7
100
AcDbSpline
 70
8
 71
3
 72
8
 73
4
 74
0
 40
0
 40
0
 40
0
 40
0
 40
1
 40
1
 40
1
 40
1
 10
52.759080
 20
-79.887956
 30
0.0
 10
52.852872
 20
-79.981701
 30
0.0
 10
52.980062
 20
-80.034347
 30
0.0
 10
53.112670
 20
-80.034313
 30
0.0
  0
SPLINE
  5
1f6
100
AcDbEntity
  8
0
 62
7
100
AcDbSpline
 70
8
 71
3
 72
8
 73
4
 74
0
 40
0
 40
0
 40
0
 40
0
 40
1
 40
1
 40
1
 40
1
 10
53.112670
 20
-66.034341
 30
0.0
 10
52.980062
 20
-66.034307
 30
0.0
 10
52.852872
 20
-66.086953
 30
0.0
 10
52.759080
 20
-66.180697
 30
0.0
  0
SPLINE
  5
1f7
100
AcDbEntity
  8
0
 62
7
100
AcDbSpline
 70
8
 71
3
 72
8
 73
4
 74
0
 40
0
 40
0
 40
0
 40
0
 40
1
 40
1
 40
1
 40
1
 10
52.759080
 20
-66.180697
 30
0.0
 10
52.665288
 20
-66.274442
 30
0.0
 10
52.612578
 20
-66.401605
 30
0.0
 10
52.612544
 20
-66.534213
 30
0.0
  0
SPLINE
  5
1f8
100
AcDbEntity
  8
0
 62
7
100
AcDbSpline
 70
8
 71
3
 72
8
 73
4
 74
0
 40
0
 40
0
 40
0
 40
0
 40
1
 40
1
 40
1
 40
1
 10
66.612516
 20
-66.534213
 30
0.0
 10
66.612446
 20
-66.258170
 30
0.0
 10
66.388687
 20
-66.034411
 30
0.0
 10
66.112644
 20
-66.034341
 30
0.0
  0
LWPOLYLINE
  5
1f9
100
AcDbEntity
  8
0
 62
7
100
AcDbPolyline
 90
2
 70
0
 10
223.263460
 20
-66.033579
 30
0.0
 10
210.263740
 20
-66.033579
 30
0.0
  0
LWPOLYLINE
  5
1fa
100
AcDbEntity
  8
0
 62
7
100
AcDbPolyline
 90
2
 70
0
 10
66.611500
 20
-79.533679
 30
0.0
 10
66.611500
 20
-66.533959
 30
0.0
  0
LWPOLYLINE
  5
1fb
100
AcDbEntity
  8
0
 62
7
100
AcDbPolyline
 90
2
 70
0
 10
53.111400
 20
-80.034059
 30
0.0
 10
66.111120
 20
-80.034059
 30
0.0
  0
LWPOLYLINE
  5
1fc
100
AcDbEntity
  8
0
 62
7
100
AcDbPolyline
 90
2
 70
0
 10
52.611020
 20
-66.533959
 30
0.0
 10
52.611020
 20
-79.533679
 30
0.0
  0
SPLINE
  5
1fd
100
AcDbEntity
  8
0
 62
7
100
AcDbSpline
 70
8
 71
3
 72
8
 73
4
 74
0
 40
0
 40
0
 40
0
 40
0
 40
1
 40
1
 40
1
 40
1
 10
23.252760
 20
-80.034313
 30
0.0
 10
23.528852
 20
-80.034313
 30
0.0
 10
23.752689
 20
-79.810533
 30
0.0
 10
23.752759
 20
-79.534441
 30
0.0
  0
SPLINE
  5
1fe
100
AcDbEntity
  8
0
 62
7
100
AcDbSpline
 70
8
 71
3
 72
8
 73
4
 74
0
 40
0
 40
0
 40
0
 40
0
 40
1
 40
1
 40
1
 40
1
 10
9.752762
 20
-79.534441
 30
0.0
 10
9.752832
 20
-79.810533
 30
0.0
 10
9.976669
 20
-80.034313
 30
0.0
 10
10.252761
 20
-80.034313
 30
0.0
  0
SPLINE
  5
1ff
100
AcDbEntity
  8
0
 62
7
100
AcDbSpline
 70
8
 71
3
 72
8
 73
4
 74
0
 40
0
 40
0
 40
0
 40
0
 40
1
 40
1
 40
1
 40
1
 10
10.252761
 20
-66.034341
 30
0.0
 10
9.976669
 20
-66.034341
 30
0.0
 10
9.752832
 20
-66.258121
 30
0.0
 10
9.752762
 20
-66.534213
 30
0.0
  0
SPLINE
  5
200
100
AcDbEntity
  8
0
 62
7
100
AcDbSpline
 70
8
 71
3
 72
8
 73
4
 74
0
 40
0
 40
0
 40
0
 40
0
 40
1
 40
1
 40
1
 40
1
 10
23.752759
 20
-66.534213
 30
0.0
 10
23.752689
 20
-66.258121
 30
0.0
 10
23.528852
 20
-66.034341
 30
0.0
 10
23.252760
 20
-66.034341
 30
0.0
  0
LWPOLYLINE
  5
201
100
AcDbEntity
  8
0
 62
7
100
AcDbPolyline
 90
2
 70
0
 10
66.111120
 20
-66.033579
 30
0.0
 10
53.111400
 20
-66.033579
 30
0.0
  0
LWPOLYLINE
  5
202
100
AcDbEntity
  8
0
 62
7
100
AcDbPolyline
 90
2
 70
0
 10
23.751540
 20
-79.533679
 30
0.0
 10
23.751540
 20
-66.533959
 30
0.0
  0
LWPOLYLINE
  5
203
100
AcDbEntity
  8
0
 62
7
100
AcDbPolyline
 90
2
 70
0
 10
10.251440
 20
-80.034059
 30
0.0
 10
23.251160
 20
-80.034059
 30
0.0
  0
LWPOLYLINE
  5
204
100
AcDbEntity
  8
0
 62
7
100
AcDbPolyline
 90
2
 70
0
 10
9.751060
 20
-66.533959
 30
0.0
 10
9.751060
 20
-79.533679
 30
0.0
  0
SPLINE
  5
205
100
AcDbEntity
  8
0
 62
7
100
AcDbSpline
 70
8
 71
3
 72
8
 73
4
 74
0
 40
0
 40
0
 40
0
 40
0
 40
1
 40
1
 40
1
 40
1
 10
56.588152
 20
-60.985583
 30
0.0
 10
56.720804
 20
-60.985617
 30
0.0
 10
56.848033
 20
-60.932936
 30
0.0
 10
56.941832
 20
-60.839137
 30
0.0
  0
SPLINE
  5
206
100
AcDbEntity
  8
0
 62
7
100
AcDbSpline
 70
8
 71
3
 72
8
 73
4
 74
0
 40
0
 40
0
 40
0
 40
0
 40
1
 40
1
 40
1
 40
1
 10
56.941832
 20
-60.839137
 30
0.0
 10
57.035631
 20
-60.745337
 30
0.0
 10
57.088312
 20
-60.618109
 30
0.0
 10
57.088278
 20
-60.485457
 30
0.0
  0
SPLINE
  5
207
100
AcDbEntity
  8
0
 62
7
100
AcDbSpline
 70
8
 71
3
 72
8
 73
4
 74
0
 40
0
 40
0
 40
0
 40
0
 40
1
 40
1
 40
1
 40
1
 10
43.088052
 20
-60.485457
 30
0.0
 10
43.088018
 20
-60.618109
 30
0.0
 10
43.140699
 20
-60.745337
 30
0.0
 10
43.234498
 20
-60.839137
 30
0.0
  0
SPLINE
  5
208
100
AcDbEntity
  8
0
 62
7
100
AcDbSpline
 70
8
 71
3
 72
8
 73
4
 74
0
 40
0
 40
0
 40
0
 40
0
 40
1
 40
1
 40
1
 40
1
 10
43.234498
 20
-60.839137
 30
0.0
 10
43.328297
 20
-60.932936
 30
0.0
 10
43.455526
 20
-60.985617
 30
0.0
 10
43.588178
 20
-60.985583
 30
0.0
  0
SPLINE
  5
209
100
AcDbEntity
  8
0
 62
7
100
AcDbSpline
 70
8
 71
3
 72
8
 73
4
 74
0
 40
0
 40
0
 40
0
 40
0
 40
1
 40
1
 40
1
 40
1
 10
43.588178
 20
-46.985611
 30
0.0
 10
43.455570
 20
-46.985577
 30
0.0
 10
43.328380
 20
-47.038223
 30
0.0
 10
43.234588
 20
-47.131967
 30
0.0
  0
SPLINE
  5
20a
100
AcDbEntity
  8
0
 62
7
100
AcDbSpline
 70
8
 71
3
 72
8
 73
4
 74
0
 40
0
 40
0
 40
0
 40
0
 40
1
 40
1
 40
1
 40
1
 10
43.234588
 20
-47.131967
 30
0.0
 10
43.140796
 20
-47.225712
 30
0.0
 10
43.088086
 20
-47.352875
 30
0.0
 10
43.088052
 20
-47.485483
 30
0.0
  0
SPLINE
  5
20b
100
AcDbEntity
  8
0
 62
7
100
AcDbSpline
 70
8
 71
3
 72
8
 73
4
 74
0
 40
0
 40
0
 40
0
 40
0
 40
1
 40
1
 40
1
 40
1
 10
57.088278
 20
-47.485483
 30
0.0
 10
57.088244
 20
-47.352875
 30
0.0
 10
57.035534
 20
-47.225712
 30
0.0
 10
56.941742
 20
-47.131967
 30
0.0
  0
SPLINE
  5
20c
100
AcDbEntity
  8
0
 62
7
100
AcDbSpline
 70
8
 71
3
 72
8
 73
4
 74
0
 40
0
 40
0
 40
0
 40
0
 40
1
 40
1
 40
1
 40
1
 10
56.941742
 20
-47.131967
 30
0.0
 10
56.847950
 20
-47.038223
 30
0.0
 10
56.720760
 20
-46.985577
 30
0.0
 10
56.588152
 20
-46.985611
 30
0.0
  0
LWPOLYLINE
  5
20d
100
AcDbEntity
  8
0
 62
7
100
AcDbPolyline
 90
2
 70
0
 10
23.251160
 20
-66.033579
 30
0.0
 10
10.251440
 20
-66.033579
 30
0.0
  0
LWPOLYLINE
  5
20e
100
AcDbEntity
  8
0
 62
7
100
AcDbPolyline
 90
2
 70
0
 10
57.086500
 20
-60.483679
 30
0.0
 10
57.086500
 20
-47.483959
 30
0.0
  0
LWPOLYLINE
  5
20f
100
AcDbEntity
  8
0
 62
7
100
AcDbPolyline
 90
2
 70
0
 10
43.586400
 20
-60.984059
 30
0.0
 10
56.586120
 20
-60.984059
 30
0.0
  0
LWPOLYLINE
  5
210
100
AcDbEntity
  8
0
 62
7
100
AcDbPolyline
 90
2
 70
0
 10
43.086020
 20
-47.483959
 30
0.0
 10
43.086020
 20
-60.483679
 30
0.0
  0
SPLINE
  5
211
100
AcDbEntity
  8
0
 62
7
100
AcDbSpline
 70
8
 71
3
 72
8
 73
4
 74
0
 40
0
 40
0
 40
0
 40
0
 40
1
 40
1
 40
1
 40
1
 10
75.636882
 20
-60.985583
 30
0.0
 10
75.769534
 20
-60.985617
 30
0.0
 10
75.896763
 20
-60.932936
 30
0.0
 10
75.990562
 20
-60.839137
 30
0.0
  0
SPLINE
  5
212
100
AcDbEntity
  8
0
 62
7
100
AcDbSpline
 70
8
 71
3
 72
8
 73
4
 74
0
 40
0
 40
0
 40
0
 40
0
 40
1
 40
1
 40
1
 40
1
 10
75.990562
 20
-60.839137
 30
0.0
 10
76.084361
 20
-60.745337
 30
0.0
 10
76.137042
 20
-60.618109
 30
0.0
 10
76.137008
 20
-60.485457
 30
0.0
  0
SPLINE
  5
213
100
AcDbEntity
  8
0
 62
7
100
AcDbSpline
 70
8
 71
3
 72
8
 73
4
 74
0
 40
0
 40
0
 40
0
 40
0
 40
1
 40
1
 40
1
 40
1
 10
62.137036
 20
-60.485457
 30
0.0
 10
62.137002
 20
-60.618065
 30
0.0
 10
62.189648
 20
-60.745255
 30
0.0
 10
62.283393
 20
-60.839047
 30
0.0
  0
SPLINE
  5
214
100
AcDbEntity
  8
0
 62
7
100
AcDbSpline
 70
8
 71
3
 72
8
 73
4
 74
0
 40
0
 40
0
 40
0
 40
0
 40
1
 40
1
 40
1
 40
1
 10
62.283393
 20
-60.839047
 30
0.0
 10
62.377137
 20
-60.932839
 30
0.0
 10
62.504300
 20
-60.985549
 30
0.0
 10
62.636908
 20
-60.985583
 30
0.0
  0
SPLINE
  5
215
100
AcDbEntity
  8
0
 62
7
100
AcDbSpline
 70
8
 71
3
 72
8
 73
4
 74
0
 40
0
 40
0
 40
0
 40
0
 40
1
 40
1
 40
1
 40
1
 10
62.636908
 20
-46.985611
 30
0.0
 10
62.360865
 20
-46.985681
 30
0.0
 10
62.137106
 20
-47.209440
 30
0.0
 10
62.137036
 20
-47.485483
 30
0.0
  0
SPLINE
  5
216
100
AcDbEntity
  8
0
 62
7
100
AcDbSpline
 70
8
 71
3
 72
8
 73
4
 74
0
 40
0
 40
0
 40
0
 40
0
 40
1
 40
1
 40
1
 40
1
 10
76.137008
 20
-47.485483
 30
0.0
 10
76.136974
 20
-47.352875
 30
0.0
 10
76.084264
 20
-47.225712
 30
0.0
 10
75.990472
 20
-47.131967
 30
0.0
  0
SPLINE
  5
217
100
AcDbEntity
  8
0
 62
7
100
AcDbSpline
 70
8
 71
3
 72
8
 73
4
 74
0
 40
0
 40
0
 40
0
 40
0
 40
1
 40
1
 40
1
 40
1
 10
75.990472
 20
-47.131967
 30
0.0
 10
75.896680
 20
-47.038223
 30
0.0
 10
75.769490
 20
-46.985577
 30
0.0
 10
75.636882
 20
-46.985611
 30
0.0
  0
LWPOLYLINE
  5
218
100
AcDbEntity
  8
0
 62
7
100
AcDbPolyline
 90
2
 70
0
 10
56.586120
 20
-46.983579
 30
0.0
 10
43.586400
 20
-46.983579
 30
0.0
  0
LWPOLYLINE
  5
219
100
AcDbEntity
  8
0
 62
7
100
AcDbPolyline
 90
2
 70
0
 10
76.136500
 20
-60.483679
 30
0.0
 10
76.136500
 20
-47.483959
 30
0.0
  0
LWPOLYLINE
  5
21a
100
AcDbEntity
  8
0
 62
7
100
AcDbPolyline
 90
2
 70
0
 10
62.636400
 20
-60.984059
 30
0.0
 10
75.636120
 20
-60.984059
 30
0.0
  0
LWPOLYLINE
  5
21b
100
AcDbEntity
  8
0
 62
7
100
AcDbPolyline
 90
2
 70
0
 10
62.136020
 20
-47.483959
 30
0.0
 10
62.136020
 20
-60.483679
 30
0.0
  0
SPLINE
  5
21c
100
AcDbEntity
  8
0
 62
7
100
AcDbSpline
 70
8
 71
3
 72
8
 73
4
 74
0
 40
0
 40
0
 40
0
 40
0
 40
1
 40
1
 40
1
 40
1
 10
94.685866
 20
-60.985583
 30
0.0
 10
94.818474
 20
-60.985549
 30
0.0
 10
94.945637
 20
-60.932839
 30
0.0
 10
95.039381
 20
-60.839047
 30
0.0
  0
SPLINE
  5
21d
100
AcDbEntity
  8
0
 62
7
100
AcDbSpline
 70
8
 71
3
 72
8
 73
4
 74
0
 40
0
 40
0
 40
0
 40
0
 40
1
 40
1
 40
1
 40
1
 10
95.039381
 20
-60.839047
 30
0.0
 10
95.133126
 20
-60.745255
 30
0.0
 10
95.185772
 20
-60.618065
 30
0.0
 10
95.185738
 20
-60.485457
 30
0.0
  0
SPLINE
  5
21e
100
AcDbEntity
  8
0
 62
7
100
AcDbSpline
 70
8
 71
3
 72
8
 73
4
 74
0
 40
0
 40
0
 40
0
 40
0
 40
1
 40
1
 40
1
 40
1
 10
81.185766
 20
-60.485457
 30
0.0
 10
81.185732
 20
-60.618065
 30
0.0
 10
81.238378
 20
-60.745255
 30
0.0
 10
81.332123
 20
-60.839047
 30
0.0
  0
SPLINE
  5
21f
100
AcDbEntity
  8
0
 62
7
100
AcDbSpline
 70
8
 71
3
 72
8
 73
4
 74
0
 40
0
 40
0
 40
0
 40
0
 40
1
 40
1
 40
1
 40
1
 10
81.332123
 20
-60.839047
 30
0.0
 10
81.425867
 20
-60.932839
 30
0.0
 10
81.553030
 20
-60.985549
 30
0.0
 10
81.685638
 20
-60.985583
 30
0.0
  0
SPLINE
  5
220
100
AcDbEntity
  8
0
 62
7
100
AcDbSpline
 70
8
 71
3
 72
8
 73
4
 74
0
 40
0
 40
0
 40
0
 40
0
 40
1
 40
1
 40
1
 40
1
 10
81.685638
 20
-46.985611
 30
0.0
 10
81.409595
 20
-46.985681
 30
0.0
 10
81.185836
 20
-47.209440
 30
0.0
 10
81.185766
 20
-47.485483
 30
0.0
  0
SPLINE
  5
221
100
AcDbEntity
  8
0
 62
7
100
AcDbSpline
 70
8
 71
3
 72
8
 73
4
 74
0
 40
0
 40
0
 40
0
 40
0
 40
1
 40
1
 40
1
 40
1
 10
95.185738
 20
-47.485483
 30
0.0
 10
95.185668
 20
-47.209440
 30
0.0
 10
94.961909
 20
-46.985681
 30
0.0
 10
94.685866
 20
-46.985611
 30
0.0
  0
LWPOLYLINE
  5
222
100
AcDbEntity
  8
0
 62
7
100
AcDbPolyline
 90
2
 70
0
 10
75.636120
 20
-46.983579
 30
0.0
 10
62.636400
 20
-46.983579
 30
0.0
  0
LWPOLYLINE
  5
223
100
AcDbEntity
  8
0
 62
7
100
AcDbPolyline
 90
2
 70
0
 10
95.183960
 20
-60.483679
 30
0.0
 10
95.183960
 20
-47.483959
 30
0.0
  0
LWPOLYLINE
  5
224
100
AcDbEntity
  8
0
 62
7
100
AcDbPolyline
 90
2
 70
0
 10
81.683860
 20
-60.984059
 30
0.0
 10
94.683580
 20
-60.984059
 30
0.0
  0
LWPOLYLINE
  5
225
100
AcDbEntity
  8
0
 62
7
100
AcDbPolyline
 90
2
 70
0
 10
81.183480
 20
-47.483959
 30
0.0
 10
81.183480
 20
-60.483679
 30
0.0
  0
SPLINE
  5
226
100
AcDbEntity
  8
0
 62
7
100
AcDbSpline
 70
8
 71
3
 72
8
 73
4
 74
0
 40
0
 40
0
 40
0
 40
0
 40
1
 40
1
 40
1
 40
1
 10
113.734596
 20
-60.985583
 30
0.0
 10
113.867204
 20
-60.985549
 30
0.0
 10
113.994367
 20
-60.932839
 30
0.0
 10
114.088111
 20
-60.839047
 30
0.0
  0
SPLINE
  5
227
100
AcDbEntity
  8
0
 62
7
100
AcDbSpline
 70
8
 71
3
 72
8
 73
4
 74
0
 40
0
 40
0
 40
0
 40
0
 40
1
 40
1
 40
1
 40
1
 10
114.088111
 20
-60.839047
 30
0.0
 10
114.181856
 20
-60.745255
 30
0.0
 10
114.234502
 20
-60.618065
 30
0.0
 10
114.234468
 20
-60.485457
 30
0.0
  0
SPLINE
  5
228
100
AcDbEntity
  8
0
 62
7
100
AcDbSpline
 70
8
 71
3
 72
8
 73
4
 74
0
 40
0
 40
0
 40
0
 40
0
 40
1
 40
1
 40
1
 40
1
 10
100.234496
 20
-60.485457
 30
0.0
 10
100.234462
 20
-60.618109
 30
0.0
 10
100.287143
 20
-60.745337
 30
0.0
 10
100.380942
 20
-60.839137
 30
0.0
  0
SPLINE
  5
229
100
AcDbEntity
  8
0
 62
7
100
AcDbSpline
 70
8
 71
3
 72
8
 73
4
 74
0
 40
0
 40
0
 40
0
 40
0
 40
1
 40
1
 40
1
 40
1
 10
100.380942
 20
-60.839137
 30
0.0
 10
100.474741
 20
-60.932936
 30
0.0
 10
100.601970
 20
-60.985617
 30
0.0
 10
100.734622
 20
-60.985583
 30
0.0
  0
SPLINE
  5
22a
100
AcDbEntity
  8
0
 62
7
100
AcDbSpline
 70
8
 71
3
 72
8
 73
4
 74
0
 40
0
 40
0
 40
0
 40
0
 40
1
 40
1
 40
1
 40
1
 10
100.734622
 20
-46.985611
 30
0.0
 10
100.602014
 20
-46.985577
 30
0.0
 10
100.474824
 20
-47.038223
 30
0.0
 10
100.381032
 20
-47.131967
 30
0.0
  0
SPLINE
  5
22b
100
AcDbEntity
  8
0
 62
7
100
AcDbSpline
 70
8
 71
3
 72
8
 73
4
 74
0
 40
0
 40
0
 40
0
 40
0
 40
1
 40
1
 40
1
 40
1
 10
100.381032
 20
-47.131967
 30
0.0
 10
100.287240
 20
-47.225712
 30
0.0
 10
100.234530
 20
-47.352875
 30
0.0
 10
100.234496
 20
-47.485483
 30
0.0
  0
SPLINE
  5
22c
100
AcDbEntity
  8
0
 62
7
100
AcDbSpline
 70
8
 71
3
 72
8
 73
4
 74
0
 40
0
 40
0
 40
0
 40
0
 40
1
 40
1
 40
1
 40
1
 10
114.234468
 20
-47.485483
 30
0.0
 10
114.234398
 20
-47.209440
 30
0.0
 10
114.010639
 20
-46.985681
 30
0.0
 10
113.734596
 20
-46.985611
 30
0.0
  0
LWPOLYLINE
  5
22d
100
AcDbEntity
  8
0
 62
7
100
AcDbPolyline
 90
2
 70
0
 10
94.683580
 20
-46.983579
 30
0.0
 10
81.683860
 20
-46.983579
 30
0.0
  0
LWPOLYLINE
  5
22e
100
AcDbEntity
  8
0
 62
7
100
AcDbPolyline
 90
2
 70
0
 10
114.233960
 20
-60.483679
 30
0.0
 10
114.233960
 20
-47.483959
 30
0.0
  0
LWPOLYLINE
  5
22f
100
AcDbEntity
  8
0
 62
7
100
AcDbPolyline
 90
2
 70
0
 10
100.733860
 20
-60.984059
 30
0.0
 10
113.733580
 20
-60.984059
 30
0.0
  0
LWPOLYLINE
  5
230
100
AcDbEntity
  8
0
 62
7
100
AcDbPolyline
 90
2
 70
0
 10
100.233480
 20
-47.483959
 30
0.0
 10
100.233480
 20
-60.483679
 30
0.0
  0
SPLINE
  5
231
100
AcDbEntity
  8
0
 62
7
100
AcDbSpline
 70
8
 71
3
 72
8
 73
4
 74
0
 40
0
 40
0
 40
0
 40
0
 40
1
 40
1
 40
1
 40
1
 10
132.783326
 20
-60.985583
 30
0.0
 10
132.915978
 20
-60.985617
 30
0.0
 10
133.043207
 20
-60.932936
 30
0.0
 10
133.137006
 20
-60.839137
 30
0.0
  0
SPLINE
  5
232
100
AcDbEntity
  8
0
 62
7
100
AcDbSpline
 70
8
 71
3
 72
8
 73
4
 74
0
 40
0
 40
0
 40
0
 40
0
 40
1
 40
1
 40
1
 40
1
 10
133.137006
 20
-60.839137
 30
0.0
 10
133.230805
 20
-60.745337
 30
0.0
 10
133.283486
 20
-60.618109
 30
0.0
 10
133.283452
 20
-60.485457
 30
0.0
  0
SPLINE
  5
233
100
AcDbEntity
  8
0
 62
7
100
AcDbSpline
 70
8
 71
3
 72
8
 73
4
 74
0
 40
0
 40
0
 40
0
 40
0
 40
1
 40
1
 40
1
 40
1
 10
119.283480
 20
-60.485457
 30
0.0
 10
119.283446
 20
-60.618065
 30
0.0
 10
119.336092
 20
-60.745255
 30
0.0
 10
119.429837
 20
-60.839047
 30
0.0
  0
SPLINE
  5
234
100
AcDbEntity
  8
0
 62
7
100
AcDbSpline
 70
8
 71
3
 72
8
 73
4
 74
0
 40
0
 40
0
 40
0
 40
0
 40
1
 40
1
 40
1
 40
1
 10
119.429837
 20
-60.839047
 30
0.0
 10
119.523581
 20
-60.932839
 30
0.0
 10
119.650744
 20
-60.985549
 30
0.0
 10
119.783352
 20
-60.985583
 30
0.0
  0
SPLINE
  5
235
100
AcDbEntity
  8
0
 62
7
100
AcDbSpline
 70
8
 71
3
 72
8
 73
4
 74
0
 40
0
 40
0
 40
0
 40
0
 40
1
 40
1
 40
1
 40
1
 10
119.783352
 20
-46.985611
 30
0.0
 10
119.507309
 20
-46.985681
 30
0.0
 10
119.283550
 20
-47.209440
 30
0.0
 10
119.283480
 20
-47.485483
 30
0.0
  0
SPLINE
  5
236
100
AcDbEntity
  8
0
 62
7
100
AcDbSpline
 70
8
 71
3
 72
8
 73
4
 74
0
 40
0
 40
0
 40
0
 40
0
 40
1
 40
1
 40
1
 40
1
 10
133.283452
 20
-47.485483
 30
0.0
 10
133.283418
 20
-47.352875
 30
0.0
 10
133.230708
 20
-47.225712
 30
0.0
 10
133.136916
 20
-47.131967
 30
0.0
  0
SPLINE
  5
237
100
AcDbEntity
  8
0
 62
7
100
AcDbSpline
 70
8
 71
3
 72
8
 73
4
 74
0
 40
0
 40
0
 40
0
 40
0
 40
1
 40
1
 40
1
 40
1
 10
133.136916
 20
-47.131967
 30
0.0
 10
133.043124
 20
-47.038223
 30
0.0
 10
132.915934
 20
-46.985577
 30
0.0
 10
132.783326
 20
-46.985611
 30
0.0
  0
LWPOLYLINE
  5
238
100
AcDbEntity
  8
0
 62
7
100
AcDbPolyline
 90
2
 70
0
 10
113.733580
 20
-46.983579
 30
0.0
 10
100.733860
 20
-46.983579
 30
0.0
  0
LWPOLYLINE
  5
239
100
AcDbEntity
  8
0
 62
7
100
AcDbPolyline
 90
2
 70
0
 10
133.281420
 20
-60.483679
 30
0.0
 10
133.281420
 20
-47.483959
 30
0.0
  0
LWPOLYLINE
  5
23a
100
AcDbEntity
  8
0
 62
7
100
AcDbPolyline
 90
2
 70
0
 10
119.781320
 20
-60.984059
 30
0.0
 10
132.781040
 20
-60.984059
 30
0.0
  0
LWPOLYLINE
  5
23b
100
AcDbEntity
  8
0
 62
7
100
AcDbPolyline
 90
2
 70
0
 10
119.280940
 20
-47.483959
 30
0.0
 10
119.280940
 20
-60.483679
 30
0.0
  0
SPLINE
  5
23c
100
AcDbEntity
  8
0
 62
7
100
AcDbSpline
 70
8
 71
3
 72
8
 73
4
 74
0
 40
0
 40
0
 40
0
 40
0
 40
1
 40
1
 40
1
 40
1
 10
151.832056
 20
-60.985583
 30
0.0
 10
151.964708
 20
-60.985617
 30
0.0
 10
152.091937
 20
-60.932936
 30
0.0
 10
152.185736
 20
-60.839137
 30
0.0
  0
SPLINE
  5
23d
100
AcDbEntity
  8
0
 62
7
100
AcDbSpline
 70
8
 71
3
 72
8
 73
4
 74
0
 40
0
 40
0
 40
0
 40
0
 40
1
 40
1
 40
1
 40
1
 10
152.185736
 20
-60.839137
 30
0.0
 10
152.279535
 20
-60.745337
 30
0.0
 10
152.332216
 20
-60.618109
 30
0.0
 10
152.332182
 20
-60.485457
 30
0.0
  0
SPLINE
  5
23e
100
AcDbEntity
  8
0
 62
7
100
AcDbSpline
 70
8
 71
3
 72
8
 73
4
 74
0
 40
0
 40
0
 40
0
 40
0
 40
1
 40
1
 40
1
 40
1
 10
138.332210
 20
-60.485457
 30
0.0
 10
138.332176
 20
-60.618065
 30
0.0
 10
138.384822
 20
-60.745255
 30
0.0
 10
138.478567
 20
-60.839047
 30
0.0
  0
SPLINE
  5
23f
100
AcDbEntity
  8
0
 62
7
100
AcDbSpline
 70
8
 71
3
 72
8
 73
4
 74
0
 40
0
 40
0
 40
0
 40
0
 40
1
 40
1
 40
1
 40
1
 10
138.478567
 20
-60.839047
 30
0.0
 10
138.572311
 20
-60.932839
 30
0.0
 10
138.699474
 20
-60.985549
 30
0.0
 10
138.832082
 20
-60.985583
 30
0.0
  0
SPLINE
  5
240
100
AcDbEntity
  8
0
 62
7
100
AcDbSpline
 70
8
 71
3
 72
8
 73
4
 74
0
 40
0
 40
0
 40
0
 40
0
 40
1
 40
1
 40
1
 40
1
 10
138.832082
 20
-46.985611
 30
0.0
 10
138.556039
 20
-46.985681
 30
0.0
 10
138.332280
 20
-47.209440
 30
0.0
 10
138.332210
 20
-47.485483
 30
0.0
  0
SPLINE
  5
241
100
AcDbEntity
  8
0
 62
7
100
AcDbSpline
 70
8
 71
3
 72
8
 73
4
 74
0
 40
0
 40
0
 40
0
 40
0
 40
1
 40
1
 40
1
 40
1
 10
152.332182
 20
-47.485483
 30
0.0
 10
152.332148
 20
-47.352875
 30
0.0
 10
152.279438
 20
-47.225712
 30
0.0
 10
152.185646
 20
-47.131967
 30
0.0
  0
SPLINE
  5
242
100
AcDbEntity
  8
0
 62
7
100
AcDbSpline
 70
8
 71
3
 72
8
 73
4
 74
0
 40
0
 40
0
 40
0
 40
0
 40
1
 40
1
 40
1
 40
1
 10
152.185646
 20
-47.131967
 30
0.0
 10
152.091854
 20
-47.038223
 30
0.0
 10
151.964664
 20
-46.985577
 30
0.0
 10
151.832056
 20
-46.985611
 30
0.0
  0
LWPOLYLINE
  5
243
100
AcDbEntity
  8
0
 62
7
100
AcDbPolyline
 90
2
 70
0
 10
132.781040
 20
-46.983579
 30
0.0
 10
119.781320
 20
-46.983579
 30
0.0
  0
LWPOLYLINE
  5
244
100
AcDbEntity
  8
0
 62
7
100
AcDbPolyline
 90
2
 70
0
 10
152.331420
 20
-60.483679
 30
0.0
 10
152.331420
 20
-47.483959
 30
0.0
  0
LWPOLYLINE
  5
245
100
AcDbEntity
  8
0
 62
7
100
AcDbPolyline
 90
2
 70
0
 10
138.831320
 20
-60.984059
 30
0.0
 10
151.831040
 20
-60.984059
 30
0.0
  0
LWPOLYLINE
  5
246
100
AcDbEntity
  8
0
 62
7
100
AcDbPolyline
 90
2
 70
0
 10
138.330940
 20
-47.483959
 30
0.0
 10
138.330940
 20
-60.483679
 30
0.0
  0
SPLINE
  5
247
100
AcDbEntity
  8
0
 62
7
100
AcDbSpline
 70
8
 71
3
 72
8
 73
4
 74
0
 40
0
 40
0
 40
0
 40
0
 40
1
 40
1
 40
1
 40
1
 10
170.881040
 20
-60.985583
 30
0.0
 10
171.013648
 20
-60.985549
 30
0.0
 10
171.140811
 20
-60.932839
 30
0.0
 10
171.234555
 20
-60.839047
 30
0.0
  0
SPLINE
  5
248
100
AcDbEntity
  8
0
 62
7
100
AcDbSpline
 70
8
 71
3
 72
8
 73
4
 74
0
 40
0
 40
0
 40
0
 40
0
 40
1
 40
1
 40
1
 40
1
 10
171.234555
 20
-60.839047
 30
0.0
 10
171.328300
 20
-60.745255
 30
0.0
 10
171.380946
 20
-60.618065
 30
0.0
 10
171.380912
 20
-60.485457
 30
0.0
  0
SPLINE
  5
249
100
AcDbEntity
  8
0
 62
7
100
AcDbSpline
 70
8
 71
3
 72
8
 73
4
 74
0
 40
0
 40
0
 40
0
 40
0
 40
1
 40
1
 40
1
 40
1
 10
157.380940
 20
-60.485457
 30
0.0
 10
157.380906
 20
-60.618109
 30
0.0
 10
157.433587
 20
-60.745337
 30
0.0
 10
157.527386
 20
-60.839137
 30
0.0
  0
SPLINE
  5
24a
100
AcDbEntity
  8
0
 62
7
100
AcDbSpline
 70
8
 71
3
 72
8
 73
4
 74
0
 40
0
 40
0
 40
0
 40
0
 40
1
 40
1
 40
1
 40
1
 10
157.527386
 20
-60.839137
 30
0.0
 10
157.621185
 20
-60.932936
 30
0.0
 10
157.748414
 20
-60.985617
 30
0.0
 10
157.881066
 20
-60.985583
 30
0.0
  0
SPLINE
  5
24b
100
AcDbEntity
  8
0
 62
7
100
AcDbSpline
 70
8
 71
3
 72
8
 73
4
 74
0
 40
0
 40
0
 40
0
 40
0
 40
1
 40
1
 40
1
 40
1
 10
157.881066
 20
-46.985611
 30
0.0
 10
157.748458
 20
-46.985577
 30
0.0
 10
157.621268
 20
-47.038223
 30
0.0
 10
157.527476
 20
-47.131967
 30
0.0
  0
SPLINE
  5
24c
100
AcDbEntity
  8
0
 62
7
100
AcDbSpline
 70
8
 71
3
 72
8
 73
4
 74
0
 40
0
 40
0
 40
0
 40
0
 40
1
 40
1
 40
1
 40
1
 10
157.527476
 20
-47.131967
 30
0.0
 10
157.433684
 20
-47.225712
 30
0.0
 10
157.380974
 20
-47.352875
 30
0.0
 10
157.380940
 20
-47.485483
 30
0.0
  0
SPLINE
  5
24d
100
AcDbEntity
  8
0
 62
7
100
AcDbSpline
 70
8
 71
3
 72
8
 73
4
 74
0
 40
0
 40
0
 40
0
 40
0
 40
1
 40
1
 40
1
 40
1
 10
171.380912
 20
-47.485483
 30
0.0
 10
171.380842
 20
-47.209440
 30
0.0
 10
171.157083
 20
-46.985681
 30
0.0
 10
170.881040
 20
-46.985611
 30
0.0
  0
LWPOLYLINE
  5
24e
100
AcDbEntity
  8
0
 62
7
100
AcDbPolyline
 90
2
 70
0
 10
151.831040
 20
-46.983579
 30
0.0
 10
138.831320
 20
-46.983579
 30
0.0
  0
LWPOLYLINE
  5
24f
100
AcDbEntity
  8
0
 62
7
100
AcDbPolyline
 90
2
 70
0
 10
171.378880
 20
-60.483679
 30
0.0
 10
171.378880
 20
-47.483959
 30
0.0
  0
LWPOLYLINE
  5
250
100
AcDbEntity
  8
0
 62
7
100
AcDbPolyline
 90
2
 70
0
 10
157.878780
 20
-60.984059
 30
0.0
 10
170.878500
 20
-60.984059
 30
0.0
  0
LWPOLYLINE
  5
251
100
AcDbEntity
  8
0
 62
7
100
AcDbPolyline
 90
2
 70
0
 10
157.380940
 20
-47.483959
 30
0.0
 10
157.380940
 20
-60.483679
 30
0.0
  0
SPLINE
  5
252
100
AcDbEntity
  8
0
 62
7
100
AcDbSpline
 70
8
 71
3
 72
8
 73
4
 74
0
 40
0
 40
0
 40
0
 40
0
 40
1
 40
1
 40
1
 40
1
 10
189.929770
 20
-60.985583
 30
0.0
 10
190.062378
 20
-60.985549
 30
0.0
 10
190.189541
 20
-60.932839
 30
0.0
 10
190.283285
 20
-60.839047
 30
0.0
  0
SPLINE
  5
253
100
AcDbEntity
  8
0
 62
7
100
AcDbSpline
 70
8
 71
3
 72
8
 73
4
 74
0
 40
0
 40
0
 40
0
 40
0
 40
1
 40
1
 40
1
 40
1
 10
190.283285
 20
-60.839047
 30
0.0
 10
190.377030
 20
-60.745255
 30
0.0
 10
190.429676
 20
-60.618065
 30
0.0
 10
190.429642
 20
-60.485457
 30
0.0
  0
SPLINE
  5
254
100
AcDbEntity
  8
0
 62
7
100
AcDbSpline
 70
8
 71
3
 72
8
 73
4
 74
0
 40
0
 40
0
 40
0
 40
0
 40
1
 40
1
 40
1
 40
1
 10
176.429670
 20
-60.485457
 30
0.0
 10
176.429636
 20
-60.618109
 30
0.0
 10
176.482317
 20
-60.745337
 30
0.0
 10
176.576116
 20
-60.839137
 30
0.0
  0
SPLINE
  5
255
100
AcDbEntity
  8
0
 62
7
100
AcDbSpline
 70
8
 71
3
 72
8
 73
4
 74
0
 40
0
 40
0
 40
0
 40
0
 40
1
 40
1
 40
1
 40
1
 10
176.576116
 20
-60.839137
 30
0.0
 10
176.669915
 20
-60.932936
 30
0.0
 10
176.797144
 20
-60.985617
 30
0.0
 10
176.929796
 20
-60.985583
 30
0.0
  0
SPLINE
  5
256
100
AcDbEntity
  8
0
 62
7
100
AcDbSpline
 70
8
 71
3
 72
8
 73
4
 74
0
 40
0
 40
0
 40
0
 40
0
 40
1
 40
1
 40
1
 40
1
 10
176.929796
 20
-46.985611
 30
0.0
 10
176.797188
 20
-46.985577
 30
0.0
 10
176.669998
 20
-47.038223
 30
0.0
 10
176.576206
 20
-47.131967
 30
0.0
  0
SPLINE
  5
257
100
AcDbEntity
  8
0
 62
7
100
AcDbSpline
 70
8
 71
3
 72
8
 73
4
 74
0
 40
0
 40
0
 40
0
 40
0
 40
1
 40
1
 40
1
 40
1
 10
176.576206
 20
-47.131967
 30
0.0
 10
176.482414
 20
-47.225712
 30
0.0
 10
176.429704
 20
-47.352875
 30
0.0
 10
176.429670
 20
-47.485483
 30
0.0
  0
SPLINE
  5
258
100
AcDbEntity
  8
0
 62
7
100
AcDbSpline
 70
8
 71
3
 72
8
 73
4
 74
0
 40
0
 40
0
 40
0
 40
0
 40
1
 40
1
 40
1
 40
1
 10
190.429642
 20
-47.485483
 30
0.0
 10
190.429572
 20
-47.209440
 30
0.0
 10
190.205813
 20
-46.985681
 30
0.0
 10
189.929770
 20
-46.985611
 30
0.0
  0
LWPOLYLINE
  5
259
100
AcDbEntity
  8
0
 62
7
100
AcDbPolyline
 90
2
 70
0
 10
170.878500
 20
-46.983579
 30
0.0
 10
157.878780
 20
-46.983579
 30
0.0
  0
LWPOLYLINE
  5
25a
100
AcDbEntity
  8
0
 62
7
100
AcDbPolyline
 90
2
 70
0
 10
190.428880
 20
-60.483679
 30
0.0
 10
190.428880
 20
-47.483959
 30
0.0
  0
LWPOLYLINE
  5
25b
100
AcDbEntity
  8
0
 62
7
100
AcDbPolyline
 90
2
 70
0
 10
176.928780
 20
-60.984059
 30
0.0
 10
189.928500
 20
-60.984059
 30
0.0
  0
LWPOLYLINE
  5
25c
100
AcDbEntity
  8
0
 62
7
100
AcDbPolyline
 90
2
 70
0
 10
176.428400
 20
-47.483959
 30
0.0
 10
176.428400
 20
-60.483679
 30
0.0
  0
SPLINE
  5
25d
100
AcDbEntity
  8
0
 62
7
100
AcDbSpline
 70
8
 71
3
 72
8
 73
4
 74
0
 40
0
 40
0
 40
0
 40
0
 40
1
 40
1
 40
1
 40
1
 10
208.978500
 20
-60.985583
 30
0.0
 10
209.111152
 20
-60.985617
 30
0.0
 10
209.238381
 20
-60.932936
 30
0.0
 10
209.332180
 20
-60.839137
 30
0.0
  0
SPLINE
  5
25e
100
AcDbEntity
  8
0
 62
7
100
AcDbSpline
 70
8
 71
3
 72
8
 73
4
 74
0
 40
0
 40
0
 40
0
 40
0
 40
1
 40
1
 40
1
 40
1
 10
209.332180
 20
-60.839137
 30
0.0
 10
209.425979
 20
-60.745337
 30
0.0
 10
209.478660
 20
-60.618109
 30
0.0
 10
209.478626
 20
-60.485457
 30
0.0
  0
SPLINE
  5
25f
100
AcDbEntity
  8
0
 62
7
100
AcDbSpline
 70
8
 71
3
 72
8
 73
4
 74
0
 40
0
 40
0
 40
0
 40
0
 40
1
 40
1
 40
1
 40
1
 10
195.478654
 20
-60.485457
 30
0.0
 10
195.478620
 20
-60.618065
 30
0.0
 10
195.531266
 20
-60.745255
 30
0.0
 10
195.625011
 20
-60.839047
 30
0.0
  0
SPLINE
  5
260
100
AcDbEntity
  8
0
 62
7
100
AcDbSpline
 70
8
 71
3
 72
8
 73
4
 74
0
 40
0
 40
0
 40
0
 40
0
 40
1
 40
1
 40
1
 40
1
 10
195.625011
 20
-60.839047
 30
0.0
 10
195.718755
 20
-60.932839
 30
0.0
 10
195.845918
 20
-60.985549
 30
0.0
 10
195.978526
 20
-60.985583
 30
0.0
  0
SPLINE
  5
261
100
AcDbEntity
  8
0
 62
7
100
AcDbSpline
 70
8
 71
3
 72
8
 73
4
 74
0
 40
0
 40
0
 40
0
 40
0
 40
1
 40
1
 40
1
 40
1
 10
195.978526
 20
-46.985611
 30
0.0
 10
195.702483
 20
-46.985681
 30
0.0
 10
195.478724
 20
-47.209440
 30
0.0
 10
195.478654
 20
-47.485483
 30
0.0
  0
SPLINE
  5
262
100
AcDbEntity
  8
0
 62
7
100
AcDbSpline
 70
8
 71
3
 72
8
 73
4
 74
0
 40
0
 40
0
 40
0
 40
0
 40
1
 40
1
 40
1
 40
1
 10
209.478626
 20
-47.485483
 30
0.0
 10
209.478592
 20
-47.352875
 30
0.0
 10
209.425882
 20
-47.225712
 30
0.0
 10
209.332090
 20
-47.131967
 30
0.0
  0
SPLINE
  5
263
100
AcDbEntity
  8
0
 62
7
100
AcDbSpline
 70
8
 71
3
 72
8
 73
4
 74
0
 40
0
 40
0
 40
0
 40
0
 40
1
 40
1
 40
1
 40
1
 10
209.332090
 20
-47.131967
 30
0.0
 10
209.238298
 20
-47.038223
 30
0.0
 10
209.111108
 20
-46.985577
 30
0.0
 10
208.978500
 20
-46.985611
 30
0.0
  0
LWPOLYLINE
  5
264
100
AcDbEntity
  8
0
 62
7
100
AcDbPolyline
 90
2
 70
0
 10
189.928500
 20
-46.983579
 30
0.0
 10
176.928780
 20
-46.983579
 30
0.0
  0
LWPOLYLINE
  5
265
100
AcDbEntity
  8
0
 62
7
100
AcDbPolyline
 90
2
 70
0
 10
209.476340
 20
-60.483679
 30
0.0
 10
209.476340
 20
-47.483959
 30
0.0
  0
LWPOLYLINE
  5
266
100
AcDbEntity
  8
0
 62
7
100
AcDbPolyline
 90
2
 70
0
 10
195.976240
 20
-60.984059
 30
0.0
 10
208.978500
 20
-60.984059
 30
0.0
  0
LWPOLYLINE
  5
267
100
AcDbEntity
  8
0
 62
7
100
AcDbPolyline
 90
2
 70
0
 10
195.478400
 20
-47.483959
 30
0.0
 10
195.478400
 20
-60.483679
 30
0.0
  0
SPLINE
  5
268
100
AcDbEntity
  8
0
 62
7
100
AcDbSpline
 70
8
 71
3
 72
8
 73
4
 74
0
 40
0
 40
0
 40
0
 40
0
 40
1
 40
1
 40
1
 40
1
 10
228.027484
 20
-60.985583
 30
0.0
 10
228.160092
 20
-60.985549
 30
0.0
 10
228.287255
 20
-60.932839
 30
0.0
 10
228.380999
 20
-60.839047
 30
0.0
  0
SPLINE
  5
269
100
AcDbEntity
  8
0
 62
7
100
AcDbSpline
 70
8
 71
3
 72
8
 73
4
 74
0
 40
0
 40
0
 40
0
 40
0
 40
1
 40
1
 40
1
 40
1
 10
228.380999
 20
-60.839047
 30
0.0
 10
228.474744
 20
-60.745255
 30
0.0
 10
228.527390
 20
-60.618065
 30
0.0
 10
228.527356
 20
-60.485457
 30
0.0
  0
SPLINE
  5
26a
100
AcDbEntity
  8
0
 62
7
100
AcDbSpline
 70
8
 71
3
 72
8
 73
4
 74
0
 40
0
 40
0
 40
0
 40
0
 40
1
 40
1
 40
1
 40
1
 10
214.527384
 20
-60.485457
 30
0.0
 10
214.527350
 20
-60.618065
 30
0.0
 10
214.579996
 20
-60.745255
 30
0.0
 10
214.673741
 20
-60.839047
 30
0.0
  0
SPLINE
  5
26b
100
AcDbEntity
  8
0
 62
7
100
AcDbSpline
 70
8
 71
3
 72
8
 73
4
 74
0
 40
0
 40
0
 40
0
 40
0
 40
1
 40
1
 40
1
 40
1
 10
214.673741
 20
-60.839047
 30
0.0
 10
214.767485
 20
-60.932839
 30
0.0
 10
214.894648
 20
-60.985549
 30
0.0
 10
215.027256
 20
-60.985583
 30
0.0
  0
SPLINE
  5
26c
100
AcDbEntity
  8
0
 62
7
100
AcDbSpline
 70
8
 71
3
 72
8
 73
4
 74
0
 40
0
 40
0
 40
0
 40
0
 40
1
 40
1
 40
1
 40
1
 10
215.027256
 20
-46.985611
 30
0.0
 10
214.751213
 20
-46.985681
 30
0.0
 10
214.527454
 20
-47.209440
 30
0.0
 10
214.527384
 20
-47.485483
 30
0.0
  0
SPLINE
  5
26d
100
AcDbEntity
  8
0
 62
7
100
AcDbSpline
 70
8
 71
3
 72
8
 73
4
 74
0
 40
0
 40
0
 40
0
 40
0
 40
1
 40
1
 40
1
 40
1
 10
228.527356
 20
-47.485483
 30
0.0
 10
228.527286
 20
-47.209440
 30
0.0
 10
228.303527
 20
-46.985681
 30
0.0
 10
228.027484
 20
-46.985611
 30
0.0
  0
LWPOLYLINE
  5
26e
100
AcDbEntity
  8
0
 62
7
100
AcDbPolyline
 90
2
 70
0
 10
208.978500
 20
-46.983579
 30
0.0
 10
195.976240
 20
-46.983579
 30
0.0
  0
LWPOLYLINE
  5
26f
100
AcDbEntity
  8
0
 62
7
100
AcDbPolyline
 90
2
 70
0
 10
228.526340
 20
-60.483679
 30
0.0
 10
228.526340
 20
-47.483959
 30
0.0
  0
LWPOLYLINE
  5
270
100
AcDbEntity
  8
0
 62
7
100
AcDbPolyline
 90
2
 70
0
 10
215.026240
 20
-60.984059
 30
0.0
 10
228.025960
 20
-60.984059
 30
0.0
  0
LWPOLYLINE
  5
271
100
AcDbEntity
  8
0
 62
7
100
AcDbPolyline
 90
2
 70
0
 10
214.525860
 20
-47.483959
 30
0.0
 10
214.525860
 20
-60.483679
 30
0.0
  0
SPLINE
  5
272
100
AcDbEntity
  8
0
 62
7
100
AcDbSpline
 70
8
 71
3
 72
8
 73
4
 74
0
 40
0
 40
0
 40
0
 40
0
 40
1
 40
1
 40
1
 40
1
 10
247.076214
 20
-60.985583
 30
0.0
 10
247.208822
 20
-60.985549
 30
0.0
 10
247.335985
 20
-60.932839
 30
0.0
 10
247.429729
 20
-60.839047
 30
0.0
  0
SPLINE
  5
273
100
AcDbEntity
  8
0
 62
7
100
AcDbSpline
 70
8
 71
3
 72
8
 73
4
 74
0
 40
0
 40
0
 40
0
 40
0
 40
1
 40
1
 40
1
 40
1
 10
247.429729
 20
-60.839047
 30
0.0
 10
247.523474
 20
-60.745255
 30
0.0
 10
247.576120
 20
-60.618065
 30
0.0
 10
247.576086
 20
-60.485457
 30
0.0
  0
SPLINE
  5
274
100
AcDbEntity
  8
0
 62
7
100
AcDbSpline
 70
8
 71
3
 72
8
 73
4
 74
0
 40
0
 40
0
 40
0
 40
0
 40
1
 40
1
 40
1
 40
1
 10
233.576114
 20
-60.485457
 30
0.0
 10
233.576080
 20
-60.618109
 30
0.0
 10
233.628761
 20
-60.745337
 30
0.0
 10
233.722560
 20
-60.839137
 30
0.0
  0
SPLINE
  5
275
100
AcDbEntity
  8
0
 62
7
100
AcDbSpline
 70
8
 71
3
 72
8
 73
4
 74
0
 40
0
 40
0
 40
0
 40
0
 40
1
 40
1
 40
1
 40
1
 10
233.722560
 20
-60.839137
 30
0.0
 10
233.816359
 20
-60.932936
 30
0.0
 10
233.943588
 20
-60.985617
 30
0.0
 10
234.076240
 20
-60.985583
 30
0.0
  0
SPLINE
  5
276
100
AcDbEntity
  8
0
 62
7
100
AcDbSpline
 70
8
 71
3
 72
8
 73
4
 74
0
 40
0
 40
0
 40
0
 40
0
 40
1
 40
1
 40
1
 40
1
 10
234.076240
 20
-46.985611
 30
0.0
 10
233.943632
 20
-46.985577
 30
0.0
 10
233.816442
 20
-47.038223
 30
0.0
 10
233.722650
 20
-47.131967
 30
0.0
  0
SPLINE
  5
277
100
AcDbEntity
  8
0
 62
7
100
AcDbSpline
 70
8
 71
3
 72
8
 73
4
 74
0
 40
0
 40
0
 40
0
 40
0
 40
1
 40
1
 40
1
 40
1
 10
233.722650
 20
-47.131967
 30
0.0
 10
233.628858
 20
-47.225712
 30
0.0
 10
233.576148
 20
-47.352875
 30
0.0
 10
233.576114
 20
-47.485483
 30
0.0
  0
SPLINE
  5
278
100
AcDbEntity
  8
0
 62
7
100
AcDbSpline
 70
8
 71
3
 72
8
 73
4
 74
0
 40
0
 40
0
 40
0
 40
0
 40
1
 40
1
 40
1
 40
1
 10
247.576086
 20
-47.485483
 30
0.0
 10
247.576016
 20
-47.209440
 30
0.0
 10
247.352257
 20
-46.985681
 30
0.0
 10
247.076214
 20
-46.985611
 30
0.0
  0
LWPOLYLINE
  5
279
100
AcDbEntity
  8
0
 62
7
100
AcDbPolyline
 90
2
 70
0
 10
228.025960
 20
-46.983579
 30
0.0
 10
215.026240
 20
-46.983579
 30
0.0
  0
LWPOLYLINE
  5
27a
100
AcDbEntity
  8
0
 62
7
100
AcDbPolyline
 90
2
 70
0
 10
247.573800
 20
-60.483679
 30
0.0
 10
247.573800
 20
-47.483959
 30
0.0
  0
LWPOLYLINE
  5
27b
100
AcDbEntity
  8
0
 62
7
100
AcDbPolyline
 90
2
 70
0
 10
234.073700
 20
-60.984059
 30
0.0
 10
247.075960
 20
-60.984059
 30
0.0
  0
LWPOLYLINE
  5
27c
100
AcDbEntity
  8
0
 62
7
100
AcDbPolyline
 90
2
 70
0
 10
233.575860
 20
-47.483959
 30
0.0
 10
233.575860
 20
-60.483679
 30
0.0
  0
SPLINE
  5
27d
100
AcDbEntity
  8
0
 62
7
100
AcDbSpline
 70
8
 71
3
 72
8
 73
4
 74
0
 40
0
 40
0
 40
0
 40
0
 40
1
 40
1
 40
1
 40
1
 10
218.502992
 20
-41.936853
 30
0.0
 10
218.635600
 20
-41.936819
 30
0.0
 10
218.762763
 20
-41.884109
 30
0.0
 10
218.856507
 20
-41.790317
 30
0.0
  0
SPLINE
  5
27e
100
AcDbEntity
  8
0
 62
7
100
AcDbSpline
 70
8
 71
3
 72
8
 73
4
 74
0
 40
0
 40
0
 40
0
 40
0
 40
1
 40
1
 40
1
 40
1
 10
218.856507
 20
-41.790317
 30
0.0
 10
218.950252
 20
-41.696525
 30
0.0
 10
219.002898
 20
-41.569335
 30
0.0
 10
219.002864
 20
-41.436727
 30
0.0
  0
SPLINE
  5
27f
100
AcDbEntity
  8
0
 62
7
100
AcDbSpline
 70
8
 71
3
 72
8
 73
4
 74
0
 40
0
 40
0
 40
0
 40
0
 40
1
 40
1
 40
1
 40
1
 10
205.002892
 20
-41.436727
 30
0.0
 10
205.002858
 20
-41.569379
 30
0.0
 10
205.055539
 20
-41.696607
 30
0.0
 10
205.149338
 20
-41.790407
 30
0.0
  0
SPLINE
  5
280
100
AcDbEntity
  8
0
 62
7
100
AcDbSpline
 70
8
 71
3
 72
8
 73
4
 74
0
 40
0
 40
0
 40
0
 40
0
 40
1
 40
1
 40
1
 40
1
 10
205.149338
 20
-41.790407
 30
0.0
 10
205.243137
 20
-41.884206
 30
0.0
 10
205.370366
 20
-41.936887
 30
0.0
 10
205.503018
 20
-41.936853
 30
0.0
  0
SPLINE
  5
281
100
AcDbEntity
  8
0
 62
7
100
AcDbSpline
 70
8
 71
3
 72
8
 73
4
 74
0
 40
0
 40
0
 40
0
 40
0
 40
1
 40
1
 40
1
 40
1
 10
205.503018
 20
-27.936627
 30
0.0
 10
205.370366
 20
-27.936593
 30
0.0
 10
205.243137
 20
-27.989274
 30
0.0
 10
205.149338
 20
-28.083073
 30
0.0
  0
SPLINE
  5
282
100
AcDbEntity
  8
0
 62
7
100
AcDbSpline
 70
8
 71
3
 72
8
 73
4
 74
0
 40
0
 40
0
 40
0
 40
0
 40
1
 40
1
 40
1
 40
1
 10
205.149338
 20
-28.083073
 30
0.0
 10
205.055539
 20
-28.176872
 30
0.0
 10
205.002858
 20
-28.304101
 30
0.0
 10
205.002892
 20
-28.436753
 30
0.0
  0
SPLINE
  5
283
100
AcDbEntity
  8
0
 62
7
100
AcDbSpline
 70
8
 71
3
 72
8
 73
4
 74
0
 40
0
 40
0
 40
0
 40
0
 40
1
 40
1
 40
1
 40
1
 10
219.002864
 20
-28.436753
 30
0.0
 10
219.002898
 20
-28.304145
 30
0.0
 10
218.950252
 20
-28.176955
 30
0.0
 10
218.856507
 20
-28.083163
 30
0.0
  0
SPLINE
  5
284
100
AcDbEntity
  8
0
 62
7
100
AcDbSpline
 70
8
 71
3
 72
8
 73
4
 74
0
 40
0
 40
0
 40
0
 40
0
 40
1
 40
1
 40
1
 40
1
 10
218.856507
 20
-28.083163
 30
0.0
 10
218.762763
 20
-27.989371
 30
0.0
 10
218.635600
 20
-27.936661
 30
0.0
 10
218.502992
 20
-27.936627
 30
0.0
  0
LWPOLYLINE
  5
285
100
AcDbEntity
  8
0
 62
7
100
AcDbPolyline
 90
2
 70
0
 10
247.075960
 20
-46.983579
 30
0.0
 10
234.073700
 20
-46.983579
 30
0.0
  0
LWPOLYLINE
  5
286
100
AcDbEntity
  8
0
 62
7
100
AcDbPolyline
 90
2
 70
0
 10
219.001340
 20
-41.436219
 30
0.0
 10
219.001340
 20
-28.436499
 30
0.0
  0
LWPOLYLINE
  5
287
100
AcDbEntity
  8
0
 62
7
100
AcDbPolyline
 90
2
 70
0
 10
205.501240
 20
-41.936599
 30
0.0
 10
218.500960
 20
-41.936599
 30
0.0
  0
LWPOLYLINE
  5
288
100
AcDbEntity
  8
0
 62
7
100
AcDbPolyline
 90
2
 70
0
 10
205.000860
 20
-28.436499
 30
0.0
 10
205.000860
 20
-41.436219
 30
0.0
  0
SPLINE
  5
289
100
AcDbEntity
  8
0
 62
7
100
AcDbSpline
 70
8
 71
3
 72
8
 73
4
 74
0
 40
0
 40
0
 40
0
 40
0
 40
1
 40
1
 40
1
 40
1
 10
199.454262
 20
-41.936853
 30
0.0
 10
199.586870
 20
-41.936819
 30
0.0
 10
199.714033
 20
-41.884109
 30
0.0
 10
199.807777
 20
-41.790317
 30
0.0
  0
SPLINE
  5
28a
100
AcDbEntity
  8
0
 62
7
100
AcDbSpline
 70
8
 71
3
 72
8
 73
4
 74
0
 40
0
 40
0
 40
0
 40
0
 40
1
 40
1
 40
1
 40
1
 10
199.807777
 20
-41.790317
 30
0.0
 10
199.901522
 20
-41.696525
 30
0.0
 10
199.954168
 20
-41.569335
 30
0.0
 10
199.954134
 20
-41.436727
 30
0.0
  0
SPLINE
  5
28b
100
AcDbEntity
  8
0
 62
7
100
AcDbSpline
 70
8
 71
3
 72
8
 73
4
 74
0
 40
0
 40
0
 40
0
 40
0
 40
1
 40
1
 40
1
 40
1
 10
185.954162
 20
-41.436727
 30
0.0
 10
185.954128
 20
-41.569335
 30
0.0
 10
186.006774
 20
-41.696525
 30
0.0
 10
186.100519
 20
-41.790317
 30
0.0
  0
SPLINE
  5
28c
100
AcDbEntity
  8
0
 62
7
100
AcDbSpline
 70
8
 71
3
 72
8
 73
4
 74
0
 40
0
 40
0
 40
0
 40
0
 40
1
 40
1
 40
1
 40
1
 10
186.100519
 20
-41.790317
 30
0.0
 10
186.194263
 20
-41.884109
 30
0.0
 10
186.321426
 20
-41.936819
 30
0.0
 10
186.454034
 20
-41.936853
 30
0.0
  0
SPLINE
  5
28d
100
AcDbEntity
  8
0
 62
7
100
AcDbSpline
 70
8
 71
3
 72
8
 73
4
 74
0
 40
0
 40
0
 40
0
 40
0
 40
1
 40
1
 40
1
 40
1
 10
186.454034
 20
-27.936627
 30
0.0
 10
186.321426
 20
-27.936661
 30
0.0
 10
186.194263
 20
-27.989371
 30
0.0
 10
186.100519
 20
-28.083163
 30
0.0
  0
SPLINE
  5
28e
100
AcDbEntity
  8
0
 62
7
100
AcDbSpline
 70
8
 71
3
 72
8
 73
4
 74
0
 40
0
 40
0
 40
0
 40
0
 40
1
 40
1
 40
1
 40
1
 10
186.100519
 20
-28.083163
 30
0.0
 10
186.006774
 20
-28.176955
 30
0.0
 10
185.954128
 20
-28.304145
 30
0.0
 10
185.954162
 20
-28.436753
 30
0.0
  0
SPLINE
  5
28f
100
AcDbEntity
  8
0
 62
7
100
AcDbSpline
 70
8
 71
3
 72
8
 73
4
 74
0
 40
0
 40
0
 40
0
 40
0
 40
1
 40
1
 40
1
 40
1
 10
199.954134
 20
-28.436753
 30
0.0
 10
199.954168
 20
-28.304145
 30
0.0
 10
199.901522
 20
-28.176955
 30
0.0
 10
199.807777
 20
-28.083163
 30
0.0
  0
SPLINE
  5
290
100
AcDbEntity
  8
0
 62
7
100
AcDbSpline
 70
8
 71
3
 72
8
 73
4
 74
0
 40
0
 40
0
 40
0
 40
0
 40
1
 40
1
 40
1
 40
1
 10
199.807777
 20
-28.083163
 30
0.0
 10
199.714033
 20
-27.989371
 30
0.0
 10
199.586870
 20
-27.936661
 30
0.0
 10
199.454262
 20
-27.936627
 30
0.0
  0
LWPOLYLINE
  5
291
100
AcDbEntity
  8
0
 62
7
100
AcDbPolyline
 90
2
 70
0
 10
218.500960
 20
-27.936119
 30
0.0
 10
205.501240
 20
-27.936119
 30
0.0
  0
LWPOLYLINE
  5
292
100
AcDbEntity
  8
0
 62
7
100
AcDbPolyline
 90
2
 70
0
 10
199.953880
 20
-41.436219
 30
0.0
 10
199.953880
 20
-28.436499
 30
0.0
  0
LWPOLYLINE
  5
293
100
AcDbEntity
  8
0
 62
7
100
AcDbPolyline
 90
2
 70
0
 10
186.453780
 20
-41.936599
 30
0.0
 10
199.453500
 20
-41.936599
 30
0.0
  0
LWPOLYLINE
  5
294
100
AcDbEntity
  8
0
 62
7
100
AcDbPolyline
 90
2
 70
0
 10
185.953400
 20
-28.436499
 30
0.0
 10
185.953400
 20
-41.436219
 30
0.0
  0
SPLINE
  5
295
100
AcDbEntity
  8
0
 62
7
100
AcDbSpline
 70
8
 71
3
 72
8
 73
4
 74
0
 40
0
 40
0
 40
0
 40
0
 40
1
 40
1
 40
1
 40
1
 10
180.405278
 20
-41.936853
 30
0.0
 10
180.537930
 20
-41.936887
 30
0.0
 10
180.665159
 20
-41.884206
 30
0.0
 10
180.758958
 20
-41.790407
 30
0.0
  0
SPLINE
  5
296
100
AcDbEntity
  8
0
 62
7
100
AcDbSpline
 70
8
 71
3
 72
8
 73
4
 74
0
 40
0
 40
0
 40
0
 40
0
 40
1
 40
1
 40
1
 40
1
 10
180.758958
 20
-41.790407
 30
0.0
 10
180.852757
 20
-41.696607
 30
0.0
 10
180.905438
 20
-41.569379
 30
0.0
 10
180.905404
 20
-41.436727
 30
0.0
  0
SPLINE
  5
297
100
AcDbEntity
  8
0
 62
7
100
AcDbSpline
 70
8
 71
3
 72
8
 73
4
 74
0
 40
0
 40
0
 40
0
 40
0
 40
1
 40
1
 40
1
 40
1
 10
166.905432
 20
-41.436727
 30
0.0
 10
166.905398
 20
-41.569335
 30
0.0
 10
166.958044
 20
-41.696525
 30
0.0
 10
167.051789
 20
-41.790317
 30
0.0
  0
SPLINE
  5
298
100
AcDbEntity
  8
0
 62
7
100
AcDbSpline
 70
8
 71
3
 72
8
 73
4
 74
0
 40
0
 40
0
 40
0
 40
0
 40
1
 40
1
 40
1
 40
1
 10
167.051789
 20
-41.790317
 30
0.0
 10
167.145533
 20
-41.884109
 30
0.0
 10
167.272696
 20
-41.936819
 30
0.0
 10
167.405304
 20
-41.936853
 30
0.0
  0
SPLINE
  5
299
100
AcDbEntity
  8
0
 62
7
100
AcDbSpline
 70
8
 71
3
 72
8
 73
4
 74
0
 40
0
 40
0
 40
0
 40
0
 40
1
 40
1
 40
1
 40
1
 10
167.405304
 20
-27.936627
 30
0.0
 10
167.272696
 20
-27.936661
 30
0.0
 10
167.145533
 20
-27.989371
 30
0.0
 10
167.051789
 20
-28.083163
 30
0.0
  0
SPLINE
  5
29a
100
AcDbEntity
  8
0
 62
7
100
AcDbSpline
 70
8
 71
3
 72
8
 73
4
 74
0
 40
0
 40
0
 40
0
 40
0
 40
1
 40
1
 40
1
 40
1
 10
167.051789
 20
-28.083163
 30
0.0
 10
166.958044
 20
-28.176955
 30
0.0
 10
166.905398
 20
-28.304145
 30
0.0
 10
166.905432
 20
-28.436753
 30
0.0
  0
SPLINE
  5
29b
100
AcDbEntity
  8
0
 62
7
100
AcDbSpline
 70
8
 71
3
 72
8
 73
4
 74
0
 40
0
 40
0
 40
0
 40
0
 40
1
 40
1
 40
1
 40
1
 10
180.905404
 20
-28.436753
 30
0.0
 10
180.905438
 20
-28.304101
 30
0.0
 10
180.852757
 20
-28.176872
 30
0.0
 10
180.758958
 20
-28.083073
 30
0.0
  0
SPLINE
  5
29c
100
AcDbEntity
  8
0
 62
7
100
AcDbSpline
 70
8
 71
3
 72
8
 73
4
 74
0
 40
0
 40
0
 40
0
 40
0
 40
1
 40
1
 40
1
 40
1
 10
180.758958
 20
-28.083073
 30
0.0
 10
180.665159
 20
-27.989274
 30
0.0
 10
180.537930
 20
-27.936593
 30
0.0
 10
180.405278
 20
-27.936627
 30
0.0
  0
LWPOLYLINE
  5
29d
100
AcDbEntity
  8
0
 62
7
100
AcDbPolyline
 90
2
 70
0
 10
199.453500
 20
-27.936119
 30
0.0
 10
186.453780
 20
-27.936119
 30
0.0
  0
LWPOLYLINE
  5
29e
100
AcDbEntity
  8
0
 62
7
100
AcDbPolyline
 90
2
 70
0
 10
180.903880
 20
-41.436219
 30
0.0
 10
180.903880
 20
-28.436499
 30
0.0
  0
LWPOLYLINE
  5
29f
100
AcDbEntity
  8
0
 62
7
100
AcDbPolyline
 90
2
 70
0
 10
167.403780
 20
-41.936599
 30
0.0
 10
180.403500
 20
-41.936599
 30
0.0
  0
LWPOLYLINE
  5
2a0
100
AcDbEntity
  8
0
 62
7
100
AcDbPolyline
 90
2
 70
0
 10
166.903400
 20
-28.436499
 30
0.0
 10
166.903400
 20
-41.436219
 30
0.0
  0
SPLINE
  5
2a1
100
AcDbEntity
  8
0
 62
7
100
AcDbSpline
 70
8
 71
3
 72
8
 73
4
 74
0
 40
0
 40
0
 40
0
 40
0
 40
1
 40
1
 40
1
 40
1
 10
161.356548
 20
-41.936853
 30
0.0
 10
161.489200
 20
-41.936887
 30
0.0
 10
161.616429
 20
-41.884206
 30
0.0
 10
161.710228
 20
-41.790407
 30
0.0
  0
SPLINE
  5
2a2
100
AcDbEntity
  8
0
 62
7
100
AcDbSpline
 70
8
 71
3
 72
8
 73
4
 74
0
 40
0
 40
0
 40
0
 40
0
 40
1
 40
1
 40
1
 40
1
 10
161.710228
 20
-41.790407
 30
0.0
 10
161.804027
 20
-41.696607
 30
0.0
 10
161.856708
 20
-41.569379
 30
0.0
 10
161.856674
 20
-41.436727
 30
0.0
  0
SPLINE
  5
2a3
100
AcDbEntity
  8
0
 62
7
100
AcDbSpline
 70
8
 71
3
 72
8
 73
4
 74
0
 40
0
 40
0
 40
0
 40
0
 40
1
 40
1
 40
1
 40
1
 10
147.856448
 20
-41.436727
 30
0.0
 10
147.856414
 20
-41.569379
 30
0.0
 10
147.909095
 20
-41.696607
 30
0.0
 10
148.002894
 20
-41.790407
 30
0.0
  0
SPLINE
  5
2a4
100
AcDbEntity
  8
0
 62
7
100
AcDbSpline
 70
8
 71
3
 72
8
 73
4
 74
0
 40
0
 40
0
 40
0
 40
0
 40
1
 40
1
 40
1
 40
1
 10
148.002894
 20
-41.790407
 30
0.0
 10
148.096693
 20
-41.884206
 30
0.0
 10
148.223922
 20
-41.936887
 30
0.0
 10
148.356574
 20
-41.936853
 30
0.0
  0
SPLINE
  5
2a5
100
AcDbEntity
  8
0
 62
7
100
AcDbSpline
 70
8
 71
3
 72
8
 73
4
 74
0
 40
0
 40
0
 40
0
 40
0
 40
1
 40
1
 40
1
 40
1
 10
148.356574
 20
-27.936627
 30
0.0
 10
148.223922
 20
-27.936593
 30
0.0
 10
148.096693
 20
-27.989274
 30
0.0
 10
148.002894
 20
-28.083073
 30
0.0
  0
SPLINE
  5
2a6
100
AcDbEntity
  8
0
 62
7
100
AcDbSpline
 70
8
 71
3
 72
8
 73
4
 74
0
 40
0
 40
0
 40
0
 40
0
 40
1
 40
1
 40
1
 40
1
 10
148.002894
 20
-28.083073
 30
0.0
 10
147.909095
 20
-28.176872
 30
0.0
 10
147.856414
 20
-28.304101
 30
0.0
 10
147.856448
 20
-28.436753
 30
0.0
  0
SPLINE
  5
2a7
100
AcDbEntity
  8
0
 62
7
100
AcDbSpline
 70
8
 71
3
 72
8
 73
4
 74
0
 40
0
 40
0
 40
0
 40
0
 40
1
 40
1
 40
1
 40
1
 10
161.856674
 20
-28.436753
 30
0.0
 10
161.856708
 20
-28.304101
 30
0.0
 10
161.804027
 20
-28.176872
 30
0.0
 10
161.710228
 20
-28.083073
 30
0.0
  0
SPLINE
  5
2a8
100
AcDbEntity
  8
0
 62
7
100
AcDbSpline
 70
8
 71
3
 72
8
 73
4
 74
0
 40
0
 40
0
 40
0
 40
0
 40
1
 40
1
 40
1
 40
1
 10
161.710228
 20
-28.083073
 30
0.0
 10
161.616429
 20
-27.989274
 30
0.0
 10
161.489200
 20
-27.936593
 30
0.0
 10
161.356548
 20
-27.936627
 30
0.0
  0
LWPOLYLINE
  5
2a9
100
AcDbEntity
  8
0
 62
7
100
AcDbPolyline
 90
2
 70
0
 10
180.403500
 20
-27.936119
 30
0.0
 10
167.403780
 20
-27.936119
 30
0.0
  0
LWPOLYLINE
  5
2aa
100
AcDbEntity
  8
0
 62
7
100
AcDbPolyline
 90
2
 70
0
 10
161.856420
 20
-41.436219
 30
0.0
 10
161.856420
 20
-28.436499
 30
0.0
  0
LWPOLYLINE
  5
2ab
100
AcDbEntity
  8
0
 62
7
100
AcDbPolyline
 90
2
 70
0
 10
148.356320
 20
-41.936599
 30
0.0
 10
161.356040
 20
-41.936599
 30
0.0
  0
LWPOLYLINE
  5
2ac
100
AcDbEntity
  8
0
 62
7
100
AcDbPolyline
 90
2
 70
0
 10
147.855940
 20
-28.436499
 30
0.0
 10
147.855940
 20
-41.436219
 30
0.0
  0
SPLINE
  5
2ad
100
AcDbEntity
  8
0
 62
7
100
AcDbSpline
 70
8
 71
3
 72
8
 73
4
 74
0
 40
0
 40
0
 40
0
 40
0
 40
1
 40
1
 40
1
 40
1
 10
142.307818
 20
-41.936853
 30
0.0
 10
142.440426
 20
-41.936819
 30
0.0
 10
142.567589
 20
-41.884109
 30
0.0
 10
142.661333
 20
-41.790317
 30
0.0
  0
SPLINE
  5
2ae
100
AcDbEntity
  8
0
 62
7
100
AcDbSpline
 70
8
 71
3
 72
8
 73
4
 74
0
 40
0
 40
0
 40
0
 40
0
 40
1
 40
1
 40
1
 40
1
 10
142.661333
 20
-41.790317
 30
0.0
 10
142.755078
 20
-41.696525
 30
0.0
 10
142.807724
 20
-41.569335
 30
0.0
 10
142.807690
 20
-41.436727
 30
0.0
  0
SPLINE
  5
2af
100
AcDbEntity
  8
0
 62
7
100
AcDbSpline
 70
8
 71
3
 72
8
 73
4
 74
0
 40
0
 40
0
 40
0
 40
0
 40
1
 40
1
 40
1
 40
1
 10
128.807718
 20
-41.436727
 30
0.0
 10
128.807684
 20
-41.569379
 30
0.0
 10
128.860365
 20
-41.696607
 30
0.0
 10
128.954164
 20
-41.790407
 30
0.0
  0
SPLINE
  5
2b0
100
AcDbEntity
  8
0
 62
7
100
AcDbSpline
 70
8
 71
3
 72
8
 73
4
 74
0
 40
0
 40
0
 40
0
 40
0
 40
1
 40
1
 40
1
 40
1
 10
128.954164
 20
-41.790407
 30
0.0
 10
129.047963
 20
-41.884206
 30
0.0
 10
129.175192
 20
-41.936887
 30
0.0
 10
129.307844
 20
-41.936853
 30
0.0
  0
SPLINE
  5
2b1
100
AcDbEntity
  8
0
 62
7
100
AcDbSpline
 70
8
 71
3
 72
8
 73
4
 74
0
 40
0
 40
0
 40
0
 40
0
 40
1
 40
1
 40
1
 40
1
 10
129.307844
 20
-27.936627
 30
0.0
 10
129.175192
 20
-27.936593
 30
0.0
 10
129.047963
 20
-27.989274
 30
0.0
 10
128.954164
 20
-28.083073
 30
0.0
  0
SPLINE
  5
2b2
100
AcDbEntity
  8
0
 62
7
100
AcDbSpline
 70
8
 71
3
 72
8
 73
4
 74
0
 40
0
 40
0
 40
0
 40
0
 40
1
 40
1
 40
1
 40
1
 10
128.954164
 20
-28.083073
 30
0.0
 10
128.860365
 20
-28.176872
 30
0.0
 10
128.807684
 20
-28.304101
 30
0.0
 10
128.807718
 20
-28.436753
 30
0.0
  0
SPLINE
  5
2b3
100
AcDbEntity
  8
0
 62
7
100
AcDbSpline
 70
8
 71
3
 72
8
 73
4
 74
0
 40
0
 40
0
 40
0
 40
0
 40
1
 40
1
 40
1
 40
1
 10
142.807690
 20
-28.436753
 30
0.0
 10
142.807724
 20
-28.304145
 30
0.0
 10
142.755078
 20
-28.176955
 30
0.0
 10
142.661333
 20
-28.083163
 30
0.0
  0
SPLINE
  5
2b4
100
AcDbEntity
  8
0
 62
7
100
AcDbSpline
 70
8
 71
3
 72
8
 73
4
 74
0
 40
0
 40
0
 40
0
 40
0
 40
1
 40
1
 40
1
 40
1
 10
142.661333
 20
-28.083163
 30
0.0
 10
142.567589
 20
-27.989371
 30
0.0
 10
142.440426
 20
-27.936661
 30
0.0
 10
142.307818
 20
-27.936627
 30
0.0
  0
LWPOLYLINE
  5
2b5
100
AcDbEntity
  8
0
 62
7
100
AcDbPolyline
 90
2
 70
0
 10
161.356040
 20
-27.936119
 30
0.0
 10
148.356320
 20
-27.936119
 30
0.0
  0
LWPOLYLINE
  5
2b6
100
AcDbEntity
  8
0
 62
7
100
AcDbPolyline
 90
2
 70
0
 10
142.806420
 20
-41.436219
 30
0.0
 10
142.806420
 20
-28.436499
 30
0.0
  0
LWPOLYLINE
  5
2b7
100
AcDbEntity
  8
0
 62
7
100
AcDbPolyline
 90
2
 70
0
 10
129.306320
 20
-41.936599
 30
0.0
 10
142.306040
 20
-41.936599
 30
0.0
  0
LWPOLYLINE
  5
2b8
100
AcDbEntity
  8
0
 62
7
100
AcDbPolyline
 90
2
 70
0
 10
128.805940
 20
-28.436499
 30
0.0
 10
128.805940
 20
-41.436219
 30
0.0
  0
SPLINE
  5
2b9
100
AcDbEntity
  8
0
 62
7
100
AcDbSpline
 70
8
 71
3
 72
8
 73
4
 74
0
 40
0
 40
0
 40
0
 40
0
 40
1
 40
1
 40
1
 40
1
 10
123.259088
 20
-41.936853
 30
0.0
 10
123.391696
 20
-41.936819
 30
0.0
 10
123.518859
 20
-41.884109
 30
0.0
 10
123.612603
 20
-41.790317
 30
0.0
  0
SPLINE
  5
2ba
100
AcDbEntity
  8
0
 62
7
100
AcDbSpline
 70
8
 71
3
 72
8
 73
4
 74
0
 40
0
 40
0
 40
0
 40
0
 40
1
 40
1
 40
1
 40
1
 10
123.612603
 20
-41.790317
 30
0.0
 10
123.706348
 20
-41.696525
 30
0.0
 10
123.758994
 20
-41.569335
 30
0.0
 10
123.758960
 20
-41.436727
 30
0.0
  0
SPLINE
  5
2bb
100
AcDbEntity
  8
0
 62
7
100
AcDbSpline
 70
8
 71
3
 72
8
 73
4
 74
0
 40
0
 40
0
 40
0
 40
0
 40
1
 40
1
 40
1
 40
1
 10
109.758988
 20
-41.436727
 30
0.0
 10
109.758954
 20
-41.569335
 30
0.0
 10
109.811600
 20
-41.696525
 30
0.0
 10
109.905345
 20
-41.790317
 30
0.0
  0
SPLINE
  5
2bc
100
AcDbEntity
  8
0
 62
7
100
AcDbSpline
 70
8
 71
3
 72
8
 73
4
 74
0
 40
0
 40
0
 40
0
 40
0
 40
1
 40
1
 40
1
 40
1
 10
109.905345
 20
-41.790317
 30
0.0
 10
109.999089
 20
-41.884109
 30
0.0
 10
110.126252
 20
-41.936819
 30
0.0
 10
110.258860
 20
-41.936853
 30
0.0
  0
SPLINE
  5
2bd
100
AcDbEntity
  8
0
 62
7
100
AcDbSpline
 70
8
 71
3
 72
8
 73
4
 74
0
 40
0
 40
0
 40
0
 40
0
 40
1
 40
1
 40
1
 40
1
 10
110.258860
 20
-27.936627
 30
0.0
 10
110.126252
 20
-27.936661
 30
0.0
 10
109.999089
 20
-27.989371
 30
0.0
 10
109.905345
 20
-28.083163
 30
0.0
  0
SPLINE
  5
2be
100
AcDbEntity
  8
0
 62
7
100
AcDbSpline
 70
8
 71
3
 72
8
 73
4
 74
0
 40
0
 40
0
 40
0
 40
0
 40
1
 40
1
 40
1
 40
1
 10
109.905345
 20
-28.083163
 30
0.0
 10
109.811600
 20
-28.176955
 30
0.0
 10
109.758954
 20
-28.304145
 30
0.0
 10
109.758988
 20
-28.436753
 30
0.0
  0
SPLINE
  5
2bf
100
AcDbEntity
  8
0
 62
7
100
AcDbSpline
 70
8
 71
3
 72
8
 73
4
 74
0
 40
0
 40
0
 40
0
 40
0
 40
1
 40
1
 40
1
 40
1
 10
123.758960
 20
-28.436753
 30
0.0
 10
123.758994
 20
-28.304145
 30
0.0
 10
123.706348
 20
-28.176955
 30
0.0
 10
123.612603
 20
-28.083163
 30
0.0
  0
SPLINE
  5
2c0
100
AcDbEntity
  8
0
 62
7
100
AcDbSpline
 70
8
 71
3
 72
8
 73
4
 74
0
 40
0
 40
0
 40
0
 40
0
 40
1
 40
1
 40
1
 40
1
 10
123.612603
 20
-28.083163
 30
0.0
 10
123.518859
 20
-27.989371
 30
0.0
 10
123.391696
 20
-27.936661
 30
0.0
 10
123.259088
 20
-27.936627
 30
0.0
  0
LWPOLYLINE
  5
2c1
100
AcDbEntity
  8
0
 62
7
100
AcDbPolyline
 90
2
 70
0
 10
142.306040
 20
-27.936119
 30
0.0
 10
129.306320
 20
-27.936119
 30
0.0
  0
LWPOLYLINE
  5
2c2
100
AcDbEntity
  8
0
 62
7
100
AcDbPolyline
 90
2
 70
0
 10
123.758960
 20
-41.436219
 30
0.0
 10
123.758960
 20
-28.436499
 30
0.0
  0
LWPOLYLINE
  5
2c3
100
AcDbEntity
  8
0
 62
7
100
AcDbPolyline
 90
2
 70
0
 10
110.258860
 20
-41.936599
 30
0.0
 10
123.258580
 20
-41.936599
 30
0.0
  0
LWPOLYLINE
  5
2c4
100
AcDbEntity
  8
0
 62
7
100
AcDbPolyline
 90
2
 70
0
 10
109.758480
 20
-28.436499
 30
0.0
 10
109.758480
 20
-41.436219
 30
0.0
  0
SPLINE
  5
2c5
100
AcDbEntity
  8
0
 62
7
100
AcDbSpline
 70
8
 71
3
 72
8
 73
4
 74
0
 40
0
 40
0
 40
0
 40
0
 40
1
 40
1
 40
1
 40
1
 10
104.210104
 20
-41.936853
 30
0.0
 10
104.342756
 20
-41.936887
 30
0.0
 10
104.469985
 20
-41.884206
 30
0.0
 10
104.563784
 20
-41.790407
 30
0.0
  0
SPLINE
  5
2c6
100
AcDbEntity
  8
0
 62
7
100
AcDbSpline
 70
8
 71
3
 72
8
 73
4
 74
0
 40
0
 40
0
 40
0
 40
0
 40
1
 40
1
 40
1
 40
1
 10
104.563784
 20
-41.790407
 30
0.0
 10
104.657583
 20
-41.696607
 30
0.0
 10
104.710264
 20
-41.569379
 30
0.0
 10
104.710230
 20
-41.436727
 30
0.0
  0
SPLINE
  5
2c7
100
AcDbEntity
  8
0
 62
7
100
AcDbSpline
 70
8
 71
3
 72
8
 73
4
 74
0
 40
0
 40
0
 40
0
 40
0
 40
1
 40
1
 40
1
 40
1
 10
90.710258
 20
-41.436727
 30
0.0
 10
90.710224
 20
-41.569335
 30
0.0
 10
90.762870
 20
-41.696525
 30
0.0
 10
90.856615
 20
-41.790317
 30
0.0
  0
SPLINE
  5
2c8
100
AcDbEntity
  8
0
 62
7
100
AcDbSpline
 70
8
 71
3
 72
8
 73
4
 74
0
 40
0
 40
0
 40
0
 40
0
 40
1
 40
1
 40
1
 40
1
 10
90.856615
 20
-41.790317
 30
0.0
 10
90.950359
 20
-41.884109
 30
0.0
 10
91.077522
 20
-41.936819
 30
0.0
 10
91.210130
 20
-41.936853
 30
0.0
  0
SPLINE
  5
2c9
100
AcDbEntity
  8
0
 62
7
100
AcDbSpline
 70
8
 71
3
 72
8
 73
4
 74
0
 40
0
 40
0
 40
0
 40
0
 40
1
 40
1
 40
1
 40
1
 10
91.210130
 20
-27.936627
 30
0.0
 10
91.077522
 20
-27.936661
 30
0.0
 10
90.950359
 20
-27.989371
 30
0.0
 10
90.856615
 20
-28.083163
 30
0.0
  0
SPLINE
  5
2ca
100
AcDbEntity
  8
0
 62
7
100
AcDbSpline
 70
8
 71
3
 72
8
 73
4
 74
0
 40
0
 40
0
 40
0
 40
0
 40
1
 40
1
 40
1
 40
1
 10
90.856615
 20
-28.083163
 30
0.0
 10
90.762870
 20
-28.176955
 30
0.0
 10
90.710224
 20
-28.304145
 30
0.0
 10
90.710258
 20
-28.436753
 30
0.0
  0
SPLINE
  5
2cb
100
AcDbEntity
  8
0
 62
7
100
AcDbSpline
 70
8
 71
3
 72
8
 73
4
 74
0
 40
0
 40
0
 40
0
 40
0
 40
1
 40
1
 40
1
 40
1
 10
104.710230
 20
-28.436753
 30
0.0
 10
104.710264
 20
-28.304101
 30
0.0
 10
104.657583
 20
-28.176872
 30
0.0
 10
104.563784
 20
-28.083073
 30
0.0
  0
SPLINE
  5
2cc
100
AcDbEntity
  8
0
 62
7
100
AcDbSpline
 70
8
 71
3
 72
8
 73
4
 74
0
 40
0
 40
0
 40
0
 40
0
 40
1
 40
1
 40
1
 40
1
 10
104.563784
 20
-28.083073
 30
0.0
 10
104.469985
 20
-27.989274
 30
0.0
 10
104.342756
 20
-27.936593
 30
0.0
 10
104.210104
 20
-27.936627
 30
0.0
  0
LWPOLYLINE
  5
2cd
100
AcDbEntity
  8
0
 62
7
100
AcDbPolyline
 90
2
 70
0
 10
123.258580
 20
-27.936119
 30
0.0
 10
110.258860
 20
-27.936119
 30
0.0
  0
LWPOLYLINE
  5
2ce
100
AcDbEntity
  8
0
 62
7
100
AcDbPolyline
 90
2
 70
0
 10
104.708960
 20
-41.436219
 30
0.0
 10
104.708960
 20
-28.436499
 30
0.0
  0
LWPOLYLINE
  5
2cf
100
AcDbEntity
  8
0
 62
7
100
AcDbPolyline
 90
2
 70
0
 10
91.208860
 20
-41.936599
 30
0.0
 10
104.208580
 20
-41.936599
 30
0.0
  0
LWPOLYLINE
  5
2d0
100
AcDbEntity
  8
0
 62
7
100
AcDbPolyline
 90
2
 70
0
 10
90.708480
 20
-28.436499
 30
0.0
 10
90.708480
 20
-41.436219
 30
0.0
  0
SPLINE
  5
2d1
100
AcDbEntity
  8
0
 62
7
100
AcDbSpline
 70
8
 71
3
 72
8
 73
4
 74
0
 40
0
 40
0
 40
0
 40
0
 40
1
 40
1
 40
1
 40
1
 10
85.161374
 20
-41.936853
 30
0.0
 10
85.293982
 20
-41.936819
 30
0.0
 10
85.421145
 20
-41.884109
 30
0.0
 10
85.514889
 20
-41.790317
 30
0.0
  0
SPLINE
  5
2d2
100
AcDbEntity
  8
0
 62
7
100
AcDbSpline
 70
8
 71
3
 72
8
 73
4
 74
0
 40
0
 40
0
 40
0
 40
0
 40
1
 40
1
 40
1
 40
1
 10
85.514889
 20
-41.790317
 30
0.0
 10
85.608634
 20
-41.696525
 30
0.0
 10
85.661280
 20
-41.569335
 30
0.0
 10
85.661246
 20
-41.436727
 30
0.0
  0
SPLINE
  5
2d3
100
AcDbEntity
  8
0
 62
7
100
AcDbSpline
 70
8
 71
3
 72
8
 73
4
 74
0
 40
0
 40
0
 40
0
 40
0
 40
1
 40
1
 40
1
 40
1
 10
71.661274
 20
-41.436727
 30
0.0
 10
71.661240
 20
-41.569379
 30
0.0
 10
71.713921
 20
-41.696607
 30
0.0
 10
71.807720
 20
-41.790407
 30
0.0
  0
SPLINE
  5
2d4
100
AcDbEntity
  8
0
 62
7
100
AcDbSpline
 70
8
 71
3
 72
8
 73
4
 74
0
 40
0
 40
0
 40
0
 40
0
 40
1
 40
1
 40
1
 40
1
 10
71.807720
 20
-41.790407
 30
0.0
 10
71.901519
 20
-41.884206
 30
0.0
 10
72.028748
 20
-41.936887
 30
0.0
 10
72.161400
 20
-41.936853
 30
0.0
  0
SPLINE
  5
2d5
100
AcDbEntity
  8
0
 62
7
100
AcDbSpline
 70
8
 71
3
 72
8
 73
4
 74
0
 40
0
 40
0
 40
0
 40
0
 40
1
 40
1
 40
1
 40
1
 10
72.161400
 20
-27.936627
 30
0.0
 10
72.028748
 20
-27.936593
 30
0.0
 10
71.901519
 20
-27.989274
 30
0.0
 10
71.807720
 20
-28.083073
 30
0.0
  0
SPLINE
  5
2d6
100
AcDbEntity
  8
0
 62
7
100
AcDbSpline
 70
8
 71
3
 72
8
 73
4
 74
0
 40
0
 40
0
 40
0
 40
0
 40
1
 40
1
 40
1
 40
1
 10
71.807720
 20
-28.083073
 30
0.0
 10
71.713921
 20
-28.176872
 30
0.0
 10
71.661240
 20
-28.304101
 30
0.0
 10
71.661274
 20
-28.436753
 30
0.0
  0
SPLINE
  5
2d7
100
AcDbEntity
  8
0
 62
7
100
AcDbSpline
 70
8
 71
3
 72
8
 73
4
 74
0
 40
0
 40
0
 40
0
 40
0
 40
1
 40
1
 40
1
 40
1
 10
85.661246
 20
-28.436753
 30
0.0
 10
85.661280
 20
-28.304145
 30
0.0
 10
85.608634
 20
-28.176955
 30
0.0
 10
85.514889
 20
-28.083163
 30
0.0
  0
SPLINE
  5
2d8
100
AcDbEntity
  8
0
 62
7
100
AcDbSpline
 70
8
 71
3
 72
8
 73
4
 74
0
 40
0
 40
0
 40
0
 40
0
 40
1
 40
1
 40
1
 40
1
 10
85.514889
 20
-28.083163
 30
0.0
 10
85.421145
 20
-27.989371
 30
0.0
 10
85.293982
 20
-27.936661
 30
0.0
 10
85.161374
 20
-27.936627
 30
0.0
  0
LWPOLYLINE
  5
2d9
100
AcDbEntity
  8
0
 62
7
100
AcDbPolyline
 90
2
 70
0
 10
104.208580
 20
-27.936119
 30
0.0
 10
91.208860
 20
-27.936119
 30
0.0
  0
LWPOLYLINE
  5
2da
100
AcDbEntity
  8
0
 62
7
100
AcDbPolyline
 90
2
 70
0
 10
85.658960
 20
-41.436219
 30
0.0
 10
85.658960
 20
-28.436499
 30
0.0
  0
LWPOLYLINE
  5
2db
100
AcDbEntity
  8
0
 62
7
100
AcDbPolyline
 90
2
 70
0
 10
72.158860
 20
-41.936599
 30
0.0
 10
85.161120
 20
-41.936599
 30
0.0
  0
LWPOLYLINE
  5
2dc
100
AcDbEntity
  8
0
 62
7
100
AcDbPolyline
 90
2
 70
0
 10
71.661020
 20
-28.436499
 30
0.0
 10
71.661020
 20
-41.436219
 30
0.0
  0
SPLINE
  5
2dd
100
AcDbEntity
  8
0
 62
7
100
AcDbSpline
 70
8
 71
3
 72
8
 73
4
 74
0
 40
0
 40
0
 40
0
 40
0
 40
1
 40
1
 40
1
 40
1
 10
66.112644
 20
-41.936853
 30
0.0
 10
66.245252
 20
-41.936819
 30
0.0
 10
66.372415
 20
-41.884109
 30
0.0
 10
66.466159
 20
-41.790317
 30
0.0
  0
SPLINE
  5
2de
100
AcDbEntity
  8
0
 62
7
100
AcDbSpline
 70
8
 71
3
 72
8
 73
4
 74
0
 40
0
 40
0
 40
0
 40
0
 40
1
 40
1
 40
1
 40
1
 10
66.466159
 20
-41.790317
 30
0.0
 10
66.559904
 20
-41.696525
 30
0.0
 10
66.612550
 20
-41.569335
 30
0.0
 10
66.612516
 20
-41.436727
 30
0.0
  0
SPLINE
  5
2df
100
AcDbEntity
  8
0
 62
7
100
AcDbSpline
 70
8
 71
3
 72
8
 73
4
 74
0
 40
0
 40
0
 40
0
 40
0
 40
1
 40
1
 40
1
 40
1
 10
52.612544
 20
-41.436727
 30
0.0
 10
52.612510
 20
-41.569379
 30
0.0
 10
52.665191
 20
-41.696607
 30
0.0
 10
52.758990
 20
-41.790407
 30
0.0
  0
SPLINE
  5
2e0
100
AcDbEntity
  8
0
 62
7
100
AcDbSpline
 70
8
 71
3
 72
8
 73
4
 74
0
 40
0
 40
0
 40
0
 40
0
 40
1
 40
1
 40
1
 40
1
 10
52.758990
 20
-41.790407
 30
0.0
 10
52.852789
 20
-41.884206
 30
0.0
 10
52.980018
 20
-41.936887
 30
0.0
 10
53.112670
 20
-41.936853
 30
0.0
  0
SPLINE
  5
2e1
100
AcDbEntity
  8
0
 62
7
100
AcDbSpline
 70
8
 71
3
 72
8
 73
4
 74
0
 40
0
 40
0
 40
0
 40
0
 40
1
 40
1
 40
1
 40
1
 10
53.112670
 20
-27.936627
 30
0.0
 10
52.980018
 20
-27.936593
 30
0.0
 10
52.852789
 20
-27.989274
 30
0.0
 10
52.758990
 20
-28.083073
 30
0.0
  0
SPLINE
  5
2e2
100
AcDbEntity
  8
0
 62
7
100
AcDbSpline
 70
8
 71
3
 72
8
 73
4
 74
0
 40
0
 40
0
 40
0
 40
0
 40
1
 40
1
 40
1
 40
1
 10
52.758990
 20
-28.083073
 30
0.0
 10
52.665191
 20
-28.176872
 30
0.0
 10
52.612510
 20
-28.304101
 30
0.0
 10
52.612544
 20
-28.436753
 30
0.0
  0
SPLINE
  5
2e3
100
AcDbEntity
  8
0
 62
7
100
AcDbSpline
 70
8
 71
3
 72
8
 73
4
 74
0
 40
0
 40
0
 40
0
 40
0
 40
1
 40
1
 40
1
 40
1
 10
66.612516
 20
-28.436753
 30
0.0
 10
66.612550
 20
-28.304145
 30
0.0
 10
66.559904
 20
-28.176955
 30
0.0
 10
66.466159
 20
-28.083163
 30
0.0
  0
SPLINE
  5
2e4
100
AcDbEntity
  8
0
 62
7
100
AcDbSpline
 70
8
 71
3
 72
8
 73
4
 74
0
 40
0
 40
0
 40
0
 40
0
 40
1
 40
1
 40
1
 40
1
 10
66.466159
 20
-28.083163
 30
0.0
 10
66.372415
 20
-27.989371
 30
0.0
 10
66.245252
 20
-27.936661
 30
0.0
 10
66.112644
 20
-27.936627
 30
0.0
  0
LWPOLYLINE
  5
2e5
100
AcDbEntity
  8
0
 62
7
100
AcDbPolyline
 90
2
 70
0
 10
85.161120
 20
-27.936119
 30
0.0
 10
72.158860
 20
-27.936119
 30
0.0
  0
LWPOLYLINE
  5
2e6
100
AcDbEntity
  8
0
 62
7
100
AcDbPolyline
 90
2
 70
0
 10
66.611500
 20
-41.436219
 30
0.0
 10
66.611500
 20
-28.436499
 30
0.0
  0
LWPOLYLINE
  5
2e7
100
AcDbEntity
  8
0
 62
7
100
AcDbPolyline
 90
2
 70
0
 10
53.111400
 20
-41.936599
 30
0.0
 10
66.111120
 20
-41.936599
 30
0.0
  0
LWPOLYLINE
  5
2e8
100
AcDbEntity
  8
0
 62
7
100
AcDbPolyline
 90
2
 70
0
 10
52.611020
 20
-28.436499
 30
0.0
 10
52.611020
 20
-41.436219
 30
0.0
  0
SPLINE
  5
2e9
100
AcDbEntity
  8
0
 62
7
100
AcDbSpline
 70
8
 71
3
 72
8
 73
4
 74
0
 40
0
 40
0
 40
0
 40
0
 40
1
 40
1
 40
1
 40
1
 10
47.063660
 20
-41.936853
 30
0.0
 10
47.196312
 20
-41.936887
 30
0.0
 10
47.323541
 20
-41.884206
 30
0.0
 10
47.417340
 20
-41.790407
 30
0.0
  0
SPLINE
  5
2ea
100
AcDbEntity
  8
0
 62
7
100
AcDbSpline
 70
8
 71
3
 72
8
 73
4
 74
0
 40
0
 40
0
 40
0
 40
0
 40
1
 40
1
 40
1
 40
1
 10
47.417340
 20
-41.790407
 30
0.0
 10
47.511139
 20
-41.696607
 30
0.0
 10
47.563820
 20
-41.569379
 30
0.0
 10
47.563786
 20
-41.436727
 30
0.0
  0
SPLINE
  5
2eb
100
AcDbEntity
  8
0
 62
7
100
AcDbSpline
 70
8
 71
3
 72
8
 73
4
 74
0
 40
0
 40
0
 40
0
 40
0
 40
1
 40
1
 40
1
 40
1
 10
33.563814
 20
-41.436727
 30
0.0
 10
33.563780
 20
-41.569335
 30
0.0
 10
33.616426
 20
-41.696525
 30
0.0
 10
33.710171
 20
-41.790317
 30
0.0
  0
SPLINE
  5
2ec
100
AcDbEntity
  8
0
 62
7
100
AcDbSpline
 70
8
 71
3
 72
8
 73
4
 74
0
 40
0
 40
0
 40
0
 40
0
 40
1
 40
1
 40
1
 40
1
 10
33.710171
 20
-41.790317
 30
0.0
 10
33.803915
 20
-41.884109
 30
0.0
 10
33.931078
 20
-41.936819
 30
0.0
 10
34.063686
 20
-41.936853
 30
0.0
  0
SPLINE
  5
2ed
100
AcDbEntity
  8
0
 62
7
100
AcDbSpline
 70
8
 71
3
 72
8
 73
4
 74
0
 40
0
 40
0
 40
0
 40
0
 40
1
 40
1
 40
1
 40
1
 10
34.063686
 20
-27.936627
 30
0.0
 10
33.931078
 20
-27.936661
 30
0.0
 10
33.803915
 20
-27.989371
 30
0.0
 10
33.710171
 20
-28.083163
 30
0.0
  0
SPLINE
  5
2ee
100
AcDbEntity
  8
0
 62
7
100
AcDbSpline
 70
8
 71
3
 72
8
 73
4
 74
0
 40
0
 40
0
 40
0
 40
0
 40
1
 40
1
 40
1
 40
1
 10
33.710171
 20
-28.083163
 30
0.0
 10
33.616426
 20
-28.176955
 30
0.0
 10
33.563780
 20
-28.304145
 30
0.0
 10
33.563814
 20
-28.436753
 30
0.0
  0
SPLINE
  5
2ef
100
AcDbEntity
  8
0
 62
7
100
AcDbSpline
 70
8
 71
3
 72
8
 73
4
 74
0
 40
0
 40
0
 40
0
 40
0
 40
1
 40
1
 40
1
 40
1
 10
47.563786
 20
-28.436753
 30
0.0
 10
47.563820
 20
-28.304101
 30
0.0
 10
47.511139
 20
-28.176872
 30
0.0
 10
47.417340
 20
-28.083073
 30
0.0
  0
SPLINE
  5
2f0
100
AcDbEntity
  8
0
 62
7
100
AcDbSpline
 70
8
 71
3
 72
8
 73
4
 74
0
 40
0
 40
0
 40
0
 40
0
 40
1
 40
1
 40
1
 40
1
 10
47.417340
 20
-28.083073
 30
0.0
 10
47.323541
 20
-27.989274
 30
0.0
 10
47.196312
 20
-27.936593
 30
0.0
 10
47.063660
 20
-27.936627
 30
0.0
  0
LWPOLYLINE
  5
2f1
100
AcDbEntity
  8
0
 62
7
100
AcDbPolyline
 90
2
 70
0
 10
66.111120
 20
-27.936119
 30
0.0
 10
53.111400
 20
-27.936119
 30
0.0
  0
LWPOLYLINE
  5
2f2
100
AcDbEntity
  8
0
 62
7
100
AcDbPolyline
 90
2
 70
0
 10
47.561500
 20
-41.436219
 30
0.0
 10
47.561500
 20
-28.436499
 30
0.0
  0
LWPOLYLINE
  5
2f3
100
AcDbEntity
  8
0
 62
7
100
AcDbPolyline
 90
2
 70
0
 10
34.061400
 20
-41.936599
 30
0.0
 10
47.063660
 20
-41.936599
 30
0.0
  0
LWPOLYLINE
  5
2f4
100
AcDbEntity
  8
0
 62
7
100
AcDbPolyline
 90
2
 70
0
 10
33.563560
 20
-28.436499
 30
0.0
 10
33.563560
 20
-41.436219
 30
0.0
  0
SPLINE
  5
2f5
100
AcDbEntity
  8
0
 62
7
100
AcDbSpline
 70
8
 71
3
 72
8
 73
4
 74
0
 40
0
 40
0
 40
0
 40
0
 40
1
 40
1
 40
1
 40
1
 10
213.740746
 20
-22.887920
 30
0.0
 10
213.873376
 20
-22.887953
 30
0.0
 10
214.000585
 20
-22.835290
 30
0.0
 10
214.094381
 20
-22.741518
 30
0.0
  0
SPLINE
  5
2f6
100
AcDbEntity
  8
0
 62
7
100
AcDbSpline
 70
8
 71
3
 72
8
 73
4
 74
0
 40
0
 40
0
 40
0
 40
0
 40
1
 40
1
 40
1
 40
1
 10
214.094381
 20
-22.741518
 30
0.0
 10
214.188176
 20
-22.647747
 30
0.0
 10
214.240872
 20
-22.520551
 30
0.0
 10
214.240872
 20
-22.387921
 30
0.0
  0
SPLINE
  5
2f7
100
AcDbEntity
  8
0
 62
7
100
AcDbSpline
 70
8
 71
3
 72
8
 73
4
 74
0
 40
0
 40
0
 40
0
 40
0
 40
1
 40
1
 40
1
 40
1
 10
200.240646
 20
-22.387921
 30
0.0
 10
200.240646
 20
-22.520551
 30
0.0
 10
200.293342
 20
-22.647747
 30
0.0
 10
200.387137
 20
-22.741518
 30
0.0
  0
SPLINE
  5
2f8
100
AcDbEntity
  8
0
 62
7
100
AcDbSpline
 70
8
 71
3
 72
8
 73
4
 74
0
 40
0
 40
0
 40
0
 40
0
 40
1
 40
1
 40
1
 40
1
 10
200.387137
 20
-22.741518
 30
0.0
 10
200.480933
 20
-22.835290
 30
0.0
 10
200.608142
 20
-22.887953
 30
0.0
 10
200.740772
 20
-22.887920
 30
0.0
  0
SPLINE
  5
2f9
100
AcDbEntity
  8
0
 62
7
100
AcDbSpline
 70
8
 71
3
 72
8
 73
4
 74
0
 40
0
 40
0
 40
0
 40
0
 40
1
 40
1
 40
1
 40
1
 10
200.740772
 20
-8.887922
 30
0.0
 10
200.608142
 20
-8.887889
 30
0.0
 10
200.480933
 20
-8.940552
 30
0.0
 10
200.387137
 20
-9.034324
 30
0.0
  0
SPLINE
  5
2fa
100
AcDbEntity
  8
0
 62
7
100
AcDbSpline
 70
8
 71
3
 72
8
 73
4
 74
0
 40
0
 40
0
 40
0
 40
0
 40
1
 40
1
 40
1
 40
1
 10
200.387137
 20
-9.034324
 30
0.0
 10
200.293342
 20
-9.128095
 30
0.0
 10
200.240646
 20
-9.255291
 30
0.0
 10
200.240646
 20
-9.387921
 30
0.0
  0
SPLINE
  5
2fb
100
AcDbEntity
  8
0
 62
7
100
AcDbSpline
 70
8
 71
3
 72
8
 73
4
 74
0
 40
0
 40
0
 40
0
 40
0
 40
1
 40
1
 40
1
 40
1
 10
214.240872
 20
-9.387921
 30
0.0
 10
214.240872
 20
-9.255291
 30
0.0
 10
214.188176
 20
-9.128095
 30
0.0
 10
214.094381
 20
-9.034324
 30
0.0
  0
SPLINE
  5
2fc
100
AcDbEntity
  8
0
 62
7
100
AcDbSpline
 70
8
 71
3
 72
8
 73
4
 74
0
 40
0
 40
0
 40
0
 40
0
 40
1
 40
1
 40
1
 40
1
 10
214.094381
 20
-9.034324
 30
0.0
 10
214.000585
 20
-8.940552
 30
0.0
 10
213.873376
 20
-8.887889
 30
0.0
 10
213.740746
 20
-8.887922
 30
0.0
  0
LWPOLYLINE
  5
2fd
100
AcDbEntity
  8
0
 62
7
100
AcDbPolyline
 90
2
 70
0
 10
47.063660
 20
-27.936119
 30
0.0
 10
34.061400
 20
-27.936119
 30
0.0
  0
LWPOLYLINE
  5
2fe
100
AcDbEntity
  8
0
 62
7
100
AcDbPolyline
 90
2
 70
0
 10
214.238840
 20
-22.386219
 30
0.0
 10
214.238840
 20
-9.386499
 30
0.0
  0
LWPOLYLINE
  5
2ff
100
AcDbEntity
  8
0
 62
7
100
AcDbPolyline
 90
2
 70
0
 10
200.738740
 20
-22.886599
 30
0.0
 10
213.738460
 20
-22.886599
 30
0.0
  0
LWPOLYLINE
  5
300
100
AcDbEntity
  8
0
 62
7
100
AcDbPolyline
 90
2
 70
0
 10
200.238360
 20
-9.386499
 30
0.0
 10
200.238360
 20
-22.386219
 30
0.0
  0
SPLINE
  5
301
100
AcDbEntity
  8
0
 62
7
100
AcDbSpline
 70
8
 71
3
 72
8
 73
4
 74
0
 40
0
 40
0
 40
0
 40
0
 40
1
 40
1
 40
1
 40
1
 10
194.692016
 20
-22.887920
 30
0.0
 10
194.968108
 20
-22.887850
 30
0.0
 10
195.191888
 20
-22.664013
 30
0.0
 10
195.191888
 20
-22.387921
 30
0.0
  0
SPLINE
  5
302
100
AcDbEntity
  8
0
 62
7
100
AcDbSpline
 70
8
 71
3
 72
8
 73
4
 74
0
 40
0
 40
0
 40
0
 40
0
 40
1
 40
1
 40
1
 40
1
 10
181.191916
 20
-22.387921
 30
0.0
 10
181.191916
 20
-22.520551
 30
0.0
 10
181.244612
 20
-22.647747
 30
0.0
 10
181.338407
 20
-22.741518
 30
0.0
  0
SPLINE
  5
303
100
AcDbEntity
  8
0
 62
7
100
AcDbSpline
 70
8
 71
3
 72
8
 73
4
 74
0
 40
0
 40
0
 40
0
 40
0
 40
1
 40
1
 40
1
 40
1
 10
181.338407
 20
-22.741518
 30
0.0
 10
181.432203
 20
-22.835290
 30
0.0
 10
181.559412
 20
-22.887953
 30
0.0
 10
181.692042
 20
-22.887920
 30
0.0
  0
SPLINE
  5
304
100
AcDbEntity
  8
0
 62
7
100
AcDbSpline
 70
8
 71
3
 72
8
 73
4
 74
0
 40
0
 40
0
 40
0
 40
0
 40
1
 40
1
 40
1
 40
1
 10
181.692042
 20
-8.887922
 30
0.0
 10
181.559412
 20
-8.887889
 30
0.0
 10
181.432203
 20
-8.940552
 30
0.0
 10
181.338407
 20
-9.034324
 30
0.0
  0
SPLINE
  5
305
100
AcDbEntity
  8
0
 62
7
100
AcDbSpline
 70
8
 71
3
 72
8
 73
4
 74
0
 40
0
 40
0
 40
0
 40
0
 40
1
 40
1
 40
1
 40
1
 10
181.338407
 20
-9.034324
 30
0.0
 10
181.244612
 20
-9.128095
 30
0.0
 10
181.191916
 20
-9.255291
 30
0.0
 10
181.191916
 20
-9.387921
 30
0.0
  0
SPLINE
  5
306
100
AcDbEntity
  8
0
 62
7
100
AcDbSpline
 70
8
 71
3
 72
8
 73
4
 74
0
 40
0
 40
0
 40
0
 40
0
 40
1
 40
1
 40
1
 40
1
 10
195.191888
 20
-9.387921
 30
0.0
 10
195.191888
 20
-9.111829
 30
0.0
 10
194.968108
 20
-8.887992
 30
0.0
 10
194.692016
 20
-8.887922
 30
0.0
  0
LWPOLYLINE
  5
307
100
AcDbEntity
  8
0
 62
7
100
AcDbPolyline
 90
2
 70
0
 10
213.738460
 20
-8.886119
 30
0.0
 10
200.738740
 20
-8.886119
 30
0.0
  0
LWPOLYLINE
  5
308
100
AcDbEntity
  8
0
 62
7
100
AcDbPolyline
 90
2
 70
0
 10
195.191380
 20
-22.386219
 30
0.0
 10
195.191380
 20
-9.386499
 30
0.0
  0
LWPOLYLINE
  5
309
100
AcDbEntity
  8
0
 62
7
100
AcDbPolyline
 90
2
 70
0
 10
181.691280
 20
-22.886599
 30
0.0
 10
194.691000
 20
-22.886599
 30
0.0
  0
LWPOLYLINE
  5
30a
100
AcDbEntity
  8
0
 62
7
100
AcDbPolyline
 90
2
 70
0
 10
181.190900
 20
-9.386499
 30
0.0
 10
181.190900
 20
-22.386219
 30
0.0
  0
SPLINE
  5
30b
100
AcDbEntity
  8
0
 62
7
100
AcDbSpline
 70
8
 71
3
 72
8
 73
4
 74
0
 40
0
 40
0
 40
0
 40
0
 40
1
 40
1
 40
1
 40
1
 10
175.643286
 20
-22.887920
 30
0.0
 10
175.919378
 20
-22.887850
 30
0.0
 10
176.143158
 20
-22.664013
 30
0.0
 10
176.143158
 20
-22.387921
 30
0.0
  0
SPLINE
  5
30c
100
AcDbEntity
  8
0
 62
7
100
AcDbSpline
 70
8
 71
3
 72
8
 73
4
 74
0
 40
0
 40
0
 40
0
 40
0
 40
1
 40
1
 40
1
 40
1
 10
162.143186
 20
-22.387921
 30
0.0
 10
162.143186
 20
-22.664013
 30
0.0
 10
162.366966
 20
-22.887850
 30
0.0
 10
162.643058
 20
-22.887920
 30
0.0
  0
SPLINE
  5
30d
100
AcDbEntity
  8
0
 62
7
100
AcDbSpline
 70
8
 71
3
 72
8
 73
4
 74
0
 40
0
 40
0
 40
0
 40
0
 40
1
 40
1
 40
1
 40
1
 10
162.643058
 20
-8.887922
 30
0.0
 10
162.366966
 20
-8.887992
 30
0.0
 10
162.143186
 20
-9.111829
 30
0.0
 10
162.143186
 20
-9.387921
 30
0.0
  0
SPLINE
  5
30e
100
AcDbEntity
  8
0
 62
7
100
AcDbSpline
 70
8
 71
3
 72
8
 73
4
 74
0
 40
0
 40
0
 40
0
 40
0
 40
1
 40
1
 40
1
 40
1
 10
176.143158
 20
-9.387921
 30
0.0
 10
176.143158
 20
-9.111829
 30
0.0
 10
175.919378
 20
-8.887992
 30
0.0
 10
175.643286
 20
-8.887922
 30
0.0
  0
LWPOLYLINE
  5
30f
100
AcDbEntity
  8
0
 62
7
100
AcDbPolyline
 90
2
 70
0
 10
194.691000
 20
-8.886119
 30
0.0
 10
181.691280
 20
-8.886119
 30
0.0
  0
LWPOLYLINE
  5
310
100
AcDbEntity
  8
0
 62
7
100
AcDbPolyline
 90
2
 70
0
 10
176.141380
 20
-22.386219
 30
0.0
 10
176.141380
 20
-9.386499
 30
0.0
  0
LWPOLYLINE
  5
311
100
AcDbEntity
  8
0
 62
7
100
AcDbPolyline
 90
2
 70
0
 10
162.641280
 20
-22.886599
 30
0.0
 10
175.641000
 20
-22.886599
 30
0.0
  0
LWPOLYLINE
  5
312
100
AcDbEntity
  8
0
 62
7
100
AcDbPolyline
 90
2
 70
0
 10
162.140900
 20
-9.386499
 30
0.0
 10
162.140900
 20
-22.386219
 30
0.0
  0
SPLINE
  5
313
100
AcDbEntity
  8
0
 62
7
100
AcDbSpline
 70
8
 71
3
 72
8
 73
4
 74
0
 40
0
 40
0
 40
0
 40
0
 40
1
 40
1
 40
1
 40
1
 10
156.594302
 20
-22.887920
 30
0.0
 10
156.726932
 20
-22.887953
 30
0.0
 10
156.854141
 20
-22.835290
 30
0.0
 10
156.947937
 20
-22.741518
 30
0.0
  0
SPLINE
  5
314
100
AcDbEntity
  8
0
 62
7
100
AcDbSpline
 70
8
 71
3
 72
8
 73
4
 74
0
 40
0
 40
0
 40
0
 40
0
 40
1
 40
1
 40
1
 40
1
 10
156.947937
 20
-22.741518
 30
0.0
 10
157.041732
 20
-22.647747
 30
0.0
 10
157.094428
 20
-22.520551
 30
0.0
 10
157.094428
 20
-22.387921
 30
0.0
  0
SPLINE
  5
315
100
AcDbEntity
  8
0
 62
7
100
AcDbSpline
 70
8
 71
3
 72
8
 73
4
 74
0
 40
0
 40
0
 40
0
 40
0
 40
1
 40
1
 40
1
 40
1
 10
143.094456
 20
-22.387921
 30
0.0
 10
143.094456
 20
-22.664013
 30
0.0
 10
143.318236
 20
-22.887850
 30
0.0
 10
143.594328
 20
-22.887920
 30
0.0
  0
SPLINE
  5
316
100
AcDbEntity
  8
0
 62
7
100
AcDbSpline
 70
8
 71
3
 72
8
 73
4
 74
0
 40
0
 40
0
 40
0
 40
0
 40
1
 40
1
 40
1
 40
1
 10
143.594328
 20
-8.887922
 30
0.0
 10
143.318236
 20
-8.887992
 30
0.0
 10
143.094456
 20
-9.111829
 30
0.0
 10
143.094456
 20
-9.387921
 30
0.0
  0
SPLINE
  5
317
100
AcDbEntity
  8
0
 62
7
100
AcDbSpline
 70
8
 71
3
 72
8
 73
4
 74
0
 40
0
 40
0
 40
0
 40
0
 40
1
 40
1
 40
1
 40
1
 10
157.094428
 20
-9.387921
 30
0.0
 10
157.094428
 20
-9.255291
 30
0.0
 10
157.041732
 20
-9.128095
 30
0.0
 10
156.947937
 20
-9.034324
 30
0.0
  0
SPLINE
  5
318
100
AcDbEntity
  8
0
 62
7
100
AcDbSpline
 70
8
 71
3
 72
8
 73
4
 74
0
 40
0
 40
0
 40
0
 40
0
 40
1
 40
1
 40
1
 40
1
 10
156.947937
 20
-9.034324
 30
0.0
 10
156.854141
 20
-8.940552
 30
0.0
 10
156.726932
 20
-8.887889
 30
0.0
 10
156.594302
 20
-8.887922
 30
0.0
  0
LWPOLYLINE
  5
319
100
AcDbEntity
  8
0
 62
7
100
AcDbPolyline
 90
2
 70
0
 10
175.641000
 20
-8.886119
 30
0.0
 10
162.641280
 20
-8.886119
 30
0.0
  0
LWPOLYLINE
  5
31a
100
AcDbEntity
  8
0
 62
7
100
AcDbPolyline
 90
2
 70
0
 10
157.093920
 20
-22.386219
 30
0.0
 10
157.093920
 20
-9.386499
 30
0.0
  0
LWPOLYLINE
  5
31b
100
AcDbEntity
  8
0
 62
7
100
AcDbPolyline
 90
2
 70
0
 10
143.593820
 20
-22.886599
 30
0.0
 10
156.593540
 20
-22.886599
 30
0.0
  0
LWPOLYLINE
  5
31c
100
AcDbEntity
  8
0
 62
7
100
AcDbPolyline
 90
2
 70
0
 10
143.093440
 20
-9.386499
 30
0.0
 10
143.093440
 20
-22.386219
 30
0.0
  0
SPLINE
  5
31d
100
AcDbEntity
  8
0
 62
7
100
AcDbSpline
 70
8
 71
3
 72
8
 73
4
 74
0
 40
0
 40
0
 40
0
 40
0
 40
1
 40
1
 40
1
 40
1
 10
137.545572
 20
-22.887920
 30
0.0
 10
137.821664
 20
-22.887850
 30
0.0
 10
138.045444
 20
-22.664013
 30
0.0
 10
138.045444
 20
-22.387921
 30
0.0
  0
SPLINE
  5
31e
100
AcDbEntity
  8
0
 62
7
100
AcDbSpline
 70
8
 71
3
 72
8
 73
4
 74
0
 40
0
 40
0
 40
0
 40
0
 40
1
 40
1
 40
1
 40
1
 10
124.045472
 20
-22.387921
 30
0.0
 10
124.045472
 20
-22.520551
 30
0.0
 10
124.098168
 20
-22.647747
 30
0.0
 10
124.191963
 20
-22.741518
 30
0.0
  0
SPLINE
  5
31f
100
AcDbEntity
  8
0
 62
7
100
AcDbSpline
 70
8
 71
3
 72
8
 73
4
 74
0
 40
0
 40
0
 40
0
 40
0
 40
1
 40
1
 40
1
 40
1
 10
124.191963
 20
-22.741518
 30
0.0
 10
124.285759
 20
-22.835290
 30
0.0
 10
124.412968
 20
-22.887953
 30
0.0
 10
124.545598
 20
-22.887920
 30
0.0
  0
SPLINE
  5
320
100
AcDbEntity
  8
0
 62
7
100
AcDbSpline
 70
8
 71
3
 72
8
 73
4
 74
0
 40
0
 40
0
 40
0
 40
0
 40
1
 40
1
 40
1
 40
1
 10
124.545598
 20
-8.887922
 30
0.0
 10
124.412968
 20
-8.887889
 30
0.0
 10
124.285759
 20
-8.940552
 30
0.0
 10
124.191963
 20
-9.034324
 30
0.0
  0
SPLINE
  5
321
100
AcDbEntity
  8
0
 62
7
100
AcDbSpline
 70
8
 71
3
 72
8
 73
4
 74
0
 40
0
 40
0
 40
0
 40
0
 40
1
 40
1
 40
1
 40
1
 10
124.191963
 20
-9.034324
 30
0.0
 10
124.098168
 20
-9.128095
 30
0.0
 10
124.045472
 20
-9.255291
 30
0.0
 10
124.045472
 20
-9.387921
 30
0.0
  0
SPLINE
  5
322
100
AcDbEntity
  8
0
 62
7
100
AcDbSpline
 70
8
 71
3
 72
8
 73
4
 74
0
 40
0
 40
0
 40
0
 40
0
 40
1
 40
1
 40
1
 40
1
 10
138.045444
 20
-9.387921
 30
0.0
 10
138.045444
 20
-9.111829
 30
0.0
 10
137.821664
 20
-8.887992
 30
0.0
 10
137.545572
 20
-8.887922
 30
0.0
  0
LWPOLYLINE
  5
323
100
AcDbEntity
  8
0
 62
7
100
AcDbPolyline
 90
2
 70
0
 10
156.593540
 20
-8.886119
 30
0.0
 10
143.593820
 20
-8.886119
 30
0.0
  0
LWPOLYLINE
  5
324
100
AcDbEntity
  8
0
 62
7
100
AcDbPolyline
 90
2
 70
0
 10
138.043920
 20
-22.386219
 30
0.0
 10
138.043920
 20
-9.386499
 30
0.0
  0
LWPOLYLINE
  5
325
100
AcDbEntity
  8
0
 62
7
100
AcDbPolyline
 90
2
 70
0
 10
124.543820
 20
-22.886599
 30
0.0
 10
137.543540
 20
-22.886599
 30
0.0
  0
LWPOLYLINE
  5
326
100
AcDbEntity
  8
0
 62
7
100
AcDbPolyline
 90
2
 70
0
 10
124.043440
 20
-9.386499
 30
0.0
 10
124.043440
 20
-22.386219
 30
0.0
  0
SPLINE
  5
327
100
AcDbEntity
  8
0
 62
7
100
AcDbSpline
 70
8
 71
3
 72
8
 73
4
 74
0
 40
0
 40
0
 40
0
 40
0
 40
1
 40
1
 40
1
 40
1
 10
118.496842
 20
-22.887920
 30
0.0
 10
118.772934
 20
-22.887850
 30
0.0
 10
118.996714
 20
-22.664013
 30
0.0
 10
118.996714
 20
-22.387921
 30
0.0
  0
SPLINE
  5
328
100
AcDbEntity
  8
0
 62
7
100
AcDbSpline
 70
8
 71
3
 72
8
 73
4
 74
0
 40
0
 40
0
 40
0
 40
0
 40
1
 40
1
 40
1
 40
1
 10
104.996742
 20
-22.387921
 30
0.0
 10
104.996742
 20
-22.520551
 30
0.0
 10
105.049438
 20
-22.647747
 30
0.0
 10
105.143233
 20
-22.741518
 30
0.0
  0
SPLINE
  5
329
100
AcDbEntity
  8
0
 62
7
100
AcDbSpline
 70
8
 71
3
 72
8
 73
4
 74
0
 40
0
 40
0
 40
0
 40
0
 40
1
 40
1
 40
1
 40
1
 10
105.143233
 20
-22.741518
 30
0.0
 10
105.237029
 20
-22.835290
 30
0.0
 10
105.364238
 20
-22.887953
 30
0.0
 10
105.496868
 20
-22.887920
 30
0.0
  0
SPLINE
  5
32a
100
AcDbEntity
  8
0
 62
7
100
AcDbSpline
 70
8
 71
3
 72
8
 73
4
 74
0
 40
0
 40
0
 40
0
 40
0
 40
1
 40
1
 40
1
 40
1
 10
105.496868
 20
-8.887922
 30
0.0
 10
105.364238
 20
-8.887889
 30
0.0
 10
105.237029
 20
-8.940552
 30
0.0
 10
105.143233
 20
-9.034324
 30
0.0
  0
SPLINE
  5
32b
100
AcDbEntity
  8
0
 62
7
100
AcDbSpline
 70
8
 71
3
 72
8
 73
4
 74
0
 40
0
 40
0
 40
0
 40
0
 40
1
 40
1
 40
1
 40
1
 10
105.143233
 20
-9.034324
 30
0.0
 10
105.049438
 20
-9.128095
 30
0.0
 10
104.996742
 20
-9.255291
 30
0.0
 10
104.996742
 20
-9.387921
 30
0.0
  0
SPLINE
  5
32c
100
AcDbEntity
  8
0
 62
7
100
AcDbSpline
 70
8
 71
3
 72
8
 73
4
 74
0
 40
0
 40
0
 40
0
 40
0
 40
1
 40
1
 40
1
 40
1
 10
118.996714
 20
-9.387921
 30
0.0
 10
118.996714
 20
-9.111829
 30
0.0
 10
118.772934
 20
-8.887992
 30
0.0
 10
118.496842
 20
-8.887922
 30
0.0
  0
LWPOLYLINE
  5
32d
100
AcDbEntity
  8
0
 62
7
100
AcDbPolyline
 90
2
 70
0
 10
137.543540
 20
-8.886119
 30
0.0
 10
124.543820
 20
-8.886119
 30
0.0
  0
LWPOLYLINE
  5
32e
100
AcDbEntity
  8
0
 62
7
100
AcDbPolyline
 90
2
 70
0
 10
118.996460
 20
-22.386219
 30
0.0
 10
118.996460
 20
-9.386499
 30
0.0
  0
LWPOLYLINE
  5
32f
100
AcDbEntity
  8
0
 62
7
100
AcDbPolyline
 90
2
 70
0
 10
105.496360
 20
-22.886599
 30
0.0
 10
118.496080
 20
-22.886599
 30
0.0
  0
LWPOLYLINE
  5
330
100
AcDbEntity
  8
0
 62
7
100
AcDbPolyline
 90
2
 70
0
 10
104.995980
 20
-9.386499
 30
0.0
 10
104.995980
 20
-22.386219
 30
0.0
  0
SPLINE
  5
331
100
AcDbEntity
  8
0
 62
7
100
AcDbSpline
 70
8
 71
3
 72
8
 73
4
 74
0
 40
0
 40
0
 40
0
 40
0
 40
1
 40
1
 40
1
 40
1
 10
99.447858
 20
-22.887920
 30
0.0
 10
99.580488
 20
-22.887953
 30
0.0
 10
99.707697
 20
-22.835290
 30
0.0
 10
99.801493
 20
-22.741518
 30
0.0
  0
SPLINE
  5
332
100
AcDbEntity
  8
0
 62
7
100
AcDbSpline
 70
8
 71
3
 72
8
 73
4
 74
0
 40
0
 40
0
 40
0
 40
0
 40
1
 40
1
 40
1
 40
1
 10
99.801493
 20
-22.741518
 30
0.0
 10
99.895288
 20
-22.647747
 30
0.0
 10
99.947984
 20
-22.520551
 30
0.0
 10
99.947984
 20
-22.387921
 30
0.0
  0
SPLINE
  5
333
100
AcDbEntity
  8
0
 62
7
100
AcDbSpline
 70
8
 71
3
 72
8
 73
4
 74
0
 40
0
 40
0
 40
0
 40
0
 40
1
 40
1
 40
1
 40
1
 10
85.948012
 20
-22.387921
 30
0.0
 10
85.948012
 20
-22.664013
 30
0.0
 10
86.171792
 20
-22.887850
 30
0.0
 10
86.447884
 20
-22.887920
 30
0.0
  0
SPLINE
  5
334
100
AcDbEntity
  8
0
 62
7
100
AcDbSpline
 70
8
 71
3
 72
8
 73
4
 74
0
 40
0
 40
0
 40
0
 40
0
 40
1
 40
1
 40
1
 40
1
 10
86.447884
 20
-8.887922
 30
0.0
 10
86.171792
 20
-8.887992
 30
0.0
 10
85.948012
 20
-9.111829
 30
0.0
 10
85.948012
 20
-9.387921
 30
0.0
  0
SPLINE
  5
335
100
AcDbEntity
  8
0
 62
7
100
AcDbSpline
 70
8
 71
3
 72
8
 73
4
 74
0
 40
0
 40
0
 40
0
 40
0
 40
1
 40
1
 40
1
 40
1
 10
99.947984
 20
-9.387921
 30
0.0
 10
99.947984
 20
-9.255291
 30
0.0
 10
99.895288
 20
-9.128095
 30
0.0
 10
99.801493
 20
-9.034324
 30
0.0
  0
SPLINE
  5
336
100
AcDbEntity
  8
0
 62
7
100
AcDbSpline
 70
8
 71
3
 72
8
 73
4
 74
0
 40
0
 40
0
 40
0
 40
0
 40
1
 40
1
 40
1
 40
1
 10
99.801493
 20
-9.034324
 30
0.0
 10
99.707697
 20
-8.940552
 30
0.0
 10
99.580488
 20
-8.887889
 30
0.0
 10
99.447858
 20
-8.887922
 30
0.0
  0
LWPOLYLINE
  5
337
100
AcDbEntity
  8
0
 62
7
100
AcDbPolyline
 90
2
 70
0
 10
118.496080
 20
-8.886119
 30
0.0
 10
105.496360
 20
-8.886119
 30
0.0
  0
LWPOLYLINE
  5
338
100
AcDbEntity
  8
0
 62
7
100
AcDbPolyline
 90
2
 70
0
 10
99.946460
 20
-22.386219
 30
0.0
 10
99.946460
 20
-9.386499
 30
0.0
  0
LWPOLYLINE
  5
339
100
AcDbEntity
  8
0
 62
7
100
AcDbPolyline
 90
2
 70
0
 10
86.446360
 20
-22.886599
 30
0.0
 10
99.446080
 20
-22.886599
 30
0.0
  0
LWPOLYLINE
  5
33a
100
AcDbEntity
  8
0
 62
7
100
AcDbPolyline
 90
2
 70
0
 10
85.945980
 20
-9.386499
 30
0.0
 10
85.945980
 20
-22.386219
 30
0.0
  0
SPLINE
  5
33b
100
AcDbEntity
  8
0
 62
7
100
AcDbSpline
 70
8
 71
3
 72
8
 73
4
 74
0
 40
0
 40
0
 40
0
 40
0
 40
1
 40
1
 40
1
 40
1
 10
80.399128
 20
-22.887920
 30
0.0
 10
80.531758
 20
-22.887953
 30
0.0
 10
80.658967
 20
-22.835290
 30
0.0
 10
80.752763
 20
-22.741518
 30
0.0
  0
SPLINE
  5
33c
100
AcDbEntity
  8
0
 62
7
100
AcDbSpline
 70
8
 71
3
 72
8
 73
4
 74
0
 40
0
 40
0
 40
0
 40
0
 40
1
 40
1
 40
1
 40
1
 10
80.752763
 20
-22.741518
 30
0.0
 10
80.846558
 20
-22.647747
 30
0.0
 10
80.899254
 20
-22.520551
 30
0.0
 10
80.899254
 20
-22.387921
 30
0.0
  0
SPLINE
  5
33d
100
AcDbEntity
  8
0
 62
7
100
AcDbSpline
 70
8
 71
3
 72
8
 73
4
 74
0
 40
0
 40
0
 40
0
 40
0
 40
1
 40
1
 40
1
 40
1
 10
66.899282
 20
-22.387921
 30
0.0
 10
66.899282
 20
-22.664013
 30
0.0
 10
67.123062
 20
-22.887850
 30
0.0
 10
67.399154
 20
-22.887920
 30
0.0
  0
SPLINE
  5
33e
100
AcDbEntity
  8
0
 62
7
100
AcDbSpline
 70
8
 71
3
 72
8
 73
4
 74
0
 40
0
 40
0
 40
0
 40
0
 40
1
 40
1
 40
1
 40
1
 10
67.399154
 20
-8.887922
 30
0.0
 10
67.123062
 20
-8.887992
 30
0.0
 10
66.899282
 20
-9.111829
 30
0.0
 10
66.899282
 20
-9.387921
 30
0.0
  0
SPLINE
  5
33f
100
AcDbEntity
  8
0
 62
7
100
AcDbSpline
 70
8
 71
3
 72
8
 73
4
 74
0
 40
0
 40
0
 40
0
 40
0
 40
1
 40
1
 40
1
 40
1
 10
80.899254
 20
-9.387921
 30
0.0
 10
80.899254
 20
-9.255291
 30
0.0
 10
80.846558
 20
-9.128095
 30
0.0
 10
80.752763
 20
-9.034324
 30
0.0
  0
SPLINE
  5
340
100
AcDbEntity
  8
0
 62
7
100
AcDbSpline
 70
8
 71
3
 72
8
 73
4
 74
0
 40
0
 40
0
 40
0
 40
0
 40
1
 40
1
 40
1
 40
1
 10
80.752763
 20
-9.034324
 30
0.0
 10
80.658967
 20
-8.940552
 30
0.0
 10
80.531758
 20
-8.887889
 30
0.0
 10
80.399128
 20
-8.887922
 30
0.0
  0
LWPOLYLINE
  5
341
100
AcDbEntity
  8
0
 62
7
100
AcDbPolyline
 90
2
 70
0
 10
99.446080
 20
-8.886119
 30
0.0
 10
86.446360
 20
-8.886119
 30
0.0
  0
LWPOLYLINE
  5
342
100
AcDbEntity
  8
0
 62
7
100
AcDbPolyline
 90
2
 70
0
 10
80.899000
 20
-22.386219
 30
0.0
 10
80.899000
 20
-9.386499
 30
0.0
  0
LWPOLYLINE
  5
343
100
AcDbEntity
  8
0
 62
7
100
AcDbPolyline
 90
2
 70
0
 10
67.398900
 20
-22.886599
 30
0.0
 10
80.398620
 20
-22.886599
 30
0.0
  0
LWPOLYLINE
  5
344
100
AcDbEntity
  8
0
 62
7
100
AcDbPolyline
 90
2
 70
0
 10
66.898520
 20
-9.386499
 30
0.0
 10
66.898520
 20
-22.386219
 30
0.0
  0
SPLINE
  5
345
100
AcDbEntity
  8
0
 62
7
100
AcDbSpline
 70
8
 71
3
 72
8
 73
4
 74
0
 40
0
 40
0
 40
0
 40
0
 40
1
 40
1
 40
1
 40
1
 10
61.350398
 20
-22.887920
 30
0.0
 10
61.626490
 20
-22.887850
 30
0.0
 10
61.850270
 20
-22.664013
 30
0.0
 10
61.850270
 20
-22.387921
 30
0.0
  0
SPLINE
  5
346
100
AcDbEntity
  8
0
 62
7
100
AcDbSpline
 70
8
 71
3
 72
8
 73
4
 74
0
 40
0
 40
0
 40
0
 40
0
 40
1
 40
1
 40
1
 40
1
 10
47.850298
 20
-22.387921
 30
0.0
 10
47.850298
 20
-22.520551
 30
0.0
 10
47.902994
 20
-22.647747
 30
0.0
 10
47.996789
 20
-22.741518
 30
0.0
  0
SPLINE
  5
347
100
AcDbEntity
  8
0
 62
7
100
AcDbSpline
 70
8
 71
3
 72
8
 73
4
 74
0
 40
0
 40
0
 40
0
 40
0
 40
1
 40
1
 40
1
 40
1
 10
47.996789
 20
-22.741518
 30
0.0
 10
48.090585
 20
-22.835290
 30
0.0
 10
48.217794
 20
-22.887953
 30
0.0
 10
48.350424
 20
-22.887920
 30
0.0
  0
SPLINE
  5
348
100
AcDbEntity
  8
0
 62
7
100
AcDbSpline
 70
8
 71
3
 72
8
 73
4
 74
0
 40
0
 40
0
 40
0
 40
0
 40
1
 40
1
 40
1
 40
1
 10
48.350424
 20
-8.887922
 30
0.0
 10
48.217794
 20
-8.887889
 30
0.0
 10
48.090585
 20
-8.940552
 30
0.0
 10
47.996789
 20
-9.034324
 30
0.0
  0
SPLINE
  5
349
100
AcDbEntity
  8
0
 62
7
100
AcDbSpline
 70
8
 71
3
 72
8
 73
4
 74
0
 40
0
 40
0
 40
0
 40
0
 40
1
 40
1
 40
1
 40
1
 10
47.996789
 20
-9.034324
 30
0.0
 10
47.902994
 20
-9.128095
 30
0.0
 10
47.850298
 20
-9.255291
 30
0.0
 10
47.850298
 20
-9.387921
 30
0.0
  0
SPLINE
  5
34a
100
AcDbEntity
  8
0
 62
7
100
AcDbSpline
 70
8
 71
3
 72
8
 73
4
 74
0
 40
0
 40
0
 40
0
 40
0
 40
1
 40
1
 40
1
 40
1
 10
61.850270
 20
-9.387921
 30
0.0
 10
61.850270
 20
-9.111829
 30
0.0
 10
61.626490
 20
-8.887992
 30
0.0
 10
61.350398
 20
-8.887922
 30
0.0
  0
LWPOLYLINE
  5
34b
100
AcDbEntity
  8
0
 62
7
100
AcDbPolyline
 90
2
 70
0
 10
80.398620
 20
-8.886119
 30
0.0
 10
67.398900
 20
-8.886119
 30
0.0
  0
LWPOLYLINE
  5
34c
100
AcDbEntity
  8
0
 62
7
100
AcDbPolyline
 90
2
 70
0
 10
61.849000
 20
-22.386219
 30
0.0
 10
61.849000
 20
-9.386499
 30
0.0
  0
LWPOLYLINE
  5
34d
100
AcDbEntity
  8
0
 62
7
100
AcDbPolyline
 90
2
 70
0
 10
48.348900
 20
-22.886599
 30
0.0
 10
61.348620
 20
-22.886599
 30
0.0
  0
LWPOLYLINE
  5
34e
100
AcDbEntity
  8
0
 62
7
100
AcDbPolyline
 90
2
 70
0
 10
47.848520
 20
-9.386499
 30
0.0
 10
47.848520
 20
-22.386219
 30
0.0
  0
SPLINE
  5
34f
100
AcDbEntity
  8
0
 62
7
100
AcDbSpline
 70
8
 71
3
 72
8
 73
4
 74
0
 40
0
 40
0
 40
0
 40
0
 40
1
 40
1
 40
1
 40
1
 10
42.301668
 20
-22.887920
 30
0.0
 10
42.577760
 20
-22.887850
 30
0.0
 10
42.801540
 20
-22.664013
 30
0.0
 10
42.801540
 20
-22.387921
 30
0.0
  0
SPLINE
  5
350
100
AcDbEntity
  8
0
 62
7
100
AcDbSpline
 70
8
 71
3
 72
8
 73
4
 74
0
 40
0
 40
0
 40
0
 40
0
 40
1
 40
1
 40
1
 40
1
 10
28.801568
 20
-22.387921
 30
0.0
 10
28.801568
 20
-22.664013
 30
0.0
 10
29.025348
 20
-22.887850
 30
0.0
 10
29.301440
 20
-22.887920
 30
0.0
  0
SPLINE
  5
351
100
AcDbEntity
  8
0
 62
7
100
AcDbSpline
 70
8
 71
3
 72
8
 73
4
 74
0
 40
0
 40
0
 40
0
 40
0
 40
1
 40
1
 40
1
 40
1
 10
29.301440
 20
-8.887922
 30
0.0
 10
29.025348
 20
-8.887992
 30
0.0
 10
28.801568
 20
-9.111829
 30
0.0
 10
28.801568
 20
-9.387921
 30
0.0
  0
SPLINE
  5
352
100
AcDbEntity
  8
0
 62
7
100
AcDbSpline
 70
8
 71
3
 72
8
 73
4
 74
0
 40
0
 40
0
 40
0
 40
0
 40
1
 40
1
 40
1
 40
1
 10
42.801540
 20
-9.387921
 30
0.0
 10
42.801540
 20
-9.111829
 30
0.0
 10
42.577760
 20
-8.887992
 30
0.0
 10
42.301668
 20
-8.887922
 30
0.0
  0
LWPOLYLINE
  5
353
100
AcDbEntity
  8
0
 62
7
100
AcDbPolyline
 90
2
 70
0
 10
61.348620
 20
-8.886119
 30
0.0
 10
48.348900
 20
-8.886119
 30
0.0
  0
LWPOLYLINE
  5
354
100
AcDbEntity
  8
0
 62
7
100
AcDbPolyline
 90
2
 70
0
 10
42.801540
 20
-22.386219
 30
0.0
 10
42.801540
 20
-9.386499
 30
0.0
  0
LWPOLYLINE
  5
355
100
AcDbEntity
  8
0
 62
7
100
AcDbPolyline
 90
2
 70
0
 10
29.301440
 20
-22.886599
 30
0.0
 10
42.301160
 20
-22.886599
 30
0.0
  0
LWPOLYLINE
  5
356
100
AcDbEntity
  8
0
 62
7
100
AcDbPolyline
 90
2
 70
0
 10
28.801060
 20
-9.386499
 30
0.0
 10
28.801060
 20
-22.386219
 30
0.0
  0
SPLINE
  5
357
100
AcDbEntity
  8
0
 62
7
100
AcDbSpline
 70
8
 71
3
 72
8
 73
4
 74
0
 40
0
 40
0
 40
0
 40
0
 40
1
 40
1
 40
1
 40
1
 10
23.252760
 20
-22.887920
 30
0.0
 10
23.385368
 20
-22.887920
 30
0.0
 10
23.512545
 20
-22.835241
 30
0.0
 10
23.606313
 20
-22.741473
 30
0.0
  0
SPLINE
  5
358
100
AcDbEntity
  8
0
 62
7
100
AcDbSpline
 70
8
 71
3
 72
8
 73
4
 74
0
 40
0
 40
0
 40
0
 40
0
 40
1
 40
1
 40
1
 40
1
 10
23.606313
 20
-22.741473
 30
0.0
 10
23.700081
 20
-22.647705
 30
0.0
 10
23.752759
 20
-22.520529
 30
0.0
 10
23.752759
 20
-22.387921
 30
0.0
  0
SPLINE
  5
359
100
AcDbEntity
  8
0
 62
7
100
AcDbSpline
 70
8
 71
3
 72
8
 73
4
 74
0
 40
0
 40
0
 40
0
 40
0
 40
1
 40
1
 40
1
 40
1
 10
9.752762
 20
-22.387921
 30
0.0
 10
9.752762
 20
-22.520529
 30
0.0
 10
9.805440
 20
-22.647705
 30
0.0
 10
9.899208
 20
-22.741473
 30
0.0
  0
SPLINE
  5
35a
100
AcDbEntity
  8
0
 62
7
100
AcDbSpline
 70
8
 71
3
 72
8
 73
4
 74
0
 40
0
 40
0
 40
0
 40
0
 40
1
 40
1
 40
1
 40
1
 10
9.899208
 20
-22.741473
 30
0.0
 10
9.992976
 20
-22.835241
 30
0.0
 10
10.120153
 20
-22.887920
 30
0.0
 10
10.252761
 20
-22.887920
 30
0.0
  0
SPLINE
  5
35b
100
AcDbEntity
  8
0
 62
7
100
AcDbSpline
 70
8
 71
3
 72
8
 73
4
 74
0
 40
0
 40
0
 40
0
 40
0
 40
1
 40
1
 40
1
 40
1
 10
10.252761
 20
-8.887922
 30
0.0
 10
10.120153
 20
-8.887922
 30
0.0
 10
9.992976
 20
-8.940601
 30
0.0
 10
9.899208
 20
-9.034369
 30
0.0
  0
SPLINE
  5
35c
100
AcDbEntity
  8
0
 62
7
100
AcDbSpline
 70
8
 71
3
 72
8
 73
4
 74
0
 40
0
 40
0
 40
0
 40
0
 40
1
 40
1
 40
1
 40
1
 10
9.899208
 20
-9.034369
 30
0.0
 10
9.805440
 20
-9.128137
 30
0.0
 10
9.752762
 20
-9.255313
 30
0.0
 10
9.752762
 20
-9.387921
 30
0.0
  0
SPLINE
  5
35d
100
AcDbEntity
  8
0
 62
7
100
AcDbSpline
 70
8
 71
3
 72
8
 73
4
 74
0
 40
0
 40
0
 40
0
 40
0
 40
1
 40
1
 40
1
 40
1
 10
23.752759
 20
-9.387921
 30
0.0
 10
23.752759
 20
-9.255313
 30
0.0
 10
23.700081
 20
-9.128137
 30
0.0
 10
23.606313
 20
-9.034369
 30
0.0
  0
SPLINE
  5
35e
100
AcDbEntity
  8
0
 62
7
100
AcDbSpline
 70
8
 71
3
 72
8
 73
4
 74
0
 40
0
 40
0
 40
0
 40
0
 40
1
 40
1
 40
1
 40
1
 10
23.606313
 20
-9.034369
 30
0.0
 10
23.512545
 20
-8.940601
 30
0.0
 10
23.385368
 20
-8.887922
 30
0.0
 10
23.252760
 20
-8.887922
 30
0.0
  0
LWPOLYLINE
  5
35f
100
AcDbEntity
  8
0
 62
7
100
AcDbPolyline
 90
2
 70
0
 10
42.301160
 20
-8.886119
 30
0.0
 10
29.301440
 20
-8.886119
 30
0.0
  0
LWPOLYLINE
  5
360
100
AcDbEntity
  8
0
 62
7
100
AcDbPolyline
 90
2
 70
0
 10
23.751540
 20
-22.386219
 30
0.0
 10
23.751540
 20
-9.386499
 30
0.0
  0
LWPOLYLINE
  5
361
100
AcDbEntity
  8
0
 62
7
100
AcDbPolyline
 90
2
 70
0
 10
10.251440
 20
-22.886599
 30
0.0
 10
23.251160
 20
-22.886599
 30
0.0
  0
LWPOLYLINE
  5
362
100
AcDbEntity
  8
0
 62
7
100
AcDbPolyline
 90
2
 70
0
 10
9.751060
 20
-9.386499
 30
0.0
 10
9.751060
 20
-22.386219
 30
0.0
  0
LWPOLYLINE
  5
363
100
AcDbEntity
  8
0
 62
7
100
AcDbPolyline
 90
2
 70
0
 10
23.251160
 20
-8.886119
 30
0.0
 10
10.251440
 20
-8.886119
 30
0.0
  0
ENDSEC
  0
SECTION
  2
OBJECTS
  0
DICTIONARY
  5
C
330
0
100
AcDbDictionary
  3
ACAD_GROUP
350
D
  3
ACAD_MLINESTYLE
350
17
  0
DICTIONARY
  5
D
330
C
100
AcDbDictionary
  0
DICTIONARY
  5
1A
330
C
100
AcDbDictionary
  0
DICTIONARY
  5
17
330
C
100
AcDbDictionary
  3
STANDARD
350
18
  0
DICTIONARY
  5
19
330
C
100
AcDbDictionary
  0
ENDSEC
  0
EOF
