0
SECTION
2
HEADER
9
$INSUNITS
70
4
9
$ACADVER
1
AC1014
9
$HANDSEED
5
FFFF
0
ENDSEC
0
SECTION
2
TABLES
0
TABLE
2
VPORT
5
8
100
AcDbSymbolTable
0
ENDTAB
0
TABLE
2
LTYPE
5
5
100
AcDbSymbolTable
0
LTYPE
5
14
100
AcDbSymbolTableRecord
100
AcDbLinetypeTableRecord
2
BYBLOCK
70
0
0
LTYPE
5
15
100
AcDbSymbolTableRecord
100
AcDbLinetypeTableRecord
2
BYLAYER
70
0
0
ENDTAB
0
TABLE
2
LAYER
5
2
100
AcDbSymbolTable
70
2
0
LAYER
5
50
100
AcDbSymbolTableRecord
100
AcDbLayerTableRecord
2
0
70
0
6
CONTINUOUS
0
ENDTAB
0
TABLE
2
STYLE
5
3
100
AcDbSymbolTable
70
1
0
STYLE
5
11
100
AcDbSymbolTableRecord
100
AcDbTextStyleTableRecord
2
STANDARD
70
0
0
ENDTAB
0
TABLE
2
VIEW
5
6
100
AcDbSymbolTable
70
0
0
ENDTAB
0
TABLE
2
UCS
5
7
100
AcDbSymbolTable
70
0
0
ENDTAB
0
TABLE
2
APPID
5
9
100
AcDbSymbolTable
70
2
0
APPID
5
12
100
AcDbSymbolTableRecord
100
AcDbRegAppTableRecord
2
ACAD
70
0
0
ENDTAB
0
TABLE
2
DIMSTYLE
5
A
100
AcDbSymbolTable
70
1
0
ENDTAB
0
TABLE
2
BLOCK_RECORD
5
1
100
AcDbSymbolTable
70
1
0
BLOCK_RECORD
5
1F
100
AcDbSymbolTableRecord
100
AcDbBlockTableRecord
2
*MODEL_SPACE
0
BLOCK_RECORD
5
1B
100
AcDbSymbolTableRecord
100
AcDbBlockTableRecord
2
*PAPER_SPACE
0
ENDTAB
0
ENDSEC
0
SECTION
2
BLOCKS
0
BLOCK
5
20
100
AcDbEntity
100
AcDbBlockBegin
2
*MODEL_SPACE
0
ENDBLK
5
21
100
AcDbEntity
100
AcDbBlockEnd
0
BLOCK
5
1C
100
AcDbEntity
100
AcDbBlockBegin
2
*PAPER_SPACE
0
ENDBLK
5
1D
100
AcDbEntity
100
AcDbBlockEnd
0
ENDSEC
0
SECTION
2
ENTITIES
0
LINE
5
100
100
AcDbEntity
8
0
100
AcDbLine
10
-191.55111790525001
20
9.9015552926310022
30
0
11
-191.05504800827237
21
11.433691002678417
31
0
0
ARC
5
101
100
AcDbEntity
8
0
100
AcDbCircle
10
-189.93718200000001
20
11.071751000000001
30
0
40
1.1749999999999994
210
0
220
-0
230
1
100
AcDbArc
50
90
51
162.05920707703498
0
LINE
5
102
100
AcDbEntity
8
0
100
AcDbLine
10
-189.93718200000001
20
12.246751
30
0
11
-78.34241200000001
21
12.246750991303962
31
0
0
ARC
5
103
100
AcDbEntity
8
0
100
AcDbCircle
10
-78.342411999999996
20
11.071751000000001
30
0
40
1.1749999819389974
210
0
220
-0
230
1
100
AcDbArc
50
17.94079292296464
51
90.000000000000711
0
LINE
5
104
100
AcDbEntity
8
0
100
AcDbLine
10
-77.224545999999748
20
11.433691000000085
30
0
11
-76.728475000000003
21
9.9015550000000001
31
0
0
ARC
5
105
100
AcDbEntity
8
0
100
AcDbCircle
10
-74.040840000000003
20
10.771751
30
0
40
2.8249996409983789
210
0
220
0
230
1
100
AcDbArc
50
197.94079136664217
51
342.05922736663382
0
LINE
5
106
100
AcDbEntity
8
0
100
AcDbLine
10
-71.353204715483557
20
9.901555878742176
30
0
11
-70.857133008273124
21
11.433691002678648
31
0
0
ARC
5
107
100
AcDbEntity
8
0
100
AcDbCircle
10
-69.739266999999998
20
11.071751000000001
30
0
40
1.1749999999999994
210
0
220
-0
230
1
100
AcDbArc
50
90
51
162.05920707703581
0
LINE
5
108
100
AcDbEntity
8
0
100
AcDbLine
10
-69.739266999999998
20
12.246751
30
0
11
-13.120840000000005
21
12.246751
31
0
0
ARC
5
109
100
AcDbEntity
8
0
100
AcDbCircle
10
-13.120840000000001
20
15.496751
30
0
40
3.2499999999999996
210
0
220
0
230
1
100
AcDbArc
50
-90.000000000000057
51
0
0
LINE
5
110
100
AcDbEntity
8
0
100
AcDbLine
10
-9.8708400000000012
20
15.496751
30
0
11
-9.8708399913039635
21
48.870082000000004
31
0
0
ARC
5
111
100
AcDbEntity
8
0
100
AcDbCircle
10
-8.6958400000000005
20
48.870082000000004
30
0
40
1.1749999819389969
210
0
220
0
230
1
100
AcDbArc
50
107.94079292296445
51
180
0
LINE
5
112
100
AcDbEntity
8
0
100
AcDbLine
10
-9.0577800000000845
20
49.987948000000266
30
0
11
-7.5256439999999998
21
50.484019000000011
31
0
0
ARC
5
113
100
AcDbEntity
8
0
100
AcDbCircle
10
-8.3958399999999997
20
53.171654000000004
30
0
40
2.8249996409983789
210
0
220
0
230
1
100
AcDbArc
50
-72.05920863335777
51
72.059227366590108
0
LINE
5
114
100
AcDbEntity
8
0
100
AcDbLine
10
-7.5256448787401204
20
55.859289284515803
30
0
11
-9.0577800026797348
21
56.355359991723546
31
0
0
ARC
5
115
100
AcDbEntity
8
0
100
AcDbCircle
10
-8.6958400000000005
20
57.473226000000004
30
0
40
1.1750000000000005
210
0
220
0
230
1
100
AcDbArc
50
180
51
252.05920707703544
0
LINE
5
116
100
AcDbEntity
8
0
100
AcDbLine
10
-9.8708400000000012
20
57.473226000000004
30
0
11
-9.8708399999999994
21
90.846557000000004
31
0
0
ARC
5
117
100
AcDbEntity
8
0
100
AcDbCircle
10
-13.120840000000001
20
90.846557000000004
30
0
40
3.2500000000000009
210
0
220
0
230
1
100
AcDbArc
50
0
51
90
0
LINE
5
118
100
AcDbEntity
8
0
100
AcDbLine
10
-13.120840000000001
20
94.096557000000004
30
0
11
-69.739266999999998
21
94.096557008696053
31
0
0
ARC
5
119
100
AcDbEntity
8
0
100
AcDbCircle
10
-69.739266999999998
20
95.271557000000001
30
0
40
1.1749999819389987
210
0
220
0
230
1
100
AcDbArc
50
197.9407929229647
51
270
0
LINE
5
120
100
AcDbEntity
8
0
100
AcDbLine
10
-70.85713300000026
20
94.909616999999912
30
0
11
-71.353204000000005
21
96.441753000000006
31
0
0
ARC
5
121
100
AcDbEntity
8
0
100
AcDbCircle
10
-74.040840000000003
20
95.571557000000013
30
0
40
2.8250005923737396
210
0
220
-0
230
1
100
AcDbArc
50
17.940785119192242
51
162.05922111936948
0
LINE
5
122
100
AcDbEntity
8
0
100
AcDbLine
10
-76.728476094750164
20
96.441752707361019
30
0
11
-77.224545991725037
21
94.90961699732074
31
0
0
ARC
5
123
100
AcDbEntity
8
0
100
AcDbCircle
10
-78.342411999999996
20
95.271557000000001
30
0
40
1.1749999999999972
210
0
220
0
230
1
100
AcDbArc
50
270
51
342.05920707703484
0
LINE
5
124
100
AcDbEntity
8
0
100
AcDbLine
10
-78.342411999999996
20
94.096557000000004
30
0
11
-189.93718200000001
21
94.096557008696053
31
0
0
ARC
5
125
100
AcDbEntity
8
0
100
AcDbCircle
10
-189.93718200000001
20
95.271557000000001
30
0
40
1.1749999819390018
210
0
220
0
230
1
100
AcDbArc
50
197.94079292296379
51
270
0
LINE
5
126
100
AcDbEntity
8
0
100
AcDbLine
10
-191.05504800000028
20
94.909616999999926
30
0
11
-191.55111900000003
21
96.441753000000006
31
0
0
ARC
5
127
100
AcDbEntity
8
0
100
AcDbCircle
10
-194.238754
20
95.571557000000013
30
0
40
2.8249996409983695
210
0
220
-0
230
1
100
AcDbArc
50
17.940791366642198
51
162.05922736674475
0
LINE
5
128
100
AcDbEntity
8
0
100
AcDbLine
10
-196.92638928451814
20
96.441752121252634
30
0
11
-197.42246099172274
21
94.909616997319986
31
0
0
ARC
5
129
100
AcDbEntity
8
0
100
AcDbCircle
10
-198.54032700000002
20
95.271557000000001
30
0
40
1.1749999999999972
210
0
220
0
230
1
100
AcDbArc
50
270
51
342.05920707703461
0
LINE
5
130
100
AcDbEntity
8
0
100
AcDbLine
10
-198.54032700000002
20
94.096557000000004
30
0
11
-255.15875399999999
21
94.096557000000004
31
0
0
ARC
5
131
100
AcDbEntity
8
0
100
AcDbCircle
10
-255.15875399999999
20
90.846557000000004
30
0
40
3.2499999999999929
210
0
220
-0
230
1
100
AcDbArc
50
90
51
180
0
LINE
5
132
100
AcDbEntity
8
0
100
AcDbLine
10
-258.40875399999999
20
90.846557000000004
30
0
11
-258.40875400869606
21
57.473226000000004
31
0
0
ARC
5
133
100
AcDbEntity
8
0
100
AcDbCircle
10
-259.583754
20
57.473226000000004
30
0
40
1.1749999819389987
210
0
220
0
230
1
100
AcDbArc
50
-72.059207077036646
51
0
0
LINE
5
134
100
AcDbEntity
8
0
100
AcDbLine
10
-259.22181399999994
20
56.355359999999742
30
0
11
-260.75395000000003
21
55.859288999999997
31
0
0
ARC
5
135
100
AcDbEntity
8
0
100
AcDbCircle
10
-259.88375400000001
20
53.171654000000004
30
0
40
2.8249996409983731
210
0
220
0
230
1
100
AcDbArc
50
107.94079136664261
51
252.05922736680697
0
LINE
5
136
100
AcDbEntity
8
0
100
AcDbLine
10
-260.75394912124972
20
50.484018715480907
30
0
11
-259.22181399732136
21
49.987948008273236
31
0
0
ARC
5
137
100
AcDbEntity
8
0
100
AcDbCircle
10
-259.583754
20
48.870082000000004
30
0
40
1.1749999999999972
210
0
220
0
230
1
100
AcDbArc
50
0
51
72.059207077037883
0
LINE
5
138
100
AcDbEntity
8
0
100
AcDbLine
10
-258.40875400000004
20
48.870082000000004
30
0
11
-258.40875400000004
21
15.496751
31
0
0
ARC
5
139
100
AcDbEntity
8
0
100
AcDbCircle
10
-255.15875399999999
20
15.496751
30
0
40
3.2500000000000284
210
0
220
0
230
1
100
AcDbArc
50
180
51
270
0
LINE
5
140
100
AcDbEntity
8
0
100
AcDbLine
10
-255.15875399999999
20
12.246751
30
0
11
-198.54032700000002
21
12.246750991303962
31
0
0
ARC
5
141
100
AcDbEntity
8
0
100
AcDbCircle
10
-198.54032700000002
20
11.071751000000001
30
0
40
1.1749999819390058
210
0
220
-0
230
1
100
AcDbArc
50
17.940792922964228
51
90
0
LINE
5
142
100
AcDbEntity
8
0
100
AcDbLine
10
-197.42246099999974
20
11.433691000000085
30
0
11
-196.92639
21
9.9015550000000001
31
0
0
ARC
5
143
100
AcDbEntity
8
0
100
AcDbCircle
10
-194.238754
20
10.771751
30
0
40
2.8250005923737409
210
0
220
0
230
1
100
AcDbArc
50
197.94078511919238
51
342.05922111921416
0
LWPOLYLINE
5
144
100
AcDbEntity
8
0
100
AcDbPolyline
90
8
70
1
43
0.0
10
-214.94940000000003
20
69.202300000000008
42
-0.41421356237309503
10
-214.44940000000003
20
69.702299999999994
10
-201.44940000000003
20
69.702300000000008
42
-0.41421356237309503
10
-200.94940000000003
20
69.202300000000008
10
-200.94940000000003
20
56.202300000000001
42
-0.41421356237309503
10
-201.44940000000003
20
55.702300000000008
10
-214.44940000000003
20
55.702299999999994
42
-0.41421356237309503
10
-214.94940000000003
20
56.202300000000001
0
LWPOLYLINE
5
145
100
AcDbEntity
8
0
100
AcDbPolyline
90
8
70
1
43
0.0
10
-182.4006
20
69.702299999999994
10
-195.4006
20
69.702299999999994
42
0.41421356237309503
10
-195.9006
20
69.202300000000008
10
-195.9006
20
56.202300000000001
42
0.41421356237309503
10
-195.4006
20
55.702300000000008
10
-182.4006
20
55.702300000000008
42
0.41421356237309503
10
-181.9006
20
56.202300000000001
10
-181.9006
20
69.202300000000008
42
0.41421356237309503
0
LWPOLYLINE
5
146
100
AcDbEntity
8
0
100
AcDbPolyline
90
8
70
1
43
0.0
10
-176.50239999999999
20
87.751099999999994
10
-182.25239999999999
20
87.751099999999994
42
0.41421356237309503
10
-182.75239999999999
20
87.251099999999994
10
-182.75239999999999
20
74.251100000000008
42
0.41421356237309503
10
-182.25239999999999
20
73.751099999999994
10
-176.50239999999999
20
73.751100000000008
42
0.41421356237309503
10
-176.00239999999999
20
74.251100000000008
10
-176.00239999999999
20
87.251099999999994
42
0.41421356237309503
0
LWPOLYLINE
5
147
100
AcDbEntity
8
0
100
AcDbPolyline
90
8
70
1
43
0.0
10
-167.32740000000004
20
88.251100000000008
42
-0.41421356237309503
10
-166.82740000000001
20
88.751100000000008
10
-153.82740000000001
20
88.751100000000008
42
-0.41421356237309503
10
-153.32740000000001
20
88.251100000000008
10
-153.32740000000001
20
75.251099999999994
42
-0.41421356237309503
10
-153.82740000000001
20
74.751099999999994
10
-166.82740000000001
20
74.751099999999994
42
-0.41421356237309503
10
-167.32740000000004
20
75.251099999999994
0
LWPOLYLINE
5
148
100
AcDbEntity
8
0
100
AcDbPolyline
90
8
70
1
43
0.0
10
-137.9024
20
74.251100000000008
42
-0.41421356237309503
10
-138.4024
20
73.751100000000008
10
-144.1524
20
73.751099999999994
42
-0.41421356237309503
10
-144.6524
20
74.251100000000008
10
-144.6524
20
87.251099999999994
42
-0.41421356237309503
10
-144.1524
20
87.751099999999994
10
-138.4024
20
87.751099999999994
42
-0.41421356237309503
10
-137.9024
20
87.251099999999994
0
LWPOLYLINE
5
149
100
AcDbEntity
8
0
100
AcDbPolyline
90
8
70
1
43
0.0
10
-176.85180000000003
20
69.202300000000008
42
-0.41421356237309503
10
-176.35180000000003
20
69.702299999999994
10
-163.35180000000003
20
69.702300000000008
42
-0.41421356237309503
10
-162.8518
20
69.202300000000008
10
-162.8518
20
56.202300000000001
42
-0.41421356237309503
10
-163.35180000000003
20
55.702300000000008
10
-176.35180000000003
20
55.702299999999994
42
-0.41421356237309503
10
-176.85180000000003
20
56.202300000000001
0
LWPOLYLINE
5
150
100
AcDbEntity
8
0
100
AcDbPolyline
90
8
70
1
43
0.0
10
-157.803
20
69.202300000000008
42
-0.41421356237309503
10
-157.303
20
69.702299999999994
10
-144.303
20
69.702300000000008
42
-0.41421356237309503
10
-143.803
20
69.202300000000008
10
-143.80300000000003
20
56.202300000000001
42
-0.41421356237309503
10
-144.303
20
55.702300000000008
10
-157.303
20
55.702299999999994
42
-0.41421356237309503
10
-157.803
20
56.202300000000001
0
LWPOLYLINE
5
151
100
AcDbEntity
8
0
100
AcDbPolyline
90
8
70
1
43
0.0
10
-72.083399999999997
20
88.251100000000008
10
-72.083399999999997
20
75.251099999999994
42
0.41421356237309503
10
-71.583399999999997
20
74.751099999999994
10
-58.583399999999997
20
74.751099999999994
42
0.41421356237309503
10
-58.083400000000005
20
75.251099999999994
10
-58.083400000000005
20
88.251100000000008
42
0.41421356237309503
10
-58.583399999999997
20
88.751099999999994
10
-71.583399999999997
20
88.751100000000008
42
0.41421356237309503
0
LWPOLYLINE
5
152
100
AcDbEntity
8
0
100
AcDbPolyline
90
8
70
1
43
0.0
10
-81.256
20
87.751099999999994
42
-0.41421356237309503
10
-80.756
20
87.251099999999994
10
-80.756000000000014
20
74.251100000000008
42
-0.41421356237309503
10
-81.256
20
73.751100000000008
10
-87.006
20
73.751099999999994
42
-0.41421356237309503
10
-87.506
20
74.251100000000008
10
-87.506
20
87.251099999999994
42
-0.41421356237309503
10
-87.006
20
87.751099999999994
0
LWPOLYLINE
5
153
100
AcDbEntity
8
0
100
AcDbPolyline
90
8
70
1
43
0.0
10
-96.180999999999997
20
75.251099999999994
10
-96.180999999999997
20
88.251100000000008
42
0.41421356237309503
10
-96.681000000000012
20
88.751099999999994
10
-109.681
20
88.751100000000008
42
0.41421356237309503
10
-110.18100000000001
20
88.251100000000008
10
-110.18100000000001
20
75.251099999999994
42
0.41421356237309503
10
-109.681
20
74.751099999999994
10
-96.681000000000012
20
74.751099999999994
42
0.41421356237309503
0
LWPOLYLINE
5
154
100
AcDbEntity
8
0
100
AcDbPolyline
90
8
70
1
43
0.0
10
-119.20540000000001
20
55.702300000000008
10
-106.2054
20
55.702300000000008
42
0.41421356237309503
10
-105.70540000000001
20
56.202300000000001
10
-105.7054
20
69.202300000000008
42
0.41421356237309503
10
-106.2054
20
69.702299999999994
10
-119.20540000000001
20
69.702299999999994
42
0.41421356237309503
10
-119.7054
20
69.202300000000008
10
-119.70540000000001
20
56.202300000000001
42
0.41421356237309503
0
LWPOLYLINE
5
155
100
AcDbEntity
8
0
100
AcDbPolyline
90
8
70
1
43
0.0
10
-86.656600000000012
20
56.202300000000001
10
-86.656600000000012
20
69.202300000000008
42
0.41421356237309503
10
-87.156599999999997
20
69.702299999999994
10
-100.1566
20
69.702299999999994
42
0.41421356237309503
10
-100.65660000000001
20
69.202300000000008
10
-100.65660000000001
20
56.202300000000001
42
0.41421356237309503
10
-100.1566
20
55.702300000000008
10
-87.156599999999997
20
55.702300000000008
42
0.41421356237309503
0
LWPOLYLINE
5
156
100
AcDbEntity
8
0
100
AcDbPolyline
90
8
70
1
43
0.0
10
-81.107799999999997
20
55.702300000000008
10
-68.107799999999997
20
55.702300000000008
42
0.41421356237309503
10
-67.607799999999997
20
56.202300000000001
10
-67.607799999999997
20
69.202300000000008
42
0.41421356237309503
10
-68.107799999999997
20
69.702299999999994
10
-81.107799999999997
20
69.702299999999994
42
0.41421356237309503
10
-81.607800000000012
20
69.202300000000008
10
-81.607800000000012
20
56.202300000000001
42
0.41421356237309503
0
LWPOLYLINE
5
157
100
AcDbEntity
8
0
100
AcDbPolyline
90
8
70
1
43
0.0
10
-125.60600000000001
20
87.251099999999994
42
-0.41421356237309503
10
-125.10599999999999
20
87.751099999999994
10
-119.35600000000001
20
87.751099999999994
42
-0.41421356237309503
10
-118.85599999999999
20
87.251099999999994
10
-118.85599999999999
20
74.251100000000008
42
-0.41421356237309503
10
-119.35600000000001
20
73.751100000000008
10
-125.10599999999999
20
73.751099999999994
42
-0.41421356237309503
10
-125.60600000000001
20
74.251100000000008
0
LWPOLYLINE
5
158
100
AcDbEntity
8
0
100
AcDbPolyline
90
8
70
1
43
0.0
10
-138.25420000000003
20
55.702299999999994
42
-0.41421356237309503
10
-138.75420000000003
20
56.202300000000001
10
-138.75420000000003
20
69.202300000000008
42
-0.41421356237309503
10
-138.25420000000003
20
69.702299999999994
10
-125.2542
20
69.702300000000008
42
-0.41421356237309503
10
-124.7542
20
69.202300000000008
10
-124.7542
20
56.202300000000001
42
-0.41421356237309503
10
-125.2542
20
55.702300000000008
0
LWPOLYLINE
5
159
100
AcDbEntity
8
0
100
AcDbPolyline
90
8
70
1
43
0.0
10
-204.92500000000004
20
36.653499999999994
42
-0.41421356237309503
10
-205.42500000000004
20
37.153500000000001
10
-205.42500000000004
20
50.153500000000008
42
-0.41421356237309503
10
-204.92500000000004
20
50.653500000000008
10
-191.92500000000001
20
50.653500000000015
42
-0.41421356237309503
10
-191.42500000000001
20
50.153500000000008
10
-191.42500000000001
20
37.153500000000001
42
-0.41421356237309503
10
-191.92500000000001
20
36.653500000000008
0
LWPOLYLINE
5
160
100
AcDbEntity
8
0
100
AcDbPolyline
90
8
70
1
43
0.0
10
-186.37620000000001
20
50.153500000000008
42
-0.41421356237309503
10
-185.87620000000001
20
50.653500000000008
10
-172.87620000000001
20
50.653500000000015
42
-0.41421356237309503
10
-172.37619999999998
20
50.153500000000008
10
-172.37619999999998
20
37.153500000000001
42
-0.41421356237309503
10
-172.87620000000001
20
36.653500000000008
10
-185.87620000000001
20
36.653499999999994
42
-0.41421356237309503
10
-186.37620000000001
20
37.153500000000001
0
LWPOLYLINE
5
161
100
AcDbEntity
8
0
100
AcDbPolyline
90
8
70
1
43
0.0
10
-134.27860000000004
20
37.153500000000001
42
-0.41421356237309503
10
-134.77860000000001
20
36.653500000000008
10
-147.77860000000001
20
36.653499999999994
42
-0.41421356237309503
10
-148.27860000000004
20
37.153500000000001
10
-148.27860000000001
20
50.153500000000008
42
-0.41421356237309503
10
-147.77860000000001
20
50.653500000000008
10
-134.77860000000001
20
50.653500000000015
42
-0.41421356237309503
10
-134.27860000000001
20
50.153500000000008
0
LWPOLYLINE
5
162
100
AcDbEntity
8
0
100
AcDbPolyline
90
8
70
1
43
0.0
10
-167.32740000000004
20
50.153500000000008
10
-167.32740000000004
20
37.153500000000001
42
0.41421356237309503
10
-166.82740000000001
20
36.653500000000001
10
-153.82740000000001
20
36.653500000000008
42
0.41421356237309503
10
-153.32740000000001
20
37.153500000000001
10
-153.32740000000001
20
50.153500000000008
42
0.41421356237309503
10
-153.82740000000001
20
50.653500000000008
10
-166.82740000000001
20
50.653500000000008
42
0.41421356237309503
0
LWPOLYLINE
5
163
100
AcDbEntity
8
0
100
AcDbPolyline
90
8
70
1
43
0.0
10
-110.18100000000001
20
50.153500000000008
10
-110.18100000000001
20
37.153500000000001
42
0.41421356237309503
10
-109.681
20
36.653500000000001
10
-96.681000000000012
20
36.653500000000008
42
0.41421356237309503
10
-96.180999999999997
20
37.153500000000001
10
-96.180999999999997
20
50.153500000000008
42
0.41421356237309503
10
-96.681000000000012
20
50.653500000000008
10
-109.681
20
50.653500000000008
42
0.41421356237309503
0
LWPOLYLINE
5
164
100
AcDbEntity
8
0
100
AcDbPolyline
90
8
70
1
43
0.0
10
-129.22980000000001
20
50.153500000000008
42
-0.41421356237309503
10
-128.72980000000001
20
50.653500000000008
10
-115.72980000000001
20
50.653500000000015
42
-0.41421356237309503
10
-115.22980000000001
20
50.153500000000008
10
-115.22980000000001
20
37.153500000000001
42
-0.41421356237309503
10
-115.72980000000001
20
36.653500000000008
10
-128.72980000000001
20
36.653499999999994
42
-0.41421356237309503
10
-129.22980000000001
20
37.153500000000001
0
LWPOLYLINE
5
165
100
AcDbEntity
8
0
100
AcDbPolyline
90
8
70
1
43
0.0
10
-71.583399999999997
20
36.653500000000001
10
-58.583399999999997
20
36.653500000000001
42
0.41421356237309503
10
-58.083400000000005
20
37.153500000000001
10
-58.083400000000005
20
50.153500000000008
42
0.41421356237309503
10
-58.583399999999997
20
50.653500000000008
10
-71.583399999999997
20
50.653500000000008
42
0.41421356237309503
10
-72.083399999999997
20
50.153500000000008
10
-72.083399999999997
20
37.153500000000001
42
0.41421356237309503
0
LWPOLYLINE
5
166
100
AcDbEntity
8
0
100
AcDbPolyline
90
8
70
1
43
0.0
10
-77.632200000000012
20
50.653500000000008
10
-90.632199999999997
20
50.653500000000008
42
0.41421356237309503
10
-91.132199999999997
20
50.153500000000008
10
-91.132199999999997
20
37.153500000000001
42
0.41421356237309503
10
-90.632199999999997
20
36.653500000000001
10
-77.632200000000012
20
36.653500000000008
42
0.41421356237309503
10
-77.132199999999997
20
37.153500000000001
10
-77.132200000000012
20
50.153500000000008
42
0.41421356237309503
0
LWPOLYLINE
5
167
100
AcDbEntity
8
0
100
AcDbPolyline
90
8
70
1
43
0.0
10
-53.321200000000005
20
18.104700000000001
42
-0.41421356237309503
10
-53.821200000000005
20
17.604700000000001
10
-66.821200000000005
20
17.604700000000005
42
-0.41421356237309503
10
-67.321200000000005
20
18.104700000000001
10
-67.321200000000005
20
31.104700000000001
42
-0.41421356237309503
10
-66.821200000000005
20
31.604700000000001
10
-53.821200000000005
20
31.604700000000001
42
-0.41421356237309503
10
-53.321200000000005
20
31.104700000000001
0
LWPOLYLINE
5
168
100
AcDbEntity
8
0
100
AcDbPolyline
90
8
70
1
43
0.0
10
-85.870000000000019
20
17.604700000000001
10
-72.870000000000005
20
17.604700000000001
42
0.41421356237309503
10
-72.370000000000005
20
18.104700000000001
10
-72.370000000000005
20
31.104700000000001
42
0.41421356237309503
10
-72.870000000000005
20
31.604700000000001
10
-85.870000000000019
20
31.604700000000001
42
0.41421356237309503
10
-86.370000000000005
20
31.104700000000001
10
-86.370000000000019
20
18.104700000000001
42
0.41421356237309503
0
LWPOLYLINE
5
169
100
AcDbEntity
8
0
100
AcDbPolyline
90
8
70
1
43
0.0
10
-124.4676
20
31.104700000000001
10
-124.4676
20
18.104700000000001
42
0.41421356237309503
10
-123.9676
20
17.604700000000001
10
-110.96760000000002
20
17.604700000000001
42
0.41421356237309503
10
-110.4676
20
18.104700000000001
10
-110.4676
20
31.104700000000001
42
0.41421356237309503
10
-110.96760000000002
20
31.604700000000001
10
-123.9676
20
31.604700000000001
42
0.41421356237309503
0
LWPOLYLINE
5
170
100
AcDbEntity
8
0
100
AcDbPolyline
90
8
70
1
43
0.0
10
-104.91880000000002
20
17.604700000000001
10
-91.918800000000005
20
17.604700000000001
42
0.41421356237309503
10
-91.418800000000005
20
18.104700000000001
10
-91.418800000000005
20
31.104700000000001
42
0.41421356237309503
10
-91.918800000000005
20
31.604700000000001
10
-104.91880000000002
20
31.604700000000001
42
0.41421356237309503
10
-105.4188
20
31.104700000000001
10
-105.41880000000003
20
18.104700000000001
42
0.41421356237309503
0
LWPOLYLINE
5
171
100
AcDbEntity
8
0
100
AcDbPolyline
90
8
70
1
43
0.0
10
-167.61400000000003
20
18.104700000000001
42
-0.41421356237309503
10
-168.11400000000003
20
17.604700000000001
10
-181.114
20
17.604699999999994
42
-0.41421356237309503
10
-181.614
20
18.104700000000001
10
-181.614
20
31.104700000000001
42
-0.41421356237309503
10
-181.114
20
31.604700000000001
10
-168.11400000000003
20
31.604700000000008
42
-0.41421356237309503
10
-167.61400000000003
20
31.104700000000001
0
LWPOLYLINE
5
172
100
AcDbEntity
8
0
100
AcDbPolyline
90
8
70
1
43
0.0
10
-162.5652
20
31.104700000000001
42
-0.41421356237309503
10
-162.0652
20
31.604700000000001
10
-149.0652
20
31.604700000000008
42
-0.41421356237309503
10
-148.5652
20
31.104700000000001
10
-148.5652
20
18.104700000000001
42
-0.41421356237309503
10
-149.0652
20
17.604700000000001
10
-162.0652
20
17.604699999999994
42
-0.41421356237309503
10
-162.5652
20
18.104700000000001
0
LWPOLYLINE
5
173
100
AcDbEntity
8
0
100
AcDbPolyline
90
8
70
1
43
0.0
10
-143.0164
20
17.604699999999994
42
-0.41421356237309503
10
-143.5164
20
18.104700000000001
10
-143.5164
20
31.104700000000001
42
-0.41421356237309503
10
-143.0164
20
31.604700000000001
10
-130.01640000000003
20
31.604700000000008
42
-0.41421356237309503
10
-129.5164
20
31.104700000000001
10
-129.5164
20
18.104700000000001
42
-0.41421356237309503
10
-130.01640000000003
20
17.604700000000001
0
LWPOLYLINE
5
174
100
AcDbEntity
8
0
100
AcDbPolyline
90
8
70
1
43
0.0
10
-187.1628
20
31.604700000000008
42
-0.41421356237309503
10
-186.6628
20
31.104700000000001
10
-186.6628
20
18.104700000000001
42
-0.41421356237309503
10
-187.1628
20
17.604700000000001
10
-200.1628
20
17.604699999999994
42
-0.41421356237309503
10
-200.66280000000003
20
18.104700000000001
10
-200.66280000000003
20
31.104700000000001
42
-0.41421356237309503
10
-200.1628
20
31.604700000000001
0
LWPOLYLINE
5
175
100
AcDbEntity
8
0
100
AcDbPolyline
90
8
70
1
43
0.0
10
-225.25995
20
31.604700000000008
42
-0.41421356237309503
10
-224.75995
20
31.104700000000001
10
-224.75995
20
18.104700000000001
42
-0.41421356237309503
10
-225.25995
20
17.604700000000001
10
-254.23495000000003
20
17.604699999999994
42
-0.41421356237309503
10
-254.73495000000003
20
18.104700000000001
10
-254.73495000000003
20
31.104700000000001
42
-0.41421356237309503
10
-254.23495000000003
20
31.604700000000001
0
LWPOLYLINE
5
176
100
AcDbEntity
8
0
100
AcDbPolyline
90
8
70
1
43
0.0
10
-248.28480000000002
20
50.153500000000008
42
-0.41421356237309503
10
-247.78480000000002
20
50.653500000000008
10
-234.78480000000002
20
50.653500000000015
42
-0.41421356237309503
10
-234.28480000000002
20
50.153500000000008
10
-234.28480000000002
20
37.153500000000001
42
-0.41421356237309503
10
-234.78480000000002
20
36.653500000000008
10
-247.78480000000002
20
36.653499999999994
42
-0.41421356237309503
10
-248.28480000000002
20
37.153500000000001
0
LWPOLYLINE
5
177
100
AcDbEntity
8
0
100
AcDbPolyline
90
8
70
1
43
0.0
10
-223.97380000000001
20
36.653499999999994
42
-0.41421356237309503
10
-224.47380000000004
20
37.153500000000001
10
-224.47380000000004
20
50.153500000000008
42
-0.41421356237309503
10
-223.97380000000001
20
50.653500000000008
10
-210.97380000000001
20
50.653500000000015
42
-0.41421356237309503
10
-210.47380000000001
20
50.153500000000008
10
-210.47380000000001
20
37.153500000000001
42
-0.41421356237309503
10
-210.97380000000001
20
36.653500000000008
0
LWPOLYLINE
5
178
100
AcDbEntity
8
0
100
AcDbPolyline
90
8
70
1
43
0.0
10
-219.2116
20
17.604699999999994
42
-0.41421356237309503
10
-219.7116
20
18.104700000000001
10
-219.7116
20
31.104700000000001
42
-0.41421356237309503
10
-219.2116
20
31.604700000000001
10
-206.21160000000003
20
31.604700000000008
42
-0.41421356237309503
10
-205.71160000000003
20
31.104700000000001
10
-205.71160000000003
20
18.104700000000001
42
-0.41421356237309503
10
-206.21160000000003
20
17.604700000000001
0
LWPOLYLINE
5
179
100
AcDbEntity
8
0
100
AcDbPolyline
90
8
70
1
43
0.0
10
-228.73599999999999
20
74.751099999999994
42
-0.41421356237309503
10
-229.23599999999999
20
75.251099999999994
10
-229.23599999999999
20
88.251100000000008
42
-0.41421356237309503
10
-228.73599999999999
20
88.751100000000008
10
-215.73599999999999
20
88.751100000000008
42
-0.41421356237309503
10
-215.23599999999999
20
88.251100000000008
10
-215.23599999999999
20
75.251099999999994
42
-0.41421356237309503
10
-215.73599999999999
20
74.751099999999994
0
LWPOLYLINE
5
180
100
AcDbEntity
8
0
100
AcDbPolyline
90
8
70
1
43
0.0
10
-250.16590000000002
20
74.751099999999994
10
-237.16589999999999
20
74.751099999999994
42
0.41421356237309503
10
-236.66589999999999
20
75.251099999999994
10
-236.66589999999999
20
88.251100000000008
42
0.41421356237309503
10
-237.16589999999999
20
88.751099999999994
10
-250.16590000000002
20
88.751100000000008
42
0.41421356237309503
10
-250.66590000000002
20
88.251100000000008
10
-250.66590000000002
20
75.251099999999994
42
0.41421356237309503
0
LWPOLYLINE
5
181
100
AcDbEntity
8
0
100
AcDbPolyline
90
8
70
1
43
0.0
10
-220.4982
20
69.702300000000008
42
-0.41421356237309503
10
-219.9982
20
69.202300000000008
10
-219.9982
20
56.202300000000001
42
-0.41421356237309503
10
-220.4982
20
55.702300000000008
10
-233.4982
20
55.702299999999994
42
-0.41421356237309503
10
-233.99820000000003
20
56.202300000000001
10
-233.99820000000003
20
69.202300000000008
42
-0.41421356237309503
10
-233.4982
20
69.702299999999994
0
LWPOLYLINE
5
182
100
AcDbEntity
8
0
100
AcDbPolyline
90
8
70
1
43
0.0
10
-252.547
20
55.702299999999994
42
-0.41421356237309503
10
-253.047
20
56.202300000000001
10
-253.047
20
69.202300000000008
42
-0.41421356237309503
10
-252.547
20
69.702299999999994
10
-239.54700000000003
20
69.702300000000008
42
-0.41421356237309503
10
-239.04700000000003
20
69.202300000000008
10
-239.04700000000003
20
56.202300000000001
42
-0.41421356237309503
10
-239.54700000000003
20
55.702300000000008
0
LWPOLYLINE
5
183
100
AcDbEntity
8
0
100
AcDbPolyline
90
8
70
1
43
0.0
10
-207.30609999999999
20
74.751099999999994
10
-194.30610000000001
20
74.751099999999994
42
0.41421356237309503
10
-193.80610000000001
20
75.251099999999994
10
-193.80610000000001
20
88.251100000000008
42
0.41421356237309503
10
-194.30610000000001
20
88.751099999999994
10
-207.30609999999999
20
88.751100000000008
42
0.41421356237309503
10
-207.80609999999999
20
88.251100000000008
10
-207.80609999999999
20
75.251099999999994
42
0.41421356237309503
0
LWPOLYLINE
5
184
100
AcDbEntity
8
0
100
AcDbPolyline
90
8
70
1
43
0.0
10
-15.723599999999999
20
88.751099999999994
10
-28.723600000000005
20
88.751099999999994
42
0.41421356237309503
10
-29.223600000000005
20
88.251100000000008
10
-29.223600000000005
20
75.251099999999994
42
0.41421356237309503
10
-28.723600000000005
20
74.751099999999994
10
-15.723599999999999
20
74.751099999999994
42
0.41421356237309503
10
-15.223599999999999
20
75.251099999999994
10
-15.223599999999999
20
88.251100000000008
42
0.41421356237309503
0
LWPOLYLINE
5
185
100
AcDbEntity
8
0
100
AcDbPolyline
90
8
70
1
43
0.0
10
-22.366900000000001
20
56.202300000000001
10
-22.366900000000001
20
69.202300000000008
42
0.41421356237309503
10
-22.866900000000001
20
69.702299999999994
10
-35.866900000000001
20
69.702299999999994
42
0.41421356237309503
10
-36.366900000000001
20
69.202300000000008
10
-36.366900000000001
20
56.202300000000001
42
0.41421356237309503
10
-35.866900000000001
20
55.702300000000008
10
-22.866900000000001
20
55.702300000000008
42
0.41421356237309503
0
LWPOLYLINE
5
186
100
AcDbEntity
8
0
100
AcDbPolyline
90
8
70
1
43
0.0
10
-50.153500000000008
20
74.751099999999994
42
-0.41421356237309503
10
-50.653500000000008
20
75.251099999999994
10
-50.653500000000015
20
88.251100000000008
42
-0.41421356237309503
10
-50.153500000000008
20
88.751100000000008
10
-37.153500000000001
20
88.751099999999994
42
-0.41421356237309503
10
-36.653500000000008
20
88.251100000000008
10
-36.653500000000008
20
75.251099999999994
42
-0.41421356237309503
10
-37.153500000000001
20
74.751099999999994
0
LWPOLYLINE
5
187
100
AcDbEntity
8
0
100
AcDbPolyline
90
8
70
1
43
0.0
10
-15.723599999999999
20
31.604700000000001
42
-0.41421356237309503
10
-15.223599999999999
20
31.104700000000001
10
-15.223599999999999
20
18.104700000000001
42
-0.41421356237309503
10
-15.723599999999999
20
17.604700000000001
10
-28.723600000000005
20
17.604700000000005
42
-0.41421356237309503
10
-29.223600000000005
20
18.104700000000001
10
-29.223600000000005
20
31.104700000000001
42
-0.41421356237309503
10
-28.723600000000005
20
31.604700000000001
0
LWPOLYLINE
5
188
100
AcDbEntity
8
0
100
AcDbPolyline
90
8
70
1
43
0.0
10
-17.604700000000001
20
37.153500000000001
10
-17.604700000000001
20
50.153500000000008
42
0.41421356237309503
10
-18.104700000000001
20
50.653500000000008
10
-31.104700000000001
20
50.653500000000008
42
0.41421356237309503
10
-31.604700000000001
20
50.153500000000008
10
-31.604700000000001
20
37.153500000000001
42
0.41421356237309503
10
-31.104700000000001
20
36.653500000000001
10
-18.104700000000001
20
36.653500000000008
42
0.41421356237309503
0
LWPOLYLINE
5
189
100
AcDbEntity
8
0
100
AcDbPolyline
90
8
70
1
43
0.0
10
-48.272399999999998
20
31.104700000000001
42
-0.41421356237309503
10
-47.772399999999998
20
31.604700000000001
10
-34.772400000000005
20
31.604700000000001
42
-0.41421356237309503
10
-34.272400000000005
20
31.104700000000001
10
-34.272400000000005
20
18.104700000000001
42
-0.41421356237309503
10
-34.772400000000005
20
17.604700000000001
10
-47.772399999999998
20
17.604700000000005
42
-0.41421356237309503
10
-48.272399999999998
20
18.104700000000001
0
LWPOLYLINE
5
190
100
AcDbEntity
8
0
100
AcDbPolyline
90
8
70
1
43
0.0
10
-39.534599999999998
20
50.653500000000008
42
-0.41421356237309503
10
-39.034599999999998
20
50.153500000000008
10
-39.034599999999998
20
37.153500000000001
42
-0.41421356237309503
10
-39.534599999999998
20
36.653500000000008
10
-52.534600000000005
20
36.653500000000008
42
-0.41421356237309503
10
-53.034600000000005
20
37.153500000000001
10
-53.034600000000005
20
50.153500000000008
42
-0.41421356237309503
10
-52.534600000000005
20
50.653500000000008
0
LWPOLYLINE
5
191
100
AcDbEntity
8
0
100
AcDbPolyline
90
8
70
1
43
0.0
10
-62.058999999999997
20
55.702300000000008
42
-0.41421356237309503
10
-62.558999999999997
20
56.202300000000001
10
-62.558999999999997
20
69.202300000000008
42
-0.41421356237309503
10
-62.058999999999997
20
69.702299999999994
10
-49.058999999999997
20
69.702299999999994
42
-0.41421356237309503
10
-48.558999999999997
20
69.202300000000008
10
-48.558999999999997
20
56.202300000000001
42
-0.41421356237309503
10
-49.058999999999997
20
55.702300000000008
0
CIRCLE
5
192
100
AcDbEntity
8
0
100
AcDbCircle
10
-74.040840000000003
20
96.071556999999999
30
0
40
1
210
0
220
0
230
1
0
CIRCLE
5
193
100
AcDbEntity
8
0
100
AcDbCircle
10
-194.238754
20
96.071556999999999
30
0
40
1
210
0
220
0
230
1
0
CIRCLE
5
194
100
AcDbEntity
8
0
100
AcDbCircle
10
-74.040840000000003
20
10.271751
30
0
40
1
210
0
220
0
230
1
0
CIRCLE
5
195
100
AcDbEntity
8
0
100
AcDbCircle
10
-194.238754
20
10.271751
30
0
40
1
210
0
220
0
230
1
0
CIRCLE
5
196
100
AcDbEntity
8
0
100
AcDbCircle
10
-7.8958400000000006
20
53.171654000000004
30
0
40
1
210
0
220
0
230
1
0
CIRCLE
5
197
100
AcDbEntity
8
0
100
AcDbCircle
10
-260.38375400000001
20
53.171654000000004
30
0
40
1
210
0
220
0
230
1
0
ENDSEC
0
SECTION
2
OBJECTS
0
DICTIONARY
5
C
100
AcDbDictionary
3
ACAD_GROUP
350
D
3
ACAD_MLINESTYLE
350
17
0
DICTIONARY
5
D
100
AcDbDictionary
0
DICTIONARY
5
1A
330
C
100
AcDbDictionary
0
DICTIONARY
5
17
100
AcDbDictionary
0
ENDSEC
0
EOF
