  0
SECTION
  2
HEADER
  9
$ACADVER
  1
AC1014
  9
$HANDSEED
  5
FFFF
  9
$MEASUREMENT
 70
     1
  0
ENDSEC
  0
SECTION
  2
TABLES
  0
TABLE
  2
VPORT
  5
8
330
0
100
AcDbSymbolTable
 70
     4
  0
VPORT
  5
2E
330
8
100
AcDbSymbolTableRecord
100
AcDbViewportTableRecord
  2
*ACTIVE
 70
     0
 10
0.0
 20
0.0
 11
1.0
 21
1.0
 12
210.0
 22
148.5
 13
0.0
 23
0.0
 14
10.0
 24
10.0
 15
10.0
 25
10.0
 16
0.0
 26
0.0
 36
1.0
 17
0.0
 27
0.0
 37
0.0
 40
341.0
 41
1.24
 42
50.0
 43
0.0
 44
0.0
 50
0.0
 51
0.0
 71
     0
 72
   100
 73
     1
 74
     3
 75
     0
 76
     0
 77
     0
 78
     0
  0
ENDTAB
  0
TABLE
  2
LTYPE
  5
5
330
0
100
AcDbSymbolTable
 70
     1
  0
LTYPE
  5
14
330
5
100
AcDbSymbolTableRecord
100
AcDbLinetypeTableRecord
  2
BYBLOCK
 70
     0
  3

 72
    65
 73
     0
 40
0.0
  0
LTYPE
  5
15
330
5
100
AcDbSymbolTableRecord
100
AcDbLinetypeTableRecord
  2
BYLAYER
 70
     0
  3

 72
    65
 73
     0
 40
0.0
  0
LTYPE
  5
16
330
5
100
AcDbSymbolTableRecord
100
AcDbLinetypeTableRecord
  2
CONTINUOUS
 70
     0
  3
Solid line
 72
    65
 73
     0
 40
0.0
  0
ENDTAB
  0
TABLE
  2
LAYER
  5
2
100
AcDbSymbolTable
 70
1
  0
LAYER
  5
50
100
AcDbSymbolTableRecord
100
AcDbLayerTableRecord
  2
0
 70
0
  6
CONTINUOUS
  0
ENDTAB
  0
TABLE
  2
STYLE
  5
3
330
0
100
AcDbSymbolTable
 70
     1
  0
STYLE
  5
11
330
3
100
AcDbSymbolTableRecord
100
AcDbTextStyleTableRecord
  2
STANDARD
 70
     0
 40
0.0
 41
1.0
 50
0.0
 71
     0
 42
2.5
  3
txt
  4

  0
ENDTAB
  0
TABLE
  2
VIEW
  5
6
330
0
100
AcDbSymbolTable
 70
     0
  0
ENDTAB
  0
TABLE
  2
UCS
  5
7
330
0
100
AcDbSymbolTable
 70
     0
  0
ENDTAB
  0
TABLE
  2
APPID
  5
9
330
0
100
AcDbSymbolTable
 70
     2
  0
APPID
  5
12
330
9
100
AcDbSymbolTableRecord
100
AcDbRegAppTableRecord
  2
ACAD
 70
     0
  0
ENDTAB
  0
TABLE
  2
DIMSTYLE
  5
A
330
0
100
AcDbSymbolTable
 70
     1
  0
DIMSTYLE
105
27
330
A
100
AcDbSymbolTableRecord
100
AcDbDimStyleTableRecord
  2
ISO-25
 70
     0
  3

  4

  5

  6

  7

 40
1.0
 41
2.5
 42
0.625
 43
3.75
 44
1.25
 45
0.0
 46
0.0
 47
0.0
 48
0.0
140
2.5
141
2.5
142
0.0
143
0.03937007874016
144
1.0
145
0.0
146
1.0
147
0.625
 71
     0
 72
     0
 73
     0
 74
     0
 75
     0
 76
     0
 77
     1
 78
     8
170
     0
171
     3
172
     1
173
     0
174
     0
175
     0
176
     0
177
     0
178
     0
270
     2
271
     2
272
     2
273
     2
274
     3
340
11
275
     0
280
     0
281
     0
282
     0
283
     0
284
     8
285
     0
286
     0
287
     3
288
     0
  0
ENDTAB
  0
TABLE
  2
BLOCK_RECORD
  5
1
330
0
100
AcDbSymbolTable
 70
     1
  0
BLOCK_RECORD
  5
1F
330
1
100
AcDbSymbolTableRecord
100
AcDbBlockTableRecord
  2
*MODEL_SPACE
  0
BLOCK_RECORD
  5
1B
330
1
100
AcDbSymbolTableRecord
100
AcDbBlockTableRecord
  2
*PAPER_SPACE
  0
ENDTAB
  0
ENDSEC
  0
SECTION
  2
BLOCKS
  0
BLOCK
  5
20
330
1F
100
AcDbEntity
  8
0
100
AcDbBlockBegin
  2
*MODEL_SPACE
 70
     0
 10
0.0
 20
0.0
 30
0.0
  3
*MODEL_SPACE
  1

  0
ENDBLK
  5
21
330
1F
100
AcDbEntity
  8
0
100
AcDbBlockEnd
  0
BLOCK
  5
1C
330
1B
100
AcDbEntity
 67
     1
  8
0
100
AcDbBlockBegin
  2
*PAPER_SPACE
  1

  0
ENDBLK
  5
1D
330
1B
100
AcDbEntity
 67
     1
  8
0
100
AcDbBlockEnd
  0
ENDSEC
  0
SECTION
  2
ENTITIES
  0
SPLINE
  5
100
100
AcDbEntity
  8
0
 62
7
100
AcDbSpline
 70
8
 71
3
 72
8
 73
4
 74
0
 40
0
 40
0
 40
0
 40
0
 40
1
 40
1
 40
1
 40
1
 10
0.502986
 20
-80.555480
 30
0.0
 10
1.088353
 20
-80.439551
 30
0.0
 10
1.510147
 20
-79.926030
 30
0.0
 10
1.510146
 20
-79.329294
 30
0.0
  0
SPLINE
  5
101
100
AcDbEntity
  8
0
 62
7
100
AcDbSpline
 70
8
 71
3
 72
8
 73
4
 74
0
 40
0
 40
0
 40
0
 40
0
 40
1
 40
1
 40
1
 40
1
 10
1.510146
 20
-79.329294
 30
0.0
 10
1.510146
 20
-78.732559
 30
0.0
 10
1.088350
 20
-78.219038
 30
0.0
 10
0.502984
 20
-78.103110
 30
0.0
  0
SPLINE
  5
102
100
AcDbEntity
  8
0
 62
7
100
AcDbSpline
 70
8
 71
3
 72
8
 73
4
 74
0
 40
0
 40
0
 40
0
 40
0
 40
1
 40
1
 40
1
 40
1
 10
250.905518
 20
-78.103110
 30
0.0
 10
250.320151
 20
-78.219038
 30
0.0
 10
249.898356
 20
-78.732560
 30
0.0
 10
249.898356
 20
-79.329295
 30
0.0
  0
SPLINE
  5
103
100
AcDbEntity
  8
0
 62
7
100
AcDbSpline
 70
8
 71
3
 72
8
 73
4
 74
0
 40
0
 40
0
 40
0
 40
0
 40
1
 40
1
 40
1
 40
1
 10
249.898356
 20
-79.329295
 30
0.0
 10
249.898356
 20
-79.926031
 30
0.0
 10
250.320151
 20
-80.439552
 30
0.0
 10
250.905518
 20
-80.555480
 30
0.0
  0
SPLINE
  5
104
100
AcDbEntity
  8
0
 62
7
100
AcDbSpline
 70
8
 71
3
 72
8
 73
4
 74
0
 40
0
 40
0
 40
0
 40
0
 40
1
 40
1
 40
1
 40
1
 10
2.760447
 20
-76.654294
 30
0.0
 10
3.588822
 20
-76.654293
 30
0.0
 10
4.260372
 20
-75.982800
 30
0.0
 10
4.260444
 20
-75.154424
 30
0.0
  0
SPLINE
  5
105
100
AcDbEntity
  8
0
 62
7
100
AcDbSpline
 70
8
 71
3
 72
8
 73
4
 74
0
 40
0
 40
0
 40
0
 40
0
 40
1
 40
1
 40
1
 40
1
 10
251.115322
 20
-81.440670
 30
0.0
 10
251.269882
 20
-81.320488
 30
0.0
 10
251.340075
 20
-81.121153
 30
0.0
 10
251.294921
 20
-80.930644
 30
0.0
  0
SPLINE
  5
106
100
AcDbEntity
  8
0
 62
7
100
AcDbSpline
 70
8
 71
3
 72
8
 73
4
 74
0
 40
0
 40
0
 40
0
 40
0
 40
1
 40
1
 40
1
 40
1
 10
251.294921
 20
-80.930644
 30
0.0
 10
251.249768
 20
-80.740135
 30
0.0
 10
251.097576
 20
-80.593509
 30
0.0
 10
250.905518
 20
-80.555480
 30
0.0
  0
SPLINE
  5
107
100
AcDbEntity
  8
0
 62
7
100
AcDbSpline
 70
8
 71
3
 72
8
 73
4
 74
0
 40
0
 40
0
 40
0
 40
0
 40
1
 40
1
 40
1
 40
1
 10
0.502986
 20
-80.555480
 30
0.0
 10
0.310899
 20
-80.593456
 30
0.0
 10
0.158656
 20
-80.740061
 30
0.0
 10
0.113461
 20
-80.930579
 30
0.0
  0
SPLINE
  5
108
100
AcDbEntity
  8
0
 62
7
100
AcDbSpline
 70
8
 71
3
 72
8
 73
4
 74
0
 40
0
 40
0
 40
0
 40
0
 40
1
 40
1
 40
1
 40
1
 10
0.113461
 20
-80.930579
 30
0.0
 10
0.068266
 20
-81.121097
 30
0.0
 10
0.138439
 20
-81.320462
 30
0.0
 10
0.293002
 20
-81.440670
 30
0.0
  0
SPLINE
  5
109
100
AcDbEntity
  8
0
 62
7
100
AcDbSpline
 70
8
 71
3
 72
8
 73
4
 74
0
 40
0
 40
0
 40
0
 40
0
 40
1
 40
1
 40
1
 40
1
 10
1.935450
 20
-76.654294
 30
0.0
 10
1.340524
 20
-76.654300
 30
0.0
 10
0.762576
 20
-76.852630
 30
0.0
 10
0.293002
 20
-77.217920
 30
0.0
  0
SPLINE
  5
10a
100
AcDbEntity
  8
0
 62
7
100
AcDbSpline
 70
8
 71
3
 72
8
 73
4
 74
0
 40
0
 40
0
 40
0
 40
0
 40
1
 40
1
 40
1
 40
1
 10
0.502986
 20
-9.705584
 30
0.0
 10
1.088473
 20
-9.589759
 30
0.0
 10
1.510404
 20
-9.076182
 30
0.0
 10
1.510404
 20
-8.479348
 30
0.0
  0
SPLINE
  5
10b
100
AcDbEntity
  8
0
 62
7
100
AcDbSpline
 70
8
 71
3
 72
8
 73
4
 74
0
 40
0
 40
0
 40
0
 40
0
 40
1
 40
1
 40
1
 40
1
 10
1.510404
 20
-8.479348
 30
0.0
 10
1.510404
 20
-7.882514
 30
0.0
 10
1.088473
 20
-7.368937
 30
0.0
 10
0.502986
 20
-7.253112
 30
0.0
  0
SPLINE
  5
10c
100
AcDbEntity
  8
0
 62
7
100
AcDbSpline
 70
8
 71
3
 72
8
 73
4
 74
0
 40
0
 40
0
 40
0
 40
0
 40
1
 40
1
 40
1
 40
1
 10
247.147842
 20
-75.154424
 30
0.0
 10
247.147914
 20
-75.982849
 30
0.0
 10
247.819541
 20
-76.654363
 30
0.0
 10
248.647966
 20
-76.654294
 30
0.0
  0
SPLINE
  5
10d
100
AcDbEntity
  8
0
 62
7
100
AcDbSpline
 70
8
 71
3
 72
8
 73
4
 74
0
 40
0
 40
0
 40
0
 40
0
 40
1
 40
1
 40
1
 40
1
 10
250.905518
 20
-78.103110
 30
0.0
 10
251.097576
 20
-78.065082
 30
0.0
 10
251.249768
 20
-77.918456
 30
0.0
 10
251.294921
 20
-77.727947
 30
0.0
  0
SPLINE
  5
10e
100
AcDbEntity
  8
0
 62
7
100
AcDbSpline
 70
8
 71
3
 72
8
 73
4
 74
0
 40
0
 40
0
 40
0
 40
0
 40
1
 40
1
 40
1
 40
1
 10
251.294921
 20
-77.727947
 30
0.0
 10
251.340075
 20
-77.537438
 30
0.0
 10
251.269882
 20
-77.338103
 30
0.0
 10
251.115322
 20
-77.217920
 30
0.0
  0
SPLINE
  5
10f
100
AcDbEntity
  8
0
 62
7
100
AcDbSpline
 70
8
 71
3
 72
8
 73
4
 74
0
 40
0
 40
0
 40
0
 40
0
 40
1
 40
1
 40
1
 40
1
 10
249.472958
 20
-11.154349
 30
0.0
 10
250.067852
 20
-11.154331
 30
0.0
 10
250.645767
 20
-10.956012
 30
0.0
 10
251.115322
 20
-10.590748
 30
0.0
  0
LWPOLYLINE
  5
110
100
AcDbEntity
  8
0
 62
7
100
AcDbPolyline
 90
2
 70
0
 10
247.147080
 20
-75.152646
 30
0.0
 10
247.147080
 20
-12.653406
 30
0.0
  0
SPLINE
  5
111
100
AcDbEntity
  8
0
 62
7
100
AcDbSpline
 70
8
 71
3
 72
8
 73
4
 74
0
 40
0
 40
0
 40
0
 40
0
 40
1
 40
1
 40
1
 40
1
 10
249.472958
 20
-82.004296
 30
0.0
 10
250.067855
 20
-82.004271
 30
0.0
 10
250.645770
 20
-81.805943
 30
0.0
 10
251.115322
 20
-81.440670
 30
0.0
  0
LWPOLYLINE
  5
112
100
AcDbEntity
  8
0
 62
7
100
AcDbPolyline
 90
2
 70
0
 10
2.758440
 20
-76.653786
 30
0.0
 10
1.932940
 20
-76.653786
 30
0.0
  0
SPLINE
  5
113
100
AcDbEntity
  8
0
 62
7
100
AcDbSpline
 70
8
 71
3
 72
8
 73
4
 74
0
 40
0
 40
0
 40
0
 40
0
 40
1
 40
1
 40
1
 40
1
 10
248.647966
 20
-11.154349
 30
0.0
 10
248.250120
 20
-11.154316
 30
0.0
 10
247.868558
 20
-11.312336
 30
0.0
 10
247.587227
 20
-11.593644
 30
0.0
  0
SPLINE
  5
114
100
AcDbEntity
  8
0
 62
7
100
AcDbSpline
 70
8
 71
3
 72
8
 73
4
 74
0
 40
0
 40
0
 40
0
 40
0
 40
1
 40
1
 40
1
 40
1
 10
247.587227
 20
-11.593644
 30
0.0
 10
247.305895
 20
-11.874951
 30
0.0
 10
247.147843
 20
-12.256500
 30
0.0
 10
247.147842
 20
-12.654346
 30
0.0
  0
SPLINE
  5
115
100
AcDbEntity
  8
0
 62
7
100
AcDbSpline
 70
8
 71
3
 72
8
 73
4
 74
0
 40
0
 40
0
 40
0
 40
0
 40
1
 40
1
 40
1
 40
1
 10
0.293002
 20
-77.217920
 30
0.0
 10
0.138439
 20
-77.338128
 30
0.0
 10
0.068266
 20
-77.537494
 30
0.0
 10
0.113461
 20
-77.728012
 30
0.0
  0
SPLINE
  5
116
100
AcDbEntity
  8
0
 62
7
100
AcDbSpline
 70
8
 71
3
 72
8
 73
4
 74
0
 40
0
 40
0
 40
0
 40
0
 40
1
 40
1
 40
1
 40
1
 10
0.113461
 20
-77.728012
 30
0.0
 10
0.158656
 20
-77.918530
 30
0.0
 10
0.310899
 20
-78.065135
 30
0.0
 10
0.502986
 20
-78.103110
 30
0.0
  0
SPLINE
  5
117
100
AcDbEntity
  8
0
 62
7
100
AcDbSpline
 70
8
 71
3
 72
8
 73
4
 74
0
 40
0
 40
0
 40
0
 40
0
 40
1
 40
1
 40
1
 40
1
 10
0.293002
 20
-81.440670
 30
0.0
 10
0.762575
 20
-81.805960
 30
0.0
 10
1.340522
 20
-82.004290
 30
0.0
 10
1.935447
 20
-82.004296
 30
0.0
  0
SPLINE
  5
118
100
AcDbEntity
  8
0
 62
7
100
AcDbSpline
 70
8
 71
3
 72
8
 73
4
 74
0
 40
0
 40
0
 40
0
 40
0
 40
1
 40
1
 40
1
 40
1
 10
250.905518
 20
-7.253112
 30
0.0
 10
250.320031
 20
-7.368937
 30
0.0
 10
249.898100
 20
-7.882514
 30
0.0
 10
249.898100
 20
-8.479348
 30
0.0
  0
SPLINE
  5
119
100
AcDbEntity
  8
0
 62
7
100
AcDbSpline
 70
8
 71
3
 72
8
 73
4
 74
0
 40
0
 40
0
 40
0
 40
0
 40
1
 40
1
 40
1
 40
1
 10
249.898100
 20
-8.479348
 30
0.0
 10
249.898100
 20
-9.076182
 30
0.0
 10
250.320031
 20
-9.589759
 30
0.0
 10
250.905518
 20
-9.705584
 30
0.0
  0
SPLINE
  5
11a
100
AcDbEntity
  8
0
 62
7
100
AcDbSpline
 70
8
 71
3
 72
8
 73
4
 74
0
 40
0
 40
0
 40
0
 40
0
 40
1
 40
1
 40
1
 40
1
 10
251.115322
 20
-10.590748
 30
0.0
 10
251.269865
 20
-10.470562
 30
0.0
 10
251.340047
 20
-10.271238
 30
0.0
 10
251.294895
 20
-10.080739
 30
0.0
  0
SPLINE
  5
11b
100
AcDbEntity
  8
0
 62
7
100
AcDbSpline
 70
8
 71
3
 72
8
 73
4
 74
0
 40
0
 40
0
 40
0
 40
0
 40
1
 40
1
 40
1
 40
1
 10
251.294895
 20
-10.080739
 30
0.0
 10
251.249742
 20
-9.890241
 30
0.0
 10
251.097564
 20
-9.743620
 30
0.0
 10
250.905518
 20
-9.705584
 30
0.0
  0
LWPOLYLINE
  5
11c
100
AcDbEntity
  8
0
 62
7
100
AcDbPolyline
 90
2
 70
0
 10
248.645680
 20
-11.152266
 30
0.0
 10
249.471180
 20
-11.152266
 30
0.0
  0
SPLINE
  5
11d
100
AcDbEntity
  8
0
 62
7
100
AcDbSpline
 70
8
 71
3
 72
8
 73
4
 74
0
 40
0
 40
0
 40
0
 40
0
 40
1
 40
1
 40
1
 40
1
 10
0.293002
 20
-10.590748
 30
0.0
 10
0.762579
 20
-10.956029
 30
0.0
 10
1.340527
 20
-11.154350
 30
0.0
 10
1.935450
 20
-11.154349
 30
0.0
  0
SPLINE
  5
11e
100
AcDbEntity
  8
0
 62
7
100
AcDbSpline
 70
8
 71
3
 72
8
 73
4
 74
0
 40
0
 40
0
 40
0
 40
0
 40
1
 40
1
 40
1
 40
1
 10
0.502986
 20
-9.705584
 30
0.0
 10
0.310911
 20
-9.743568
 30
0.0
 10
0.158681
 20
-9.890167
 30
0.0
 10
0.113488
 20
-10.080674
 30
0.0
  0
SPLINE
  5
11f
100
AcDbEntity
  8
0
 62
7
100
AcDbSpline
 70
8
 71
3
 72
8
 73
4
 74
0
 40
0
 40
0
 40
0
 40
0
 40
1
 40
1
 40
1
 40
1
 10
0.113488
 20
-10.080674
 30
0.0
 10
0.068295
 20
-10.271181
 30
0.0
 10
0.138455
 20
-10.470537
 30
0.0
 10
0.293002
 20
-10.590748
 30
0.0
  0
SPLINE
  5
120
100
AcDbEntity
  8
0
 62
7
100
AcDbSpline
 70
8
 71
3
 72
8
 73
4
 74
0
 40
0
 40
0
 40
0
 40
0
 40
1
 40
1
 40
1
 40
1
 10
0.293002
 20
-6.367948
 30
0.0
 10
0.138455
 20
-6.488159
 30
0.0
 10
0.068295
 20
-6.687515
 30
0.0
 10
0.113488
 20
-6.878022
 30
0.0
  0
SPLINE
  5
121
100
AcDbEntity
  8
0
 62
7
100
AcDbSpline
 70
8
 71
3
 72
8
 73
4
 74
0
 40
0
 40
0
 40
0
 40
0
 40
1
 40
1
 40
1
 40
1
 10
0.113488
 20
-6.878022
 30
0.0
 10
0.158681
 20
-7.068529
 30
0.0
 10
0.310911
 20
-7.215128
 30
0.0
 10
0.502986
 20
-7.253112
 30
0.0
  0
LWPOLYLINE
  5
122
100
AcDbEntity
  8
0
 62
7
100
AcDbPolyline
 90
2
 70
0
 10
249.471180
 20
-76.653786
 30
0.0
 10
248.645680
 20
-76.653786
 30
0.0
  0
LWPOLYLINE
  5
123
100
AcDbEntity
  8
0
 62
7
100
AcDbPolyline
 90
2
 70
0
 10
1.932940
 20
-82.003026
 30
0.0
 10
249.471180
 20
-82.003026
 30
0.0
  0
LWPOLYLINE
  5
124
100
AcDbEntity
  8
0
 62
7
100
AcDbPolyline
 90
2
 70
0
 10
1.932940
 20
-11.152266
 30
0.0
 10
2.758440
 20
-11.152266
 30
0.0
  0
SPLINE
  5
125
100
AcDbEntity
  8
0
 62
7
100
AcDbSpline
 70
8
 71
3
 72
8
 73
4
 74
0
 40
0
 40
0
 40
0
 40
0
 40
1
 40
1
 40
1
 40
1
 10
4.260444
 20
-12.654346
 30
0.0
 10
4.260442
 20
-11.825921
 30
0.0
 10
3.588871
 20
-11.154350
 30
0.0
 10
2.760447
 20
-11.154349
 30
0.0
  0
SPLINE
  5
126
100
AcDbEntity
  8
0
 62
7
100
AcDbSpline
 70
8
 71
3
 72
8
 73
4
 74
0
 40
0
 40
0
 40
0
 40
0
 40
1
 40
1
 40
1
 40
1
 10
1.935447
 20
-5.804347
 30
0.0
 10
1.340525
 20
-5.804347
 30
0.0
 10
0.762579
 20
-6.002667
 30
0.0
 10
0.293002
 20
-6.367948
 30
0.0
  0
SPLINE
  5
127
100
AcDbEntity
  8
0
 62
7
100
AcDbSpline
 70
8
 71
3
 72
8
 73
4
 74
0
 40
0
 40
0
 40
0
 40
0
 40
1
 40
1
 40
1
 40
1
 10
251.115322
 20
-77.217920
 30
0.0
 10
250.645770
 20
-76.852648
 30
0.0
 10
250.067855
 20
-76.654319
 30
0.0
 10
249.472958
 20
-76.654294
 30
0.0
  0
LWPOLYLINE
  5
128
100
AcDbEntity
  8
0
 62
7
100
AcDbPolyline
 90
2
 70
0
 10
4.259580
 20
-12.653406
 30
0.0
 10
4.259580
 20
-75.152646
 30
0.0
  0
SPLINE
  5
129
100
AcDbEntity
  8
0
 62
7
100
AcDbSpline
 70
8
 71
3
 72
8
 73
4
 74
0
 40
0
 40
0
 40
0
 40
0
 40
1
 40
1
 40
1
 40
1
 10
251.115322
 20
-6.367948
 30
0.0
 10
250.645767
 20
-6.002684
 30
0.0
 10
250.067852
 20
-5.804365
 30
0.0
 10
249.472958
 20
-5.804347
 30
0.0
  0
SPLINE
  5
12a
100
AcDbEntity
  8
0
 62
7
100
AcDbSpline
 70
8
 71
3
 72
8
 73
4
 74
0
 40
0
 40
0
 40
0
 40
0
 40
1
 40
1
 40
1
 40
1
 10
250.905518
 20
-7.253112
 30
0.0
 10
251.097564
 20
-7.215076
 30
0.0
 10
251.249742
 20
-7.068455
 30
0.0
 10
251.294895
 20
-6.877957
 30
0.0
  0
SPLINE
  5
12b
100
AcDbEntity
  8
0
 62
7
100
AcDbSpline
 70
8
 71
3
 72
8
 73
4
 74
0
 40
0
 40
0
 40
0
 40
0
 40
1
 40
1
 40
1
 40
1
 10
251.294895
 20
-6.877957
 30
0.0
 10
251.340047
 20
-6.687459
 30
0.0
 10
251.269865
 20
-6.488134
 30
0.0
 10
251.115322
 20
-6.367948
 30
0.0
  0
LWPOLYLINE
  5
12c
100
AcDbEntity
  8
0
 62
7
100
AcDbPolyline
 90
2
 70
0
 10
249.471180
 20
-5.803026
 30
0.0
 10
1.932940
 20
-5.803026
 30
0.0
  0
LWPOLYLINE
  5
12d
100
AcDbEntity
  8
0
 62
7
100
AcDbPolyline
 90
2
 70
0
 10
245.856760
 20
-8.139826
 30
0.0
 10
216.882980
 20
-8.139826
 30
0.0
  0
LWPOLYLINE
  5
12e
100
AcDbEntity
  8
0
 62
7
100
AcDbPolyline
 90
2
 70
0
 10
216.382600
 20
-8.640206
 30
0.0
 10
216.382600
 20
-21.639926
 30
0.0
  0
LWPOLYLINE
  5
12f
100
AcDbEntity
  8
0
 62
7
100
AcDbPolyline
 90
2
 70
0
 10
216.882980
 20
-22.140306
 30
0.0
 10
245.856760
 20
-22.140306
 30
0.0
  0
SPLINE
  5
130
100
AcDbEntity
  8
0
 62
7
100
AcDbSpline
 70
8
 71
3
 72
8
 73
4
 74
0
 40
0
 40
0
 40
0
 40
0
 40
1
 40
1
 40
1
 40
1
 10
246.358664
 20
-8.640638
 30
0.0
 10
246.358664
 20
-8.508008
 30
0.0
 10
246.305968
 20
-8.380812
 30
0.0
 10
246.212173
 20
-8.287040
 30
0.0
  0
SPLINE
  5
131
100
AcDbEntity
  8
0
 62
7
100
AcDbSpline
 70
8
 71
3
 72
8
 73
4
 74
0
 40
0
 40
0
 40
0
 40
0
 40
1
 40
1
 40
1
 40
1
 10
246.212173
 20
-8.287040
 30
0.0
 10
246.118377
 20
-8.193269
 30
0.0
 10
245.991168
 20
-8.140605
 30
0.0
 10
245.858538
 20
-8.140639
 30
0.0
  0
SPLINE
  5
132
100
AcDbEntity
  8
0
 62
7
100
AcDbSpline
 70
8
 71
3
 72
8
 73
4
 74
0
 40
0
 40
0
 40
0
 40
0
 40
1
 40
1
 40
1
 40
1
 10
216.883742
 20
-8.140639
 30
0.0
 10
216.751112
 20
-8.140605
 30
0.0
 10
216.623903
 20
-8.193269
 30
0.0
 10
216.530107
 20
-8.287040
 30
0.0
  0
SPLINE
  5
133
100
AcDbEntity
  8
0
 62
7
100
AcDbSpline
 70
8
 71
3
 72
8
 73
4
 74
0
 40
0
 40
0
 40
0
 40
0
 40
1
 40
1
 40
1
 40
1
 10
216.530107
 20
-8.287040
 30
0.0
 10
216.436312
 20
-8.380812
 30
0.0
 10
216.383616
 20
-8.508008
 30
0.0
 10
216.383616
 20
-8.640638
 30
0.0
  0
SPLINE
  5
134
100
AcDbEntity
  8
0
 62
7
100
AcDbSpline
 70
8
 71
3
 72
8
 73
4
 74
0
 40
0
 40
0
 40
0
 40
0
 40
1
 40
1
 40
1
 40
1
 10
216.383616
 20
-21.640637
 30
0.0
 10
216.383616
 20
-21.773267
 30
0.0
 10
216.436312
 20
-21.900463
 30
0.0
 10
216.530107
 20
-21.994235
 30
0.0
  0
SPLINE
  5
135
100
AcDbEntity
  8
0
 62
7
100
AcDbSpline
 70
8
 71
3
 72
8
 73
4
 74
0
 40
0
 40
0
 40
0
 40
0
 40
1
 40
1
 40
1
 40
1
 10
216.530107
 20
-21.994235
 30
0.0
 10
216.623903
 20
-22.088007
 30
0.0
 10
216.751112
 20
-22.140670
 30
0.0
 10
216.883742
 20
-22.140636
 30
0.0
  0
SPLINE
  5
136
100
AcDbEntity
  8
0
 62
7
100
AcDbSpline
 70
8
 71
3
 72
8
 73
4
 74
0
 40
0
 40
0
 40
0
 40
0
 40
1
 40
1
 40
1
 40
1
 10
245.858538
 20
-22.140636
 30
0.0
 10
245.991168
 20
-22.140670
 30
0.0
 10
246.118377
 20
-22.088007
 30
0.0
 10
246.212173
 20
-21.994235
 30
0.0
  0
SPLINE
  5
137
100
AcDbEntity
  8
0
 62
7
100
AcDbSpline
 70
8
 71
3
 72
8
 73
4
 74
0
 40
0
 40
0
 40
0
 40
0
 40
1
 40
1
 40
1
 40
1
 10
246.212173
 20
-21.994235
 30
0.0
 10
246.305968
 20
-21.900463
 30
0.0
 10
246.358664
 20
-21.773267
 30
0.0
 10
246.358664
 20
-21.640637
 30
0.0
  0
SPLINE
  5
138
100
AcDbEntity
  8
0
 62
7
100
AcDbSpline
 70
8
 71
3
 72
8
 73
4
 74
0
 40
0
 40
0
 40
0
 40
0
 40
1
 40
1
 40
1
 40
1
 10
167.626030
 20
-77.787134
 30
0.0
 10
167.626064
 20
-77.919742
 30
0.0
 10
167.678774
 20
-78.046906
 30
0.0
 10
167.772566
 20
-78.140650
 30
0.0
  0
SPLINE
  5
139
100
AcDbEntity
  8
0
 62
7
100
AcDbSpline
 70
8
 71
3
 72
8
 73
4
 74
0
 40
0
 40
0
 40
0
 40
0
 40
1
 40
1
 40
1
 40
1
 10
167.772566
 20
-78.140650
 30
0.0
 10
167.866358
 20
-78.234394
 30
0.0
 10
167.993548
 20
-78.287040
 30
0.0
 10
168.126156
 20
-78.287006
 30
0.0
  0
SPLINE
  5
13a
100
AcDbEntity
  8
0
 62
7
100
AcDbSpline
 70
8
 71
3
 72
8
 73
4
 74
0
 40
0
 40
0
 40
0
 40
0
 40
1
 40
1
 40
1
 40
1
 10
173.875954
 20
-78.287006
 30
0.0
 10
174.008562
 20
-78.287040
 30
0.0
 10
174.135752
 20
-78.234394
 30
0.0
 10
174.229544
 20
-78.140650
 30
0.0
  0
SPLINE
  5
13b
100
AcDbEntity
  8
0
 62
7
100
AcDbSpline
 70
8
 71
3
 72
8
 73
4
 74
0
 40
0
 40
0
 40
0
 40
0
 40
1
 40
1
 40
1
 40
1
 10
174.229544
 20
-78.140650
 30
0.0
 10
174.323336
 20
-78.046906
 30
0.0
 10
174.376046
 20
-77.919742
 30
0.0
 10
174.376080
 20
-77.787134
 30
0.0
  0
SPLINE
  5
13c
100
AcDbEntity
  8
0
 62
7
100
AcDbSpline
 70
8
 71
3
 72
8
 73
4
 74
0
 40
0
 40
0
 40
0
 40
0
 40
1
 40
1
 40
1
 40
1
 10
174.376080
 20
-64.787160
 30
0.0
 10
174.376114
 20
-64.654508
 30
0.0
 10
174.323433
 20
-64.527280
 30
0.0
 10
174.229634
 20
-64.433481
 30
0.0
  0
SPLINE
  5
13d
100
AcDbEntity
  8
0
 62
7
100
AcDbSpline
 70
8
 71
3
 72
8
 73
4
 74
0
 40
0
 40
0
 40
0
 40
0
 40
1
 40
1
 40
1
 40
1
 10
174.229634
 20
-64.433481
 30
0.0
 10
174.135835
 20
-64.339681
 30
0.0
 10
174.008606
 20
-64.287001
 30
0.0
 10
173.875954
 20
-64.287034
 30
0.0
  0
SPLINE
  5
13e
100
AcDbEntity
  8
0
 62
7
100
AcDbSpline
 70
8
 71
3
 72
8
 73
4
 74
0
 40
0
 40
0
 40
0
 40
0
 40
1
 40
1
 40
1
 40
1
 10
168.126156
 20
-64.287034
 30
0.0
 10
167.993504
 20
-64.287001
 30
0.0
 10
167.866275
 20
-64.339681
 30
0.0
 10
167.772476
 20
-64.433481
 30
0.0
  0
SPLINE
  5
13f
100
AcDbEntity
  8
0
 62
7
100
AcDbSpline
 70
8
 71
3
 72
8
 73
4
 74
0
 40
0
 40
0
 40
0
 40
0
 40
1
 40
1
 40
1
 40
1
 10
167.772476
 20
-64.433481
 30
0.0
 10
167.678677
 20
-64.527280
 30
0.0
 10
167.625996
 20
-64.654508
 30
0.0
 10
167.626030
 20
-64.787160
 30
0.0
  0
SPLINE
  5
140
100
AcDbEntity
  8
0
 62
7
100
AcDbSpline
 70
8
 71
3
 72
8
 73
4
 74
0
 40
0
 40
0
 40
0
 40
0
 40
1
 40
1
 40
1
 40
1
 10
158.451042
 20
-79.287004
 30
0.0
 10
158.583650
 20
-79.287038
 30
0.0
 10
158.710840
 20
-79.234392
 30
0.0
 10
158.804632
 20
-79.140648
 30
0.0
  0
SPLINE
  5
141
100
AcDbEntity
  8
0
 62
7
100
AcDbSpline
 70
8
 71
3
 72
8
 73
4
 74
0
 40
0
 40
0
 40
0
 40
0
 40
1
 40
1
 40
1
 40
1
 10
158.804632
 20
-79.140648
 30
0.0
 10
158.898424
 20
-79.046904
 30
0.0
 10
158.951134
 20
-78.919740
 30
0.0
 10
158.951168
 20
-78.787132
 30
0.0
  0
SPLINE
  5
142
100
AcDbEntity
  8
0
 62
7
100
AcDbSpline
 70
8
 71
3
 72
8
 73
4
 74
0
 40
0
 40
0
 40
0
 40
0
 40
1
 40
1
 40
1
 40
1
 10
158.951168
 20
-65.787158
 30
0.0
 10
158.951202
 20
-65.654506
 30
0.0
 10
158.898521
 20
-65.527278
 30
0.0
 10
158.804722
 20
-65.433479
 30
0.0
  0
SPLINE
  5
143
100
AcDbEntity
  8
0
 62
7
100
AcDbSpline
 70
8
 71
3
 72
8
 73
4
 74
0
 40
0
 40
0
 40
0
 40
0
 40
1
 40
1
 40
1
 40
1
 10
158.804722
 20
-65.433479
 30
0.0
 10
158.710923
 20
-65.339679
 30
0.0
 10
158.583694
 20
-65.286999
 30
0.0
 10
158.451042
 20
-65.287032
 30
0.0
  0
SPLINE
  5
144
100
AcDbEntity
  8
0
 62
7
100
AcDbSpline
 70
8
 71
3
 72
8
 73
4
 74
0
 40
0
 40
0
 40
0
 40
0
 40
1
 40
1
 40
1
 40
1
 10
145.451068
 20
-65.287032
 30
0.0
 10
145.318416
 20
-65.286999
 30
0.0
 10
145.191187
 20
-65.339679
 30
0.0
 10
145.097388
 20
-65.433479
 30
0.0
  0
SPLINE
  5
145
100
AcDbEntity
  8
0
 62
7
100
AcDbSpline
 70
8
 71
3
 72
8
 73
4
 74
0
 40
0
 40
0
 40
0
 40
0
 40
1
 40
1
 40
1
 40
1
 10
145.097388
 20
-65.433479
 30
0.0
 10
145.003589
 20
-65.527278
 30
0.0
 10
144.950908
 20
-65.654506
 30
0.0
 10
144.950942
 20
-65.787158
 30
0.0
  0
SPLINE
  5
146
100
AcDbEntity
  8
0
 62
7
100
AcDbSpline
 70
8
 71
3
 72
8
 73
4
 74
0
 40
0
 40
0
 40
0
 40
0
 40
1
 40
1
 40
1
 40
1
 10
144.950942
 20
-78.787132
 30
0.0
 10
144.950976
 20
-78.919740
 30
0.0
 10
145.003686
 20
-79.046904
 30
0.0
 10
145.097478
 20
-79.140648
 30
0.0
  0
SPLINE
  5
147
100
AcDbEntity
  8
0
 62
7
100
AcDbSpline
 70
8
 71
3
 72
8
 73
4
 74
0
 40
0
 40
0
 40
0
 40
0
 40
1
 40
1
 40
1
 40
1
 10
145.097478
 20
-79.140648
 30
0.0
 10
145.191270
 20
-79.234392
 30
0.0
 10
145.318460
 20
-79.287038
 30
0.0
 10
145.451068
 20
-79.287004
 30
0.0
  0
SPLINE
  5
148
100
AcDbEntity
  8
0
 62
7
100
AcDbSpline
 70
8
 71
3
 72
8
 73
4
 74
0
 40
0
 40
0
 40
0
 40
0
 40
1
 40
1
 40
1
 40
1
 10
129.526030
 20
-77.787134
 30
0.0
 10
129.526064
 20
-77.919742
 30
0.0
 10
129.578774
 20
-78.046906
 30
0.0
 10
129.672566
 20
-78.140650
 30
0.0
  0
SPLINE
  5
149
100
AcDbEntity
  8
0
 62
7
100
AcDbSpline
 70
8
 71
3
 72
8
 73
4
 74
0
 40
0
 40
0
 40
0
 40
0
 40
1
 40
1
 40
1
 40
1
 10
129.672566
 20
-78.140650
 30
0.0
 10
129.766358
 20
-78.234394
 30
0.0
 10
129.893548
 20
-78.287040
 30
0.0
 10
130.026156
 20
-78.287006
 30
0.0
  0
SPLINE
  5
14a
100
AcDbEntity
  8
0
 62
7
100
AcDbSpline
 70
8
 71
3
 72
8
 73
4
 74
0
 40
0
 40
0
 40
0
 40
0
 40
1
 40
1
 40
1
 40
1
 10
135.775954
 20
-78.287006
 30
0.0
 10
135.908562
 20
-78.287040
 30
0.0
 10
136.035752
 20
-78.234394
 30
0.0
 10
136.129544
 20
-78.140650
 30
0.0
  0
SPLINE
  5
14b
100
AcDbEntity
  8
0
 62
7
100
AcDbSpline
 70
8
 71
3
 72
8
 73
4
 74
0
 40
0
 40
0
 40
0
 40
0
 40
1
 40
1
 40
1
 40
1
 10
136.129544
 20
-78.140650
 30
0.0
 10
136.223336
 20
-78.046906
 30
0.0
 10
136.276046
 20
-77.919742
 30
0.0
 10
136.276080
 20
-77.787134
 30
0.0
  0
SPLINE
  5
14c
100
AcDbEntity
  8
0
 62
7
100
AcDbSpline
 70
8
 71
3
 72
8
 73
4
 74
0
 40
0
 40
0
 40
0
 40
0
 40
1
 40
1
 40
1
 40
1
 10
136.276080
 20
-64.787160
 30
0.0
 10
136.276114
 20
-64.654508
 30
0.0
 10
136.223433
 20
-64.527280
 30
0.0
 10
136.129634
 20
-64.433481
 30
0.0
  0
SPLINE
  5
14d
100
AcDbEntity
  8
0
 62
7
100
AcDbSpline
 70
8
 71
3
 72
8
 73
4
 74
0
 40
0
 40
0
 40
0
 40
0
 40
1
 40
1
 40
1
 40
1
 10
136.129634
 20
-64.433481
 30
0.0
 10
136.035835
 20
-64.339681
 30
0.0
 10
135.908606
 20
-64.287001
 30
0.0
 10
135.775954
 20
-64.287034
 30
0.0
  0
SPLINE
  5
14e
100
AcDbEntity
  8
0
 62
7
100
AcDbSpline
 70
8
 71
3
 72
8
 73
4
 74
0
 40
0
 40
0
 40
0
 40
0
 40
1
 40
1
 40
1
 40
1
 10
130.026156
 20
-64.287034
 30
0.0
 10
129.893504
 20
-64.287001
 30
0.0
 10
129.766275
 20
-64.339681
 30
0.0
 10
129.672476
 20
-64.433481
 30
0.0
  0
SPLINE
  5
14f
100
AcDbEntity
  8
0
 62
7
100
AcDbSpline
 70
8
 71
3
 72
8
 73
4
 74
0
 40
0
 40
0
 40
0
 40
0
 40
1
 40
1
 40
1
 40
1
 10
129.672476
 20
-64.433481
 30
0.0
 10
129.578677
 20
-64.527280
 30
0.0
 10
129.525996
 20
-64.654508
 30
0.0
 10
129.526030
 20
-64.787160
 30
0.0
  0
LWPOLYLINE
  5
150
100
AcDbEntity
  8
0
 62
7
100
AcDbPolyline
 90
2
 70
0
 10
246.357140
 20
-21.639926
 30
0.0
 10
246.357140
 20
-8.640206
 30
0.0
  0
LWPOLYLINE
  5
151
100
AcDbEntity
  8
0
 62
7
100
AcDbPolyline
 90
2
 70
0
 10
158.450280
 20
-79.285226
 30
0.0
 10
145.450560
 20
-79.285226
 30
0.0
  0
LWPOLYLINE
  5
152
100
AcDbEntity
  8
0
 62
7
100
AcDbPolyline
 90
2
 70
0
 10
144.950180
 20
-78.784846
 30
0.0
 10
144.950180
 20
-65.785126
 30
0.0
  0
LWPOLYLINE
  5
153
100
AcDbEntity
  8
0
 62
7
100
AcDbPolyline
 90
2
 70
0
 10
145.450560
 20
-65.284746
 30
0.0
 10
158.450280
 20
-65.284746
 30
0.0
  0
LWPOLYLINE
  5
154
100
AcDbEntity
  8
0
 62
7
100
AcDbPolyline
 90
2
 70
0
 10
158.950660
 20
-65.785126
 30
0.0
 10
158.950660
 20
-78.784846
 30
0.0
  0
LWPOLYLINE
  5
155
100
AcDbEntity
  8
0
 62
7
100
AcDbPolyline
 90
2
 70
0
 10
167.624760
 20
-77.786626
 30
0.0
 10
167.624760
 20
-64.786906
 30
0.0
  0
LWPOLYLINE
  5
156
100
AcDbEntity
  8
0
 62
7
100
AcDbPolyline
 90
2
 70
0
 10
168.125140
 20
-64.286526
 30
0.0
 10
173.875700
 20
-64.286526
 30
0.0
  0
LWPOLYLINE
  5
157
100
AcDbEntity
  8
0
 62
7
100
AcDbPolyline
 90
2
 70
0
 10
174.373540
 20
-64.786906
 30
0.0
 10
174.373540
 20
-77.786626
 30
0.0
  0
LWPOLYLINE
  5
158
100
AcDbEntity
  8
0
 62
7
100
AcDbPolyline
 90
2
 70
0
 10
173.875700
 20
-78.287006
 30
0.0
 10
168.125140
 20
-78.287006
 30
0.0
  0
LWPOLYLINE
  5
159
100
AcDbEntity
  8
0
 62
7
100
AcDbPolyline
 90
2
 70
0
 10
129.524760
 20
-77.786626
 30
0.0
 10
129.524760
 20
-64.786906
 30
0.0
  0
LWPOLYLINE
  5
15a
100
AcDbEntity
  8
0
 62
7
100
AcDbPolyline
 90
2
 70
0
 10
130.025140
 20
-64.286526
 30
0.0
 10
135.775700
 20
-64.286526
 30
0.0
  0
LWPOLYLINE
  5
15b
100
AcDbEntity
  8
0
 62
7
100
AcDbPolyline
 90
2
 70
0
 10
136.273540
 20
-64.786906
 30
0.0
 10
136.273540
 20
-77.786626
 30
0.0
  0
SPLINE
  5
15c
100
AcDbEntity
  8
0
 62
7
100
AcDbSpline
 70
8
 71
3
 72
8
 73
4
 74
0
 40
0
 40
0
 40
0
 40
0
 40
1
 40
1
 40
1
 40
1
 10
110.479586
 20
-77.787134
 30
0.0
 10
110.479620
 20
-77.919742
 30
0.0
 10
110.532330
 20
-78.046906
 30
0.0
 10
110.626122
 20
-78.140650
 30
0.0
  0
SPLINE
  5
15d
100
AcDbEntity
  8
0
 62
7
100
AcDbSpline
 70
8
 71
3
 72
8
 73
4
 74
0
 40
0
 40
0
 40
0
 40
0
 40
1
 40
1
 40
1
 40
1
 10
110.626122
 20
-78.140650
 30
0.0
 10
110.719914
 20
-78.234394
 30
0.0
 10
110.847104
 20
-78.287040
 30
0.0
 10
110.979712
 20
-78.287006
 30
0.0
  0
SPLINE
  5
15e
100
AcDbEntity
  8
0
 62
7
100
AcDbSpline
 70
8
 71
3
 72
8
 73
4
 74
0
 40
0
 40
0
 40
0
 40
0
 40
1
 40
1
 40
1
 40
1
 10
116.729764
 20
-78.287006
 30
0.0
 10
117.005807
 20
-78.286936
 30
0.0
 10
117.229566
 20
-78.063177
 30
0.0
 10
117.229636
 20
-77.787134
 30
0.0
  0
SPLINE
  5
15f
100
AcDbEntity
  8
0
 62
7
100
AcDbSpline
 70
8
 71
3
 72
8
 73
4
 74
0
 40
0
 40
0
 40
0
 40
0
 40
1
 40
1
 40
1
 40
1
 10
117.229636
 20
-64.787160
 30
0.0
 10
117.229670
 20
-64.654552
 30
0.0
 10
117.177024
 20
-64.527362
 30
0.0
 10
117.083279
 20
-64.433570
 30
0.0
  0
SPLINE
  5
160
100
AcDbEntity
  8
0
 62
7
100
AcDbSpline
 70
8
 71
3
 72
8
 73
4
 74
0
 40
0
 40
0
 40
0
 40
0
 40
1
 40
1
 40
1
 40
1
 10
117.083279
 20
-64.433570
 30
0.0
 10
116.989535
 20
-64.339779
 30
0.0
 10
116.862372
 20
-64.287068
 30
0.0
 10
116.729764
 20
-64.287034
 30
0.0
  0
SPLINE
  5
161
100
AcDbEntity
  8
0
 62
7
100
AcDbSpline
 70
8
 71
3
 72
8
 73
4
 74
0
 40
0
 40
0
 40
0
 40
0
 40
1
 40
1
 40
1
 40
1
 10
110.979712
 20
-64.287034
 30
0.0
 10
110.847060
 20
-64.287001
 30
0.0
 10
110.719831
 20
-64.339681
 30
0.0
 10
110.626032
 20
-64.433481
 30
0.0
  0
SPLINE
  5
162
100
AcDbEntity
  8
0
 62
7
100
AcDbSpline
 70
8
 71
3
 72
8
 73
4
 74
0
 40
0
 40
0
 40
0
 40
0
 40
1
 40
1
 40
1
 40
1
 10
110.626032
 20
-64.433481
 30
0.0
 10
110.532233
 20
-64.527280
 30
0.0
 10
110.479552
 20
-64.654508
 30
0.0
 10
110.479586
 20
-64.787160
 30
0.0
  0
SPLINE
  5
163
100
AcDbEntity
  8
0
 62
7
100
AcDbSpline
 70
8
 71
3
 72
8
 73
4
 74
0
 40
0
 40
0
 40
0
 40
0
 40
1
 40
1
 40
1
 40
1
 10
101.304598
 20
-79.287004
 30
0.0
 10
101.437206
 20
-79.287038
 30
0.0
 10
101.564396
 20
-79.234392
 30
0.0
 10
101.658188
 20
-79.140648
 30
0.0
  0
SPLINE
  5
164
100
AcDbEntity
  8
0
 62
7
100
AcDbSpline
 70
8
 71
3
 72
8
 73
4
 74
0
 40
0
 40
0
 40
0
 40
0
 40
1
 40
1
 40
1
 40
1
 10
101.658188
 20
-79.140648
 30
0.0
 10
101.751980
 20
-79.046904
 30
0.0
 10
101.804690
 20
-78.919740
 30
0.0
 10
101.804724
 20
-78.787132
 30
0.0
  0
SPLINE
  5
165
100
AcDbEntity
  8
0
 62
7
100
AcDbSpline
 70
8
 71
3
 72
8
 73
4
 74
0
 40
0
 40
0
 40
0
 40
0
 40
1
 40
1
 40
1
 40
1
 10
101.804724
 20
-65.787158
 30
0.0
 10
101.804758
 20
-65.654506
 30
0.0
 10
101.752077
 20
-65.527278
 30
0.0
 10
101.658278
 20
-65.433479
 30
0.0
  0
SPLINE
  5
166
100
AcDbEntity
  8
0
 62
7
100
AcDbSpline
 70
8
 71
3
 72
8
 73
4
 74
0
 40
0
 40
0
 40
0
 40
0
 40
1
 40
1
 40
1
 40
1
 10
101.658278
 20
-65.433479
 30
0.0
 10
101.564479
 20
-65.339679
 30
0.0
 10
101.437250
 20
-65.286999
 30
0.0
 10
101.304598
 20
-65.287032
 30
0.0
  0
SPLINE
  5
167
100
AcDbEntity
  8
0
 62
7
100
AcDbSpline
 70
8
 71
3
 72
8
 73
4
 74
0
 40
0
 40
0
 40
0
 40
0
 40
1
 40
1
 40
1
 40
1
 10
88.304624
 20
-65.287032
 30
0.0
 10
88.172016
 20
-65.287066
 30
0.0
 10
88.044853
 20
-65.339777
 30
0.0
 10
87.951109
 20
-65.433568
 30
0.0
  0
SPLINE
  5
168
100
AcDbEntity
  8
0
 62
7
100
AcDbSpline
 70
8
 71
3
 72
8
 73
4
 74
0
 40
0
 40
0
 40
0
 40
0
 40
1
 40
1
 40
1
 40
1
 10
87.951109
 20
-65.433568
 30
0.0
 10
87.857364
 20
-65.527360
 30
0.0
 10
87.804718
 20
-65.654550
 30
0.0
 10
87.804752
 20
-65.787158
 30
0.0
  0
SPLINE
  5
169
100
AcDbEntity
  8
0
 62
7
100
AcDbSpline
 70
8
 71
3
 72
8
 73
4
 74
0
 40
0
 40
0
 40
0
 40
0
 40
1
 40
1
 40
1
 40
1
 10
87.804752
 20
-78.787132
 30
0.0
 10
87.804822
 20
-79.063175
 30
0.0
 10
88.028581
 20
-79.286934
 30
0.0
 10
88.304624
 20
-79.287004
 30
0.0
  0
SPLINE
  5
16a
100
AcDbEntity
  8
0
 62
7
100
AcDbSpline
 70
8
 71
3
 72
8
 73
4
 74
0
 40
0
 40
0
 40
0
 40
0
 40
1
 40
1
 40
1
 40
1
 10
72.379586
 20
-77.787134
 30
0.0
 10
72.379620
 20
-77.919742
 30
0.0
 10
72.432330
 20
-78.046906
 30
0.0
 10
72.526122
 20
-78.140650
 30
0.0
  0
SPLINE
  5
16b
100
AcDbEntity
  8
0
 62
7
100
AcDbSpline
 70
8
 71
3
 72
8
 73
4
 74
0
 40
0
 40
0
 40
0
 40
0
 40
1
 40
1
 40
1
 40
1
 10
72.526122
 20
-78.140650
 30
0.0
 10
72.619914
 20
-78.234394
 30
0.0
 10
72.747104
 20
-78.287040
 30
0.0
 10
72.879712
 20
-78.287006
 30
0.0
  0
SPLINE
  5
16c
100
AcDbEntity
  8
0
 62
7
100
AcDbSpline
 70
8
 71
3
 72
8
 73
4
 74
0
 40
0
 40
0
 40
0
 40
0
 40
1
 40
1
 40
1
 40
1
 10
78.629764
 20
-78.287006
 30
0.0
 10
78.905807
 20
-78.286936
 30
0.0
 10
79.129566
 20
-78.063177
 30
0.0
 10
79.129636
 20
-77.787134
 30
0.0
  0
SPLINE
  5
16d
100
AcDbEntity
  8
0
 62
7
100
AcDbSpline
 70
8
 71
3
 72
8
 73
4
 74
0
 40
0
 40
0
 40
0
 40
0
 40
1
 40
1
 40
1
 40
1
 10
79.129636
 20
-64.787160
 30
0.0
 10
79.129670
 20
-64.654552
 30
0.0
 10
79.077024
 20
-64.527362
 30
0.0
 10
78.983279
 20
-64.433570
 30
0.0
  0
SPLINE
  5
16e
100
AcDbEntity
  8
0
 62
7
100
AcDbSpline
 70
8
 71
3
 72
8
 73
4
 74
0
 40
0
 40
0
 40
0
 40
0
 40
1
 40
1
 40
1
 40
1
 10
78.983279
 20
-64.433570
 30
0.0
 10
78.889535
 20
-64.339779
 30
0.0
 10
78.762372
 20
-64.287068
 30
0.0
 10
78.629764
 20
-64.287034
 30
0.0
  0
SPLINE
  5
16f
100
AcDbEntity
  8
0
 62
7
100
AcDbSpline
 70
8
 71
3
 72
8
 73
4
 74
0
 40
0
 40
0
 40
0
 40
0
 40
1
 40
1
 40
1
 40
1
 10
72.879712
 20
-64.287034
 30
0.0
 10
72.747060
 20
-64.287001
 30
0.0
 10
72.619831
 20
-64.339681
 30
0.0
 10
72.526032
 20
-64.433481
 30
0.0
  0
SPLINE
  5
170
100
AcDbEntity
  8
0
 62
7
100
AcDbSpline
 70
8
 71
3
 72
8
 73
4
 74
0
 40
0
 40
0
 40
0
 40
0
 40
1
 40
1
 40
1
 40
1
 10
72.526032
 20
-64.433481
 30
0.0
 10
72.432233
 20
-64.527280
 30
0.0
 10
72.379552
 20
-64.654508
 30
0.0
 10
72.379586
 20
-64.787160
 30
0.0
  0
LWPOLYLINE
  5
171
100
AcDbEntity
  8
0
 62
7
100
AcDbPolyline
 90
2
 70
0
 10
135.775700
 20
-78.287006
 30
0.0
 10
130.025140
 20
-78.287006
 30
0.0
  0
LWPOLYLINE
  5
172
100
AcDbEntity
  8
0
 62
7
100
AcDbPolyline
 90
2
 70
0
 10
101.302820
 20
-79.285226
 30
0.0
 10
88.303100
 20
-79.285226
 30
0.0
  0
LWPOLYLINE
  5
173
100
AcDbEntity
  8
0
 62
7
100
AcDbPolyline
 90
2
 70
0
 10
87.802720
 20
-78.784846
 30
0.0
 10
87.802720
 20
-65.785126
 30
0.0
  0
LWPOLYLINE
  5
174
100
AcDbEntity
  8
0
 62
7
100
AcDbPolyline
 90
2
 70
0
 10
88.303100
 20
-65.284746
 30
0.0
 10
101.302820
 20
-65.284746
 30
0.0
  0
LWPOLYLINE
  5
175
100
AcDbEntity
  8
0
 62
7
100
AcDbPolyline
 90
2
 70
0
 10
101.803200
 20
-65.785126
 30
0.0
 10
101.803200
 20
-78.784846
 30
0.0
  0
LWPOLYLINE
  5
176
100
AcDbEntity
  8
0
 62
7
100
AcDbPolyline
 90
2
 70
0
 10
110.477300
 20
-77.786626
 30
0.0
 10
110.477300
 20
-64.786906
 30
0.0
  0
LWPOLYLINE
  5
177
100
AcDbEntity
  8
0
 62
7
100
AcDbPolyline
 90
2
 70
0
 10
110.977680
 20
-64.286526
 30
0.0
 10
116.728240
 20
-64.286526
 30
0.0
  0
LWPOLYLINE
  5
178
100
AcDbEntity
  8
0
 62
7
100
AcDbPolyline
 90
2
 70
0
 10
117.228620
 20
-64.786906
 30
0.0
 10
117.228620
 20
-77.786626
 30
0.0
  0
LWPOLYLINE
  5
179
100
AcDbEntity
  8
0
 62
7
100
AcDbPolyline
 90
2
 70
0
 10
116.728240
 20
-78.287006
 30
0.0
 10
110.977680
 20
-78.287006
 30
0.0
  0
LWPOLYLINE
  5
17a
100
AcDbEntity
  8
0
 62
7
100
AcDbPolyline
 90
2
 70
0
 10
72.377300
 20
-77.786626
 30
0.0
 10
72.377300
 20
-64.786906
 30
0.0
  0
LWPOLYLINE
  5
17b
100
AcDbEntity
  8
0
 62
7
100
AcDbPolyline
 90
2
 70
0
 10
72.877680
 20
-64.286526
 30
0.0
 10
78.628240
 20
-64.286526
 30
0.0
  0
LWPOLYLINE
  5
17c
100
AcDbEntity
  8
0
 62
7
100
AcDbPolyline
 90
2
 70
0
 10
79.128620
 20
-64.786906
 30
0.0
 10
79.128620
 20
-77.786626
 30
0.0
  0
SPLINE
  5
17d
100
AcDbEntity
  8
0
 62
7
100
AcDbSpline
 70
8
 71
3
 72
8
 73
4
 74
0
 40
0
 40
0
 40
0
 40
0
 40
1
 40
1
 40
1
 40
1
 10
239.908588
 20
-27.689444
 30
0.0
 10
239.908554
 20
-27.556836
 30
0.0
 10
239.855844
 20
-27.429673
 30
0.0
 10
239.762052
 20
-27.335929
 30
0.0
  0
SPLINE
  5
17e
100
AcDbEntity
  8
0
 62
7
100
AcDbSpline
 70
8
 71
3
 72
8
 73
4
 74
0
 40
0
 40
0
 40
0
 40
0
 40
1
 40
1
 40
1
 40
1
 10
239.762052
 20
-27.335929
 30
0.0
 10
239.668260
 20
-27.242185
 30
0.0
 10
239.541070
 20
-27.189539
 30
0.0
 10
239.408462
 20
-27.189572
 30
0.0
  0
SPLINE
  5
17f
100
AcDbEntity
  8
0
 62
7
100
AcDbSpline
 70
8
 71
3
 72
8
 73
4
 74
0
 40
0
 40
0
 40
0
 40
0
 40
1
 40
1
 40
1
 40
1
 10
226.408488
 20
-27.189572
 30
0.0
 10
226.275880
 20
-27.189539
 30
0.0
 10
226.148690
 20
-27.242185
 30
0.0
 10
226.054898
 20
-27.335929
 30
0.0
  0
SPLINE
  5
180
100
AcDbEntity
  8
0
 62
7
100
AcDbSpline
 70
8
 71
3
 72
8
 73
4
 74
0
 40
0
 40
0
 40
0
 40
0
 40
1
 40
1
 40
1
 40
1
 10
226.054898
 20
-27.335929
 30
0.0
 10
225.961106
 20
-27.429673
 30
0.0
 10
225.908396
 20
-27.556836
 30
0.0
 10
225.908362
 20
-27.689444
 30
0.0
  0
SPLINE
  5
181
100
AcDbEntity
  8
0
 62
7
100
AcDbSpline
 70
8
 71
3
 72
8
 73
4
 74
0
 40
0
 40
0
 40
0
 40
0
 40
1
 40
1
 40
1
 40
1
 10
225.908362
 20
-40.689418
 30
0.0
 10
225.908328
 20
-40.822070
 30
0.0
 10
225.961009
 20
-40.949299
 30
0.0
 10
226.054808
 20
-41.043098
 30
0.0
  0
SPLINE
  5
182
100
AcDbEntity
  8
0
 62
7
100
AcDbSpline
 70
8
 71
3
 72
8
 73
4
 74
0
 40
0
 40
0
 40
0
 40
0
 40
1
 40
1
 40
1
 40
1
 10
226.054808
 20
-41.043098
 30
0.0
 10
226.148607
 20
-41.136897
 30
0.0
 10
226.275836
 20
-41.189578
 30
0.0
 10
226.408488
 20
-41.189544
 30
0.0
  0
SPLINE
  5
183
100
AcDbEntity
  8
0
 62
7
100
AcDbSpline
 70
8
 71
3
 72
8
 73
4
 74
0
 40
0
 40
0
 40
0
 40
0
 40
1
 40
1
 40
1
 40
1
 10
239.408462
 20
-41.189544
 30
0.0
 10
239.541114
 20
-41.189578
 30
0.0
 10
239.668343
 20
-41.136897
 30
0.0
 10
239.762142
 20
-41.043098
 30
0.0
  0
SPLINE
  5
184
100
AcDbEntity
  8
0
 62
7
100
AcDbSpline
 70
8
 71
3
 72
8
 73
4
 74
0
 40
0
 40
0
 40
0
 40
0
 40
1
 40
1
 40
1
 40
1
 10
239.762142
 20
-41.043098
 30
0.0
 10
239.855941
 20
-40.949299
 30
0.0
 10
239.908622
 20
-40.822070
 30
0.0
 10
239.908588
 20
-40.689418
 30
0.0
  0
LWPOLYLINE
  5
185
100
AcDbEntity
  8
0
 62
7
100
AcDbPolyline
 90
2
 70
0
 10
78.628240
 20
-78.287006
 30
0.0
 10
72.877680
 20
-78.287006
 30
0.0
  0
LWPOLYLINE
  5
186
100
AcDbEntity
  8
0
 62
7
100
AcDbPolyline
 90
2
 70
0
 10
239.908080
 20
-40.687386
 30
0.0
 10
239.908080
 20
-27.687666
 30
0.0
  0
LWPOLYLINE
  5
187
100
AcDbEntity
  8
0
 62
7
100
AcDbPolyline
 90
2
 70
0
 10
226.407980
 20
-41.187766
 30
0.0
 10
239.407700
 20
-41.187766
 30
0.0
  0
LWPOLYLINE
  5
188
100
AcDbEntity
  8
0
 62
7
100
AcDbPolyline
 90
2
 70
0
 10
225.907600
 20
-27.687666
 30
0.0
 10
225.907600
 20
-40.687386
 30
0.0
  0
LWPOLYLINE
  5
189
100
AcDbEntity
  8
0
 62
7
100
AcDbPolyline
 90
2
 70
0
 10
239.407700
 20
-27.187286
 30
0.0
 10
226.407980
 20
-27.187286
 30
0.0
  0
LWPOLYLINE
  5
18a
100
AcDbEntity
  8
0
 62
7
100
AcDbPolyline
 90
2
 70
0
 10
242.288060
 20
-78.784846
 30
0.0
 10
242.288060
 20
-65.785126
 30
0.0
  0
LWPOLYLINE
  5
18b
100
AcDbEntity
  8
0
 62
7
100
AcDbPolyline
 90
2
 70
0
 10
228.787960
 20
-79.285226
 30
0.0
 10
241.787680
 20
-79.285226
 30
0.0
  0
LWPOLYLINE
  5
18c
100
AcDbEntity
  8
0
 62
7
100
AcDbPolyline
 90
2
 70
0
 10
228.287580
 20
-65.785126
 30
0.0
 10
228.287580
 20
-78.784846
 30
0.0
  0
SPLINE
  5
18d
100
AcDbEntity
  8
0
 62
7
100
AcDbSpline
 70
8
 71
3
 72
8
 73
4
 74
0
 40
0
 40
0
 40
0
 40
0
 40
1
 40
1
 40
1
 40
1
 10
242.289584
 20
-65.787158
 30
0.0
 10
242.289618
 20
-65.654506
 30
0.0
 10
242.236937
 20
-65.527278
 30
0.0
 10
242.143138
 20
-65.433479
 30
0.0
  0
SPLINE
  5
18e
100
AcDbEntity
  8
0
 62
7
100
AcDbSpline
 70
8
 71
3
 72
8
 73
4
 74
0
 40
0
 40
0
 40
0
 40
0
 40
1
 40
1
 40
1
 40
1
 10
242.143138
 20
-65.433479
 30
0.0
 10
242.049339
 20
-65.339679
 30
0.0
 10
241.922110
 20
-65.286999
 30
0.0
 10
241.789458
 20
-65.287032
 30
0.0
  0
SPLINE
  5
18f
100
AcDbEntity
  8
0
 62
7
100
AcDbSpline
 70
8
 71
3
 72
8
 73
4
 74
0
 40
0
 40
0
 40
0
 40
0
 40
1
 40
1
 40
1
 40
1
 10
228.789484
 20
-65.287032
 30
0.0
 10
228.656876
 20
-65.287066
 30
0.0
 10
228.529713
 20
-65.339777
 30
0.0
 10
228.435969
 20
-65.433568
 30
0.0
  0
SPLINE
  5
190
100
AcDbEntity
  8
0
 62
7
100
AcDbSpline
 70
8
 71
3
 72
8
 73
4
 74
0
 40
0
 40
0
 40
0
 40
0
 40
1
 40
1
 40
1
 40
1
 10
228.435969
 20
-65.433568
 30
0.0
 10
228.342224
 20
-65.527360
 30
0.0
 10
228.289578
 20
-65.654550
 30
0.0
 10
228.289612
 20
-65.787158
 30
0.0
  0
SPLINE
  5
191
100
AcDbEntity
  8
0
 62
7
100
AcDbSpline
 70
8
 71
3
 72
8
 73
4
 74
0
 40
0
 40
0
 40
0
 40
0
 40
1
 40
1
 40
1
 40
1
 10
228.289612
 20
-78.787132
 30
0.0
 10
228.289682
 20
-79.063175
 30
0.0
 10
228.513441
 20
-79.286934
 30
0.0
 10
228.789484
 20
-79.287004
 30
0.0
  0
SPLINE
  5
192
100
AcDbEntity
  8
0
 62
7
100
AcDbSpline
 70
8
 71
3
 72
8
 73
4
 74
0
 40
0
 40
0
 40
0
 40
0
 40
1
 40
1
 40
1
 40
1
 10
241.789458
 20
-79.287004
 30
0.0
 10
241.922066
 20
-79.287038
 30
0.0
 10
242.049256
 20
-79.234392
 30
0.0
 10
242.143048
 20
-79.140648
 30
0.0
  0
SPLINE
  5
193
100
AcDbEntity
  8
0
 62
7
100
AcDbSpline
 70
8
 71
3
 72
8
 73
4
 74
0
 40
0
 40
0
 40
0
 40
0
 40
1
 40
1
 40
1
 40
1
 10
242.143048
 20
-79.140648
 30
0.0
 10
242.236840
 20
-79.046904
 30
0.0
 10
242.289550
 20
-78.919740
 30
0.0
 10
242.289584
 20
-78.787132
 30
0.0
  0
LWPOLYLINE
  5
194
100
AcDbEntity
  8
0
 62
7
100
AcDbPolyline
 90
2
 70
0
 10
241.787680
 20
-65.284746
 30
0.0
 10
228.787960
 20
-65.284746
 30
0.0
  0
LWPOLYLINE
  5
195
100
AcDbEntity
  8
0
 62
7
100
AcDbPolyline
 90
2
 70
0
 10
199.428100
 20
-78.784846
 30
0.0
 10
199.428100
 20
-65.785126
 30
0.0
  0
LWPOLYLINE
  5
196
100
AcDbEntity
  8
0
 62
7
100
AcDbPolyline
 90
2
 70
0
 10
185.928000
 20
-79.285226
 30
0.0
 10
198.927720
 20
-79.285226
 30
0.0
  0
LWPOLYLINE
  5
197
100
AcDbEntity
  8
0
 62
7
100
AcDbPolyline
 90
2
 70
0
 10
185.427620
 20
-65.785126
 30
0.0
 10
185.427620
 20
-78.784846
 30
0.0
  0
SPLINE
  5
198
100
AcDbEntity
  8
0
 62
7
100
AcDbSpline
 70
8
 71
3
 72
8
 73
4
 74
0
 40
0
 40
0
 40
0
 40
0
 40
1
 40
1
 40
1
 40
1
 10
199.429878
 20
-65.787158
 30
0.0
 10
199.429912
 20
-65.654506
 30
0.0
 10
199.377231
 20
-65.527278
 30
0.0
 10
199.283432
 20
-65.433479
 30
0.0
  0
SPLINE
  5
199
100
AcDbEntity
  8
0
 62
7
100
AcDbSpline
 70
8
 71
3
 72
8
 73
4
 74
0
 40
0
 40
0
 40
0
 40
0
 40
1
 40
1
 40
1
 40
1
 10
199.283432
 20
-65.433479
 30
0.0
 10
199.189633
 20
-65.339679
 30
0.0
 10
199.062404
 20
-65.286999
 30
0.0
 10
198.929752
 20
-65.287032
 30
0.0
  0
SPLINE
  5
19a
100
AcDbEntity
  8
0
 62
7
100
AcDbSpline
 70
8
 71
3
 72
8
 73
4
 74
0
 40
0
 40
0
 40
0
 40
0
 40
1
 40
1
 40
1
 40
1
 10
185.929778
 20
-65.287032
 30
0.0
 10
185.797126
 20
-65.286999
 30
0.0
 10
185.669897
 20
-65.339679
 30
0.0
 10
185.576098
 20
-65.433479
 30
0.0
  0
SPLINE
  5
19b
100
AcDbEntity
  8
0
 62
7
100
AcDbSpline
 70
8
 71
3
 72
8
 73
4
 74
0
 40
0
 40
0
 40
0
 40
0
 40
1
 40
1
 40
1
 40
1
 10
185.576098
 20
-65.433479
 30
0.0
 10
185.482299
 20
-65.527278
 30
0.0
 10
185.429618
 20
-65.654506
 30
0.0
 10
185.429652
 20
-65.787158
 30
0.0
  0
SPLINE
  5
19c
100
AcDbEntity
  8
0
 62
7
100
AcDbSpline
 70
8
 71
3
 72
8
 73
4
 74
0
 40
0
 40
0
 40
0
 40
0
 40
1
 40
1
 40
1
 40
1
 10
185.429652
 20
-78.787132
 30
0.0
 10
185.429686
 20
-78.919740
 30
0.0
 10
185.482396
 20
-79.046904
 30
0.0
 10
185.576188
 20
-79.140648
 30
0.0
  0
SPLINE
  5
19d
100
AcDbEntity
  8
0
 62
7
100
AcDbSpline
 70
8
 71
3
 72
8
 73
4
 74
0
 40
0
 40
0
 40
0
 40
0
 40
1
 40
1
 40
1
 40
1
 10
185.576188
 20
-79.140648
 30
0.0
 10
185.669980
 20
-79.234392
 30
0.0
 10
185.797170
 20
-79.287038
 30
0.0
 10
185.929778
 20
-79.287004
 30
0.0
  0
SPLINE
  5
19e
100
AcDbEntity
  8
0
 62
7
100
AcDbSpline
 70
8
 71
3
 72
8
 73
4
 74
0
 40
0
 40
0
 40
0
 40
0
 40
1
 40
1
 40
1
 40
1
 10
198.929752
 20
-79.287004
 30
0.0
 10
199.062360
 20
-79.287038
 30
0.0
 10
199.189550
 20
-79.234392
 30
0.0
 10
199.283342
 20
-79.140648
 30
0.0
  0
SPLINE
  5
19f
100
AcDbEntity
  8
0
 62
7
100
AcDbSpline
 70
8
 71
3
 72
8
 73
4
 74
0
 40
0
 40
0
 40
0
 40
0
 40
1
 40
1
 40
1
 40
1
 10
199.283342
 20
-79.140648
 30
0.0
 10
199.377134
 20
-79.046904
 30
0.0
 10
199.429844
 20
-78.919740
 30
0.0
 10
199.429878
 20
-78.787132
 30
0.0
  0
LWPOLYLINE
  5
1a0
100
AcDbEntity
  8
0
 62
7
100
AcDbPolyline
 90
2
 70
0
 10
198.927720
 20
-65.284746
 30
0.0
 10
185.928000
 20
-65.284746
 30
0.0
  0
LWPOLYLINE
  5
1a1
100
AcDbEntity
  8
0
 62
7
100
AcDbPolyline
 90
2
 70
0
 10
42.275760
 20
-78.784846
 30
0.0
 10
42.275760
 20
-65.785126
 30
0.0
  0
LWPOLYLINE
  5
1a2
100
AcDbEntity
  8
0
 62
7
100
AcDbPolyline
 90
2
 70
0
 10
28.775660
 20
-79.285226
 30
0.0
 10
41.775380
 20
-79.285226
 30
0.0
  0
LWPOLYLINE
  5
1a3
100
AcDbEntity
  8
0
 62
7
100
AcDbPolyline
 90
2
 70
0
 10
28.275280
 20
-65.785126
 30
0.0
 10
28.275280
 20
-78.784846
 30
0.0
  0
SPLINE
  5
1a4
100
AcDbEntity
  8
0
 62
7
100
AcDbSpline
 70
8
 71
3
 72
8
 73
4
 74
0
 40
0
 40
0
 40
0
 40
0
 40
1
 40
1
 40
1
 40
1
 10
42.277284
 20
-65.787158
 30
0.0
 10
42.277318
 20
-65.654506
 30
0.0
 10
42.224637
 20
-65.527278
 30
0.0
 10
42.130838
 20
-65.433479
 30
0.0
  0
SPLINE
  5
1a5
100
AcDbEntity
  8
0
 62
7
100
AcDbSpline
 70
8
 71
3
 72
8
 73
4
 74
0
 40
0
 40
0
 40
0
 40
0
 40
1
 40
1
 40
1
 40
1
 10
42.130838
 20
-65.433479
 30
0.0
 10
42.037039
 20
-65.339679
 30
0.0
 10
41.909810
 20
-65.286999
 30
0.0
 10
41.777158
 20
-65.287032
 30
0.0
  0
SPLINE
  5
1a6
100
AcDbEntity
  8
0
 62
7
100
AcDbSpline
 70
8
 71
3
 72
8
 73
4
 74
0
 40
0
 40
0
 40
0
 40
0
 40
1
 40
1
 40
1
 40
1
 10
28.777184
 20
-65.287032
 30
0.0
 10
28.644532
 20
-65.286999
 30
0.0
 10
28.517303
 20
-65.339679
 30
0.0
 10
28.423504
 20
-65.433479
 30
0.0
  0
SPLINE
  5
1a7
100
AcDbEntity
  8
0
 62
7
100
AcDbSpline
 70
8
 71
3
 72
8
 73
4
 74
0
 40
0
 40
0
 40
0
 40
0
 40
1
 40
1
 40
1
 40
1
 10
28.423504
 20
-65.433479
 30
0.0
 10
28.329705
 20
-65.527278
 30
0.0
 10
28.277024
 20
-65.654506
 30
0.0
 10
28.277058
 20
-65.787158
 30
0.0
  0
SPLINE
  5
1a8
100
AcDbEntity
  8
0
 62
7
100
AcDbSpline
 70
8
 71
3
 72
8
 73
4
 74
0
 40
0
 40
0
 40
0
 40
0
 40
1
 40
1
 40
1
 40
1
 10
28.277058
 20
-78.787132
 30
0.0
 10
28.277092
 20
-78.919740
 30
0.0
 10
28.329802
 20
-79.046904
 30
0.0
 10
28.423594
 20
-79.140648
 30
0.0
  0
SPLINE
  5
1a9
100
AcDbEntity
  8
0
 62
7
100
AcDbSpline
 70
8
 71
3
 72
8
 73
4
 74
0
 40
0
 40
0
 40
0
 40
0
 40
1
 40
1
 40
1
 40
1
 10
28.423594
 20
-79.140648
 30
0.0
 10
28.517386
 20
-79.234392
 30
0.0
 10
28.644576
 20
-79.287038
 30
0.0
 10
28.777184
 20
-79.287004
 30
0.0
  0
SPLINE
  5
1aa
100
AcDbEntity
  8
0
 62
7
100
AcDbSpline
 70
8
 71
3
 72
8
 73
4
 74
0
 40
0
 40
0
 40
0
 40
0
 40
1
 40
1
 40
1
 40
1
 10
41.777158
 20
-79.287004
 30
0.0
 10
41.909766
 20
-79.287038
 30
0.0
 10
42.036956
 20
-79.234392
 30
0.0
 10
42.130748
 20
-79.140648
 30
0.0
  0
SPLINE
  5
1ab
100
AcDbEntity
  8
0
 62
7
100
AcDbSpline
 70
8
 71
3
 72
8
 73
4
 74
0
 40
0
 40
0
 40
0
 40
0
 40
1
 40
1
 40
1
 40
1
 10
42.130748
 20
-79.140648
 30
0.0
 10
42.224540
 20
-79.046904
 30
0.0
 10
42.277250
 20
-78.919740
 30
0.0
 10
42.277284
 20
-78.787132
 30
0.0
  0
SPLINE
  5
1ac
100
AcDbEntity
  8
0
 62
7
100
AcDbSpline
 70
8
 71
3
 72
8
 73
4
 74
0
 40
0
 40
0
 40
0
 40
0
 40
1
 40
1
 40
1
 40
1
 10
27.490674
 20
-60.238274
 30
0.0
 10
27.623282
 20
-60.238241
 30
0.0
 10
27.750445
 20
-60.185530
 30
0.0
 10
27.844189
 20
-60.091738
 30
0.0
  0
SPLINE
  5
1ad
100
AcDbEntity
  8
0
 62
7
100
AcDbSpline
 70
8
 71
3
 72
8
 73
4
 74
0
 40
0
 40
0
 40
0
 40
0
 40
1
 40
1
 40
1
 40
1
 10
27.844189
 20
-60.091738
 30
0.0
 10
27.937934
 20
-59.997946
 30
0.0
 10
27.990580
 20
-59.870756
 30
0.0
 10
27.990546
 20
-59.738148
 30
0.0
  0
SPLINE
  5
1ae
100
AcDbEntity
  8
0
 62
7
100
AcDbSpline
 70
8
 71
3
 72
8
 73
4
 74
0
 40
0
 40
0
 40
0
 40
0
 40
1
 40
1
 40
1
 40
1
 10
13.990574
 20
-59.738148
 30
0.0
 10
13.990540
 20
-59.870778
 30
0.0
 10
14.043204
 20
-59.997988
 30
0.0
 10
14.136975
 20
-60.091783
 30
0.0
  0
SPLINE
  5
1af
100
AcDbEntity
  8
0
 62
7
100
AcDbSpline
 70
8
 71
3
 72
8
 73
4
 74
0
 40
0
 40
0
 40
0
 40
0
 40
1
 40
1
 40
1
 40
1
 10
14.136975
 20
-60.091783
 30
0.0
 10
14.230747
 20
-60.185578
 30
0.0
 10
14.357943
 20
-60.238274
 30
0.0
 10
14.490573
 20
-60.238274
 30
0.0
  0
SPLINE
  5
1b0
100
AcDbEntity
  8
0
 62
7
100
AcDbSpline
 70
8
 71
3
 72
8
 73
4
 74
0
 40
0
 40
0
 40
0
 40
0
 40
1
 40
1
 40
1
 40
1
 10
14.490573
 20
-46.238302
 30
0.0
 10
14.214481
 20
-46.238302
 30
0.0
 10
13.990644
 20
-46.462082
 30
0.0
 10
13.990574
 20
-46.738174
 30
0.0
  0
SPLINE
  5
1b1
100
AcDbEntity
  8
0
 62
7
100
AcDbSpline
 70
8
 71
3
 72
8
 73
4
 74
0
 40
0
 40
0
 40
0
 40
0
 40
1
 40
1
 40
1
 40
1
 10
27.990546
 20
-46.738174
 30
0.0
 10
27.990476
 20
-46.462132
 30
0.0
 10
27.766717
 20
-46.238372
 30
0.0
 10
27.490674
 20
-46.238302
 30
0.0
  0
LWPOLYLINE
  5
1b2
100
AcDbEntity
  8
0
 62
7
100
AcDbPolyline
 90
2
 70
0
 10
41.775380
 20
-65.284746
 30
0.0
 10
28.775660
 20
-65.284746
 30
0.0
  0
LWPOLYLINE
  5
1b3
100
AcDbEntity
  8
0
 62
7
100
AcDbPolyline
 90
2
 70
0
 10
27.988260
 20
-59.737386
 30
0.0
 10
27.988260
 20
-46.737666
 30
0.0
  0
LWPOLYLINE
  5
1b4
100
AcDbEntity
  8
0
 62
7
100
AcDbPolyline
 90
2
 70
0
 10
14.488160
 20
-60.237766
 30
0.0
 10
27.490420
 20
-60.237766
 30
0.0
  0
LWPOLYLINE
  5
1b5
100
AcDbEntity
  8
0
 62
7
100
AcDbPolyline
 90
2
 70
0
 10
13.990320
 20
-46.737666
 30
0.0
 10
13.990320
 20
-59.737386
 30
0.0
  0
LWPOLYLINE
  5
1b6
100
AcDbEntity
  8
0
 62
7
100
AcDbPolyline
 90
2
 70
0
 10
27.490420
 20
-46.237286
 30
0.0
 10
14.488160
 20
-46.237286
 30
0.0
  0
LWPOLYLINE
  5
1b7
100
AcDbEntity
  8
0
 62
7
100
AcDbPolyline
 90
2
 70
0
 10
23.228300
 20
-40.687386
 30
0.0
 10
23.228300
 20
-27.687666
 30
0.0
  0
LWPOLYLINE
  5
1b8
100
AcDbEntity
  8
0
 62
7
100
AcDbPolyline
 90
2
 70
0
 10
9.728200
 20
-41.187766
 30
0.0
 10
22.727920
 20
-41.187766
 30
0.0
  0
LWPOLYLINE
  5
1b9
100
AcDbEntity
  8
0
 62
7
100
AcDbPolyline
 90
2
 70
0
 10
9.227820
 20
-27.687666
 30
0.0
 10
9.227820
 20
-40.687386
 30
0.0
  0
SPLINE
  5
1ba
100
AcDbEntity
  8
0
 62
7
100
AcDbSpline
 70
8
 71
3
 72
8
 73
4
 74
0
 40
0
 40
0
 40
0
 40
0
 40
1
 40
1
 40
1
 40
1
 10
23.228376
 20
-27.689444
 30
0.0
 10
23.228306
 20
-27.413352
 30
0.0
 10
23.004469
 20
-27.189572
 30
0.0
 10
22.728377
 20
-27.189572
 30
0.0
  0
SPLINE
  5
1bb
100
AcDbEntity
  8
0
 62
7
100
AcDbSpline
 70
8
 71
3
 72
8
 73
4
 74
0
 40
0
 40
0
 40
0
 40
0
 40
1
 40
1
 40
1
 40
1
 10
9.728378
 20
-27.189572
 30
0.0
 10
9.452286
 20
-27.189572
 30
0.0
 10
9.228449
 20
-27.413352
 30
0.0
 10
9.228379
 20
-27.689444
 30
0.0
  0
SPLINE
  5
1bc
100
AcDbEntity
  8
0
 62
7
100
AcDbSpline
 70
8
 71
3
 72
8
 73
4
 74
0
 40
0
 40
0
 40
0
 40
0
 40
1
 40
1
 40
1
 40
1
 10
9.228379
 20
-40.689418
 30
0.0
 10
9.228345
 20
-40.822048
 30
0.0
 10
9.281009
 20
-40.949258
 30
0.0
 10
9.374780
 20
-41.043053
 30
0.0
  0
SPLINE
  5
1bd
100
AcDbEntity
  8
0
 62
7
100
AcDbSpline
 70
8
 71
3
 72
8
 73
4
 74
0
 40
0
 40
0
 40
0
 40
0
 40
1
 40
1
 40
1
 40
1
 10
9.374780
 20
-41.043053
 30
0.0
 10
9.468552
 20
-41.136848
 30
0.0
 10
9.595748
 20
-41.189544
 30
0.0
 10
9.728378
 20
-41.189544
 30
0.0
  0
SPLINE
  5
1be
100
AcDbEntity
  8
0
 62
7
100
AcDbSpline
 70
8
 71
3
 72
8
 73
4
 74
0
 40
0
 40
0
 40
0
 40
0
 40
1
 40
1
 40
1
 40
1
 10
22.728377
 20
-41.189544
 30
0.0
 10
22.861007
 20
-41.189544
 30
0.0
 10
22.988203
 20
-41.136848
 30
0.0
 10
23.081975
 20
-41.043053
 30
0.0
  0
SPLINE
  5
1bf
100
AcDbEntity
  8
0
 62
7
100
AcDbSpline
 70
8
 71
3
 72
8
 73
4
 74
0
 40
0
 40
0
 40
0
 40
0
 40
1
 40
1
 40
1
 40
1
 10
23.081975
 20
-41.043053
 30
0.0
 10
23.175746
 20
-40.949258
 30
0.0
 10
23.228410
 20
-40.822048
 30
0.0
 10
23.228376
 20
-40.689418
 30
0.0
  0
SPLINE
  5
1c0
100
AcDbEntity
  8
0
 62
7
100
AcDbSpline
 70
8
 71
3
 72
8
 73
4
 74
0
 40
0
 40
0
 40
0
 40
0
 40
1
 40
1
 40
1
 40
1
 10
220.359732
 20
-79.287004
 30
0.0
 10
220.635775
 20
-79.286934
 30
0.0
 10
220.859534
 20
-79.063175
 30
0.0
 10
220.859604
 20
-78.787132
 30
0.0
  0
SPLINE
  5
1c1
100
AcDbEntity
  8
0
 62
7
100
AcDbSpline
 70
8
 71
3
 72
8
 73
4
 74
0
 40
0
 40
0
 40
0
 40
0
 40
1
 40
1
 40
1
 40
1
 10
206.859632
 20
-78.787132
 30
0.0
 10
206.859666
 20
-78.919740
 30
0.0
 10
206.912376
 20
-79.046904
 30
0.0
 10
207.006168
 20
-79.140648
 30
0.0
  0
SPLINE
  5
1c2
100
AcDbEntity
  8
0
 62
7
100
AcDbSpline
 70
8
 71
3
 72
8
 73
4
 74
0
 40
0
 40
0
 40
0
 40
0
 40
1
 40
1
 40
1
 40
1
 10
207.006168
 20
-79.140648
 30
0.0
 10
207.099960
 20
-79.234392
 30
0.0
 10
207.227150
 20
-79.287038
 30
0.0
 10
207.359758
 20
-79.287004
 30
0.0
  0
SPLINE
  5
1c3
100
AcDbEntity
  8
0
 62
7
100
AcDbSpline
 70
8
 71
3
 72
8
 73
4
 74
0
 40
0
 40
0
 40
0
 40
0
 40
1
 40
1
 40
1
 40
1
 10
207.359758
 20
-65.287032
 30
0.0
 10
207.227106
 20
-65.286999
 30
0.0
 10
207.099877
 20
-65.339679
 30
0.0
 10
207.006078
 20
-65.433479
 30
0.0
  0
SPLINE
  5
1c4
100
AcDbEntity
  8
0
 62
7
100
AcDbSpline
 70
8
 71
3
 72
8
 73
4
 74
0
 40
0
 40
0
 40
0
 40
0
 40
1
 40
1
 40
1
 40
1
 10
207.006078
 20
-65.433479
 30
0.0
 10
206.912279
 20
-65.527278
 30
0.0
 10
206.859598
 20
-65.654506
 30
0.0
 10
206.859632
 20
-65.787158
 30
0.0
  0
SPLINE
  5
1c5
100
AcDbEntity
  8
0
 62
7
100
AcDbSpline
 70
8
 71
3
 72
8
 73
4
 74
0
 40
0
 40
0
 40
0
 40
0
 40
1
 40
1
 40
1
 40
1
 10
220.859604
 20
-65.787158
 30
0.0
 10
220.859638
 20
-65.654550
 30
0.0
 10
220.806992
 20
-65.527360
 30
0.0
 10
220.713247
 20
-65.433568
 30
0.0
  0
SPLINE
  5
1c6
100
AcDbEntity
  8
0
 62
7
100
AcDbSpline
 70
8
 71
3
 72
8
 73
4
 74
0
 40
0
 40
0
 40
0
 40
0
 40
1
 40
1
 40
1
 40
1
 10
220.713247
 20
-65.433568
 30
0.0
 10
220.619503
 20
-65.339777
 30
0.0
 10
220.492340
 20
-65.287066
 30
0.0
 10
220.359732
 20
-65.287032
 30
0.0
  0
LWPOLYLINE
  5
1c7
100
AcDbEntity
  8
0
 62
7
100
AcDbPolyline
 90
2
 70
0
 10
22.727920
 20
-27.187286
 30
0.0
 10
9.728200
 20
-27.187286
 30
0.0
  0
LWPOLYLINE
  5
1c8
100
AcDbEntity
  8
0
 62
7
100
AcDbPolyline
 90
2
 70
0
 10
220.858080
 20
-78.784846
 30
0.0
 10
220.858080
 20
-65.785126
 30
0.0
  0
LWPOLYLINE
  5
1c9
100
AcDbEntity
  8
0
 62
7
100
AcDbPolyline
 90
2
 70
0
 10
207.357980
 20
-79.285226
 30
0.0
 10
220.357700
 20
-79.285226
 30
0.0
  0
LWPOLYLINE
  5
1ca
100
AcDbEntity
  8
0
 62
7
100
AcDbPolyline
 90
2
 70
0
 10
206.857600
 20
-65.785126
 30
0.0
 10
206.857600
 20
-78.784846
 30
0.0
  0
SPLINE
  5
1cb
100
AcDbEntity
  8
0
 62
7
100
AcDbSpline
 70
8
 71
3
 72
8
 73
4
 74
0
 40
0
 40
0
 40
0
 40
0
 40
1
 40
1
 40
1
 40
1
 10
63.207138
 20
-79.287004
 30
0.0
 10
63.483181
 20
-79.286934
 30
0.0
 10
63.706940
 20
-79.063175
 30
0.0
 10
63.707010
 20
-78.787132
 30
0.0
  0
SPLINE
  5
1cc
100
AcDbEntity
  8
0
 62
7
100
AcDbSpline
 70
8
 71
3
 72
8
 73
4
 74
0
 40
0
 40
0
 40
0
 40
0
 40
1
 40
1
 40
1
 40
1
 10
49.707038
 20
-78.787132
 30
0.0
 10
49.707072
 20
-78.919740
 30
0.0
 10
49.759782
 20
-79.046904
 30
0.0
 10
49.853574
 20
-79.140648
 30
0.0
  0
SPLINE
  5
1cd
100
AcDbEntity
  8
0
 62
7
100
AcDbSpline
 70
8
 71
3
 72
8
 73
4
 74
0
 40
0
 40
0
 40
0
 40
0
 40
1
 40
1
 40
1
 40
1
 10
49.853574
 20
-79.140648
 30
0.0
 10
49.947366
 20
-79.234392
 30
0.0
 10
50.074556
 20
-79.287038
 30
0.0
 10
50.207164
 20
-79.287004
 30
0.0
  0
SPLINE
  5
1ce
100
AcDbEntity
  8
0
 62
7
100
AcDbSpline
 70
8
 71
3
 72
8
 73
4
 74
0
 40
0
 40
0
 40
0
 40
0
 40
1
 40
1
 40
1
 40
1
 10
50.207164
 20
-65.287032
 30
0.0
 10
50.074512
 20
-65.286999
 30
0.0
 10
49.947283
 20
-65.339679
 30
0.0
 10
49.853484
 20
-65.433479
 30
0.0
  0
SPLINE
  5
1cf
100
AcDbEntity
  8
0
 62
7
100
AcDbSpline
 70
8
 71
3
 72
8
 73
4
 74
0
 40
0
 40
0
 40
0
 40
0
 40
1
 40
1
 40
1
 40
1
 10
49.853484
 20
-65.433479
 30
0.0
 10
49.759685
 20
-65.527278
 30
0.0
 10
49.707004
 20
-65.654506
 30
0.0
 10
49.707038
 20
-65.787158
 30
0.0
  0
SPLINE
  5
1d0
100
AcDbEntity
  8
0
 62
7
100
AcDbSpline
 70
8
 71
3
 72
8
 73
4
 74
0
 40
0
 40
0
 40
0
 40
0
 40
1
 40
1
 40
1
 40
1
 10
63.707010
 20
-65.787158
 30
0.0
 10
63.707044
 20
-65.654550
 30
0.0
 10
63.654398
 20
-65.527360
 30
0.0
 10
63.560653
 20
-65.433568
 30
0.0
  0
SPLINE
  5
1d1
100
AcDbEntity
  8
0
 62
7
100
AcDbSpline
 70
8
 71
3
 72
8
 73
4
 74
0
 40
0
 40
0
 40
0
 40
0
 40
1
 40
1
 40
1
 40
1
 10
63.560653
 20
-65.433568
 30
0.0
 10
63.466909
 20
-65.339777
 30
0.0
 10
63.339746
 20
-65.287066
 30
0.0
 10
63.207138
 20
-65.287032
 30
0.0
  0
LWPOLYLINE
  5
1d2
100
AcDbEntity
  8
0
 62
7
100
AcDbPolyline
 90
2
 70
0
 10
220.357700
 20
-65.284746
 30
0.0
 10
207.357980
 20
-65.284746
 30
0.0
  0
LWPOLYLINE
  5
1d3
100
AcDbEntity
  8
0
 62
7
100
AcDbPolyline
 90
2
 70
0
 10
63.705740
 20
-78.784846
 30
0.0
 10
63.705740
 20
-65.785126
 30
0.0
  0
LWPOLYLINE
  5
1d4
100
AcDbEntity
  8
0
 62
7
100
AcDbPolyline
 90
2
 70
0
 10
50.205640
 20
-79.285226
 30
0.0
 10
63.205360
 20
-79.285226
 30
0.0
  0
LWPOLYLINE
  5
1d5
100
AcDbEntity
  8
0
 62
7
100
AcDbPolyline
 90
2
 70
0
 10
49.705260
 20
-65.785126
 30
0.0
 10
49.705260
 20
-78.784846
 30
0.0
  0
SPLINE
  5
1d6
100
AcDbEntity
  8
0
 62
7
100
AcDbSpline
 70
8
 71
3
 72
8
 73
4
 74
0
 40
0
 40
0
 40
0
 40
0
 40
1
 40
1
 40
1
 40
1
 10
20.347280
 20
-79.287004
 30
0.0
 10
20.623372
 20
-79.287004
 30
0.0
 10
20.847208
 20
-79.063224
 30
0.0
 10
20.847279
 20
-78.787132
 30
0.0
  0
SPLINE
  5
1d7
100
AcDbEntity
  8
0
 62
7
100
AcDbSpline
 70
8
 71
3
 72
8
 73
4
 74
0
 40
0
 40
0
 40
0
 40
0
 40
1
 40
1
 40
1
 40
1
 10
6.847281
 20
-78.787132
 30
0.0
 10
6.847351
 20
-79.063224
 30
0.0
 10
7.071188
 20
-79.287004
 30
0.0
 10
7.347280
 20
-79.287004
 30
0.0
  0
SPLINE
  5
1d8
100
AcDbEntity
  8
0
 62
7
100
AcDbSpline
 70
8
 71
3
 72
8
 73
4
 74
0
 40
0
 40
0
 40
0
 40
0
 40
1
 40
1
 40
1
 40
1
 10
7.347280
 20
-65.287032
 30
0.0
 10
7.214650
 20
-65.287032
 30
0.0
 10
7.087454
 20
-65.339728
 30
0.0
 10
6.993683
 20
-65.433523
 30
0.0
  0
SPLINE
  5
1d9
100
AcDbEntity
  8
0
 62
7
100
AcDbSpline
 70
8
 71
3
 72
8
 73
4
 74
0
 40
0
 40
0
 40
0
 40
0
 40
1
 40
1
 40
1
 40
1
 10
6.993683
 20
-65.433523
 30
0.0
 10
6.899911
 20
-65.527319
 30
0.0
 10
6.847248
 20
-65.654528
 30
0.0
 10
6.847281
 20
-65.787158
 30
0.0
  0
SPLINE
  5
1da
100
AcDbEntity
  8
0
 62
7
100
AcDbSpline
 70
8
 71
3
 72
8
 73
4
 74
0
 40
0
 40
0
 40
0
 40
0
 40
1
 40
1
 40
1
 40
1
 10
20.847279
 20
-65.787158
 30
0.0
 10
20.847312
 20
-65.654528
 30
0.0
 10
20.794649
 20
-65.527319
 30
0.0
 10
20.700877
 20
-65.433523
 30
0.0
  0
SPLINE
  5
1db
100
AcDbEntity
  8
0
 62
7
100
AcDbSpline
 70
8
 71
3
 72
8
 73
4
 74
0
 40
0
 40
0
 40
0
 40
0
 40
1
 40
1
 40
1
 40
1
 10
20.700877
 20
-65.433523
 30
0.0
 10
20.607106
 20
-65.339728
 30
0.0
 10
20.479910
 20
-65.287032
 30
0.0
 10
20.347280
 20
-65.287032
 30
0.0
  0
LWPOLYLINE
  5
1dc
100
AcDbEntity
  8
0
 62
7
100
AcDbPolyline
 90
2
 70
0
 10
63.205360
 20
-65.284746
 30
0.0
 10
50.205640
 20
-65.284746
 30
0.0
  0
LWPOLYLINE
  5
1dd
100
AcDbEntity
  8
0
 62
7
100
AcDbPolyline
 90
2
 70
0
 10
20.845780
 20
-78.784846
 30
0.0
 10
20.845780
 20
-65.785126
 30
0.0
  0
LWPOLYLINE
  5
1de
100
AcDbEntity
  8
0
 62
7
100
AcDbPolyline
 90
2
 70
0
 10
7.345680
 20
-79.285226
 30
0.0
 10
20.345400
 20
-79.285226
 30
0.0
  0
LWPOLYLINE
  5
1df
100
AcDbEntity
  8
0
 62
7
100
AcDbPolyline
 90
2
 70
0
 10
6.845300
 20
-65.785126
 30
0.0
 10
6.845300
 20
-78.784846
 30
0.0
  0
SPLINE
  5
1e0
100
AcDbEntity
  8
0
 62
7
100
AcDbSpline
 70
8
 71
3
 72
8
 73
4
 74
0
 40
0
 40
0
 40
0
 40
0
 40
1
 40
1
 40
1
 40
1
 10
53.682646
 20
-60.238274
 30
0.0
 10
53.815298
 20
-60.238308
 30
0.0
 10
53.942527
 20
-60.185627
 30
0.0
 10
54.036326
 20
-60.091828
 30
0.0
  0
SPLINE
  5
1e1
100
AcDbEntity
  8
0
 62
7
100
AcDbSpline
 70
8
 71
3
 72
8
 73
4
 74
0
 40
0
 40
0
 40
0
 40
0
 40
1
 40
1
 40
1
 40
1
 10
54.036326
 20
-60.091828
 30
0.0
 10
54.130125
 20
-59.998029
 30
0.0
 10
54.182806
 20
-59.870800
 30
0.0
 10
54.182772
 20
-59.738148
 30
0.0
  0
SPLINE
  5
1e2
100
AcDbEntity
  8
0
 62
7
100
AcDbSpline
 70
8
 71
3
 72
8
 73
4
 74
0
 40
0
 40
0
 40
0
 40
0
 40
1
 40
1
 40
1
 40
1
 10
40.182546
 20
-59.738148
 30
0.0
 10
40.182512
 20
-59.870800
 30
0.0
 10
40.235193
 20
-59.998029
 30
0.0
 10
40.328992
 20
-60.091828
 30
0.0
  0
SPLINE
  5
1e3
100
AcDbEntity
  8
0
 62
7
100
AcDbSpline
 70
8
 71
3
 72
8
 73
4
 74
0
 40
0
 40
0
 40
0
 40
0
 40
1
 40
1
 40
1
 40
1
 10
40.328992
 20
-60.091828
 30
0.0
 10
40.422791
 20
-60.185627
 30
0.0
 10
40.550020
 20
-60.238308
 30
0.0
 10
40.682672
 20
-60.238274
 30
0.0
  0
SPLINE
  5
1e4
100
AcDbEntity
  8
0
 62
7
100
AcDbSpline
 70
8
 71
3
 72
8
 73
4
 74
0
 40
0
 40
0
 40
0
 40
0
 40
1
 40
1
 40
1
 40
1
 10
40.682672
 20
-46.238302
 30
0.0
 10
40.550064
 20
-46.238269
 30
0.0
 10
40.422874
 20
-46.290915
 30
0.0
 10
40.329082
 20
-46.384659
 30
0.0
  0
SPLINE
  5
1e5
100
AcDbEntity
  8
0
 62
7
100
AcDbSpline
 70
8
 71
3
 72
8
 73
4
 74
0
 40
0
 40
0
 40
0
 40
0
 40
1
 40
1
 40
1
 40
1
 10
40.329082
 20
-46.384659
 30
0.0
 10
40.235290
 20
-46.478403
 30
0.0
 10
40.182580
 20
-46.605566
 30
0.0
 10
40.182546
 20
-46.738174
 30
0.0
  0
SPLINE
  5
1e6
100
AcDbEntity
  8
0
 62
7
100
AcDbSpline
 70
8
 71
3
 72
8
 73
4
 74
0
 40
0
 40
0
 40
0
 40
0
 40
1
 40
1
 40
1
 40
1
 10
54.182772
 20
-46.738174
 30
0.0
 10
54.182738
 20
-46.605566
 30
0.0
 10
54.130028
 20
-46.478403
 30
0.0
 10
54.036236
 20
-46.384659
 30
0.0
  0
SPLINE
  5
1e7
100
AcDbEntity
  8
0
 62
7
100
AcDbSpline
 70
8
 71
3
 72
8
 73
4
 74
0
 40
0
 40
0
 40
0
 40
0
 40
1
 40
1
 40
1
 40
1
 10
54.036236
 20
-46.384659
 30
0.0
 10
53.942444
 20
-46.290915
 30
0.0
 10
53.815254
 20
-46.238269
 30
0.0
 10
53.682646
 20
-46.238302
 30
0.0
  0
LWPOLYLINE
  5
1e8
100
AcDbEntity
  8
0
 62
7
100
AcDbPolyline
 90
2
 70
0
 10
20.345400
 20
-65.284746
 30
0.0
 10
7.345680
 20
-65.284746
 30
0.0
  0
LWPOLYLINE
  5
1e9
100
AcDbEntity
  8
0
 62
7
100
AcDbPolyline
 90
2
 70
0
 10
54.180740
 20
-59.737386
 30
0.0
 10
54.180740
 20
-46.737666
 30
0.0
  0
LWPOLYLINE
  5
1ea
100
AcDbEntity
  8
0
 62
7
100
AcDbPolyline
 90
2
 70
0
 10
40.680640
 20
-60.237766
 30
0.0
 10
53.680360
 20
-60.237766
 30
0.0
  0
LWPOLYLINE
  5
1eb
100
AcDbEntity
  8
0
 62
7
100
AcDbPolyline
 90
2
 70
0
 10
40.180260
 20
-46.737666
 30
0.0
 10
40.180260
 20
-59.737386
 30
0.0
  0
SPLINE
  5
1ec
100
AcDbEntity
  8
0
 62
7
100
AcDbSpline
 70
8
 71
3
 72
8
 73
4
 74
0
 40
0
 40
0
 40
0
 40
0
 40
1
 40
1
 40
1
 40
1
 10
72.731376
 20
-60.238274
 30
0.0
 10
72.864028
 20
-60.238308
 30
0.0
 10
72.991257
 20
-60.185627
 30
0.0
 10
73.085056
 20
-60.091828
 30
0.0
  0
SPLINE
  5
1ed
100
AcDbEntity
  8
0
 62
7
100
AcDbSpline
 70
8
 71
3
 72
8
 73
4
 74
0
 40
0
 40
0
 40
0
 40
0
 40
1
 40
1
 40
1
 40
1
 10
73.085056
 20
-60.091828
 30
0.0
 10
73.178855
 20
-59.998029
 30
0.0
 10
73.231536
 20
-59.870800
 30
0.0
 10
73.231502
 20
-59.738148
 30
0.0
  0
SPLINE
  5
1ee
100
AcDbEntity
  8
0
 62
7
100
AcDbSpline
 70
8
 71
3
 72
8
 73
4
 74
0
 40
0
 40
0
 40
0
 40
0
 40
1
 40
1
 40
1
 40
1
 10
59.231530
 20
-59.738148
 30
0.0
 10
59.231496
 20
-59.870756
 30
0.0
 10
59.284142
 20
-59.997946
 30
0.0
 10
59.377887
 20
-60.091738
 30
0.0
  0
SPLINE
  5
1ef
100
AcDbEntity
  8
0
 62
7
100
AcDbSpline
 70
8
 71
3
 72
8
 73
4
 74
0
 40
0
 40
0
 40
0
 40
0
 40
1
 40
1
 40
1
 40
1
 10
59.377887
 20
-60.091738
 30
0.0
 10
59.471631
 20
-60.185530
 30
0.0
 10
59.598794
 20
-60.238241
 30
0.0
 10
59.731402
 20
-60.238274
 30
0.0
  0
SPLINE
  5
1f0
100
AcDbEntity
  8
0
 62
7
100
AcDbSpline
 70
8
 71
3
 72
8
 73
4
 74
0
 40
0
 40
0
 40
0
 40
0
 40
1
 40
1
 40
1
 40
1
 10
59.731402
 20
-46.238302
 30
0.0
 10
59.455359
 20
-46.238372
 30
0.0
 10
59.231600
 20
-46.462132
 30
0.0
 10
59.231530
 20
-46.738174
 30
0.0
  0
SPLINE
  5
1f1
100
AcDbEntity
  8
0
 62
7
100
AcDbSpline
 70
8
 71
3
 72
8
 73
4
 74
0
 40
0
 40
0
 40
0
 40
0
 40
1
 40
1
 40
1
 40
1
 10
73.231502
 20
-46.738174
 30
0.0
 10
73.231468
 20
-46.605566
 30
0.0
 10
73.178758
 20
-46.478403
 30
0.0
 10
73.084966
 20
-46.384659
 30
0.0
  0
SPLINE
  5
1f2
100
AcDbEntity
  8
0
 62
7
100
AcDbSpline
 70
8
 71
3
 72
8
 73
4
 74
0
 40
0
 40
0
 40
0
 40
0
 40
1
 40
1
 40
1
 40
1
 10
73.084966
 20
-46.384659
 30
0.0
 10
72.991174
 20
-46.290915
 30
0.0
 10
72.863984
 20
-46.238269
 30
0.0
 10
72.731376
 20
-46.238302
 30
0.0
  0
LWPOLYLINE
  5
1f3
100
AcDbEntity
  8
0
 62
7
100
AcDbPolyline
 90
2
 70
0
 10
53.680360
 20
-46.237286
 30
0.0
 10
40.680640
 20
-46.237286
 30
0.0
  0
LWPOLYLINE
  5
1f4
100
AcDbEntity
  8
0
 62
7
100
AcDbPolyline
 90
2
 70
0
 10
73.230740
 20
-59.737386
 30
0.0
 10
73.230740
 20
-46.737666
 30
0.0
  0
LWPOLYLINE
  5
1f5
100
AcDbEntity
  8
0
 62
7
100
AcDbPolyline
 90
2
 70
0
 10
59.730640
 20
-60.237766
 30
0.0
 10
72.730360
 20
-60.237766
 30
0.0
  0
LWPOLYLINE
  5
1f6
100
AcDbEntity
  8
0
 62
7
100
AcDbPolyline
 90
2
 70
0
 10
59.230260
 20
-46.737666
 30
0.0
 10
59.230260
 20
-59.737386
 30
0.0
  0
SPLINE
  5
1f7
100
AcDbEntity
  8
0
 62
7
100
AcDbSpline
 70
8
 71
3
 72
8
 73
4
 74
0
 40
0
 40
0
 40
0
 40
0
 40
1
 40
1
 40
1
 40
1
 10
91.780360
 20
-60.238274
 30
0.0
 10
91.912968
 20
-60.238241
 30
0.0
 10
92.040131
 20
-60.185530
 30
0.0
 10
92.133875
 20
-60.091738
 30
0.0
  0
SPLINE
  5
1f8
100
AcDbEntity
  8
0
 62
7
100
AcDbSpline
 70
8
 71
3
 72
8
 73
4
 74
0
 40
0
 40
0
 40
0
 40
0
 40
1
 40
1
 40
1
 40
1
 10
92.133875
 20
-60.091738
 30
0.0
 10
92.227620
 20
-59.997946
 30
0.0
 10
92.280266
 20
-59.870756
 30
0.0
 10
92.280232
 20
-59.738148
 30
0.0
  0
SPLINE
  5
1f9
100
AcDbEntity
  8
0
 62
7
100
AcDbSpline
 70
8
 71
3
 72
8
 73
4
 74
0
 40
0
 40
0
 40
0
 40
0
 40
1
 40
1
 40
1
 40
1
 10
78.280260
 20
-59.738148
 30
0.0
 10
78.280226
 20
-59.870800
 30
0.0
 10
78.332907
 20
-59.998029
 30
0.0
 10
78.426706
 20
-60.091828
 30
0.0
  0
SPLINE
  5
1fa
100
AcDbEntity
  8
0
 62
7
100
AcDbSpline
 70
8
 71
3
 72
8
 73
4
 74
0
 40
0
 40
0
 40
0
 40
0
 40
1
 40
1
 40
1
 40
1
 10
78.426706
 20
-60.091828
 30
0.0
 10
78.520505
 20
-60.185627
 30
0.0
 10
78.647734
 20
-60.238308
 30
0.0
 10
78.780386
 20
-60.238274
 30
0.0
  0
SPLINE
  5
1fb
100
AcDbEntity
  8
0
 62
7
100
AcDbSpline
 70
8
 71
3
 72
8
 73
4
 74
0
 40
0
 40
0
 40
0
 40
0
 40
1
 40
1
 40
1
 40
1
 10
78.780386
 20
-46.238302
 30
0.0
 10
78.647778
 20
-46.238269
 30
0.0
 10
78.520588
 20
-46.290915
 30
0.0
 10
78.426796
 20
-46.384659
 30
0.0
  0
SPLINE
  5
1fc
100
AcDbEntity
  8
0
 62
7
100
AcDbSpline
 70
8
 71
3
 72
8
 73
4
 74
0
 40
0
 40
0
 40
0
 40
0
 40
1
 40
1
 40
1
 40
1
 10
78.426796
 20
-46.384659
 30
0.0
 10
78.333004
 20
-46.478403
 30
0.0
 10
78.280294
 20
-46.605566
 30
0.0
 10
78.280260
 20
-46.738174
 30
0.0
  0
SPLINE
  5
1fd
100
AcDbEntity
  8
0
 62
7
100
AcDbSpline
 70
8
 71
3
 72
8
 73
4
 74
0
 40
0
 40
0
 40
0
 40
0
 40
1
 40
1
 40
1
 40
1
 10
92.280232
 20
-46.738174
 30
0.0
 10
92.280162
 20
-46.462132
 30
0.0
 10
92.056403
 20
-46.238372
 30
0.0
 10
91.780360
 20
-46.238302
 30
0.0
  0
LWPOLYLINE
  5
1fe
100
AcDbEntity
  8
0
 62
7
100
AcDbPolyline
 90
2
 70
0
 10
72.730360
 20
-46.237286
 30
0.0
 10
59.730640
 20
-46.237286
 30
0.0
  0
LWPOLYLINE
  5
1ff
100
AcDbEntity
  8
0
 62
7
100
AcDbPolyline
 90
2
 70
0
 10
92.278200
 20
-59.737386
 30
0.0
 10
92.278200
 20
-46.737666
 30
0.0
  0
LWPOLYLINE
  5
200
100
AcDbEntity
  8
0
 62
7
100
AcDbPolyline
 90
2
 70
0
 10
78.778100
 20
-60.237766
 30
0.0
 10
91.777820
 20
-60.237766
 30
0.0
  0
LWPOLYLINE
  5
201
100
AcDbEntity
  8
0
 62
7
100
AcDbPolyline
 90
2
 70
0
 10
78.280260
 20
-46.737666
 30
0.0
 10
78.280260
 20
-59.737386
 30
0.0
  0
SPLINE
  5
202
100
AcDbEntity
  8
0
 62
7
100
AcDbSpline
 70
8
 71
3
 72
8
 73
4
 74
0
 40
0
 40
0
 40
0
 40
0
 40
1
 40
1
 40
1
 40
1
 10
110.829090
 20
-60.238274
 30
0.0
 10
110.961698
 20
-60.238241
 30
0.0
 10
111.088861
 20
-60.185530
 30
0.0
 10
111.182605
 20
-60.091738
 30
0.0
  0
SPLINE
  5
203
100
AcDbEntity
  8
0
 62
7
100
AcDbSpline
 70
8
 71
3
 72
8
 73
4
 74
0
 40
0
 40
0
 40
0
 40
0
 40
1
 40
1
 40
1
 40
1
 10
111.182605
 20
-60.091738
 30
0.0
 10
111.276350
 20
-59.997946
 30
0.0
 10
111.328996
 20
-59.870756
 30
0.0
 10
111.328962
 20
-59.738148
 30
0.0
  0
SPLINE
  5
204
100
AcDbEntity
  8
0
 62
7
100
AcDbSpline
 70
8
 71
3
 72
8
 73
4
 74
0
 40
0
 40
0
 40
0
 40
0
 40
1
 40
1
 40
1
 40
1
 10
97.328990
 20
-59.738148
 30
0.0
 10
97.328956
 20
-59.870800
 30
0.0
 10
97.381637
 20
-59.998029
 30
0.0
 10
97.475436
 20
-60.091828
 30
0.0
  0
SPLINE
  5
205
100
AcDbEntity
  8
0
 62
7
100
AcDbSpline
 70
8
 71
3
 72
8
 73
4
 74
0
 40
0
 40
0
 40
0
 40
0
 40
1
 40
1
 40
1
 40
1
 10
97.475436
 20
-60.091828
 30
0.0
 10
97.569235
 20
-60.185627
 30
0.0
 10
97.696464
 20
-60.238308
 30
0.0
 10
97.829116
 20
-60.238274
 30
0.0
  0
SPLINE
  5
206
100
AcDbEntity
  8
0
 62
7
100
AcDbSpline
 70
8
 71
3
 72
8
 73
4
 74
0
 40
0
 40
0
 40
0
 40
0
 40
1
 40
1
 40
1
 40
1
 10
97.829116
 20
-46.238302
 30
0.0
 10
97.696508
 20
-46.238269
 30
0.0
 10
97.569318
 20
-46.290915
 30
0.0
 10
97.475526
 20
-46.384659
 30
0.0
  0
SPLINE
  5
207
100
AcDbEntity
  8
0
 62
7
100
AcDbSpline
 70
8
 71
3
 72
8
 73
4
 74
0
 40
0
 40
0
 40
0
 40
0
 40
1
 40
1
 40
1
 40
1
 10
97.475526
 20
-46.384659
 30
0.0
 10
97.381734
 20
-46.478403
 30
0.0
 10
97.329024
 20
-46.605566
 30
0.0
 10
97.328990
 20
-46.738174
 30
0.0
  0
SPLINE
  5
208
100
AcDbEntity
  8
0
 62
7
100
AcDbSpline
 70
8
 71
3
 72
8
 73
4
 74
0
 40
0
 40
0
 40
0
 40
0
 40
1
 40
1
 40
1
 40
1
 10
111.328962
 20
-46.738174
 30
0.0
 10
111.328892
 20
-46.462132
 30
0.0
 10
111.105133
 20
-46.238372
 30
0.0
 10
110.829090
 20
-46.238302
 30
0.0
  0
LWPOLYLINE
  5
209
100
AcDbEntity
  8
0
 62
7
100
AcDbPolyline
 90
2
 70
0
 10
91.777820
 20
-46.237286
 30
0.0
 10
78.778100
 20
-46.237286
 30
0.0
  0
LWPOLYLINE
  5
20a
100
AcDbEntity
  8
0
 62
7
100
AcDbPolyline
 90
2
 70
0
 10
111.328200
 20
-59.737386
 30
0.0
 10
111.328200
 20
-46.737666
 30
0.0
  0
LWPOLYLINE
  5
20b
100
AcDbEntity
  8
0
 62
7
100
AcDbPolyline
 90
2
 70
0
 10
97.828100
 20
-60.237766
 30
0.0
 10
110.827820
 20
-60.237766
 30
0.0
  0
LWPOLYLINE
  5
20c
100
AcDbEntity
  8
0
 62
7
100
AcDbPolyline
 90
2
 70
0
 10
97.327720
 20
-46.737666
 30
0.0
 10
97.327720
 20
-59.737386
 30
0.0
  0
SPLINE
  5
20d
100
AcDbEntity
  8
0
 62
7
100
AcDbSpline
 70
8
 71
3
 72
8
 73
4
 74
0
 40
0
 40
0
 40
0
 40
0
 40
1
 40
1
 40
1
 40
1
 10
129.877820
 20
-60.238274
 30
0.0
 10
130.010472
 20
-60.238308
 30
0.0
 10
130.137701
 20
-60.185627
 30
0.0
 10
130.231500
 20
-60.091828
 30
0.0
  0
SPLINE
  5
20e
100
AcDbEntity
  8
0
 62
7
100
AcDbSpline
 70
8
 71
3
 72
8
 73
4
 74
0
 40
0
 40
0
 40
0
 40
0
 40
1
 40
1
 40
1
 40
1
 10
130.231500
 20
-60.091828
 30
0.0
 10
130.325299
 20
-59.998029
 30
0.0
 10
130.377980
 20
-59.870800
 30
0.0
 10
130.377946
 20
-59.738148
 30
0.0
  0
SPLINE
  5
20f
100
AcDbEntity
  8
0
 62
7
100
AcDbSpline
 70
8
 71
3
 72
8
 73
4
 74
0
 40
0
 40
0
 40
0
 40
0
 40
1
 40
1
 40
1
 40
1
 10
116.377974
 20
-59.738148
 30
0.0
 10
116.377940
 20
-59.870756
 30
0.0
 10
116.430586
 20
-59.997946
 30
0.0
 10
116.524331
 20
-60.091738
 30
0.0
  0
SPLINE
  5
210
100
AcDbEntity
  8
0
 62
7
100
AcDbSpline
 70
8
 71
3
 72
8
 73
4
 74
0
 40
0
 40
0
 40
0
 40
0
 40
1
 40
1
 40
1
 40
1
 10
116.524331
 20
-60.091738
 30
0.0
 10
116.618075
 20
-60.185530
 30
0.0
 10
116.745238
 20
-60.238241
 30
0.0
 10
116.877846
 20
-60.238274
 30
0.0
  0
SPLINE
  5
211
100
AcDbEntity
  8
0
 62
7
100
AcDbSpline
 70
8
 71
3
 72
8
 73
4
 74
0
 40
0
 40
0
 40
0
 40
0
 40
1
 40
1
 40
1
 40
1
 10
116.877846
 20
-46.238302
 30
0.0
 10
116.601803
 20
-46.238372
 30
0.0
 10
116.378044
 20
-46.462132
 30
0.0
 10
116.377974
 20
-46.738174
 30
0.0
  0
SPLINE
  5
212
100
AcDbEntity
  8
0
 62
7
100
AcDbSpline
 70
8
 71
3
 72
8
 73
4
 74
0
 40
0
 40
0
 40
0
 40
0
 40
1
 40
1
 40
1
 40
1
 10
130.377946
 20
-46.738174
 30
0.0
 10
130.377912
 20
-46.605566
 30
0.0
 10
130.325202
 20
-46.478403
 30
0.0
 10
130.231410
 20
-46.384659
 30
0.0
  0
SPLINE
  5
213
100
AcDbEntity
  8
0
 62
7
100
AcDbSpline
 70
8
 71
3
 72
8
 73
4
 74
0
 40
0
 40
0
 40
0
 40
0
 40
1
 40
1
 40
1
 40
1
 10
130.231410
 20
-46.384659
 30
0.0
 10
130.137618
 20
-46.290915
 30
0.0
 10
130.010428
 20
-46.238269
 30
0.0
 10
129.877820
 20
-46.238302
 30
0.0
  0
LWPOLYLINE
  5
214
100
AcDbEntity
  8
0
 62
7
100
AcDbPolyline
 90
2
 70
0
 10
110.827820
 20
-46.237286
 30
0.0
 10
97.828100
 20
-46.237286
 30
0.0
  0
LWPOLYLINE
  5
215
100
AcDbEntity
  8
0
 62
7
100
AcDbPolyline
 90
2
 70
0
 10
130.375660
 20
-59.737386
 30
0.0
 10
130.375660
 20
-46.737666
 30
0.0
  0
LWPOLYLINE
  5
216
100
AcDbEntity
  8
0
 62
7
100
AcDbPolyline
 90
2
 70
0
 10
116.875560
 20
-60.237766
 30
0.0
 10
129.877820
 20
-60.237766
 30
0.0
  0
LWPOLYLINE
  5
217
100
AcDbEntity
  8
0
 62
7
100
AcDbPolyline
 90
2
 70
0
 10
116.377720
 20
-46.737666
 30
0.0
 10
116.377720
 20
-59.737386
 30
0.0
  0
SPLINE
  5
218
100
AcDbEntity
  8
0
 62
7
100
AcDbSpline
 70
8
 71
3
 72
8
 73
4
 74
0
 40
0
 40
0
 40
0
 40
0
 40
1
 40
1
 40
1
 40
1
 10
148.926550
 20
-60.238274
 30
0.0
 10
149.059202
 20
-60.238308
 30
0.0
 10
149.186431
 20
-60.185627
 30
0.0
 10
149.280230
 20
-60.091828
 30
0.0
  0
SPLINE
  5
219
100
AcDbEntity
  8
0
 62
7
100
AcDbSpline
 70
8
 71
3
 72
8
 73
4
 74
0
 40
0
 40
0
 40
0
 40
0
 40
1
 40
1
 40
1
 40
1
 10
149.280230
 20
-60.091828
 30
0.0
 10
149.374029
 20
-59.998029
 30
0.0
 10
149.426710
 20
-59.870800
 30
0.0
 10
149.426676
 20
-59.738148
 30
0.0
  0
SPLINE
  5
21a
100
AcDbEntity
  8
0
 62
7
100
AcDbSpline
 70
8
 71
3
 72
8
 73
4
 74
0
 40
0
 40
0
 40
0
 40
0
 40
1
 40
1
 40
1
 40
1
 10
135.426704
 20
-59.738148
 30
0.0
 10
135.426670
 20
-59.870756
 30
0.0
 10
135.479316
 20
-59.997946
 30
0.0
 10
135.573061
 20
-60.091738
 30
0.0
  0
SPLINE
  5
21b
100
AcDbEntity
  8
0
 62
7
100
AcDbSpline
 70
8
 71
3
 72
8
 73
4
 74
0
 40
0
 40
0
 40
0
 40
0
 40
1
 40
1
 40
1
 40
1
 10
135.573061
 20
-60.091738
 30
0.0
 10
135.666805
 20
-60.185530
 30
0.0
 10
135.793968
 20
-60.238241
 30
0.0
 10
135.926576
 20
-60.238274
 30
0.0
  0
SPLINE
  5
21c
100
AcDbEntity
  8
0
 62
7
100
AcDbSpline
 70
8
 71
3
 72
8
 73
4
 74
0
 40
0
 40
0
 40
0
 40
0
 40
1
 40
1
 40
1
 40
1
 10
135.926576
 20
-46.238302
 30
0.0
 10
135.650533
 20
-46.238372
 30
0.0
 10
135.426774
 20
-46.462132
 30
0.0
 10
135.426704
 20
-46.738174
 30
0.0
  0
SPLINE
  5
21d
100
AcDbEntity
  8
0
 62
7
100
AcDbSpline
 70
8
 71
3
 72
8
 73
4
 74
0
 40
0
 40
0
 40
0
 40
0
 40
1
 40
1
 40
1
 40
1
 10
149.426676
 20
-46.738174
 30
0.0
 10
149.426642
 20
-46.605566
 30
0.0
 10
149.373932
 20
-46.478403
 30
0.0
 10
149.280140
 20
-46.384659
 30
0.0
  0
SPLINE
  5
21e
100
AcDbEntity
  8
0
 62
7
100
AcDbSpline
 70
8
 71
3
 72
8
 73
4
 74
0
 40
0
 40
0
 40
0
 40
0
 40
1
 40
1
 40
1
 40
1
 10
149.280140
 20
-46.384659
 30
0.0
 10
149.186348
 20
-46.290915
 30
0.0
 10
149.059158
 20
-46.238269
 30
0.0
 10
148.926550
 20
-46.238302
 30
0.0
  0
LWPOLYLINE
  5
21f
100
AcDbEntity
  8
0
 62
7
100
AcDbPolyline
 90
2
 70
0
 10
129.877820
 20
-46.237286
 30
0.0
 10
116.875560
 20
-46.237286
 30
0.0
  0
LWPOLYLINE
  5
220
100
AcDbEntity
  8
0
 62
7
100
AcDbPolyline
 90
2
 70
0
 10
149.425660
 20
-59.737386
 30
0.0
 10
149.425660
 20
-46.737666
 30
0.0
  0
LWPOLYLINE
  5
221
100
AcDbEntity
  8
0
 62
7
100
AcDbPolyline
 90
2
 70
0
 10
135.925560
 20
-60.237766
 30
0.0
 10
148.925280
 20
-60.237766
 30
0.0
  0
LWPOLYLINE
  5
222
100
AcDbEntity
  8
0
 62
7
100
AcDbPolyline
 90
2
 70
0
 10
135.425180
 20
-46.737666
 30
0.0
 10
135.425180
 20
-59.737386
 30
0.0
  0
SPLINE
  5
223
100
AcDbEntity
  8
0
 62
7
100
AcDbSpline
 70
8
 71
3
 72
8
 73
4
 74
0
 40
0
 40
0
 40
0
 40
0
 40
1
 40
1
 40
1
 40
1
 10
167.975534
 20
-60.238274
 30
0.0
 10
168.108142
 20
-60.238241
 30
0.0
 10
168.235305
 20
-60.185530
 30
0.0
 10
168.329049
 20
-60.091738
 30
0.0
  0
SPLINE
  5
224
100
AcDbEntity
  8
0
 62
7
100
AcDbSpline
 70
8
 71
3
 72
8
 73
4
 74
0
 40
0
 40
0
 40
0
 40
0
 40
1
 40
1
 40
1
 40
1
 10
168.329049
 20
-60.091738
 30
0.0
 10
168.422794
 20
-59.997946
 30
0.0
 10
168.475440
 20
-59.870756
 30
0.0
 10
168.475406
 20
-59.738148
 30
0.0
  0
SPLINE
  5
225
100
AcDbEntity
  8
0
 62
7
100
AcDbSpline
 70
8
 71
3
 72
8
 73
4
 74
0
 40
0
 40
0
 40
0
 40
0
 40
1
 40
1
 40
1
 40
1
 10
154.475434
 20
-59.738148
 30
0.0
 10
154.475400
 20
-59.870800
 30
0.0
 10
154.528081
 20
-59.998029
 30
0.0
 10
154.621880
 20
-60.091828
 30
0.0
  0
SPLINE
  5
226
100
AcDbEntity
  8
0
 62
7
100
AcDbSpline
 70
8
 71
3
 72
8
 73
4
 74
0
 40
0
 40
0
 40
0
 40
0
 40
1
 40
1
 40
1
 40
1
 10
154.621880
 20
-60.091828
 30
0.0
 10
154.715679
 20
-60.185627
 30
0.0
 10
154.842908
 20
-60.238308
 30
0.0
 10
154.975560
 20
-60.238274
 30
0.0
  0
SPLINE
  5
227
100
AcDbEntity
  8
0
 62
7
100
AcDbSpline
 70
8
 71
3
 72
8
 73
4
 74
0
 40
0
 40
0
 40
0
 40
0
 40
1
 40
1
 40
1
 40
1
 10
154.975560
 20
-46.238302
 30
0.0
 10
154.842952
 20
-46.238269
 30
0.0
 10
154.715762
 20
-46.290915
 30
0.0
 10
154.621970
 20
-46.384659
 30
0.0
  0
SPLINE
  5
228
100
AcDbEntity
  8
0
 62
7
100
AcDbSpline
 70
8
 71
3
 72
8
 73
4
 74
0
 40
0
 40
0
 40
0
 40
0
 40
1
 40
1
 40
1
 40
1
 10
154.621970
 20
-46.384659
 30
0.0
 10
154.528178
 20
-46.478403
 30
0.0
 10
154.475468
 20
-46.605566
 30
0.0
 10
154.475434
 20
-46.738174
 30
0.0
  0
SPLINE
  5
229
100
AcDbEntity
  8
0
 62
7
100
AcDbSpline
 70
8
 71
3
 72
8
 73
4
 74
0
 40
0
 40
0
 40
0
 40
0
 40
1
 40
1
 40
1
 40
1
 10
168.475406
 20
-46.738174
 30
0.0
 10
168.475336
 20
-46.462132
 30
0.0
 10
168.251577
 20
-46.238372
 30
0.0
 10
167.975534
 20
-46.238302
 30
0.0
  0
LWPOLYLINE
  5
22a
100
AcDbEntity
  8
0
 62
7
100
AcDbPolyline
 90
2
 70
0
 10
148.925280
 20
-46.237286
 30
0.0
 10
135.925560
 20
-46.237286
 30
0.0
  0
LWPOLYLINE
  5
22b
100
AcDbEntity
  8
0
 62
7
100
AcDbPolyline
 90
2
 70
0
 10
168.473120
 20
-59.737386
 30
0.0
 10
168.473120
 20
-46.737666
 30
0.0
  0
LWPOLYLINE
  5
22c
100
AcDbEntity
  8
0
 62
7
100
AcDbPolyline
 90
2
 70
0
 10
154.973020
 20
-60.237766
 30
0.0
 10
167.975280
 20
-60.237766
 30
0.0
  0
LWPOLYLINE
  5
22d
100
AcDbEntity
  8
0
 62
7
100
AcDbPolyline
 90
2
 70
0
 10
154.475180
 20
-46.737666
 30
0.0
 10
154.475180
 20
-59.737386
 30
0.0
  0
SPLINE
  5
22e
100
AcDbEntity
  8
0
 62
7
100
AcDbSpline
 70
8
 71
3
 72
8
 73
4
 74
0
 40
0
 40
0
 40
0
 40
0
 40
1
 40
1
 40
1
 40
1
 10
187.024264
 20
-60.238274
 30
0.0
 10
187.156916
 20
-60.238308
 30
0.0
 10
187.284145
 20
-60.185627
 30
0.0
 10
187.377944
 20
-60.091828
 30
0.0
  0
SPLINE
  5
22f
100
AcDbEntity
  8
0
 62
7
100
AcDbSpline
 70
8
 71
3
 72
8
 73
4
 74
0
 40
0
 40
0
 40
0
 40
0
 40
1
 40
1
 40
1
 40
1
 10
187.377944
 20
-60.091828
 30
0.0
 10
187.471743
 20
-59.998029
 30
0.0
 10
187.524424
 20
-59.870800
 30
0.0
 10
187.524390
 20
-59.738148
 30
0.0
  0
SPLINE
  5
230
100
AcDbEntity
  8
0
 62
7
100
AcDbSpline
 70
8
 71
3
 72
8
 73
4
 74
0
 40
0
 40
0
 40
0
 40
0
 40
1
 40
1
 40
1
 40
1
 10
173.524164
 20
-59.738148
 30
0.0
 10
173.524130
 20
-59.870800
 30
0.0
 10
173.576811
 20
-59.998029
 30
0.0
 10
173.670610
 20
-60.091828
 30
0.0
  0
SPLINE
  5
231
100
AcDbEntity
  8
0
 62
7
100
AcDbSpline
 70
8
 71
3
 72
8
 73
4
 74
0
 40
0
 40
0
 40
0
 40
0
 40
1
 40
1
 40
1
 40
1
 10
173.670610
 20
-60.091828
 30
0.0
 10
173.764409
 20
-60.185627
 30
0.0
 10
173.891638
 20
-60.238308
 30
0.0
 10
174.024290
 20
-60.238274
 30
0.0
  0
SPLINE
  5
232
100
AcDbEntity
  8
0
 62
7
100
AcDbSpline
 70
8
 71
3
 72
8
 73
4
 74
0
 40
0
 40
0
 40
0
 40
0
 40
1
 40
1
 40
1
 40
1
 10
174.024290
 20
-46.238302
 30
0.0
 10
173.891682
 20
-46.238269
 30
0.0
 10
173.764492
 20
-46.290915
 30
0.0
 10
173.670700
 20
-46.384659
 30
0.0
  0
SPLINE
  5
233
100
AcDbEntity
  8
0
 62
7
100
AcDbSpline
 70
8
 71
3
 72
8
 73
4
 74
0
 40
0
 40
0
 40
0
 40
0
 40
1
 40
1
 40
1
 40
1
 10
173.670700
 20
-46.384659
 30
0.0
 10
173.576908
 20
-46.478403
 30
0.0
 10
173.524198
 20
-46.605566
 30
0.0
 10
173.524164
 20
-46.738174
 30
0.0
  0
SPLINE
  5
234
100
AcDbEntity
  8
0
 62
7
100
AcDbSpline
 70
8
 71
3
 72
8
 73
4
 74
0
 40
0
 40
0
 40
0
 40
0
 40
1
 40
1
 40
1
 40
1
 10
187.524390
 20
-46.738174
 30
0.0
 10
187.524356
 20
-46.605566
 30
0.0
 10
187.471646
 20
-46.478403
 30
0.0
 10
187.377854
 20
-46.384659
 30
0.0
  0
SPLINE
  5
235
100
AcDbEntity
  8
0
 62
7
100
AcDbSpline
 70
8
 71
3
 72
8
 73
4
 74
0
 40
0
 40
0
 40
0
 40
0
 40
1
 40
1
 40
1
 40
1
 10
187.377854
 20
-46.384659
 30
0.0
 10
187.284062
 20
-46.290915
 30
0.0
 10
187.156872
 20
-46.238269
 30
0.0
 10
187.024264
 20
-46.238302
 30
0.0
  0
LWPOLYLINE
  5
236
100
AcDbEntity
  8
0
 62
7
100
AcDbPolyline
 90
2
 70
0
 10
167.975280
 20
-46.237286
 30
0.0
 10
154.973020
 20
-46.237286
 30
0.0
  0
LWPOLYLINE
  5
237
100
AcDbEntity
  8
0
 62
7
100
AcDbPolyline
 90
2
 70
0
 10
187.523120
 20
-59.737386
 30
0.0
 10
187.523120
 20
-46.737666
 30
0.0
  0
LWPOLYLINE
  5
238
100
AcDbEntity
  8
0
 62
7
100
AcDbPolyline
 90
2
 70
0
 10
174.023020
 20
-60.237766
 30
0.0
 10
187.022740
 20
-60.237766
 30
0.0
  0
LWPOLYLINE
  5
239
100
AcDbEntity
  8
0
 62
7
100
AcDbPolyline
 90
2
 70
0
 10
173.522640
 20
-46.737666
 30
0.0
 10
173.522640
 20
-59.737386
 30
0.0
  0
SPLINE
  5
23a
100
AcDbEntity
  8
0
 62
7
100
AcDbSpline
 70
8
 71
3
 72
8
 73
4
 74
0
 40
0
 40
0
 40
0
 40
0
 40
1
 40
1
 40
1
 40
1
 10
206.072994
 20
-60.238274
 30
0.0
 10
206.205646
 20
-60.238308
 30
0.0
 10
206.332875
 20
-60.185627
 30
0.0
 10
206.426674
 20
-60.091828
 30
0.0
  0
SPLINE
  5
23b
100
AcDbEntity
  8
0
 62
7
100
AcDbSpline
 70
8
 71
3
 72
8
 73
4
 74
0
 40
0
 40
0
 40
0
 40
0
 40
1
 40
1
 40
1
 40
1
 10
206.426674
 20
-60.091828
 30
0.0
 10
206.520473
 20
-59.998029
 30
0.0
 10
206.573154
 20
-59.870800
 30
0.0
 10
206.573120
 20
-59.738148
 30
0.0
  0
SPLINE
  5
23c
100
AcDbEntity
  8
0
 62
7
100
AcDbSpline
 70
8
 71
3
 72
8
 73
4
 74
0
 40
0
 40
0
 40
0
 40
0
 40
1
 40
1
 40
1
 40
1
 10
192.573148
 20
-59.738148
 30
0.0
 10
192.573114
 20
-59.870756
 30
0.0
 10
192.625760
 20
-59.997946
 30
0.0
 10
192.719505
 20
-60.091738
 30
0.0
  0
SPLINE
  5
23d
100
AcDbEntity
  8
0
 62
7
100
AcDbSpline
 70
8
 71
3
 72
8
 73
4
 74
0
 40
0
 40
0
 40
0
 40
0
 40
1
 40
1
 40
1
 40
1
 10
192.719505
 20
-60.091738
 30
0.0
 10
192.813249
 20
-60.185530
 30
0.0
 10
192.940412
 20
-60.238241
 30
0.0
 10
193.073020
 20
-60.238274
 30
0.0
  0
SPLINE
  5
23e
100
AcDbEntity
  8
0
 62
7
100
AcDbSpline
 70
8
 71
3
 72
8
 73
4
 74
0
 40
0
 40
0
 40
0
 40
0
 40
1
 40
1
 40
1
 40
1
 10
193.073020
 20
-46.238302
 30
0.0
 10
192.796977
 20
-46.238372
 30
0.0
 10
192.573218
 20
-46.462132
 30
0.0
 10
192.573148
 20
-46.738174
 30
0.0
  0
SPLINE
  5
23f
100
AcDbEntity
  8
0
 62
7
100
AcDbSpline
 70
8
 71
3
 72
8
 73
4
 74
0
 40
0
 40
0
 40
0
 40
0
 40
1
 40
1
 40
1
 40
1
 10
206.573120
 20
-46.738174
 30
0.0
 10
206.573086
 20
-46.605566
 30
0.0
 10
206.520376
 20
-46.478403
 30
0.0
 10
206.426584
 20
-46.384659
 30
0.0
  0
SPLINE
  5
240
100
AcDbEntity
  8
0
 62
7
100
AcDbSpline
 70
8
 71
3
 72
8
 73
4
 74
0
 40
0
 40
0
 40
0
 40
0
 40
1
 40
1
 40
1
 40
1
 10
206.426584
 20
-46.384659
 30
0.0
 10
206.332792
 20
-46.290915
 30
0.0
 10
206.205602
 20
-46.238269
 30
0.0
 10
206.072994
 20
-46.238302
 30
0.0
  0
LWPOLYLINE
  5
241
100
AcDbEntity
  8
0
 62
7
100
AcDbPolyline
 90
2
 70
0
 10
187.022740
 20
-46.237286
 30
0.0
 10
174.023020
 20
-46.237286
 30
0.0
  0
LWPOLYLINE
  5
242
100
AcDbEntity
  8
0
 62
7
100
AcDbPolyline
 90
2
 70
0
 10
206.570580
 20
-59.737386
 30
0.0
 10
206.570580
 20
-46.737666
 30
0.0
  0
LWPOLYLINE
  5
243
100
AcDbEntity
  8
0
 62
7
100
AcDbPolyline
 90
2
 70
0
 10
193.073020
 20
-60.237766
 30
0.0
 10
206.072740
 20
-60.237766
 30
0.0
  0
LWPOLYLINE
  5
244
100
AcDbEntity
  8
0
 62
7
100
AcDbPolyline
 90
2
 70
0
 10
192.572640
 20
-46.737666
 30
0.0
 10
192.572640
 20
-59.737386
 30
0.0
  0
SPLINE
  5
245
100
AcDbEntity
  8
0
 62
7
100
AcDbSpline
 70
8
 71
3
 72
8
 73
4
 74
0
 40
0
 40
0
 40
0
 40
0
 40
1
 40
1
 40
1
 40
1
 10
225.121978
 20
-60.238274
 30
0.0
 10
225.254586
 20
-60.238241
 30
0.0
 10
225.381749
 20
-60.185530
 30
0.0
 10
225.475493
 20
-60.091738
 30
0.0
  0
SPLINE
  5
246
100
AcDbEntity
  8
0
 62
7
100
AcDbSpline
 70
8
 71
3
 72
8
 73
4
 74
0
 40
0
 40
0
 40
0
 40
0
 40
1
 40
1
 40
1
 40
1
 10
225.475493
 20
-60.091738
 30
0.0
 10
225.569238
 20
-59.997946
 30
0.0
 10
225.621884
 20
-59.870756
 30
0.0
 10
225.621850
 20
-59.738148
 30
0.0
  0
SPLINE
  5
247
100
AcDbEntity
  8
0
 62
7
100
AcDbSpline
 70
8
 71
3
 72
8
 73
4
 74
0
 40
0
 40
0
 40
0
 40
0
 40
1
 40
1
 40
1
 40
1
 10
211.621878
 20
-59.738148
 30
0.0
 10
211.621844
 20
-59.870756
 30
0.0
 10
211.674490
 20
-59.997946
 30
0.0
 10
211.768235
 20
-60.091738
 30
0.0
  0
SPLINE
  5
248
100
AcDbEntity
  8
0
 62
7
100
AcDbSpline
 70
8
 71
3
 72
8
 73
4
 74
0
 40
0
 40
0
 40
0
 40
0
 40
1
 40
1
 40
1
 40
1
 10
211.768235
 20
-60.091738
 30
0.0
 10
211.861979
 20
-60.185530
 30
0.0
 10
211.989142
 20
-60.238241
 30
0.0
 10
212.121750
 20
-60.238274
 30
0.0
  0
SPLINE
  5
249
100
AcDbEntity
  8
0
 62
7
100
AcDbSpline
 70
8
 71
3
 72
8
 73
4
 74
0
 40
0
 40
0
 40
0
 40
0
 40
1
 40
1
 40
1
 40
1
 10
212.121750
 20
-46.238302
 30
0.0
 10
211.845707
 20
-46.238372
 30
0.0
 10
211.621948
 20
-46.462132
 30
0.0
 10
211.621878
 20
-46.738174
 30
0.0
  0
SPLINE
  5
24a
100
AcDbEntity
  8
0
 62
7
100
AcDbSpline
 70
8
 71
3
 72
8
 73
4
 74
0
 40
0
 40
0
 40
0
 40
0
 40
1
 40
1
 40
1
 40
1
 10
225.621850
 20
-46.738174
 30
0.0
 10
225.621780
 20
-46.462132
 30
0.0
 10
225.398021
 20
-46.238372
 30
0.0
 10
225.121978
 20
-46.238302
 30
0.0
  0
LWPOLYLINE
  5
24b
100
AcDbEntity
  8
0
 62
7
100
AcDbPolyline
 90
2
 70
0
 10
206.072740
 20
-46.237286
 30
0.0
 10
193.073020
 20
-46.237286
 30
0.0
  0
LWPOLYLINE
  5
24c
100
AcDbEntity
  8
0
 62
7
100
AcDbPolyline
 90
2
 70
0
 10
225.620580
 20
-59.737386
 30
0.0
 10
225.620580
 20
-46.737666
 30
0.0
  0
LWPOLYLINE
  5
24d
100
AcDbEntity
  8
0
 62
7
100
AcDbPolyline
 90
2
 70
0
 10
212.120480
 20
-60.237766
 30
0.0
 10
225.120200
 20
-60.237766
 30
0.0
  0
LWPOLYLINE
  5
24e
100
AcDbEntity
  8
0
 62
7
100
AcDbPolyline
 90
2
 70
0
 10
211.620100
 20
-46.737666
 30
0.0
 10
211.620100
 20
-59.737386
 30
0.0
  0
SPLINE
  5
24f
100
AcDbEntity
  8
0
 62
7
100
AcDbSpline
 70
8
 71
3
 72
8
 73
4
 74
0
 40
0
 40
0
 40
0
 40
0
 40
1
 40
1
 40
1
 40
1
 10
244.170708
 20
-60.238274
 30
0.0
 10
244.303316
 20
-60.238241
 30
0.0
 10
244.430479
 20
-60.185530
 30
0.0
 10
244.524223
 20
-60.091738
 30
0.0
  0
SPLINE
  5
250
100
AcDbEntity
  8
0
 62
7
100
AcDbSpline
 70
8
 71
3
 72
8
 73
4
 74
0
 40
0
 40
0
 40
0
 40
0
 40
1
 40
1
 40
1
 40
1
 10
244.524223
 20
-60.091738
 30
0.0
 10
244.617968
 20
-59.997946
 30
0.0
 10
244.670614
 20
-59.870756
 30
0.0
 10
244.670580
 20
-59.738148
 30
0.0
  0
SPLINE
  5
251
100
AcDbEntity
  8
0
 62
7
100
AcDbSpline
 70
8
 71
3
 72
8
 73
4
 74
0
 40
0
 40
0
 40
0
 40
0
 40
1
 40
1
 40
1
 40
1
 10
230.670608
 20
-59.738148
 30
0.0
 10
230.670574
 20
-59.870800
 30
0.0
 10
230.723255
 20
-59.998029
 30
0.0
 10
230.817054
 20
-60.091828
 30
0.0
  0
SPLINE
  5
252
100
AcDbEntity
  8
0
 62
7
100
AcDbSpline
 70
8
 71
3
 72
8
 73
4
 74
0
 40
0
 40
0
 40
0
 40
0
 40
1
 40
1
 40
1
 40
1
 10
230.817054
 20
-60.091828
 30
0.0
 10
230.910853
 20
-60.185627
 30
0.0
 10
231.038082
 20
-60.238308
 30
0.0
 10
231.170734
 20
-60.238274
 30
0.0
  0
SPLINE
  5
253
100
AcDbEntity
  8
0
 62
7
100
AcDbSpline
 70
8
 71
3
 72
8
 73
4
 74
0
 40
0
 40
0
 40
0
 40
0
 40
1
 40
1
 40
1
 40
1
 10
231.170734
 20
-46.238302
 30
0.0
 10
231.038126
 20
-46.238269
 30
0.0
 10
230.910936
 20
-46.290915
 30
0.0
 10
230.817144
 20
-46.384659
 30
0.0
  0
SPLINE
  5
254
100
AcDbEntity
  8
0
 62
7
100
AcDbSpline
 70
8
 71
3
 72
8
 73
4
 74
0
 40
0
 40
0
 40
0
 40
0
 40
1
 40
1
 40
1
 40
1
 10
230.817144
 20
-46.384659
 30
0.0
 10
230.723352
 20
-46.478403
 30
0.0
 10
230.670642
 20
-46.605566
 30
0.0
 10
230.670608
 20
-46.738174
 30
0.0
  0
SPLINE
  5
255
100
AcDbEntity
  8
0
 62
7
100
AcDbSpline
 70
8
 71
3
 72
8
 73
4
 74
0
 40
0
 40
0
 40
0
 40
0
 40
1
 40
1
 40
1
 40
1
 10
244.670580
 20
-46.738174
 30
0.0
 10
244.670510
 20
-46.462132
 30
0.0
 10
244.446751
 20
-46.238372
 30
0.0
 10
244.170708
 20
-46.238302
 30
0.0
  0
LWPOLYLINE
  5
256
100
AcDbEntity
  8
0
 62
7
100
AcDbPolyline
 90
2
 70
0
 10
225.120200
 20
-46.237286
 30
0.0
 10
212.120480
 20
-46.237286
 30
0.0
  0
LWPOLYLINE
  5
257
100
AcDbEntity
  8
0
 62
7
100
AcDbPolyline
 90
2
 70
0
 10
244.670580
 20
-59.737386
 30
0.0
 10
244.670580
 20
-46.737666
 30
0.0
  0
LWPOLYLINE
  5
258
100
AcDbEntity
  8
0
 62
7
100
AcDbPolyline
 90
2
 70
0
 10
231.170480
 20
-60.237766
 30
0.0
 10
244.170200
 20
-60.237766
 30
0.0
  0
LWPOLYLINE
  5
259
100
AcDbEntity
  8
0
 62
7
100
AcDbPolyline
 90
2
 70
0
 10
230.670100
 20
-46.737666
 30
0.0
 10
230.670100
 20
-59.737386
 30
0.0
  0
SPLINE
  5
25a
100
AcDbEntity
  8
0
 62
7
100
AcDbSpline
 70
8
 71
3
 72
8
 73
4
 74
0
 40
0
 40
0
 40
0
 40
0
 40
1
 40
1
 40
1
 40
1
 10
215.597486
 20
-41.189544
 30
0.0
 10
215.730094
 20
-41.189511
 30
0.0
 10
215.857257
 20
-41.136800
 30
0.0
 10
215.951001
 20
-41.043008
 30
0.0
  0
SPLINE
  5
25b
100
AcDbEntity
  8
0
 62
7
100
AcDbSpline
 70
8
 71
3
 72
8
 73
4
 74
0
 40
0
 40
0
 40
0
 40
0
 40
1
 40
1
 40
1
 40
1
 10
215.951001
 20
-41.043008
 30
0.0
 10
216.044746
 20
-40.949216
 30
0.0
 10
216.097392
 20
-40.822026
 30
0.0
 10
216.097358
 20
-40.689418
 30
0.0
  0
SPLINE
  5
25c
100
AcDbEntity
  8
0
 62
7
100
AcDbSpline
 70
8
 71
3
 72
8
 73
4
 74
0
 40
0
 40
0
 40
0
 40
0
 40
1
 40
1
 40
1
 40
1
 10
202.097386
 20
-40.689418
 30
0.0
 10
202.097352
 20
-40.822070
 30
0.0
 10
202.150033
 20
-40.949299
 30
0.0
 10
202.243832
 20
-41.043098
 30
0.0
  0
SPLINE
  5
25d
100
AcDbEntity
  8
0
 62
7
100
AcDbSpline
 70
8
 71
3
 72
8
 73
4
 74
0
 40
0
 40
0
 40
0
 40
0
 40
1
 40
1
 40
1
 40
1
 10
202.243832
 20
-41.043098
 30
0.0
 10
202.337631
 20
-41.136897
 30
0.0
 10
202.464860
 20
-41.189578
 30
0.0
 10
202.597512
 20
-41.189544
 30
0.0
  0
SPLINE
  5
25e
100
AcDbEntity
  8
0
 62
7
100
AcDbSpline
 70
8
 71
3
 72
8
 73
4
 74
0
 40
0
 40
0
 40
0
 40
0
 40
1
 40
1
 40
1
 40
1
 10
202.597512
 20
-27.189572
 30
0.0
 10
202.464904
 20
-27.189539
 30
0.0
 10
202.337714
 20
-27.242185
 30
0.0
 10
202.243922
 20
-27.335929
 30
0.0
  0
SPLINE
  5
25f
100
AcDbEntity
  8
0
 62
7
100
AcDbSpline
 70
8
 71
3
 72
8
 73
4
 74
0
 40
0
 40
0
 40
0
 40
0
 40
1
 40
1
 40
1
 40
1
 10
202.243922
 20
-27.335929
 30
0.0
 10
202.150130
 20
-27.429673
 30
0.0
 10
202.097420
 20
-27.556836
 30
0.0
 10
202.097386
 20
-27.689444
 30
0.0
  0
SPLINE
  5
260
100
AcDbEntity
  8
0
 62
7
100
AcDbSpline
 70
8
 71
3
 72
8
 73
4
 74
0
 40
0
 40
0
 40
0
 40
0
 40
1
 40
1
 40
1
 40
1
 10
216.097358
 20
-27.689444
 30
0.0
 10
216.097288
 20
-27.413402
 30
0.0
 10
215.873529
 20
-27.189642
 30
0.0
 10
215.597486
 20
-27.189572
 30
0.0
  0
LWPOLYLINE
  5
261
100
AcDbEntity
  8
0
 62
7
100
AcDbPolyline
 90
2
 70
0
 10
244.170200
 20
-46.237286
 30
0.0
 10
231.170480
 20
-46.237286
 30
0.0
  0
LWPOLYLINE
  5
262
100
AcDbEntity
  8
0
 62
7
100
AcDbPolyline
 90
2
 70
0
 10
216.095580
 20
-40.687386
 30
0.0
 10
216.095580
 20
-27.687666
 30
0.0
  0
LWPOLYLINE
  5
263
100
AcDbEntity
  8
0
 62
7
100
AcDbPolyline
 90
2
 70
0
 10
202.595480
 20
-41.187766
 30
0.0
 10
215.595200
 20
-41.187766
 30
0.0
  0
LWPOLYLINE
  5
264
100
AcDbEntity
  8
0
 62
7
100
AcDbPolyline
 90
2
 70
0
 10
202.095100
 20
-27.687666
 30
0.0
 10
202.095100
 20
-40.687386
 30
0.0
  0
SPLINE
  5
265
100
AcDbEntity
  8
0
 62
7
100
AcDbSpline
 70
8
 71
3
 72
8
 73
4
 74
0
 40
0
 40
0
 40
0
 40
0
 40
1
 40
1
 40
1
 40
1
 10
196.548756
 20
-41.189544
 30
0.0
 10
196.681364
 20
-41.189511
 30
0.0
 10
196.808527
 20
-41.136800
 30
0.0
 10
196.902271
 20
-41.043008
 30
0.0
  0
SPLINE
  5
266
100
AcDbEntity
  8
0
 62
7
100
AcDbSpline
 70
8
 71
3
 72
8
 73
4
 74
0
 40
0
 40
0
 40
0
 40
0
 40
1
 40
1
 40
1
 40
1
 10
196.902271
 20
-41.043008
 30
0.0
 10
196.996016
 20
-40.949216
 30
0.0
 10
197.048662
 20
-40.822026
 30
0.0
 10
197.048628
 20
-40.689418
 30
0.0
  0
SPLINE
  5
267
100
AcDbEntity
  8
0
 62
7
100
AcDbSpline
 70
8
 71
3
 72
8
 73
4
 74
0
 40
0
 40
0
 40
0
 40
0
 40
1
 40
1
 40
1
 40
1
 10
183.048656
 20
-40.689418
 30
0.0
 10
183.048622
 20
-40.822070
 30
0.0
 10
183.101303
 20
-40.949299
 30
0.0
 10
183.195102
 20
-41.043098
 30
0.0
  0
SPLINE
  5
268
100
AcDbEntity
  8
0
 62
7
100
AcDbSpline
 70
8
 71
3
 72
8
 73
4
 74
0
 40
0
 40
0
 40
0
 40
0
 40
1
 40
1
 40
1
 40
1
 10
183.195102
 20
-41.043098
 30
0.0
 10
183.288901
 20
-41.136897
 30
0.0
 10
183.416130
 20
-41.189578
 30
0.0
 10
183.548782
 20
-41.189544
 30
0.0
  0
SPLINE
  5
269
100
AcDbEntity
  8
0
 62
7
100
AcDbSpline
 70
8
 71
3
 72
8
 73
4
 74
0
 40
0
 40
0
 40
0
 40
0
 40
1
 40
1
 40
1
 40
1
 10
183.548782
 20
-27.189572
 30
0.0
 10
183.416174
 20
-27.189539
 30
0.0
 10
183.288984
 20
-27.242185
 30
0.0
 10
183.195192
 20
-27.335929
 30
0.0
  0
SPLINE
  5
26a
100
AcDbEntity
  8
0
 62
7
100
AcDbSpline
 70
8
 71
3
 72
8
 73
4
 74
0
 40
0
 40
0
 40
0
 40
0
 40
1
 40
1
 40
1
 40
1
 10
183.195192
 20
-27.335929
 30
0.0
 10
183.101400
 20
-27.429673
 30
0.0
 10
183.048690
 20
-27.556836
 30
0.0
 10
183.048656
 20
-27.689444
 30
0.0
  0
SPLINE
  5
26b
100
AcDbEntity
  8
0
 62
7
100
AcDbSpline
 70
8
 71
3
 72
8
 73
4
 74
0
 40
0
 40
0
 40
0
 40
0
 40
1
 40
1
 40
1
 40
1
 10
197.048628
 20
-27.689444
 30
0.0
 10
197.048558
 20
-27.413402
 30
0.0
 10
196.824799
 20
-27.189642
 30
0.0
 10
196.548756
 20
-27.189572
 30
0.0
  0
LWPOLYLINE
  5
26c
100
AcDbEntity
  8
0
 62
7
100
AcDbPolyline
 90
2
 70
0
 10
215.595200
 20
-27.187286
 30
0.0
 10
202.595480
 20
-27.187286
 30
0.0
  0
LWPOLYLINE
  5
26d
100
AcDbEntity
  8
0
 62
7
100
AcDbPolyline
 90
2
 70
0
 10
197.048120
 20
-40.687386
 30
0.0
 10
197.048120
 20
-27.687666
 30
0.0
  0
LWPOLYLINE
  5
26e
100
AcDbEntity
  8
0
 62
7
100
AcDbPolyline
 90
2
 70
0
 10
183.548020
 20
-41.187766
 30
0.0
 10
196.547740
 20
-41.187766
 30
0.0
  0
LWPOLYLINE
  5
26f
100
AcDbEntity
  8
0
 62
7
100
AcDbPolyline
 90
2
 70
0
 10
183.047640
 20
-27.687666
 30
0.0
 10
183.047640
 20
-40.687386
 30
0.0
  0
SPLINE
  5
270
100
AcDbEntity
  8
0
 62
7
100
AcDbSpline
 70
8
 71
3
 72
8
 73
4
 74
0
 40
0
 40
0
 40
0
 40
0
 40
1
 40
1
 40
1
 40
1
 10
177.499772
 20
-41.189544
 30
0.0
 10
177.632424
 20
-41.189578
 30
0.0
 10
177.759653
 20
-41.136897
 30
0.0
 10
177.853452
 20
-41.043098
 30
0.0
  0
SPLINE
  5
271
100
AcDbEntity
  8
0
 62
7
100
AcDbSpline
 70
8
 71
3
 72
8
 73
4
 74
0
 40
0
 40
0
 40
0
 40
0
 40
1
 40
1
 40
1
 40
1
 10
177.853452
 20
-41.043098
 30
0.0
 10
177.947251
 20
-40.949299
 30
0.0
 10
177.999932
 20
-40.822070
 30
0.0
 10
177.999898
 20
-40.689418
 30
0.0
  0
SPLINE
  5
272
100
AcDbEntity
  8
0
 62
7
100
AcDbSpline
 70
8
 71
3
 72
8
 73
4
 74
0
 40
0
 40
0
 40
0
 40
0
 40
1
 40
1
 40
1
 40
1
 10
163.999926
 20
-40.689418
 30
0.0
 10
163.999892
 20
-40.822026
 30
0.0
 10
164.052538
 20
-40.949216
 30
0.0
 10
164.146283
 20
-41.043008
 30
0.0
  0
SPLINE
  5
273
100
AcDbEntity
  8
0
 62
7
100
AcDbSpline
 70
8
 71
3
 72
8
 73
4
 74
0
 40
0
 40
0
 40
0
 40
0
 40
1
 40
1
 40
1
 40
1
 10
164.146283
 20
-41.043008
 30
0.0
 10
164.240027
 20
-41.136800
 30
0.0
 10
164.367190
 20
-41.189511
 30
0.0
 10
164.499798
 20
-41.189544
 30
0.0
  0
SPLINE
  5
274
100
AcDbEntity
  8
0
 62
7
100
AcDbSpline
 70
8
 71
3
 72
8
 73
4
 74
0
 40
0
 40
0
 40
0
 40
0
 40
1
 40
1
 40
1
 40
1
 10
164.499798
 20
-27.189572
 30
0.0
 10
164.223755
 20
-27.189642
 30
0.0
 10
163.999996
 20
-27.413402
 30
0.0
 10
163.999926
 20
-27.689444
 30
0.0
  0
SPLINE
  5
275
100
AcDbEntity
  8
0
 62
7
100
AcDbSpline
 70
8
 71
3
 72
8
 73
4
 74
0
 40
0
 40
0
 40
0
 40
0
 40
1
 40
1
 40
1
 40
1
 10
177.999898
 20
-27.689444
 30
0.0
 10
177.999864
 20
-27.556836
 30
0.0
 10
177.947154
 20
-27.429673
 30
0.0
 10
177.853362
 20
-27.335929
 30
0.0
  0
SPLINE
  5
276
100
AcDbEntity
  8
0
 62
7
100
AcDbSpline
 70
8
 71
3
 72
8
 73
4
 74
0
 40
0
 40
0
 40
0
 40
0
 40
1
 40
1
 40
1
 40
1
 10
177.853362
 20
-27.335929
 30
0.0
 10
177.759570
 20
-27.242185
 30
0.0
 10
177.632380
 20
-27.189539
 30
0.0
 10
177.499772
 20
-27.189572
 30
0.0
  0
LWPOLYLINE
  5
277
100
AcDbEntity
  8
0
 62
7
100
AcDbPolyline
 90
2
 70
0
 10
196.547740
 20
-27.187286
 30
0.0
 10
183.548020
 20
-27.187286
 30
0.0
  0
LWPOLYLINE
  5
278
100
AcDbEntity
  8
0
 62
7
100
AcDbPolyline
 90
2
 70
0
 10
177.998120
 20
-40.687386
 30
0.0
 10
177.998120
 20
-27.687666
 30
0.0
  0
LWPOLYLINE
  5
279
100
AcDbEntity
  8
0
 62
7
100
AcDbPolyline
 90
2
 70
0
 10
164.498020
 20
-41.187766
 30
0.0
 10
177.497740
 20
-41.187766
 30
0.0
  0
LWPOLYLINE
  5
27a
100
AcDbEntity
  8
0
 62
7
100
AcDbPolyline
 90
2
 70
0
 10
163.997640
 20
-27.687666
 30
0.0
 10
163.997640
 20
-40.687386
 30
0.0
  0
SPLINE
  5
27b
100
AcDbEntity
  8
0
 62
7
100
AcDbSpline
 70
8
 71
3
 72
8
 73
4
 74
0
 40
0
 40
0
 40
0
 40
0
 40
1
 40
1
 40
1
 40
1
 10
158.451042
 20
-41.189544
 30
0.0
 10
158.583694
 20
-41.189578
 30
0.0
 10
158.710923
 20
-41.136897
 30
0.0
 10
158.804722
 20
-41.043098
 30
0.0
  0
SPLINE
  5
27c
100
AcDbEntity
  8
0
 62
7
100
AcDbSpline
 70
8
 71
3
 72
8
 73
4
 74
0
 40
0
 40
0
 40
0
 40
0
 40
1
 40
1
 40
1
 40
1
 10
158.804722
 20
-41.043098
 30
0.0
 10
158.898521
 20
-40.949299
 30
0.0
 10
158.951202
 20
-40.822070
 30
0.0
 10
158.951168
 20
-40.689418
 30
0.0
  0
SPLINE
  5
27d
100
AcDbEntity
  8
0
 62
7
100
AcDbSpline
 70
8
 71
3
 72
8
 73
4
 74
0
 40
0
 40
0
 40
0
 40
0
 40
1
 40
1
 40
1
 40
1
 10
144.950942
 20
-40.689418
 30
0.0
 10
144.950908
 20
-40.822070
 30
0.0
 10
145.003589
 20
-40.949299
 30
0.0
 10
145.097388
 20
-41.043098
 30
0.0
  0
SPLINE
  5
27e
100
AcDbEntity
  8
0
 62
7
100
AcDbSpline
 70
8
 71
3
 72
8
 73
4
 74
0
 40
0
 40
0
 40
0
 40
0
 40
1
 40
1
 40
1
 40
1
 10
145.097388
 20
-41.043098
 30
0.0
 10
145.191187
 20
-41.136897
 30
0.0
 10
145.318416
 20
-41.189578
 30
0.0
 10
145.451068
 20
-41.189544
 30
0.0
  0
SPLINE
  5
27f
100
AcDbEntity
  8
0
 62
7
100
AcDbSpline
 70
8
 71
3
 72
8
 73
4
 74
0
 40
0
 40
0
 40
0
 40
0
 40
1
 40
1
 40
1
 40
1
 10
145.451068
 20
-27.189572
 30
0.0
 10
145.318460
 20
-27.189539
 30
0.0
 10
145.191270
 20
-27.242185
 30
0.0
 10
145.097478
 20
-27.335929
 30
0.0
  0
SPLINE
  5
280
100
AcDbEntity
  8
0
 62
7
100
AcDbSpline
 70
8
 71
3
 72
8
 73
4
 74
0
 40
0
 40
0
 40
0
 40
0
 40
1
 40
1
 40
1
 40
1
 10
145.097478
 20
-27.335929
 30
0.0
 10
145.003686
 20
-27.429673
 30
0.0
 10
144.950976
 20
-27.556836
 30
0.0
 10
144.950942
 20
-27.689444
 30
0.0
  0
SPLINE
  5
281
100
AcDbEntity
  8
0
 62
7
100
AcDbSpline
 70
8
 71
3
 72
8
 73
4
 74
0
 40
0
 40
0
 40
0
 40
0
 40
1
 40
1
 40
1
 40
1
 10
158.951168
 20
-27.689444
 30
0.0
 10
158.951134
 20
-27.556836
 30
0.0
 10
158.898424
 20
-27.429673
 30
0.0
 10
158.804632
 20
-27.335929
 30
0.0
  0
SPLINE
  5
282
100
AcDbEntity
  8
0
 62
7
100
AcDbSpline
 70
8
 71
3
 72
8
 73
4
 74
0
 40
0
 40
0
 40
0
 40
0
 40
1
 40
1
 40
1
 40
1
 10
158.804632
 20
-27.335929
 30
0.0
 10
158.710840
 20
-27.242185
 30
0.0
 10
158.583650
 20
-27.189539
 30
0.0
 10
158.451042
 20
-27.189572
 30
0.0
  0
LWPOLYLINE
  5
283
100
AcDbEntity
  8
0
 62
7
100
AcDbPolyline
 90
2
 70
0
 10
177.497740
 20
-27.187286
 30
0.0
 10
164.498020
 20
-27.187286
 30
0.0
  0
LWPOLYLINE
  5
284
100
AcDbEntity
  8
0
 62
7
100
AcDbPolyline
 90
2
 70
0
 10
158.950660
 20
-40.687386
 30
0.0
 10
158.950660
 20
-27.687666
 30
0.0
  0
LWPOLYLINE
  5
285
100
AcDbEntity
  8
0
 62
7
100
AcDbPolyline
 90
2
 70
0
 10
145.450560
 20
-41.187766
 30
0.0
 10
158.450280
 20
-41.187766
 30
0.0
  0
LWPOLYLINE
  5
286
100
AcDbEntity
  8
0
 62
7
100
AcDbPolyline
 90
2
 70
0
 10
144.950180
 20
-27.687666
 30
0.0
 10
144.950180
 20
-40.687386
 30
0.0
  0
SPLINE
  5
287
100
AcDbEntity
  8
0
 62
7
100
AcDbSpline
 70
8
 71
3
 72
8
 73
4
 74
0
 40
0
 40
0
 40
0
 40
0
 40
1
 40
1
 40
1
 40
1
 10
139.402312
 20
-41.189544
 30
0.0
 10
139.534920
 20
-41.189511
 30
0.0
 10
139.662083
 20
-41.136800
 30
0.0
 10
139.755827
 20
-41.043008
 30
0.0
  0
SPLINE
  5
288
100
AcDbEntity
  8
0
 62
7
100
AcDbSpline
 70
8
 71
3
 72
8
 73
4
 74
0
 40
0
 40
0
 40
0
 40
0
 40
1
 40
1
 40
1
 40
1
 10
139.755827
 20
-41.043008
 30
0.0
 10
139.849572
 20
-40.949216
 30
0.0
 10
139.902218
 20
-40.822026
 30
0.0
 10
139.902184
 20
-40.689418
 30
0.0
  0
SPLINE
  5
289
100
AcDbEntity
  8
0
 62
7
100
AcDbSpline
 70
8
 71
3
 72
8
 73
4
 74
0
 40
0
 40
0
 40
0
 40
0
 40
1
 40
1
 40
1
 40
1
 10
125.902212
 20
-40.689418
 30
0.0
 10
125.902178
 20
-40.822070
 30
0.0
 10
125.954859
 20
-40.949299
 30
0.0
 10
126.048658
 20
-41.043098
 30
0.0
  0
SPLINE
  5
28a
100
AcDbEntity
  8
0
 62
7
100
AcDbSpline
 70
8
 71
3
 72
8
 73
4
 74
0
 40
0
 40
0
 40
0
 40
0
 40
1
 40
1
 40
1
 40
1
 10
126.048658
 20
-41.043098
 30
0.0
 10
126.142457
 20
-41.136897
 30
0.0
 10
126.269686
 20
-41.189578
 30
0.0
 10
126.402338
 20
-41.189544
 30
0.0
  0
SPLINE
  5
28b
100
AcDbEntity
  8
0
 62
7
100
AcDbSpline
 70
8
 71
3
 72
8
 73
4
 74
0
 40
0
 40
0
 40
0
 40
0
 40
1
 40
1
 40
1
 40
1
 10
126.402338
 20
-27.189572
 30
0.0
 10
126.269730
 20
-27.189539
 30
0.0
 10
126.142540
 20
-27.242185
 30
0.0
 10
126.048748
 20
-27.335929
 30
0.0
  0
SPLINE
  5
28c
100
AcDbEntity
  8
0
 62
7
100
AcDbSpline
 70
8
 71
3
 72
8
 73
4
 74
0
 40
0
 40
0
 40
0
 40
0
 40
1
 40
1
 40
1
 40
1
 10
126.048748
 20
-27.335929
 30
0.0
 10
125.954956
 20
-27.429673
 30
0.0
 10
125.902246
 20
-27.556836
 30
0.0
 10
125.902212
 20
-27.689444
 30
0.0
  0
SPLINE
  5
28d
100
AcDbEntity
  8
0
 62
7
100
AcDbSpline
 70
8
 71
3
 72
8
 73
4
 74
0
 40
0
 40
0
 40
0
 40
0
 40
1
 40
1
 40
1
 40
1
 10
139.902184
 20
-27.689444
 30
0.0
 10
139.902114
 20
-27.413402
 30
0.0
 10
139.678355
 20
-27.189642
 30
0.0
 10
139.402312
 20
-27.189572
 30
0.0
  0
LWPOLYLINE
  5
28e
100
AcDbEntity
  8
0
 62
7
100
AcDbPolyline
 90
2
 70
0
 10
158.450280
 20
-27.187286
 30
0.0
 10
145.450560
 20
-27.187286
 30
0.0
  0
LWPOLYLINE
  5
28f
100
AcDbEntity
  8
0
 62
7
100
AcDbPolyline
 90
2
 70
0
 10
139.900660
 20
-40.687386
 30
0.0
 10
139.900660
 20
-27.687666
 30
0.0
  0
LWPOLYLINE
  5
290
100
AcDbEntity
  8
0
 62
7
100
AcDbPolyline
 90
2
 70
0
 10
126.400560
 20
-41.187766
 30
0.0
 10
139.400280
 20
-41.187766
 30
0.0
  0
LWPOLYLINE
  5
291
100
AcDbEntity
  8
0
 62
7
100
AcDbPolyline
 90
2
 70
0
 10
125.900180
 20
-27.687666
 30
0.0
 10
125.900180
 20
-40.687386
 30
0.0
  0
SPLINE
  5
292
100
AcDbEntity
  8
0
 62
7
100
AcDbSpline
 70
8
 71
3
 72
8
 73
4
 74
0
 40
0
 40
0
 40
0
 40
0
 40
1
 40
1
 40
1
 40
1
 10
120.353582
 20
-41.189544
 30
0.0
 10
120.486190
 20
-41.189511
 30
0.0
 10
120.613353
 20
-41.136800
 30
0.0
 10
120.707097
 20
-41.043008
 30
0.0
  0
SPLINE
  5
293
100
AcDbEntity
  8
0
 62
7
100
AcDbSpline
 70
8
 71
3
 72
8
 73
4
 74
0
 40
0
 40
0
 40
0
 40
0
 40
1
 40
1
 40
1
 40
1
 10
120.707097
 20
-41.043008
 30
0.0
 10
120.800842
 20
-40.949216
 30
0.0
 10
120.853488
 20
-40.822026
 30
0.0
 10
120.853454
 20
-40.689418
 30
0.0
  0
SPLINE
  5
294
100
AcDbEntity
  8
0
 62
7
100
AcDbSpline
 70
8
 71
3
 72
8
 73
4
 74
0
 40
0
 40
0
 40
0
 40
0
 40
1
 40
1
 40
1
 40
1
 10
106.853482
 20
-40.689418
 30
0.0
 10
106.853448
 20
-40.822026
 30
0.0
 10
106.906094
 20
-40.949216
 30
0.0
 10
106.999839
 20
-41.043008
 30
0.0
  0
SPLINE
  5
295
100
AcDbEntity
  8
0
 62
7
100
AcDbSpline
 70
8
 71
3
 72
8
 73
4
 74
0
 40
0
 40
0
 40
0
 40
0
 40
1
 40
1
 40
1
 40
1
 10
106.999839
 20
-41.043008
 30
0.0
 10
107.093583
 20
-41.136800
 30
0.0
 10
107.220746
 20
-41.189511
 30
0.0
 10
107.353354
 20
-41.189544
 30
0.0
  0
SPLINE
  5
296
100
AcDbEntity
  8
0
 62
7
100
AcDbSpline
 70
8
 71
3
 72
8
 73
4
 74
0
 40
0
 40
0
 40
0
 40
0
 40
1
 40
1
 40
1
 40
1
 10
107.353354
 20
-27.189572
 30
0.0
 10
107.077311
 20
-27.189642
 30
0.0
 10
106.853552
 20
-27.413402
 30
0.0
 10
106.853482
 20
-27.689444
 30
0.0
  0
SPLINE
  5
297
100
AcDbEntity
  8
0
 62
7
100
AcDbSpline
 70
8
 71
3
 72
8
 73
4
 74
0
 40
0
 40
0
 40
0
 40
0
 40
1
 40
1
 40
1
 40
1
 10
120.853454
 20
-27.689444
 30
0.0
 10
120.853384
 20
-27.413402
 30
0.0
 10
120.629625
 20
-27.189642
 30
0.0
 10
120.353582
 20
-27.189572
 30
0.0
  0
LWPOLYLINE
  5
298
100
AcDbEntity
  8
0
 62
7
100
AcDbPolyline
 90
2
 70
0
 10
139.400280
 20
-27.187286
 30
0.0
 10
126.400560
 20
-27.187286
 30
0.0
  0
LWPOLYLINE
  5
299
100
AcDbEntity
  8
0
 62
7
100
AcDbPolyline
 90
2
 70
0
 10
120.853200
 20
-40.687386
 30
0.0
 10
120.853200
 20
-27.687666
 30
0.0
  0
LWPOLYLINE
  5
29a
100
AcDbEntity
  8
0
 62
7
100
AcDbPolyline
 90
2
 70
0
 10
107.353100
 20
-41.187766
 30
0.0
 10
120.352820
 20
-41.187766
 30
0.0
  0
LWPOLYLINE
  5
29b
100
AcDbEntity
  8
0
 62
7
100
AcDbPolyline
 90
2
 70
0
 10
106.852720
 20
-27.687666
 30
0.0
 10
106.852720
 20
-40.687386
 30
0.0
  0
SPLINE
  5
29c
100
AcDbEntity
  8
0
 62
7
100
AcDbSpline
 70
8
 71
3
 72
8
 73
4
 74
0
 40
0
 40
0
 40
0
 40
0
 40
1
 40
1
 40
1
 40
1
 10
101.304598
 20
-41.189544
 30
0.0
 10
101.437250
 20
-41.189578
 30
0.0
 10
101.564479
 20
-41.136897
 30
0.0
 10
101.658278
 20
-41.043098
 30
0.0
  0
SPLINE
  5
29d
100
AcDbEntity
  8
0
 62
7
100
AcDbSpline
 70
8
 71
3
 72
8
 73
4
 74
0
 40
0
 40
0
 40
0
 40
0
 40
1
 40
1
 40
1
 40
1
 10
101.658278
 20
-41.043098
 30
0.0
 10
101.752077
 20
-40.949299
 30
0.0
 10
101.804758
 20
-40.822070
 30
0.0
 10
101.804724
 20
-40.689418
 30
0.0
  0
SPLINE
  5
29e
100
AcDbEntity
  8
0
 62
7
100
AcDbSpline
 70
8
 71
3
 72
8
 73
4
 74
0
 40
0
 40
0
 40
0
 40
0
 40
1
 40
1
 40
1
 40
1
 10
87.804752
 20
-40.689418
 30
0.0
 10
87.804718
 20
-40.822026
 30
0.0
 10
87.857364
 20
-40.949216
 30
0.0
 10
87.951109
 20
-41.043008
 30
0.0
  0
SPLINE
  5
29f
100
AcDbEntity
  8
0
 62
7
100
AcDbSpline
 70
8
 71
3
 72
8
 73
4
 74
0
 40
0
 40
0
 40
0
 40
0
 40
1
 40
1
 40
1
 40
1
 10
87.951109
 20
-41.043008
 30
0.0
 10
88.044853
 20
-41.136800
 30
0.0
 10
88.172016
 20
-41.189511
 30
0.0
 10
88.304624
 20
-41.189544
 30
0.0
  0
SPLINE
  5
2a0
100
AcDbEntity
  8
0
 62
7
100
AcDbSpline
 70
8
 71
3
 72
8
 73
4
 74
0
 40
0
 40
0
 40
0
 40
0
 40
1
 40
1
 40
1
 40
1
 10
88.304624
 20
-27.189572
 30
0.0
 10
88.028581
 20
-27.189642
 30
0.0
 10
87.804822
 20
-27.413402
 30
0.0
 10
87.804752
 20
-27.689444
 30
0.0
  0
SPLINE
  5
2a1
100
AcDbEntity
  8
0
 62
7
100
AcDbSpline
 70
8
 71
3
 72
8
 73
4
 74
0
 40
0
 40
0
 40
0
 40
0
 40
1
 40
1
 40
1
 40
1
 10
101.804724
 20
-27.689444
 30
0.0
 10
101.804690
 20
-27.556836
 30
0.0
 10
101.751980
 20
-27.429673
 30
0.0
 10
101.658188
 20
-27.335929
 30
0.0
  0
SPLINE
  5
2a2
100
AcDbEntity
  8
0
 62
7
100
AcDbSpline
 70
8
 71
3
 72
8
 73
4
 74
0
 40
0
 40
0
 40
0
 40
0
 40
1
 40
1
 40
1
 40
1
 10
101.658188
 20
-27.335929
 30
0.0
 10
101.564396
 20
-27.242185
 30
0.0
 10
101.437206
 20
-27.189539
 30
0.0
 10
101.304598
 20
-27.189572
 30
0.0
  0
LWPOLYLINE
  5
2a3
100
AcDbEntity
  8
0
 62
7
100
AcDbPolyline
 90
2
 70
0
 10
120.352820
 20
-27.187286
 30
0.0
 10
107.353100
 20
-27.187286
 30
0.0
  0
LWPOLYLINE
  5
2a4
100
AcDbEntity
  8
0
 62
7
100
AcDbPolyline
 90
2
 70
0
 10
101.803200
 20
-40.687386
 30
0.0
 10
101.803200
 20
-27.687666
 30
0.0
  0
LWPOLYLINE
  5
2a5
100
AcDbEntity
  8
0
 62
7
100
AcDbPolyline
 90
2
 70
0
 10
88.303100
 20
-41.187766
 30
0.0
 10
101.302820
 20
-41.187766
 30
0.0
  0
LWPOLYLINE
  5
2a6
100
AcDbEntity
  8
0
 62
7
100
AcDbPolyline
 90
2
 70
0
 10
87.802720
 20
-27.687666
 30
0.0
 10
87.802720
 20
-40.687386
 30
0.0
  0
SPLINE
  5
2a7
100
AcDbEntity
  8
0
 62
7
100
AcDbSpline
 70
8
 71
3
 72
8
 73
4
 74
0
 40
0
 40
0
 40
0
 40
0
 40
1
 40
1
 40
1
 40
1
 10
82.255868
 20
-41.189544
 30
0.0
 10
82.388520
 20
-41.189578
 30
0.0
 10
82.515749
 20
-41.136897
 30
0.0
 10
82.609548
 20
-41.043098
 30
0.0
  0
SPLINE
  5
2a8
100
AcDbEntity
  8
0
 62
7
100
AcDbSpline
 70
8
 71
3
 72
8
 73
4
 74
0
 40
0
 40
0
 40
0
 40
0
 40
1
 40
1
 40
1
 40
1
 10
82.609548
 20
-41.043098
 30
0.0
 10
82.703347
 20
-40.949299
 30
0.0
 10
82.756028
 20
-40.822070
 30
0.0
 10
82.755994
 20
-40.689418
 30
0.0
  0
SPLINE
  5
2a9
100
AcDbEntity
  8
0
 62
7
100
AcDbSpline
 70
8
 71
3
 72
8
 73
4
 74
0
 40
0
 40
0
 40
0
 40
0
 40
1
 40
1
 40
1
 40
1
 10
68.755768
 20
-40.689418
 30
0.0
 10
68.755734
 20
-40.822070
 30
0.0
 10
68.808415
 20
-40.949299
 30
0.0
 10
68.902214
 20
-41.043098
 30
0.0
  0
SPLINE
  5
2aa
100
AcDbEntity
  8
0
 62
7
100
AcDbSpline
 70
8
 71
3
 72
8
 73
4
 74
0
 40
0
 40
0
 40
0
 40
0
 40
1
 40
1
 40
1
 40
1
 10
68.902214
 20
-41.043098
 30
0.0
 10
68.996013
 20
-41.136897
 30
0.0
 10
69.123242
 20
-41.189578
 30
0.0
 10
69.255894
 20
-41.189544
 30
0.0
  0
SPLINE
  5
2ab
100
AcDbEntity
  8
0
 62
7
100
AcDbSpline
 70
8
 71
3
 72
8
 73
4
 74
0
 40
0
 40
0
 40
0
 40
0
 40
1
 40
1
 40
1
 40
1
 10
69.255894
 20
-27.189572
 30
0.0
 10
69.123286
 20
-27.189539
 30
0.0
 10
68.996096
 20
-27.242185
 30
0.0
 10
68.902304
 20
-27.335929
 30
0.0
  0
SPLINE
  5
2ac
100
AcDbEntity
  8
0
 62
7
100
AcDbSpline
 70
8
 71
3
 72
8
 73
4
 74
0
 40
0
 40
0
 40
0
 40
0
 40
1
 40
1
 40
1
 40
1
 10
68.902304
 20
-27.335929
 30
0.0
 10
68.808512
 20
-27.429673
 30
0.0
 10
68.755802
 20
-27.556836
 30
0.0
 10
68.755768
 20
-27.689444
 30
0.0
  0
SPLINE
  5
2ad
100
AcDbEntity
  8
0
 62
7
100
AcDbSpline
 70
8
 71
3
 72
8
 73
4
 74
0
 40
0
 40
0
 40
0
 40
0
 40
1
 40
1
 40
1
 40
1
 10
82.755994
 20
-27.689444
 30
0.0
 10
82.755960
 20
-27.556836
 30
0.0
 10
82.703250
 20
-27.429673
 30
0.0
 10
82.609458
 20
-27.335929
 30
0.0
  0
SPLINE
  5
2ae
100
AcDbEntity
  8
0
 62
7
100
AcDbSpline
 70
8
 71
3
 72
8
 73
4
 74
0
 40
0
 40
0
 40
0
 40
0
 40
1
 40
1
 40
1
 40
1
 10
82.609458
 20
-27.335929
 30
0.0
 10
82.515666
 20
-27.242185
 30
0.0
 10
82.388476
 20
-27.189539
 30
0.0
 10
82.255868
 20
-27.189572
 30
0.0
  0
LWPOLYLINE
  5
2af
100
AcDbEntity
  8
0
 62
7
100
AcDbPolyline
 90
2
 70
0
 10
101.302820
 20
-27.187286
 30
0.0
 10
88.303100
 20
-27.187286
 30
0.0
  0
LWPOLYLINE
  5
2b0
100
AcDbEntity
  8
0
 62
7
100
AcDbPolyline
 90
2
 70
0
 10
82.755740
 20
-40.687386
 30
0.0
 10
82.755740
 20
-27.687666
 30
0.0
  0
LWPOLYLINE
  5
2b1
100
AcDbEntity
  8
0
 62
7
100
AcDbPolyline
 90
2
 70
0
 10
69.255640
 20
-41.187766
 30
0.0
 10
82.255360
 20
-41.187766
 30
0.0
  0
LWPOLYLINE
  5
2b2
100
AcDbEntity
  8
0
 62
7
100
AcDbPolyline
 90
2
 70
0
 10
68.755260
 20
-27.687666
 30
0.0
 10
68.755260
 20
-40.687386
 30
0.0
  0
SPLINE
  5
2b3
100
AcDbEntity
  8
0
 62
7
100
AcDbSpline
 70
8
 71
3
 72
8
 73
4
 74
0
 40
0
 40
0
 40
0
 40
0
 40
1
 40
1
 40
1
 40
1
 10
63.207138
 20
-41.189544
 30
0.0
 10
63.339746
 20
-41.189511
 30
0.0
 10
63.466909
 20
-41.136800
 30
0.0
 10
63.560653
 20
-41.043008
 30
0.0
  0
SPLINE
  5
2b4
100
AcDbEntity
  8
0
 62
7
100
AcDbSpline
 70
8
 71
3
 72
8
 73
4
 74
0
 40
0
 40
0
 40
0
 40
0
 40
1
 40
1
 40
1
 40
1
 10
63.560653
 20
-41.043008
 30
0.0
 10
63.654398
 20
-40.949216
 30
0.0
 10
63.707044
 20
-40.822026
 30
0.0
 10
63.707010
 20
-40.689418
 30
0.0
  0
SPLINE
  5
2b5
100
AcDbEntity
  8
0
 62
7
100
AcDbSpline
 70
8
 71
3
 72
8
 73
4
 74
0
 40
0
 40
0
 40
0
 40
0
 40
1
 40
1
 40
1
 40
1
 10
49.707038
 20
-40.689418
 30
0.0
 10
49.707004
 20
-40.822070
 30
0.0
 10
49.759685
 20
-40.949299
 30
0.0
 10
49.853484
 20
-41.043098
 30
0.0
  0
SPLINE
  5
2b6
100
AcDbEntity
  8
0
 62
7
100
AcDbSpline
 70
8
 71
3
 72
8
 73
4
 74
0
 40
0
 40
0
 40
0
 40
0
 40
1
 40
1
 40
1
 40
1
 10
49.853484
 20
-41.043098
 30
0.0
 10
49.947283
 20
-41.136897
 30
0.0
 10
50.074512
 20
-41.189578
 30
0.0
 10
50.207164
 20
-41.189544
 30
0.0
  0
SPLINE
  5
2b7
100
AcDbEntity
  8
0
 62
7
100
AcDbSpline
 70
8
 71
3
 72
8
 73
4
 74
0
 40
0
 40
0
 40
0
 40
0
 40
1
 40
1
 40
1
 40
1
 10
50.207164
 20
-27.189572
 30
0.0
 10
50.074556
 20
-27.189539
 30
0.0
 10
49.947366
 20
-27.242185
 30
0.0
 10
49.853574
 20
-27.335929
 30
0.0
  0
SPLINE
  5
2b8
100
AcDbEntity
  8
0
 62
7
100
AcDbSpline
 70
8
 71
3
 72
8
 73
4
 74
0
 40
0
 40
0
 40
0
 40
0
 40
1
 40
1
 40
1
 40
1
 10
49.853574
 20
-27.335929
 30
0.0
 10
49.759782
 20
-27.429673
 30
0.0
 10
49.707072
 20
-27.556836
 30
0.0
 10
49.707038
 20
-27.689444
 30
0.0
  0
SPLINE
  5
2b9
100
AcDbEntity
  8
0
 62
7
100
AcDbSpline
 70
8
 71
3
 72
8
 73
4
 74
0
 40
0
 40
0
 40
0
 40
0
 40
1
 40
1
 40
1
 40
1
 10
63.707010
 20
-27.689444
 30
0.0
 10
63.706940
 20
-27.413402
 30
0.0
 10
63.483181
 20
-27.189642
 30
0.0
 10
63.207138
 20
-27.189572
 30
0.0
  0
LWPOLYLINE
  5
2ba
100
AcDbEntity
  8
0
 62
7
100
AcDbPolyline
 90
2
 70
0
 10
82.255360
 20
-27.187286
 30
0.0
 10
69.255640
 20
-27.187286
 30
0.0
  0
LWPOLYLINE
  5
2bb
100
AcDbEntity
  8
0
 62
7
100
AcDbPolyline
 90
2
 70
0
 10
63.705740
 20
-40.687386
 30
0.0
 10
63.705740
 20
-27.687666
 30
0.0
  0
LWPOLYLINE
  5
2bc
100
AcDbEntity
  8
0
 62
7
100
AcDbPolyline
 90
2
 70
0
 10
50.205640
 20
-41.187766
 30
0.0
 10
63.205360
 20
-41.187766
 30
0.0
  0
LWPOLYLINE
  5
2bd
100
AcDbEntity
  8
0
 62
7
100
AcDbPolyline
 90
2
 70
0
 10
49.705260
 20
-27.687666
 30
0.0
 10
49.705260
 20
-40.687386
 30
0.0
  0
SPLINE
  5
2be
100
AcDbEntity
  8
0
 62
7
100
AcDbSpline
 70
8
 71
3
 72
8
 73
4
 74
0
 40
0
 40
0
 40
0
 40
0
 40
1
 40
1
 40
1
 40
1
 10
44.158154
 20
-41.189544
 30
0.0
 10
44.290806
 20
-41.189578
 30
0.0
 10
44.418035
 20
-41.136897
 30
0.0
 10
44.511834
 20
-41.043098
 30
0.0
  0
SPLINE
  5
2bf
100
AcDbEntity
  8
0
 62
7
100
AcDbSpline
 70
8
 71
3
 72
8
 73
4
 74
0
 40
0
 40
0
 40
0
 40
0
 40
1
 40
1
 40
1
 40
1
 10
44.511834
 20
-41.043098
 30
0.0
 10
44.605633
 20
-40.949299
 30
0.0
 10
44.658314
 20
-40.822070
 30
0.0
 10
44.658280
 20
-40.689418
 30
0.0
  0
SPLINE
  5
2c0
100
AcDbEntity
  8
0
 62
7
100
AcDbSpline
 70
8
 71
3
 72
8
 73
4
 74
0
 40
0
 40
0
 40
0
 40
0
 40
1
 40
1
 40
1
 40
1
 10
30.658308
 20
-40.689418
 30
0.0
 10
30.658274
 20
-40.822026
 30
0.0
 10
30.710920
 20
-40.949216
 30
0.0
 10
30.804665
 20
-41.043008
 30
0.0
  0
SPLINE
  5
2c1
100
AcDbEntity
  8
0
 62
7
100
AcDbSpline
 70
8
 71
3
 72
8
 73
4
 74
0
 40
0
 40
0
 40
0
 40
0
 40
1
 40
1
 40
1
 40
1
 10
30.804665
 20
-41.043008
 30
0.0
 10
30.898409
 20
-41.136800
 30
0.0
 10
31.025572
 20
-41.189511
 30
0.0
 10
31.158180
 20
-41.189544
 30
0.0
  0
SPLINE
  5
2c2
100
AcDbEntity
  8
0
 62
7
100
AcDbSpline
 70
8
 71
3
 72
8
 73
4
 74
0
 40
0
 40
0
 40
0
 40
0
 40
1
 40
1
 40
1
 40
1
 10
31.158180
 20
-27.189572
 30
0.0
 10
30.882137
 20
-27.189642
 30
0.0
 10
30.658378
 20
-27.413402
 30
0.0
 10
30.658308
 20
-27.689444
 30
0.0
  0
SPLINE
  5
2c3
100
AcDbEntity
  8
0
 62
7
100
AcDbSpline
 70
8
 71
3
 72
8
 73
4
 74
0
 40
0
 40
0
 40
0
 40
0
 40
1
 40
1
 40
1
 40
1
 10
44.658280
 20
-27.689444
 30
0.0
 10
44.658246
 20
-27.556836
 30
0.0
 10
44.605536
 20
-27.429673
 30
0.0
 10
44.511744
 20
-27.335929
 30
0.0
  0
SPLINE
  5
2c4
100
AcDbEntity
  8
0
 62
7
100
AcDbSpline
 70
8
 71
3
 72
8
 73
4
 74
0
 40
0
 40
0
 40
0
 40
0
 40
1
 40
1
 40
1
 40
1
 10
44.511744
 20
-27.335929
 30
0.0
 10
44.417952
 20
-27.242185
 30
0.0
 10
44.290762
 20
-27.189539
 30
0.0
 10
44.158154
 20
-27.189572
 30
0.0
  0
LWPOLYLINE
  5
2c5
100
AcDbEntity
  8
0
 62
7
100
AcDbPolyline
 90
2
 70
0
 10
63.205360
 20
-27.187286
 30
0.0
 10
50.205640
 20
-27.187286
 30
0.0
  0
LWPOLYLINE
  5
2c6
100
AcDbEntity
  8
0
 62
7
100
AcDbPolyline
 90
2
 70
0
 10
44.655740
 20
-40.687386
 30
0.0
 10
44.655740
 20
-27.687666
 30
0.0
  0
LWPOLYLINE
  5
2c7
100
AcDbEntity
  8
0
 62
7
100
AcDbPolyline
 90
2
 70
0
 10
31.158180
 20
-41.187766
 30
0.0
 10
44.157900
 20
-41.187766
 30
0.0
  0
LWPOLYLINE
  5
2c8
100
AcDbEntity
  8
0
 62
7
100
AcDbPolyline
 90
2
 70
0
 10
30.657800
 20
-27.687666
 30
0.0
 10
30.657800
 20
-40.687386
 30
0.0
  0
SPLINE
  5
2c9
100
AcDbEntity
  8
0
 62
7
100
AcDbSpline
 70
8
 71
3
 72
8
 73
4
 74
0
 40
0
 40
0
 40
0
 40
0
 40
1
 40
1
 40
1
 40
1
 10
210.835240
 20
-22.140636
 30
0.0
 10
210.967870
 20
-22.140670
 30
0.0
 10
211.095079
 20
-22.088007
 30
0.0
 10
211.188875
 20
-21.994235
 30
0.0
  0
SPLINE
  5
2ca
100
AcDbEntity
  8
0
 62
7
100
AcDbSpline
 70
8
 71
3
 72
8
 73
4
 74
0
 40
0
 40
0
 40
0
 40
0
 40
1
 40
1
 40
1
 40
1
 10
211.188875
 20
-21.994235
 30
0.0
 10
211.282670
 20
-21.900463
 30
0.0
 10
211.335366
 20
-21.773267
 30
0.0
 10
211.335366
 20
-21.640637
 30
0.0
  0
SPLINE
  5
2cb
100
AcDbEntity
  8
0
 62
7
100
AcDbSpline
 70
8
 71
3
 72
8
 73
4
 74
0
 40
0
 40
0
 40
0
 40
0
 40
1
 40
1
 40
1
 40
1
 10
197.335394
 20
-21.640637
 30
0.0
 10
197.335394
 20
-21.916730
 30
0.0
 10
197.559174
 20
-22.140566
 30
0.0
 10
197.835266
 20
-22.140636
 30
0.0
  0
SPLINE
  5
2cc
100
AcDbEntity
  8
0
 62
7
100
AcDbSpline
 70
8
 71
3
 72
8
 73
4
 74
0
 40
0
 40
0
 40
0
 40
0
 40
1
 40
1
 40
1
 40
1
 10
197.835266
 20
-8.140639
 30
0.0
 10
197.559174
 20
-8.140709
 30
0.0
 10
197.335394
 20
-8.364546
 30
0.0
 10
197.335394
 20
-8.640638
 30
0.0
  0
SPLINE
  5
2cd
100
AcDbEntity
  8
0
 62
7
100
AcDbSpline
 70
8
 71
3
 72
8
 73
4
 74
0
 40
0
 40
0
 40
0
 40
0
 40
1
 40
1
 40
1
 40
1
 10
211.335366
 20
-8.640638
 30
0.0
 10
211.335366
 20
-8.508008
 30
0.0
 10
211.282670
 20
-8.380812
 30
0.0
 10
211.188875
 20
-8.287040
 30
0.0
  0
SPLINE
  5
2ce
100
AcDbEntity
  8
0
 62
7
100
AcDbSpline
 70
8
 71
3
 72
8
 73
4
 74
0
 40
0
 40
0
 40
0
 40
0
 40
1
 40
1
 40
1
 40
1
 10
211.188875
 20
-8.287040
 30
0.0
 10
211.095079
 20
-8.193269
 30
0.0
 10
210.967870
 20
-8.140605
 30
0.0
 10
210.835240
 20
-8.140639
 30
0.0
  0
LWPOLYLINE
  5
2cf
100
AcDbEntity
  8
0
 62
7
100
AcDbPolyline
 90
2
 70
0
 10
44.157900
 20
-27.187286
 30
0.0
 10
31.158180
 20
-27.187286
 30
0.0
  0
LWPOLYLINE
  5
2d0
100
AcDbEntity
  8
0
 62
7
100
AcDbPolyline
 90
2
 70
0
 10
211.333080
 20
-21.639926
 30
0.0
 10
211.333080
 20
-8.640206
 30
0.0
  0
LWPOLYLINE
  5
2d1
100
AcDbEntity
  8
0
 62
7
100
AcDbPolyline
 90
2
 70
0
 10
197.832980
 20
-22.140306
 30
0.0
 10
210.835240
 20
-22.140306
 30
0.0
  0
LWPOLYLINE
  5
2d2
100
AcDbEntity
  8
0
 62
7
100
AcDbPolyline
 90
2
 70
0
 10
197.335140
 20
-8.640206
 30
0.0
 10
197.335140
 20
-21.639926
 30
0.0
  0
SPLINE
  5
2d3
100
AcDbEntity
  8
0
 62
7
100
AcDbSpline
 70
8
 71
3
 72
8
 73
4
 74
0
 40
0
 40
0
 40
0
 40
0
 40
1
 40
1
 40
1
 40
1
 10
191.786510
 20
-22.140636
 30
0.0
 10
192.062602
 20
-22.140566
 30
0.0
 10
192.286382
 20
-21.916730
 30
0.0
 10
192.286382
 20
-21.640637
 30
0.0
  0
SPLINE
  5
2d4
100
AcDbEntity
  8
0
 62
7
100
AcDbSpline
 70
8
 71
3
 72
8
 73
4
 74
0
 40
0
 40
0
 40
0
 40
0
 40
1
 40
1
 40
1
 40
1
 10
178.286410
 20
-21.640637
 30
0.0
 10
178.286410
 20
-21.773267
 30
0.0
 10
178.339106
 20
-21.900463
 30
0.0
 10
178.432901
 20
-21.994235
 30
0.0
  0
SPLINE
  5
2d5
100
AcDbEntity
  8
0
 62
7
100
AcDbSpline
 70
8
 71
3
 72
8
 73
4
 74
0
 40
0
 40
0
 40
0
 40
0
 40
1
 40
1
 40
1
 40
1
 10
178.432901
 20
-21.994235
 30
0.0
 10
178.526697
 20
-22.088007
 30
0.0
 10
178.653906
 20
-22.140670
 30
0.0
 10
178.786536
 20
-22.140636
 30
0.0
  0
SPLINE
  5
2d6
100
AcDbEntity
  8
0
 62
7
100
AcDbSpline
 70
8
 71
3
 72
8
 73
4
 74
0
 40
0
 40
0
 40
0
 40
0
 40
1
 40
1
 40
1
 40
1
 10
178.786536
 20
-8.140639
 30
0.0
 10
178.653906
 20
-8.140605
 30
0.0
 10
178.526697
 20
-8.193269
 30
0.0
 10
178.432901
 20
-8.287040
 30
0.0
  0
SPLINE
  5
2d7
100
AcDbEntity
  8
0
 62
7
100
AcDbSpline
 70
8
 71
3
 72
8
 73
4
 74
0
 40
0
 40
0
 40
0
 40
0
 40
1
 40
1
 40
1
 40
1
 10
178.432901
 20
-8.287040
 30
0.0
 10
178.339106
 20
-8.380812
 30
0.0
 10
178.286410
 20
-8.508008
 30
0.0
 10
178.286410
 20
-8.640638
 30
0.0
  0
SPLINE
  5
2d8
100
AcDbEntity
  8
0
 62
7
100
AcDbSpline
 70
8
 71
3
 72
8
 73
4
 74
0
 40
0
 40
0
 40
0
 40
0
 40
1
 40
1
 40
1
 40
1
 10
192.286382
 20
-8.640638
 30
0.0
 10
192.286382
 20
-8.364546
 30
0.0
 10
192.062602
 20
-8.140709
 30
0.0
 10
191.786510
 20
-8.140639
 30
0.0
  0
LWPOLYLINE
  5
2d9
100
AcDbEntity
  8
0
 62
7
100
AcDbPolyline
 90
2
 70
0
 10
210.835240
 20
-8.139826
 30
0.0
 10
197.832980
 20
-8.139826
 30
0.0
  0
LWPOLYLINE
  5
2da
100
AcDbEntity
  8
0
 62
7
100
AcDbPolyline
 90
2
 70
0
 10
192.285620
 20
-21.639926
 30
0.0
 10
192.285620
 20
-8.640206
 30
0.0
  0
LWPOLYLINE
  5
2db
100
AcDbEntity
  8
0
 62
7
100
AcDbPolyline
 90
2
 70
0
 10
178.785520
 20
-22.140306
 30
0.0
 10
191.785240
 20
-22.140306
 30
0.0
  0
LWPOLYLINE
  5
2dc
100
AcDbEntity
  8
0
 62
7
100
AcDbPolyline
 90
2
 70
0
 10
178.285140
 20
-8.640206
 30
0.0
 10
178.285140
 20
-21.639926
 30
0.0
  0
SPLINE
  5
2dd
100
AcDbEntity
  8
0
 62
7
100
AcDbSpline
 70
8
 71
3
 72
8
 73
4
 74
0
 40
0
 40
0
 40
0
 40
0
 40
1
 40
1
 40
1
 40
1
 10
172.737780
 20
-22.140636
 30
0.0
 10
173.013872
 20
-22.140566
 30
0.0
 10
173.237652
 20
-21.916730
 30
0.0
 10
173.237652
 20
-21.640637
 30
0.0
  0
SPLINE
  5
2de
100
AcDbEntity
  8
0
 62
7
100
AcDbSpline
 70
8
 71
3
 72
8
 73
4
 74
0
 40
0
 40
0
 40
0
 40
0
 40
1
 40
1
 40
1
 40
1
 10
159.237680
 20
-21.640637
 30
0.0
 10
159.237680
 20
-21.916730
 30
0.0
 10
159.461460
 20
-22.140566
 30
0.0
 10
159.737552
 20
-22.140636
 30
0.0
  0
SPLINE
  5
2df
100
AcDbEntity
  8
0
 62
7
100
AcDbSpline
 70
8
 71
3
 72
8
 73
4
 74
0
 40
0
 40
0
 40
0
 40
0
 40
1
 40
1
 40
1
 40
1
 10
159.737552
 20
-8.140639
 30
0.0
 10
159.461460
 20
-8.140709
 30
0.0
 10
159.237680
 20
-8.364546
 30
0.0
 10
159.237680
 20
-8.640638
 30
0.0
  0
SPLINE
  5
2e0
100
AcDbEntity
  8
0
 62
7
100
AcDbSpline
 70
8
 71
3
 72
8
 73
4
 74
0
 40
0
 40
0
 40
0
 40
0
 40
1
 40
1
 40
1
 40
1
 10
173.237652
 20
-8.640638
 30
0.0
 10
173.237652
 20
-8.364546
 30
0.0
 10
173.013872
 20
-8.140709
 30
0.0
 10
172.737780
 20
-8.140639
 30
0.0
  0
LWPOLYLINE
  5
2e1
100
AcDbEntity
  8
0
 62
7
100
AcDbPolyline
 90
2
 70
0
 10
191.785240
 20
-8.139826
 30
0.0
 10
178.785520
 20
-8.139826
 30
0.0
  0
LWPOLYLINE
  5
2e2
100
AcDbEntity
  8
0
 62
7
100
AcDbPolyline
 90
2
 70
0
 10
173.235620
 20
-21.639926
 30
0.0
 10
173.235620
 20
-8.640206
 30
0.0
  0
LWPOLYLINE
  5
2e3
100
AcDbEntity
  8
0
 62
7
100
AcDbPolyline
 90
2
 70
0
 10
159.735520
 20
-22.140306
 30
0.0
 10
172.735240
 20
-22.140306
 30
0.0
  0
LWPOLYLINE
  5
2e4
100
AcDbEntity
  8
0
 62
7
100
AcDbPolyline
 90
2
 70
0
 10
159.235140
 20
-8.640206
 30
0.0
 10
159.235140
 20
-21.639926
 30
0.0
  0
SPLINE
  5
2e5
100
AcDbEntity
  8
0
 62
7
100
AcDbSpline
 70
8
 71
3
 72
8
 73
4
 74
0
 40
0
 40
0
 40
0
 40
0
 40
1
 40
1
 40
1
 40
1
 10
153.688796
 20
-22.140636
 30
0.0
 10
153.821426
 20
-22.140670
 30
0.0
 10
153.948635
 20
-22.088007
 30
0.0
 10
154.042431
 20
-21.994235
 30
0.0
  0
SPLINE
  5
2e6
100
AcDbEntity
  8
0
 62
7
100
AcDbSpline
 70
8
 71
3
 72
8
 73
4
 74
0
 40
0
 40
0
 40
0
 40
0
 40
1
 40
1
 40
1
 40
1
 10
154.042431
 20
-21.994235
 30
0.0
 10
154.136226
 20
-21.900463
 30
0.0
 10
154.188922
 20
-21.773267
 30
0.0
 10
154.188922
 20
-21.640637
 30
0.0
  0
SPLINE
  5
2e7
100
AcDbEntity
  8
0
 62
7
100
AcDbSpline
 70
8
 71
3
 72
8
 73
4
 74
0
 40
0
 40
0
 40
0
 40
0
 40
1
 40
1
 40
1
 40
1
 10
140.188950
 20
-21.640637
 30
0.0
 10
140.188950
 20
-21.916730
 30
0.0
 10
140.412730
 20
-22.140566
 30
0.0
 10
140.688822
 20
-22.140636
 30
0.0
  0
SPLINE
  5
2e8
100
AcDbEntity
  8
0
 62
7
100
AcDbSpline
 70
8
 71
3
 72
8
 73
4
 74
0
 40
0
 40
0
 40
0
 40
0
 40
1
 40
1
 40
1
 40
1
 10
140.688822
 20
-8.140639
 30
0.0
 10
140.412730
 20
-8.140709
 30
0.0
 10
140.188950
 20
-8.364546
 30
0.0
 10
140.188950
 20
-8.640638
 30
0.0
  0
SPLINE
  5
2e9
100
AcDbEntity
  8
0
 62
7
100
AcDbSpline
 70
8
 71
3
 72
8
 73
4
 74
0
 40
0
 40
0
 40
0
 40
0
 40
1
 40
1
 40
1
 40
1
 10
154.188922
 20
-8.640638
 30
0.0
 10
154.188922
 20
-8.508008
 30
0.0
 10
154.136226
 20
-8.380812
 30
0.0
 10
154.042431
 20
-8.287040
 30
0.0
  0
SPLINE
  5
2ea
100
AcDbEntity
  8
0
 62
7
100
AcDbSpline
 70
8
 71
3
 72
8
 73
4
 74
0
 40
0
 40
0
 40
0
 40
0
 40
1
 40
1
 40
1
 40
1
 10
154.042431
 20
-8.287040
 30
0.0
 10
153.948635
 20
-8.193269
 30
0.0
 10
153.821426
 20
-8.140605
 30
0.0
 10
153.688796
 20
-8.140639
 30
0.0
  0
LWPOLYLINE
  5
2eb
100
AcDbEntity
  8
0
 62
7
100
AcDbPolyline
 90
2
 70
0
 10
172.735240
 20
-8.139826
 30
0.0
 10
159.735520
 20
-8.139826
 30
0.0
  0
LWPOLYLINE
  5
2ec
100
AcDbEntity
  8
0
 62
7
100
AcDbPolyline
 90
2
 70
0
 10
154.188160
 20
-21.639926
 30
0.0
 10
154.188160
 20
-8.640206
 30
0.0
  0
LWPOLYLINE
  5
2ed
100
AcDbEntity
  8
0
 62
7
100
AcDbPolyline
 90
2
 70
0
 10
140.688060
 20
-22.140306
 30
0.0
 10
153.687780
 20
-22.140306
 30
0.0
  0
LWPOLYLINE
  5
2ee
100
AcDbEntity
  8
0
 62
7
100
AcDbPolyline
 90
2
 70
0
 10
140.187680
 20
-8.640206
 30
0.0
 10
140.187680
 20
-21.639926
 30
0.0
  0
SPLINE
  5
2ef
100
AcDbEntity
  8
0
 62
7
100
AcDbSpline
 70
8
 71
3
 72
8
 73
4
 74
0
 40
0
 40
0
 40
0
 40
0
 40
1
 40
1
 40
1
 40
1
 10
134.640066
 20
-22.140636
 30
0.0
 10
134.772696
 20
-22.140670
 30
0.0
 10
134.899905
 20
-22.088007
 30
0.0
 10
134.993701
 20
-21.994235
 30
0.0
  0
SPLINE
  5
2f0
100
AcDbEntity
  8
0
 62
7
100
AcDbSpline
 70
8
 71
3
 72
8
 73
4
 74
0
 40
0
 40
0
 40
0
 40
0
 40
1
 40
1
 40
1
 40
1
 10
134.993701
 20
-21.994235
 30
0.0
 10
135.087496
 20
-21.900463
 30
0.0
 10
135.140192
 20
-21.773267
 30
0.0
 10
135.140192
 20
-21.640637
 30
0.0
  0
SPLINE
  5
2f1
100
AcDbEntity
  8
0
 62
7
100
AcDbSpline
 70
8
 71
3
 72
8
 73
4
 74
0
 40
0
 40
0
 40
0
 40
0
 40
1
 40
1
 40
1
 40
1
 10
121.139966
 20
-21.640637
 30
0.0
 10
121.139966
 20
-21.773267
 30
0.0
 10
121.192662
 20
-21.900463
 30
0.0
 10
121.286457
 20
-21.994235
 30
0.0
  0
SPLINE
  5
2f2
100
AcDbEntity
  8
0
 62
7
100
AcDbSpline
 70
8
 71
3
 72
8
 73
4
 74
0
 40
0
 40
0
 40
0
 40
0
 40
1
 40
1
 40
1
 40
1
 10
121.286457
 20
-21.994235
 30
0.0
 10
121.380253
 20
-22.088007
 30
0.0
 10
121.507462
 20
-22.140670
 30
0.0
 10
121.640092
 20
-22.140636
 30
0.0
  0
SPLINE
  5
2f3
100
AcDbEntity
  8
0
 62
7
100
AcDbSpline
 70
8
 71
3
 72
8
 73
4
 74
0
 40
0
 40
0
 40
0
 40
0
 40
1
 40
1
 40
1
 40
1
 10
121.640092
 20
-8.140639
 30
0.0
 10
121.507462
 20
-8.140605
 30
0.0
 10
121.380253
 20
-8.193269
 30
0.0
 10
121.286457
 20
-8.287040
 30
0.0
  0
SPLINE
  5
2f4
100
AcDbEntity
  8
0
 62
7
100
AcDbSpline
 70
8
 71
3
 72
8
 73
4
 74
0
 40
0
 40
0
 40
0
 40
0
 40
1
 40
1
 40
1
 40
1
 10
121.286457
 20
-8.287040
 30
0.0
 10
121.192662
 20
-8.380812
 30
0.0
 10
121.139966
 20
-8.508008
 30
0.0
 10
121.139966
 20
-8.640638
 30
0.0
  0
SPLINE
  5
2f5
100
AcDbEntity
  8
0
 62
7
100
AcDbSpline
 70
8
 71
3
 72
8
 73
4
 74
0
 40
0
 40
0
 40
0
 40
0
 40
1
 40
1
 40
1
 40
1
 10
135.140192
 20
-8.640638
 30
0.0
 10
135.140192
 20
-8.508008
 30
0.0
 10
135.087496
 20
-8.380812
 30
0.0
 10
134.993701
 20
-8.287040
 30
0.0
  0
SPLINE
  5
2f6
100
AcDbEntity
  8
0
 62
7
100
AcDbSpline
 70
8
 71
3
 72
8
 73
4
 74
0
 40
0
 40
0
 40
0
 40
0
 40
1
 40
1
 40
1
 40
1
 10
134.993701
 20
-8.287040
 30
0.0
 10
134.899905
 20
-8.193269
 30
0.0
 10
134.772696
 20
-8.140605
 30
0.0
 10
134.640066
 20
-8.140639
 30
0.0
  0
LWPOLYLINE
  5
2f7
100
AcDbEntity
  8
0
 62
7
100
AcDbPolyline
 90
2
 70
0
 10
153.687780
 20
-8.139826
 30
0.0
 10
140.688060
 20
-8.139826
 30
0.0
  0
LWPOLYLINE
  5
2f8
100
AcDbEntity
  8
0
 62
7
100
AcDbPolyline
 90
2
 70
0
 10
135.138160
 20
-21.639926
 30
0.0
 10
135.138160
 20
-8.640206
 30
0.0
  0
LWPOLYLINE
  5
2f9
100
AcDbEntity
  8
0
 62
7
100
AcDbPolyline
 90
2
 70
0
 10
121.638060
 20
-22.140306
 30
0.0
 10
134.637780
 20
-22.140306
 30
0.0
  0
LWPOLYLINE
  5
2fa
100
AcDbEntity
  8
0
 62
7
100
AcDbPolyline
 90
2
 70
0
 10
121.137680
 20
-8.640206
 30
0.0
 10
121.137680
 20
-21.639926
 30
0.0
  0
SPLINE
  5
2fb
100
AcDbEntity
  8
0
 62
7
100
AcDbSpline
 70
8
 71
3
 72
8
 73
4
 74
0
 40
0
 40
0
 40
0
 40
0
 40
1
 40
1
 40
1
 40
1
 10
115.591336
 20
-22.140636
 30
0.0
 10
115.867428
 20
-22.140566
 30
0.0
 10
116.091208
 20
-21.916730
 30
0.0
 10
116.091208
 20
-21.640637
 30
0.0
  0
SPLINE
  5
2fc
100
AcDbEntity
  8
0
 62
7
100
AcDbSpline
 70
8
 71
3
 72
8
 73
4
 74
0
 40
0
 40
0
 40
0
 40
0
 40
1
 40
1
 40
1
 40
1
 10
102.091236
 20
-21.640637
 30
0.0
 10
102.091236
 20
-21.773267
 30
0.0
 10
102.143932
 20
-21.900463
 30
0.0
 10
102.237727
 20
-21.994235
 30
0.0
  0
SPLINE
  5
2fd
100
AcDbEntity
  8
0
 62
7
100
AcDbSpline
 70
8
 71
3
 72
8
 73
4
 74
0
 40
0
 40
0
 40
0
 40
0
 40
1
 40
1
 40
1
 40
1
 10
102.237727
 20
-21.994235
 30
0.0
 10
102.331523
 20
-22.088007
 30
0.0
 10
102.458732
 20
-22.140670
 30
0.0
 10
102.591362
 20
-22.140636
 30
0.0
  0
SPLINE
  5
2fe
100
AcDbEntity
  8
0
 62
7
100
AcDbSpline
 70
8
 71
3
 72
8
 73
4
 74
0
 40
0
 40
0
 40
0
 40
0
 40
1
 40
1
 40
1
 40
1
 10
102.591362
 20
-8.140639
 30
0.0
 10
102.458732
 20
-8.140605
 30
0.0
 10
102.331523
 20
-8.193269
 30
0.0
 10
102.237727
 20
-8.287040
 30
0.0
  0
SPLINE
  5
2ff
100
AcDbEntity
  8
0
 62
7
100
AcDbSpline
 70
8
 71
3
 72
8
 73
4
 74
0
 40
0
 40
0
 40
0
 40
0
 40
1
 40
1
 40
1
 40
1
 10
102.237727
 20
-8.287040
 30
0.0
 10
102.143932
 20
-8.380812
 30
0.0
 10
102.091236
 20
-8.508008
 30
0.0
 10
102.091236
 20
-8.640638
 30
0.0
  0
SPLINE
  5
300
100
AcDbEntity
  8
0
 62
7
100
AcDbSpline
 70
8
 71
3
 72
8
 73
4
 74
0
 40
0
 40
0
 40
0
 40
0
 40
1
 40
1
 40
1
 40
1
 10
116.091208
 20
-8.640638
 30
0.0
 10
116.091208
 20
-8.364546
 30
0.0
 10
115.867428
 20
-8.140709
 30
0.0
 10
115.591336
 20
-8.140639
 30
0.0
  0
LWPOLYLINE
  5
301
100
AcDbEntity
  8
0
 62
7
100
AcDbPolyline
 90
2
 70
0
 10
134.637780
 20
-8.139826
 30
0.0
 10
121.638060
 20
-8.139826
 30
0.0
  0
LWPOLYLINE
  5
302
100
AcDbEntity
  8
0
 62
7
100
AcDbPolyline
 90
2
 70
0
 10
116.090700
 20
-21.639926
 30
0.0
 10
116.090700
 20
-8.640206
 30
0.0
  0
LWPOLYLINE
  5
303
100
AcDbEntity
  8
0
 62
7
100
AcDbPolyline
 90
2
 70
0
 10
102.590600
 20
-22.140306
 30
0.0
 10
115.590320
 20
-22.140306
 30
0.0
  0
LWPOLYLINE
  5
304
100
AcDbEntity
  8
0
 62
7
100
AcDbPolyline
 90
2
 70
0
 10
102.090220
 20
-8.640206
 30
0.0
 10
102.090220
 20
-21.639926
 30
0.0
  0
SPLINE
  5
305
100
AcDbEntity
  8
0
 62
7
100
AcDbSpline
 70
8
 71
3
 72
8
 73
4
 74
0
 40
0
 40
0
 40
0
 40
0
 40
1
 40
1
 40
1
 40
1
 10
96.542352
 20
-22.140636
 30
0.0
 10
96.674982
 20
-22.140670
 30
0.0
 10
96.802191
 20
-22.088007
 30
0.0
 10
96.895987
 20
-21.994235
 30
0.0
  0
SPLINE
  5
306
100
AcDbEntity
  8
0
 62
7
100
AcDbSpline
 70
8
 71
3
 72
8
 73
4
 74
0
 40
0
 40
0
 40
0
 40
0
 40
1
 40
1
 40
1
 40
1
 10
96.895987
 20
-21.994235
 30
0.0
 10
96.989782
 20
-21.900463
 30
0.0
 10
97.042478
 20
-21.773267
 30
0.0
 10
97.042478
 20
-21.640637
 30
0.0
  0
SPLINE
  5
307
100
AcDbEntity
  8
0
 62
7
100
AcDbSpline
 70
8
 71
3
 72
8
 73
4
 74
0
 40
0
 40
0
 40
0
 40
0
 40
1
 40
1
 40
1
 40
1
 10
83.042506
 20
-21.640637
 30
0.0
 10
83.042506
 20
-21.916730
 30
0.0
 10
83.266286
 20
-22.140566
 30
0.0
 10
83.542378
 20
-22.140636
 30
0.0
  0
SPLINE
  5
308
100
AcDbEntity
  8
0
 62
7
100
AcDbSpline
 70
8
 71
3
 72
8
 73
4
 74
0
 40
0
 40
0
 40
0
 40
0
 40
1
 40
1
 40
1
 40
1
 10
83.542378
 20
-8.140639
 30
0.0
 10
83.266286
 20
-8.140709
 30
0.0
 10
83.042506
 20
-8.364546
 30
0.0
 10
83.042506
 20
-8.640638
 30
0.0
  0
SPLINE
  5
309
100
AcDbEntity
  8
0
 62
7
100
AcDbSpline
 70
8
 71
3
 72
8
 73
4
 74
0
 40
0
 40
0
 40
0
 40
0
 40
1
 40
1
 40
1
 40
1
 10
97.042478
 20
-8.640638
 30
0.0
 10
97.042478
 20
-8.508008
 30
0.0
 10
96.989782
 20
-8.380812
 30
0.0
 10
96.895987
 20
-8.287040
 30
0.0
  0
SPLINE
  5
30a
100
AcDbEntity
  8
0
 62
7
100
AcDbSpline
 70
8
 71
3
 72
8
 73
4
 74
0
 40
0
 40
0
 40
0
 40
0
 40
1
 40
1
 40
1
 40
1
 10
96.895987
 20
-8.287040
 30
0.0
 10
96.802191
 20
-8.193269
 30
0.0
 10
96.674982
 20
-8.140605
 30
0.0
 10
96.542352
 20
-8.140639
 30
0.0
  0
LWPOLYLINE
  5
30b
100
AcDbEntity
  8
0
 62
7
100
AcDbPolyline
 90
2
 70
0
 10
115.590320
 20
-8.139826
 30
0.0
 10
102.590600
 20
-8.139826
 30
0.0
  0
LWPOLYLINE
  5
30c
100
AcDbEntity
  8
0
 62
7
100
AcDbPolyline
 90
2
 70
0
 10
97.040700
 20
-21.639926
 30
0.0
 10
97.040700
 20
-8.640206
 30
0.0
  0
LWPOLYLINE
  5
30d
100
AcDbEntity
  8
0
 62
7
100
AcDbPolyline
 90
2
 70
0
 10
83.540600
 20
-22.140306
 30
0.0
 10
96.540320
 20
-22.140306
 30
0.0
  0
LWPOLYLINE
  5
30e
100
AcDbEntity
  8
0
 62
7
100
AcDbPolyline
 90
2
 70
0
 10
83.040220
 20
-8.640206
 30
0.0
 10
83.040220
 20
-21.639926
 30
0.0
  0
SPLINE
  5
30f
100
AcDbEntity
  8
0
 62
7
100
AcDbSpline
 70
8
 71
3
 72
8
 73
4
 74
0
 40
0
 40
0
 40
0
 40
0
 40
1
 40
1
 40
1
 40
1
 10
77.493622
 20
-22.140636
 30
0.0
 10
77.626252
 20
-22.140670
 30
0.0
 10
77.753461
 20
-22.088007
 30
0.0
 10
77.847257
 20
-21.994235
 30
0.0
  0
SPLINE
  5
310
100
AcDbEntity
  8
0
 62
7
100
AcDbSpline
 70
8
 71
3
 72
8
 73
4
 74
0
 40
0
 40
0
 40
0
 40
0
 40
1
 40
1
 40
1
 40
1
 10
77.847257
 20
-21.994235
 30
0.0
 10
77.941052
 20
-21.900463
 30
0.0
 10
77.993748
 20
-21.773267
 30
0.0
 10
77.993748
 20
-21.640637
 30
0.0
  0
SPLINE
  5
311
100
AcDbEntity
  8
0
 62
7
100
AcDbSpline
 70
8
 71
3
 72
8
 73
4
 74
0
 40
0
 40
0
 40
0
 40
0
 40
1
 40
1
 40
1
 40
1
 10
63.993776
 20
-21.640637
 30
0.0
 10
63.993776
 20
-21.916730
 30
0.0
 10
64.217556
 20
-22.140566
 30
0.0
 10
64.493648
 20
-22.140636
 30
0.0
  0
SPLINE
  5
312
100
AcDbEntity
  8
0
 62
7
100
AcDbSpline
 70
8
 71
3
 72
8
 73
4
 74
0
 40
0
 40
0
 40
0
 40
0
 40
1
 40
1
 40
1
 40
1
 10
64.493648
 20
-8.140639
 30
0.0
 10
64.217556
 20
-8.140709
 30
0.0
 10
63.993776
 20
-8.364546
 30
0.0
 10
63.993776
 20
-8.640638
 30
0.0
  0
SPLINE
  5
313
100
AcDbEntity
  8
0
 62
7
100
AcDbSpline
 70
8
 71
3
 72
8
 73
4
 74
0
 40
0
 40
0
 40
0
 40
0
 40
1
 40
1
 40
1
 40
1
 10
77.993748
 20
-8.640638
 30
0.0
 10
77.993748
 20
-8.508008
 30
0.0
 10
77.941052
 20
-8.380812
 30
0.0
 10
77.847257
 20
-8.287040
 30
0.0
  0
SPLINE
  5
314
100
AcDbEntity
  8
0
 62
7
100
AcDbSpline
 70
8
 71
3
 72
8
 73
4
 74
0
 40
0
 40
0
 40
0
 40
0
 40
1
 40
1
 40
1
 40
1
 10
77.847257
 20
-8.287040
 30
0.0
 10
77.753461
 20
-8.193269
 30
0.0
 10
77.626252
 20
-8.140605
 30
0.0
 10
77.493622
 20
-8.140639
 30
0.0
  0
LWPOLYLINE
  5
315
100
AcDbEntity
  8
0
 62
7
100
AcDbPolyline
 90
2
 70
0
 10
96.540320
 20
-8.139826
 30
0.0
 10
83.540600
 20
-8.139826
 30
0.0
  0
LWPOLYLINE
  5
316
100
AcDbEntity
  8
0
 62
7
100
AcDbPolyline
 90
2
 70
0
 10
77.993240
 20
-21.639926
 30
0.0
 10
77.993240
 20
-8.640206
 30
0.0
  0
LWPOLYLINE
  5
317
100
AcDbEntity
  8
0
 62
7
100
AcDbPolyline
 90
2
 70
0
 10
64.493140
 20
-22.140306
 30
0.0
 10
77.492860
 20
-22.140306
 30
0.0
  0
LWPOLYLINE
  5
318
100
AcDbEntity
  8
0
 62
7
100
AcDbPolyline
 90
2
 70
0
 10
63.992760
 20
-8.640206
 30
0.0
 10
63.992760
 20
-21.639926
 30
0.0
  0
SPLINE
  5
319
100
AcDbEntity
  8
0
 62
7
100
AcDbSpline
 70
8
 71
3
 72
8
 73
4
 74
0
 40
0
 40
0
 40
0
 40
0
 40
1
 40
1
 40
1
 40
1
 10
58.444892
 20
-22.140636
 30
0.0
 10
58.720984
 20
-22.140566
 30
0.0
 10
58.944764
 20
-21.916730
 30
0.0
 10
58.944764
 20
-21.640637
 30
0.0
  0
SPLINE
  5
31a
100
AcDbEntity
  8
0
 62
7
100
AcDbSpline
 70
8
 71
3
 72
8
 73
4
 74
0
 40
0
 40
0
 40
0
 40
0
 40
1
 40
1
 40
1
 40
1
 10
44.944792
 20
-21.640637
 30
0.0
 10
44.944792
 20
-21.773267
 30
0.0
 10
44.997488
 20
-21.900463
 30
0.0
 10
45.091283
 20
-21.994235
 30
0.0
  0
SPLINE
  5
31b
100
AcDbEntity
  8
0
 62
7
100
AcDbSpline
 70
8
 71
3
 72
8
 73
4
 74
0
 40
0
 40
0
 40
0
 40
0
 40
1
 40
1
 40
1
 40
1
 10
45.091283
 20
-21.994235
 30
0.0
 10
45.185079
 20
-22.088007
 30
0.0
 10
45.312288
 20
-22.140670
 30
0.0
 10
45.444918
 20
-22.140636
 30
0.0
  0
SPLINE
  5
31c
100
AcDbEntity
  8
0
 62
7
100
AcDbSpline
 70
8
 71
3
 72
8
 73
4
 74
0
 40
0
 40
0
 40
0
 40
0
 40
1
 40
1
 40
1
 40
1
 10
45.444918
 20
-8.140639
 30
0.0
 10
45.312288
 20
-8.140605
 30
0.0
 10
45.185079
 20
-8.193269
 30
0.0
 10
45.091283
 20
-8.287040
 30
0.0
  0
SPLINE
  5
31d
100
AcDbEntity
  8
0
 62
7
100
AcDbSpline
 70
8
 71
3
 72
8
 73
4
 74
0
 40
0
 40
0
 40
0
 40
0
 40
1
 40
1
 40
1
 40
1
 10
45.091283
 20
-8.287040
 30
0.0
 10
44.997488
 20
-8.380812
 30
0.0
 10
44.944792
 20
-8.508008
 30
0.0
 10
44.944792
 20
-8.640638
 30
0.0
  0
SPLINE
  5
31e
100
AcDbEntity
  8
0
 62
7
100
AcDbSpline
 70
8
 71
3
 72
8
 73
4
 74
0
 40
0
 40
0
 40
0
 40
0
 40
1
 40
1
 40
1
 40
1
 10
58.944764
 20
-8.640638
 30
0.0
 10
58.944764
 20
-8.364546
 30
0.0
 10
58.720984
 20
-8.140709
 30
0.0
 10
58.444892
 20
-8.140639
 30
0.0
  0
LWPOLYLINE
  5
31f
100
AcDbEntity
  8
0
 62
7
100
AcDbPolyline
 90
2
 70
0
 10
77.492860
 20
-8.139826
 30
0.0
 10
64.493140
 20
-8.139826
 30
0.0
  0
LWPOLYLINE
  5
320
100
AcDbEntity
  8
0
 62
7
100
AcDbPolyline
 90
2
 70
0
 10
58.943240
 20
-21.639926
 30
0.0
 10
58.943240
 20
-8.640206
 30
0.0
  0
LWPOLYLINE
  5
321
100
AcDbEntity
  8
0
 62
7
100
AcDbPolyline
 90
2
 70
0
 10
45.443140
 20
-22.140306
 30
0.0
 10
58.442860
 20
-22.140306
 30
0.0
  0
LWPOLYLINE
  5
322
100
AcDbEntity
  8
0
 62
7
100
AcDbPolyline
 90
2
 70
0
 10
44.942760
 20
-8.640206
 30
0.0
 10
44.942760
 20
-21.639926
 30
0.0
  0
SPLINE
  5
323
100
AcDbEntity
  8
0
 62
7
100
AcDbSpline
 70
8
 71
3
 72
8
 73
4
 74
0
 40
0
 40
0
 40
0
 40
0
 40
1
 40
1
 40
1
 40
1
 10
39.396162
 20
-22.140636
 30
0.0
 10
39.672254
 20
-22.140566
 30
0.0
 10
39.896034
 20
-21.916730
 30
0.0
 10
39.896034
 20
-21.640637
 30
0.0
  0
SPLINE
  5
324
100
AcDbEntity
  8
0
 62
7
100
AcDbSpline
 70
8
 71
3
 72
8
 73
4
 74
0
 40
0
 40
0
 40
0
 40
0
 40
1
 40
1
 40
1
 40
1
 10
25.896062
 20
-21.640637
 30
0.0
 10
25.896062
 20
-21.773267
 30
0.0
 10
25.948758
 20
-21.900463
 30
0.0
 10
26.042553
 20
-21.994235
 30
0.0
  0
SPLINE
  5
325
100
AcDbEntity
  8
0
 62
7
100
AcDbSpline
 70
8
 71
3
 72
8
 73
4
 74
0
 40
0
 40
0
 40
0
 40
0
 40
1
 40
1
 40
1
 40
1
 10
26.042553
 20
-21.994235
 30
0.0
 10
26.136349
 20
-22.088007
 30
0.0
 10
26.263558
 20
-22.140670
 30
0.0
 10
26.396188
 20
-22.140636
 30
0.0
  0
SPLINE
  5
326
100
AcDbEntity
  8
0
 62
7
100
AcDbSpline
 70
8
 71
3
 72
8
 73
4
 74
0
 40
0
 40
0
 40
0
 40
0
 40
1
 40
1
 40
1
 40
1
 10
26.396188
 20
-8.140639
 30
0.0
 10
26.263558
 20
-8.140605
 30
0.0
 10
26.136349
 20
-8.193269
 30
0.0
 10
26.042553
 20
-8.287040
 30
0.0
  0
SPLINE
  5
327
100
AcDbEntity
  8
0
 62
7
100
AcDbSpline
 70
8
 71
3
 72
8
 73
4
 74
0
 40
0
 40
0
 40
0
 40
0
 40
1
 40
1
 40
1
 40
1
 10
26.042553
 20
-8.287040
 30
0.0
 10
25.948758
 20
-8.380812
 30
0.0
 10
25.896062
 20
-8.508008
 30
0.0
 10
25.896062
 20
-8.640638
 30
0.0
  0
SPLINE
  5
328
100
AcDbEntity
  8
0
 62
7
100
AcDbSpline
 70
8
 71
3
 72
8
 73
4
 74
0
 40
0
 40
0
 40
0
 40
0
 40
1
 40
1
 40
1
 40
1
 10
39.896034
 20
-8.640638
 30
0.0
 10
39.896034
 20
-8.364546
 30
0.0
 10
39.672254
 20
-8.140709
 30
0.0
 10
39.396162
 20
-8.140639
 30
0.0
  0
LWPOLYLINE
  5
329
100
AcDbEntity
  8
0
 62
7
100
AcDbPolyline
 90
2
 70
0
 10
58.442860
 20
-8.139826
 30
0.0
 10
45.443140
 20
-8.139826
 30
0.0
  0
LWPOLYLINE
  5
32a
100
AcDbEntity
  8
0
 62
7
100
AcDbPolyline
 90
2
 70
0
 10
39.895780
 20
-21.639926
 30
0.0
 10
39.895780
 20
-8.640206
 30
0.0
  0
LWPOLYLINE
  5
32b
100
AcDbEntity
  8
0
 62
7
100
AcDbPolyline
 90
2
 70
0
 10
26.395680
 20
-22.140306
 30
0.0
 10
39.395400
 20
-22.140306
 30
0.0
  0
LWPOLYLINE
  5
32c
100
AcDbEntity
  8
0
 62
7
100
AcDbPolyline
 90
2
 70
0
 10
25.895300
 20
-8.640206
 30
0.0
 10
25.895300
 20
-21.639926
 30
0.0
  0
SPLINE
  5
32d
100
AcDbEntity
  8
0
 62
7
100
AcDbSpline
 70
8
 71
3
 72
8
 73
4
 74
0
 40
0
 40
0
 40
0
 40
0
 40
1
 40
1
 40
1
 40
1
 10
20.347280
 20
-22.140636
 30
0.0
 10
20.479888
 20
-22.140636
 30
0.0
 10
20.607064
 20
-22.087958
 30
0.0
 10
20.700832
 20
-21.994190
 30
0.0
  0
SPLINE
  5
32e
100
AcDbEntity
  8
0
 62
7
100
AcDbSpline
 70
8
 71
3
 72
8
 73
4
 74
0
 40
0
 40
0
 40
0
 40
0
 40
1
 40
1
 40
1
 40
1
 10
20.700832
 20
-21.994190
 30
0.0
 10
20.794600
 20
-21.900422
 30
0.0
 10
20.847279
 20
-21.773245
 30
0.0
 10
20.847279
 20
-21.640637
 30
0.0
  0
SPLINE
  5
32f
100
AcDbEntity
  8
0
 62
7
100
AcDbSpline
 70
8
 71
3
 72
8
 73
4
 74
0
 40
0
 40
0
 40
0
 40
0
 40
1
 40
1
 40
1
 40
1
 10
6.847281
 20
-21.640637
 30
0.0
 10
6.847281
 20
-21.773245
 30
0.0
 10
6.899960
 20
-21.900422
 30
0.0
 10
6.993728
 20
-21.994190
 30
0.0
  0
SPLINE
  5
330
100
AcDbEntity
  8
0
 62
7
100
AcDbSpline
 70
8
 71
3
 72
8
 73
4
 74
0
 40
0
 40
0
 40
0
 40
0
 40
1
 40
1
 40
1
 40
1
 10
6.993728
 20
-21.994190
 30
0.0
 10
7.087496
 20
-22.087958
 30
0.0
 10
7.214672
 20
-22.140636
 30
0.0
 10
7.347280
 20
-22.140636
 30
0.0
  0
SPLINE
  5
331
100
AcDbEntity
  8
0
 62
7
100
AcDbSpline
 70
8
 71
3
 72
8
 73
4
 74
0
 40
0
 40
0
 40
0
 40
0
 40
1
 40
1
 40
1
 40
1
 10
7.347280
 20
-8.140639
 30
0.0
 10
7.214672
 20
-8.140639
 30
0.0
 10
7.087496
 20
-8.193317
 30
0.0
 10
6.993728
 20
-8.287085
 30
0.0
  0
SPLINE
  5
332
100
AcDbEntity
  8
0
 62
7
100
AcDbSpline
 70
8
 71
3
 72
8
 73
4
 74
0
 40
0
 40
0
 40
0
 40
0
 40
1
 40
1
 40
1
 40
1
 10
6.993728
 20
-8.287085
 30
0.0
 10
6.899960
 20
-8.380853
 30
0.0
 10
6.847281
 20
-8.508030
 30
0.0
 10
6.847281
 20
-8.640638
 30
0.0
  0
SPLINE
  5
333
100
AcDbEntity
  8
0
 62
7
100
AcDbSpline
 70
8
 71
3
 72
8
 73
4
 74
0
 40
0
 40
0
 40
0
 40
0
 40
1
 40
1
 40
1
 40
1
 10
20.847279
 20
-8.640638
 30
0.0
 10
20.847279
 20
-8.508030
 30
0.0
 10
20.794600
 20
-8.380853
 30
0.0
 10
20.700832
 20
-8.287085
 30
0.0
  0
SPLINE
  5
334
100
AcDbEntity
  8
0
 62
7
100
AcDbSpline
 70
8
 71
3
 72
8
 73
4
 74
0
 40
0
 40
0
 40
0
 40
0
 40
1
 40
1
 40
1
 40
1
 10
20.700832
 20
-8.287085
 30
0.0
 10
20.607064
 20
-8.193317
 30
0.0
 10
20.479888
 20
-8.140639
 30
0.0
 10
20.347280
 20
-8.140639
 30
0.0
  0
LWPOLYLINE
  5
335
100
AcDbEntity
  8
0
 62
7
100
AcDbPolyline
 90
2
 70
0
 10
39.395400
 20
-8.139826
 30
0.0
 10
26.395680
 20
-8.139826
 30
0.0
  0
LWPOLYLINE
  5
336
100
AcDbEntity
  8
0
 62
7
100
AcDbPolyline
 90
2
 70
0
 10
20.845780
 20
-21.639926
 30
0.0
 10
20.845780
 20
-8.640206
 30
0.0
  0
LWPOLYLINE
  5
337
100
AcDbEntity
  8
0
 62
7
100
AcDbPolyline
 90
2
 70
0
 10
7.345680
 20
-22.140306
 30
0.0
 10
20.345400
 20
-22.140306
 30
0.0
  0
LWPOLYLINE
  5
338
100
AcDbEntity
  8
0
 62
7
100
AcDbPolyline
 90
2
 70
0
 10
6.845300
 20
-8.640206
 30
0.0
 10
6.845300
 20
-21.639926
 30
0.0
  0
LWPOLYLINE
  5
339
100
AcDbEntity
  8
0
 62
7
100
AcDbPolyline
 90
2
 70
0
 10
20.345400
 20
-8.139826
 30
0.0
 10
7.345680
 20
-8.139826
 30
0.0
  0
ENDSEC
  0
SECTION
  2
OBJECTS
  0
DICTIONARY
  5
C
330
0
100
AcDbDictionary
  3
ACAD_GROUP
350
D
  3
ACAD_MLINESTYLE
350
17
  0
DICTIONARY
  5
D
330
C
100
AcDbDictionary
  0
DICTIONARY
  5
1A
330
C
100
AcDbDictionary
  0
DICTIONARY
  5
17
330
C
100
AcDbDictionary
  3
STANDARD
350
18
  0
DICTIONARY
  5
19
330
C
100
AcDbDictionary
  0
ENDSEC
  0
EOF
