  0
SECTION
  2
HEADER
  9
$ACADVER
  1
AC1014
  9
$HANDSEED
  5
FFFF
  9
$MEASUREMENT
 70
     1
  0
ENDSEC
  0
SECTION
  2
TABLES
  0
TABLE
  2
VPORT
  5
8
330
0
100
AcDbSymbolTable
 70
     4
  0
VPORT
  5
2E
330
8
100
AcDbSymbolTableRecord
100
AcDbViewportTableRecord
  2
*ACTIVE
 70
     0
 10
0.0
 20
0.0
 11
1.0
 21
1.0
 12
210.0
 22
148.5
 13
0.0
 23
0.0
 14
10.0
 24
10.0
 15
10.0
 25
10.0
 16
0.0
 26
0.0
 36
1.0
 17
0.0
 27
0.0
 37
0.0
 40
341.0
 41
1.24
 42
50.0
 43
0.0
 44
0.0
 50
0.0
 51
0.0
 71
     0
 72
   100
 73
     1
 74
     3
 75
     0
 76
     0
 77
     0
 78
     0
  0
ENDTAB
  0
TABLE
  2
LTYPE
  5
5
330
0
100
AcDbSymbolTable
 70
     1
  0
LTYPE
  5
14
330
5
100
AcDbSymbolTableRecord
100
AcDbLinetypeTableRecord
  2
BYBLOCK
 70
     0
  3

 72
    65
 73
     0
 40
0.0
  0
LTYPE
  5
15
330
5
100
AcDbSymbolTableRecord
100
AcDbLinetypeTableRecord
  2
BYLAYER
 70
     0
  3

 72
    65
 73
     0
 40
0.0
  0
LTYPE
  5
16
330
5
100
AcDbSymbolTableRecord
100
AcDbLinetypeTableRecord
  2
CONTINUOUS
 70
     0
  3
Solid line
 72
    65
 73
     0
 40
0.0
  0
ENDTAB
  0
TABLE
  2
LAYER
  5
2
100
AcDbSymbolTable
 70
1
  0
LAYER
  5
50
100
AcDbSymbolTableRecord
100
AcDbLayerTableRecord
  2
0
 70
0
  6
CONTINUOUS
  0
ENDTAB
  0
TABLE
  2
STYLE
  5
3
330
0
100
AcDbSymbolTable
 70
     1
  0
STYLE
  5
11
330
3
100
AcDbSymbolTableRecord
100
AcDbTextStyleTableRecord
  2
STANDARD
 70
     0
 40
0.0
 41
1.0
 50
0.0
 71
     0
 42
2.5
  3
txt
  4

  0
ENDTAB
  0
TABLE
  2
VIEW
  5
6
330
0
100
AcDbSymbolTable
 70
     0
  0
ENDTAB
  0
TABLE
  2
UCS
  5
7
330
0
100
AcDbSymbolTable
 70
     0
  0
ENDTAB
  0
TABLE
  2
APPID
  5
9
330
0
100
AcDbSymbolTable
 70
     2
  0
APPID
  5
12
330
9
100
AcDbSymbolTableRecord
100
AcDbRegAppTableRecord
  2
ACAD
 70
     0
  0
ENDTAB
  0
TABLE
  2
DIMSTYLE
  5
A
330
0
100
AcDbSymbolTable
 70
     1
  0
DIMSTYLE
105
27
330
A
100
AcDbSymbolTableRecord
100
AcDbDimStyleTableRecord
  2
ISO-25
 70
     0
  3

  4

  5

  6

  7

 40
1.0
 41
2.5
 42
0.625
 43
3.75
 44
1.25
 45
0.0
 46
0.0
 47
0.0
 48
0.0
140
2.5
141
2.5
142
0.0
143
0.03937007874016
144
1.0
145
0.0
146
1.0
147
0.625
 71
     0
 72
     0
 73
     0
 74
     0
 75
     0
 76
     0
 77
     1
 78
     8
170
     0
171
     3
172
     1
173
     0
174
     0
175
     0
176
     0
177
     0
178
     0
270
     2
271
     2
272
     2
273
     2
274
     3
340
11
275
     0
280
     0
281
     0
282
     0
283
     0
284
     8
285
     0
286
     0
287
     3
288
     0
  0
ENDTAB
  0
TABLE
  2
BLOCK_RECORD
  5
1
330
0
100
AcDbSymbolTable
 70
     1
  0
BLOCK_RECORD
  5
1F
330
1
100
AcDbSymbolTableRecord
100
AcDbBlockTableRecord
  2
*MODEL_SPACE
  0
BLOCK_RECORD
  5
1B
330
1
100
AcDbSymbolTableRecord
100
AcDbBlockTableRecord
  2
*PAPER_SPACE
  0
ENDTAB
  0
ENDSEC
  0
SECTION
  2
BLOCKS
  0
BLOCK
  5
20
330
1F
100
AcDbEntity
  8
0
100
AcDbBlockBegin
  2
*MODEL_SPACE
 70
     0
 10
0.0
 20
0.0
 30
0.0
  3
*MODEL_SPACE
  1

  0
ENDBLK
  5
21
330
1F
100
AcDbEntity
  8
0
100
AcDbBlockEnd
  0
BLOCK
  5
1C
330
1B
100
AcDbEntity
 67
     1
  8
0
100
AcDbBlockBegin
  2
*PAPER_SPACE
  1

  0
ENDBLK
  5
1D
330
1B
100
AcDbEntity
 67
     1
  8
0
100
AcDbBlockEnd
  0
ENDSEC
  0
SECTION
  2
ENTITIES
  0
LWPOLYLINE
  5
100
100
AcDbEntity
  8
0
 62
7
100
AcDbPolyline
 90
2
 70
0
 10
242.239800
 20
-59.540973
 30
0.0
 10
242.239800
 20
-72.540693
 30
0.0
  0
LWPOLYLINE
  5
101
100
AcDbEntity
  8
0
 62
7
100
AcDbPolyline
 90
2
 70
0
 10
228.739700
 20
-59.040593
 30
0.0
 10
241.739420
 20
-59.040593
 30
0.0
  0
LWPOLYLINE
  5
102
100
AcDbEntity
  8
0
 62
7
100
AcDbPolyline
 90
2
 70
0
 10
220.809820
 20
-59.540973
 30
0.0
 10
220.809820
 20
-72.540693
 30
0.0
  0
SPLINE
  5
103
100
AcDbEntity
  8
0
 62
7
100
AcDbSpline
 70
8
 71
3
 72
8
 73
4
 74
0
 40
0
 40
0
 40
0
 40
0
 40
1
 40
1
 40
1
 40
1
 10
228.741986
 20
-59.042625
 30
0.0
 10
228.609334
 20
-59.042591
 30
0.0
 10
228.482105
 20
-59.095272
 30
0.0
 10
228.388306
 20
-59.189071
 30
0.0
  0
SPLINE
  5
104
100
AcDbEntity
  8
0
 62
7
100
AcDbSpline
 70
8
 71
3
 72
8
 73
4
 74
0
 40
0
 40
0
 40
0
 40
0
 40
1
 40
1
 40
1
 40
1
 10
228.388306
 20
-59.189071
 30
0.0
 10
228.294507
 20
-59.282871
 30
0.0
 10
228.241826
 20
-59.410099
 30
0.0
 10
228.241860
 20
-59.542751
 30
0.0
  0
LWPOLYLINE
  5
105
100
AcDbEntity
  8
0
 62
7
100
AcDbPolyline
 90
2
 70
0
 10
206.809340
 20
-59.540973
 30
0.0
 10
206.809340
 20
-72.540693
 30
0.0
  0
SPLINE
  5
106
100
AcDbEntity
  8
0
 62
7
100
AcDbSpline
 70
8
 71
3
 72
8
 73
4
 74
0
 40
0
 40
0
 40
0
 40
0
 40
1
 40
1
 40
1
 40
1
 10
228.241860
 20
-72.542725
 30
0.0
 10
228.241894
 20
-72.675333
 30
0.0
 10
228.294604
 20
-72.802496
 30
0.0
 10
228.388396
 20
-72.896241
 30
0.0
  0
SPLINE
  5
107
100
AcDbEntity
  8
0
 62
7
100
AcDbSpline
 70
8
 71
3
 72
8
 73
4
 74
0
 40
0
 40
0
 40
0
 40
0
 40
1
 40
1
 40
1
 40
1
 10
228.388396
 20
-72.896241
 30
0.0
 10
228.482188
 20
-72.989985
 30
0.0
 10
228.609378
 20
-73.042631
 30
0.0
 10
228.741986
 20
-73.042597
 30
0.0
  0
SPLINE
  5
108
100
AcDbEntity
  8
0
 62
7
100
AcDbSpline
 70
8
 71
3
 72
8
 73
4
 74
0
 40
0
 40
0
 40
0
 40
0
 40
1
 40
1
 40
1
 40
1
 10
242.241832
 20
-59.542751
 30
0.0
 10
242.241866
 20
-59.410143
 30
0.0
 10
242.189220
 20
-59.282953
 30
0.0
 10
242.095475
 20
-59.189161
 30
0.0
  0
SPLINE
  5
109
100
AcDbEntity
  8
0
 62
7
100
AcDbSpline
 70
8
 71
3
 72
8
 73
4
 74
0
 40
0
 40
0
 40
0
 40
0
 40
1
 40
1
 40
1
 40
1
 10
242.095475
 20
-59.189161
 30
0.0
 10
242.001731
 20
-59.095369
 30
0.0
 10
241.874568
 20
-59.042659
 30
0.0
 10
241.741960
 20
-59.042625
 30
0.0
  0
LWPOLYLINE
  5
10a
100
AcDbEntity
  8
0
 62
7
100
AcDbPolyline
 90
2
 70
0
 10
228.241860
 20
-59.540973
 30
0.0
 10
228.241860
 20
-72.540693
 30
0.0
  0
SPLINE
  5
10b
100
AcDbEntity
  8
0
 62
7
100
AcDbSpline
 70
8
 71
3
 72
8
 73
4
 74
0
 40
0
 40
0
 40
0
 40
0
 40
1
 40
1
 40
1
 40
1
 10
206.810610
 20
-72.542725
 30
0.0
 10
206.810644
 20
-72.675333
 30
0.0
 10
206.863354
 20
-72.802496
 30
0.0
 10
206.957146
 20
-72.896241
 30
0.0
  0
SPLINE
  5
10c
100
AcDbEntity
  8
0
 62
7
100
AcDbSpline
 70
8
 71
3
 72
8
 73
4
 74
0
 40
0
 40
0
 40
0
 40
0
 40
1
 40
1
 40
1
 40
1
 10
206.957146
 20
-72.896241
 30
0.0
 10
207.050938
 20
-72.989985
 30
0.0
 10
207.178128
 20
-73.042631
 30
0.0
 10
207.310736
 20
-73.042597
 30
0.0
  0
SPLINE
  5
10d
100
AcDbEntity
  8
0
 62
7
100
AcDbSpline
 70
8
 71
3
 72
8
 73
4
 74
0
 40
0
 40
0
 40
0
 40
0
 40
1
 40
1
 40
1
 40
1
 10
241.741960
 20
-73.042597
 30
0.0
 10
242.018003
 20
-73.042527
 30
0.0
 10
242.241762
 20
-72.818768
 30
0.0
 10
242.241832
 20
-72.542725
 30
0.0
  0
SPLINE
  5
10e
100
AcDbEntity
  8
0
 62
7
100
AcDbSpline
 70
8
 71
3
 72
8
 73
4
 74
0
 40
0
 40
0
 40
0
 40
0
 40
1
 40
1
 40
1
 40
1
 10
220.810582
 20
-59.542751
 30
0.0
 10
220.810616
 20
-59.410143
 30
0.0
 10
220.757970
 20
-59.282953
 30
0.0
 10
220.664225
 20
-59.189161
 30
0.0
  0
SPLINE
  5
10f
100
AcDbEntity
  8
0
 62
7
100
AcDbSpline
 70
8
 71
3
 72
8
 73
4
 74
0
 40
0
 40
0
 40
0
 40
0
 40
1
 40
1
 40
1
 40
1
 10
220.664225
 20
-59.189161
 30
0.0
 10
220.570481
 20
-59.095369
 30
0.0
 10
220.443318
 20
-59.042659
 30
0.0
 10
220.310710
 20
-59.042625
 30
0.0
  0
SPLINE
  5
110
100
AcDbEntity
  8
0
 62
7
100
AcDbSpline
 70
8
 71
3
 72
8
 73
4
 74
0
 40
0
 40
0
 40
0
 40
0
 40
1
 40
1
 40
1
 40
1
 10
220.310710
 20
-73.042597
 30
0.0
 10
220.586753
 20
-73.042527
 30
0.0
 10
220.810512
 20
-72.818768
 30
0.0
 10
220.810582
 20
-72.542725
 30
0.0
  0
SPLINE
  5
111
100
AcDbEntity
  8
0
 62
7
100
AcDbSpline
 70
8
 71
3
 72
8
 73
4
 74
0
 40
0
 40
0
 40
0
 40
0
 40
1
 40
1
 40
1
 40
1
 10
207.310736
 20
-59.042625
 30
0.0
 10
207.178084
 20
-59.042591
 30
0.0
 10
207.050855
 20
-59.095272
 30
0.0
 10
206.957056
 20
-59.189071
 30
0.0
  0
SPLINE
  5
112
100
AcDbEntity
  8
0
 62
7
100
AcDbSpline
 70
8
 71
3
 72
8
 73
4
 74
0
 40
0
 40
0
 40
0
 40
0
 40
1
 40
1
 40
1
 40
1
 10
206.957056
 20
-59.189071
 30
0.0
 10
206.863257
 20
-59.282871
 30
0.0
 10
206.810576
 20
-59.410099
 30
0.0
 10
206.810610
 20
-59.542751
 30
0.0
  0
SPLINE
  5
113
100
AcDbEntity
  8
0
 62
7
100
AcDbSpline
 70
8
 71
3
 72
8
 73
4
 74
0
 40
0
 40
0
 40
0
 40
0
 40
1
 40
1
 40
1
 40
1
 10
110.298230
 20
-71.542727
 30
0.0
 10
110.298300
 20
-71.818770
 30
0.0
 10
110.522059
 20
-72.042529
 30
0.0
 10
110.798102
 20
-72.042599
 30
0.0
  0
SPLINE
  5
114
100
AcDbEntity
  8
0
 62
7
100
AcDbSpline
 70
8
 71
3
 72
8
 73
4
 74
0
 40
0
 40
0
 40
0
 40
0
 40
1
 40
1
 40
1
 40
1
 10
185.879486
 20
-59.042625
 30
0.0
 10
185.746834
 20
-59.042591
 30
0.0
 10
185.619605
 20
-59.095272
 30
0.0
 10
185.525806
 20
-59.189071
 30
0.0
  0
SPLINE
  5
115
100
AcDbEntity
  8
0
 62
7
100
AcDbSpline
 70
8
 71
3
 72
8
 73
4
 74
0
 40
0
 40
0
 40
0
 40
0
 40
1
 40
1
 40
1
 40
1
 10
185.525806
 20
-59.189071
 30
0.0
 10
185.432007
 20
-59.282871
 30
0.0
 10
185.379326
 20
-59.410099
 30
0.0
 10
185.379360
 20
-59.542751
 30
0.0
  0
SPLINE
  5
116
100
AcDbEntity
  8
0
 62
7
100
AcDbSpline
 70
8
 71
3
 72
8
 73
4
 74
0
 40
0
 40
0
 40
0
 40
0
 40
1
 40
1
 40
1
 40
1
 10
72.198230
 20
-71.542727
 30
0.0
 10
72.198300
 20
-71.818770
 30
0.0
 10
72.422059
 20
-72.042529
 30
0.0
 10
72.698102
 20
-72.042599
 30
0.0
  0
LWPOLYLINE
  5
117
100
AcDbEntity
  8
0
 62
7
100
AcDbPolyline
 90
2
 70
0
 10
228.739700
 20
-73.041073
 30
0.0
 10
241.739420
 20
-73.041073
 30
0.0
  0
SPLINE
  5
118
100
AcDbEntity
  8
0
 62
7
100
AcDbSpline
 70
8
 71
3
 72
8
 73
4
 74
0
 40
0
 40
0
 40
0
 40
0
 40
1
 40
1
 40
1
 40
1
 10
63.648082
 20
-59.542751
 30
0.0
 10
63.648116
 20
-59.410143
 30
0.0
 10
63.595470
 20
-59.282953
 30
0.0
 10
63.501725
 20
-59.189161
 30
0.0
  0
SPLINE
  5
119
100
AcDbEntity
  8
0
 62
7
100
AcDbSpline
 70
8
 71
3
 72
8
 73
4
 74
0
 40
0
 40
0
 40
0
 40
0
 40
1
 40
1
 40
1
 40
1
 10
63.501725
 20
-59.189161
 30
0.0
 10
63.407981
 20
-59.095369
 30
0.0
 10
63.280818
 20
-59.042659
 30
0.0
 10
63.148210
 20
-59.042625
 30
0.0
  0
LWPOLYLINE
  5
11a
100
AcDbEntity
  8
0
 62
7
100
AcDbPolyline
 90
2
 70
0
 10
87.746840
 20
-59.540973
 30
0.0
 10
87.746840
 20
-72.540693
 30
0.0
  0
SPLINE
  5
11b
100
AcDbEntity
  8
0
 62
7
100
AcDbSpline
 70
8
 71
3
 72
8
 73
4
 74
0
 40
0
 40
0
 40
0
 40
0
 40
1
 40
1
 40
1
 40
1
 10
199.379332
 20
-59.542751
 30
0.0
 10
199.379366
 20
-59.410143
 30
0.0
 10
199.326720
 20
-59.282953
 30
0.0
 10
199.232975
 20
-59.189161
 30
0.0
  0
SPLINE
  5
11c
100
AcDbEntity
  8
0
 62
7
100
AcDbSpline
 70
8
 71
3
 72
8
 73
4
 74
0
 40
0
 40
0
 40
0
 40
0
 40
1
 40
1
 40
1
 40
1
 10
199.232975
 20
-59.189161
 30
0.0
 10
199.139231
 20
-59.095369
 30
0.0
 10
199.012068
 20
-59.042659
 30
0.0
 10
198.879460
 20
-59.042625
 30
0.0
  0
LWPOLYLINE
  5
11d
100
AcDbEntity
  8
0
 62
7
100
AcDbPolyline
 90
2
 70
0
 10
185.877200
 20
-73.041073
 30
0.0
 10
198.876920
 20
-73.041073
 30
0.0
  0
LWPOLYLINE
  5
11e
100
AcDbEntity
  8
0
 62
7
100
AcDbPolyline
 90
2
 70
0
 10
185.877200
 20
-59.040593
 30
0.0
 10
198.876920
 20
-59.040593
 30
0.0
  0
SPLINE
  5
11f
100
AcDbEntity
  8
0
 62
7
100
AcDbSpline
 70
8
 71
3
 72
8
 73
4
 74
0
 40
0
 40
0
 40
0
 40
0
 40
1
 40
1
 40
1
 40
1
 10
145.398236
 20
-59.042625
 30
0.0
 10
145.265584
 20
-59.042591
 30
0.0
 10
145.138355
 20
-59.095272
 30
0.0
 10
145.044556
 20
-59.189071
 30
0.0
  0
SPLINE
  5
120
100
AcDbEntity
  8
0
 62
7
100
AcDbSpline
 70
8
 71
3
 72
8
 73
4
 74
0
 40
0
 40
0
 40
0
 40
0
 40
1
 40
1
 40
1
 40
1
 10
145.044556
 20
-59.189071
 30
0.0
 10
144.950757
 20
-59.282871
 30
0.0
 10
144.898076
 20
-59.410099
 30
0.0
 10
144.898110
 20
-59.542751
 30
0.0
  0
SPLINE
  5
121
100
AcDbEntity
  8
0
 62
7
100
AcDbSpline
 70
8
 71
3
 72
8
 73
4
 74
0
 40
0
 40
0
 40
0
 40
0
 40
1
 40
1
 40
1
 40
1
 10
78.698090
 20
-72.042599
 30
0.0
 10
78.830698
 20
-72.042633
 30
0.0
 10
78.957888
 20
-71.989987
 30
0.0
 10
79.051680
 20
-71.896243
 30
0.0
  0
SPLINE
  5
122
100
AcDbEntity
  8
0
 62
7
100
AcDbSpline
 70
8
 71
3
 72
8
 73
4
 74
0
 40
0
 40
0
 40
0
 40
0
 40
1
 40
1
 40
1
 40
1
 10
79.051680
 20
-71.896243
 30
0.0
 10
79.145472
 20
-71.802498
 30
0.0
 10
79.198182
 20
-71.675335
 30
0.0
 10
79.198216
 20
-71.542727
 30
0.0
  0
LWPOLYLINE
  5
123
100
AcDbEntity
  8
0
 62
7
100
AcDbPolyline
 90
2
 70
0
 10
167.446960
 20
-71.542473
 30
0.0
 10
167.446960
 20
-57.541993
 30
0.0
  0
SPLINE
  5
124
100
AcDbEntity
  8
0
 62
7
100
AcDbSpline
 70
8
 71
3
 72
8
 73
4
 74
0
 40
0
 40
0
 40
0
 40
0
 40
1
 40
1
 40
1
 40
1
 10
101.748082
 20
-59.542751
 30
0.0
 10
101.748116
 20
-59.410143
 30
0.0
 10
101.695470
 20
-59.282953
 30
0.0
 10
101.601725
 20
-59.189161
 30
0.0
  0
SPLINE
  5
125
100
AcDbEntity
  8
0
 62
7
100
AcDbSpline
 70
8
 71
3
 72
8
 73
4
 74
0
 40
0
 40
0
 40
0
 40
0
 40
1
 40
1
 40
1
 40
1
 10
101.601725
 20
-59.189161
 30
0.0
 10
101.507981
 20
-59.095369
 30
0.0
 10
101.380818
 20
-59.042659
 30
0.0
 10
101.248210
 20
-59.042625
 30
0.0
  0
LWPOLYLINE
  5
126
100
AcDbEntity
  8
0
 62
7
100
AcDbPolyline
 90
2
 70
0
 10
88.247220
 20
-73.041073
 30
0.0
 10
101.246940
 20
-73.041073
 30
0.0
  0
SPLINE
  5
127
100
AcDbEntity
  8
0
 62
7
100
AcDbSpline
 70
8
 71
3
 72
8
 73
4
 74
0
 40
0
 40
0
 40
0
 40
0
 40
1
 40
1
 40
1
 40
1
 10
101.248210
 20
-73.042597
 30
0.0
 10
101.524253
 20
-73.042527
 30
0.0
 10
101.748012
 20
-72.818768
 30
0.0
 10
101.748082
 20
-72.542725
 30
0.0
  0
LWPOLYLINE
  5
128
100
AcDbEntity
  8
0
 62
7
100
AcDbPolyline
 90
2
 70
0
 10
72.196960
 20
-71.542473
 30
0.0
 10
72.196960
 20
-57.541993
 30
0.0
  0
LWPOLYLINE
  5
129
100
AcDbEntity
  8
0
 62
7
100
AcDbPolyline
 90
2
 70
0
 10
174.447200
 20
-71.542473
 30
0.0
 10
174.447200
 20
-57.541993
 30
0.0
  0
LWPOLYLINE
  5
12a
100
AcDbEntity
  8
0
 62
7
100
AcDbPolyline
 90
2
 70
0
 10
199.377300
 20
-59.540973
 30
0.0
 10
199.377300
 20
-72.540693
 30
0.0
  0
SPLINE
  5
12b
100
AcDbEntity
  8
0
 62
7
100
AcDbSpline
 70
8
 71
3
 72
8
 73
4
 74
0
 40
0
 40
0
 40
0
 40
0
 40
1
 40
1
 40
1
 40
1
 10
174.448216
 20
-57.542755
 30
0.0
 10
174.448250
 20
-57.410103
 30
0.0
 10
174.395569
 20
-57.282875
 30
0.0
 10
174.301770
 20
-57.189075
 30
0.0
  0
SPLINE
  5
12c
100
AcDbEntity
  8
0
 62
7
100
AcDbSpline
 70
8
 71
3
 72
8
 73
4
 74
0
 40
0
 40
0
 40
0
 40
0
 40
1
 40
1
 40
1
 40
1
 10
174.301770
 20
-57.189075
 30
0.0
 10
174.207971
 20
-57.095276
 30
0.0
 10
174.080742
 20
-57.042595
 30
0.0
 10
173.948090
 20
-57.042629
 30
0.0
  0
SPLINE
  5
12d
100
AcDbEntity
  8
0
 62
7
100
AcDbSpline
 70
8
 71
3
 72
8
 73
4
 74
0
 40
0
 40
0
 40
0
 40
0
 40
1
 40
1
 40
1
 40
1
 10
72.698102
 20
-57.042629
 30
0.0
 10
72.565494
 20
-57.042663
 30
0.0
 10
72.438331
 20
-57.095373
 30
0.0
 10
72.344587
 20
-57.189165
 30
0.0
  0
SPLINE
  5
12e
100
AcDbEntity
  8
0
 62
7
100
AcDbSpline
 70
8
 71
3
 72
8
 73
4
 74
0
 40
0
 40
0
 40
0
 40
0
 40
1
 40
1
 40
1
 40
1
 10
72.344587
 20
-57.189165
 30
0.0
 10
72.250842
 20
-57.282957
 30
0.0
 10
72.198196
 20
-57.410147
 30
0.0
 10
72.198230
 20
-57.542755
 30
0.0
  0
SPLINE
  5
12f
100
AcDbEntity
  8
0
 62
7
100
AcDbSpline
 70
8
 71
3
 72
8
 73
4
 74
0
 40
0
 40
0
 40
0
 40
0
 40
1
 40
1
 40
1
 40
1
 10
167.448230
 20
-71.542727
 30
0.0
 10
167.448300
 20
-71.818770
 30
0.0
 10
167.672059
 20
-72.042529
 30
0.0
 10
167.948102
 20
-72.042599
 30
0.0
  0
SPLINE
  5
130
100
AcDbEntity
  8
0
 62
7
100
AcDbSpline
 70
8
 71
3
 72
8
 73
4
 74
0
 40
0
 40
0
 40
0
 40
0
 40
1
 40
1
 40
1
 40
1
 10
49.648110
 20
-72.542725
 30
0.0
 10
49.648144
 20
-72.675333
 30
0.0
 10
49.700854
 20
-72.802496
 30
0.0
 10
49.794646
 20
-72.896241
 30
0.0
  0
SPLINE
  5
131
100
AcDbEntity
  8
0
 62
7
100
AcDbSpline
 70
8
 71
3
 72
8
 73
4
 74
0
 40
0
 40
0
 40
0
 40
0
 40
1
 40
1
 40
1
 40
1
 10
49.794646
 20
-72.896241
 30
0.0
 10
49.888438
 20
-72.989985
 30
0.0
 10
50.015628
 20
-73.042631
 30
0.0
 10
50.148236
 20
-73.042597
 30
0.0
  0
LWPOLYLINE
  5
132
100
AcDbEntity
  8
0
 62
7
100
AcDbPolyline
 90
2
 70
0
 10
185.379360
 20
-59.540973
 30
0.0
 10
185.379360
 20
-72.540693
 30
0.0
  0
LWPOLYLINE
  5
133
100
AcDbEntity
  8
0
 62
7
100
AcDbPolyline
 90
2
 70
0
 10
144.896840
 20
-59.540973
 30
0.0
 10
144.896840
 20
-72.540693
 30
0.0
  0
LWPOLYLINE
  5
134
100
AcDbEntity
  8
0
 62
7
100
AcDbPolyline
 90
2
 70
0
 10
173.946820
 20
-57.041613
 30
0.0
 10
167.947340
 20
-57.041613
 30
0.0
  0
SPLINE
  5
135
100
AcDbEntity
  8
0
 62
7
100
AcDbSpline
 70
8
 71
3
 72
8
 73
4
 74
0
 40
0
 40
0
 40
0
 40
0
 40
1
 40
1
 40
1
 40
1
 10
129.848102
 20
-57.042629
 30
0.0
 10
129.715494
 20
-57.042663
 30
0.0
 10
129.588331
 20
-57.095373
 30
0.0
 10
129.494587
 20
-57.189165
 30
0.0
  0
SPLINE
  5
136
100
AcDbEntity
  8
0
 62
7
100
AcDbSpline
 70
8
 71
3
 72
8
 73
4
 74
0
 40
0
 40
0
 40
0
 40
0
 40
1
 40
1
 40
1
 40
1
 10
129.494587
 20
-57.189165
 30
0.0
 10
129.400842
 20
-57.282957
 30
0.0
 10
129.348196
 20
-57.410147
 30
0.0
 10
129.348230
 20
-57.542755
 30
0.0
  0
LWPOLYLINE
  5
137
100
AcDbEntity
  8
0
 62
7
100
AcDbPolyline
 90
2
 70
0
 10
173.946820
 20
-72.040313
 30
0.0
 10
167.947340
 20
-72.040313
 30
0.0
  0
SPLINE
  5
138
100
AcDbEntity
  8
0
 62
7
100
AcDbSpline
 70
8
 71
3
 72
8
 73
4
 74
0
 40
0
 40
0
 40
0
 40
0
 40
1
 40
1
 40
1
 40
1
 10
136.348216
 20
-57.542755
 30
0.0
 10
136.348250
 20
-57.410103
 30
0.0
 10
136.295569
 20
-57.282875
 30
0.0
 10
136.201770
 20
-57.189075
 30
0.0
  0
SPLINE
  5
139
100
AcDbEntity
  8
0
 62
7
100
AcDbSpline
 70
8
 71
3
 72
8
 73
4
 74
0
 40
0
 40
0
 40
0
 40
0
 40
1
 40
1
 40
1
 40
1
 10
136.201770
 20
-57.189075
 30
0.0
 10
136.107971
 20
-57.095276
 30
0.0
 10
135.980742
 20
-57.042595
 30
0.0
 10
135.848090
 20
-57.042629
 30
0.0
  0
LWPOLYLINE
  5
13a
100
AcDbEntity
  8
0
 62
7
100
AcDbPolyline
 90
2
 70
0
 10
79.197200
 20
-71.542473
 30
0.0
 10
79.197200
 20
-57.541993
 30
0.0
  0
LWPOLYLINE
  5
13b
100
AcDbEntity
  8
0
 62
7
100
AcDbPolyline
 90
2
 70
0
 10
136.347200
 20
-71.542473
 30
0.0
 10
136.347200
 20
-57.541993
 30
0.0
  0
LWPOLYLINE
  5
13c
100
AcDbEntity
  8
0
 62
7
100
AcDbPolyline
 90
2
 70
0
 10
135.846820
 20
-57.041613
 30
0.0
 10
129.847340
 20
-57.041613
 30
0.0
  0
SPLINE
  5
13d
100
AcDbEntity
  8
0
 62
7
100
AcDbSpline
 70
8
 71
3
 72
8
 73
4
 74
0
 40
0
 40
0
 40
0
 40
0
 40
1
 40
1
 40
1
 40
1
 10
158.398210
 20
-73.042597
 30
0.0
 10
158.674253
 20
-73.042527
 30
0.0
 10
158.898012
 20
-72.818768
 30
0.0
 10
158.898082
 20
-72.542725
 30
0.0
  0
SPLINE
  5
13e
100
AcDbEntity
  8
0
 62
7
100
AcDbSpline
 70
8
 71
3
 72
8
 73
4
 74
0
 40
0
 40
0
 40
0
 40
0
 40
1
 40
1
 40
1
 40
1
 10
144.898110
 20
-72.542725
 30
0.0
 10
144.898144
 20
-72.675333
 30
0.0
 10
144.950854
 20
-72.802496
 30
0.0
 10
145.044646
 20
-72.896241
 30
0.0
  0
SPLINE
  5
13f
100
AcDbEntity
  8
0
 62
7
100
AcDbSpline
 70
8
 71
3
 72
8
 73
4
 74
0
 40
0
 40
0
 40
0
 40
0
 40
1
 40
1
 40
1
 40
1
 10
145.044646
 20
-72.896241
 30
0.0
 10
145.138438
 20
-72.989985
 30
0.0
 10
145.265628
 20
-73.042631
 30
0.0
 10
145.398236
 20
-73.042597
 30
0.0
  0
LWPOLYLINE
  5
140
100
AcDbEntity
  8
0
 62
7
100
AcDbPolyline
 90
2
 70
0
 10
135.846820
 20
-72.040313
 30
0.0
 10
129.847340
 20
-72.040313
 30
0.0
  0
LWPOLYLINE
  5
141
100
AcDbEntity
  8
0
 62
7
100
AcDbPolyline
 90
2
 70
0
 10
158.897320
 20
-59.540973
 30
0.0
 10
158.897320
 20
-72.540693
 30
0.0
  0
LWPOLYLINE
  5
142
100
AcDbEntity
  8
0
 62
7
100
AcDbPolyline
 90
2
 70
0
 10
145.397220
 20
-59.040593
 30
0.0
 10
158.396940
 20
-59.040593
 30
0.0
  0
LWPOLYLINE
  5
143
100
AcDbEntity
  8
0
 62
7
100
AcDbPolyline
 90
2
 70
0
 10
145.397220
 20
-73.041073
 30
0.0
 10
158.396940
 20
-73.041073
 30
0.0
  0
SPLINE
  5
144
100
AcDbEntity
  8
0
 62
7
100
AcDbSpline
 70
8
 71
3
 72
8
 73
4
 74
0
 40
0
 40
0
 40
0
 40
0
 40
1
 40
1
 40
1
 40
1
 10
63.148210
 20
-73.042597
 30
0.0
 10
63.424253
 20
-73.042527
 30
0.0
 10
63.648012
 20
-72.818768
 30
0.0
 10
63.648082
 20
-72.542725
 30
0.0
  0
LWPOLYLINE
  5
145
100
AcDbEntity
  8
0
 62
7
100
AcDbPolyline
 90
2
 70
0
 10
88.247220
 20
-59.040593
 30
0.0
 10
101.246940
 20
-59.040593
 30
0.0
  0
SPLINE
  5
146
100
AcDbEntity
  8
0
 62
7
100
AcDbSpline
 70
8
 71
3
 72
8
 73
4
 74
0
 40
0
 40
0
 40
0
 40
0
 40
1
 40
1
 40
1
 40
1
 10
87.748110
 20
-72.542725
 30
0.0
 10
87.748144
 20
-72.675333
 30
0.0
 10
87.800854
 20
-72.802496
 30
0.0
 10
87.894646
 20
-72.896241
 30
0.0
  0
SPLINE
  5
147
100
AcDbEntity
  8
0
 62
7
100
AcDbSpline
 70
8
 71
3
 72
8
 73
4
 74
0
 40
0
 40
0
 40
0
 40
0
 40
1
 40
1
 40
1
 40
1
 10
87.894646
 20
-72.896241
 30
0.0
 10
87.988438
 20
-72.989985
 30
0.0
 10
88.115628
 20
-73.042631
 30
0.0
 10
88.248236
 20
-73.042597
 30
0.0
  0
LWPOLYLINE
  5
148
100
AcDbEntity
  8
0
 62
7
100
AcDbPolyline
 90
2
 70
0
 10
78.696820
 20
-72.040313
 30
0.0
 10
72.697340
 20
-72.040313
 30
0.0
  0
LWPOLYLINE
  5
149
100
AcDbEntity
  8
0
 62
7
100
AcDbPolyline
 90
2
 70
0
 10
49.646840
 20
-59.540973
 30
0.0
 10
49.646840
 20
-72.540693
 30
0.0
  0
LWPOLYLINE
  5
14a
100
AcDbEntity
  8
0
 62
7
100
AcDbPolyline
 90
2
 70
0
 10
101.747320
 20
-59.540973
 30
0.0
 10
101.747320
 20
-72.540693
 30
0.0
  0
SPLINE
  5
14b
100
AcDbEntity
  8
0
 62
7
100
AcDbSpline
 70
8
 71
3
 72
8
 73
4
 74
0
 40
0
 40
0
 40
0
 40
0
 40
1
 40
1
 40
1
 40
1
 10
158.898082
 20
-59.542751
 30
0.0
 10
158.898116
 20
-59.410143
 30
0.0
 10
158.845470
 20
-59.282953
 30
0.0
 10
158.751725
 20
-59.189161
 30
0.0
  0
SPLINE
  5
14c
100
AcDbEntity
  8
0
 62
7
100
AcDbSpline
 70
8
 71
3
 72
8
 73
4
 74
0
 40
0
 40
0
 40
0
 40
0
 40
1
 40
1
 40
1
 40
1
 10
158.751725
 20
-59.189161
 30
0.0
 10
158.657981
 20
-59.095369
 30
0.0
 10
158.530818
 20
-59.042659
 30
0.0
 10
158.398210
 20
-59.042625
 30
0.0
  0
SPLINE
  5
14d
100
AcDbEntity
  8
0
 62
7
100
AcDbSpline
 70
8
 71
3
 72
8
 73
4
 74
0
 40
0
 40
0
 40
0
 40
0
 40
1
 40
1
 40
1
 40
1
 10
110.798102
 20
-57.042629
 30
0.0
 10
110.665494
 20
-57.042663
 30
0.0
 10
110.538331
 20
-57.095373
 30
0.0
 10
110.444587
 20
-57.189165
 30
0.0
  0
SPLINE
  5
14e
100
AcDbEntity
  8
0
 62
7
100
AcDbSpline
 70
8
 71
3
 72
8
 73
4
 74
0
 40
0
 40
0
 40
0
 40
0
 40
1
 40
1
 40
1
 40
1
 10
110.444587
 20
-57.189165
 30
0.0
 10
110.350842
 20
-57.282957
 30
0.0
 10
110.298196
 20
-57.410147
 30
0.0
 10
110.298230
 20
-57.542755
 30
0.0
  0
LWPOLYLINE
  5
14f
100
AcDbEntity
  8
0
 62
7
100
AcDbPolyline
 90
2
 70
0
 10
116.796820
 20
-57.041613
 30
0.0
 10
110.797340
 20
-57.041613
 30
0.0
  0
SPLINE
  5
150
100
AcDbEntity
  8
0
 62
7
100
AcDbSpline
 70
8
 71
3
 72
8
 73
4
 74
0
 40
0
 40
0
 40
0
 40
0
 40
1
 40
1
 40
1
 40
1
 10
116.798090
 20
-72.042599
 30
0.0
 10
116.930698
 20
-72.042633
 30
0.0
 10
117.057888
 20
-71.989987
 30
0.0
 10
117.151680
 20
-71.896243
 30
0.0
  0
SPLINE
  5
151
100
AcDbEntity
  8
0
 62
7
100
AcDbSpline
 70
8
 71
3
 72
8
 73
4
 74
0
 40
0
 40
0
 40
0
 40
0
 40
1
 40
1
 40
1
 40
1
 10
117.151680
 20
-71.896243
 30
0.0
 10
117.245472
 20
-71.802498
 30
0.0
 10
117.298182
 20
-71.675335
 30
0.0
 10
117.298216
 20
-71.542727
 30
0.0
  0
SPLINE
  5
152
100
AcDbEntity
  8
0
 62
7
100
AcDbSpline
 70
8
 71
3
 72
8
 73
4
 74
0
 40
0
 40
0
 40
0
 40
0
 40
1
 40
1
 40
1
 40
1
 10
129.348230
 20
-71.542727
 30
0.0
 10
129.348300
 20
-71.818770
 30
0.0
 10
129.572059
 20
-72.042529
 30
0.0
 10
129.848102
 20
-72.042599
 30
0.0
  0
SPLINE
  5
153
100
AcDbEntity
  8
0
 62
7
100
AcDbSpline
 70
8
 71
3
 72
8
 73
4
 74
0
 40
0
 40
0
 40
0
 40
0
 40
1
 40
1
 40
1
 40
1
 10
50.148236
 20
-59.042625
 30
0.0
 10
50.015584
 20
-59.042591
 30
0.0
 10
49.888355
 20
-59.095272
 30
0.0
 10
49.794556
 20
-59.189071
 30
0.0
  0
SPLINE
  5
154
100
AcDbEntity
  8
0
 62
7
100
AcDbSpline
 70
8
 71
3
 72
8
 73
4
 74
0
 40
0
 40
0
 40
0
 40
0
 40
1
 40
1
 40
1
 40
1
 10
49.794556
 20
-59.189071
 30
0.0
 10
49.700757
 20
-59.282871
 30
0.0
 10
49.648076
 20
-59.410099
 30
0.0
 10
49.648110
 20
-59.542751
 30
0.0
  0
LWPOLYLINE
  5
155
100
AcDbEntity
  8
0
 62
7
100
AcDbPolyline
 90
2
 70
0
 10
116.796820
 20
-72.040313
 30
0.0
 10
110.797340
 20
-72.040313
 30
0.0
  0
SPLINE
  5
156
100
AcDbEntity
  8
0
 62
7
100
AcDbSpline
 70
8
 71
3
 72
8
 73
4
 74
0
 40
0
 40
0
 40
0
 40
0
 40
1
 40
1
 40
1
 40
1
 10
167.948102
 20
-57.042629
 30
0.0
 10
167.815494
 20
-57.042663
 30
0.0
 10
167.688331
 20
-57.095373
 30
0.0
 10
167.594587
 20
-57.189165
 30
0.0
  0
SPLINE
  5
157
100
AcDbEntity
  8
0
 62
7
100
AcDbSpline
 70
8
 71
3
 72
8
 73
4
 74
0
 40
0
 40
0
 40
0
 40
0
 40
1
 40
1
 40
1
 40
1
 10
167.594587
 20
-57.189165
 30
0.0
 10
167.500842
 20
-57.282957
 30
0.0
 10
167.448196
 20
-57.410147
 30
0.0
 10
167.448230
 20
-57.542755
 30
0.0
  0
SPLINE
  5
158
100
AcDbEntity
  8
0
 62
7
100
AcDbSpline
 70
8
 71
3
 72
8
 73
4
 74
0
 40
0
 40
0
 40
0
 40
0
 40
1
 40
1
 40
1
 40
1
 10
79.198216
 20
-57.542755
 30
0.0
 10
79.198250
 20
-57.410103
 30
0.0
 10
79.145569
 20
-57.282875
 30
0.0
 10
79.051770
 20
-57.189075
 30
0.0
  0
SPLINE
  5
159
100
AcDbEntity
  8
0
 62
7
100
AcDbSpline
 70
8
 71
3
 72
8
 73
4
 74
0
 40
0
 40
0
 40
0
 40
0
 40
1
 40
1
 40
1
 40
1
 10
79.051770
 20
-57.189075
 30
0.0
 10
78.957971
 20
-57.095276
 30
0.0
 10
78.830742
 20
-57.042595
 30
0.0
 10
78.698090
 20
-57.042629
 30
0.0
  0
LWPOLYLINE
  5
15a
100
AcDbEntity
  8
0
 62
7
100
AcDbPolyline
 90
2
 70
0
 10
63.647320
 20
-59.540973
 30
0.0
 10
63.647320
 20
-72.540693
 30
0.0
  0
LWPOLYLINE
  5
15b
100
AcDbEntity
  8
0
 62
7
100
AcDbPolyline
 90
2
 70
0
 10
110.296960
 20
-71.542473
 30
0.0
 10
110.296960
 20
-57.541993
 30
0.0
  0
LWPOLYLINE
  5
15c
100
AcDbEntity
  8
0
 62
7
100
AcDbPolyline
 90
2
 70
0
 10
117.297200
 20
-71.542473
 30
0.0
 10
117.297200
 20
-57.541993
 30
0.0
  0
SPLINE
  5
15d
100
AcDbEntity
  8
0
 62
7
100
AcDbSpline
 70
8
 71
3
 72
8
 73
4
 74
0
 40
0
 40
0
 40
0
 40
0
 40
1
 40
1
 40
1
 40
1
 10
88.248236
 20
-59.042625
 30
0.0
 10
88.115584
 20
-59.042591
 30
0.0
 10
87.988355
 20
-59.095272
 30
0.0
 10
87.894556
 20
-59.189071
 30
0.0
  0
SPLINE
  5
15e
100
AcDbEntity
  8
0
 62
7
100
AcDbSpline
 70
8
 71
3
 72
8
 73
4
 74
0
 40
0
 40
0
 40
0
 40
0
 40
1
 40
1
 40
1
 40
1
 10
87.894556
 20
-59.189071
 30
0.0
 10
87.800757
 20
-59.282871
 30
0.0
 10
87.748076
 20
-59.410099
 30
0.0
 10
87.748110
 20
-59.542751
 30
0.0
  0
SPLINE
  5
15f
100
AcDbEntity
  8
0
 62
7
100
AcDbSpline
 70
8
 71
3
 72
8
 73
4
 74
0
 40
0
 40
0
 40
0
 40
0
 40
1
 40
1
 40
1
 40
1
 10
173.948090
 20
-72.042599
 30
0.0
 10
174.080698
 20
-72.042633
 30
0.0
 10
174.207888
 20
-71.989987
 30
0.0
 10
174.301680
 20
-71.896243
 30
0.0
  0
SPLINE
  5
160
100
AcDbEntity
  8
0
 62
7
100
AcDbSpline
 70
8
 71
3
 72
8
 73
4
 74
0
 40
0
 40
0
 40
0
 40
0
 40
1
 40
1
 40
1
 40
1
 10
174.301680
 20
-71.896243
 30
0.0
 10
174.395472
 20
-71.802498
 30
0.0
 10
174.448182
 20
-71.675335
 30
0.0
 10
174.448216
 20
-71.542727
 30
0.0
  0
SPLINE
  5
161
100
AcDbEntity
  8
0
 62
7
100
AcDbSpline
 70
8
 71
3
 72
8
 73
4
 74
0
 40
0
 40
0
 40
0
 40
0
 40
1
 40
1
 40
1
 40
1
 10
117.298216
 20
-57.542755
 30
0.0
 10
117.298250
 20
-57.410103
 30
0.0
 10
117.245569
 20
-57.282875
 30
0.0
 10
117.151770
 20
-57.189075
 30
0.0
  0
SPLINE
  5
162
100
AcDbEntity
  8
0
 62
7
100
AcDbSpline
 70
8
 71
3
 72
8
 73
4
 74
0
 40
0
 40
0
 40
0
 40
0
 40
1
 40
1
 40
1
 40
1
 10
117.151770
 20
-57.189075
 30
0.0
 10
117.057971
 20
-57.095276
 30
0.0
 10
116.930742
 20
-57.042595
 30
0.0
 10
116.798090
 20
-57.042629
 30
0.0
  0
LWPOLYLINE
  5
163
100
AcDbEntity
  8
0
 62
7
100
AcDbPolyline
 90
2
 70
0
 10
129.346960
 20
-71.542473
 30
0.0
 10
129.346960
 20
-57.541993
 30
0.0
  0
SPLINE
  5
164
100
AcDbEntity
  8
0
 62
7
100
AcDbSpline
 70
8
 71
3
 72
8
 73
4
 74
0
 40
0
 40
0
 40
0
 40
0
 40
1
 40
1
 40
1
 40
1
 10
135.848090
 20
-72.042599
 30
0.0
 10
135.980698
 20
-72.042633
 30
0.0
 10
136.107888
 20
-71.989987
 30
0.0
 10
136.201680
 20
-71.896243
 30
0.0
  0
SPLINE
  5
165
100
AcDbEntity
  8
0
 62
7
100
AcDbSpline
 70
8
 71
3
 72
8
 73
4
 74
0
 40
0
 40
0
 40
0
 40
0
 40
1
 40
1
 40
1
 40
1
 10
136.201680
 20
-71.896243
 30
0.0
 10
136.295472
 20
-71.802498
 30
0.0
 10
136.348182
 20
-71.675335
 30
0.0
 10
136.348216
 20
-71.542727
 30
0.0
  0
LWPOLYLINE
  5
166
100
AcDbEntity
  8
0
 62
7
100
AcDbPolyline
 90
2
 70
0
 10
207.309720
 20
-73.041073
 30
0.0
 10
220.309440
 20
-73.041073
 30
0.0
  0
LWPOLYLINE
  5
167
100
AcDbEntity
  8
0
 62
7
100
AcDbPolyline
 90
2
 70
0
 10
78.696820
 20
-57.041613
 30
0.0
 10
72.697340
 20
-57.041613
 30
0.0
  0
SPLINE
  5
168
100
AcDbEntity
  8
0
 62
7
100
AcDbSpline
 70
8
 71
3
 72
8
 73
4
 74
0
 40
0
 40
0
 40
0
 40
0
 40
1
 40
1
 40
1
 40
1
 10
198.879460
 20
-73.042597
 30
0.0
 10
199.155503
 20
-73.042527
 30
0.0
 10
199.379262
 20
-72.818768
 30
0.0
 10
199.379332
 20
-72.542725
 30
0.0
  0
SPLINE
  5
169
100
AcDbEntity
  8
0
 62
7
100
AcDbSpline
 70
8
 71
3
 72
8
 73
4
 74
0
 40
0
 40
0
 40
0
 40
0
 40
1
 40
1
 40
1
 40
1
 10
185.379360
 20
-72.542725
 30
0.0
 10
185.379394
 20
-72.675333
 30
0.0
 10
185.432104
 20
-72.802496
 30
0.0
 10
185.525896
 20
-72.896241
 30
0.0
  0
SPLINE
  5
16a
100
AcDbEntity
  8
0
 62
7
100
AcDbSpline
 70
8
 71
3
 72
8
 73
4
 74
0
 40
0
 40
0
 40
0
 40
0
 40
1
 40
1
 40
1
 40
1
 10
185.525896
 20
-72.896241
 30
0.0
 10
185.619688
 20
-72.989985
 30
0.0
 10
185.746878
 20
-73.042631
 30
0.0
 10
185.879486
 20
-73.042597
 30
0.0
  0
LWPOLYLINE
  5
16b
100
AcDbEntity
  8
0
 62
7
100
AcDbPolyline
 90
2
 70
0
 10
207.309720
 20
-59.040593
 30
0.0
 10
220.309440
 20
-59.040593
 30
0.0
  0
SPLINE
  5
16c
100
AcDbEntity
  8
0
 62
7
100
AcDbSpline
 70
8
 71
3
 72
8
 73
4
 74
0
 40
0
 40
0
 40
0
 40
0
 40
1
 40
1
 40
1
 40
1
 10
20.285659
 20
-73.042597
 30
0.0
 10
20.561751
 20
-73.042597
 30
0.0
 10
20.785588
 20
-72.818817
 30
0.0
 10
20.785658
 20
-72.542725
 30
0.0
  0
LWPOLYLINE
  5
16d
100
AcDbEntity
  8
0
 62
7
100
AcDbPolyline
 90
2
 70
0
 10
28.714700
 20
-73.041073
 30
0.0
 10
41.714420
 20
-73.041073
 30
0.0
  0
SPLINE
  5
16e
100
AcDbEntity
  8
0
 62
7
100
AcDbSpline
 70
8
 71
3
 72
8
 73
4
 74
0
 40
0
 40
0
 40
0
 40
0
 40
1
 40
1
 40
1
 40
1
 10
225.573082
 20
-40.492751
 30
0.0
 10
225.573116
 20
-40.360143
 30
0.0
 10
225.520470
 20
-40.232953
 30
0.0
 10
225.426725
 20
-40.139161
 30
0.0
  0
SPLINE
  5
16f
100
AcDbEntity
  8
0
 62
7
100
AcDbSpline
 70
8
 71
3
 72
8
 73
4
 74
0
 40
0
 40
0
 40
0
 40
0
 40
1
 40
1
 40
1
 40
1
 10
225.426725
 20
-40.139161
 30
0.0
 10
225.332981
 20
-40.045369
 30
0.0
 10
225.205818
 20
-39.992659
 30
0.0
 10
225.073210
 20
-39.992625
 30
0.0
  0
SPLINE
  5
170
100
AcDbEntity
  8
0
 62
7
100
AcDbSpline
 70
8
 71
3
 72
8
 73
4
 74
0
 40
0
 40
0
 40
0
 40
0
 40
1
 40
1
 40
1
 40
1
 10
6.785661
 20
-72.542725
 30
0.0
 10
6.785731
 20
-72.818817
 30
0.0
 10
7.009568
 20
-73.042597
 30
0.0
 10
7.285660
 20
-73.042597
 30
0.0
  0
SPLINE
  5
171
100
AcDbEntity
  8
0
 62
7
100
AcDbSpline
 70
8
 71
3
 72
8
 73
4
 74
0
 40
0
 40
0
 40
0
 40
0
 40
1
 40
1
 40
1
 40
1
 10
20.785658
 20
-59.542751
 30
0.0
 10
20.785692
 20
-59.410121
 30
0.0
 10
20.733028
 20
-59.282912
 30
0.0
 10
20.639257
 20
-59.189116
 30
0.0
  0
SPLINE
  5
172
100
AcDbEntity
  8
0
 62
7
100
AcDbSpline
 70
8
 71
3
 72
8
 73
4
 74
0
 40
0
 40
0
 40
0
 40
0
 40
1
 40
1
 40
1
 40
1
 10
20.639257
 20
-59.189116
 30
0.0
 10
20.545485
 20
-59.095321
 30
0.0
 10
20.418289
 20
-59.042625
 30
0.0
 10
20.285659
 20
-59.042625
 30
0.0
  0
SPLINE
  5
173
100
AcDbEntity
  8
0
 62
7
100
AcDbSpline
 70
8
 71
3
 72
8
 73
4
 74
0
 40
0
 40
0
 40
0
 40
0
 40
1
 40
1
 40
1
 40
1
 10
244.623082
 20
-40.492751
 30
0.0
 10
244.623116
 20
-40.360143
 30
0.0
 10
244.570470
 20
-40.232953
 30
0.0
 10
244.476725
 20
-40.139161
 30
0.0
  0
SPLINE
  5
174
100
AcDbEntity
  8
0
 62
7
100
AcDbSpline
 70
8
 71
3
 72
8
 73
4
 74
0
 40
0
 40
0
 40
0
 40
0
 40
1
 40
1
 40
1
 40
1
 10
244.476725
 20
-40.139161
 30
0.0
 10
244.382981
 20
-40.045369
 30
0.0
 10
244.255818
 20
-39.992659
 30
0.0
 10
244.123210
 20
-39.992625
 30
0.0
  0
SPLINE
  5
175
100
AcDbEntity
  8
0
 62
7
100
AcDbSpline
 70
8
 71
3
 72
8
 73
4
 74
0
 40
0
 40
0
 40
0
 40
0
 40
1
 40
1
 40
1
 40
1
 10
192.523110
 20
-53.492725
 30
0.0
 10
192.523144
 20
-53.625333
 30
0.0
 10
192.575854
 20
-53.752496
 30
0.0
 10
192.669646
 20
-53.846241
 30
0.0
  0
SPLINE
  5
176
100
AcDbEntity
  8
0
 62
7
100
AcDbSpline
 70
8
 71
3
 72
8
 73
4
 74
0
 40
0
 40
0
 40
0
 40
0
 40
1
 40
1
 40
1
 40
1
 10
192.669646
 20
-53.846241
 30
0.0
 10
192.763438
 20
-53.939985
 30
0.0
 10
192.890628
 20
-53.992631
 30
0.0
 10
193.023236
 20
-53.992597
 30
0.0
  0
LWPOLYLINE
  5
177
100
AcDbEntity
  8
0
 62
7
100
AcDbPolyline
 90
2
 70
0
 10
206.522320
 20
-40.490973
 30
0.0
 10
206.522320
 20
-53.490693
 30
0.0
  0
LWPOLYLINE
  5
178
100
AcDbEntity
  8
0
 62
7
100
AcDbPolyline
 90
2
 70
0
 10
193.022220
 20
-53.991073
 30
0.0
 10
206.021940
 20
-53.991073
 30
0.0
  0
SPLINE
  5
179
100
AcDbEntity
  8
0
 62
7
100
AcDbSpline
 70
8
 71
3
 72
8
 73
4
 74
0
 40
0
 40
0
 40
0
 40
0
 40
1
 40
1
 40
1
 40
1
 10
187.473082
 20
-40.492751
 30
0.0
 10
187.473116
 20
-40.360143
 30
0.0
 10
187.420470
 20
-40.232953
 30
0.0
 10
187.326725
 20
-40.139161
 30
0.0
  0
SPLINE
  5
17a
100
AcDbEntity
  8
0
 62
7
100
AcDbSpline
 70
8
 71
3
 72
8
 73
4
 74
0
 40
0
 40
0
 40
0
 40
0
 40
1
 40
1
 40
1
 40
1
 10
187.326725
 20
-40.139161
 30
0.0
 10
187.232981
 20
-40.045369
 30
0.0
 10
187.105818
 20
-39.992659
 30
0.0
 10
186.973210
 20
-39.992625
 30
0.0
  0
SPLINE
  5
17b
100
AcDbEntity
  8
0
 62
7
100
AcDbSpline
 70
8
 71
3
 72
8
 73
4
 74
0
 40
0
 40
0
 40
0
 40
0
 40
1
 40
1
 40
1
 40
1
 10
173.973236
 20
-39.992625
 30
0.0
 10
173.840584
 20
-39.992591
 30
0.0
 10
173.713355
 20
-40.045272
 30
0.0
 10
173.619556
 20
-40.139071
 30
0.0
  0
SPLINE
  5
17c
100
AcDbEntity
  8
0
 62
7
100
AcDbSpline
 70
8
 71
3
 72
8
 73
4
 74
0
 40
0
 40
0
 40
0
 40
0
 40
1
 40
1
 40
1
 40
1
 10
173.619556
 20
-40.139071
 30
0.0
 10
173.525757
 20
-40.232871
 30
0.0
 10
173.473076
 20
-40.360099
 30
0.0
 10
173.473110
 20
-40.492751
 30
0.0
  0
LWPOLYLINE
  5
17d
100
AcDbEntity
  8
0
 62
7
100
AcDbPolyline
 90
2
 70
0
 10
173.471840
 20
-40.490973
 30
0.0
 10
173.471840
 20
-53.490693
 30
0.0
  0
LWPOLYLINE
  5
17e
100
AcDbEntity
  8
0
 62
7
100
AcDbPolyline
 90
2
 70
0
 10
20.784820
 20
-59.540973
 30
0.0
 10
20.784820
 20
-72.540693
 30
0.0
  0
SPLINE
  5
17f
100
AcDbEntity
  8
0
 62
7
100
AcDbSpline
 70
8
 71
3
 72
8
 73
4
 74
0
 40
0
 40
0
 40
0
 40
0
 40
1
 40
1
 40
1
 40
1
 10
211.573110
 20
-53.492725
 30
0.0
 10
211.573144
 20
-53.625333
 30
0.0
 10
211.625854
 20
-53.752496
 30
0.0
 10
211.719646
 20
-53.846241
 30
0.0
  0
SPLINE
  5
180
100
AcDbEntity
  8
0
 62
7
100
AcDbSpline
 70
8
 71
3
 72
8
 73
4
 74
0
 40
0
 40
0
 40
0
 40
0
 40
1
 40
1
 40
1
 40
1
 10
211.719646
 20
-53.846241
 30
0.0
 10
211.813438
 20
-53.939985
 30
0.0
 10
211.940628
 20
-53.992631
 30
0.0
 10
212.073236
 20
-53.992597
 30
0.0
  0
LWPOLYLINE
  5
181
100
AcDbEntity
  8
0
 62
7
100
AcDbPolyline
 90
2
 70
0
 10
231.122220
 20
-53.991073
 30
0.0
 10
244.121940
 20
-53.991073
 30
0.0
  0
LWPOLYLINE
  5
182
100
AcDbEntity
  8
0
 62
7
100
AcDbPolyline
 90
2
 70
0
 10
7.284720
 20
-59.040593
 30
0.0
 10
20.284440
 20
-59.040593
 30
0.0
  0
LWPOLYLINE
  5
183
100
AcDbEntity
  8
0
 62
7
100
AcDbPolyline
 90
2
 70
0
 10
6.784340
 20
-59.540973
 30
0.0
 10
6.784340
 20
-72.540693
 30
0.0
  0
SPLINE
  5
184
100
AcDbEntity
  8
0
 62
7
100
AcDbSpline
 70
8
 71
3
 72
8
 73
4
 74
0
 40
0
 40
0
 40
0
 40
0
 40
1
 40
1
 40
1
 40
1
 10
173.473110
 20
-53.492725
 30
0.0
 10
173.473144
 20
-53.625333
 30
0.0
 10
173.525854
 20
-53.752496
 30
0.0
 10
173.619646
 20
-53.846241
 30
0.0
  0
SPLINE
  5
185
100
AcDbEntity
  8
0
 62
7
100
AcDbSpline
 70
8
 71
3
 72
8
 73
4
 74
0
 40
0
 40
0
 40
0
 40
0
 40
1
 40
1
 40
1
 40
1
 10
173.619646
 20
-53.846241
 30
0.0
 10
173.713438
 20
-53.939985
 30
0.0
 10
173.840628
 20
-53.992631
 30
0.0
 10
173.973236
 20
-53.992597
 30
0.0
  0
SPLINE
  5
186
100
AcDbEntity
  8
0
 62
7
100
AcDbSpline
 70
8
 71
3
 72
8
 73
4
 74
0
 40
0
 40
0
 40
0
 40
0
 40
1
 40
1
 40
1
 40
1
 10
244.123210
 20
-53.992597
 30
0.0
 10
244.399253
 20
-53.992527
 30
0.0
 10
244.623012
 20
-53.768768
 30
0.0
 10
244.623082
 20
-53.492725
 30
0.0
  0
LWPOLYLINE
  5
187
100
AcDbEntity
  8
0
 62
7
100
AcDbPolyline
 90
2
 70
0
 10
192.521840
 20
-40.490973
 30
0.0
 10
192.521840
 20
-53.490693
 30
0.0
  0
SPLINE
  5
188
100
AcDbEntity
  8
0
 62
7
100
AcDbSpline
 70
8
 71
3
 72
8
 73
4
 74
0
 40
0
 40
0
 40
0
 40
0
 40
1
 40
1
 40
1
 40
1
 10
206.523082
 20
-40.492751
 30
0.0
 10
206.523116
 20
-40.360143
 30
0.0
 10
206.470470
 20
-40.232953
 30
0.0
 10
206.376725
 20
-40.139161
 30
0.0
  0
SPLINE
  5
189
100
AcDbEntity
  8
0
 62
7
100
AcDbSpline
 70
8
 71
3
 72
8
 73
4
 74
0
 40
0
 40
0
 40
0
 40
0
 40
1
 40
1
 40
1
 40
1
 10
206.376725
 20
-40.139161
 30
0.0
 10
206.282981
 20
-40.045369
 30
0.0
 10
206.155818
 20
-39.992659
 30
0.0
 10
206.023210
 20
-39.992625
 30
0.0
  0
SPLINE
  5
18a
100
AcDbEntity
  8
0
 62
7
100
AcDbSpline
 70
8
 71
3
 72
8
 73
4
 74
0
 40
0
 40
0
 40
0
 40
0
 40
1
 40
1
 40
1
 40
1
 10
206.023210
 20
-53.992597
 30
0.0
 10
206.299253
 20
-53.992527
 30
0.0
 10
206.523012
 20
-53.768768
 30
0.0
 10
206.523082
 20
-53.492725
 30
0.0
  0
LWPOLYLINE
  5
18b
100
AcDbEntity
  8
0
 62
7
100
AcDbPolyline
 90
2
 70
0
 10
50.147220
 20
-73.041073
 30
0.0
 10
63.146940
 20
-73.041073
 30
0.0
  0
LWPOLYLINE
  5
18c
100
AcDbEntity
  8
0
 62
7
100
AcDbPolyline
 90
2
 70
0
 10
50.147220
 20
-59.040593
 30
0.0
 10
63.146940
 20
-59.040593
 30
0.0
  0
LWPOLYLINE
  5
18d
100
AcDbEntity
  8
0
 62
7
100
AcDbPolyline
 90
2
 70
0
 10
230.621840
 20
-40.490973
 30
0.0
 10
230.621840
 20
-53.490693
 30
0.0
  0
LWPOLYLINE
  5
18e
100
AcDbEntity
  8
0
 62
7
100
AcDbPolyline
 90
2
 70
0
 10
187.472320
 20
-40.490973
 30
0.0
 10
187.472320
 20
-53.490693
 30
0.0
  0
SPLINE
  5
18f
100
AcDbEntity
  8
0
 62
7
100
AcDbSpline
 70
8
 71
3
 72
8
 73
4
 74
0
 40
0
 40
0
 40
0
 40
0
 40
1
 40
1
 40
1
 40
1
 10
28.216860
 20
-72.542725
 30
0.0
 10
28.216894
 20
-72.675333
 30
0.0
 10
28.269604
 20
-72.802496
 30
0.0
 10
28.363396
 20
-72.896241
 30
0.0
  0
SPLINE
  5
190
100
AcDbEntity
  8
0
 62
7
100
AcDbSpline
 70
8
 71
3
 72
8
 73
4
 74
0
 40
0
 40
0
 40
0
 40
0
 40
1
 40
1
 40
1
 40
1
 10
28.363396
 20
-72.896241
 30
0.0
 10
28.457188
 20
-72.989985
 30
0.0
 10
28.584378
 20
-73.042631
 30
0.0
 10
28.716986
 20
-73.042597
 30
0.0
  0
LWPOLYLINE
  5
191
100
AcDbEntity
  8
0
 62
7
100
AcDbPolyline
 90
2
 70
0
 10
28.216860
 20
-59.540973
 30
0.0
 10
28.216860
 20
-72.540693
 30
0.0
  0
LWPOLYLINE
  5
192
100
AcDbEntity
  8
0
 62
7
100
AcDbPolyline
 90
2
 70
0
 10
28.714700
 20
-59.040593
 30
0.0
 10
41.714420
 20
-59.040593
 30
0.0
  0
LWPOLYLINE
  5
193
100
AcDbEntity
  8
0
 62
7
100
AcDbPolyline
 90
2
 70
0
 10
211.571840
 20
-40.490973
 30
0.0
 10
211.571840
 20
-53.490693
 30
0.0
  0
LWPOLYLINE
  5
194
100
AcDbEntity
  8
0
 62
7
100
AcDbPolyline
 90
2
 70
0
 10
42.214800
 20
-59.540973
 30
0.0
 10
42.214800
 20
-72.540693
 30
0.0
  0
SPLINE
  5
195
100
AcDbEntity
  8
0
 62
7
100
AcDbSpline
 70
8
 71
3
 72
8
 73
4
 74
0
 40
0
 40
0
 40
0
 40
0
 40
1
 40
1
 40
1
 40
1
 10
28.716986
 20
-59.042625
 30
0.0
 10
28.584334
 20
-59.042591
 30
0.0
 10
28.457105
 20
-59.095272
 30
0.0
 10
28.363306
 20
-59.189071
 30
0.0
  0
SPLINE
  5
196
100
AcDbEntity
  8
0
 62
7
100
AcDbSpline
 70
8
 71
3
 72
8
 73
4
 74
0
 40
0
 40
0
 40
0
 40
0
 40
1
 40
1
 40
1
 40
1
 10
28.363306
 20
-59.189071
 30
0.0
 10
28.269507
 20
-59.282871
 30
0.0
 10
28.216826
 20
-59.410099
 30
0.0
 10
28.216860
 20
-59.542751
 30
0.0
  0
SPLINE
  5
197
100
AcDbEntity
  8
0
 62
7
100
AcDbSpline
 70
8
 71
3
 72
8
 73
4
 74
0
 40
0
 40
0
 40
0
 40
0
 40
1
 40
1
 40
1
 40
1
 10
231.123236
 20
-39.992625
 30
0.0
 10
230.990584
 20
-39.992591
 30
0.0
 10
230.863355
 20
-40.045272
 30
0.0
 10
230.769556
 20
-40.139071
 30
0.0
  0
SPLINE
  5
198
100
AcDbEntity
  8
0
 62
7
100
AcDbSpline
 70
8
 71
3
 72
8
 73
4
 74
0
 40
0
 40
0
 40
0
 40
0
 40
1
 40
1
 40
1
 40
1
 10
230.769556
 20
-40.139071
 30
0.0
 10
230.675757
 20
-40.232871
 30
0.0
 10
230.623076
 20
-40.360099
 30
0.0
 10
230.623110
 20
-40.492751
 30
0.0
  0
LWPOLYLINE
  5
199
100
AcDbEntity
  8
0
 62
7
100
AcDbPolyline
 90
2
 70
0
 10
212.072220
 20
-39.990593
 30
0.0
 10
225.071940
 20
-39.990593
 30
0.0
  0
LWPOLYLINE
  5
19a
100
AcDbEntity
  8
0
 62
7
100
AcDbPolyline
 90
2
 70
0
 10
231.122220
 20
-39.990593
 30
0.0
 10
244.121940
 20
-39.990593
 30
0.0
  0
LWPOLYLINE
  5
19b
100
AcDbEntity
  8
0
 62
7
100
AcDbPolyline
 90
2
 70
0
 10
193.022220
 20
-39.990593
 30
0.0
 10
206.021940
 20
-39.990593
 30
0.0
  0
SPLINE
  5
19c
100
AcDbEntity
  8
0
 62
7
100
AcDbSpline
 70
8
 71
3
 72
8
 73
4
 74
0
 40
0
 40
0
 40
0
 40
0
 40
1
 40
1
 40
1
 40
1
 10
212.073236
 20
-39.992625
 30
0.0
 10
211.940584
 20
-39.992591
 30
0.0
 10
211.813355
 20
-40.045272
 30
0.0
 10
211.719556
 20
-40.139071
 30
0.0
  0
SPLINE
  5
19d
100
AcDbEntity
  8
0
 62
7
100
AcDbSpline
 70
8
 71
3
 72
8
 73
4
 74
0
 40
0
 40
0
 40
0
 40
0
 40
1
 40
1
 40
1
 40
1
 10
211.719556
 20
-40.139071
 30
0.0
 10
211.625757
 20
-40.232871
 30
0.0
 10
211.573076
 20
-40.360099
 30
0.0
 10
211.573110
 20
-40.492751
 30
0.0
  0
SPLINE
  5
19e
100
AcDbEntity
  8
0
 62
7
100
AcDbSpline
 70
8
 71
3
 72
8
 73
4
 74
0
 40
0
 40
0
 40
0
 40
0
 40
1
 40
1
 40
1
 40
1
 10
7.285660
 20
-59.042625
 30
0.0
 10
7.153030
 20
-59.042625
 30
0.0
 10
7.025834
 20
-59.095321
 30
0.0
 10
6.932062
 20
-59.189116
 30
0.0
  0
SPLINE
  5
19f
100
AcDbEntity
  8
0
 62
7
100
AcDbSpline
 70
8
 71
3
 72
8
 73
4
 74
0
 40
0
 40
0
 40
0
 40
0
 40
1
 40
1
 40
1
 40
1
 10
6.932062
 20
-59.189116
 30
0.0
 10
6.838291
 20
-59.282912
 30
0.0
 10
6.785627
 20
-59.410121
 30
0.0
 10
6.785661
 20
-59.542751
 30
0.0
  0
LWPOLYLINE
  5
1a0
100
AcDbEntity
  8
0
 62
7
100
AcDbPolyline
 90
2
 70
0
 10
244.622320
 20
-40.490973
 30
0.0
 10
244.622320
 20
-53.490693
 30
0.0
  0
SPLINE
  5
1a1
100
AcDbEntity
  8
0
 62
7
100
AcDbSpline
 70
8
 71
3
 72
8
 73
4
 74
0
 40
0
 40
0
 40
0
 40
0
 40
1
 40
1
 40
1
 40
1
 10
230.623110
 20
-53.492725
 30
0.0
 10
230.623144
 20
-53.625333
 30
0.0
 10
230.675854
 20
-53.752496
 30
0.0
 10
230.769646
 20
-53.846241
 30
0.0
  0
SPLINE
  5
1a2
100
AcDbEntity
  8
0
 62
7
100
AcDbSpline
 70
8
 71
3
 72
8
 73
4
 74
0
 40
0
 40
0
 40
0
 40
0
 40
1
 40
1
 40
1
 40
1
 10
230.769646
 20
-53.846241
 30
0.0
 10
230.863438
 20
-53.939985
 30
0.0
 10
230.990628
 20
-53.992631
 30
0.0
 10
231.123236
 20
-53.992597
 30
0.0
  0
LWPOLYLINE
  5
1a3
100
AcDbEntity
  8
0
 62
7
100
AcDbPolyline
 90
2
 70
0
 10
7.284720
 20
-73.041073
 30
0.0
 10
20.284440
 20
-73.041073
 30
0.0
  0
SPLINE
  5
1a4
100
AcDbEntity
  8
0
 62
7
100
AcDbSpline
 70
8
 71
3
 72
8
 73
4
 74
0
 40
0
 40
0
 40
0
 40
0
 40
1
 40
1
 40
1
 40
1
 10
193.023236
 20
-39.992625
 30
0.0
 10
192.890584
 20
-39.992591
 30
0.0
 10
192.763355
 20
-40.045272
 30
0.0
 10
192.669556
 20
-40.139071
 30
0.0
  0
SPLINE
  5
1a5
100
AcDbEntity
  8
0
 62
7
100
AcDbSpline
 70
8
 71
3
 72
8
 73
4
 74
0
 40
0
 40
0
 40
0
 40
0
 40
1
 40
1
 40
1
 40
1
 10
192.669556
 20
-40.139071
 30
0.0
 10
192.575757
 20
-40.232871
 30
0.0
 10
192.523076
 20
-40.360099
 30
0.0
 10
192.523110
 20
-40.492751
 30
0.0
  0
SPLINE
  5
1a6
100
AcDbEntity
  8
0
 62
7
100
AcDbSpline
 70
8
 71
3
 72
8
 73
4
 74
0
 40
0
 40
0
 40
0
 40
0
 40
1
 40
1
 40
1
 40
1
 10
225.073210
 20
-53.992597
 30
0.0
 10
225.349253
 20
-53.992527
 30
0.0
 10
225.573012
 20
-53.768768
 30
0.0
 10
225.573082
 20
-53.492725
 30
0.0
  0
SPLINE
  5
1a7
100
AcDbEntity
  8
0
 62
7
100
AcDbSpline
 70
8
 71
3
 72
8
 73
4
 74
0
 40
0
 40
0
 40
0
 40
0
 40
1
 40
1
 40
1
 40
1
 10
186.973210
 20
-53.992597
 30
0.0
 10
187.249253
 20
-53.992527
 30
0.0
 10
187.473012
 20
-53.768768
 30
0.0
 10
187.473082
 20
-53.492725
 30
0.0
  0
LWPOLYLINE
  5
1a8
100
AcDbEntity
  8
0
 62
7
100
AcDbPolyline
 90
2
 70
0
 10
225.572320
 20
-40.490973
 30
0.0
 10
225.572320
 20
-53.490693
 30
0.0
  0
SPLINE
  5
1a9
100
AcDbEntity
  8
0
 62
7
100
AcDbSpline
 70
8
 71
3
 72
8
 73
4
 74
0
 40
0
 40
0
 40
0
 40
0
 40
1
 40
1
 40
1
 40
1
 10
41.716960
 20
-73.042597
 30
0.0
 10
41.993003
 20
-73.042527
 30
0.0
 10
42.216762
 20
-72.818768
 30
0.0
 10
42.216832
 20
-72.542725
 30
0.0
  0
SPLINE
  5
1aa
100
AcDbEntity
  8
0
 62
7
100
AcDbSpline
 70
8
 71
3
 72
8
 73
4
 74
0
 40
0
 40
0
 40
0
 40
0
 40
1
 40
1
 40
1
 40
1
 10
42.216832
 20
-59.542751
 30
0.0
 10
42.216866
 20
-59.410143
 30
0.0
 10
42.164220
 20
-59.282953
 30
0.0
 10
42.070475
 20
-59.189161
 30
0.0
  0
SPLINE
  5
1ab
100
AcDbEntity
  8
0
 62
7
100
AcDbSpline
 70
8
 71
3
 72
8
 73
4
 74
0
 40
0
 40
0
 40
0
 40
0
 40
1
 40
1
 40
1
 40
1
 10
42.070475
 20
-59.189161
 30
0.0
 10
41.976731
 20
-59.095369
 30
0.0
 10
41.849568
 20
-59.042659
 30
0.0
 10
41.716960
 20
-59.042625
 30
0.0
  0
LWPOLYLINE
  5
1ac
100
AcDbEntity
  8
0
 62
7
100
AcDbPolyline
 90
2
 70
0
 10
212.072220
 20
-53.991073
 30
0.0
 10
225.071940
 20
-53.991073
 30
0.0
  0
LWPOLYLINE
  5
1ad
100
AcDbEntity
  8
0
 62
7
100
AcDbPolyline
 90
2
 70
0
 10
168.422320
 20
-40.490973
 30
0.0
 10
168.422320
 20
-53.490693
 30
0.0
  0
SPLINE
  5
1ae
100
AcDbEntity
  8
0
 62
7
100
AcDbSpline
 70
8
 71
3
 72
8
 73
4
 74
0
 40
0
 40
0
 40
0
 40
0
 40
1
 40
1
 40
1
 40
1
 10
135.873236
 20
-39.992625
 30
0.0
 10
135.740584
 20
-39.992591
 30
0.0
 10
135.613355
 20
-40.045272
 30
0.0
 10
135.519556
 20
-40.139071
 30
0.0
  0
SPLINE
  5
1af
100
AcDbEntity
  8
0
 62
7
100
AcDbSpline
 70
8
 71
3
 72
8
 73
4
 74
0
 40
0
 40
0
 40
0
 40
0
 40
1
 40
1
 40
1
 40
1
 10
135.519556
 20
-40.139071
 30
0.0
 10
135.425757
 20
-40.232871
 30
0.0
 10
135.373076
 20
-40.360099
 30
0.0
 10
135.373110
 20
-40.492751
 30
0.0
  0
LWPOLYLINE
  5
1b0
100
AcDbEntity
  8
0
 62
7
100
AcDbPolyline
 90
2
 70
0
 10
78.722220
 20
-53.991073
 30
0.0
 10
91.721940
 20
-53.991073
 30
0.0
  0
SPLINE
  5
1b1
100
AcDbEntity
  8
0
 62
7
100
AcDbSpline
 70
8
 71
3
 72
8
 73
4
 74
0
 40
0
 40
0
 40
0
 40
0
 40
1
 40
1
 40
1
 40
1
 10
116.323110
 20
-53.492725
 30
0.0
 10
116.323144
 20
-53.625333
 30
0.0
 10
116.375854
 20
-53.752496
 30
0.0
 10
116.469646
 20
-53.846241
 30
0.0
  0
SPLINE
  5
1b2
100
AcDbEntity
  8
0
 62
7
100
AcDbSpline
 70
8
 71
3
 72
8
 73
4
 74
0
 40
0
 40
0
 40
0
 40
0
 40
1
 40
1
 40
1
 40
1
 10
116.469646
 20
-53.846241
 30
0.0
 10
116.563438
 20
-53.939985
 30
0.0
 10
116.690628
 20
-53.992631
 30
0.0
 10
116.823236
 20
-53.992597
 30
0.0
  0
SPLINE
  5
1b3
100
AcDbEntity
  8
0
 62
7
100
AcDbSpline
 70
8
 71
3
 72
8
 73
4
 74
0
 40
0
 40
0
 40
0
 40
0
 40
1
 40
1
 40
1
 40
1
 10
59.173110
 20
-53.492725
 30
0.0
 10
59.173144
 20
-53.625333
 30
0.0
 10
59.225854
 20
-53.752496
 30
0.0
 10
59.319646
 20
-53.846241
 30
0.0
  0
SPLINE
  5
1b4
100
AcDbEntity
  8
0
 62
7
100
AcDbSpline
 70
8
 71
3
 72
8
 73
4
 74
0
 40
0
 40
0
 40
0
 40
0
 40
1
 40
1
 40
1
 40
1
 10
59.319646
 20
-53.846241
 30
0.0
 10
59.413438
 20
-53.939985
 30
0.0
 10
59.540628
 20
-53.992631
 30
0.0
 10
59.673236
 20
-53.992597
 30
0.0
  0
SPLINE
  5
1b5
100
AcDbEntity
  8
0
 62
7
100
AcDbSpline
 70
8
 71
3
 72
8
 73
4
 74
0
 40
0
 40
0
 40
0
 40
0
 40
1
 40
1
 40
1
 40
1
 10
14.429410
 20
-39.992625
 30
0.0
 10
14.296780
 20
-39.992625
 30
0.0
 10
14.169584
 20
-40.045321
 30
0.0
 10
14.075812
 20
-40.139116
 30
0.0
  0
SPLINE
  5
1b6
100
AcDbEntity
  8
0
 62
7
100
AcDbSpline
 70
8
 71
3
 72
8
 73
4
 74
0
 40
0
 40
0
 40
0
 40
0
 40
1
 40
1
 40
1
 40
1
 10
14.075812
 20
-40.139116
 30
0.0
 10
13.982041
 20
-40.232912
 30
0.0
 10
13.929377
 20
-40.360121
 30
0.0
 10
13.929411
 20
-40.492751
 30
0.0
  0
LWPOLYLINE
  5
1b7
100
AcDbEntity
  8
0
 62
7
100
AcDbPolyline
 90
2
 70
0
 10
116.822220
 20
-39.990593
 30
0.0
 10
129.821940
 20
-39.990593
 30
0.0
  0
SPLINE
  5
1b8
100
AcDbEntity
  8
0
 62
7
100
AcDbSpline
 70
8
 71
3
 72
8
 73
4
 74
0
 40
0
 40
0
 40
0
 40
0
 40
1
 40
1
 40
1
 40
1
 10
54.123082
 20
-40.492751
 30
0.0
 10
54.123116
 20
-40.360143
 30
0.0
 10
54.070470
 20
-40.232953
 30
0.0
 10
53.976725
 20
-40.139161
 30
0.0
  0
SPLINE
  5
1b9
100
AcDbEntity
  8
0
 62
7
100
AcDbSpline
 70
8
 71
3
 72
8
 73
4
 74
0
 40
0
 40
0
 40
0
 40
0
 40
1
 40
1
 40
1
 40
1
 10
53.976725
 20
-40.139161
 30
0.0
 10
53.882981
 20
-40.045369
 30
0.0
 10
53.755818
 20
-39.992659
 30
0.0
 10
53.623210
 20
-39.992625
 30
0.0
  0
SPLINE
  5
1ba
100
AcDbEntity
  8
0
 62
7
100
AcDbSpline
 70
8
 71
3
 72
8
 73
4
 74
0
 40
0
 40
0
 40
0
 40
0
 40
1
 40
1
 40
1
 40
1
 10
91.723210
 20
-53.992597
 30
0.0
 10
91.999253
 20
-53.992527
 30
0.0
 10
92.223012
 20
-53.768768
 30
0.0
 10
92.223082
 20
-53.492725
 30
0.0
  0
LWPOLYLINE
  5
1bb
100
AcDbEntity
  8
0
 62
7
100
AcDbPolyline
 90
2
 70
0
 10
97.772220
 20
-39.990593
 30
0.0
 10
110.771940
 20
-39.990593
 30
0.0
  0
SPLINE
  5
1bc
100
AcDbEntity
  8
0
 62
7
100
AcDbSpline
 70
8
 71
3
 72
8
 73
4
 74
0
 40
0
 40
0
 40
0
 40
0
 40
1
 40
1
 40
1
 40
1
 10
110.773210
 20
-53.992597
 30
0.0
 10
111.049253
 20
-53.992527
 30
0.0
 10
111.273012
 20
-53.768768
 30
0.0
 10
111.273082
 20
-53.492725
 30
0.0
  0
SPLINE
  5
1bd
100
AcDbEntity
  8
0
 62
7
100
AcDbSpline
 70
8
 71
3
 72
8
 73
4
 74
0
 40
0
 40
0
 40
0
 40
0
 40
1
 40
1
 40
1
 40
1
 10
73.173082
 20
-40.492751
 30
0.0
 10
73.173116
 20
-40.360143
 30
0.0
 10
73.120470
 20
-40.232953
 30
0.0
 10
73.026725
 20
-40.139161
 30
0.0
  0
SPLINE
  5
1be
100
AcDbEntity
  8
0
 62
7
100
AcDbSpline
 70
8
 71
3
 72
8
 73
4
 74
0
 40
0
 40
0
 40
0
 40
0
 40
1
 40
1
 40
1
 40
1
 10
73.026725
 20
-40.139161
 30
0.0
 10
72.932981
 20
-40.045369
 30
0.0
 10
72.805818
 20
-39.992659
 30
0.0
 10
72.673210
 20
-39.992625
 30
0.0
  0
LWPOLYLINE
  5
1bf
100
AcDbEntity
  8
0
 62
7
100
AcDbPolyline
 90
2
 70
0
 10
27.927300
 20
-40.490973
 30
0.0
 10
27.927300
 20
-53.490693
 30
0.0
  0
LWPOLYLINE
  5
1c0
100
AcDbEntity
  8
0
 62
7
100
AcDbPolyline
 90
2
 70
0
 10
154.421840
 20
-40.490973
 30
0.0
 10
154.421840
 20
-53.490693
 30
0.0
  0
LWPOLYLINE
  5
1c1
100
AcDbEntity
  8
0
 62
7
100
AcDbPolyline
 90
2
 70
0
 10
111.272320
 20
-40.490973
 30
0.0
 10
111.272320
 20
-53.490693
 30
0.0
  0
SPLINE
  5
1c2
100
AcDbEntity
  8
0
 62
7
100
AcDbSpline
 70
8
 71
3
 72
8
 73
4
 74
0
 40
0
 40
0
 40
0
 40
0
 40
1
 40
1
 40
1
 40
1
 10
72.673210
 20
-53.992597
 30
0.0
 10
72.949253
 20
-53.992527
 30
0.0
 10
73.173012
 20
-53.768768
 30
0.0
 10
73.173082
 20
-53.492725
 30
0.0
  0
LWPOLYLINE
  5
1c3
100
AcDbEntity
  8
0
 62
7
100
AcDbPolyline
 90
2
 70
0
 10
154.922220
 20
-39.990593
 30
0.0
 10
167.921940
 20
-39.990593
 30
0.0
  0
LWPOLYLINE
  5
1c4
100
AcDbEntity
  8
0
 62
7
100
AcDbPolyline
 90
2
 70
0
 10
40.622220
 20
-53.991073
 30
0.0
 10
53.621940
 20
-53.991073
 30
0.0
  0
SPLINE
  5
1c5
100
AcDbEntity
  8
0
 62
7
100
AcDbSpline
 70
8
 71
3
 72
8
 73
4
 74
0
 40
0
 40
0
 40
0
 40
0
 40
1
 40
1
 40
1
 40
1
 10
13.929411
 20
-53.492725
 30
0.0
 10
13.929481
 20
-53.768817
 30
0.0
 10
14.153318
 20
-53.992597
 30
0.0
 10
14.429410
 20
-53.992597
 30
0.0
  0
LWPOLYLINE
  5
1c6
100
AcDbEntity
  8
0
 62
7
100
AcDbPolyline
 90
2
 70
0
 10
73.172320
 20
-40.490973
 30
0.0
 10
73.172320
 20
-53.490693
 30
0.0
  0
SPLINE
  5
1c7
100
AcDbEntity
  8
0
 62
7
100
AcDbSpline
 70
8
 71
3
 72
8
 73
4
 74
0
 40
0
 40
0
 40
0
 40
0
 40
1
 40
1
 40
1
 40
1
 10
149.373082
 20
-40.492751
 30
0.0
 10
149.373116
 20
-40.360143
 30
0.0
 10
149.320470
 20
-40.232953
 30
0.0
 10
149.226725
 20
-40.139161
 30
0.0
  0
SPLINE
  5
1c8
100
AcDbEntity
  8
0
 62
7
100
AcDbSpline
 70
8
 71
3
 72
8
 73
4
 74
0
 40
0
 40
0
 40
0
 40
0
 40
1
 40
1
 40
1
 40
1
 10
149.226725
 20
-40.139161
 30
0.0
 10
149.132981
 20
-40.045369
 30
0.0
 10
149.005818
 20
-39.992659
 30
0.0
 10
148.873210
 20
-39.992625
 30
0.0
  0
SPLINE
  5
1c9
100
AcDbEntity
  8
0
 62
7
100
AcDbSpline
 70
8
 71
3
 72
8
 73
4
 74
0
 40
0
 40
0
 40
0
 40
0
 40
1
 40
1
 40
1
 40
1
 10
168.423082
 20
-40.492751
 30
0.0
 10
168.423116
 20
-40.360143
 30
0.0
 10
168.370470
 20
-40.232953
 30
0.0
 10
168.276725
 20
-40.139161
 30
0.0
  0
SPLINE
  5
1ca
100
AcDbEntity
  8
0
 62
7
100
AcDbSpline
 70
8
 71
3
 72
8
 73
4
 74
0
 40
0
 40
0
 40
0
 40
0
 40
1
 40
1
 40
1
 40
1
 10
168.276725
 20
-40.139161
 30
0.0
 10
168.182981
 20
-40.045369
 30
0.0
 10
168.055818
 20
-39.992659
 30
0.0
 10
167.923210
 20
-39.992625
 30
0.0
  0
LWPOLYLINE
  5
1cb
100
AcDbEntity
  8
0
 62
7
100
AcDbPolyline
 90
2
 70
0
 10
59.672220
 20
-39.990593
 30
0.0
 10
72.671940
 20
-39.990593
 30
0.0
  0
LWPOLYLINE
  5
1cc
100
AcDbEntity
  8
0
 62
7
100
AcDbPolyline
 90
2
 70
0
 10
59.171840
 20
-40.490973
 30
0.0
 10
59.171840
 20
-53.490693
 30
0.0
  0
SPLINE
  5
1cd
100
AcDbEntity
  8
0
 62
7
100
AcDbSpline
 70
8
 71
3
 72
8
 73
4
 74
0
 40
0
 40
0
 40
0
 40
0
 40
1
 40
1
 40
1
 40
1
 10
53.623210
 20
-53.992597
 30
0.0
 10
53.899253
 20
-53.992527
 30
0.0
 10
54.123012
 20
-53.768768
 30
0.0
 10
54.123082
 20
-53.492725
 30
0.0
  0
LWPOLYLINE
  5
1ce
100
AcDbEntity
  8
0
 62
7
100
AcDbPolyline
 90
2
 70
0
 10
173.972220
 20
-53.991073
 30
0.0
 10
186.971940
 20
-53.991073
 30
0.0
  0
LWPOLYLINE
  5
1cf
100
AcDbEntity
  8
0
 62
7
100
AcDbPolyline
 90
2
 70
0
 10
135.872220
 20
-39.990593
 30
0.0
 10
148.871940
 20
-39.990593
 30
0.0
  0
SPLINE
  5
1d0
100
AcDbEntity
  8
0
 62
7
100
AcDbSpline
 70
8
 71
3
 72
8
 73
4
 74
0
 40
0
 40
0
 40
0
 40
0
 40
1
 40
1
 40
1
 40
1
 10
167.923210
 20
-53.992597
 30
0.0
 10
168.199253
 20
-53.992527
 30
0.0
 10
168.423012
 20
-53.768768
 30
0.0
 10
168.423082
 20
-53.492725
 30
0.0
  0
SPLINE
  5
1d1
100
AcDbEntity
  8
0
 62
7
100
AcDbSpline
 70
8
 71
3
 72
8
 73
4
 74
0
 40
0
 40
0
 40
0
 40
0
 40
1
 40
1
 40
1
 40
1
 10
135.373110
 20
-53.492725
 30
0.0
 10
135.373144
 20
-53.625333
 30
0.0
 10
135.425854
 20
-53.752496
 30
0.0
 10
135.519646
 20
-53.846241
 30
0.0
  0
SPLINE
  5
1d2
100
AcDbEntity
  8
0
 62
7
100
AcDbSpline
 70
8
 71
3
 72
8
 73
4
 74
0
 40
0
 40
0
 40
0
 40
0
 40
1
 40
1
 40
1
 40
1
 10
135.519646
 20
-53.846241
 30
0.0
 10
135.613438
 20
-53.939985
 30
0.0
 10
135.740628
 20
-53.992631
 30
0.0
 10
135.873236
 20
-53.992597
 30
0.0
  0
SPLINE
  5
1d3
100
AcDbEntity
  8
0
 62
7
100
AcDbSpline
 70
8
 71
3
 72
8
 73
4
 74
0
 40
0
 40
0
 40
0
 40
0
 40
1
 40
1
 40
1
 40
1
 10
154.423110
 20
-53.492725
 30
0.0
 10
154.423144
 20
-53.625333
 30
0.0
 10
154.475854
 20
-53.752496
 30
0.0
 10
154.569646
 20
-53.846241
 30
0.0
  0
SPLINE
  5
1d4
100
AcDbEntity
  8
0
 62
7
100
AcDbSpline
 70
8
 71
3
 72
8
 73
4
 74
0
 40
0
 40
0
 40
0
 40
0
 40
1
 40
1
 40
1
 40
1
 10
154.569646
 20
-53.846241
 30
0.0
 10
154.663438
 20
-53.939985
 30
0.0
 10
154.790628
 20
-53.992631
 30
0.0
 10
154.923236
 20
-53.992597
 30
0.0
  0
LWPOLYLINE
  5
1d5
100
AcDbEntity
  8
0
 62
7
100
AcDbPolyline
 90
2
 70
0
 10
173.972220
 20
-39.990593
 30
0.0
 10
186.971940
 20
-39.990593
 30
0.0
  0
LWPOLYLINE
  5
1d6
100
AcDbEntity
  8
0
 62
7
100
AcDbPolyline
 90
2
 70
0
 10
116.822220
 20
-53.991073
 30
0.0
 10
129.821940
 20
-53.991073
 30
0.0
  0
LWPOLYLINE
  5
1d7
100
AcDbEntity
  8
0
 62
7
100
AcDbPolyline
 90
2
 70
0
 10
154.922220
 20
-53.991073
 30
0.0
 10
167.921940
 20
-53.991073
 30
0.0
  0
SPLINE
  5
1d8
100
AcDbEntity
  8
0
 62
7
100
AcDbSpline
 70
8
 71
3
 72
8
 73
4
 74
0
 40
0
 40
0
 40
0
 40
0
 40
1
 40
1
 40
1
 40
1
 10
111.273082
 20
-40.492751
 30
0.0
 10
111.273116
 20
-40.360143
 30
0.0
 10
111.220470
 20
-40.232953
 30
0.0
 10
111.126725
 20
-40.139161
 30
0.0
  0
SPLINE
  5
1d9
100
AcDbEntity
  8
0
 62
7
100
AcDbSpline
 70
8
 71
3
 72
8
 73
4
 74
0
 40
0
 40
0
 40
0
 40
0
 40
1
 40
1
 40
1
 40
1
 10
111.126725
 20
-40.139161
 30
0.0
 10
111.032981
 20
-40.045369
 30
0.0
 10
110.905818
 20
-39.992659
 30
0.0
 10
110.773210
 20
-39.992625
 30
0.0
  0
LWPOLYLINE
  5
1da
100
AcDbEntity
  8
0
 62
7
100
AcDbPolyline
 90
2
 70
0
 10
40.121840
 20
-40.490973
 30
0.0
 10
40.121840
 20
-53.490693
 30
0.0
  0
SPLINE
  5
1db
100
AcDbEntity
  8
0
 62
7
100
AcDbSpline
 70
8
 71
3
 72
8
 73
4
 74
0
 40
0
 40
0
 40
0
 40
0
 40
1
 40
1
 40
1
 40
1
 10
148.873210
 20
-53.992597
 30
0.0
 10
149.149253
 20
-53.992527
 30
0.0
 10
149.373012
 20
-53.768768
 30
0.0
 10
149.373082
 20
-53.492725
 30
0.0
  0
LWPOLYLINE
  5
1dc
100
AcDbEntity
  8
0
 62
7
100
AcDbPolyline
 90
2
 70
0
 10
78.221840
 20
-40.490973
 30
0.0
 10
78.221840
 20
-53.490693
 30
0.0
  0
LWPOLYLINE
  5
1dd
100
AcDbEntity
  8
0
 62
7
100
AcDbPolyline
 90
2
 70
0
 10
149.372320
 20
-40.490973
 30
0.0
 10
149.372320
 20
-53.490693
 30
0.0
  0
SPLINE
  5
1de
100
AcDbEntity
  8
0
 62
7
100
AcDbSpline
 70
8
 71
3
 72
8
 73
4
 74
0
 40
0
 40
0
 40
0
 40
0
 40
1
 40
1
 40
1
 40
1
 10
27.929332
 20
-40.492751
 30
0.0
 10
27.929366
 20
-40.360143
 30
0.0
 10
27.876720
 20
-40.232953
 30
0.0
 10
27.782975
 20
-40.139161
 30
0.0
  0
SPLINE
  5
1df
100
AcDbEntity
  8
0
 62
7
100
AcDbSpline
 70
8
 71
3
 72
8
 73
4
 74
0
 40
0
 40
0
 40
0
 40
0
 40
1
 40
1
 40
1
 40
1
 10
27.782975
 20
-40.139161
 30
0.0
 10
27.689231
 20
-40.045369
 30
0.0
 10
27.562068
 20
-39.992659
 30
0.0
 10
27.429460
 20
-39.992625
 30
0.0
  0
SPLINE
  5
1e0
100
AcDbEntity
  8
0
 62
7
100
AcDbSpline
 70
8
 71
3
 72
8
 73
4
 74
0
 40
0
 40
0
 40
0
 40
0
 40
1
 40
1
 40
1
 40
1
 10
129.823210
 20
-53.992597
 30
0.0
 10
130.099253
 20
-53.992527
 30
0.0
 10
130.323012
 20
-53.768768
 30
0.0
 10
130.323082
 20
-53.492725
 30
0.0
  0
LWPOLYLINE
  5
1e1
100
AcDbEntity
  8
0
 62
7
100
AcDbPolyline
 90
2
 70
0
 10
78.722220
 20
-39.990593
 30
0.0
 10
91.721940
 20
-39.990593
 30
0.0
  0
LWPOLYLINE
  5
1e2
100
AcDbEntity
  8
0
 62
7
100
AcDbPolyline
 90
2
 70
0
 10
92.222320
 20
-40.490973
 30
0.0
 10
92.222320
 20
-53.490693
 30
0.0
  0
SPLINE
  5
1e3
100
AcDbEntity
  8
0
 62
7
100
AcDbSpline
 70
8
 71
3
 72
8
 73
4
 74
0
 40
0
 40
0
 40
0
 40
0
 40
1
 40
1
 40
1
 40
1
 10
116.823236
 20
-39.992625
 30
0.0
 10
116.690584
 20
-39.992591
 30
0.0
 10
116.563355
 20
-40.045272
 30
0.0
 10
116.469556
 20
-40.139071
 30
0.0
  0
SPLINE
  5
1e4
100
AcDbEntity
  8
0
 62
7
100
AcDbSpline
 70
8
 71
3
 72
8
 73
4
 74
0
 40
0
 40
0
 40
0
 40
0
 40
1
 40
1
 40
1
 40
1
 10
116.469556
 20
-40.139071
 30
0.0
 10
116.375757
 20
-40.232871
 30
0.0
 10
116.323076
 20
-40.360099
 30
0.0
 10
116.323110
 20
-40.492751
 30
0.0
  0
LWPOLYLINE
  5
1e5
100
AcDbEntity
  8
0
 62
7
100
AcDbPolyline
 90
2
 70
0
 10
116.321840
 20
-40.490973
 30
0.0
 10
116.321840
 20
-53.490693
 30
0.0
  0
LWPOLYLINE
  5
1e6
100
AcDbEntity
  8
0
 62
7
100
AcDbPolyline
 90
2
 70
0
 10
130.322320
 20
-40.490973
 30
0.0
 10
130.322320
 20
-53.490693
 30
0.0
  0
SPLINE
  5
1e7
100
AcDbEntity
  8
0
 62
7
100
AcDbSpline
 70
8
 71
3
 72
8
 73
4
 74
0
 40
0
 40
0
 40
0
 40
0
 40
1
 40
1
 40
1
 40
1
 10
97.273110
 20
-53.492725
 30
0.0
 10
97.273144
 20
-53.625333
 30
0.0
 10
97.325854
 20
-53.752496
 30
0.0
 10
97.419646
 20
-53.846241
 30
0.0
  0
SPLINE
  5
1e8
100
AcDbEntity
  8
0
 62
7
100
AcDbSpline
 70
8
 71
3
 72
8
 73
4
 74
0
 40
0
 40
0
 40
0
 40
0
 40
1
 40
1
 40
1
 40
1
 10
97.419646
 20
-53.846241
 30
0.0
 10
97.513438
 20
-53.939985
 30
0.0
 10
97.640628
 20
-53.992631
 30
0.0
 10
97.773236
 20
-53.992597
 30
0.0
  0
LWPOLYLINE
  5
1e9
100
AcDbEntity
  8
0
 62
7
100
AcDbPolyline
 90
2
 70
0
 10
40.622220
 20
-39.990593
 30
0.0
 10
53.621940
 20
-39.990593
 30
0.0
  0
LWPOLYLINE
  5
1ea
100
AcDbEntity
  8
0
 62
7
100
AcDbPolyline
 90
2
 70
0
 10
97.271840
 20
-40.490973
 30
0.0
 10
97.271840
 20
-53.490693
 30
0.0
  0
SPLINE
  5
1eb
100
AcDbEntity
  8
0
 62
7
100
AcDbSpline
 70
8
 71
3
 72
8
 73
4
 74
0
 40
0
 40
0
 40
0
 40
0
 40
1
 40
1
 40
1
 40
1
 10
40.623236
 20
-39.992625
 30
0.0
 10
40.490584
 20
-39.992591
 30
0.0
 10
40.363355
 20
-40.045272
 30
0.0
 10
40.269556
 20
-40.139071
 30
0.0
  0
SPLINE
  5
1ec
100
AcDbEntity
  8
0
 62
7
100
AcDbSpline
 70
8
 71
3
 72
8
 73
4
 74
0
 40
0
 40
0
 40
0
 40
0
 40
1
 40
1
 40
1
 40
1
 10
40.269556
 20
-40.139071
 30
0.0
 10
40.175757
 20
-40.232871
 30
0.0
 10
40.123076
 20
-40.360099
 30
0.0
 10
40.123110
 20
-40.492751
 30
0.0
  0
SPLINE
  5
1ed
100
AcDbEntity
  8
0
 62
7
100
AcDbSpline
 70
8
 71
3
 72
8
 73
4
 74
0
 40
0
 40
0
 40
0
 40
0
 40
1
 40
1
 40
1
 40
1
 10
78.723236
 20
-39.992625
 30
0.0
 10
78.590584
 20
-39.992591
 30
0.0
 10
78.463355
 20
-40.045272
 30
0.0
 10
78.369556
 20
-40.139071
 30
0.0
  0
SPLINE
  5
1ee
100
AcDbEntity
  8
0
 62
7
100
AcDbSpline
 70
8
 71
3
 72
8
 73
4
 74
0
 40
0
 40
0
 40
0
 40
0
 40
1
 40
1
 40
1
 40
1
 10
78.369556
 20
-40.139071
 30
0.0
 10
78.275757
 20
-40.232871
 30
0.0
 10
78.223076
 20
-40.360099
 30
0.0
 10
78.223110
 20
-40.492751
 30
0.0
  0
SPLINE
  5
1ef
100
AcDbEntity
  8
0
 62
7
100
AcDbSpline
 70
8
 71
3
 72
8
 73
4
 74
0
 40
0
 40
0
 40
0
 40
0
 40
1
 40
1
 40
1
 40
1
 10
59.673236
 20
-39.992625
 30
0.0
 10
59.540584
 20
-39.992591
 30
0.0
 10
59.413355
 20
-40.045272
 30
0.0
 10
59.319556
 20
-40.139071
 30
0.0
  0
SPLINE
  5
1f0
100
AcDbEntity
  8
0
 62
7
100
AcDbSpline
 70
8
 71
3
 72
8
 73
4
 74
0
 40
0
 40
0
 40
0
 40
0
 40
1
 40
1
 40
1
 40
1
 10
59.319556
 20
-40.139071
 30
0.0
 10
59.225757
 20
-40.232871
 30
0.0
 10
59.173076
 20
-40.360099
 30
0.0
 10
59.173110
 20
-40.492751
 30
0.0
  0
LWPOLYLINE
  5
1f1
100
AcDbEntity
  8
0
 62
7
100
AcDbPolyline
 90
2
 70
0
 10
54.122320
 20
-40.490973
 30
0.0
 10
54.122320
 20
-53.490693
 30
0.0
  0
LWPOLYLINE
  5
1f2
100
AcDbEntity
  8
0
 62
7
100
AcDbPolyline
 90
2
 70
0
 10
13.929360
 20
-40.490973
 30
0.0
 10
13.929360
 20
-53.490693
 30
0.0
  0
LWPOLYLINE
  5
1f3
100
AcDbEntity
  8
0
 62
7
100
AcDbPolyline
 90
2
 70
0
 10
135.371840
 20
-40.490973
 30
0.0
 10
135.371840
 20
-53.490693
 30
0.0
  0
SPLINE
  5
1f4
100
AcDbEntity
  8
0
 62
7
100
AcDbSpline
 70
8
 71
3
 72
8
 73
4
 74
0
 40
0
 40
0
 40
0
 40
0
 40
1
 40
1
 40
1
 40
1
 10
78.223110
 20
-53.492725
 30
0.0
 10
78.223144
 20
-53.625333
 30
0.0
 10
78.275854
 20
-53.752496
 30
0.0
 10
78.369646
 20
-53.846241
 30
0.0
  0
SPLINE
  5
1f5
100
AcDbEntity
  8
0
 62
7
100
AcDbSpline
 70
8
 71
3
 72
8
 73
4
 74
0
 40
0
 40
0
 40
0
 40
0
 40
1
 40
1
 40
1
 40
1
 10
78.369646
 20
-53.846241
 30
0.0
 10
78.463438
 20
-53.939985
 30
0.0
 10
78.590628
 20
-53.992631
 30
0.0
 10
78.723236
 20
-53.992597
 30
0.0
  0
SPLINE
  5
1f6
100
AcDbEntity
  8
0
 62
7
100
AcDbSpline
 70
8
 71
3
 72
8
 73
4
 74
0
 40
0
 40
0
 40
0
 40
0
 40
1
 40
1
 40
1
 40
1
 10
97.773236
 20
-39.992625
 30
0.0
 10
97.640584
 20
-39.992591
 30
0.0
 10
97.513355
 20
-40.045272
 30
0.0
 10
97.419556
 20
-40.139071
 30
0.0
  0
SPLINE
  5
1f7
100
AcDbEntity
  8
0
 62
7
100
AcDbSpline
 70
8
 71
3
 72
8
 73
4
 74
0
 40
0
 40
0
 40
0
 40
0
 40
1
 40
1
 40
1
 40
1
 10
97.419556
 20
-40.139071
 30
0.0
 10
97.325757
 20
-40.232871
 30
0.0
 10
97.273076
 20
-40.360099
 30
0.0
 10
97.273110
 20
-40.492751
 30
0.0
  0
LWPOLYLINE
  5
1f8
100
AcDbEntity
  8
0
 62
7
100
AcDbPolyline
 90
2
 70
0
 10
135.872220
 20
-53.991073
 30
0.0
 10
148.871940
 20
-53.991073
 30
0.0
  0
SPLINE
  5
1f9
100
AcDbEntity
  8
0
 62
7
100
AcDbSpline
 70
8
 71
3
 72
8
 73
4
 74
0
 40
0
 40
0
 40
0
 40
0
 40
1
 40
1
 40
1
 40
1
 10
40.123110
 20
-53.492725
 30
0.0
 10
40.123144
 20
-53.625333
 30
0.0
 10
40.175854
 20
-53.752496
 30
0.0
 10
40.269646
 20
-53.846241
 30
0.0
  0
SPLINE
  5
1fa
100
AcDbEntity
  8
0
 62
7
100
AcDbSpline
 70
8
 71
3
 72
8
 73
4
 74
0
 40
0
 40
0
 40
0
 40
0
 40
1
 40
1
 40
1
 40
1
 10
40.269646
 20
-53.846241
 30
0.0
 10
40.363438
 20
-53.939985
 30
0.0
 10
40.490628
 20
-53.992631
 30
0.0
 10
40.623236
 20
-53.992597
 30
0.0
  0
SPLINE
  5
1fb
100
AcDbEntity
  8
0
 62
7
100
AcDbSpline
 70
8
 71
3
 72
8
 73
4
 74
0
 40
0
 40
0
 40
0
 40
0
 40
1
 40
1
 40
1
 40
1
 10
27.429460
 20
-53.992597
 30
0.0
 10
27.705503
 20
-53.992527
 30
0.0
 10
27.929262
 20
-53.768768
 30
0.0
 10
27.929332
 20
-53.492725
 30
0.0
  0
SPLINE
  5
1fc
100
AcDbEntity
  8
0
 62
7
100
AcDbSpline
 70
8
 71
3
 72
8
 73
4
 74
0
 40
0
 40
0
 40
0
 40
0
 40
1
 40
1
 40
1
 40
1
 10
130.323082
 20
-40.492751
 30
0.0
 10
130.323116
 20
-40.360143
 30
0.0
 10
130.270470
 20
-40.232953
 30
0.0
 10
130.176725
 20
-40.139161
 30
0.0
  0
SPLINE
  5
1fd
100
AcDbEntity
  8
0
 62
7
100
AcDbSpline
 70
8
 71
3
 72
8
 73
4
 74
0
 40
0
 40
0
 40
0
 40
0
 40
1
 40
1
 40
1
 40
1
 10
130.176725
 20
-40.139161
 30
0.0
 10
130.082981
 20
-40.045369
 30
0.0
 10
129.955818
 20
-39.992659
 30
0.0
 10
129.823210
 20
-39.992625
 30
0.0
  0
SPLINE
  5
1fe
100
AcDbEntity
  8
0
 62
7
100
AcDbSpline
 70
8
 71
3
 72
8
 73
4
 74
0
 40
0
 40
0
 40
0
 40
0
 40
1
 40
1
 40
1
 40
1
 10
154.923236
 20
-39.992625
 30
0.0
 10
154.790584
 20
-39.992591
 30
0.0
 10
154.663355
 20
-40.045272
 30
0.0
 10
154.569556
 20
-40.139071
 30
0.0
  0
SPLINE
  5
1ff
100
AcDbEntity
  8
0
 62
7
100
AcDbSpline
 70
8
 71
3
 72
8
 73
4
 74
0
 40
0
 40
0
 40
0
 40
0
 40
1
 40
1
 40
1
 40
1
 10
154.569556
 20
-40.139071
 30
0.0
 10
154.475757
 20
-40.232871
 30
0.0
 10
154.423076
 20
-40.360099
 30
0.0
 10
154.423110
 20
-40.492751
 30
0.0
  0
SPLINE
  5
200
100
AcDbEntity
  8
0
 62
7
100
AcDbSpline
 70
8
 71
3
 72
8
 73
4
 74
0
 40
0
 40
0
 40
0
 40
0
 40
1
 40
1
 40
1
 40
1
 10
92.223082
 20
-40.492751
 30
0.0
 10
92.223116
 20
-40.360143
 30
0.0
 10
92.170470
 20
-40.232953
 30
0.0
 10
92.076725
 20
-40.139161
 30
0.0
  0
SPLINE
  5
201
100
AcDbEntity
  8
0
 62
7
100
AcDbSpline
 70
8
 71
3
 72
8
 73
4
 74
0
 40
0
 40
0
 40
0
 40
0
 40
1
 40
1
 40
1
 40
1
 10
92.076725
 20
-40.139161
 30
0.0
 10
91.982981
 20
-40.045369
 30
0.0
 10
91.855818
 20
-39.992659
 30
0.0
 10
91.723210
 20
-39.992625
 30
0.0
  0
LWPOLYLINE
  5
202
100
AcDbEntity
  8
0
 62
7
100
AcDbPolyline
 90
2
 70
0
 10
59.672220
 20
-53.991073
 30
0.0
 10
72.671940
 20
-53.991073
 30
0.0
  0
SPLINE
  5
203
100
AcDbEntity
  8
0
 62
7
100
AcDbSpline
 70
8
 71
3
 72
8
 73
4
 74
0
 40
0
 40
0
 40
0
 40
0
 40
1
 40
1
 40
1
 40
1
 10
120.798082
 20
-21.442726
 30
0.0
 10
120.798082
 20
-21.166633
 30
0.0
 10
120.574302
 20
-20.942797
 30
0.0
 10
120.298210
 20
-20.942727
 30
0.0
  0
SPLINE
  5
204
100
AcDbEntity
  8
0
 62
7
100
AcDbSpline
 70
8
 71
3
 72
8
 73
4
 74
0
 40
0
 40
0
 40
0
 40
0
 40
1
 40
1
 40
1
 40
1
 10
196.998082
 20
-21.442726
 30
0.0
 10
196.998082
 20
-21.166633
 30
0.0
 10
196.774302
 20
-20.942797
 30
0.0
 10
196.498210
 20
-20.942727
 30
0.0
  0
LWPOLYLINE
  5
205
100
AcDbEntity
  8
0
 62
7
100
AcDbPolyline
 90
2
 70
0
 10
97.772220
 20
-53.991073
 30
0.0
 10
110.771940
 20
-53.991073
 30
0.0
  0
LWPOLYLINE
  5
206
100
AcDbEntity
  8
0
 62
7
100
AcDbPolyline
 90
2
 70
0
 10
164.447220
 20
-34.941073
 30
0.0
 10
177.446940
 20
-34.941073
 30
0.0
  0
SPLINE
  5
207
100
AcDbEntity
  8
0
 62
7
100
AcDbSpline
 70
8
 71
3
 72
8
 73
4
 74
0
 40
0
 40
0
 40
0
 40
0
 40
1
 40
1
 40
1
 40
1
 10
145.398236
 20
-20.942727
 30
0.0
 10
145.265606
 20
-20.942693
 30
0.0
 10
145.138397
 20
-20.995356
 30
0.0
 10
145.044601
 20
-21.089128
 30
0.0
  0
SPLINE
  5
208
100
AcDbEntity
  8
0
 62
7
100
AcDbSpline
 70
8
 71
3
 72
8
 73
4
 74
0
 40
0
 40
0
 40
0
 40
0
 40
1
 40
1
 40
1
 40
1
 10
145.044601
 20
-21.089128
 30
0.0
 10
144.950806
 20
-21.182900
 30
0.0
 10
144.898110
 20
-21.310096
 30
0.0
 10
144.898110
 20
-21.442726
 30
0.0
  0
SPLINE
  5
209
100
AcDbEntity
  8
0
 62
7
100
AcDbSpline
 70
8
 71
3
 72
8
 73
4
 74
0
 40
0
 40
0
 40
0
 40
0
 40
1
 40
1
 40
1
 40
1
 10
226.360736
 20
-20.942727
 30
0.0
 10
226.228106
 20
-20.942693
 30
0.0
 10
226.100897
 20
-20.995356
 30
0.0
 10
226.007101
 20
-21.089128
 30
0.0
  0
SPLINE
  5
20a
100
AcDbEntity
  8
0
 62
7
100
AcDbSpline
 70
8
 71
3
 72
8
 73
4
 74
0
 40
0
 40
0
 40
0
 40
0
 40
1
 40
1
 40
1
 40
1
 10
226.007101
 20
-21.089128
 30
0.0
 10
225.913306
 20
-21.182900
 30
0.0
 10
225.860610
 20
-21.310096
 30
0.0
 10
225.860610
 20
-21.442726
 30
0.0
  0
SPLINE
  5
20b
100
AcDbEntity
  8
0
 62
7
100
AcDbSpline
 70
8
 71
3
 72
8
 73
4
 74
0
 40
0
 40
0
 40
0
 40
0
 40
1
 40
1
 40
1
 40
1
 10
106.798110
 20
-34.442725
 30
0.0
 10
106.798144
 20
-34.575333
 30
0.0
 10
106.850854
 20
-34.702496
 30
0.0
 10
106.944646
 20
-34.796241
 30
0.0
  0
SPLINE
  5
20c
100
AcDbEntity
  8
0
 62
7
100
AcDbSpline
 70
8
 71
3
 72
8
 73
4
 74
0
 40
0
 40
0
 40
0
 40
0
 40
1
 40
1
 40
1
 40
1
 10
106.944646
 20
-34.796241
 30
0.0
 10
107.038438
 20
-34.889985
 30
0.0
 10
107.165628
 20
-34.942631
 30
0.0
 10
107.298236
 20
-34.942597
 30
0.0
  0
LWPOLYLINE
  5
20d
100
AcDbEntity
  8
0
 62
7
100
AcDbPolyline
 90
2
 70
0
 10
107.297220
 20
-34.941073
 30
0.0
 10
120.296940
 20
-34.941073
 30
0.0
  0
LWPOLYLINE
  5
20e
100
AcDbEntity
  8
0
 62
7
100
AcDbPolyline
 90
2
 70
0
 10
164.447220
 20
-20.940593
 30
0.0
 10
177.446940
 20
-20.940593
 30
0.0
  0
LWPOLYLINE
  5
20f
100
AcDbEntity
  8
0
 62
7
100
AcDbPolyline
 90
2
 70
0
 10
107.297220
 20
-20.940593
 30
0.0
 10
120.296940
 20
-20.940593
 30
0.0
  0
LWPOLYLINE
  5
210
100
AcDbEntity
  8
0
 62
7
100
AcDbPolyline
 90
2
 70
0
 10
144.896840
 20
-21.440973
 30
0.0
 10
144.896840
 20
-34.440693
 30
0.0
  0
LWPOLYLINE
  5
211
100
AcDbEntity
  8
0
 62
7
100
AcDbPolyline
 90
2
 70
0
 10
125.846840
 20
-21.440973
 30
0.0
 10
125.846840
 20
-34.440693
 30
0.0
  0
LWPOLYLINE
  5
212
100
AcDbEntity
  8
0
 62
7
100
AcDbPolyline
 90
2
 70
0
 10
226.359720
 20
-20.940593
 30
0.0
 10
239.359440
 20
-20.940593
 30
0.0
  0
LWPOLYLINE
  5
213
100
AcDbEntity
  8
0
 62
7
100
AcDbPolyline
 90
2
 70
0
 10
202.547220
 20
-34.941073
 30
0.0
 10
215.546940
 20
-34.941073
 30
0.0
  0
LWPOLYLINE
  5
214
100
AcDbEntity
  8
0
 62
7
100
AcDbPolyline
 90
2
 70
0
 10
120.797320
 20
-21.440973
 30
0.0
 10
120.797320
 20
-34.440693
 30
0.0
  0
SPLINE
  5
215
100
AcDbEntity
  8
0
 62
7
100
AcDbSpline
 70
8
 71
3
 72
8
 73
4
 74
0
 40
0
 40
0
 40
0
 40
0
 40
1
 40
1
 40
1
 40
1
 10
126.348236
 20
-20.942727
 30
0.0
 10
126.215606
 20
-20.942693
 30
0.0
 10
126.088397
 20
-20.995356
 30
0.0
 10
125.994601
 20
-21.089128
 30
0.0
  0
SPLINE
  5
216
100
AcDbEntity
  8
0
 62
7
100
AcDbSpline
 70
8
 71
3
 72
8
 73
4
 74
0
 40
0
 40
0
 40
0
 40
0
 40
1
 40
1
 40
1
 40
1
 10
125.994601
 20
-21.089128
 30
0.0
 10
125.900806
 20
-21.182900
 30
0.0
 10
125.848110
 20
-21.310096
 30
0.0
 10
125.848110
 20
-21.442726
 30
0.0
  0
SPLINE
  5
217
100
AcDbEntity
  8
0
 62
7
100
AcDbSpline
 70
8
 71
3
 72
8
 73
4
 74
0
 40
0
 40
0
 40
0
 40
0
 40
1
 40
1
 40
1
 40
1
 10
202.048110
 20
-34.442725
 30
0.0
 10
202.048144
 20
-34.575333
 30
0.0
 10
202.100854
 20
-34.702496
 30
0.0
 10
202.194646
 20
-34.796241
 30
0.0
  0
SPLINE
  5
218
100
AcDbEntity
  8
0
 62
7
100
AcDbSpline
 70
8
 71
3
 72
8
 73
4
 74
0
 40
0
 40
0
 40
0
 40
0
 40
1
 40
1
 40
1
 40
1
 10
202.194646
 20
-34.796241
 30
0.0
 10
202.288438
 20
-34.889985
 30
0.0
 10
202.415628
 20
-34.942631
 30
0.0
 10
202.548236
 20
-34.942597
 30
0.0
  0
SPLINE
  5
219
100
AcDbEntity
  8
0
 62
7
100
AcDbSpline
 70
8
 71
3
 72
8
 73
4
 74
0
 40
0
 40
0
 40
0
 40
0
 40
1
 40
1
 40
1
 40
1
 10
163.948110
 20
-34.442725
 30
0.0
 10
163.948144
 20
-34.575333
 30
0.0
 10
164.000854
 20
-34.702496
 30
0.0
 10
164.094646
 20
-34.796241
 30
0.0
  0
SPLINE
  5
21a
100
AcDbEntity
  8
0
 62
7
100
AcDbSpline
 70
8
 71
3
 72
8
 73
4
 74
0
 40
0
 40
0
 40
0
 40
0
 40
1
 40
1
 40
1
 40
1
 10
164.094646
 20
-34.796241
 30
0.0
 10
164.188438
 20
-34.889985
 30
0.0
 10
164.315628
 20
-34.942631
 30
0.0
 10
164.448236
 20
-34.942597
 30
0.0
  0
SPLINE
  5
21b
100
AcDbEntity
  8
0
 62
7
100
AcDbSpline
 70
8
 71
3
 72
8
 73
4
 74
0
 40
0
 40
0
 40
0
 40
0
 40
1
 40
1
 40
1
 40
1
 10
164.448236
 20
-20.942727
 30
0.0
 10
164.315606
 20
-20.942693
 30
0.0
 10
164.188397
 20
-20.995356
 30
0.0
 10
164.094601
 20
-21.089128
 30
0.0
  0
SPLINE
  5
21c
100
AcDbEntity
  8
0
 62
7
100
AcDbSpline
 70
8
 71
3
 72
8
 73
4
 74
0
 40
0
 40
0
 40
0
 40
0
 40
1
 40
1
 40
1
 40
1
 10
164.094601
 20
-21.089128
 30
0.0
 10
164.000806
 20
-21.182900
 30
0.0
 10
163.948110
 20
-21.310096
 30
0.0
 10
163.948110
 20
-21.442726
 30
0.0
  0
LWPOLYLINE
  5
21d
100
AcDbEntity
  8
0
 62
7
100
AcDbPolyline
 90
2
 70
0
 10
196.997320
 20
-21.440973
 30
0.0
 10
196.997320
 20
-34.440693
 30
0.0
  0
SPLINE
  5
21e
100
AcDbEntity
  8
0
 62
7
100
AcDbSpline
 70
8
 71
3
 72
8
 73
4
 74
0
 40
0
 40
0
 40
0
 40
0
 40
1
 40
1
 40
1
 40
1
 10
158.398210
 20
-34.942597
 30
0.0
 10
158.674253
 20
-34.942527
 30
0.0
 10
158.898012
 20
-34.718768
 30
0.0
 10
158.898082
 20
-34.442725
 30
0.0
  0
LWPOLYLINE
  5
21f
100
AcDbEntity
  8
0
 62
7
100
AcDbPolyline
 90
2
 70
0
 10
177.947320
 20
-21.440973
 30
0.0
 10
177.947320
 20
-34.440693
 30
0.0
  0
SPLINE
  5
220
100
AcDbEntity
  8
0
 62
7
100
AcDbSpline
 70
8
 71
3
 72
8
 73
4
 74
0
 40
0
 40
0
 40
0
 40
0
 40
1
 40
1
 40
1
 40
1
 10
139.348210
 20
-34.942597
 30
0.0
 10
139.624253
 20
-34.942527
 30
0.0
 10
139.848012
 20
-34.718768
 30
0.0
 10
139.848082
 20
-34.442725
 30
0.0
  0
SPLINE
  5
221
100
AcDbEntity
  8
0
 62
7
100
AcDbSpline
 70
8
 71
3
 72
8
 73
4
 74
0
 40
0
 40
0
 40
0
 40
0
 40
1
 40
1
 40
1
 40
1
 10
202.548236
 20
-20.942727
 30
0.0
 10
202.415606
 20
-20.942693
 30
0.0
 10
202.288397
 20
-20.995356
 30
0.0
 10
202.194601
 20
-21.089128
 30
0.0
  0
SPLINE
  5
222
100
AcDbEntity
  8
0
 62
7
100
AcDbSpline
 70
8
 71
3
 72
8
 73
4
 74
0
 40
0
 40
0
 40
0
 40
0
 40
1
 40
1
 40
1
 40
1
 10
202.194601
 20
-21.089128
 30
0.0
 10
202.100806
 20
-21.182900
 30
0.0
 10
202.048110
 20
-21.310096
 30
0.0
 10
202.048110
 20
-21.442726
 30
0.0
  0
LWPOLYLINE
  5
223
100
AcDbEntity
  8
0
 62
7
100
AcDbPolyline
 90
2
 70
0
 10
101.747320
 20
-21.440973
 30
0.0
 10
101.747320
 20
-34.440693
 30
0.0
  0
SPLINE
  5
224
100
AcDbEntity
  8
0
 62
7
100
AcDbSpline
 70
8
 71
3
 72
8
 73
4
 74
0
 40
0
 40
0
 40
0
 40
0
 40
1
 40
1
 40
1
 40
1
 10
101.748082
 20
-21.442726
 30
0.0
 10
101.748082
 20
-21.166633
 30
0.0
 10
101.524302
 20
-20.942797
 30
0.0
 10
101.248210
 20
-20.942727
 30
0.0
  0
SPLINE
  5
225
100
AcDbEntity
  8
0
 62
7
100
AcDbSpline
 70
8
 71
3
 72
8
 73
4
 74
0
 40
0
 40
0
 40
0
 40
0
 40
1
 40
1
 40
1
 40
1
 10
88.248236
 20
-20.942727
 30
0.0
 10
88.115606
 20
-20.942693
 30
0.0
 10
87.988397
 20
-20.995356
 30
0.0
 10
87.894601
 20
-21.089128
 30
0.0
  0
SPLINE
  5
226
100
AcDbEntity
  8
0
 62
7
100
AcDbSpline
 70
8
 71
3
 72
8
 73
4
 74
0
 40
0
 40
0
 40
0
 40
0
 40
1
 40
1
 40
1
 40
1
 10
87.894601
 20
-21.089128
 30
0.0
 10
87.800806
 20
-21.182900
 30
0.0
 10
87.748110
 20
-21.310096
 30
0.0
 10
87.748110
 20
-21.442726
 30
0.0
  0
SPLINE
  5
227
100
AcDbEntity
  8
0
 62
7
100
AcDbSpline
 70
8
 71
3
 72
8
 73
4
 74
0
 40
0
 40
0
 40
0
 40
0
 40
1
 40
1
 40
1
 40
1
 10
177.448210
 20
-34.942597
 30
0.0
 10
177.724253
 20
-34.942527
 30
0.0
 10
177.948012
 20
-34.718768
 30
0.0
 10
177.948082
 20
-34.442725
 30
0.0
  0
LWPOLYLINE
  5
228
100
AcDbEntity
  8
0
 62
7
100
AcDbPolyline
 90
2
 70
0
 10
216.047320
 20
-21.440973
 30
0.0
 10
216.047320
 20
-34.440693
 30
0.0
  0
SPLINE
  5
229
100
AcDbEntity
  8
0
 62
7
100
AcDbSpline
 70
8
 71
3
 72
8
 73
4
 74
0
 40
0
 40
0
 40
0
 40
0
 40
1
 40
1
 40
1
 40
1
 10
144.898110
 20
-34.442725
 30
0.0
 10
144.898144
 20
-34.575333
 30
0.0
 10
144.950854
 20
-34.702496
 30
0.0
 10
145.044646
 20
-34.796241
 30
0.0
  0
SPLINE
  5
22a
100
AcDbEntity
  8
0
 62
7
100
AcDbSpline
 70
8
 71
3
 72
8
 73
4
 74
0
 40
0
 40
0
 40
0
 40
0
 40
1
 40
1
 40
1
 40
1
 10
145.044646
 20
-34.796241
 30
0.0
 10
145.138438
 20
-34.889985
 30
0.0
 10
145.265628
 20
-34.942631
 30
0.0
 10
145.398236
 20
-34.942597
 30
0.0
  0
LWPOLYLINE
  5
22b
100
AcDbEntity
  8
0
 62
7
100
AcDbPolyline
 90
2
 70
0
 10
126.347220
 20
-20.940593
 30
0.0
 10
139.346940
 20
-20.940593
 30
0.0
  0
SPLINE
  5
22c
100
AcDbEntity
  8
0
 62
7
100
AcDbSpline
 70
8
 71
3
 72
8
 73
4
 74
0
 40
0
 40
0
 40
0
 40
0
 40
1
 40
1
 40
1
 40
1
 10
87.748110
 20
-34.442725
 30
0.0
 10
87.748144
 20
-34.575333
 30
0.0
 10
87.800854
 20
-34.702496
 30
0.0
 10
87.894646
 20
-34.796241
 30
0.0
  0
SPLINE
  5
22d
100
AcDbEntity
  8
0
 62
7
100
AcDbSpline
 70
8
 71
3
 72
8
 73
4
 74
0
 40
0
 40
0
 40
0
 40
0
 40
1
 40
1
 40
1
 40
1
 10
87.894646
 20
-34.796241
 30
0.0
 10
87.988438
 20
-34.889985
 30
0.0
 10
88.115628
 20
-34.942631
 30
0.0
 10
88.248236
 20
-34.942597
 30
0.0
  0
LWPOLYLINE
  5
22e
100
AcDbEntity
  8
0
 62
7
100
AcDbPolyline
 90
2
 70
0
 10
139.847320
 20
-21.440973
 30
0.0
 10
139.847320
 20
-34.440693
 30
0.0
  0
SPLINE
  5
22f
100
AcDbEntity
  8
0
 62
7
100
AcDbSpline
 70
8
 71
3
 72
8
 73
4
 74
0
 40
0
 40
0
 40
0
 40
0
 40
1
 40
1
 40
1
 40
1
 10
239.860582
 20
-21.442726
 30
0.0
 10
239.860582
 20
-21.166633
 30
0.0
 10
239.636802
 20
-20.942797
 30
0.0
 10
239.360710
 20
-20.942727
 30
0.0
  0
LWPOLYLINE
  5
230
100
AcDbEntity
  8
0
 62
7
100
AcDbPolyline
 90
2
 70
0
 10
87.746840
 20
-21.440973
 30
0.0
 10
87.746840
 20
-34.440693
 30
0.0
  0
LWPOLYLINE
  5
231
100
AcDbEntity
  8
0
 62
7
100
AcDbPolyline
 90
2
 70
0
 10
226.359720
 20
-34.941073
 30
0.0
 10
239.359440
 20
-34.941073
 30
0.0
  0
SPLINE
  5
232
100
AcDbEntity
  8
0
 62
7
100
AcDbSpline
 70
8
 71
3
 72
8
 73
4
 74
0
 40
0
 40
0
 40
0
 40
0
 40
1
 40
1
 40
1
 40
1
 10
182.998110
 20
-34.442725
 30
0.0
 10
182.998144
 20
-34.575333
 30
0.0
 10
183.050854
 20
-34.702496
 30
0.0
 10
183.144646
 20
-34.796241
 30
0.0
  0
SPLINE
  5
233
100
AcDbEntity
  8
0
 62
7
100
AcDbSpline
 70
8
 71
3
 72
8
 73
4
 74
0
 40
0
 40
0
 40
0
 40
0
 40
1
 40
1
 40
1
 40
1
 10
183.144646
 20
-34.796241
 30
0.0
 10
183.238438
 20
-34.889985
 30
0.0
 10
183.365628
 20
-34.942631
 30
0.0
 10
183.498236
 20
-34.942597
 30
0.0
  0
SPLINE
  5
234
100
AcDbEntity
  8
0
 62
7
100
AcDbSpline
 70
8
 71
3
 72
8
 73
4
 74
0
 40
0
 40
0
 40
0
 40
0
 40
1
 40
1
 40
1
 40
1
 10
139.848082
 20
-21.442726
 30
0.0
 10
139.848082
 20
-21.166633
 30
0.0
 10
139.624302
 20
-20.942797
 30
0.0
 10
139.348210
 20
-20.942727
 30
0.0
  0
LWPOLYLINE
  5
235
100
AcDbEntity
  8
0
 62
7
100
AcDbPolyline
 90
2
 70
0
 10
14.427200
 20
-53.991073
 30
0.0
 10
27.426920
 20
-53.991073
 30
0.0
  0
SPLINE
  5
236
100
AcDbEntity
  8
0
 62
7
100
AcDbSpline
 70
8
 71
3
 72
8
 73
4
 74
0
 40
0
 40
0
 40
0
 40
0
 40
1
 40
1
 40
1
 40
1
 10
125.848110
 20
-34.442725
 30
0.0
 10
125.848144
 20
-34.575333
 30
0.0
 10
125.900854
 20
-34.702496
 30
0.0
 10
125.994646
 20
-34.796241
 30
0.0
  0
SPLINE
  5
237
100
AcDbEntity
  8
0
 62
7
100
AcDbSpline
 70
8
 71
3
 72
8
 73
4
 74
0
 40
0
 40
0
 40
0
 40
0
 40
1
 40
1
 40
1
 40
1
 10
125.994646
 20
-34.796241
 30
0.0
 10
126.088438
 20
-34.889985
 30
0.0
 10
126.215628
 20
-34.942631
 30
0.0
 10
126.348236
 20
-34.942597
 30
0.0
  0
LWPOLYLINE
  5
238
100
AcDbEntity
  8
0
 62
7
100
AcDbPolyline
 90
2
 70
0
 10
14.427200
 20
-39.990593
 30
0.0
 10
27.426920
 20
-39.990593
 30
0.0
  0
LWPOLYLINE
  5
239
100
AcDbEntity
  8
0
 62
7
100
AcDbPolyline
 90
2
 70
0
 10
225.859340
 20
-21.440973
 30
0.0
 10
225.859340
 20
-34.440693
 30
0.0
  0
SPLINE
  5
23a
100
AcDbEntity
  8
0
 62
7
100
AcDbSpline
 70
8
 71
3
 72
8
 73
4
 74
0
 40
0
 40
0
 40
0
 40
0
 40
1
 40
1
 40
1
 40
1
 10
215.548210
 20
-34.942597
 30
0.0
 10
215.824253
 20
-34.942527
 30
0.0
 10
216.048012
 20
-34.718768
 30
0.0
 10
216.048082
 20
-34.442725
 30
0.0
  0
LWPOLYLINE
  5
23b
100
AcDbEntity
  8
0
 62
7
100
AcDbPolyline
 90
2
 70
0
 10
202.547220
 20
-20.940593
 30
0.0
 10
215.546940
 20
-20.940593
 30
0.0
  0
SPLINE
  5
23c
100
AcDbEntity
  8
0
 62
7
100
AcDbSpline
 70
8
 71
3
 72
8
 73
4
 74
0
 40
0
 40
0
 40
0
 40
0
 40
1
 40
1
 40
1
 40
1
 10
107.298236
 20
-20.942727
 30
0.0
 10
107.165606
 20
-20.942693
 30
0.0
 10
107.038397
 20
-20.995356
 30
0.0
 10
106.944601
 20
-21.089128
 30
0.0
  0
SPLINE
  5
23d
100
AcDbEntity
  8
0
 62
7
100
AcDbSpline
 70
8
 71
3
 72
8
 73
4
 74
0
 40
0
 40
0
 40
0
 40
0
 40
1
 40
1
 40
1
 40
1
 10
106.944601
 20
-21.089128
 30
0.0
 10
106.850806
 20
-21.182900
 30
0.0
 10
106.798110
 20
-21.310096
 30
0.0
 10
106.798110
 20
-21.442726
 30
0.0
  0
SPLINE
  5
23e
100
AcDbEntity
  8
0
 62
7
100
AcDbSpline
 70
8
 71
3
 72
8
 73
4
 74
0
 40
0
 40
0
 40
0
 40
0
 40
1
 40
1
 40
1
 40
1
 10
120.298210
 20
-34.942597
 30
0.0
 10
120.574253
 20
-34.942527
 30
0.0
 10
120.798012
 20
-34.718768
 30
0.0
 10
120.798082
 20
-34.442725
 30
0.0
  0
SPLINE
  5
23f
100
AcDbEntity
  8
0
 62
7
100
AcDbSpline
 70
8
 71
3
 72
8
 73
4
 74
0
 40
0
 40
0
 40
0
 40
0
 40
1
 40
1
 40
1
 40
1
 10
239.360710
 20
-34.942597
 30
0.0
 10
239.636753
 20
-34.942527
 30
0.0
 10
239.860512
 20
-34.718768
 30
0.0
 10
239.860582
 20
-34.442725
 30
0.0
  0
SPLINE
  5
240
100
AcDbEntity
  8
0
 62
7
100
AcDbSpline
 70
8
 71
3
 72
8
 73
4
 74
0
 40
0
 40
0
 40
0
 40
0
 40
1
 40
1
 40
1
 40
1
 10
225.860610
 20
-34.442725
 30
0.0
 10
225.860644
 20
-34.575333
 30
0.0
 10
225.913354
 20
-34.702496
 30
0.0
 10
226.007146
 20
-34.796241
 30
0.0
  0
SPLINE
  5
241
100
AcDbEntity
  8
0
 62
7
100
AcDbSpline
 70
8
 71
3
 72
8
 73
4
 74
0
 40
0
 40
0
 40
0
 40
0
 40
1
 40
1
 40
1
 40
1
 10
226.007146
 20
-34.796241
 30
0.0
 10
226.100938
 20
-34.889985
 30
0.0
 10
226.228128
 20
-34.942631
 30
0.0
 10
226.360736
 20
-34.942597
 30
0.0
  0
LWPOLYLINE
  5
242
100
AcDbEntity
  8
0
 62
7
100
AcDbPolyline
 90
2
 70
0
 10
183.497220
 20
-34.941073
 30
0.0
 10
196.496940
 20
-34.941073
 30
0.0
  0
SPLINE
  5
243
100
AcDbEntity
  8
0
 62
7
100
AcDbSpline
 70
8
 71
3
 72
8
 73
4
 74
0
 40
0
 40
0
 40
0
 40
0
 40
1
 40
1
 40
1
 40
1
 10
216.048082
 20
-21.442726
 30
0.0
 10
216.048082
 20
-21.166633
 30
0.0
 10
215.824302
 20
-20.942797
 30
0.0
 10
215.548210
 20
-20.942727
 30
0.0
  0
LWPOLYLINE
  5
244
100
AcDbEntity
  8
0
 62
7
100
AcDbPolyline
 90
2
 70
0
 10
239.859820
 20
-21.440973
 30
0.0
 10
239.859820
 20
-34.440693
 30
0.0
  0
LWPOLYLINE
  5
245
100
AcDbEntity
  8
0
 62
7
100
AcDbPolyline
 90
2
 70
0
 10
202.046840
 20
-21.440973
 30
0.0
 10
202.046840
 20
-34.440693
 30
0.0
  0
SPLINE
  5
246
100
AcDbEntity
  8
0
 62
7
100
AcDbSpline
 70
8
 71
3
 72
8
 73
4
 74
0
 40
0
 40
0
 40
0
 40
0
 40
1
 40
1
 40
1
 40
1
 10
196.498210
 20
-34.942597
 30
0.0
 10
196.774253
 20
-34.942527
 30
0.0
 10
196.998012
 20
-34.718768
 30
0.0
 10
196.998082
 20
-34.442725
 30
0.0
  0
SPLINE
  5
247
100
AcDbEntity
  8
0
 62
7
100
AcDbSpline
 70
8
 71
3
 72
8
 73
4
 74
0
 40
0
 40
0
 40
0
 40
0
 40
1
 40
1
 40
1
 40
1
 10
158.898082
 20
-21.442726
 30
0.0
 10
158.898082
 20
-21.166633
 30
0.0
 10
158.674302
 20
-20.942797
 30
0.0
 10
158.398210
 20
-20.942727
 30
0.0
  0
LWPOLYLINE
  5
248
100
AcDbEntity
  8
0
 62
7
100
AcDbPolyline
 90
2
 70
0
 10
183.497220
 20
-20.940593
 30
0.0
 10
196.496940
 20
-20.940593
 30
0.0
  0
LWPOLYLINE
  5
249
100
AcDbEntity
  8
0
 62
7
100
AcDbPolyline
 90
2
 70
0
 10
163.946840
 20
-21.440973
 30
0.0
 10
163.946840
 20
-34.440693
 30
0.0
  0
SPLINE
  5
24a
100
AcDbEntity
  8
0
 62
7
100
AcDbSpline
 70
8
 71
3
 72
8
 73
4
 74
0
 40
0
 40
0
 40
0
 40
0
 40
1
 40
1
 40
1
 40
1
 10
177.948082
 20
-21.442726
 30
0.0
 10
177.948082
 20
-21.166633
 30
0.0
 10
177.724302
 20
-20.942797
 30
0.0
 10
177.448210
 20
-20.942727
 30
0.0
  0
LWPOLYLINE
  5
24b
100
AcDbEntity
  8
0
 62
7
100
AcDbPolyline
 90
2
 70
0
 10
182.996840
 20
-21.440973
 30
0.0
 10
182.996840
 20
-34.440693
 30
0.0
  0
LWPOLYLINE
  5
24c
100
AcDbEntity
  8
0
 62
7
100
AcDbPolyline
 90
2
 70
0
 10
145.397220
 20
-34.941073
 30
0.0
 10
158.396940
 20
-34.941073
 30
0.0
  0
SPLINE
  5
24d
100
AcDbEntity
  8
0
 62
7
100
AcDbSpline
 70
8
 71
3
 72
8
 73
4
 74
0
 40
0
 40
0
 40
0
 40
0
 40
1
 40
1
 40
1
 40
1
 10
183.498236
 20
-20.942727
 30
0.0
 10
183.365606
 20
-20.942693
 30
0.0
 10
183.238397
 20
-20.995356
 30
0.0
 10
183.144601
 20
-21.089128
 30
0.0
  0
SPLINE
  5
24e
100
AcDbEntity
  8
0
 62
7
100
AcDbSpline
 70
8
 71
3
 72
8
 73
4
 74
0
 40
0
 40
0
 40
0
 40
0
 40
1
 40
1
 40
1
 40
1
 10
183.144601
 20
-21.089128
 30
0.0
 10
183.050806
 20
-21.182900
 30
0.0
 10
182.998110
 20
-21.310096
 30
0.0
 10
182.998110
 20
-21.442726
 30
0.0
  0
LWPOLYLINE
  5
24f
100
AcDbEntity
  8
0
 62
7
100
AcDbPolyline
 90
2
 70
0
 10
106.796840
 20
-21.440973
 30
0.0
 10
106.796840
 20
-34.440693
 30
0.0
  0
SPLINE
  5
250
100
AcDbEntity
  8
0
 62
7
100
AcDbSpline
 70
8
 71
3
 72
8
 73
4
 74
0
 40
0
 40
0
 40
0
 40
0
 40
1
 40
1
 40
1
 40
1
 10
101.248210
 20
-34.942597
 30
0.0
 10
101.524253
 20
-34.942527
 30
0.0
 10
101.748012
 20
-34.718768
 30
0.0
 10
101.748082
 20
-34.442725
 30
0.0
  0
LWPOLYLINE
  5
251
100
AcDbEntity
  8
0
 62
7
100
AcDbPolyline
 90
2
 70
0
 10
158.897320
 20
-21.440973
 30
0.0
 10
158.897320
 20
-34.440693
 30
0.0
  0
LWPOLYLINE
  5
252
100
AcDbEntity
  8
0
 62
7
100
AcDbPolyline
 90
2
 70
0
 10
145.397220
 20
-20.940593
 30
0.0
 10
158.396940
 20
-20.940593
 30
0.0
  0
LWPOLYLINE
  5
253
100
AcDbEntity
  8
0
 62
7
100
AcDbPolyline
 90
2
 70
0
 10
126.347220
 20
-34.941073
 30
0.0
 10
139.346940
 20
-34.941073
 30
0.0
  0
SPLINE
  5
254
100
AcDbEntity
  8
0
 62
7
100
AcDbSpline
 70
8
 71
3
 72
8
 73
4
 74
0
 40
0
 40
0
 40
0
 40
0
 40
1
 40
1
 40
1
 40
1
 10
82.198210
 20
-34.942597
 30
0.0
 10
82.474253
 20
-34.942527
 30
0.0
 10
82.698012
 20
-34.718768
 30
0.0
 10
82.698082
 20
-34.442725
 30
0.0
  0
LWPOLYLINE
  5
255
100
AcDbEntity
  8
0
 62
7
100
AcDbPolyline
 90
2
 70
0
 10
88.247220
 20
-20.940593
 30
0.0
 10
101.246940
 20
-20.940593
 30
0.0
  0
LWPOLYLINE
  5
256
100
AcDbEntity
  8
0
 62
7
100
AcDbPolyline
 90
2
 70
0
 10
216.334340
 20
-2.390973
 30
0.0
 10
216.334340
 20
-15.390693
 30
0.0
  0
SPLINE
  5
257
100
AcDbEntity
  8
0
 62
7
100
AcDbSpline
 70
8
 71
3
 72
8
 73
4
 74
0
 40
0
 40
0
 40
0
 40
0
 40
1
 40
1
 40
1
 40
1
 10
9.166911
 20
-34.442725
 30
0.0
 10
9.166981
 20
-34.718817
 30
0.0
 10
9.390818
 20
-34.942597
 30
0.0
 10
9.666910
 20
-34.942597
 30
0.0
  0
SPLINE
  5
258
100
AcDbEntity
  8
0
 62
7
100
AcDbSpline
 70
8
 71
3
 72
8
 73
4
 74
0
 40
0
 40
0
 40
0
 40
0
 40
1
 40
1
 40
1
 40
1
 10
9.666910
 20
-20.942727
 30
0.0
 10
9.534302
 20
-20.942727
 30
0.0
 10
9.407125
 20
-20.995405
 30
0.0
 10
9.313357
 20
-21.089173
 30
0.0
  0
SPLINE
  5
259
100
AcDbEntity
  8
0
 62
7
100
AcDbSpline
 70
8
 71
3
 72
8
 73
4
 74
0
 40
0
 40
0
 40
0
 40
0
 40
1
 40
1
 40
1
 40
1
 10
9.313357
 20
-21.089173
 30
0.0
 10
9.219589
 20
-21.182941
 30
0.0
 10
9.166911
 20
-21.310118
 30
0.0
 10
9.166911
 20
-21.442726
 30
0.0
  0
SPLINE
  5
25a
100
AcDbEntity
  8
0
 62
7
100
AcDbSpline
 70
8
 71
3
 72
8
 73
4
 74
0
 40
0
 40
0
 40
0
 40
0
 40
1
 40
1
 40
1
 40
1
 10
197.785736
 20
-1.892727
 30
0.0
 10
197.653106
 20
-1.892693
 30
0.0
 10
197.525897
 20
-1.945356
 30
0.0
 10
197.432101
 20
-2.039128
 30
0.0
  0
SPLINE
  5
25b
100
AcDbEntity
  8
0
 62
7
100
AcDbSpline
 70
8
 71
3
 72
8
 73
4
 74
0
 40
0
 40
0
 40
0
 40
0
 40
1
 40
1
 40
1
 40
1
 10
197.432101
 20
-2.039128
 30
0.0
 10
197.338306
 20
-2.132900
 30
0.0
 10
197.285610
 20
-2.260096
 30
0.0
 10
197.285610
 20
-2.392726
 30
0.0
  0
SPLINE
  5
25c
100
AcDbEntity
  8
0
 62
7
100
AcDbSpline
 70
8
 71
3
 72
8
 73
4
 74
0
 40
0
 40
0
 40
0
 40
0
 40
1
 40
1
 40
1
 40
1
 10
69.198236
 20
-20.942727
 30
0.0
 10
69.065606
 20
-20.942693
 30
0.0
 10
68.938397
 20
-20.995356
 30
0.0
 10
68.844601
 20
-21.089128
 30
0.0
  0
SPLINE
  5
25d
100
AcDbEntity
  8
0
 62
7
100
AcDbSpline
 70
8
 71
3
 72
8
 73
4
 74
0
 40
0
 40
0
 40
0
 40
0
 40
1
 40
1
 40
1
 40
1
 10
68.844601
 20
-21.089128
 30
0.0
 10
68.750806
 20
-21.182900
 30
0.0
 10
68.698110
 20
-21.310096
 30
0.0
 10
68.698110
 20
-21.442726
 30
0.0
  0
LWPOLYLINE
  5
25e
100
AcDbEntity
  8
0
 62
7
100
AcDbPolyline
 90
2
 70
0
 10
44.597320
 20
-21.440973
 30
0.0
 10
44.597320
 20
-34.440693
 30
0.0
  0
SPLINE
  5
25f
100
AcDbEntity
  8
0
 62
7
100
AcDbSpline
 70
8
 71
3
 72
8
 73
4
 74
0
 40
0
 40
0
 40
0
 40
0
 40
1
 40
1
 40
1
 40
1
 10
63.648082
 20
-21.442726
 30
0.0
 10
63.648082
 20
-21.166633
 30
0.0
 10
63.424302
 20
-20.942797
 30
0.0
 10
63.148210
 20
-20.942727
 30
0.0
  0
SPLINE
  5
260
100
AcDbEntity
  8
0
 62
7
100
AcDbSpline
 70
8
 71
3
 72
8
 73
4
 74
0
 40
0
 40
0
 40
0
 40
0
 40
1
 40
1
 40
1
 40
1
 10
30.598110
 20
-34.442725
 30
0.0
 10
30.598144
 20
-34.575333
 30
0.0
 10
30.650854
 20
-34.702496
 30
0.0
 10
30.744646
 20
-34.796241
 30
0.0
  0
SPLINE
  5
261
100
AcDbEntity
  8
0
 62
7
100
AcDbSpline
 70
8
 71
3
 72
8
 73
4
 74
0
 40
0
 40
0
 40
0
 40
0
 40
1
 40
1
 40
1
 40
1
 10
30.744646
 20
-34.796241
 30
0.0
 10
30.838438
 20
-34.889985
 30
0.0
 10
30.965628
 20
-34.942631
 30
0.0
 10
31.098236
 20
-34.942597
 30
0.0
  0
LWPOLYLINE
  5
262
100
AcDbEntity
  8
0
 62
7
100
AcDbPolyline
 90
2
 70
0
 10
69.197220
 20
-20.940593
 30
0.0
 10
82.196940
 20
-20.940593
 30
0.0
  0
SPLINE
  5
263
100
AcDbEntity
  8
0
 62
7
100
AcDbSpline
 70
8
 71
3
 72
8
 73
4
 74
0
 40
0
 40
0
 40
0
 40
0
 40
1
 40
1
 40
1
 40
1
 10
216.335610
 20
-15.392725
 30
0.0
 10
216.335610
 20
-15.525355
 30
0.0
 10
216.388306
 20
-15.652551
 30
0.0
 10
216.482101
 20
-15.746323
 30
0.0
  0
SPLINE
  5
264
100
AcDbEntity
  8
0
 62
7
100
AcDbSpline
 70
8
 71
3
 72
8
 73
4
 74
0
 40
0
 40
0
 40
0
 40
0
 40
1
 40
1
 40
1
 40
1
 10
216.482101
 20
-15.746323
 30
0.0
 10
216.575897
 20
-15.840094
 30
0.0
 10
216.703106
 20
-15.892758
 30
0.0
 10
216.835736
 20
-15.892724
 30
0.0
  0
LWPOLYLINE
  5
265
100
AcDbEntity
  8
0
 62
7
100
AcDbPolyline
 90
2
 70
0
 10
30.596840
 20
-21.440973
 30
0.0
 10
30.596840
 20
-34.440693
 30
0.0
  0
LWPOLYLINE
  5
266
100
AcDbEntity
  8
0
 62
7
100
AcDbPolyline
 90
2
 70
0
 10
50.147220
 20
-20.940593
 30
0.0
 10
63.146940
 20
-20.940593
 30
0.0
  0
LWPOLYLINE
  5
267
100
AcDbEntity
  8
0
 62
7
100
AcDbPolyline
 90
2
 70
0
 10
9.664700
 20
-34.941073
 30
0.0
 10
22.664420
 20
-34.941073
 30
0.0
  0
LWPOLYLINE
  5
268
100
AcDbEntity
  8
0
 62
7
100
AcDbPolyline
 90
2
 70
0
 10
216.834720
 20
-1.890593
 30
0.0
 10
244.121940
 20
-1.890593
 30
0.0
  0
LWPOLYLINE
  5
269
100
AcDbEntity
  8
0
 62
7
100
AcDbPolyline
 90
2
 70
0
 10
88.247220
 20
-34.941073
 30
0.0
 10
101.246940
 20
-34.941073
 30
0.0
  0
SPLINE
  5
26a
100
AcDbEntity
  8
0
 62
7
100
AcDbSpline
 70
8
 71
3
 72
8
 73
4
 74
0
 40
0
 40
0
 40
0
 40
0
 40
1
 40
1
 40
1
 40
1
 10
68.698110
 20
-34.442725
 30
0.0
 10
68.698144
 20
-34.575333
 30
0.0
 10
68.750854
 20
-34.702496
 30
0.0
 10
68.844646
 20
-34.796241
 30
0.0
  0
SPLINE
  5
26b
100
AcDbEntity
  8
0
 62
7
100
AcDbSpline
 70
8
 71
3
 72
8
 73
4
 74
0
 40
0
 40
0
 40
0
 40
0
 40
1
 40
1
 40
1
 40
1
 10
68.844646
 20
-34.796241
 30
0.0
 10
68.938438
 20
-34.889985
 30
0.0
 10
69.065628
 20
-34.942631
 30
0.0
 10
69.198236
 20
-34.942597
 30
0.0
  0
SPLINE
  5
26c
100
AcDbEntity
  8
0
 62
7
100
AcDbSpline
 70
8
 71
3
 72
8
 73
4
 74
0
 40
0
 40
0
 40
0
 40
0
 40
1
 40
1
 40
1
 40
1
 10
22.666909
 20
-34.942597
 30
0.0
 10
22.943001
 20
-34.942597
 30
0.0
 10
23.166838
 20
-34.718817
 30
0.0
 10
23.166908
 20
-34.442725
 30
0.0
  0
SPLINE
  5
26d
100
AcDbEntity
  8
0
 62
7
100
AcDbSpline
 70
8
 71
3
 72
8
 73
4
 74
0
 40
0
 40
0
 40
0
 40
0
 40
1
 40
1
 40
1
 40
1
 10
82.698082
 20
-21.442726
 30
0.0
 10
82.698082
 20
-21.166633
 30
0.0
 10
82.474302
 20
-20.942797
 30
0.0
 10
82.198210
 20
-20.942727
 30
0.0
  0
LWPOLYLINE
  5
26e
100
AcDbEntity
  8
0
 62
7
100
AcDbPolyline
 90
2
 70
0
 10
68.696840
 20
-21.440973
 30
0.0
 10
68.696840
 20
-34.440693
 30
0.0
  0
LWPOLYLINE
  5
26f
100
AcDbEntity
  8
0
 62
7
100
AcDbPolyline
 90
2
 70
0
 10
69.197220
 20
-34.941073
 30
0.0
 10
82.196940
 20
-34.941073
 30
0.0
  0
SPLINE
  5
270
100
AcDbEntity
  8
0
 62
7
100
AcDbSpline
 70
8
 71
3
 72
8
 73
4
 74
0
 40
0
 40
0
 40
0
 40
0
 40
1
 40
1
 40
1
 40
1
 10
197.285610
 20
-15.392725
 30
0.0
 10
197.285610
 20
-15.525355
 30
0.0
 10
197.338306
 20
-15.652551
 30
0.0
 10
197.432101
 20
-15.746323
 30
0.0
  0
SPLINE
  5
271
100
AcDbEntity
  8
0
 62
7
100
AcDbSpline
 70
8
 71
3
 72
8
 73
4
 74
0
 40
0
 40
0
 40
0
 40
0
 40
1
 40
1
 40
1
 40
1
 10
197.432101
 20
-15.746323
 30
0.0
 10
197.525897
 20
-15.840094
 30
0.0
 10
197.653106
 20
-15.892758
 30
0.0
 10
197.785736
 20
-15.892724
 30
0.0
  0
SPLINE
  5
272
100
AcDbEntity
  8
0
 62
7
100
AcDbSpline
 70
8
 71
3
 72
8
 73
4
 74
0
 40
0
 40
0
 40
0
 40
0
 40
1
 40
1
 40
1
 40
1
 10
244.623082
 20
-2.392726
 30
0.0
 10
244.623082
 20
-2.116633
 30
0.0
 10
244.399302
 20
-1.892797
 30
0.0
 10
244.123210
 20
-1.892727
 30
0.0
  0
LWPOLYLINE
  5
273
100
AcDbEntity
  8
0
 62
7
100
AcDbPolyline
 90
2
 70
0
 10
63.647320
 20
-21.440973
 30
0.0
 10
63.647320
 20
-34.440693
 30
0.0
  0
SPLINE
  5
274
100
AcDbEntity
  8
0
 62
7
100
AcDbSpline
 70
8
 71
3
 72
8
 73
4
 74
0
 40
0
 40
0
 40
0
 40
0
 40
1
 40
1
 40
1
 40
1
 10
63.148210
 20
-34.942597
 30
0.0
 10
63.424253
 20
-34.942527
 30
0.0
 10
63.648012
 20
-34.718768
 30
0.0
 10
63.648082
 20
-34.442725
 30
0.0
  0
LWPOLYLINE
  5
275
100
AcDbEntity
  8
0
 62
7
100
AcDbPolyline
 90
2
 70
0
 10
244.622320
 20
-2.390973
 30
0.0
 10
244.622320
 20
-15.390693
 30
0.0
  0
LWPOLYLINE
  5
276
100
AcDbEntity
  8
0
 62
7
100
AcDbPolyline
 90
2
 70
0
 10
9.166860
 20
-21.440973
 30
0.0
 10
9.166860
 20
-34.440693
 30
0.0
  0
LWPOLYLINE
  5
277
100
AcDbEntity
  8
0
 62
7
100
AcDbPolyline
 90
2
 70
0
 10
31.097220
 20
-34.941073
 30
0.0
 10
44.096940
 20
-34.941073
 30
0.0
  0
LWPOLYLINE
  5
278
100
AcDbEntity
  8
0
 62
7
100
AcDbPolyline
 90
2
 70
0
 10
31.097220
 20
-20.940593
 30
0.0
 10
44.096940
 20
-20.940593
 30
0.0
  0
SPLINE
  5
279
100
AcDbEntity
  8
0
 62
7
100
AcDbSpline
 70
8
 71
3
 72
8
 73
4
 74
0
 40
0
 40
0
 40
0
 40
0
 40
1
 40
1
 40
1
 40
1
 10
44.098210
 20
-34.942597
 30
0.0
 10
44.374253
 20
-34.942527
 30
0.0
 10
44.598012
 20
-34.718768
 30
0.0
 10
44.598082
 20
-34.442725
 30
0.0
  0
SPLINE
  5
27a
100
AcDbEntity
  8
0
 62
7
100
AcDbSpline
 70
8
 71
3
 72
8
 73
4
 74
0
 40
0
 40
0
 40
0
 40
0
 40
1
 40
1
 40
1
 40
1
 10
31.098236
 20
-20.942727
 30
0.0
 10
30.965606
 20
-20.942693
 30
0.0
 10
30.838397
 20
-20.995356
 30
0.0
 10
30.744601
 20
-21.089128
 30
0.0
  0
SPLINE
  5
27b
100
AcDbEntity
  8
0
 62
7
100
AcDbSpline
 70
8
 71
3
 72
8
 73
4
 74
0
 40
0
 40
0
 40
0
 40
0
 40
1
 40
1
 40
1
 40
1
 10
30.744601
 20
-21.089128
 30
0.0
 10
30.650806
 20
-21.182900
 30
0.0
 10
30.598110
 20
-21.310096
 30
0.0
 10
30.598110
 20
-21.442726
 30
0.0
  0
LWPOLYLINE
  5
27c
100
AcDbEntity
  8
0
 62
7
100
AcDbPolyline
 90
2
 70
0
 10
50.147220
 20
-34.941073
 30
0.0
 10
63.146940
 20
-34.941073
 30
0.0
  0
SPLINE
  5
27d
100
AcDbEntity
  8
0
 62
7
100
AcDbSpline
 70
8
 71
3
 72
8
 73
4
 74
0
 40
0
 40
0
 40
0
 40
0
 40
1
 40
1
 40
1
 40
1
 10
244.123210
 20
-15.892724
 30
0.0
 10
244.399302
 20
-15.892654
 30
0.0
 10
244.623082
 20
-15.668817
 30
0.0
 10
244.623082
 20
-15.392725
 30
0.0
  0
SPLINE
  5
27e
100
AcDbEntity
  8
0
 62
7
100
AcDbSpline
 70
8
 71
3
 72
8
 73
4
 74
0
 40
0
 40
0
 40
0
 40
0
 40
1
 40
1
 40
1
 40
1
 10
23.166908
 20
-21.442726
 30
0.0
 10
23.166908
 20
-21.310118
 30
0.0
 10
23.114230
 20
-21.182941
 30
0.0
 10
23.020462
 20
-21.089173
 30
0.0
  0
SPLINE
  5
27f
100
AcDbEntity
  8
0
 62
7
100
AcDbSpline
 70
8
 71
3
 72
8
 73
4
 74
0
 40
0
 40
0
 40
0
 40
0
 40
1
 40
1
 40
1
 40
1
 10
23.020462
 20
-21.089173
 30
0.0
 10
22.926694
 20
-20.995405
 30
0.0
 10
22.799517
 20
-20.942727
 30
0.0
 10
22.666909
 20
-20.942727
 30
0.0
  0
SPLINE
  5
280
100
AcDbEntity
  8
0
 62
7
100
AcDbSpline
 70
8
 71
3
 72
8
 73
4
 74
0
 40
0
 40
0
 40
0
 40
0
 40
1
 40
1
 40
1
 40
1
 10
49.648110
 20
-34.442725
 30
0.0
 10
49.648144
 20
-34.575333
 30
0.0
 10
49.700854
 20
-34.702496
 30
0.0
 10
49.794646
 20
-34.796241
 30
0.0
  0
SPLINE
  5
281
100
AcDbEntity
  8
0
 62
7
100
AcDbSpline
 70
8
 71
3
 72
8
 73
4
 74
0
 40
0
 40
0
 40
0
 40
0
 40
1
 40
1
 40
1
 40
1
 10
49.794646
 20
-34.796241
 30
0.0
 10
49.888438
 20
-34.889985
 30
0.0
 10
50.015628
 20
-34.942631
 30
0.0
 10
50.148236
 20
-34.942597
 30
0.0
  0
SPLINE
  5
282
100
AcDbEntity
  8
0
 62
7
100
AcDbSpline
 70
8
 71
3
 72
8
 73
4
 74
0
 40
0
 40
0
 40
0
 40
0
 40
1
 40
1
 40
1
 40
1
 10
50.148236
 20
-20.942727
 30
0.0
 10
50.015606
 20
-20.942693
 30
0.0
 10
49.888397
 20
-20.995356
 30
0.0
 10
49.794601
 20
-21.089128
 30
0.0
  0
SPLINE
  5
283
100
AcDbEntity
  8
0
 62
7
100
AcDbSpline
 70
8
 71
3
 72
8
 73
4
 74
0
 40
0
 40
0
 40
0
 40
0
 40
1
 40
1
 40
1
 40
1
 10
49.794601
 20
-21.089128
 30
0.0
 10
49.700806
 20
-21.182900
 30
0.0
 10
49.648110
 20
-21.310096
 30
0.0
 10
49.648110
 20
-21.442726
 30
0.0
  0
LWPOLYLINE
  5
284
100
AcDbEntity
  8
0
 62
7
100
AcDbPolyline
 90
2
 70
0
 10
82.697320
 20
-21.440973
 30
0.0
 10
82.697320
 20
-34.440693
 30
0.0
  0
LWPOLYLINE
  5
285
100
AcDbEntity
  8
0
 62
7
100
AcDbPolyline
 90
2
 70
0
 10
9.664700
 20
-20.940593
 30
0.0
 10
22.664420
 20
-20.940593
 30
0.0
  0
SPLINE
  5
286
100
AcDbEntity
  8
0
 62
7
100
AcDbSpline
 70
8
 71
3
 72
8
 73
4
 74
0
 40
0
 40
0
 40
0
 40
0
 40
1
 40
1
 40
1
 40
1
 10
211.285582
 20
-2.392726
 30
0.0
 10
211.285582
 20
-2.116633
 30
0.0
 10
211.061802
 20
-1.892797
 30
0.0
 10
210.785710
 20
-1.892727
 30
0.0
  0
LWPOLYLINE
  5
287
100
AcDbEntity
  8
0
 62
7
100
AcDbPolyline
 90
2
 70
0
 10
197.284340
 20
-2.390973
 30
0.0
 10
197.284340
 20
-15.390693
 30
0.0
  0
SPLINE
  5
288
100
AcDbEntity
  8
0
 62
7
100
AcDbSpline
 70
8
 71
3
 72
8
 73
4
 74
0
 40
0
 40
0
 40
0
 40
0
 40
1
 40
1
 40
1
 40
1
 10
44.598082
 20
-21.442726
 30
0.0
 10
44.598082
 20
-21.166633
 30
0.0
 10
44.374302
 20
-20.942797
 30
0.0
 10
44.098210
 20
-20.942727
 30
0.0
  0
LWPOLYLINE
  5
289
100
AcDbEntity
  8
0
 62
7
100
AcDbPolyline
 90
2
 70
0
 10
49.646840
 20
-21.440973
 30
0.0
 10
49.646840
 20
-34.440693
 30
0.0
  0
SPLINE
  5
28a
100
AcDbEntity
  8
0
 62
7
100
AcDbSpline
 70
8
 71
3
 72
8
 73
4
 74
0
 40
0
 40
0
 40
0
 40
0
 40
1
 40
1
 40
1
 40
1
 10
210.785710
 20
-15.892724
 30
0.0
 10
211.061802
 20
-15.892654
 30
0.0
 10
211.285582
 20
-15.668817
 30
0.0
 10
211.285582
 20
-15.392725
 30
0.0
  0
LWPOLYLINE
  5
28b
100
AcDbEntity
  8
0
 62
7
100
AcDbPolyline
 90
2
 70
0
 10
23.164800
 20
-21.440973
 30
0.0
 10
23.164800
 20
-34.440693
 30
0.0
  0
LWPOLYLINE
  5
28c
100
AcDbEntity
  8
0
 62
7
100
AcDbPolyline
 90
2
 70
0
 10
211.284820
 20
-2.390973
 30
0.0
 10
211.284820
 20
-15.390693
 30
0.0
  0
SPLINE
  5
28d
100
AcDbEntity
  8
0
 62
7
100
AcDbSpline
 70
8
 71
3
 72
8
 73
4
 74
0
 40
0
 40
0
 40
0
 40
0
 40
1
 40
1
 40
1
 40
1
 10
216.835736
 20
-1.892727
 30
0.0
 10
216.703106
 20
-1.892693
 30
0.0
 10
216.575897
 20
-1.945356
 30
0.0
 10
216.482101
 20
-2.039128
 30
0.0
  0
SPLINE
  5
28e
100
AcDbEntity
  8
0
 62
7
100
AcDbSpline
 70
8
 71
3
 72
8
 73
4
 74
0
 40
0
 40
0
 40
0
 40
0
 40
1
 40
1
 40
1
 40
1
 10
216.482101
 20
-2.039128
 30
0.0
 10
216.388306
 20
-2.132900
 30
0.0
 10
216.335610
 20
-2.260096
 30
0.0
 10
216.335610
 20
-2.392726
 30
0.0
  0
SPLINE
  5
28f
100
AcDbEntity
  8
0
 62
7
100
AcDbSpline
 70
8
 71
3
 72
8
 73
4
 74
0
 40
0
 40
0
 40
0
 40
0
 40
1
 40
1
 40
1
 40
1
 10
58.885582
 20
-2.392726
 30
0.0
 10
58.885582
 20
-2.116633
 30
0.0
 10
58.661802
 20
-1.892797
 30
0.0
 10
58.385710
 20
-1.892727
 30
0.0
  0
SPLINE
  5
290
100
AcDbEntity
  8
0
 62
7
100
AcDbSpline
 70
8
 71
3
 72
8
 73
4
 74
0
 40
0
 40
0
 40
0
 40
0
 40
1
 40
1
 40
1
 40
1
 10
102.535736
 20
-1.892727
 30
0.0
 10
102.403106
 20
-1.892693
 30
0.0
 10
102.275897
 20
-1.945356
 30
0.0
 10
102.182101
 20
-2.039128
 30
0.0
  0
SPLINE
  5
291
100
AcDbEntity
  8
0
 62
7
100
AcDbSpline
 70
8
 71
3
 72
8
 73
4
 74
0
 40
0
 40
0
 40
0
 40
0
 40
1
 40
1
 40
1
 40
1
 10
102.182101
 20
-2.039128
 30
0.0
 10
102.088306
 20
-2.132900
 30
0.0
 10
102.035610
 20
-2.260096
 30
0.0
 10
102.035610
 20
-2.392726
 30
0.0
  0
SPLINE
  5
292
100
AcDbEntity
  8
0
 62
7
100
AcDbSpline
 70
8
 71
3
 72
8
 73
4
 74
0
 40
0
 40
0
 40
0
 40
0
 40
1
 40
1
 40
1
 40
1
 10
63.935610
 20
-15.392725
 30
0.0
 10
63.935610
 20
-15.525355
 30
0.0
 10
63.988306
 20
-15.652551
 30
0.0
 10
64.082101
 20
-15.746323
 30
0.0
  0
SPLINE
  5
293
100
AcDbEntity
  8
0
 62
7
100
AcDbSpline
 70
8
 71
3
 72
8
 73
4
 74
0
 40
0
 40
0
 40
0
 40
0
 40
1
 40
1
 40
1
 40
1
 10
64.082101
 20
-15.746323
 30
0.0
 10
64.175897
 20
-15.840094
 30
0.0
 10
64.303106
 20
-15.892758
 30
0.0
 10
64.435736
 20
-15.892724
 30
0.0
  0
SPLINE
  5
294
100
AcDbEntity
  8
0
 62
7
100
AcDbSpline
 70
8
 71
3
 72
8
 73
4
 74
0
 40
0
 40
0
 40
0
 40
0
 40
1
 40
1
 40
1
 40
1
 10
178.235610
 20
-15.392725
 30
0.0
 10
178.235610
 20
-15.525355
 30
0.0
 10
178.288306
 20
-15.652551
 30
0.0
 10
178.382101
 20
-15.746323
 30
0.0
  0
SPLINE
  5
295
100
AcDbEntity
  8
0
 62
7
100
AcDbSpline
 70
8
 71
3
 72
8
 73
4
 74
0
 40
0
 40
0
 40
0
 40
0
 40
1
 40
1
 40
1
 40
1
 10
178.382101
 20
-15.746323
 30
0.0
 10
178.475897
 20
-15.840094
 30
0.0
 10
178.603106
 20
-15.892758
 30
0.0
 10
178.735736
 20
-15.892724
 30
0.0
  0
SPLINE
  5
296
100
AcDbEntity
  8
0
 62
7
100
AcDbSpline
 70
8
 71
3
 72
8
 73
4
 74
0
 40
0
 40
0
 40
0
 40
0
 40
1
 40
1
 40
1
 40
1
 10
191.735710
 20
-15.892724
 30
0.0
 10
192.011802
 20
-15.892654
 30
0.0
 10
192.235582
 20
-15.668817
 30
0.0
 10
192.235582
 20
-15.392725
 30
0.0
  0
LWPOLYLINE
  5
297
100
AcDbEntity
  8
0
 62
7
100
AcDbPolyline
 90
2
 70
0
 10
216.834720
 20
-15.891073
 30
0.0
 10
244.121940
 20
-15.891073
 30
0.0
  0
SPLINE
  5
298
100
AcDbEntity
  8
0
 62
7
100
AcDbSpline
 70
8
 71
3
 72
8
 73
4
 74
0
 40
0
 40
0
 40
0
 40
0
 40
1
 40
1
 40
1
 40
1
 10
192.235582
 20
-2.392726
 30
0.0
 10
192.235582
 20
-2.116633
 30
0.0
 10
192.011802
 20
-1.892797
 30
0.0
 10
191.735710
 20
-1.892727
 30
0.0
  0
LWPOLYLINE
  5
299
100
AcDbEntity
  8
0
 62
7
100
AcDbPolyline
 90
2
 70
0
 10
64.434720
 20
-15.891073
 30
0.0
 10
77.434440
 20
-15.891073
 30
0.0
  0
LWPOLYLINE
  5
29a
100
AcDbEntity
  8
0
 62
7
100
AcDbPolyline
 90
2
 70
0
 10
192.234820
 20
-2.390973
 30
0.0
 10
192.234820
 20
-15.390693
 30
0.0
  0
LWPOLYLINE
  5
29b
100
AcDbEntity
  8
0
 62
7
100
AcDbPolyline
 90
2
 70
0
 10
178.234340
 20
-2.390973
 30
0.0
 10
178.234340
 20
-15.390693
 30
0.0
  0
LWPOLYLINE
  5
29c
100
AcDbEntity
  8
0
 62
7
100
AcDbPolyline
 90
2
 70
0
 10
178.734720
 20
-15.891073
 30
0.0
 10
191.734440
 20
-15.891073
 30
0.0
  0
LWPOLYLINE
  5
29d
100
AcDbEntity
  8
0
 62
7
100
AcDbPolyline
 90
2
 70
0
 10
154.134820
 20
-2.390973
 30
0.0
 10
154.134820
 20
-15.390693
 30
0.0
  0
SPLINE
  5
29e
100
AcDbEntity
  8
0
 62
7
100
AcDbSpline
 70
8
 71
3
 72
8
 73
4
 74
0
 40
0
 40
0
 40
0
 40
0
 40
1
 40
1
 40
1
 40
1
 10
172.685710
 20
-15.892724
 30
0.0
 10
172.961802
 20
-15.892654
 30
0.0
 10
173.185582
 20
-15.668817
 30
0.0
 10
173.185582
 20
-15.392725
 30
0.0
  0
SPLINE
  5
29f
100
AcDbEntity
  8
0
 62
7
100
AcDbSpline
 70
8
 71
3
 72
8
 73
4
 74
0
 40
0
 40
0
 40
0
 40
0
 40
1
 40
1
 40
1
 40
1
 10
173.185582
 20
-2.392726
 30
0.0
 10
173.185582
 20
-2.116633
 30
0.0
 10
172.961802
 20
-1.892797
 30
0.0
 10
172.685710
 20
-1.892727
 30
0.0
  0
LWPOLYLINE
  5
2a0
100
AcDbEntity
  8
0
 62
7
100
AcDbPolyline
 90
2
 70
0
 10
178.734720
 20
-1.890593
 30
0.0
 10
191.734440
 20
-1.890593
 30
0.0
  0
LWPOLYLINE
  5
2a1
100
AcDbEntity
  8
0
 62
7
100
AcDbPolyline
 90
2
 70
0
 10
159.684720
 20
-15.891073
 30
0.0
 10
172.684440
 20
-15.891073
 30
0.0
  0
SPLINE
  5
2a2
100
AcDbEntity
  8
0
 62
7
100
AcDbSpline
 70
8
 71
3
 72
8
 73
4
 74
0
 40
0
 40
0
 40
0
 40
0
 40
1
 40
1
 40
1
 40
1
 10
102.035610
 20
-15.392725
 30
0.0
 10
102.035610
 20
-15.525355
 30
0.0
 10
102.088306
 20
-15.652551
 30
0.0
 10
102.182101
 20
-15.746323
 30
0.0
  0
SPLINE
  5
2a3
100
AcDbEntity
  8
0
 62
7
100
AcDbSpline
 70
8
 71
3
 72
8
 73
4
 74
0
 40
0
 40
0
 40
0
 40
0
 40
1
 40
1
 40
1
 40
1
 10
102.182101
 20
-15.746323
 30
0.0
 10
102.275897
 20
-15.840094
 30
0.0
 10
102.403106
 20
-15.892758
 30
0.0
 10
102.535736
 20
-15.892724
 30
0.0
  0
LWPOLYLINE
  5
2a4
100
AcDbEntity
  8
0
 62
7
100
AcDbPolyline
 90
2
 70
0
 10
159.684720
 20
-1.890593
 30
0.0
 10
172.684440
 20
-1.890593
 30
0.0
  0
SPLINE
  5
2a5
100
AcDbEntity
  8
0
 62
7
100
AcDbSpline
 70
8
 71
3
 72
8
 73
4
 74
0
 40
0
 40
0
 40
0
 40
0
 40
1
 40
1
 40
1
 40
1
 10
44.885610
 20
-15.392725
 30
0.0
 10
44.885610
 20
-15.525355
 30
0.0
 10
44.938306
 20
-15.652551
 30
0.0
 10
45.032101
 20
-15.746323
 30
0.0
  0
SPLINE
  5
2a6
100
AcDbEntity
  8
0
 62
7
100
AcDbSpline
 70
8
 71
3
 72
8
 73
4
 74
0
 40
0
 40
0
 40
0
 40
0
 40
1
 40
1
 40
1
 40
1
 10
45.032101
 20
-15.746323
 30
0.0
 10
45.125897
 20
-15.840094
 30
0.0
 10
45.253106
 20
-15.892758
 30
0.0
 10
45.385736
 20
-15.892724
 30
0.0
  0
SPLINE
  5
2a7
100
AcDbEntity
  8
0
 62
7
100
AcDbSpline
 70
8
 71
3
 72
8
 73
4
 74
0
 40
0
 40
0
 40
0
 40
0
 40
1
 40
1
 40
1
 40
1
 10
45.385736
 20
-1.892727
 30
0.0
 10
45.253106
 20
-1.892693
 30
0.0
 10
45.125897
 20
-1.945356
 30
0.0
 10
45.032101
 20
-2.039128
 30
0.0
  0
SPLINE
  5
2a8
100
AcDbEntity
  8
0
 62
7
100
AcDbSpline
 70
8
 71
3
 72
8
 73
4
 74
0
 40
0
 40
0
 40
0
 40
0
 40
1
 40
1
 40
1
 40
1
 10
45.032101
 20
-2.039128
 30
0.0
 10
44.938306
 20
-2.132900
 30
0.0
 10
44.885610
 20
-2.260096
 30
0.0
 10
44.885610
 20
-2.392726
 30
0.0
  0
SPLINE
  5
2a9
100
AcDbEntity
  8
0
 62
7
100
AcDbSpline
 70
8
 71
3
 72
8
 73
4
 74
0
 40
0
 40
0
 40
0
 40
0
 40
1
 40
1
 40
1
 40
1
 10
77.435710
 20
-15.892724
 30
0.0
 10
77.711802
 20
-15.892654
 30
0.0
 10
77.935582
 20
-15.668817
 30
0.0
 10
77.935582
 20
-15.392725
 30
0.0
  0
SPLINE
  5
2aa
100
AcDbEntity
  8
0
 62
7
100
AcDbSpline
 70
8
 71
3
 72
8
 73
4
 74
0
 40
0
 40
0
 40
0
 40
0
 40
1
 40
1
 40
1
 40
1
 10
153.635710
 20
-15.892724
 30
0.0
 10
153.911802
 20
-15.892654
 30
0.0
 10
154.135582
 20
-15.668817
 30
0.0
 10
154.135582
 20
-15.392725
 30
0.0
  0
LWPOLYLINE
  5
2ab
100
AcDbEntity
  8
0
 62
7
100
AcDbPolyline
 90
2
 70
0
 10
44.884340
 20
-2.390973
 30
0.0
 10
44.884340
 20
-15.390693
 30
0.0
  0
SPLINE
  5
2ac
100
AcDbEntity
  8
0
 62
7
100
AcDbSpline
 70
8
 71
3
 72
8
 73
4
 74
0
 40
0
 40
0
 40
0
 40
0
 40
1
 40
1
 40
1
 40
1
 10
140.135610
 20
-15.392725
 30
0.0
 10
140.135610
 20
-15.525355
 30
0.0
 10
140.188306
 20
-15.652551
 30
0.0
 10
140.282101
 20
-15.746323
 30
0.0
  0
SPLINE
  5
2ad
100
AcDbEntity
  8
0
 62
7
100
AcDbSpline
 70
8
 71
3
 72
8
 73
4
 74
0
 40
0
 40
0
 40
0
 40
0
 40
1
 40
1
 40
1
 40
1
 10
140.282101
 20
-15.746323
 30
0.0
 10
140.375897
 20
-15.840094
 30
0.0
 10
140.503106
 20
-15.892758
 30
0.0
 10
140.635736
 20
-15.892724
 30
0.0
  0
SPLINE
  5
2ae
100
AcDbEntity
  8
0
 62
7
100
AcDbSpline
 70
8
 71
3
 72
8
 73
4
 74
0
 40
0
 40
0
 40
0
 40
0
 40
1
 40
1
 40
1
 40
1
 10
154.135582
 20
-2.392726
 30
0.0
 10
154.135582
 20
-2.116633
 30
0.0
 10
153.911802
 20
-1.892797
 30
0.0
 10
153.635710
 20
-1.892727
 30
0.0
  0
LWPOLYLINE
  5
2af
100
AcDbEntity
  8
0
 62
7
100
AcDbPolyline
 90
2
 70
0
 10
140.634720
 20
-15.891073
 30
0.0
 10
153.634440
 20
-15.891073
 30
0.0
  0
LWPOLYLINE
  5
2b0
100
AcDbEntity
  8
0
 62
7
100
AcDbPolyline
 90
2
 70
0
 10
102.534720
 20
-1.890593
 30
0.0
 10
115.534440
 20
-1.890593
 30
0.0
  0
LWPOLYLINE
  5
2b1
100
AcDbEntity
  8
0
 62
7
100
AcDbPolyline
 90
2
 70
0
 10
96.984820
 20
-2.390973
 30
0.0
 10
96.984820
 20
-15.390693
 30
0.0
  0
SPLINE
  5
2b2
100
AcDbEntity
  8
0
 62
7
100
AcDbSpline
 70
8
 71
3
 72
8
 73
4
 74
0
 40
0
 40
0
 40
0
 40
0
 40
1
 40
1
 40
1
 40
1
 10
77.935582
 20
-2.392726
 30
0.0
 10
77.935582
 20
-2.116633
 30
0.0
 10
77.711802
 20
-1.892797
 30
0.0
 10
77.435710
 20
-1.892727
 30
0.0
  0
LWPOLYLINE
  5
2b3
100
AcDbEntity
  8
0
 62
7
100
AcDbPolyline
 90
2
 70
0
 10
63.934340
 20
-2.390973
 30
0.0
 10
63.934340
 20
-15.390693
 30
0.0
  0
LWPOLYLINE
  5
2b4
100
AcDbEntity
  8
0
 62
7
100
AcDbPolyline
 90
2
 70
0
 10
83.484720
 20
-15.891073
 30
0.0
 10
96.484440
 20
-15.891073
 30
0.0
  0
LWPOLYLINE
  5
2b5
100
AcDbEntity
  8
0
 62
7
100
AcDbPolyline
 90
2
 70
0
 10
116.034820
 20
-2.390973
 30
0.0
 10
116.034820
 20
-15.390693
 30
0.0
  0
LWPOLYLINE
  5
2b6
100
AcDbEntity
  8
0
 62
7
100
AcDbPolyline
 90
2
 70
0
 10
83.484720
 20
-1.890593
 30
0.0
 10
96.484440
 20
-1.890593
 30
0.0
  0
SPLINE
  5
2b7
100
AcDbEntity
  8
0
 62
7
100
AcDbSpline
 70
8
 71
3
 72
8
 73
4
 74
0
 40
0
 40
0
 40
0
 40
0
 40
1
 40
1
 40
1
 40
1
 10
96.985582
 20
-2.392726
 30
0.0
 10
96.985582
 20
-2.116633
 30
0.0
 10
96.761802
 20
-1.892797
 30
0.0
 10
96.485710
 20
-1.892727
 30
0.0
  0
SPLINE
  5
2b8
100
AcDbEntity
  8
0
 62
7
100
AcDbSpline
 70
8
 71
3
 72
8
 73
4
 74
0
 40
0
 40
0
 40
0
 40
0
 40
1
 40
1
 40
1
 40
1
 10
134.585710
 20
-15.892724
 30
0.0
 10
134.861802
 20
-15.892654
 30
0.0
 10
135.085582
 20
-15.668817
 30
0.0
 10
135.085582
 20
-15.392725
 30
0.0
  0
SPLINE
  5
2b9
100
AcDbEntity
  8
0
 62
7
100
AcDbSpline
 70
8
 71
3
 72
8
 73
4
 74
0
 40
0
 40
0
 40
0
 40
0
 40
1
 40
1
 40
1
 40
1
 10
83.485736
 20
-1.892727
 30
0.0
 10
83.353106
 20
-1.892693
 30
0.0
 10
83.225897
 20
-1.945356
 30
0.0
 10
83.132101
 20
-2.039128
 30
0.0
  0
SPLINE
  5
2ba
100
AcDbEntity
  8
0
 62
7
100
AcDbSpline
 70
8
 71
3
 72
8
 73
4
 74
0
 40
0
 40
0
 40
0
 40
0
 40
1
 40
1
 40
1
 40
1
 10
83.132101
 20
-2.039128
 30
0.0
 10
83.038306
 20
-2.132900
 30
0.0
 10
82.985610
 20
-2.260096
 30
0.0
 10
82.985610
 20
-2.392726
 30
0.0
  0
LWPOLYLINE
  5
2bb
100
AcDbEntity
  8
0
 62
7
100
AcDbPolyline
 90
2
 70
0
 10
140.134340
 20
-2.390973
 30
0.0
 10
140.134340
 20
-15.390693
 30
0.0
  0
LWPOLYLINE
  5
2bc
100
AcDbEntity
  8
0
 62
7
100
AcDbPolyline
 90
2
 70
0
 10
102.034340
 20
-2.390973
 30
0.0
 10
102.034340
 20
-15.390693
 30
0.0
  0
SPLINE
  5
2bd
100
AcDbEntity
  8
0
 62
7
100
AcDbSpline
 70
8
 71
3
 72
8
 73
4
 74
0
 40
0
 40
0
 40
0
 40
0
 40
1
 40
1
 40
1
 40
1
 10
64.435736
 20
-1.892727
 30
0.0
 10
64.303106
 20
-1.892693
 30
0.0
 10
64.175897
 20
-1.945356
 30
0.0
 10
64.082101
 20
-2.039128
 30
0.0
  0
SPLINE
  5
2be
100
AcDbEntity
  8
0
 62
7
100
AcDbSpline
 70
8
 71
3
 72
8
 73
4
 74
0
 40
0
 40
0
 40
0
 40
0
 40
1
 40
1
 40
1
 40
1
 10
64.082101
 20
-2.039128
 30
0.0
 10
63.988306
 20
-2.132900
 30
0.0
 10
63.935610
 20
-2.260096
 30
0.0
 10
63.935610
 20
-2.392726
 30
0.0
  0
LWPOLYLINE
  5
2bf
100
AcDbEntity
  8
0
 62
7
100
AcDbPolyline
 90
2
 70
0
 10
140.634720
 20
-1.890593
 30
0.0
 10
153.634440
 20
-1.890593
 30
0.0
  0
SPLINE
  5
2c0
100
AcDbEntity
  8
0
 62
7
100
AcDbSpline
 70
8
 71
3
 72
8
 73
4
 74
0
 40
0
 40
0
 40
0
 40
0
 40
1
 40
1
 40
1
 40
1
 10
140.635736
 20
-1.892727
 30
0.0
 10
140.503106
 20
-1.892693
 30
0.0
 10
140.375897
 20
-1.945356
 30
0.0
 10
140.282101
 20
-2.039128
 30
0.0
  0
SPLINE
  5
2c1
100
AcDbEntity
  8
0
 62
7
100
AcDbSpline
 70
8
 71
3
 72
8
 73
4
 74
0
 40
0
 40
0
 40
0
 40
0
 40
1
 40
1
 40
1
 40
1
 10
140.282101
 20
-2.039128
 30
0.0
 10
140.188306
 20
-2.132900
 30
0.0
 10
140.135610
 20
-2.260096
 30
0.0
 10
140.135610
 20
-2.392726
 30
0.0
  0
SPLINE
  5
2c2
100
AcDbEntity
  8
0
 62
7
100
AcDbSpline
 70
8
 71
3
 72
8
 73
4
 74
0
 40
0
 40
0
 40
0
 40
0
 40
1
 40
1
 40
1
 40
1
 10
121.085610
 20
-15.392725
 30
0.0
 10
121.085610
 20
-15.525355
 30
0.0
 10
121.138306
 20
-15.652551
 30
0.0
 10
121.232101
 20
-15.746323
 30
0.0
  0
SPLINE
  5
2c3
100
AcDbEntity
  8
0
 62
7
100
AcDbSpline
 70
8
 71
3
 72
8
 73
4
 74
0
 40
0
 40
0
 40
0
 40
0
 40
1
 40
1
 40
1
 40
1
 10
121.232101
 20
-15.746323
 30
0.0
 10
121.325897
 20
-15.840094
 30
0.0
 10
121.453106
 20
-15.892758
 30
0.0
 10
121.585736
 20
-15.892724
 30
0.0
  0
LWPOLYLINE
  5
2c4
100
AcDbEntity
  8
0
 62
7
100
AcDbPolyline
 90
2
 70
0
 10
64.434720
 20
-1.890593
 30
0.0
 10
77.434440
 20
-1.890593
 30
0.0
  0
LWPOLYLINE
  5
2c5
100
AcDbEntity
  8
0
 62
7
100
AcDbPolyline
 90
2
 70
0
 10
121.584720
 20
-1.890593
 30
0.0
 10
134.584440
 20
-1.890593
 30
0.0
  0
LWPOLYLINE
  5
2c6
100
AcDbEntity
  8
0
 62
7
100
AcDbPolyline
 90
2
 70
0
 10
82.984340
 20
-2.390973
 30
0.0
 10
82.984340
 20
-15.390693
 30
0.0
  0
SPLINE
  5
2c7
100
AcDbEntity
  8
0
 62
7
100
AcDbSpline
 70
8
 71
3
 72
8
 73
4
 74
0
 40
0
 40
0
 40
0
 40
0
 40
1
 40
1
 40
1
 40
1
 10
115.535710
 20
-15.892724
 30
0.0
 10
115.811802
 20
-15.892654
 30
0.0
 10
116.035582
 20
-15.668817
 30
0.0
 10
116.035582
 20
-15.392725
 30
0.0
  0
LWPOLYLINE
  5
2c8
100
AcDbEntity
  8
0
 62
7
100
AcDbPolyline
 90
2
 70
0
 10
135.084820
 20
-2.390973
 30
0.0
 10
135.084820
 20
-15.390693
 30
0.0
  0
SPLINE
  5
2c9
100
AcDbEntity
  8
0
 62
7
100
AcDbSpline
 70
8
 71
3
 72
8
 73
4
 74
0
 40
0
 40
0
 40
0
 40
0
 40
1
 40
1
 40
1
 40
1
 10
159.185610
 20
-15.392725
 30
0.0
 10
159.185610
 20
-15.525355
 30
0.0
 10
159.238306
 20
-15.652551
 30
0.0
 10
159.332101
 20
-15.746323
 30
0.0
  0
SPLINE
  5
2ca
100
AcDbEntity
  8
0
 62
7
100
AcDbSpline
 70
8
 71
3
 72
8
 73
4
 74
0
 40
0
 40
0
 40
0
 40
0
 40
1
 40
1
 40
1
 40
1
 10
159.332101
 20
-15.746323
 30
0.0
 10
159.425897
 20
-15.840094
 30
0.0
 10
159.553106
 20
-15.892758
 30
0.0
 10
159.685736
 20
-15.892724
 30
0.0
  0
LWPOLYLINE
  5
2cb
100
AcDbEntity
  8
0
 62
7
100
AcDbPolyline
 90
2
 70
0
 10
77.934820
 20
-2.390973
 30
0.0
 10
77.934820
 20
-15.390693
 30
0.0
  0
SPLINE
  5
2cc
100
AcDbEntity
  8
0
 62
7
100
AcDbSpline
 70
8
 71
3
 72
8
 73
4
 74
0
 40
0
 40
0
 40
0
 40
0
 40
1
 40
1
 40
1
 40
1
 10
159.685736
 20
-1.892727
 30
0.0
 10
159.553106
 20
-1.892693
 30
0.0
 10
159.425897
 20
-1.945356
 30
0.0
 10
159.332101
 20
-2.039128
 30
0.0
  0
SPLINE
  5
2cd
100
AcDbEntity
  8
0
 62
7
100
AcDbSpline
 70
8
 71
3
 72
8
 73
4
 74
0
 40
0
 40
0
 40
0
 40
0
 40
1
 40
1
 40
1
 40
1
 10
159.332101
 20
-2.039128
 30
0.0
 10
159.238306
 20
-2.132900
 30
0.0
 10
159.185610
 20
-2.260096
 30
0.0
 10
159.185610
 20
-2.392726
 30
0.0
  0
SPLINE
  5
2ce
100
AcDbEntity
  8
0
 62
7
100
AcDbSpline
 70
8
 71
3
 72
8
 73
4
 74
0
 40
0
 40
0
 40
0
 40
0
 40
1
 40
1
 40
1
 40
1
 10
178.735736
 20
-1.892727
 30
0.0
 10
178.603106
 20
-1.892693
 30
0.0
 10
178.475897
 20
-1.945356
 30
0.0
 10
178.382101
 20
-2.039128
 30
0.0
  0
SPLINE
  5
2cf
100
AcDbEntity
  8
0
 62
7
100
AcDbSpline
 70
8
 71
3
 72
8
 73
4
 74
0
 40
0
 40
0
 40
0
 40
0
 40
1
 40
1
 40
1
 40
1
 10
178.382101
 20
-2.039128
 30
0.0
 10
178.288306
 20
-2.132900
 30
0.0
 10
178.235610
 20
-2.260096
 30
0.0
 10
178.235610
 20
-2.392726
 30
0.0
  0
SPLINE
  5
2d0
100
AcDbEntity
  8
0
 62
7
100
AcDbSpline
 70
8
 71
3
 72
8
 73
4
 74
0
 40
0
 40
0
 40
0
 40
0
 40
1
 40
1
 40
1
 40
1
 10
116.035582
 20
-2.392726
 30
0.0
 10
116.035582
 20
-2.116633
 30
0.0
 10
115.811802
 20
-1.892797
 30
0.0
 10
115.535710
 20
-1.892727
 30
0.0
  0
LWPOLYLINE
  5
2d1
100
AcDbEntity
  8
0
 62
7
100
AcDbPolyline
 90
2
 70
0
 10
197.784720
 20
-15.891073
 30
0.0
 10
210.784440
 20
-15.891073
 30
0.0
  0
LWPOLYLINE
  5
2d2
100
AcDbEntity
  8
0
 62
7
100
AcDbPolyline
 90
2
 70
0
 10
121.084340
 20
-2.390973
 30
0.0
 10
121.084340
 20
-15.390693
 30
0.0
  0
LWPOLYLINE
  5
2d3
100
AcDbEntity
  8
0
 62
7
100
AcDbPolyline
 90
2
 70
0
 10
121.584720
 20
-15.891073
 30
0.0
 10
134.584440
 20
-15.891073
 30
0.0
  0
LWPOLYLINE
  5
2d4
100
AcDbEntity
  8
0
 62
7
100
AcDbPolyline
 90
2
 70
0
 10
159.184340
 20
-2.390973
 30
0.0
 10
159.184340
 20
-15.390693
 30
0.0
  0
SPLINE
  5
2d5
100
AcDbEntity
  8
0
 62
7
100
AcDbSpline
 70
8
 71
3
 72
8
 73
4
 74
0
 40
0
 40
0
 40
0
 40
0
 40
1
 40
1
 40
1
 40
1
 10
135.085582
 20
-2.392726
 30
0.0
 10
135.085582
 20
-2.116633
 30
0.0
 10
134.861802
 20
-1.892797
 30
0.0
 10
134.585710
 20
-1.892727
 30
0.0
  0
LWPOLYLINE
  5
2d6
100
AcDbEntity
  8
0
 62
7
100
AcDbPolyline
 90
2
 70
0
 10
173.184820
 20
-2.390973
 30
0.0
 10
173.184820
 20
-15.390693
 30
0.0
  0
SPLINE
  5
2d7
100
AcDbEntity
  8
0
 62
7
100
AcDbSpline
 70
8
 71
3
 72
8
 73
4
 74
0
 40
0
 40
0
 40
0
 40
0
 40
1
 40
1
 40
1
 40
1
 10
96.485710
 20
-15.892724
 30
0.0
 10
96.761802
 20
-15.892654
 30
0.0
 10
96.985582
 20
-15.668817
 30
0.0
 10
96.985582
 20
-15.392725
 30
0.0
  0
SPLINE
  5
2d8
100
AcDbEntity
  8
0
 62
7
100
AcDbSpline
 70
8
 71
3
 72
8
 73
4
 74
0
 40
0
 40
0
 40
0
 40
0
 40
1
 40
1
 40
1
 40
1
 10
58.385710
 20
-15.892724
 30
0.0
 10
58.661802
 20
-15.892654
 30
0.0
 10
58.885582
 20
-15.668817
 30
0.0
 10
58.885582
 20
-15.392725
 30
0.0
  0
LWPOLYLINE
  5
2d9
100
AcDbEntity
  8
0
 62
7
100
AcDbPolyline
 90
2
 70
0
 10
102.534720
 20
-15.891073
 30
0.0
 10
115.534440
 20
-15.891073
 30
0.0
  0
LWPOLYLINE
  5
2da
100
AcDbEntity
  8
0
 62
7
100
AcDbPolyline
 90
2
 70
0
 10
58.884820
 20
-2.390973
 30
0.0
 10
58.884820
 20
-15.390693
 30
0.0
  0
SPLINE
  5
2db
100
AcDbEntity
  8
0
 62
7
100
AcDbSpline
 70
8
 71
3
 72
8
 73
4
 74
0
 40
0
 40
0
 40
0
 40
0
 40
1
 40
1
 40
1
 40
1
 10
121.585736
 20
-1.892727
 30
0.0
 10
121.453106
 20
-1.892693
 30
0.0
 10
121.325897
 20
-1.945356
 30
0.0
 10
121.232101
 20
-2.039128
 30
0.0
  0
SPLINE
  5
2dc
100
AcDbEntity
  8
0
 62
7
100
AcDbSpline
 70
8
 71
3
 72
8
 73
4
 74
0
 40
0
 40
0
 40
0
 40
0
 40
1
 40
1
 40
1
 40
1
 10
121.232101
 20
-2.039128
 30
0.0
 10
121.138306
 20
-2.132900
 30
0.0
 10
121.085610
 20
-2.260096
 30
0.0
 10
121.085610
 20
-2.392726
 30
0.0
  0
SPLINE
  5
2dd
100
AcDbEntity
  8
0
 62
7
100
AcDbSpline
 70
8
 71
3
 72
8
 73
4
 74
0
 40
0
 40
0
 40
0
 40
0
 40
1
 40
1
 40
1
 40
1
 10
82.985610
 20
-15.392725
 30
0.0
 10
82.985610
 20
-15.525355
 30
0.0
 10
83.038306
 20
-15.652551
 30
0.0
 10
83.132101
 20
-15.746323
 30
0.0
  0
SPLINE
  5
2de
100
AcDbEntity
  8
0
 62
7
100
AcDbSpline
 70
8
 71
3
 72
8
 73
4
 74
0
 40
0
 40
0
 40
0
 40
0
 40
1
 40
1
 40
1
 40
1
 10
83.132101
 20
-15.746323
 30
0.0
 10
83.225897
 20
-15.840094
 30
0.0
 10
83.353106
 20
-15.892758
 30
0.0
 10
83.485736
 20
-15.892724
 30
0.0
  0
LWPOLYLINE
  5
2df
100
AcDbEntity
  8
0
 62
7
100
AcDbPolyline
 90
2
 70
0
 10
197.784720
 20
-1.890593
 30
0.0
 10
210.784440
 20
-1.890593
 30
0.0
  0
LWPOLYLINE
  5
2e0
100
AcDbEntity
  8
0
 62
7
100
AcDbPolyline
 90
2
 70
0
 10
45.384720
 20
-15.891073
 30
0.0
 10
58.384440
 20
-15.891073
 30
0.0
  0
LWPOLYLINE
  5
2e1
100
AcDbEntity
  8
0
 62
7
100
AcDbPolyline
 90
2
 70
0
 10
45.384720
 20
-1.890593
 30
0.0
 10
58.384440
 20
-1.890593
 30
0.0
  0
LWPOLYLINE
  5
2e2
100
AcDbEntity
  8
0
 62
7
100
AcDbPolyline
 90
2
 70
0
 10
26.334720
 20
-1.890593
 30
0.0
 10
39.334440
 20
-1.890593
 30
0.0
  0
SPLINE
  5
2e3
100
AcDbEntity
  8
0
 62
7
100
AcDbSpline
 70
8
 71
3
 72
8
 73
4
 74
0
 40
0
 40
0
 40
0
 40
0
 40
1
 40
1
 40
1
 40
1
 10
39.335710
 20
-15.892724
 30
0.0
 10
39.611802
 20
-15.892654
 30
0.0
 10
39.835582
 20
-15.668817
 30
0.0
 10
39.835582
 20
-15.392725
 30
0.0
  0
SPLINE
  5
2e4
100
AcDbEntity
  8
0
 62
7
100
AcDbSpline
 70
8
 71
3
 72
8
 73
4
 74
0
 40
0
 40
0
 40
0
 40
0
 40
1
 40
1
 40
1
 40
1
 10
25.835610
 20
-15.392725
 30
0.0
 10
25.835610
 20
-15.525355
 30
0.0
 10
25.888306
 20
-15.652551
 30
0.0
 10
25.982101
 20
-15.746323
 30
0.0
  0
SPLINE
  5
2e5
100
AcDbEntity
  8
0
 62
7
100
AcDbSpline
 70
8
 71
3
 72
8
 73
4
 74
0
 40
0
 40
0
 40
0
 40
0
 40
1
 40
1
 40
1
 40
1
 10
25.982101
 20
-15.746323
 30
0.0
 10
26.075897
 20
-15.840094
 30
0.0
 10
26.203106
 20
-15.892758
 30
0.0
 10
26.335736
 20
-15.892724
 30
0.0
  0
SPLINE
  5
2e6
100
AcDbEntity
  8
0
 62
7
100
AcDbSpline
 70
8
 71
3
 72
8
 73
4
 74
0
 40
0
 40
0
 40
0
 40
0
 40
1
 40
1
 40
1
 40
1
 10
26.335736
 20
-1.892727
 30
0.0
 10
26.203106
 20
-1.892693
 30
0.0
 10
26.075897
 20
-1.945356
 30
0.0
 10
25.982101
 20
-2.039128
 30
0.0
  0
SPLINE
  5
2e7
100
AcDbEntity
  8
0
 62
7
100
AcDbSpline
 70
8
 71
3
 72
8
 73
4
 74
0
 40
0
 40
0
 40
0
 40
0
 40
1
 40
1
 40
1
 40
1
 10
25.982101
 20
-2.039128
 30
0.0
 10
25.888306
 20
-2.132900
 30
0.0
 10
25.835610
 20
-2.260096
 30
0.0
 10
25.835610
 20
-2.392726
 30
0.0
  0
SPLINE
  5
2e8
100
AcDbEntity
  8
0
 62
7
100
AcDbSpline
 70
8
 71
3
 72
8
 73
4
 74
0
 40
0
 40
0
 40
0
 40
0
 40
1
 40
1
 40
1
 40
1
 10
39.835582
 20
-2.392726
 30
0.0
 10
39.835582
 20
-2.116633
 30
0.0
 10
39.611802
 20
-1.892797
 30
0.0
 10
39.335710
 20
-1.892727
 30
0.0
  0
LWPOLYLINE
  5
2e9
100
AcDbEntity
  8
0
 62
7
100
AcDbPolyline
 90
2
 70
0
 10
26.334720
 20
-15.891073
 30
0.0
 10
39.334440
 20
-15.891073
 30
0.0
  0
LWPOLYLINE
  5
2ea
100
AcDbEntity
  8
0
 62
7
100
AcDbPolyline
 90
2
 70
0
 10
25.834340
 20
-2.390973
 30
0.0
 10
25.834340
 20
-15.390693
 30
0.0
  0
SPLINE
  5
2eb
100
AcDbEntity
  8
0
 62
7
100
AcDbSpline
 70
8
 71
3
 72
8
 73
4
 74
0
 40
0
 40
0
 40
0
 40
0
 40
1
 40
1
 40
1
 40
1
 10
0.502986
 20
-74.118033
 30
0.0
 10
1.088655
 20
-74.002363
 30
0.0
 10
1.510789
 20
-73.488702
 30
0.0
 10
1.510789
 20
-72.891720
 30
0.0
  0
SPLINE
  5
2ec
100
AcDbEntity
  8
0
 62
7
100
AcDbSpline
 70
8
 71
3
 72
8
 73
4
 74
0
 40
0
 40
0
 40
0
 40
0
 40
1
 40
1
 40
1
 40
1
 10
1.510789
 20
-72.891720
 30
0.0
 10
1.510788
 20
-72.294738
 30
0.0
 10
1.088652
 20
-71.781078
 30
0.0
 10
0.502983
 20
-71.665409
 30
0.0
  0
SPLINE
  5
2ed
100
AcDbEntity
  8
0
 62
7
100
AcDbSpline
 70
8
 71
3
 72
8
 73
4
 74
0
 40
0
 40
0
 40
0
 40
0
 40
1
 40
1
 40
1
 40
1
 10
250.905518
 20
-71.665409
 30
0.0
 10
250.319849
 20
-71.781078
 30
0.0
 10
249.897714
 20
-72.294739
 30
0.0
 10
249.897714
 20
-72.891721
 30
0.0
  0
SPLINE
  5
2ee
100
AcDbEntity
  8
0
 62
7
100
AcDbSpline
 70
8
 71
3
 72
8
 73
4
 74
0
 40
0
 40
0
 40
0
 40
0
 40
1
 40
1
 40
1
 40
1
 10
249.897714
 20
-72.891721
 30
0.0
 10
249.897714
 20
-73.488703
 30
0.0
 10
250.319849
 20
-74.002364
 30
0.0
 10
250.905518
 20
-74.118033
 30
0.0
  0
SPLINE
  5
2ef
100
AcDbEntity
  8
0
 62
7
100
AcDbSpline
 70
8
 71
3
 72
8
 73
4
 74
0
 40
0
 40
0
 40
0
 40
0
 40
1
 40
1
 40
1
 40
1
 10
2.760447
 20
-70.216847
 30
0.0
 10
3.158292
 20
-70.216846
 30
0.0
 10
3.539841
 20
-70.058794
 30
0.0
 10
3.821149
 20
-69.777463
 30
0.0
  0
SPLINE
  5
2f0
100
AcDbEntity
  8
0
 62
7
100
AcDbSpline
 70
8
 71
3
 72
8
 73
4
 74
0
 40
0
 40
0
 40
0
 40
0
 40
1
 40
1
 40
1
 40
1
 10
3.821149
 20
-69.777463
 30
0.0
 10
4.102456
 20
-69.496131
 30
0.0
 10
4.260477
 20
-69.114569
 30
0.0
 10
4.260444
 20
-68.716723
 30
0.0
  0
SPLINE
  5
2f1
100
AcDbEntity
  8
0
 62
7
100
AcDbSpline
 70
8
 71
3
 72
8
 73
4
 74
0
 40
0
 40
0
 40
0
 40
0
 40
1
 40
1
 40
1
 40
1
 10
251.115322
 20
-75.003223
 30
0.0
 10
251.269882
 20
-74.883041
 30
0.0
 10
251.340075
 20
-74.683706
 30
0.0
 10
251.294921
 20
-74.493197
 30
0.0
  0
SPLINE
  5
2f2
100
AcDbEntity
  8
0
 62
7
100
AcDbSpline
 70
8
 71
3
 72
8
 73
4
 74
0
 40
0
 40
0
 40
0
 40
0
 40
1
 40
1
 40
1
 40
1
 10
251.294921
 20
-74.493197
 30
0.0
 10
251.249768
 20
-74.302688
 30
0.0
 10
251.097576
 20
-74.156062
 30
0.0
 10
250.905518
 20
-74.118033
 30
0.0
  0
SPLINE
  5
2f3
100
AcDbEntity
  8
0
 62
7
100
AcDbSpline
 70
8
 71
3
 72
8
 73
4
 74
0
 40
0
 40
0
 40
0
 40
0
 40
1
 40
1
 40
1
 40
1
 10
0.502986
 20
-74.118033
 30
0.0
 10
0.310899
 20
-74.156009
 30
0.0
 10
0.158656
 20
-74.302613
 30
0.0
 10
0.113461
 20
-74.493131
 30
0.0
  0
SPLINE
  5
2f4
100
AcDbEntity
  8
0
 62
7
100
AcDbSpline
 70
8
 71
3
 72
8
 73
4
 74
0
 40
0
 40
0
 40
0
 40
0
 40
1
 40
1
 40
1
 40
1
 10
0.113461
 20
-74.493131
 30
0.0
 10
0.068266
 20
-74.683649
 30
0.0
 10
0.138439
 20
-74.883015
 30
0.0
 10
0.293002
 20
-75.003223
 30
0.0
  0
SPLINE
  5
2f5
100
AcDbEntity
  8
0
 62
7
100
AcDbSpline
 70
8
 71
3
 72
8
 73
4
 74
0
 40
0
 40
0
 40
0
 40
0
 40
1
 40
1
 40
1
 40
1
 10
1.935450
 20
-70.216847
 30
0.0
 10
1.340524
 20
-70.216853
 30
0.0
 10
0.762576
 20
-70.415183
 30
0.0
 10
0.293002
 20
-70.780473
 30
0.0
  0
SPLINE
  5
2f6
100
AcDbEntity
  8
0
 62
7
100
AcDbSpline
 70
8
 71
3
 72
8
 73
4
 74
0
 40
0
 40
0
 40
0
 40
0
 40
1
 40
1
 40
1
 40
1
 10
0.502986
 20
-3.268010
 30
0.0
 10
1.088483
 20
-3.152193
 30
0.0
 10
1.510424
 20
-2.638612
 30
0.0
 10
1.510424
 20
-2.041770
 30
0.0
  0
SPLINE
  5
2f7
100
AcDbEntity
  8
0
 62
7
100
AcDbSpline
 70
8
 71
3
 72
8
 73
4
 74
0
 40
0
 40
0
 40
0
 40
0
 40
1
 40
1
 40
1
 40
1
 10
1.510424
 20
-2.041770
 30
0.0
 10
1.510424
 20
-1.444929
 30
0.0
 10
1.088483
 20
-0.931348
 30
0.0
 10
0.502986
 20
-0.815531
 30
0.0
  0
LWPOLYLINE
  5
2f8
100
AcDbEntity
  8
0
 62
7
100
AcDbPolyline
 90
2
 70
0
 10
39.834820
 20
-2.390973
 30
0.0
 10
39.834820
 20
-15.390693
 30
0.0
  0
SPLINE
  5
2f9
100
AcDbEntity
  8
0
 62
7
100
AcDbSpline
 70
8
 71
3
 72
8
 73
4
 74
0
 40
0
 40
0
 40
0
 40
0
 40
1
 40
1
 40
1
 40
1
 10
247.147842
 20
-68.716723
 30
0.0
 10
247.147809
 20
-69.114591
 30
0.0
 10
247.305847
 20
-69.496172
 30
0.0
 10
247.587182
 20
-69.777507
 30
0.0
  0
SPLINE
  5
2fa
100
AcDbEntity
  8
0
 62
7
100
AcDbSpline
 70
8
 71
3
 72
8
 73
4
 74
0
 40
0
 40
0
 40
0
 40
0
 40
1
 40
1
 40
1
 40
1
 10
247.587182
 20
-69.777507
 30
0.0
 10
247.868517
 20
-70.058842
 30
0.0
 10
248.250098
 20
-70.216880
 30
0.0
 10
248.647966
 20
-70.216847
 30
0.0
  0
SPLINE
  5
2fb
100
AcDbEntity
  8
0
 62
7
100
AcDbSpline
 70
8
 71
3
 72
8
 73
4
 74
0
 40
0
 40
0
 40
0
 40
0
 40
1
 40
1
 40
1
 40
1
 10
250.905518
 20
-71.665409
 30
0.0
 10
251.097450
 20
-71.627300
 30
0.0
 10
251.249513
 20
-71.480730
 30
0.0
 10
251.294654
 20
-71.290328
 30
0.0
  0
SPLINE
  5
2fc
100
AcDbEntity
  8
0
 62
7
100
AcDbSpline
 70
8
 71
3
 72
8
 73
4
 74
0
 40
0
 40
0
 40
0
 40
0
 40
1
 40
1
 40
1
 40
1
 10
251.294654
 20
-71.290328
 30
0.0
 10
251.339795
 20
-71.099927
 30
0.0
 10
251.269718
 20
-70.900691
 30
0.0
 10
251.115322
 20
-70.780473
 30
0.0
  0
SPLINE
  5
2fd
100
AcDbEntity
  8
0
 62
7
100
AcDbSpline
 70
8
 71
3
 72
8
 73
4
 74
0
 40
0
 40
0
 40
0
 40
0
 40
1
 40
1
 40
1
 40
1
 10
249.472958
 20
-4.716775
 30
0.0
 10
250.067852
 20
-4.716757
 30
0.0
 10
250.645767
 20
-4.518438
 30
0.0
 10
251.115322
 20
-4.153174
 30
0.0
  0
LWPOLYLINE
  5
2fe
100
AcDbEntity
  8
0
 62
7
100
AcDbPolyline
 90
2
 70
0
 10
247.147080
 20
-68.715453
 30
0.0
 10
247.147080
 20
-6.216213
 30
0.0
  0
SPLINE
  5
2ff
100
AcDbEntity
  8
0
 62
7
100
AcDbSpline
 70
8
 71
3
 72
8
 73
4
 74
0
 40
0
 40
0
 40
0
 40
0
 40
1
 40
1
 40
1
 40
1
 10
249.472958
 20
-75.566849
 30
0.0
 10
250.067855
 20
-75.566824
 30
0.0
 10
250.645770
 20
-75.368496
 30
0.0
 10
251.115322
 20
-75.003223
 30
0.0
  0
LWPOLYLINE
  5
300
100
AcDbEntity
  8
0
 62
7
100
AcDbPolyline
 90
2
 70
0
 10
2.758440
 20
-70.216593
 30
0.0
 10
1.932940
 20
-70.216593
 30
0.0
  0
SPLINE
  5
301
100
AcDbEntity
  8
0
 62
7
100
AcDbSpline
 70
8
 71
3
 72
8
 73
4
 74
0
 40
0
 40
0
 40
0
 40
0
 40
1
 40
1
 40
1
 40
1
 10
248.647966
 20
-4.716775
 30
0.0
 10
248.250120
 20
-4.716742
 30
0.0
 10
247.868558
 20
-4.874762
 30
0.0
 10
247.587227
 20
-5.156070
 30
0.0
  0
SPLINE
  5
302
100
AcDbEntity
  8
0
 62
7
100
AcDbSpline
 70
8
 71
3
 72
8
 73
4
 74
0
 40
0
 40
0
 40
0
 40
0
 40
1
 40
1
 40
1
 40
1
 10
247.587227
 20
-5.156070
 30
0.0
 10
247.305895
 20
-5.437377
 30
0.0
 10
247.147843
 20
-5.818926
 30
0.0
 10
247.147842
 20
-6.216772
 30
0.0
  0
SPLINE
  5
303
100
AcDbEntity
  8
0
 62
7
100
AcDbSpline
 70
8
 71
3
 72
8
 73
4
 74
0
 40
0
 40
0
 40
0
 40
0
 40
1
 40
1
 40
1
 40
1
 10
0.293002
 20
-70.780473
 30
0.0
 10
0.138603
 20
-70.900717
 30
0.0
 10
0.068547
 20
-71.099983
 30
0.0
 10
0.113729
 20
-71.290394
 30
0.0
  0
SPLINE
  5
304
100
AcDbEntity
  8
0
 62
7
100
AcDbSpline
 70
8
 71
3
 72
8
 73
4
 74
0
 40
0
 40
0
 40
0
 40
0
 40
1
 40
1
 40
1
 40
1
 10
0.113729
 20
-71.290394
 30
0.0
 10
0.158911
 20
-71.480804
 30
0.0
 10
0.311025
 20
-71.627352
 30
0.0
 10
0.502986
 20
-71.665409
 30
0.0
  0
SPLINE
  5
305
100
AcDbEntity
  8
0
 62
7
100
AcDbSpline
 70
8
 71
3
 72
8
 73
4
 74
0
 40
0
 40
0
 40
0
 40
0
 40
1
 40
1
 40
1
 40
1
 10
0.293002
 20
-75.003223
 30
0.0
 10
0.762575
 20
-75.368513
 30
0.0
 10
1.340522
 20
-75.566842
 30
0.0
 10
1.935447
 20
-75.566849
 30
0.0
  0
SPLINE
  5
306
100
AcDbEntity
  8
0
 62
7
100
AcDbSpline
 70
8
 71
3
 72
8
 73
4
 74
0
 40
0
 40
0
 40
0
 40
0
 40
1
 40
1
 40
1
 40
1
 10
250.905518
 20
-0.815528
 30
0.0
 10
250.320018
 20
-0.931342
 30
0.0
 10
249.898074
 20
-1.444925
 30
0.0
 10
249.898074
 20
-2.041769
 30
0.0
  0
SPLINE
  5
307
100
AcDbEntity
  8
0
 62
7
100
AcDbSpline
 70
8
 71
3
 72
8
 73
4
 74
0
 40
0
 40
0
 40
0
 40
0
 40
1
 40
1
 40
1
 40
1
 10
249.898074
 20
-2.041769
 30
0.0
 10
249.898074
 20
-2.638613
 30
0.0
 10
250.320018
 20
-3.152195
 30
0.0
 10
250.905518
 20
-3.268010
 30
0.0
  0
SPLINE
  5
308
100
AcDbEntity
  8
0
 62
7
100
AcDbSpline
 70
8
 71
3
 72
8
 73
4
 74
0
 40
0
 40
0
 40
0
 40
0
 40
1
 40
1
 40
1
 40
1
 10
251.115322
 20
-4.153174
 30
0.0
 10
251.269865
 20
-4.032988
 30
0.0
 10
251.340047
 20
-3.833663
 30
0.0
 10
251.294895
 20
-3.643165
 30
0.0
  0
SPLINE
  5
309
100
AcDbEntity
  8
0
 62
7
100
AcDbSpline
 70
8
 71
3
 72
8
 73
4
 74
0
 40
0
 40
0
 40
0
 40
0
 40
1
 40
1
 40
1
 40
1
 10
251.294895
 20
-3.643165
 30
0.0
 10
251.249742
 20
-3.452667
 30
0.0
 10
251.097564
 20
-3.306046
 30
0.0
 10
250.905518
 20
-3.268010
 30
0.0
  0
LWPOLYLINE
  5
30a
100
AcDbEntity
  8
0
 62
7
100
AcDbPolyline
 90
2
 70
0
 10
248.645680
 20
-4.715073
 30
0.0
 10
249.471180
 20
-4.715073
 30
0.0
  0
SPLINE
  5
30b
100
AcDbEntity
  8
0
 62
7
100
AcDbSpline
 70
8
 71
3
 72
8
 73
4
 74
0
 40
0
 40
0
 40
0
 40
0
 40
1
 40
1
 40
1
 40
1
 10
0.293002
 20
-4.153174
 30
0.0
 10
0.762579
 20
-4.518455
 30
0.0
 10
1.340527
 20
-4.716776
 30
0.0
 10
1.935450
 20
-4.716775
 30
0.0
  0
SPLINE
  5
30c
100
AcDbEntity
  8
0
 62
7
100
AcDbSpline
 70
8
 71
3
 72
8
 73
4
 74
0
 40
0
 40
0
 40
0
 40
0
 40
1
 40
1
 40
1
 40
1
 10
0.502986
 20
-3.268010
 30
0.0
 10
0.310911
 20
-3.305994
 30
0.0
 10
0.158681
 20
-3.452592
 30
0.0
 10
0.113488
 20
-3.643100
 30
0.0
  0
SPLINE
  5
30d
100
AcDbEntity
  8
0
 62
7
100
AcDbSpline
 70
8
 71
3
 72
8
 73
4
 74
0
 40
0
 40
0
 40
0
 40
0
 40
1
 40
1
 40
1
 40
1
 10
0.113488
 20
-3.643100
 30
0.0
 10
0.068295
 20
-3.833607
 30
0.0
 10
0.138455
 20
-4.032963
 30
0.0
 10
0.293002
 20
-4.153174
 30
0.0
  0
SPLINE
  5
30e
100
AcDbEntity
  8
0
 62
7
100
AcDbSpline
 70
8
 71
3
 72
8
 73
4
 74
0
 40
0
 40
0
 40
0
 40
0
 40
1
 40
1
 40
1
 40
1
 10
0.293002
 20
0.069621
 30
0.0
 10
0.138465
 20
-0.050592
 30
0.0
 10
0.068311
 20
-0.249942
 30
0.0
 10
0.113504
 20
-0.440443
 30
0.0
  0
SPLINE
  5
30f
100
AcDbEntity
  8
0
 62
7
100
AcDbSpline
 70
8
 71
3
 72
8
 73
4
 74
0
 40
0
 40
0
 40
0
 40
0
 40
1
 40
1
 40
1
 40
1
 10
0.113504
 20
-0.440443
 30
0.0
 10
0.158697
 20
-0.630944
 30
0.0
 10
0.310919
 20
-0.777539
 30
0.0
 10
0.502986
 20
-0.815528
 30
0.0
  0
LWPOLYLINE
  5
310
100
AcDbEntity
  8
0
 62
7
100
AcDbPolyline
 90
2
 70
0
 10
249.471180
 20
-70.216593
 30
0.0
 10
248.645680
 20
-70.216593
 30
0.0
  0
LWPOLYLINE
  5
311
100
AcDbEntity
  8
0
 62
7
100
AcDbPolyline
 90
2
 70
0
 10
1.932940
 20
-75.565833
 30
0.0
 10
249.471180
 20
-75.565833
 30
0.0
  0
LWPOLYLINE
  5
312
100
AcDbEntity
  8
0
 62
7
100
AcDbPolyline
 90
2
 70
0
 10
1.932940
 20
-4.715073
 30
0.0
 10
2.758440
 20
-4.715073
 30
0.0
  0
SPLINE
  5
313
100
AcDbEntity
  8
0
 62
7
100
AcDbSpline
 70
8
 71
3
 72
8
 73
4
 74
0
 40
0
 40
0
 40
0
 40
0
 40
1
 40
1
 40
1
 40
1
 10
4.260444
 20
-6.216772
 30
0.0
 10
4.260442
 20
-5.388347
 30
0.0
 10
3.588871
 20
-4.716776
 30
0.0
 10
2.760447
 20
-4.716775
 30
0.0
  0
SPLINE
  5
314
100
AcDbEntity
  8
0
 62
7
100
AcDbSpline
 70
8
 71
3
 72
8
 73
4
 74
0
 40
0
 40
0
 40
0
 40
0
 40
1
 40
1
 40
1
 40
1
 10
1.935447
 20
0.633226
 30
0.0
 10
1.340524
 20
0.633225
 30
0.0
 10
0.762578
 20
0.434903
 30
0.0
 10
0.293002
 20
0.069621
 30
0.0
  0
SPLINE
  5
315
100
AcDbEntity
  8
0
 62
7
100
AcDbSpline
 70
8
 71
3
 72
8
 73
4
 74
0
 40
0
 40
0
 40
0
 40
0
 40
1
 40
1
 40
1
 40
1
 10
251.115322
 20
-70.780473
 30
0.0
 10
250.645770
 20
-70.415201
 30
0.0
 10
250.067855
 20
-70.216872
 30
0.0
 10
249.472958
 20
-70.216847
 30
0.0
  0
LWPOLYLINE
  5
316
100
AcDbEntity
  8
0
 62
7
100
AcDbPolyline
 90
2
 70
0
 10
4.259580
 20
-6.216213
 30
0.0
 10
4.259580
 20
-68.715453
 30
0.0
  0
SPLINE
  5
317
100
AcDbEntity
  8
0
 62
7
100
AcDbSpline
 70
8
 71
3
 72
8
 73
4
 74
0
 40
0
 40
0
 40
0
 40
0
 40
1
 40
1
 40
1
 40
1
 10
251.115322
 20
0.069621
 30
0.0
 10
250.645768
 20
0.434886
 30
0.0
 10
250.067853
 20
0.633207
 30
0.0
 10
249.472958
 20
0.633226
 30
0.0
  0
SPLINE
  5
318
100
AcDbEntity
  8
0
 62
7
100
AcDbSpline
 70
8
 71
3
 72
8
 73
4
 74
0
 40
0
 40
0
 40
0
 40
0
 40
1
 40
1
 40
1
 40
1
 10
250.905518
 20
-0.815528
 30
0.0
 10
251.097556
 20
-0.777487
 30
0.0
 10
251.249727
 20
-0.630869
 30
0.0
 10
251.294879
 20
-0.440378
 30
0.0
  0
SPLINE
  5
319
100
AcDbEntity
  8
0
 62
7
100
AcDbSpline
 70
8
 71
3
 72
8
 73
4
 74
0
 40
0
 40
0
 40
0
 40
0
 40
1
 40
1
 40
1
 40
1
 10
251.294879
 20
-0.440378
 30
0.0
 10
251.340030
 20
-0.249886
 30
0.0
 10
251.269856
 20
-0.050567
 30
0.0
 10
251.115322
 20
0.069621
 30
0.0
  0
LWPOLYLINE
  5
31a
100
AcDbEntity
  8
0
 62
7
100
AcDbPolyline
 90
2
 70
0
 10
249.471180
 20
0.634167
 30
0.0
 10
1.932940
 20
0.634167
 30
0.0
  0
SPLINE
  5
31b
100
AcDbEntity
  8
0
 62
7
100
AcDbSpline
 70
8
 71
3
 72
8
 73
4
 74
0
 40
0
 40
0
 40
0
 40
0
 40
1
 40
1
 40
1
 40
1
 10
20.285456
 20
-15.891784
 30
0.0
 10
20.418064
 20
-15.891784
 30
0.0
 10
20.545241
 20
-15.839106
 30
0.0
 10
20.639009
 20
-15.745338
 30
0.0
  0
SPLINE
  5
31c
100
AcDbEntity
  8
0
 62
7
100
AcDbSpline
 70
8
 71
3
 72
8
 73
4
 74
0
 40
0
 40
0
 40
0
 40
0
 40
1
 40
1
 40
1
 40
1
 10
20.639009
 20
-15.745338
 30
0.0
 10
20.732777
 20
-15.651570
 30
0.0
 10
20.785455
 20
-15.524393
 30
0.0
 10
20.785455
 20
-15.391785
 30
0.0
  0
LWPOLYLINE
  5
31d
100
AcDbEntity
  8
0
 62
7
100
AcDbPolyline
 90
2
 70
0
 10
6.784340
 20
-2.390973
 30
0.0
 10
6.784340
 20
-15.390693
 30
0.0
  0
SPLINE
  5
31e
100
AcDbEntity
  8
0
 62
7
100
AcDbSpline
 70
8
 71
3
 72
8
 73
4
 74
0
 40
0
 40
0
 40
0
 40
0
 40
1
 40
1
 40
1
 40
1
 10
6.785458
 20
-15.391785
 30
0.0
 10
6.785459
 20
-15.667927
 30
0.0
 10
7.009315
 20
-15.891783
 30
0.0
 10
7.285457
 20
-15.891784
 30
0.0
  0
SPLINE
  5
31f
100
AcDbEntity
  8
0
 62
7
100
AcDbSpline
 70
8
 71
3
 72
8
 73
4
 74
0
 40
0
 40
0
 40
0
 40
0
 40
1
 40
1
 40
1
 40
1
 10
7.285457
 20
-1.891762
 30
0.0
 10
7.152844
 20
-1.891762
 30
0.0
 10
7.025664
 20
-1.944443
 30
0.0
 10
6.931895
 20
-2.038217
 30
0.0
  0
SPLINE
  5
320
100
AcDbEntity
  8
0
 62
7
100
AcDbSpline
 70
8
 71
3
 72
8
 73
4
 74
0
 40
0
 40
0
 40
0
 40
0
 40
1
 40
1
 40
1
 40
1
 10
6.931895
 20
-2.038217
 30
0.0
 10
6.838126
 20
-2.131990
 30
0.0
 10
6.785451
 20
-2.259174
 30
0.0
 10
6.785458
 20
-2.391786
 30
0.0
  0
SPLINE
  5
321
100
AcDbEntity
  8
0
 62
7
100
AcDbSpline
 70
8
 71
3
 72
8
 73
4
 74
0
 40
0
 40
0
 40
0
 40
0
 40
1
 40
1
 40
1
 40
1
 10
20.785455
 20
-2.391786
 30
0.0
 10
20.785462
 20
-2.259174
 30
0.0
 10
20.732786
 20
-2.131990
 30
0.0
 10
20.639018
 20
-2.038217
 30
0.0
  0
SPLINE
  5
322
100
AcDbEntity
  8
0
 62
7
100
AcDbSpline
 70
8
 71
3
 72
8
 73
4
 74
0
 40
0
 40
0
 40
0
 40
0
 40
1
 40
1
 40
1
 40
1
 10
20.639018
 20
-2.038217
 30
0.0
 10
20.545249
 20
-1.944443
 30
0.0
 10
20.418068
 20
-1.891762
 30
0.0
 10
20.285456
 20
-1.891762
 30
0.0
  0
LWPOLYLINE
  5
323
100
AcDbEntity
  8
0
 62
7
100
AcDbPolyline
 90
2
 70
0
 10
7.284720
 20
-15.891073
 30
0.0
 10
20.284440
 20
-15.891073
 30
0.0
  0
LWPOLYLINE
  5
324
100
AcDbEntity
  8
0
 62
7
100
AcDbPolyline
 90
2
 70
0
 10
20.784820
 20
-15.390693
 30
0.0
 10
20.784820
 20
-2.390973
 30
0.0
  0
LWPOLYLINE
  5
325
100
AcDbEntity
  8
0
 62
7
100
AcDbPolyline
 90
2
 70
0
 10
20.284440
 20
-1.890593
 30
0.0
 10
7.284720
 20
-1.890593
 30
0.0
  0
ENDSEC
  0
SECTION
  2
OBJECTS
  0
DICTIONARY
  5
C
330
0
100
AcDbDictionary
  3
ACAD_GROUP
350
D
  3
ACAD_MLINESTYLE
350
17
  0
DICTIONARY
  5
D
330
C
100
AcDbDictionary
  0
DICTIONARY
  5
1A
330
C
100
AcDbDictionary
  0
DICTIONARY
  5
17
330
C
100
AcDbDictionary
  3
STANDARD
350
18
  0
DICTIONARY
  5
19
330
C
100
AcDbDictionary
  0
ENDSEC
  0
EOF
