0
SECTION
2
HEADER
9
$INSUNITS
70
4
9
$ACADVER
1
AC1014
9
$HANDSEED
5
FFFF
0
ENDSEC
0
SECTION
2
TABLES
0
TABLE
2
VPORT
5
8
100
AcDbSymbolTable
0
ENDTAB
0
TABLE
2
LTYPE
5
5
100
AcDbSymbolTable
0
LTYPE
5
14
100
AcDbSymbolTableRecord
100
AcDbLinetypeTableRecord
2
BYBLOCK
70
0
0
LTYPE
5
15
100
AcDbSymbolTableRecord
100
AcDbLinetypeTableRecord
2
BYLAYER
70
0
0
ENDTAB
0
TABLE
2
LAYER
5
2
100
AcDbSymbolTable
70
2
0
LAYER
5
50
100
AcDbSymbolTableRecord
100
AcDbLayerTableRecord
2
0
70
0
6
CONTINUOUS
0
ENDTAB
0
TABLE
2
STYLE
5
3
100
AcDbSymbolTable
70
1
0
STYLE
5
11
100
AcDbSymbolTableRecord
100
AcDbTextStyleTableRecord
2
STANDARD
70
0
0
ENDTAB
0
TABLE
2
VIEW
5
6
100
AcDbSymbolTable
70
0
0
ENDTAB
0
TABLE
2
UCS
5
7
100
AcDbSymbolTable
70
0
0
ENDTAB
0
TABLE
2
APPID
5
9
100
AcDbSymbolTable
70
2
0
APPID
5
12
100
AcDbSymbolTableRecord
100
AcDbRegAppTableRecord
2
ACAD
70
0
0
ENDTAB
0
TABLE
2
DIMSTYLE
5
A
100
AcDbSymbolTable
70
1
0
ENDTAB
0
TABLE
2
BLOCK_RECORD
5
1
100
AcDbSymbolTable
70
1
0
BLOCK_RECORD
5
1F
100
AcDbSymbolTableRecord
100
AcDbBlockTableRecord
2
*MODEL_SPACE
0
BLOCK_RECORD
5
1B
100
AcDbSymbolTableRecord
100
AcDbBlockTableRecord
2
*PAPER_SPACE
0
ENDTAB
0
ENDSEC
0
SECTION
2
BLOCKS
0
BLOCK
5
20
100
AcDbEntity
100
AcDbBlockBegin
2
*MODEL_SPACE
0
ENDBLK
5
21
100
AcDbEntity
100
AcDbBlockEnd
0
BLOCK
5
1C
100
AcDbEntity
100
AcDbBlockBegin
2
*PAPER_SPACE
0
ENDBLK
5
1D
100
AcDbEntity
100
AcDbBlockEnd
0
ENDSEC
0
SECTION
2
ENTITIES
0
ARC
5
100
100
AcDbEntity
8
0
100
AcDbCircle
10
-236.9611310695683
20
-4.9445567462538174
30
0
40
0.49999985322062379
210
0
220
0
230
1
100
AcDbArc
50
127.8792952465722
51
258.81201984814504
0
ARC
5
101
100
AcDbEntity
8
0
100
AcDbCircle
10
-235.62568404305824
20
-6.6612996116238161
30
0
40
2.6749998133199981
210
0
220
-0
230
1
100
AcDbArc
50
89.999999997430407
51
127.87921452831111
0
ARC
5
102
100
AcDbEntity
8
0
100
AcDbCircle
10
-236.96112804294827
20
-8.3780410199338178
30
0
40
0.50000019822279973
210
0
220
0
230
1
100
AcDbArc
50
101.18805997462459
51
232.12078457439776
0
ARC
5
103
100
AcDbEntity
8
0
100
AcDbCircle
10
13.247266957073764
20
-8.3780416116638197
30
0
40
0.49999999040505683
210
0
220
0
230
1
100
AcDbArc
50
-52.120704752075646
51
78.812019847495435
0
ARC
5
104
100
AcDbEntity
8
0
100
AcDbCircle
10
-234.80068104293821
20
-2.4862986116638202
30
0
40
1.4999999999999991
210
0
220
0
230
1
100
AcDbArc
50
-90
51
0
0
ARC
5
105
100
AcDbEntity
8
0
100
AcDbCircle
10
-237.30068104294818
20
-6.6612990065638202
30
0
40
1.2499996247140019
210
0
220
0
230
1
100
AcDbArc
50
-78.811908766258526
51
78.812015126959551
0
ARC
5
106
100
AcDbEntity
8
0
100
AcDbCircle
10
11.911818956923771
20
-6.6612996117438161
30
0
40
2.6749998652101885
210
0
220
0
230
1
100
AcDbArc
50
270.00002142193995
51
307.87924237080654
0
ARC
5
107
100
AcDbEntity
8
0
100
AcDbCircle
10
13.586818957053771
20
-6.6612992732238174
30
0
40
1.2499999573880018
210
0
220
0
230
1
100
AcDbArc
50
101.18801520549405
51
258.81192469490901
0
LINE
5
108
100
AcDbEntity
8
0
100
AcDbLine
10
-233.30068104293818
20
60.013700388336197
30
0
11
-233.30068104293821
21
-2.4862986116638202
31
0
0
ARC
5
109
100
AcDbEntity
8
0
100
AcDbCircle
10
-235.62568404305824
20
-6.6612996116238161
30
0
40
2.6749971499109475
210
0
220
0
230
1
100
AcDbArc
50
232.12083239790186
51
270.00007161847225
0
LINE
5
110
100
AcDbEntity
8
0
100
AcDbLine
10
-235.62568069936827
20
-9.3362983929887928
30
0
11
11.911819957061775
21
-9.3362994769538172
31
0
0
ARC
5
111
100
AcDbEntity
8
0
100
AcDbCircle
10
13.247267584519768
20
-4.9445569395738165
30
0
40
0.49999986396517682
210
0
220
0
230
1
100
AcDbArc
50
-78.811940025604855
51
52.120784574703777
0
LINE
5
112
100
AcDbEntity
8
0
100
AcDbLine
10
-234.80068104293821
20
-3.9862986116638193
30
0
11
-235.62568404293827
21
-3.9862997983038184
31
0
0
LINE
5
113
100
AcDbEntity
8
0
100
AcDbLine
10
-235.62568069936827
20
61.51370134777423
30
0
11
-234.80068104293821
21
61.51370038833619
31
0
0
LWPOLYLINE
5
114
100
AcDbEntity
8
0
100
AcDbPolyline
90
8
70
1
43
0.0
10
-121.57940104293823
20
44.597600388336176
10
-121.57940104293823
20
31.597600388336183
42
-0.41421356237307161
10
-122.07940104293824
20
31.097600388336186
10
-135.07940104293823
20
31.097600388336197
42
-0.41421356237310542
10
-135.57940104293823
20
31.597600388336183
10
-135.57940104293823
20
44.597600388336176
42
-0.41421356237309503
10
-135.07940104293823
20
45.097600388336183
10
-122.07940104293824
20
45.097600388336183
42
-0.41421356237307422
0
ARC
5
115
100
AcDbEntity
8
0
100
AcDbCircle
10
-236.96112846515831
20
62.471958980066177
30
0
40
0.50000019822399921
210
0
220
0
230
1
100
AcDbArc
50
101.18805997462709
51
232.12078457349
0
ARC
5
116
100
AcDbEntity
8
0
100
AcDbCircle
10
-234.80068104293821
20
60.013700388336197
30
0
40
1.4999999999999858
210
0
220
0
230
1
100
AcDbArc
50
0
51
90
0
LWPOLYLINE
5
117
100
AcDbEntity
8
0
100
AcDbPolyline
90
8
70
1
43
0.0
10
-173.67700104293823
20
44.597600388336176
42
-0.41421356237314705
10
-173.17700104293823
20
45.097600388336183
10
-160.17700104293826
20
45.097600388336183
42
-0.41421356237309503
10
-159.67700104293826
20
44.597600388336176
10
-159.67700104293826
20
31.597600388336183
42
-0.41421356237309243
10
-160.17700104293826
20
31.097600388336186
10
-173.17700104293823
20
31.097600388336168
42
-0.41421356237310025
10
-173.67700104293823
20
31.597600388336183
0
ARC
5
118
100
AcDbEntity
8
0
100
AcDbCircle
10
-237.30068104294818
20
64.188701323776172
30
0
40
1.2499998668533445
210
0
220
0
230
1
100
AcDbArc
50
-78.811930689101601
51
78.811880975087163
0
ARC
5
119
100
AcDbEntity
8
0
100
AcDbCircle
10
-235.62568104286825
20
64.188701388216174
30
0
40
2.6750000404404872
210
0
220
0
230
1
100
AcDbArc
50
232.12078768719945
51
270.00000735742003
0
LWPOLYLINE
5
120
100
AcDbEntity
8
0
100
AcDbPolyline
90
8
70
1
43
0.0
10
-154.62820104293826
20
31.597600388336183
10
-154.62820104293826
20
44.597600388336176
42
-0.41421356237310542
10
-154.12820104293826
20
45.097600388336183
10
-141.12820104293826
20
45.097600388336183
42
-0.41421356237310542
10
-140.62820104293823
20
44.597600388336176
10
-140.62820104293826
20
31.597600388336183
42
-0.41421356237304563
10
-141.12820104293826
20
31.097600388336186
10
-154.12820104293829
20
31.097600388336186
42
-0.41421356237308982
0
LWPOLYLINE
5
121
100
AcDbEntity
8
0
100
AcDbPolyline
90
8
70
1
43
0.0
10
-144.60380104293824
20
50.14640038833619
10
-131.60380104293824
20
50.14640038833619
42
0.41421356237308982
10
-131.10380104293824
20
50.64640038833619
10
-131.10380104293824
20
63.646400388336197
42
0.41421356237308982
10
-131.60380104293824
20
64.14640038833619
10
-144.60380104293824
20
64.14640038833619
42
0.4142135623730846
10
-145.1038010429383
20
63.646400388336197
10
-145.1038010429383
20
50.64640038833619
42
0.4142135623730846
0
ARC
5
122
100
AcDbEntity
8
0
100
AcDbCircle
10
11.086818957061768
20
60.013701388336209
30
0
40
1.5000000000000036
210
0
220
-0
230
1
100
AcDbArc
50
90
51
180
0
LWPOLYLINE
5
123
100
AcDbEntity
8
0
100
AcDbPolyline
90
8
70
1
43
0.0
10
-183.20140104293827
20
12.548800388336188
10
-183.20140104293827
20
25.548800388336193
42
-0.41421356237316265
10
-182.70140104293827
20
26.048800388336186
10
-169.70140104293824
20
26.048800388336186
42
-0.41421356237312884
10
-169.20140104293824
20
25.548800388336193
10
-169.20140104293822
20
12.548800388336188
42
-0.41421356237312235
10
-169.70140104293824
20
12.048800388336186
10
-182.70140104293827
20
12.048800388336172
42
-0.41421356237310025
0
ARC
5
124
100
AcDbEntity
8
0
100
AcDbCircle
10
160.15380104293828
20
49.646400388336112
30
0
40
0.49999999999995381
210
0
220
-0
230
-1
100
AcDbArc
50
-90.000000000003254
51
0
0
ARC
5
125
100
AcDbEntity
8
0
100
AcDbCircle
10
-236.96112804294827
20
65.905443802376169
30
0
40
0.50000041247171456
210
0
220
0
230
1
100
AcDbArc
50
127.87929524818911
51
258.81201984725851
0
ARC
5
126
100
AcDbEntity
8
0
100
AcDbCircle
10
160.15380104293826
20
63.646400388336168
30
0
40
0.50000000000000711
210
-0
220
0
230
-1
100
AcDbArc
50
0
51
90
0
ARC
5
127
100
AcDbEntity
8
0
100
AcDbCircle
10
13.247266957073764
20
62.471958388336191
30
0
40
0.49999999040312171
210
0
220
0
230
1
100
AcDbArc
50
-52.120704752074928
51
78.812019847495648
0
LINE
5
128
100
AcDbEntity
8
0
100
AcDbLine
10
9.5868189570617641
20
-2.4862986116638202
30
0
11
9.5868189570617641
21
60.013701388336209
31
0
0
ARC
5
129
100
AcDbEntity
8
0
100
AcDbCircle
10
-235.62568104286825
20
64.188701388216174
30
0
40
2.6750000001199936
210
0
220
0
230
1
100
AcDbArc
50
90.000000001499998
51
127.87922001576757
0
ARC
5
130
100
AcDbEntity
8
0
100
AcDbCircle
10
154.15380104293826
20
63.646400388336161
30
0
40
0.49999999999999822
210
0
220
0
230
-1
100
AcDbArc
50
89.999999999996746
51
180
0
ARC
5
131
100
AcDbEntity
8
0
100
AcDbCircle
10
11.911819957181768
20
64.188701388286177
30
0
40
2.6750000403801892
210
0
220
0
230
1
100
AcDbArc
50
269.99997857844693
51
307.87921230866664
0
ARC
5
132
100
AcDbEntity
8
0
100
AcDbCircle
10
11.911819957181768
20
64.188701388286177
30
0
40
2.674999458965146
210
0
220
-0
230
1
100
AcDbArc
50
52.120789461375978
51
90.000000002570317
0
ARC
5
133
100
AcDbEntity
8
0
100
AcDbCircle
10
11.086818957061768
20
-2.4862986116638202
30
0
40
1.5000000000000013
210
0
220
0
230
1
100
AcDbArc
50
180
51
270
0
ARC
5
134
100
AcDbEntity
8
0
100
AcDbCircle
10
11.911818956923771
20
-6.6612996117438161
30
0
40
2.675000654633914
210
0
220
-0
230
1
100
AcDbArc
50
52.120770782534585
51
89.999990441652699
0
LWPOLYLINE
5
135
100
AcDbEntity
8
0
100
AcDbPolyline
90
8
70
1
43
0.0
10
-145.1038010429383
20
12.548800388336188
10
-145.1038010429383
20
25.548800388336193
42
-0.41421356237308721
10
-144.60380104293824
20
26.048800388336186
10
-131.60380104293824
20
26.04880038833619
42
-0.41421356237311063
10
-131.10380104293824
20
25.548800388336193
10
-131.10380104293824
20
12.548800388336188
42
-0.41421356237309503
10
-131.60380104293824
20
12.048800388336186
10
-144.60380104293824
20
12.048800388336186
42
-0.41421356237309115
0
LINE
5
136
100
AcDbEntity
8
0
100
AcDbLine
10
11.911819957061766
20
66.863700847251323
30
0
11
-235.62568104293828
21
66.863701388336167
31
0
0
ARC
5
137
100
AcDbEntity
8
0
100
AcDbCircle
10
13.586819957077768
20
64.188700782406173
30
0
40
1.2500002060020001
210
0
220
0
230
1
100
AcDbArc
50
101.1880859639631
51
258.81188022306867
0
ARC
5
138
100
AcDbEntity
8
0
100
AcDbCircle
10
154.15380104293826
20
49.64640038833614
30
0
40
0.49999999999998934
210
0
220
0
230
-1
100
AcDbArc
50
180
51
270.00000000000324
0
LWPOLYLINE
5
139
100
AcDbEntity
8
0
100
AcDbPolyline
90
8
70
1
43
0.0
10
-55.408601042938237
20
26.048800388336186
42
-0.41421356237309764
10
-54.908601042938244
20
25.548800388336193
10
-54.908601042938237
20
12.548800388336188
42
-0.41421356237308982
10
-55.408601042938244
20
12.048800388336186
10
-68.40860104293823
20
12.048800388336192
42
-0.41421356237310414
10
-68.90860104293823
20
12.548800388336188
10
-68.90860104293823
20
25.548800388336193
42
-0.41421356237308982
10
-68.40860104293823
20
26.048800388336186
0
ARC
5
140
100
AcDbEntity
8
0
100
AcDbCircle
10
13.247266957074766
20
65.905443388326177
30
0
40
0.50000019822427477
210
0
220
0
230
1
100
AcDbArc
50
-78.81194002548618
51
52.120784574648823
0
LINE
5
141
100
AcDbEntity
8
0
100
AcDbLine
10
11.91181940317977
20
-3.9862989571099394
30
0
11
11.086818957061768
21
-3.9862986116638215
31
0
0
LWPOLYLINE
5
142
100
AcDbEntity
8
0
100
AcDbPolyline
90
8
70
1
43
0.0
10
-83.98180104293823
20
31.097600388336186
10
-96.98180104293823
20
31.097600388336186
42
-0.41421356237310025
10
-97.48180104293823
20
31.597600388336183
10
-97.48180104293823
20
44.597600388336176
42
-0.41421356237310542
10
-96.981801042938244
20
45.097600388336183
10
-83.98180104293823
20
45.097600388336183
42
-0.41421356237307422
10
-83.48180104293823
20
44.597600388336176
10
-83.48180104293823
20
31.597600388336183
42
-0.41421356237307161
0
LINE
5
143
100
AcDbEntity
8
0
100
AcDbLine
10
11.086818957061768
20
61.513701388336209
30
0
11
11.911818957061763
21
61.513701347906178
31
0
0
LWPOLYLINE
5
144
100
AcDbEntity
8
0
100
AcDbPolyline
90
8
70
1
43
0.0
10
-87.45740104293823
20
26.048800388336186
10
-74.457401042938244
20
26.048800388336186
42
-0.41421356237310281
10
-73.95740104293823
20
25.548800388336193
10
-73.95740104293823
20
12.548800388336188
42
-0.41421356237307422
10
-74.45740104293823
20
12.048800388336186
10
-87.45740104293823
20
12.048800388336197
42
-0.41421356237310675
10
-87.957401042938244
20
12.548800388336188
10
-87.957401042938244
20
25.548800388336193
42
-0.41421356237308721
0
LWPOLYLINE
5
145
100
AcDbEntity
8
0
100
AcDbPolyline
90
8
70
1
43
0.0
10
-197.77460104293823
20
44.597600388336176
10
-197.77460104293823
20
31.597600388336183
42
-0.41421356237316787
10
-198.27460104293823
20
31.097600388336186
10
-211.27460104293823
20
31.0976003883362
42
-0.41421356237312362
10
-211.77460104293826
20
31.597600388336183
10
-211.77460104293829
20
44.597600388336176
42
-0.41421356237312101
10
-211.27460104293823
20
45.097600388336183
10
-198.27460104293823
20
45.09760038833619
42
-0.41421356237310025
0
LWPOLYLINE
5
146
100
AcDbEntity
8
0
100
AcDbPolyline
90
8
70
1
43
0.0
10
-87.957401042938244
20
63.646400388336197
10
-87.957401042938244
20
50.64640038833619
42
0.41421356237308982
10
-87.45740104293823
20
50.14640038833619
10
-74.45740104293823
20
50.14640038833619
42
0.41421356237309503
10
-73.95740104293823
20
50.64640038833619
10
-73.95740104293823
20
63.646400388336197
42
0.41421356237309503
10
-74.45740104293823
20
64.14640038833619
10
-87.45740104293823
20
64.14640038833619
42
0.41421356237308982
0
LWPOLYLINE
5
147
100
AcDbEntity
8
0
100
AcDbPolyline
90
8
70
1
43
0.0
10
-193.01240104293825
20
63.646400388336197
10
-193.01240104293828
20
50.64640038833619
42
-0.4142135623730846
10
-193.51240104293822
20
50.14640038833619
10
-206.51240104293828
20
50.146400388336161
42
-0.4142135623730846
10
-207.01240104293822
20
50.64640038833619
10
-207.01240104293822
20
63.646400388336197
42
-0.41421356237313667
10
-206.51240104293822
20
64.14640038833619
10
-193.51240104293822
20
64.146400388336204
42
-0.41421356237307422
0
LWPOLYLINE
5
148
100
AcDbEntity
8
0
100
AcDbPolyline
90
8
70
1
43
0.0
10
-120.79280104293824
20
-6.9999996116638243
42
-0.41421356237307422
10
-121.29280104293825
20
-6.4999996116638181
10
-121.29280104293825
20
6.5000003883361845
42
-0.41421356237307161
10
-120.79280104293824
20
7.0000003883361828
10
-107.79280104293825
20
7.0000003883361757
42
-0.41421356237310675
10
-107.29280104293824
20
6.5000003883361854
10
-107.29280104293824
20
-6.4999996116638172
42
-0.41421356237309176
10
-107.79280104293825
20
-6.9999996116638163
0
LWPOLYLINE
5
149
100
AcDbEntity
8
0
100
AcDbPolyline
90
8
70
1
43
0.0
10
-188.25020104293824
20
25.548800388336193
10
-188.2502010429383
20
12.548800388336188
42
-0.41421356237308332
10
-188.75020104293824
20
12.048800388336186
10
-201.75020104293824
20
12.048800388336183
42
-0.41421356237307294
10
-202.2502010429383
20
12.548800388336188
10
-202.2502010429383
20
25.548800388336193
42
-0.41421356237310025
10
-201.75020104293824
20
26.048800388336186
10
-188.75020104293824
20
26.048800388336186
42
-0.41421356237312884
0
LWPOLYLINE
5
150
100
AcDbEntity
8
0
100
AcDbPolyline
90
8
70
1
43
0.0
10
-78.43300104293823
20
31.597600388336183
10
-78.43300104293823
20
44.597600388336176
42
-0.41421356237310025
10
-77.93300104293823
20
45.097600388336183
10
-64.93300104293823
20
45.097600388336183
42
-0.41421356237310025
10
-64.43300104293823
20
44.597600388336176
10
-64.433001042938244
20
31.597600388336183
42
-0.41421356237307422
10
-64.93300104293823
20
31.097600388336186
10
-77.93300104293823
20
31.097600388336183
42
-0.41421356237309764
0
LWPOLYLINE
5
151
100
AcDbEntity
8
0
100
AcDbPolyline
90
8
70
1
43
0.0
10
-185.08250104293822
20
50.146400388336204
42
-0.41421356237312101
10
-185.58250104293822
20
50.64640038833619
10
-185.58250104293825
20
63.646400388336197
42
-0.41421356237312101
10
-185.08250104293822
20
64.14640038833619
10
-172.08250104293822
20
64.146400388336161
42
-0.41421356237309503
10
-171.58250104293825
20
63.646400388336197
10
-171.58250104293825
20
50.64640038833619
42
-0.41421356237310542
10
-172.08250104293822
20
50.14640038833619
0
LWPOLYLINE
5
152
100
AcDbEntity
8
0
100
AcDbPolyline
90
8
70
1
43
0.0
10
-103.03060104293823
20
45.097600388336183
42
-0.41421356237309503
10
-102.53060104293823
20
44.597600388336176
10
-102.53060104293823
20
31.597600388336183
42
-0.41421356237309243
10
-103.03060104293823
20
31.097600388336186
10
-116.03060104293824
20
31.09760038833619
42
-0.41421356237311846
10
-116.53060104293823
20
31.597600388336183
10
-116.53060104293826
20
44.597600388336176
42
-0.41421356237305862
10
-116.03060104293824
20
45.097600388336183
0
LWPOLYLINE
5
153
100
AcDbEntity
8
0
100
AcDbPolyline
90
8
70
1
43
0.0
10
-126.84160104293824
20
7.0000003883361819
42
-0.4142135623731204
10
-126.34160104293825
20
6.5000003883361854
10
-126.34160104293825
20
-6.4999996116638172
42
-0.41421356237305668
10
-126.84160104293824
20
-6.9999996116638163
10
-139.84160104293824
20
-6.9999996116638066
42
-0.4142135623731048
10
-140.34160104293824
20
-6.4999996116638181
10
-140.34160104293824
20
6.5000003883361845
42
-0.41421356237309243
10
-139.84160104293824
20
7.0000003883361828
0
LWPOLYLINE
5
154
100
AcDbEntity
8
0
100
AcDbPolyline
90
8
70
1
43
0.0
10
-101.74400104293824
20
7.0000003883361828
10
-88.744001042938265
20
7.0000003883361908
42
-0.4142135623731048
10
-88.244001042938208
20
6.5000003883361854
10
-88.244001042938208
20
-6.4999996116638172
42
-0.41421356237306123
10
-88.744001042938265
20
-6.9999996116638163
10
-101.74400104293824
20
-6.9999996116638066
42
-0.41421356237310542
10
-102.24400104293824
20
-6.4999996116638181
10
-102.24400104293824
20
6.5000003883361845
42
-0.41421356237309243
0
LWPOLYLINE
5
155
100
AcDbEntity
8
0
100
AcDbPolyline
90
8
70
1
43
0.0
10
-196.98800104293824
20
7.0000003883361828
10
-183.98800104293827
20
7.0000003883361703
42
-0.41421356237312362
10
-183.48800104293827
20
6.5000003883361854
10
-183.48800104293821
20
-6.4999996116638172
42
-0.4142135623731204
10
-183.98800104293827
20
-6.9999996116638163
10
-196.98800104293824
20
-6.9999996116638012
42
-0.41421356237312235
10
-197.48800104293824
20
-6.4999996116638181
10
-197.48800104293827
20
6.5000003883361845
42
-0.4142135623731204
0
LWPOLYLINE
5
156
100
AcDbEntity
8
0
100
AcDbPolyline
90
8
70
1
43
0.0
10
-107.00620104293827
20
12.548800388336188
10
-107.00620104293827
20
25.548800388336193
42
-0.41421356237308721
10
-106.50620104293823
20
26.048800388336186
10
-93.50620104293823
20
26.048800388336186
42
-0.41421356237309764
10
-93.006201042938244
20
25.548800388336193
10
-93.006201042938244
20
12.548800388336188
42
-0.41421356237310153
10
-93.50620104293823
20
12.048800388336186
10
-106.50620104293823
20
12.048800388336186
42
-0.41421356237309115
0
LWPOLYLINE
5
157
100
AcDbEntity
8
0
100
AcDbPolyline
90
8
70
1
43
0.0
10
-164.43920104293824
20
-6.4999996116638172
42
-0.4142135623731204
10
-164.93920104293829
20
-6.9999996116638163
10
-177.93920104293824
20
-6.9999996116638012
42
-0.41421356237312235
10
-178.43920104293827
20
-6.4999996116638181
10
-178.43920104293829
20
6.5000003883361845
42
-0.4142135623731204
10
-177.93920104293824
20
7.0000003883361828
10
-164.93920104293829
20
7.0000003883361703
42
-0.41421356237312362
10
-164.43920104293827
20
6.5000003883361854
0
LWPOLYLINE
5
158
100
AcDbEntity
8
0
100
AcDbPolyline
90
8
70
1
43
0.0
10
-125.55500104293827
20
26.048800388336186
10
-112.55500104293823
20
26.048800388336183
42
-0.41421356237313667
10
-112.05500104293824
20
25.548800388336193
10
-112.0550010429383
20
12.548800388336188
42
-0.41421356237310802
10
-112.55500104293823
20
12.048800388336186
10
-125.55500104293827
20
12.048800388336186
42
-0.41421356237309115
10
-126.05500104293824
20
12.548800388336188
10
-126.05500104293824
20
25.548800388336193
42
-0.41421356237308721
0
LWPOLYLINE
5
159
100
AcDbEntity
8
0
100
AcDbPolyline
90
8
70
1
43
0.0
10
-159.39040104293827
20
-6.4999996116638181
10
-159.39040104293827
20
6.5000003883361845
42
-0.41421356237309243
10
-158.89040104293827
20
7.0000003883361828
10
-145.89040104293829
20
7.0000003883361819
42
-0.41421356237311974
10
-145.39040104293829
20
6.5000003883361854
10
-145.39040104293829
20
-6.4999996116638172
42
-0.41421356237305668
10
-145.89040104293829
20
-6.9999996116638163
10
-158.89040104293827
20
-6.9999996116638066
42
-0.4142135623731048
0
LWPOLYLINE
5
160
100
AcDbEntity
8
0
100
AcDbPolyline
90
8
70
1
43
0.0
10
-232.5113510429382
20
6.5000003883361845
42
-0.41421356237308332
10
-232.01135104293826
20
7.0000003883361828
10
-203.03635104293824
20
7.0000003883361703
42
-0.41421356237312429
10
-202.53635104293824
20
6.5000003883361854
10
-202.53635104293821
20
-6.4999996116638172
42
-0.4142135623731204
10
-203.03635104293824
20
-6.9999996116638163
10
-232.01135104293826
20
-6.9999996116638226
42
-0.41421356237307294
10
-232.51135104293823
20
-6.4999996116638181
0
LWPOLYLINE
5
161
100
AcDbEntity
8
0
100
AcDbPolyline
90
8
70
1
43
0.0
10
-17.31100104293823
20
26.048800388336186
42
-0.41421356237310281
10
-16.81100104293823
20
25.548800388336193
10
-16.81100104293823
20
12.548800388336188
42
-0.4142135623730937
10
-17.31100104293823
20
12.048800388336186
10
-30.311001042938237
20
12.048800388336184
42
-0.41421356237309503
10
-30.811001042938241
20
12.548800388336188
10
-30.811001042938237
20
25.548800388336193
42
-0.41421356237310281
10
-30.311001042938237
20
26.048800388336186
0
LWPOLYLINE
5
162
100
AcDbEntity
8
0
100
AcDbPolyline
90
8
70
1
43
0.0
10
-164.15260104293824
20
12.548800388336188
10
-164.15260104293822
20
25.548800388336193
42
-0.41421356237301959
10
-163.65260104293824
20
26.048800388336186
10
-150.65260104293824
20
26.04880038833619
42
-0.41421356237311063
10
-150.15260104293822
20
25.548800388336193
10
-150.15260104293827
20
12.548800388336188
42
-0.41421356237307294
10
-150.65260104293824
20
12.048800388336186
10
-163.65260104293824
20
12.0488003883362
42
-0.41421356237312495
0
LWPOLYLINE
5
163
100
AcDbEntity
8
0
100
AcDbPolyline
90
8
70
1
43
0.0
10
-45.884201042938244
20
45.097600388336183
42
-0.41421356237310025
10
-45.384201042938244
20
44.597600388336176
10
-45.384201042938258
20
31.597600388336183
42
-0.41421356237309764
10
-45.884201042938244
20
31.097600388336186
10
-58.884201042938223
20
31.097600388336186
42
-0.41421356237307944
10
-59.384201042938251
20
31.597600388336183
10
-59.384201042938258
20
44.597600388336176
42
-0.41421356237310025
10
-58.884201042938223
20
45.097600388336183
0
LWPOLYLINE
5
164
100
AcDbEntity
8
0
100
AcDbPolyline
90
8
70
1
43
0.0
10
-212.56120104293825
20
26.048800388336176
42
-0.41421356237312362
10
-212.06120104293825
20
25.548800388336193
10
-212.06120104293825
20
12.548800388336188
42
-0.41421356237314316
10
-212.56120104293825
20
12.048800388336186
10
-225.56120104293825
20
12.048800388336181
42
-0.41421356237307422
10
-226.06120104293822
20
12.548800388336188
10
-226.06120104293819
20
25.548800388336193
42
-0.41421356237307944
10
-225.56120104293825
20
26.048800388336186
0
LWPOLYLINE
5
165
100
AcDbEntity
8
0
100
AcDbPolyline
90
8
70
1
43
0.0
10
-49.359801042938223
20
26.048800388336186
10
-36.35980104293823
20
26.048800388336186
42
-0.41421356237309764
10
-35.859801042938244
20
25.548800388336193
10
-35.859801042938237
20
12.548800388336188
42
-0.41421356237309892
10
-36.35980104293823
20
12.048800388336186
10
-49.359801042938223
20
12.04880038833619
42
-0.41421356237311063
10
-49.85980104293823
20
12.548800388336188
10
-49.85980104293823
20
25.548800388336193
42
-0.41421356237308982
0
LWPOLYLINE
5
166
100
AcDbEntity
8
0
100
AcDbPolyline
90
8
70
1
43
0.0
10
4.6188989570617665
20
12.548800388336188
42
-0.41421356237309015
10
4.1188989570617647
20
12.048800388336186
10
-8.8811010429382353
20
12.048800388336186
42
-0.41421356237309503
10
-9.3811010429382318
20
12.548800388336188
10
-9.3811010429382353
20
25.548800388336197
42
-0.41421356237308593
10
-8.8811010429382353
20
26.048800388336186
10
4.1188989570617647
20
26.048800388336186
42
-0.41421356237310281
10
4.6188989570617656
20
25.548800388336193
0
LWPOLYLINE
5
167
100
AcDbEntity
8
0
100
AcDbPolyline
90
8
70
1
43
0.0
10
-230.32340104293823
20
45.097600388336183
10
-217.32340104293826
20
45.097600388336154
42
-0.41421356237312101
10
-216.82340104293826
20
44.597600388336176
10
-216.8234010429382
20
31.597600388336183
42
-0.41421356237312101
10
-217.32340104293826
20
31.097600388336186
10
-230.32340104293823
20
31.0976003883362
42
-0.41421356237312362
10
-230.82340104293823
20
31.597600388336183
10
-230.82340104293826
20
44.597600388336176
42
-0.41421356237312101
0
LWPOLYLINE
5
168
100
AcDbEntity
8
0
100
AcDbPolyline
90
8
70
1
43
0.0
10
-26.335401042938233
20
44.597600388336176
10
-26.335401042938233
20
31.597600388336183
42
-0.41421356237309243
10
-26.835401042938237
20
31.097600388336186
10
-39.83540104293823
20
31.097600388336186
42
-0.41421356237310025
10
-40.335401042938244
20
31.597600388336183
10
-40.335401042938258
20
44.597600388336176
42
-0.41421356237309503
10
-39.83540104293823
20
45.097600388336183
10
-26.835401042938237
20
45.097600388336183
42
-0.41421356237309243
0
LWPOLYLINE
5
169
100
AcDbEntity
8
0
100
AcDbPolyline
90
8
70
1
43
0.0
10
-45.097601042938244
20
-6.4999996116638181
10
-45.097601042938237
20
6.5000003883361845
42
-0.41421356237309764
10
-44.597601042938244
20
7.0000003883361828
10
-31.597601042938237
20
7.0000003883361845
42
-0.4142135623730957
10
-31.097601042938237
20
6.5000003883361854
10
-31.097601042938237
20
-6.4999996116638172
42
-0.41421356237310025
10
-31.597601042938237
20
-6.9999996116638163
10
-44.597601042938244
20
-6.999999611663819
42
-0.41421356237309631
0
LWPOLYLINE
5
170
100
AcDbEntity
8
0
100
AcDbPolyline
90
8
70
1
43
0.0
10
-69.195201042938237
20
6.5000003883361854
10
-69.195201042938237
20
-6.4999996116638172
42
-0.41421356237308138
10
-69.695201042938237
20
-6.9999996116638163
10
-82.695201042938265
20
-6.9999996116638048
42
-0.41421356237311452
10
-83.195201042938223
20
-6.4999996116638181
10
-83.195201042938237
20
6.5000003883361845
42
-0.41421356237307294
10
-82.695201042938265
20
7.0000003883361828
10
-69.695201042938237
20
7.0000003883361845
42
-0.41421356237309048
0
LWPOLYLINE
5
171
100
AcDbEntity
8
0
100
AcDbPolyline
90
8
70
1
43
0.0
10
-178.72580104293826
20
31.597600388336183
42
-0.41421356237316787
10
-179.22580104293826
20
31.097600388336186
10
-192.22580104293826
20
31.097600388336176
42
-0.41421356237307422
10
-192.72580104293823
20
31.597600388336183
10
-192.72580104293823
20
44.597600388336176
42
-0.4142135623730846
10
-192.22580104293826
20
45.097600388336183
10
-179.22580104293826
20
45.09760038833619
42
-0.41421356237310025
10
-178.72580104293826
20
44.597600388336176
0
LWPOLYLINE
5
172
100
AcDbEntity
8
0
100
AcDbPolyline
90
8
70
1
43
0.0
10
-0.64330104293823354
20
31.097600388336186
10
-13.643301042938237
20
31.097600388336186
42
-0.41421356237309503
10
-14.143301042938237
20
31.597600388336183
10
-14.143301042938239
20
44.597600388336161
42
-0.41421356237308204
10
-13.643301042938237
20
45.097600388336183
10
-0.64330104293823376
20
45.097600388336183
42
-0.41421356237308182
10
-0.14330104293823531
20
44.597600388336176
10
-0.14330104293823448
20
31.597600388336183
42
-0.41421356237309553
0
LWPOLYLINE
5
173
100
AcDbEntity
8
0
100
AcDbPolyline
90
8
70
1
43
0.0
10
-14.429901042938235
20
63.646400388336197
10
-14.429901042938237
20
50.64640038833619
42
-0.41421356237309503
10
-14.929901042938237
20
50.14640038833619
10
-27.929901042938241
20
50.14640038833619
42
-0.41421356237308204
10
-28.429901042938237
20
50.64640038833619
10
-28.429901042938234
20
63.646400388336204
42
-0.41421356237309764
10
-27.929901042938241
20
64.14640038833619
10
-14.929901042938237
20
64.146400388336176
42
-0.41421356237310414
0
LWPOLYLINE
5
174
100
AcDbEntity
8
0
100
AcDbPolyline
90
8
70
1
43
0.0
10
-63.646401042938258
20
7.0000003883361828
10
-50.646401042938251
20
7.0000003883361774
42
-0.41421356237310153
10
-50.146401042938251
20
6.5000003883361854
10
-50.146401042938251
20
-6.4999996116638172
42
-0.41421356237307488
10
-50.646401042938251
20
-6.9999996116638163
10
-63.646401042938265
20
-6.999999611663811
42
-0.41421356237309764
10
-64.146401042938237
20
-6.4999996116638181
10
-64.146401042938251
20
6.5000003883361845
42
-0.4142135623731022
0
LWPOLYLINE
5
175
100
AcDbEntity
8
0
100
AcDbPolyline
90
8
70
1
43
0.0
10
-36.35980104293823
20
50.14640038833619
10
-49.359801042938223
20
50.14640038833619
42
-0.41421356237307944
10
-49.85980104293823
20
50.64640038833619
10
-49.85980104293823
20
63.646400388336197
42
-0.41421356237307944
10
-49.359801042938223
20
64.14640038833619
10
-36.35980104293823
20
64.14640038833619
42
-0.41421356237310542
10
-35.859801042938244
20
63.646400388336197
10
-35.859801042938244
20
50.64640038833619
42
-0.41421356237310025
0
LWPOLYLINE
5
176
100
AcDbEntity
8
0
100
AcDbPolyline
90
8
70
1
43
0.0
10
-7.00000104293823
20
63.646400388336197
42
-0.4142135623731022
10
-6.500001042938238
20
64.14640038833619
10
6.4999989570617691
20
64.14640038833619
42
-0.41421356237310281
10
6.9999989570617682
20
63.646400388336197
10
6.9999989570617629
20
50.646400388336197
42
-0.41421356237310281
10
6.49999895706177
20
50.14640038833619
10
-6.5000010429382371
20
50.14640038833619
42
-0.41421356237307422
10
-7.0000010429382353
20
50.64640038833619
0
LWPOLYLINE
5
177
100
AcDbEntity
8
0
100
AcDbPolyline
90
8
70
1
43
0.0
10
-26.048801042938234
20
-6.4999996116638181
10
-26.04880104293823
20
6.5000003883361845
42
-0.41421356237309631
10
-25.548801042938237
20
7.0000003883361828
10
-12.548801042938235
20
7.0000003883361828
42
-0.4142135623730937
10
-12.048801042938235
20
6.5000003883361854
10
-12.04880104293823
20
-6.4999996116638172
42
-0.41421356237309437
10
-12.548801042938235
20
-6.9999996116638163
10
-25.548801042938237
20
-6.9999996116638163
42
-0.41421356237309503
0
LWPOLYLINE
5
178
100
AcDbEntity
8
0
100
AcDbPolyline
90
8
70
1
43
0.0
10
6.49999895706177
20
-6.9999996116638163
10
-6.5000010429382371
20
-6.9999996116638163
42
-0.41421356237309503
10
-7.0000010429382353
20
-6.4999996116638181
10
-7.0000010429382353
20
6.5000003883361845
42
-0.41421356237309437
10
-6.500001042938238
20
7.0000003883361828
10
6.4999989570617691
20
7.0000003883361828
42
-0.4142135623730957
10
6.9999989570617682
20
6.5000003883361854
10
6.9999989570617682
20
-6.4999996116638172
42
-0.4142135623730957
0
LWPOLYLINE
5
179
100
AcDbEntity
8
0
100
AcDbPolyline
90
8
70
1
43
0.0
10
-228.44230104293828
20
63.646400388336197
42
-0.41421356237312101
10
-227.94230104293825
20
64.14640038833619
10
-214.94230104293823
20
64.14640038833619
42
-0.41421356237313145
10
-214.44230104293823
20
63.646400388336197
10
-214.44230104293823
20
50.64640038833619
42
-0.41421356237313667
10
-214.94230104293823
20
50.14640038833619
10
-227.94230104293825
20
50.146400388336204
42
-0.41421356237312101
10
-228.44230104293825
20
50.64640038833619
0
LINE
5
180
100
AcDbEntity
8
0
100
AcDbLine
10
-153.65380104293826
20
63.646400388336161
30
0
11
-153.65380104293826
21
49.646400388336154
31
0
0
LINE
5
181
100
AcDbEntity
8
0
100
AcDbLine
10
-160.65380104293826
20
49.646400388336154
30
0
11
-160.65380104293826
21
63.646400388336161
31
0
0
LINE
5
182
100
AcDbEntity
8
0
100
AcDbLine
10
-160.15380104293826
20
64.146400388336176
30
0
11
-154.15380104293828
21
64.146400388336161
31
0
0
LINE
5
183
100
AcDbEntity
8
0
100
AcDbLine
10
-157.15380104293826
20
64.146400388336161
30
0
11
-138.10380104293824
21
64.14640038833619
31
0
0
LINE
5
184
100
AcDbEntity
8
0
100
AcDbLine
10
-160.15380104293826
20
49.146400388336161
30
0
11
-154.15380104293828
21
49.146400388336161
31
0
0
LINE
5
185
100
AcDbEntity
8
0
100
AcDbLine
10
-160.15380104293826
20
64.146400388336176
30
0
11
-154.15380104293828
21
64.146400388336161
31
0
0
ARC
5
186
100
AcDbEntity
8
0
100
AcDbCircle
10
160.15380104293826
20
63.646400388336168
30
0
40
0.50000000000000711
210
-0
220
0
230
-1
100
AcDbArc
50
0
51
90
0
ARC
5
187
100
AcDbEntity
8
0
100
AcDbCircle
10
154.15380104293826
20
63.646400388336161
30
0
40
0.49999999999999822
210
0
220
0
230
-1
100
AcDbArc
50
89.999999999996746
51
180
0
LINE
5
188
100
AcDbEntity
8
0
100
AcDbLine
10
-153.65380104293826
20
63.646400388336161
30
0
11
-153.65380104293826
21
49.646400388336154
31
0
0
LINE
5
189
100
AcDbEntity
8
0
100
AcDbLine
10
-160.65380104293826
20
49.646400388336154
30
0
11
-160.65380104293826
21
63.646400388336161
31
0
0
ARC
5
190
100
AcDbEntity
8
0
100
AcDbCircle
10
160.15380104293828
20
49.646400388336112
30
0
40
0.49999999999995381
210
0
220
-0
230
-1
100
AcDbArc
50
-90.000000000003254
51
0
0
LINE
5
191
100
AcDbEntity
8
0
100
AcDbLine
10
-160.15380104293826
20
49.146400388336161
30
0
11
-154.15380104293828
21
49.146400388336161
31
0
0
ARC
5
192
100
AcDbEntity
8
0
100
AcDbCircle
10
154.15380104293826
20
49.64640038833614
30
0
40
0.49999999999998934
210
0
220
0
230
-1
100
AcDbArc
50
180
51
270.00000000000324
0
LINE
5
193
100
AcDbEntity
8
0
100
AcDbLine
10
-122.05380104293825
20
64.146400388336176
30
0
11
-116.05380104293828
21
64.146400388336161
31
0
0
ARC
5
194
100
AcDbEntity
8
0
100
AcDbCircle
10
122.05380104293825
20
63.646400388336168
30
0
40
0.50000000000000711
210
-0
220
0
230
-1
100
AcDbArc
50
0
51
90
0
ARC
5
195
100
AcDbEntity
8
0
100
AcDbCircle
10
116.05380104293826
20
63.646400388336161
30
0
40
0.49999999999999822
210
0
220
0
230
-1
100
AcDbArc
50
89.99999999999838
51
180
0
LINE
5
196
100
AcDbEntity
8
0
100
AcDbLine
10
-115.55380104293826
20
63.646400388336161
30
0
11
-115.55380104293826
21
49.646400388336154
31
0
0
LINE
5
197
100
AcDbEntity
8
0
100
AcDbLine
10
-122.55380104293826
20
49.646400388336154
30
0
11
-122.55380104293826
21
63.646400388336161
31
0
0
ARC
5
198
100
AcDbEntity
8
0
100
AcDbCircle
10
122.05380104293829
20
49.646400388336112
30
0
40
0.49999999999995381
210
0
220
-0
230
-1
100
AcDbArc
50
-90.000000000004889
51
0
0
LINE
5
199
100
AcDbEntity
8
0
100
AcDbLine
10
-122.05380104293825
20
49.146400388336161
30
0
11
-116.05380104293828
21
49.146400388336161
31
0
0
ARC
5
200
100
AcDbEntity
8
0
100
AcDbCircle
10
116.05380104293826
20
49.64640038833614
30
0
40
0.49999999999998934
210
0
220
0
230
-1
100
AcDbArc
50
180
51
270.00000000000159
0
LINE
5
201
100
AcDbEntity
8
0
100
AcDbLine
10
-103.00380104293824
20
64.146400388336176
30
0
11
-97.003801042938264
21
64.146400388336161
31
0
0
ARC
5
202
100
AcDbEntity
8
0
100
AcDbCircle
10
103.00380104293824
20
63.646400388336168
30
0
40
0.50000000000000711
210
-0
220
0
230
-1
100
AcDbArc
50
0
51
90
0
ARC
5
203
100
AcDbEntity
8
0
100
AcDbCircle
10
97.00380104293825
20
63.646400388336161
30
0
40
0.49999999999999822
210
0
220
0
230
-1
100
AcDbArc
50
89.99999999999838
51
180
0
LINE
5
204
100
AcDbEntity
8
0
100
AcDbLine
10
-96.50380104293825
20
63.646400388336161
30
0
11
-96.50380104293825
21
49.646400388336154
31
0
0
LINE
5
205
100
AcDbEntity
8
0
100
AcDbLine
10
-103.50380104293825
20
49.646400388336154
30
0
11
-103.50380104293825
21
63.646400388336161
31
0
0
ARC
5
206
100
AcDbEntity
8
0
100
AcDbCircle
10
103.00380104293828
20
49.646400388336112
30
0
40
0.49999999999995381
210
0
220
-0
230
-1
100
AcDbArc
50
-90.000000000004889
51
0
0
LINE
5
207
100
AcDbEntity
8
0
100
AcDbLine
10
-103.00380104293824
20
49.146400388336161
30
0
11
-97.003801042938264
21
49.146400388336161
31
0
0
ARC
5
208
100
AcDbEntity
8
0
100
AcDbCircle
10
97.00380104293825
20
49.64640038833614
30
0
40
0.49999999999998934
210
0
220
0
230
-1
100
AcDbArc
50
180
51
270.00000000000159
0
LINE
5
209
100
AcDbEntity
8
0
100
AcDbLine
10
-64.903801042938255
20
64.146400388336176
30
0
11
-58.903801042938269
21
64.146400388336161
31
0
0
ARC
5
210
100
AcDbEntity
8
0
100
AcDbCircle
10
64.903801042938255
20
63.646400388336168
30
0
40
0.50000000000000711
210
-0
220
0
230
-1
100
AcDbArc
50
0
51
90
0
ARC
5
211
100
AcDbEntity
8
0
100
AcDbCircle
10
58.903801042938255
20
63.646400388336161
30
0
40
0.49999999999999822
210
0
220
0
230
-1
100
AcDbArc
50
89.99999999999838
51
180
0
LINE
5
212
100
AcDbEntity
8
0
100
AcDbLine
10
-58.403801042938269
20
63.646400388336161
30
0
11
-58.403801042938269
21
49.646400388336154
31
0
0
LINE
5
213
100
AcDbEntity
8
0
100
AcDbLine
10
-65.403801042938255
20
49.646400388336154
30
0
11
-65.403801042938255
21
63.646400388336161
31
0
0
ARC
5
214
100
AcDbEntity
8
0
100
AcDbCircle
10
64.903801042938284
20
49.646400388336112
30
0
40
0.49999999999995381
210
0
220
-0
230
-1
100
AcDbArc
50
-90.000000000003254
51
0
0
LINE
5
215
100
AcDbEntity
8
0
100
AcDbLine
10
-64.903801042938255
20
49.146400388336161
30
0
11
-58.903801042938269
21
49.146400388336161
31
0
0
ARC
5
216
100
AcDbEntity
8
0
100
AcDbCircle
10
58.903801042938255
20
49.64640038833614
30
0
40
0.49999999999998934
210
0
220
0
230
-1
100
AcDbArc
50
180
51
270.00000000000159
0
ENDSEC
0
SECTION
2
OBJECTS
0
DICTIONARY
5
C
100
AcDbDictionary
3
ACAD_GROUP
350
D
3
ACAD_MLINESTYLE
350
17
0
DICTIONARY
5
D
100
AcDbDictionary
0
DICTIONARY
5
1A
330
C
100
AcDbDictionary
0
DICTIONARY
5
17
100
AcDbDictionary
0
ENDSEC
0
EOF
