M48
; DRILL file {KiCad (5.1.4)-1} date 12/3/2020 11:49:37
; FORMAT={-:-/ absolute / inch / decimal}
; #@! TF.CreationDate,2020-12-03T11:49:37-06:00
; #@! TF.GenerationSoftware,Kicad,Pcbnew,(5.1.4)-1
; #@! TF.FileFunction,Plated,1,2,PTH
FMAT,2
INCH
T1C0.0157
T2C0.0236
T3C0.0394
T4C0.0579
T5C0.0591
T6C0.0866
%
G90
G05
T1
X7.9875Y-7.9163
X8.1925Y-9.5963
X8.1975Y-8.0963
X8.2325Y-8.6863
X8.2925Y-8.0963
X8.345Y-9.6263
X8.3625Y-9.1263
X8.3635Y-9.2413
X8.3825Y-8.8463
X8.4376Y-9.6263
X8.4561Y-9.2413
X8.4575Y-9.1263
X8.4575Y-9.3613
X8.4725Y-8.8463
X8.9375Y-9.5963
X9.7538Y-9.31
X9.7825Y-9.5963
X9.8925Y-9.5963
X10.1525Y-9.2863
X11.1825Y-9.3563
X11.2264Y-9.2274
X11.3775Y-9.5963
X11.3875Y-9.5463
X11.6325Y-9.8563
X11.6575Y-9.7713
X11.7475Y-9.3163
X11.7475Y-9.6013
X11.8825Y-9.1613
X11.8975Y-9.2663
X11.9525Y-9.0863
X11.9575Y-9.1913
X11.9975Y-9.3563
X11.9975Y-9.6063
X12.0125Y-9.7713
X12.0525Y-9.0063
X12.2225Y-9.7913
X12.2325Y-9.1863
X12.2525Y-9.3513
X12.2525Y-9.6063
X12.3354Y-9.2479
X12.3633Y-9.7562
X12.4075Y-9.2713
X12.5725Y-9.3263
X12.5975Y-9.7563
X12.6175Y-9.8563
X12.9175Y-9.5963
X13.289Y-8.8763
X13.4011Y-8.8763
X13.4722Y-9.0678
X13.9125Y-8.8463
X14.409Y-8.1263
X14.5275Y-8.1263
X14.5325Y-9.0864
X14.6225Y-9.8463
X14.8275Y-9.7013
X14.9725Y-9.1163
X15.0375Y-8.0963
X15.0975Y-9.6813
X15.1999Y-7.5439
X15.5375Y-9.7713
X15.6639Y-7.4298
X15.7025Y-7.1888
X15.7151Y-7.4406
X15.74Y-7.3363
X15.7875Y-7.6763
X15.7875Y-8.0963
X15.83Y-7.3313
X15.83Y-7.4763
X15.9214Y-7.336
X15.9225Y-7.7113
X15.955Y-7.1901
X16.1525Y-7.1213
X16.3829Y-9.8061
X16.3925Y-7.4913
X16.4223Y-9.806
X16.4616Y-9.8063
X16.5875Y-7.0863
T3
X16.6205Y-7.0074
X16.6205Y-7.5783
X16.7189Y-7.5783
X16.8174Y-7.0074
X16.8174Y-7.5783
T4
X15.35Y-7.9313
X15.6Y-7.8313
X14.7438Y-9.7313
X14.9938Y-9.6313
X15.5375Y-9.4313
X15.7875Y-9.3313
X9.35Y-9.4313
X9.6Y-9.3313
X14.5996Y-7.9312
X14.8496Y-7.8312
X9.35Y-7.9313
X9.6Y-7.8313
X11.225Y-8.6813
X11.475Y-8.5813
X12.35Y-7.9313
X12.6Y-7.8313
X12.9125Y-7.1813
X13.1625Y-7.0813
X10.6625Y-7.1813
X10.9125Y-7.0813
X8.5063Y-9.4313
X8.7563Y-9.3313
X9.1625Y-7.1813
X9.4125Y-7.0813
X11.4125Y-7.1813
X11.6625Y-7.0813
X8.975Y-8.6813
X9.225Y-8.5813
X7.9438Y-8.6813
X8.1938Y-8.5813
X16.475Y-8.6813
X16.725Y-8.5813
X7.7563Y-7.9313
X8.0063Y-7.8313
X9.725Y-8.6813
X9.975Y-8.5813
X7.6625Y-7.1813
X7.9125Y-7.0813
X11.975Y-8.6813
X12.225Y-8.5813
X10.475Y-8.6813
X10.725Y-8.5813
X10.1Y-7.9313
X10.35Y-7.8313
X14.225Y-8.6813
X14.475Y-8.5813
X13.85Y-7.9313
X14.1Y-7.8313
X11.6Y-7.9313
X11.85Y-7.8313
X14.4125Y-7.1813
X14.6625Y-7.0813
X13.1Y-9.4313
X13.35Y-9.3313
X13.6625Y-7.1813
X13.9125Y-7.0813
X12.1625Y-7.1813
X12.4125Y-7.0813
X15.725Y-8.6813
X15.975Y-8.5813
X16.2875Y-7.9313
X16.5375Y-7.8313
X7.6625Y-9.4313
X7.9125Y-9.3313
X16.3813Y-9.4313
X16.6313Y-9.3313
X8.4125Y-7.1813
X8.6625Y-7.0813
X16.1938Y-7.1813
X16.4438Y-7.0813
X8.6Y-7.9313
X8.85Y-7.8313
X13.475Y-8.6813
X13.725Y-8.5813
X10.85Y-7.9313
X11.1Y-7.8313
X14.975Y-8.6813
X15.225Y-8.5813
X13.1Y-7.9313
X13.35Y-7.8313
X9.9125Y-7.1813
X10.1625Y-7.0813
X15.1625Y-7.1813
X15.4125Y-7.0813
X15.9625Y-7.4813
X16.2125Y-7.3813
X12.725Y-8.6813
X12.975Y-8.5813
X10.85Y-9.4313
X11.1Y-9.3313
T6
X8.6708Y-7.6562
X8.6078Y-9.0253
X11.6708Y-7.6563
X10.4562Y-9.4761
X12.8775Y-8.4063
X15.7279Y-7.5725
T2
G00X15.6581Y-6.9256
M15
G01X15.6581Y-6.9492
M16
G05
G00X15.6581Y-7.0803
M15
G01X15.6581Y-7.1236
M16
G05
G00X15.9982Y-6.9256
M15
G01X15.9982Y-6.9492
M16
G05
G00X15.9982Y-7.0803
M15
G01X15.9982Y-7.1236
M16
G05
T5
G00X16.4985Y-7.3086
M15
G01X16.4985Y-7.2574
M16
G05
G00X16.9394Y-7.3086
M15
G01X16.9394Y-7.2574
M16
G05
T0
M30
