G04 #@! TF.GenerationSoftware,KiCad,Pcbnew,(5.1.4)-1*
G04 #@! TF.CreationDate,2020-12-03T11:49:32-06:00*
G04 #@! TF.ProjectId,m3n3van,6d336e33-7661-46e2-9e6b-696361645f70,rev?*
G04 #@! TF.SameCoordinates,Original*
G04 #@! TF.FileFunction,Other,Fab,Top*
%FSLAX46Y46*%
G04 Gerber Fmt 4.6, Leading zero omitted, Abs format (unit mm)*
G04 Created by KiCad (PCBNEW (5.1.4)-1) date 2020-12-03 11:49:32*
%MOMM*%
%LPD*%
G04 APERTURE LIST*
%ADD10C,0.120000*%
%ADD11C,0.150000*%
G04 APERTURE END LIST*
D10*
X424661200Y-187987800D02*
X424661200Y-181987800D01*
X421661200Y-184987800D02*
X427661200Y-184987800D01*
X419961200Y-190987800D02*
X418861200Y-189987800D01*
X430461200Y-190987800D02*
X419961200Y-190987800D01*
X430461200Y-178987800D02*
X430461200Y-190987800D01*
X418861200Y-178987800D02*
X430461200Y-178987800D01*
X418861200Y-189987800D02*
X418861200Y-178987800D01*
X427661200Y-184987800D02*
G75*
G03X427661200Y-184987800I-3000000J0D01*
G01*
D11*
X213666071Y-198121130D02*
X213666071Y-197121130D01*
X213999404Y-197835416D01*
X214332738Y-197121130D01*
X214332738Y-198121130D01*
X214951785Y-198121130D02*
X214856547Y-198073511D01*
X214808928Y-198025892D01*
X214761309Y-197930654D01*
X214761309Y-197644940D01*
X214808928Y-197549702D01*
X214856547Y-197502083D01*
X214951785Y-197454464D01*
X215094642Y-197454464D01*
X215189880Y-197502083D01*
X215237500Y-197549702D01*
X215285119Y-197644940D01*
X215285119Y-197930654D01*
X215237500Y-198025892D01*
X215189880Y-198073511D01*
X215094642Y-198121130D01*
X214951785Y-198121130D01*
X216142261Y-197454464D02*
X216142261Y-198121130D01*
X215713690Y-197454464D02*
X215713690Y-197978273D01*
X215761309Y-198073511D01*
X215856547Y-198121130D01*
X215999404Y-198121130D01*
X216094642Y-198073511D01*
X216142261Y-198025892D01*
X216618452Y-197454464D02*
X216618452Y-198121130D01*
X216618452Y-197549702D02*
X216666071Y-197502083D01*
X216761309Y-197454464D01*
X216904166Y-197454464D01*
X216999404Y-197502083D01*
X217047023Y-197597321D01*
X217047023Y-198121130D01*
X217380357Y-197454464D02*
X217761309Y-197454464D01*
X217523214Y-197121130D02*
X217523214Y-197978273D01*
X217570833Y-198073511D01*
X217666071Y-198121130D01*
X217761309Y-198121130D01*
X218094642Y-198121130D02*
X218094642Y-197454464D01*
X218094642Y-197121130D02*
X218047023Y-197168750D01*
X218094642Y-197216369D01*
X218142261Y-197168750D01*
X218094642Y-197121130D01*
X218094642Y-197216369D01*
X218570833Y-197454464D02*
X218570833Y-198121130D01*
X218570833Y-197549702D02*
X218618452Y-197502083D01*
X218713690Y-197454464D01*
X218856547Y-197454464D01*
X218951785Y-197502083D01*
X218999404Y-197597321D01*
X218999404Y-198121130D01*
X219904166Y-197454464D02*
X219904166Y-198263988D01*
X219856547Y-198359226D01*
X219808928Y-198406845D01*
X219713690Y-198454464D01*
X219570833Y-198454464D01*
X219475595Y-198406845D01*
X219904166Y-198073511D02*
X219808928Y-198121130D01*
X219618452Y-198121130D01*
X219523214Y-198073511D01*
X219475595Y-198025892D01*
X219427976Y-197930654D01*
X219427976Y-197644940D01*
X219475595Y-197549702D01*
X219523214Y-197502083D01*
X219618452Y-197454464D01*
X219808928Y-197454464D01*
X219904166Y-197502083D01*
X220380357Y-198121130D02*
X220380357Y-197121130D01*
X220380357Y-197597321D02*
X220951785Y-197597321D01*
X220951785Y-198121130D02*
X220951785Y-197121130D01*
X221570833Y-198121130D02*
X221475595Y-198073511D01*
X221427976Y-198025892D01*
X221380357Y-197930654D01*
X221380357Y-197644940D01*
X221427976Y-197549702D01*
X221475595Y-197502083D01*
X221570833Y-197454464D01*
X221713690Y-197454464D01*
X221808928Y-197502083D01*
X221856547Y-197549702D01*
X221904166Y-197644940D01*
X221904166Y-197930654D01*
X221856547Y-198025892D01*
X221808928Y-198073511D01*
X221713690Y-198121130D01*
X221570833Y-198121130D01*
X222475595Y-198121130D02*
X222380357Y-198073511D01*
X222332738Y-197978273D01*
X222332738Y-197121130D01*
X223237500Y-198073511D02*
X223142261Y-198121130D01*
X222951785Y-198121130D01*
X222856547Y-198073511D01*
X222808928Y-197978273D01*
X222808928Y-197597321D01*
X222856547Y-197502083D01*
X222951785Y-197454464D01*
X223142261Y-197454464D01*
X223237500Y-197502083D01*
X223285119Y-197597321D01*
X223285119Y-197692559D01*
X222808928Y-197787797D01*
X223475595Y-198216369D02*
X224237500Y-198216369D01*
X224475595Y-198121130D02*
X224475595Y-197121130D01*
X224856547Y-197121130D01*
X224951785Y-197168750D01*
X224999404Y-197216369D01*
X225047023Y-197311607D01*
X225047023Y-197454464D01*
X224999404Y-197549702D01*
X224951785Y-197597321D01*
X224856547Y-197644940D01*
X224475595Y-197644940D01*
X225904166Y-198121130D02*
X225904166Y-197597321D01*
X225856547Y-197502083D01*
X225761309Y-197454464D01*
X225570833Y-197454464D01*
X225475595Y-197502083D01*
X225904166Y-198073511D02*
X225808928Y-198121130D01*
X225570833Y-198121130D01*
X225475595Y-198073511D01*
X225427976Y-197978273D01*
X225427976Y-197883035D01*
X225475595Y-197787797D01*
X225570833Y-197740178D01*
X225808928Y-197740178D01*
X225904166Y-197692559D01*
X226808928Y-198121130D02*
X226808928Y-197121130D01*
X226808928Y-198073511D02*
X226713690Y-198121130D01*
X226523214Y-198121130D01*
X226427976Y-198073511D01*
X226380357Y-198025892D01*
X226332738Y-197930654D01*
X226332738Y-197644940D01*
X226380357Y-197549702D01*
X226427976Y-197502083D01*
X226523214Y-197454464D01*
X226713690Y-197454464D01*
X226808928Y-197502083D01*
X219775595Y-194921130D02*
X219775595Y-193921130D01*
X219775595Y-194397321D02*
X220347023Y-194397321D01*
X220347023Y-194921130D02*
X220347023Y-193921130D01*
X221347023Y-194921130D02*
X220775595Y-194921130D01*
X221061309Y-194921130D02*
X221061309Y-193921130D01*
X220966071Y-194063988D01*
X220870833Y-194159226D01*
X220775595Y-194206845D01*
X212066071Y-232895130D02*
X212066071Y-231895130D01*
X212399404Y-232609416D01*
X212732738Y-231895130D01*
X212732738Y-232895130D01*
X213351785Y-232895130D02*
X213256547Y-232847511D01*
X213208928Y-232799892D01*
X213161309Y-232704654D01*
X213161309Y-232418940D01*
X213208928Y-232323702D01*
X213256547Y-232276083D01*
X213351785Y-232228464D01*
X213494642Y-232228464D01*
X213589880Y-232276083D01*
X213637500Y-232323702D01*
X213685119Y-232418940D01*
X213685119Y-232704654D01*
X213637500Y-232799892D01*
X213589880Y-232847511D01*
X213494642Y-232895130D01*
X213351785Y-232895130D01*
X214542261Y-232228464D02*
X214542261Y-232895130D01*
X214113690Y-232228464D02*
X214113690Y-232752273D01*
X214161309Y-232847511D01*
X214256547Y-232895130D01*
X214399404Y-232895130D01*
X214494642Y-232847511D01*
X214542261Y-232799892D01*
X215018452Y-232228464D02*
X215018452Y-232895130D01*
X215018452Y-232323702D02*
X215066071Y-232276083D01*
X215161309Y-232228464D01*
X215304166Y-232228464D01*
X215399404Y-232276083D01*
X215447023Y-232371321D01*
X215447023Y-232895130D01*
X215780357Y-232228464D02*
X216161309Y-232228464D01*
X215923214Y-231895130D02*
X215923214Y-232752273D01*
X215970833Y-232847511D01*
X216066071Y-232895130D01*
X216161309Y-232895130D01*
X216494642Y-232895130D02*
X216494642Y-232228464D01*
X216494642Y-231895130D02*
X216447023Y-231942750D01*
X216494642Y-231990369D01*
X216542261Y-231942750D01*
X216494642Y-231895130D01*
X216494642Y-231990369D01*
X216970833Y-232228464D02*
X216970833Y-232895130D01*
X216970833Y-232323702D02*
X217018452Y-232276083D01*
X217113690Y-232228464D01*
X217256547Y-232228464D01*
X217351785Y-232276083D01*
X217399404Y-232371321D01*
X217399404Y-232895130D01*
X218304166Y-232228464D02*
X218304166Y-233037988D01*
X218256547Y-233133226D01*
X218208928Y-233180845D01*
X218113690Y-233228464D01*
X217970833Y-233228464D01*
X217875595Y-233180845D01*
X218304166Y-232847511D02*
X218208928Y-232895130D01*
X218018452Y-232895130D01*
X217923214Y-232847511D01*
X217875595Y-232799892D01*
X217827976Y-232704654D01*
X217827976Y-232418940D01*
X217875595Y-232323702D01*
X217923214Y-232276083D01*
X218018452Y-232228464D01*
X218208928Y-232228464D01*
X218304166Y-232276083D01*
X218780357Y-232895130D02*
X218780357Y-231895130D01*
X218780357Y-232371321D02*
X219351785Y-232371321D01*
X219351785Y-232895130D02*
X219351785Y-231895130D01*
X219970833Y-232895130D02*
X219875595Y-232847511D01*
X219827976Y-232799892D01*
X219780357Y-232704654D01*
X219780357Y-232418940D01*
X219827976Y-232323702D01*
X219875595Y-232276083D01*
X219970833Y-232228464D01*
X220113690Y-232228464D01*
X220208928Y-232276083D01*
X220256547Y-232323702D01*
X220304166Y-232418940D01*
X220304166Y-232704654D01*
X220256547Y-232799892D01*
X220208928Y-232847511D01*
X220113690Y-232895130D01*
X219970833Y-232895130D01*
X220875595Y-232895130D02*
X220780357Y-232847511D01*
X220732738Y-232752273D01*
X220732738Y-231895130D01*
X221637500Y-232847511D02*
X221542261Y-232895130D01*
X221351785Y-232895130D01*
X221256547Y-232847511D01*
X221208928Y-232752273D01*
X221208928Y-232371321D01*
X221256547Y-232276083D01*
X221351785Y-232228464D01*
X221542261Y-232228464D01*
X221637500Y-232276083D01*
X221685119Y-232371321D01*
X221685119Y-232466559D01*
X221208928Y-232561797D01*
X221875595Y-232990369D02*
X222637500Y-232990369D01*
X222875595Y-232895130D02*
X222875595Y-231895130D01*
X223256547Y-231895130D01*
X223351785Y-231942750D01*
X223399404Y-231990369D01*
X223447023Y-232085607D01*
X223447023Y-232228464D01*
X223399404Y-232323702D01*
X223351785Y-232371321D01*
X223256547Y-232418940D01*
X222875595Y-232418940D01*
X224304166Y-232895130D02*
X224304166Y-232371321D01*
X224256547Y-232276083D01*
X224161309Y-232228464D01*
X223970833Y-232228464D01*
X223875595Y-232276083D01*
X224304166Y-232847511D02*
X224208928Y-232895130D01*
X223970833Y-232895130D01*
X223875595Y-232847511D01*
X223827976Y-232752273D01*
X223827976Y-232657035D01*
X223875595Y-232561797D01*
X223970833Y-232514178D01*
X224208928Y-232514178D01*
X224304166Y-232466559D01*
X225208928Y-232895130D02*
X225208928Y-231895130D01*
X225208928Y-232847511D02*
X225113690Y-232895130D01*
X224923214Y-232895130D01*
X224827976Y-232847511D01*
X224780357Y-232799892D01*
X224732738Y-232704654D01*
X224732738Y-232418940D01*
X224780357Y-232323702D01*
X224827976Y-232276083D01*
X224923214Y-232228464D01*
X225113690Y-232228464D01*
X225208928Y-232276083D01*
X218175595Y-229695130D02*
X218175595Y-228695130D01*
X218175595Y-229171321D02*
X218747023Y-229171321D01*
X218747023Y-229695130D02*
X218747023Y-228695130D01*
X219175595Y-228790369D02*
X219223214Y-228742750D01*
X219318452Y-228695130D01*
X219556547Y-228695130D01*
X219651785Y-228742750D01*
X219699404Y-228790369D01*
X219747023Y-228885607D01*
X219747023Y-228980845D01*
X219699404Y-229123702D01*
X219127976Y-229695130D01*
X219747023Y-229695130D01*
X259016071Y-244345130D02*
X259016071Y-243345130D01*
X259349404Y-244059416D01*
X259682738Y-243345130D01*
X259682738Y-244345130D01*
X260301785Y-244345130D02*
X260206547Y-244297511D01*
X260158928Y-244249892D01*
X260111309Y-244154654D01*
X260111309Y-243868940D01*
X260158928Y-243773702D01*
X260206547Y-243726083D01*
X260301785Y-243678464D01*
X260444642Y-243678464D01*
X260539880Y-243726083D01*
X260587500Y-243773702D01*
X260635119Y-243868940D01*
X260635119Y-244154654D01*
X260587500Y-244249892D01*
X260539880Y-244297511D01*
X260444642Y-244345130D01*
X260301785Y-244345130D01*
X261492261Y-243678464D02*
X261492261Y-244345130D01*
X261063690Y-243678464D02*
X261063690Y-244202273D01*
X261111309Y-244297511D01*
X261206547Y-244345130D01*
X261349404Y-244345130D01*
X261444642Y-244297511D01*
X261492261Y-244249892D01*
X261968452Y-243678464D02*
X261968452Y-244345130D01*
X261968452Y-243773702D02*
X262016071Y-243726083D01*
X262111309Y-243678464D01*
X262254166Y-243678464D01*
X262349404Y-243726083D01*
X262397023Y-243821321D01*
X262397023Y-244345130D01*
X262730357Y-243678464D02*
X263111309Y-243678464D01*
X262873214Y-243345130D02*
X262873214Y-244202273D01*
X262920833Y-244297511D01*
X263016071Y-244345130D01*
X263111309Y-244345130D01*
X263444642Y-244345130D02*
X263444642Y-243678464D01*
X263444642Y-243345130D02*
X263397023Y-243392750D01*
X263444642Y-243440369D01*
X263492261Y-243392750D01*
X263444642Y-243345130D01*
X263444642Y-243440369D01*
X263920833Y-243678464D02*
X263920833Y-244345130D01*
X263920833Y-243773702D02*
X263968452Y-243726083D01*
X264063690Y-243678464D01*
X264206547Y-243678464D01*
X264301785Y-243726083D01*
X264349404Y-243821321D01*
X264349404Y-244345130D01*
X265254166Y-243678464D02*
X265254166Y-244487988D01*
X265206547Y-244583226D01*
X265158928Y-244630845D01*
X265063690Y-244678464D01*
X264920833Y-244678464D01*
X264825595Y-244630845D01*
X265254166Y-244297511D02*
X265158928Y-244345130D01*
X264968452Y-244345130D01*
X264873214Y-244297511D01*
X264825595Y-244249892D01*
X264777976Y-244154654D01*
X264777976Y-243868940D01*
X264825595Y-243773702D01*
X264873214Y-243726083D01*
X264968452Y-243678464D01*
X265158928Y-243678464D01*
X265254166Y-243726083D01*
X265730357Y-244345130D02*
X265730357Y-243345130D01*
X265730357Y-243821321D02*
X266301785Y-243821321D01*
X266301785Y-244345130D02*
X266301785Y-243345130D01*
X266920833Y-244345130D02*
X266825595Y-244297511D01*
X266777976Y-244249892D01*
X266730357Y-244154654D01*
X266730357Y-243868940D01*
X266777976Y-243773702D01*
X266825595Y-243726083D01*
X266920833Y-243678464D01*
X267063690Y-243678464D01*
X267158928Y-243726083D01*
X267206547Y-243773702D01*
X267254166Y-243868940D01*
X267254166Y-244154654D01*
X267206547Y-244249892D01*
X267158928Y-244297511D01*
X267063690Y-244345130D01*
X266920833Y-244345130D01*
X267825595Y-244345130D02*
X267730357Y-244297511D01*
X267682738Y-244202273D01*
X267682738Y-243345130D01*
X268587500Y-244297511D02*
X268492261Y-244345130D01*
X268301785Y-244345130D01*
X268206547Y-244297511D01*
X268158928Y-244202273D01*
X268158928Y-243821321D01*
X268206547Y-243726083D01*
X268301785Y-243678464D01*
X268492261Y-243678464D01*
X268587500Y-243726083D01*
X268635119Y-243821321D01*
X268635119Y-243916559D01*
X268158928Y-244011797D01*
X268825595Y-244440369D02*
X269587500Y-244440369D01*
X269825595Y-244345130D02*
X269825595Y-243345130D01*
X270206547Y-243345130D01*
X270301785Y-243392750D01*
X270349404Y-243440369D01*
X270397023Y-243535607D01*
X270397023Y-243678464D01*
X270349404Y-243773702D01*
X270301785Y-243821321D01*
X270206547Y-243868940D01*
X269825595Y-243868940D01*
X271254166Y-244345130D02*
X271254166Y-243821321D01*
X271206547Y-243726083D01*
X271111309Y-243678464D01*
X270920833Y-243678464D01*
X270825595Y-243726083D01*
X271254166Y-244297511D02*
X271158928Y-244345130D01*
X270920833Y-244345130D01*
X270825595Y-244297511D01*
X270777976Y-244202273D01*
X270777976Y-244107035D01*
X270825595Y-244011797D01*
X270920833Y-243964178D01*
X271158928Y-243964178D01*
X271254166Y-243916559D01*
X272158928Y-244345130D02*
X272158928Y-243345130D01*
X272158928Y-244297511D02*
X272063690Y-244345130D01*
X271873214Y-244345130D01*
X271777976Y-244297511D01*
X271730357Y-244249892D01*
X271682738Y-244154654D01*
X271682738Y-243868940D01*
X271730357Y-243773702D01*
X271777976Y-243726083D01*
X271873214Y-243678464D01*
X272063690Y-243678464D01*
X272158928Y-243726083D01*
X265125595Y-241145130D02*
X265125595Y-240145130D01*
X265125595Y-240621321D02*
X265697023Y-240621321D01*
X265697023Y-241145130D02*
X265697023Y-240145130D01*
X266077976Y-240145130D02*
X266697023Y-240145130D01*
X266363690Y-240526083D01*
X266506547Y-240526083D01*
X266601785Y-240573702D01*
X266649404Y-240621321D01*
X266697023Y-240716559D01*
X266697023Y-240954654D01*
X266649404Y-241049892D01*
X266601785Y-241097511D01*
X266506547Y-241145130D01*
X266220833Y-241145130D01*
X266125595Y-241097511D01*
X266077976Y-241049892D01*
X289866071Y-198121380D02*
X289866071Y-197121380D01*
X290199404Y-197835666D01*
X290532738Y-197121380D01*
X290532738Y-198121380D01*
X291151785Y-198121380D02*
X291056547Y-198073761D01*
X291008928Y-198026142D01*
X290961309Y-197930904D01*
X290961309Y-197645190D01*
X291008928Y-197549952D01*
X291056547Y-197502333D01*
X291151785Y-197454714D01*
X291294642Y-197454714D01*
X291389880Y-197502333D01*
X291437500Y-197549952D01*
X291485119Y-197645190D01*
X291485119Y-197930904D01*
X291437500Y-198026142D01*
X291389880Y-198073761D01*
X291294642Y-198121380D01*
X291151785Y-198121380D01*
X292342261Y-197454714D02*
X292342261Y-198121380D01*
X291913690Y-197454714D02*
X291913690Y-197978523D01*
X291961309Y-198073761D01*
X292056547Y-198121380D01*
X292199404Y-198121380D01*
X292294642Y-198073761D01*
X292342261Y-198026142D01*
X292818452Y-197454714D02*
X292818452Y-198121380D01*
X292818452Y-197549952D02*
X292866071Y-197502333D01*
X292961309Y-197454714D01*
X293104166Y-197454714D01*
X293199404Y-197502333D01*
X293247023Y-197597571D01*
X293247023Y-198121380D01*
X293580357Y-197454714D02*
X293961309Y-197454714D01*
X293723214Y-197121380D02*
X293723214Y-197978523D01*
X293770833Y-198073761D01*
X293866071Y-198121380D01*
X293961309Y-198121380D01*
X294294642Y-198121380D02*
X294294642Y-197454714D01*
X294294642Y-197121380D02*
X294247023Y-197169000D01*
X294294642Y-197216619D01*
X294342261Y-197169000D01*
X294294642Y-197121380D01*
X294294642Y-197216619D01*
X294770833Y-197454714D02*
X294770833Y-198121380D01*
X294770833Y-197549952D02*
X294818452Y-197502333D01*
X294913690Y-197454714D01*
X295056547Y-197454714D01*
X295151785Y-197502333D01*
X295199404Y-197597571D01*
X295199404Y-198121380D01*
X296104166Y-197454714D02*
X296104166Y-198264238D01*
X296056547Y-198359476D01*
X296008928Y-198407095D01*
X295913690Y-198454714D01*
X295770833Y-198454714D01*
X295675595Y-198407095D01*
X296104166Y-198073761D02*
X296008928Y-198121380D01*
X295818452Y-198121380D01*
X295723214Y-198073761D01*
X295675595Y-198026142D01*
X295627976Y-197930904D01*
X295627976Y-197645190D01*
X295675595Y-197549952D01*
X295723214Y-197502333D01*
X295818452Y-197454714D01*
X296008928Y-197454714D01*
X296104166Y-197502333D01*
X296580357Y-198121380D02*
X296580357Y-197121380D01*
X296580357Y-197597571D02*
X297151785Y-197597571D01*
X297151785Y-198121380D02*
X297151785Y-197121380D01*
X297770833Y-198121380D02*
X297675595Y-198073761D01*
X297627976Y-198026142D01*
X297580357Y-197930904D01*
X297580357Y-197645190D01*
X297627976Y-197549952D01*
X297675595Y-197502333D01*
X297770833Y-197454714D01*
X297913690Y-197454714D01*
X298008928Y-197502333D01*
X298056547Y-197549952D01*
X298104166Y-197645190D01*
X298104166Y-197930904D01*
X298056547Y-198026142D01*
X298008928Y-198073761D01*
X297913690Y-198121380D01*
X297770833Y-198121380D01*
X298675595Y-198121380D02*
X298580357Y-198073761D01*
X298532738Y-197978523D01*
X298532738Y-197121380D01*
X299437500Y-198073761D02*
X299342261Y-198121380D01*
X299151785Y-198121380D01*
X299056547Y-198073761D01*
X299008928Y-197978523D01*
X299008928Y-197597571D01*
X299056547Y-197502333D01*
X299151785Y-197454714D01*
X299342261Y-197454714D01*
X299437500Y-197502333D01*
X299485119Y-197597571D01*
X299485119Y-197692809D01*
X299008928Y-197788047D01*
X299675595Y-198216619D02*
X300437500Y-198216619D01*
X300675595Y-198121380D02*
X300675595Y-197121380D01*
X301056547Y-197121380D01*
X301151785Y-197169000D01*
X301199404Y-197216619D01*
X301247023Y-197311857D01*
X301247023Y-197454714D01*
X301199404Y-197549952D01*
X301151785Y-197597571D01*
X301056547Y-197645190D01*
X300675595Y-197645190D01*
X302104166Y-198121380D02*
X302104166Y-197597571D01*
X302056547Y-197502333D01*
X301961309Y-197454714D01*
X301770833Y-197454714D01*
X301675595Y-197502333D01*
X302104166Y-198073761D02*
X302008928Y-198121380D01*
X301770833Y-198121380D01*
X301675595Y-198073761D01*
X301627976Y-197978523D01*
X301627976Y-197883285D01*
X301675595Y-197788047D01*
X301770833Y-197740428D01*
X302008928Y-197740428D01*
X302104166Y-197692809D01*
X303008928Y-198121380D02*
X303008928Y-197121380D01*
X303008928Y-198073761D02*
X302913690Y-198121380D01*
X302723214Y-198121380D01*
X302627976Y-198073761D01*
X302580357Y-198026142D01*
X302532738Y-197930904D01*
X302532738Y-197645190D01*
X302580357Y-197549952D01*
X302627976Y-197502333D01*
X302723214Y-197454714D01*
X302913690Y-197454714D01*
X303008928Y-197502333D01*
X295975595Y-194921380D02*
X295975595Y-193921380D01*
X295975595Y-194397571D02*
X296547023Y-194397571D01*
X296547023Y-194921380D02*
X296547023Y-193921380D01*
X297451785Y-194254714D02*
X297451785Y-194921380D01*
X297213690Y-193873761D02*
X296975595Y-194588047D01*
X297594642Y-194588047D01*
X320516071Y-217171380D02*
X320516071Y-216171380D01*
X320849404Y-216885666D01*
X321182738Y-216171380D01*
X321182738Y-217171380D01*
X321801785Y-217171380D02*
X321706547Y-217123761D01*
X321658928Y-217076142D01*
X321611309Y-216980904D01*
X321611309Y-216695190D01*
X321658928Y-216599952D01*
X321706547Y-216552333D01*
X321801785Y-216504714D01*
X321944642Y-216504714D01*
X322039880Y-216552333D01*
X322087500Y-216599952D01*
X322135119Y-216695190D01*
X322135119Y-216980904D01*
X322087500Y-217076142D01*
X322039880Y-217123761D01*
X321944642Y-217171380D01*
X321801785Y-217171380D01*
X322992261Y-216504714D02*
X322992261Y-217171380D01*
X322563690Y-216504714D02*
X322563690Y-217028523D01*
X322611309Y-217123761D01*
X322706547Y-217171380D01*
X322849404Y-217171380D01*
X322944642Y-217123761D01*
X322992261Y-217076142D01*
X323468452Y-216504714D02*
X323468452Y-217171380D01*
X323468452Y-216599952D02*
X323516071Y-216552333D01*
X323611309Y-216504714D01*
X323754166Y-216504714D01*
X323849404Y-216552333D01*
X323897023Y-216647571D01*
X323897023Y-217171380D01*
X324230357Y-216504714D02*
X324611309Y-216504714D01*
X324373214Y-216171380D02*
X324373214Y-217028523D01*
X324420833Y-217123761D01*
X324516071Y-217171380D01*
X324611309Y-217171380D01*
X324944642Y-217171380D02*
X324944642Y-216504714D01*
X324944642Y-216171380D02*
X324897023Y-216219000D01*
X324944642Y-216266619D01*
X324992261Y-216219000D01*
X324944642Y-216171380D01*
X324944642Y-216266619D01*
X325420833Y-216504714D02*
X325420833Y-217171380D01*
X325420833Y-216599952D02*
X325468452Y-216552333D01*
X325563690Y-216504714D01*
X325706547Y-216504714D01*
X325801785Y-216552333D01*
X325849404Y-216647571D01*
X325849404Y-217171380D01*
X326754166Y-216504714D02*
X326754166Y-217314238D01*
X326706547Y-217409476D01*
X326658928Y-217457095D01*
X326563690Y-217504714D01*
X326420833Y-217504714D01*
X326325595Y-217457095D01*
X326754166Y-217123761D02*
X326658928Y-217171380D01*
X326468452Y-217171380D01*
X326373214Y-217123761D01*
X326325595Y-217076142D01*
X326277976Y-216980904D01*
X326277976Y-216695190D01*
X326325595Y-216599952D01*
X326373214Y-216552333D01*
X326468452Y-216504714D01*
X326658928Y-216504714D01*
X326754166Y-216552333D01*
X327230357Y-217171380D02*
X327230357Y-216171380D01*
X327230357Y-216647571D02*
X327801785Y-216647571D01*
X327801785Y-217171380D02*
X327801785Y-216171380D01*
X328420833Y-217171380D02*
X328325595Y-217123761D01*
X328277976Y-217076142D01*
X328230357Y-216980904D01*
X328230357Y-216695190D01*
X328277976Y-216599952D01*
X328325595Y-216552333D01*
X328420833Y-216504714D01*
X328563690Y-216504714D01*
X328658928Y-216552333D01*
X328706547Y-216599952D01*
X328754166Y-216695190D01*
X328754166Y-216980904D01*
X328706547Y-217076142D01*
X328658928Y-217123761D01*
X328563690Y-217171380D01*
X328420833Y-217171380D01*
X329325595Y-217171380D02*
X329230357Y-217123761D01*
X329182738Y-217028523D01*
X329182738Y-216171380D01*
X330087500Y-217123761D02*
X329992261Y-217171380D01*
X329801785Y-217171380D01*
X329706547Y-217123761D01*
X329658928Y-217028523D01*
X329658928Y-216647571D01*
X329706547Y-216552333D01*
X329801785Y-216504714D01*
X329992261Y-216504714D01*
X330087500Y-216552333D01*
X330135119Y-216647571D01*
X330135119Y-216742809D01*
X329658928Y-216838047D01*
X330325595Y-217266619D02*
X331087500Y-217266619D01*
X331325595Y-217171380D02*
X331325595Y-216171380D01*
X331706547Y-216171380D01*
X331801785Y-216219000D01*
X331849404Y-216266619D01*
X331897023Y-216361857D01*
X331897023Y-216504714D01*
X331849404Y-216599952D01*
X331801785Y-216647571D01*
X331706547Y-216695190D01*
X331325595Y-216695190D01*
X332754166Y-217171380D02*
X332754166Y-216647571D01*
X332706547Y-216552333D01*
X332611309Y-216504714D01*
X332420833Y-216504714D01*
X332325595Y-216552333D01*
X332754166Y-217123761D02*
X332658928Y-217171380D01*
X332420833Y-217171380D01*
X332325595Y-217123761D01*
X332277976Y-217028523D01*
X332277976Y-216933285D01*
X332325595Y-216838047D01*
X332420833Y-216790428D01*
X332658928Y-216790428D01*
X332754166Y-216742809D01*
X333658928Y-217171380D02*
X333658928Y-216171380D01*
X333658928Y-217123761D02*
X333563690Y-217171380D01*
X333373214Y-217171380D01*
X333277976Y-217123761D01*
X333230357Y-217076142D01*
X333182738Y-216980904D01*
X333182738Y-216695190D01*
X333230357Y-216599952D01*
X333277976Y-216552333D01*
X333373214Y-216504714D01*
X333563690Y-216504714D01*
X333658928Y-216552333D01*
X326625595Y-213971380D02*
X326625595Y-212971380D01*
X326625595Y-213447571D02*
X327197023Y-213447571D01*
X327197023Y-213971380D02*
X327197023Y-212971380D01*
X328149404Y-212971380D02*
X327673214Y-212971380D01*
X327625595Y-213447571D01*
X327673214Y-213399952D01*
X327768452Y-213352333D01*
X328006547Y-213352333D01*
X328101785Y-213399952D01*
X328149404Y-213447571D01*
X328197023Y-213542809D01*
X328197023Y-213780904D01*
X328149404Y-213876142D01*
X328101785Y-213923761D01*
X328006547Y-213971380D01*
X327768452Y-213971380D01*
X327673214Y-213923761D01*
X327625595Y-213876142D01*
X392916071Y-195995130D02*
X392916071Y-194995130D01*
X393249404Y-195709416D01*
X393582738Y-194995130D01*
X393582738Y-195995130D01*
X394201785Y-195995130D02*
X394106547Y-195947511D01*
X394058928Y-195899892D01*
X394011309Y-195804654D01*
X394011309Y-195518940D01*
X394058928Y-195423702D01*
X394106547Y-195376083D01*
X394201785Y-195328464D01*
X394344642Y-195328464D01*
X394439880Y-195376083D01*
X394487500Y-195423702D01*
X394535119Y-195518940D01*
X394535119Y-195804654D01*
X394487500Y-195899892D01*
X394439880Y-195947511D01*
X394344642Y-195995130D01*
X394201785Y-195995130D01*
X395392261Y-195328464D02*
X395392261Y-195995130D01*
X394963690Y-195328464D02*
X394963690Y-195852273D01*
X395011309Y-195947511D01*
X395106547Y-195995130D01*
X395249404Y-195995130D01*
X395344642Y-195947511D01*
X395392261Y-195899892D01*
X395868452Y-195328464D02*
X395868452Y-195995130D01*
X395868452Y-195423702D02*
X395916071Y-195376083D01*
X396011309Y-195328464D01*
X396154166Y-195328464D01*
X396249404Y-195376083D01*
X396297023Y-195471321D01*
X396297023Y-195995130D01*
X396630357Y-195328464D02*
X397011309Y-195328464D01*
X396773214Y-194995130D02*
X396773214Y-195852273D01*
X396820833Y-195947511D01*
X396916071Y-195995130D01*
X397011309Y-195995130D01*
X397344642Y-195995130D02*
X397344642Y-195328464D01*
X397344642Y-194995130D02*
X397297023Y-195042750D01*
X397344642Y-195090369D01*
X397392261Y-195042750D01*
X397344642Y-194995130D01*
X397344642Y-195090369D01*
X397820833Y-195328464D02*
X397820833Y-195995130D01*
X397820833Y-195423702D02*
X397868452Y-195376083D01*
X397963690Y-195328464D01*
X398106547Y-195328464D01*
X398201785Y-195376083D01*
X398249404Y-195471321D01*
X398249404Y-195995130D01*
X399154166Y-195328464D02*
X399154166Y-196137988D01*
X399106547Y-196233226D01*
X399058928Y-196280845D01*
X398963690Y-196328464D01*
X398820833Y-196328464D01*
X398725595Y-196280845D01*
X399154166Y-195947511D02*
X399058928Y-195995130D01*
X398868452Y-195995130D01*
X398773214Y-195947511D01*
X398725595Y-195899892D01*
X398677976Y-195804654D01*
X398677976Y-195518940D01*
X398725595Y-195423702D01*
X398773214Y-195376083D01*
X398868452Y-195328464D01*
X399058928Y-195328464D01*
X399154166Y-195376083D01*
X399630357Y-195995130D02*
X399630357Y-194995130D01*
X399630357Y-195471321D02*
X400201785Y-195471321D01*
X400201785Y-195995130D02*
X400201785Y-194995130D01*
X400820833Y-195995130D02*
X400725595Y-195947511D01*
X400677976Y-195899892D01*
X400630357Y-195804654D01*
X400630357Y-195518940D01*
X400677976Y-195423702D01*
X400725595Y-195376083D01*
X400820833Y-195328464D01*
X400963690Y-195328464D01*
X401058928Y-195376083D01*
X401106547Y-195423702D01*
X401154166Y-195518940D01*
X401154166Y-195804654D01*
X401106547Y-195899892D01*
X401058928Y-195947511D01*
X400963690Y-195995130D01*
X400820833Y-195995130D01*
X401725595Y-195995130D02*
X401630357Y-195947511D01*
X401582738Y-195852273D01*
X401582738Y-194995130D01*
X402487500Y-195947511D02*
X402392261Y-195995130D01*
X402201785Y-195995130D01*
X402106547Y-195947511D01*
X402058928Y-195852273D01*
X402058928Y-195471321D01*
X402106547Y-195376083D01*
X402201785Y-195328464D01*
X402392261Y-195328464D01*
X402487500Y-195376083D01*
X402535119Y-195471321D01*
X402535119Y-195566559D01*
X402058928Y-195661797D01*
X402725595Y-196090369D02*
X403487500Y-196090369D01*
X403725595Y-195995130D02*
X403725595Y-194995130D01*
X404106547Y-194995130D01*
X404201785Y-195042750D01*
X404249404Y-195090369D01*
X404297023Y-195185607D01*
X404297023Y-195328464D01*
X404249404Y-195423702D01*
X404201785Y-195471321D01*
X404106547Y-195518940D01*
X403725595Y-195518940D01*
X405154166Y-195995130D02*
X405154166Y-195471321D01*
X405106547Y-195376083D01*
X405011309Y-195328464D01*
X404820833Y-195328464D01*
X404725595Y-195376083D01*
X405154166Y-195947511D02*
X405058928Y-195995130D01*
X404820833Y-195995130D01*
X404725595Y-195947511D01*
X404677976Y-195852273D01*
X404677976Y-195757035D01*
X404725595Y-195661797D01*
X404820833Y-195614178D01*
X405058928Y-195614178D01*
X405154166Y-195566559D01*
X406058928Y-195995130D02*
X406058928Y-194995130D01*
X406058928Y-195947511D02*
X405963690Y-195995130D01*
X405773214Y-195995130D01*
X405677976Y-195947511D01*
X405630357Y-195899892D01*
X405582738Y-195804654D01*
X405582738Y-195518940D01*
X405630357Y-195423702D01*
X405677976Y-195376083D01*
X405773214Y-195328464D01*
X405963690Y-195328464D01*
X406058928Y-195376083D01*
X399025595Y-192795130D02*
X399025595Y-191795130D01*
X399025595Y-192271321D02*
X399597023Y-192271321D01*
X399597023Y-192795130D02*
X399597023Y-191795130D01*
X400501785Y-191795130D02*
X400311309Y-191795130D01*
X400216071Y-191842750D01*
X400168452Y-191890369D01*
X400073214Y-192033226D01*
X400025595Y-192223702D01*
X400025595Y-192604654D01*
X400073214Y-192699892D01*
X400120833Y-192747511D01*
X400216071Y-192795130D01*
X400406547Y-192795130D01*
X400501785Y-192747511D01*
X400549404Y-192699892D01*
X400597023Y-192604654D01*
X400597023Y-192366559D01*
X400549404Y-192271321D01*
X400501785Y-192223702D01*
X400406547Y-192176083D01*
X400216071Y-192176083D01*
X400120833Y-192223702D01*
X400073214Y-192271321D01*
X400025595Y-192366559D01*
X395208666Y-197360571D02*
X394875333Y-197360571D01*
X394875333Y-197884380D02*
X394875333Y-196884380D01*
X395351523Y-196884380D01*
X396256285Y-197884380D02*
X395684857Y-197884380D01*
X395970571Y-197884380D02*
X395970571Y-196884380D01*
X395875333Y-197027238D01*
X395780095Y-197122476D01*
X395684857Y-197170095D01*
X417865961Y-191402085D02*
X417913580Y-191259228D01*
X417913580Y-191021133D01*
X417865961Y-190925895D01*
X417818342Y-190878276D01*
X417723104Y-190830657D01*
X417627866Y-190830657D01*
X417532628Y-190878276D01*
X417485009Y-190925895D01*
X417437390Y-191021133D01*
X417389771Y-191211609D01*
X417342152Y-191306847D01*
X417294533Y-191354466D01*
X417199295Y-191402085D01*
X417104057Y-191402085D01*
X417008819Y-191354466D01*
X416961200Y-191306847D01*
X416913580Y-191211609D01*
X416913580Y-190973514D01*
X416961200Y-190830657D01*
X416913580Y-190497323D02*
X417913580Y-190259228D01*
X417199295Y-190068752D01*
X417913580Y-189878276D01*
X416913580Y-189640180D01*
X418008819Y-189497323D02*
X418008819Y-188735419D01*
X417913580Y-187973514D02*
X417913580Y-188544942D01*
X417913580Y-188259228D02*
X416913580Y-188259228D01*
X417056438Y-188354466D01*
X417151676Y-188449704D01*
X417199295Y-188544942D01*
X433013580Y-192702085D02*
X432537390Y-193035419D01*
X433013580Y-193273514D02*
X432013580Y-193273514D01*
X432013580Y-192892561D01*
X432061200Y-192797323D01*
X432108819Y-192749704D01*
X432204057Y-192702085D01*
X432346914Y-192702085D01*
X432442152Y-192749704D01*
X432489771Y-192797323D01*
X432537390Y-192892561D01*
X432537390Y-193273514D01*
X433013580Y-192130657D02*
X432965961Y-192225895D01*
X432918342Y-192273514D01*
X432823104Y-192321133D01*
X432537390Y-192321133D01*
X432442152Y-192273514D01*
X432394533Y-192225895D01*
X432346914Y-192130657D01*
X432346914Y-191987800D01*
X432394533Y-191892561D01*
X432442152Y-191844942D01*
X432537390Y-191797323D01*
X432823104Y-191797323D01*
X432918342Y-191844942D01*
X432965961Y-191892561D01*
X433013580Y-191987800D01*
X433013580Y-192130657D01*
X432346914Y-191511609D02*
X432346914Y-191130657D01*
X432013580Y-191368752D02*
X432870723Y-191368752D01*
X432965961Y-191321133D01*
X433013580Y-191225895D01*
X433013580Y-191130657D01*
X433013580Y-190368752D02*
X432489771Y-190368752D01*
X432394533Y-190416371D01*
X432346914Y-190511609D01*
X432346914Y-190702085D01*
X432394533Y-190797323D01*
X432965961Y-190368752D02*
X433013580Y-190463990D01*
X433013580Y-190702085D01*
X432965961Y-190797323D01*
X432870723Y-190844942D01*
X432775485Y-190844942D01*
X432680247Y-190797323D01*
X432632628Y-190702085D01*
X432632628Y-190463990D01*
X432585009Y-190368752D01*
X433013580Y-189892561D02*
X432346914Y-189892561D01*
X432537390Y-189892561D02*
X432442152Y-189844942D01*
X432394533Y-189797323D01*
X432346914Y-189702085D01*
X432346914Y-189606847D01*
X432346914Y-189368752D02*
X433013580Y-189130657D01*
X432346914Y-188892561D02*
X433013580Y-189130657D01*
X433251676Y-189225895D01*
X433299295Y-189273514D01*
X433346914Y-189368752D01*
X433108819Y-188749704D02*
X433108819Y-187987800D01*
X432489771Y-187749704D02*
X432489771Y-187416371D01*
X433013580Y-187273514D02*
X433013580Y-187749704D01*
X432013580Y-187749704D01*
X432013580Y-187273514D01*
X432346914Y-186844942D02*
X433013580Y-186844942D01*
X432442152Y-186844942D02*
X432394533Y-186797323D01*
X432346914Y-186702085D01*
X432346914Y-186559228D01*
X432394533Y-186463990D01*
X432489771Y-186416371D01*
X433013580Y-186416371D01*
X432965961Y-185511609D02*
X433013580Y-185606847D01*
X433013580Y-185797323D01*
X432965961Y-185892561D01*
X432918342Y-185940180D01*
X432823104Y-185987800D01*
X432537390Y-185987800D01*
X432442152Y-185940180D01*
X432394533Y-185892561D01*
X432346914Y-185797323D01*
X432346914Y-185606847D01*
X432394533Y-185511609D01*
X433013580Y-184940180D02*
X432965961Y-185035419D01*
X432918342Y-185083038D01*
X432823104Y-185130657D01*
X432537390Y-185130657D01*
X432442152Y-185083038D01*
X432394533Y-185035419D01*
X432346914Y-184940180D01*
X432346914Y-184797323D01*
X432394533Y-184702085D01*
X432442152Y-184654466D01*
X432537390Y-184606847D01*
X432823104Y-184606847D01*
X432918342Y-184654466D01*
X432965961Y-184702085D01*
X433013580Y-184797323D01*
X433013580Y-184940180D01*
X433013580Y-183749704D02*
X432013580Y-183749704D01*
X432965961Y-183749704D02*
X433013580Y-183844942D01*
X433013580Y-184035419D01*
X432965961Y-184130657D01*
X432918342Y-184178276D01*
X432823104Y-184225895D01*
X432537390Y-184225895D01*
X432442152Y-184178276D01*
X432394533Y-184130657D01*
X432346914Y-184035419D01*
X432346914Y-183844942D01*
X432394533Y-183749704D01*
X432965961Y-182892561D02*
X433013580Y-182987800D01*
X433013580Y-183178276D01*
X432965961Y-183273514D01*
X432870723Y-183321133D01*
X432489771Y-183321133D01*
X432394533Y-183273514D01*
X432346914Y-183178276D01*
X432346914Y-182987800D01*
X432394533Y-182892561D01*
X432489771Y-182844942D01*
X432585009Y-182844942D01*
X432680247Y-183321133D01*
X433013580Y-182416371D02*
X432346914Y-182416371D01*
X432537390Y-182416371D02*
X432442152Y-182368752D01*
X432394533Y-182321133D01*
X432346914Y-182225895D01*
X432346914Y-182130657D01*
X433108819Y-182035419D02*
X433108819Y-181273514D01*
X432965961Y-181083038D02*
X433013580Y-180940180D01*
X433013580Y-180702085D01*
X432965961Y-180606847D01*
X432918342Y-180559228D01*
X432823104Y-180511609D01*
X432727866Y-180511609D01*
X432632628Y-180559228D01*
X432585009Y-180606847D01*
X432537390Y-180702085D01*
X432489771Y-180892561D01*
X432442152Y-180987800D01*
X432394533Y-181035419D01*
X432299295Y-181083038D01*
X432204057Y-181083038D01*
X432108819Y-181035419D01*
X432061200Y-180987800D01*
X432013580Y-180892561D01*
X432013580Y-180654466D01*
X432061200Y-180511609D01*
X432346914Y-180178276D02*
X433013580Y-179987800D01*
X432537390Y-179797323D01*
X433013580Y-179606847D01*
X432346914Y-179416371D01*
X433013580Y-179035419D02*
X432346914Y-179035419D01*
X432013580Y-179035419D02*
X432061200Y-179083038D01*
X432108819Y-179035419D01*
X432061200Y-178987800D01*
X432013580Y-179035419D01*
X432108819Y-179035419D01*
X432346914Y-178702085D02*
X432346914Y-178321133D01*
X432013580Y-178559228D02*
X432870723Y-178559228D01*
X432965961Y-178511609D01*
X433013580Y-178416371D01*
X433013580Y-178321133D01*
X432965961Y-177559228D02*
X433013580Y-177654466D01*
X433013580Y-177844942D01*
X432965961Y-177940180D01*
X432918342Y-177987800D01*
X432823104Y-178035419D01*
X432537390Y-178035419D01*
X432442152Y-177987800D01*
X432394533Y-177940180D01*
X432346914Y-177844942D01*
X432346914Y-177654466D01*
X432394533Y-177559228D01*
X433013580Y-177130657D02*
X432013580Y-177130657D01*
X433013580Y-176702085D02*
X432489771Y-176702085D01*
X432394533Y-176749704D01*
X432346914Y-176844942D01*
X432346914Y-176987800D01*
X432394533Y-177083038D01*
X432442152Y-177130657D01*
X428865961Y-183102085D02*
X428913580Y-182959228D01*
X428913580Y-182721133D01*
X428865961Y-182625895D01*
X428818342Y-182578276D01*
X428723104Y-182530657D01*
X428627866Y-182530657D01*
X428532628Y-182578276D01*
X428485009Y-182625895D01*
X428437390Y-182721133D01*
X428389771Y-182911609D01*
X428342152Y-183006847D01*
X428294533Y-183054466D01*
X428199295Y-183102085D01*
X428104057Y-183102085D01*
X428008819Y-183054466D01*
X427961200Y-183006847D01*
X427913580Y-182911609D01*
X427913580Y-182673514D01*
X427961200Y-182530657D01*
X427913580Y-182197323D02*
X428913580Y-181959228D01*
X428199295Y-181768752D01*
X428913580Y-181578276D01*
X427913580Y-181340180D01*
X429008819Y-181197323D02*
X429008819Y-180435419D01*
X428913580Y-179673514D02*
X428913580Y-180244942D01*
X428913580Y-179959228D02*
X427913580Y-179959228D01*
X428056438Y-180054466D01*
X428151676Y-180149704D01*
X428199295Y-180244942D01*
M02*
