0
SECTION
2
HEADER
9
$INSUNITS
70
4
9
$ACADVER
1
AC1014
9
$HANDSEED
5
FFFF
0
ENDSEC
0
SECTION
2
TABLES
0
TABLE
2
VPORT
5
8
100
AcDbSymbolTable
0
ENDTAB
0
TABLE
2
LTYPE
5
5
100
AcDbSymbolTable
0
LTYPE
5
14
100
AcDbSymbolTableRecord
100
AcDbLinetypeTableRecord
2
BYBLOCK
70
0
0
LTYPE
5
15
100
AcDbSymbolTableRecord
100
AcDbLinetypeTableRecord
2
BYLAYER
70
0
0
ENDTAB
0
TABLE
2
LAYER
5
2
100
AcDbSymbolTable
70
2
0
LAYER
5
50
100
AcDbSymbolTableRecord
100
AcDbLayerTableRecord
2
0
70
0
6
CONTINUOUS
0
ENDTAB
0
TABLE
2
STYLE
5
3
100
AcDbSymbolTable
70
1
0
STYLE
5
11
100
AcDbSymbolTableRecord
100
AcDbTextStyleTableRecord
2
STANDARD
70
0
0
ENDTAB
0
TABLE
2
VIEW
5
6
100
AcDbSymbolTable
70
0
0
ENDTAB
0
TABLE
2
UCS
5
7
100
AcDbSymbolTable
70
0
0
ENDTAB
0
TABLE
2
APPID
5
9
100
AcDbSymbolTable
70
2
0
APPID
5
12
100
AcDbSymbolTableRecord
100
AcDbRegAppTableRecord
2
ACAD
70
0
0
ENDTAB
0
TABLE
2
DIMSTYLE
5
A
100
AcDbSymbolTable
70
1
0
ENDTAB
0
TABLE
2
BLOCK_RECORD
5
1
100
AcDbSymbolTable
70
1
0
BLOCK_RECORD
5
1F
100
AcDbSymbolTableRecord
100
AcDbBlockTableRecord
2
*MODEL_SPACE
0
BLOCK_RECORD
5
1B
100
AcDbSymbolTableRecord
100
AcDbBlockTableRecord
2
*PAPER_SPACE
0
ENDTAB
0
ENDSEC
0
SECTION
2
BLOCKS
0
BLOCK
5
20
100
AcDbEntity
100
AcDbBlockBegin
2
*MODEL_SPACE
0
ENDBLK
5
21
100
AcDbEntity
100
AcDbBlockEnd
0
BLOCK
5
1C
100
AcDbEntity
100
AcDbBlockBegin
2
*PAPER_SPACE
0
ENDBLK
5
1D
100
AcDbEntity
100
AcDbBlockEnd
0
ENDSEC
0
SECTION
2
ENTITIES
0
LWPOLYLINE
5
100
100
AcDbEntity
8
0
100
AcDbPolyline
90
52
70
1
43
0.0
10
-239.38560100000004
20
168.42345
10
-239.39359999999999
20
151.596699
42
0.4142135623730846
10
-238.89360100000002
20
151.096698
10
-232.52760100000003
20
151.09670000000003
42
-0.41421356237309503
10
-232.02760000000001
20
150.596699
10
-232.02760000000001
20
114.132824
42
-0.41421356237309503
10
-232.52760100000003
20
113.632825
10
-241.117874
20
113.632825
42
0.26794919243052989
10
-242.84992480756003
20
112.63282500000001
10
-245.15932599999999
20
108.632825
10
-253.231122
20
108.632825
10
-255.54052399999978
20
112.63282600000014
42
0.26794919243053239
10
-257.27257540378002
20
113.63282703260001
10
-257.339225
20
113.63282399999898
42
-0.41421414815966084
10
-257.83922500000006
20
114.13282500000001
10
-257.83922500000006
20
188.282825
42
-0.41421356237309503
10
-257.339225
20
188.782825
10
-257.27257500000002
20
188.782825
42
0.26794919243150517
10
-255.54052332640001
20
189.7828255
10
-253.23112300000003
20
193.782825
10
-245.15932599999999
20
193.78282400000003
10
-242.84992499999959
20
189.78282500000029
42
0.26794919243125315
10
-241.11787496223999
20
188.7828243333
10
-32.723075000000001
20
188.78282500000026
42
0.26794919242247728
10
-30.991023692431003
20
189.78282413390002
10
-28.681622999999998
20
193.782825
10
-20.609825000000001
20
193.782825
10
-18.300424999999795
20
189.78282500000012
42
0.2679491924310648
10
-16.568374096216001
20
188.7828248333
10
-16.501725
20
188.782825000001
42
-0.41421297658677186
10
-16.001725
20
188.282826
10
-16.001725000000011
20
114.13282499999619
42
-0.41421356237086432
10
-16.501723999999999
20
113.63282400000001
10
-16.568373999999999
20
113.632825
42
0.26794919243113152
10
-18.300424807569001
20
112.63282500000001
10
-20.609826000000005
20
108.632825
10
-28.681622999999998
20
108.632825
10
-30.991023000000411
20
112.63282499999977
42
0.26794919243111726
10
-32.723073037759001
20
113.63282566660001
10
-34.170476000000001
20
113.6317
42
-0.41421356237310542
10
-34.670475000000003
20
114.13170100000002
10
-34.66960000000001
20
131.554699
42
0.41421356237309503
10
-35.169600000000003
20
132.054699
10
-38.868600999999998
20
132.054699
42
-0.41421356237309503
10
-39.368600000000001
20
132.5547
10
-39.368600000000001
20
150.58869999999999
42
0.41421356237310542
10
-39.868599000000003
20
151.08870099999999
10
-43.686599998079281
20
151.09669899999901
42
-0.4142141492847834
10
-44.186599999999999
20
151.5967
10
-44.194600000000008
20
168.42345
42
0.41421356237310025
10
-44.694600000000015
20
168.92345000000003
10
-238.88560100000004
20
168.92345000000003
42
0.41421356237309503
0
LWPOLYLINE
5
101
100
AcDbEntity
8
0
100
AcDbPolyline
90
8
70
1
43
0.0
10
-74.864223999999993
20
186.28282400000001
10
-74.864225000000005
20
173.282825
42
0.4142135623730846
10
-74.364226000000002
20
172.78282400000001
10
-61.364225000000005
20
172.782825
42
0.41421356237309503
10
-60.864225000000005
20
173.282825
10
-60.864225000000005
20
186.282825
42
0.41421356237309503
10
-61.364225000000005
20
186.782825
10
-74.364225000000005
20
186.782825
42
0.41421356237309503
0
LWPOLYLINE
5
102
100
AcDbEntity
8
0
100
AcDbPolyline
90
8
70
1
43
0.0
10
-32.001724000000003
20
186.282825
10
-32.001725
20
173.28282400000003
42
0.41421356237310802
10
-31.501724000000003
20
172.782825
10
-18.501723999999999
20
172.782825
42
0.41421356237309503
10
-18.001724000000003
20
173.282825
10
-18.001725
20
186.28282600000003
42
0.41421356237308854
10
-18.501726000000001
20
186.782825
10
-31.501725
20
186.78282400000001
42
0.41421356237309503
0
LWPOLYLINE
5
103
100
AcDbEntity
8
0
100
AcDbPolyline
90
8
70
1
43
0.0
10
-39.43297299999999
20
173.28282200000001
42
-0.41421356237309503
10
-39.932975999999996
20
172.782825
10
-52.932975000000006
20
172.78282400000001
42
-0.41421356237309503
10
-53.432976000000004
20
173.282825
10
-53.432975000000013
20
186.282825
42
-0.41421356237309503
10
-52.932975000000006
20
186.782825
10
-39.932974999999999
20
186.782825
42
-0.41421356237309503
10
-39.432975000000006
20
186.282825
0
LWPOLYLINE
5
104
100
AcDbEntity
8
0
100
AcDbPolyline
90
8
70
1
43
0.0
10
-25.645473000000003
20
167.73282399999999
10
-38.645474999999998
20
167.73282499999999
42
0.41421356237309503
10
-39.145474999999998
20
167.23282499999999
10
-39.145474999999998
20
154.23282499999999
42
0.41421356237309503
10
-38.645474999999998
20
153.73282499999999
10
-25.645475000000001
20
153.73282499999999
42
0.41421356237309503
10
-25.145475000000005
20
154.23282499999999
10
-25.145475000000005
20
167.23282399999999
42
0.41421356237310025
0
LWPOLYLINE
5
105
100
AcDbEntity
8
0
100
AcDbPolyline
90
8
70
1
43
0.0
10
-83.92047500000001
20
187.78282500000003
42
-0.41421356237309503
10
-83.420474999999996
20
187.28282500000003
10
-83.420474999999996
20
171.282825
42
-0.41421356237309503
10
-83.92047500000001
20
170.782825
10
-89.920474999999996
20
170.782825
42
-0.41421356237309503
10
-90.42047500000001
20
171.282825
10
-90.42047500000001
20
187.28282500000003
42
-0.41421356237309503
10
-89.920474999999996
20
187.78282500000003
0
LWPOLYLINE
5
106
100
AcDbEntity
8
0
100
AcDbPolyline
90
8
70
1
43
0.0
10
-20.382973999999994
20
135.18282500000001
42
-0.41421356237309503
10
-20.882974000000001
20
134.68282500000001
10
-33.882973999999997
20
134.68282400000001
42
-0.41421356237309503
10
-34.382975000000002
20
135.18282500000001
10
-34.382975000000009
20
148.18282500000004
42
-0.41421356237309503
10
-33.882975000000002
20
148.68282500000004
10
-20.882974999999998
20
148.68282500000004
42
-0.41421356237309503
10
-20.382975000000002
20
148.18282500000004
0
LWPOLYLINE
5
107
100
AcDbEntity
8
0
100
AcDbPolyline
90
8
70
1
43
0.0
10
-156.614225
20
186.78282400000001
42
-0.41421356237309503
10
-156.114226
20
186.282825
10
-156.114226
20
173.282825
42
-0.4142135623730846
10
-156.61422400000001
20
172.78282500000003
10
-169.61422400000001
20
172.782825
42
-0.41421356237311585
10
-170.11422500000003
20
173.28282400000003
10
-170.11422500000003
20
186.28282400000001
42
-0.41421356237309503
10
-169.61422600000003
20
186.782825
0
LWPOLYLINE
5
108
100
AcDbEntity
8
0
100
AcDbPolyline
90
8
70
1
43
0.0
10
-147.561475
20
187.28402500000001
42
-0.41421356237309503
10
-147.061475
20
187.78402500000001
10
-141.061475
20
187.78402500000001
42
-0.41421356237309503
10
-140.561475
20
187.28402500000001
10
-140.561475
20
171.28402500000004
42
-0.41421356237309503
10
-141.061475
20
170.78402500000004
10
-147.061475
20
170.78402500000004
42
-0.41421356237309503
10
-147.561475
20
171.28402500000004
0
LWPOLYLINE
5
109
100
AcDbEntity
8
0
100
AcDbPolyline
90
8
70
1
43
0.0
10
-98.958826000000016
20
173.28402500000004
42
-0.41421356237312623
10
-99.458824000000021
20
172.78402499999999
10
-112.45882400000001
20
172.78402500000001
42
-0.41421356237306384
10
-112.95882500000002
20
173.28402399999999
10
-112.95882500000002
20
186.28402399999999
42
-0.41421356237311585
10
-112.45882600000002
20
186.78402500000004
10
-99.458825000000019
20
186.78402400000004
42
-0.41421356237309503
10
-98.958826000000016
20
186.28402500000004
0
LWPOLYLINE
5
110
100
AcDbEntity
8
0
100
AcDbPolyline
90
8
70
1
43
0.0
10
-128.51147499999999
20
187.28402500000001
42
-0.41421356237309503
10
-128.01147499999999
20
187.78402500000001
10
-122.01147500000002
20
187.78402500000001
42
-0.41421356237309503
10
-121.511475
20
187.28402500000001
10
-121.511475
20
171.28402500000004
42
-0.41421356237309503
10
-122.01147500000002
20
170.78402500000004
10
-128.01147499999999
20
170.78402500000004
42
-0.41421356237309503
10
-128.51147499999999
20
171.28402500000004
0
LWPOLYLINE
5
111
100
AcDbEntity
8
0
100
AcDbPolyline
90
8
70
1
43
0.0
10
-253.45797500000003
20
186.282825
42
-0.41421356237309503
10
-252.95797500000003
20
186.782825
10
-239.95797500000003
20
186.78282400000001
42
-0.41421356237309503
10
-239.45797600000003
20
186.282825
10
-239.457975
20
173.28282400000003
42
-0.41421356237309503
10
-239.95797500000003
20
172.78282400000001
10
-252.95797400000001
20
172.782825
42
-0.41421356237311585
10
-253.45797500000003
20
173.28282400000003
0
LWPOLYLINE
5
112
100
AcDbEntity
8
0
100
AcDbPolyline
90
8
70
1
43
0.0
10
-218.026726
20
173.28282400000003
42
-0.41421356237309503
10
-218.526725
20
172.78282500000003
10
-231.526725
20
172.782826
42
-0.41421356237309503
10
-232.026724
20
173.282825
10
-232.026724
20
186.282825
42
-0.41421356237309503
10
-231.526725
20
186.78282400000001
10
-218.526725
20
186.782826
42
-0.41421356237309503
10
-218.02672400000003
20
186.282825
0
LWPOLYLINE
5
113
100
AcDbEntity
8
0
100
AcDbPolyline
90
8
70
1
43
0.0
10
-210.09547499999999
20
172.782825
10
-197.09547499999999
20
172.782825
42
0.41421356237309503
10
-196.59547599999999
20
173.282826
10
-196.59547500000002
20
186.282825
42
0.41421356237309503
10
-197.09547600000002
20
186.782826
10
-210.09547499999999
20
186.782825
42
0.41421356237309503
10
-210.59547500000002
20
186.282825
10
-210.59547500000002
20
173.282825
42
0.41421356237309503
0
LWPOLYLINE
5
114
100
AcDbEntity
8
0
100
AcDbPolyline
90
8
70
1
43
0.0
10
-185.661475
20
187.28402500000001
42
-0.41421356237309503
10
-185.161475
20
187.78402500000001
10
-179.161475
20
187.78402500000001
42
-0.41421356237309503
10
-178.661475
20
187.28402500000001
10
-178.661475
20
171.28402500000004
42
-0.41421356237309503
10
-179.161475
20
170.78402500000004
10
-185.161475
20
170.78402500000004
42
-0.41421356237309503
10
-185.661475
20
171.28402500000004
0
LWPOLYLINE
5
115
100
AcDbEntity
8
0
100
AcDbPolyline
90
8
70
1
43
0.0
10
-237.57672600000004
20
148.68282400000001
42
-0.41421356237309503
10
-237.07672500000001
20
148.18282500000004
10
-237.07672400000004
20
135.18282400000001
42
-0.4142135623730846
10
-237.57672500000001
20
134.68282500000001
10
-250.57672600000004
20
134.68282600000003
42
-0.41421356237309503
10
-251.07672500000004
20
135.18282500000001
10
-251.07672500000004
20
148.18282500000004
42
-0.41421356237309503
10
-250.57672500000001
20
148.68282500000004
0
LWPOLYLINE
5
116
100
AcDbEntity
8
0
100
AcDbPolyline
90
8
70
1
43
0.0
10
-255.33922500000003
20
153.73282499999999
10
-242.33922500000003
20
153.73282499999999
42
0.41421356237309503
10
-241.83922600000002
20
154.23282399999999
10
-241.839225
20
167.23282399999999
42
0.41421356237309503
10
-242.339224
20
167.73282499999999
10
-255.33922500000003
20
167.73282499999999
42
0.41421356237309503
10
-255.839225
20
167.23282499999999
10
-255.83922500000003
20
154.23282499999999
42
0.41421356237309503
0
LWPOLYLINE
5
117
100
AcDbEntity
8
0
100
AcDbPolyline
90
8
70
1
43
0.0
10
-18.001725
20
116.132825
10
-18.001725
20
129.132824
42
0.41421356237309503
10
-18.501725
20
129.632824
10
-31.501724000000003
20
129.632825
42
0.41421356237309503
10
-32.001725
20
129.132824
10
-32.001725
20
116.132825
42
0.41421356237309503
10
-31.501724000000003
20
115.632824
10
-18.501725
20
115.632825
42
0.41421356237309503
0
LWPOLYLINE
5
118
100
AcDbEntity
8
0
100
AcDbPolyline
90
8
70
1
43
0.0
10
-248.19547499999999
20
115.632825
42
-0.41421356237309503
10
-248.69547499999999
20
116.132825
10
-248.69547599999999
20
129.132824
42
-0.41421356237309503
10
-248.19547499999999
20
129.632825
10
-235.19547500000002
20
129.632824
42
-0.41421356237309503
10
-234.69547500000002
20
129.132824
10
-234.69547500000002
20
116.132825
42
-0.41421356237309503
10
-235.19547500000002
20
115.632825
0
ENDSEC
0
SECTION
2
OBJECTS
0
DICTIONARY
5
C
100
AcDbDictionary
3
ACAD_GROUP
350
D
3
ACAD_MLINESTYLE
350
17
0
DICTIONARY
5
D
100
AcDbDictionary
0
DICTIONARY
5
1A
330
C
100
AcDbDictionary
0
DICTIONARY
5
17
100
AcDbDictionary
0
ENDSEC
0
EOF
