  0
SECTION
  2
HEADER
  9
$ACADVER
  1
AC1014
  9
$HANDSEED
  5
FFFF
  9
$MEASUREMENT
 70
     1
  0
ENDSEC
  0
SECTION
  2
TABLES
  0
TABLE
  2
VPORT
  5
8
330
0
100
AcDbSymbolTable
 70
     4
  0
VPORT
  5
2E
330
8
100
AcDbSymbolTableRecord
100
AcDbViewportTableRecord
  2
*ACTIVE
 70
     0
 10
0.0
 20
0.0
 11
1.0
 21
1.0
 12
210.0
 22
148.5
 13
0.0
 23
0.0
 14
10.0
 24
10.0
 15
10.0
 25
10.0
 16
0.0
 26
0.0
 36
1.0
 17
0.0
 27
0.0
 37
0.0
 40
341.0
 41
1.24
 42
50.0
 43
0.0
 44
0.0
 50
0.0
 51
0.0
 71
     0
 72
   100
 73
     1
 74
     3
 75
     0
 76
     0
 77
     0
 78
     0
  0
ENDTAB
  0
TABLE
  2
LTYPE
  5
5
330
0
100
AcDbSymbolTable
 70
     1
  0
LTYPE
  5
14
330
5
100
AcDbSymbolTableRecord
100
AcDbLinetypeTableRecord
  2
BYBLOCK
 70
     0
  3

 72
    65
 73
     0
 40
0.0
  0
LTYPE
  5
15
330
5
100
AcDbSymbolTableRecord
100
AcDbLinetypeTableRecord
  2
BYLAYER
 70
     0
  3

 72
    65
 73
     0
 40
0.0
  0
LTYPE
  5
16
330
5
100
AcDbSymbolTableRecord
100
AcDbLinetypeTableRecord
  2
CONTINUOUS
 70
     0
  3
Solid line
 72
    65
 73
     0
 40
0.0
  0
ENDTAB
  0
TABLE
  2
LAYER
  5
2
100
AcDbSymbolTable
 70
1
  0
LAYER
  5
50
100
AcDbSymbolTableRecord
100
AcDbLayerTableRecord
  2
0
 70
0
  6
CONTINUOUS
  0
ENDTAB
  0
TABLE
  2
STYLE
  5
3
330
0
100
AcDbSymbolTable
 70
     1
  0
STYLE
  5
11
330
3
100
AcDbSymbolTableRecord
100
AcDbTextStyleTableRecord
  2
STANDARD
 70
     0
 40
0.0
 41
1.0
 50
0.0
 71
     0
 42
2.5
  3
txt
  4

  0
ENDTAB
  0
TABLE
  2
VIEW
  5
6
330
0
100
AcDbSymbolTable
 70
     0
  0
ENDTAB
  0
TABLE
  2
UCS
  5
7
330
0
100
AcDbSymbolTable
 70
     0
  0
ENDTAB
  0
TABLE
  2
APPID
  5
9
330
0
100
AcDbSymbolTable
 70
     2
  0
APPID
  5
12
330
9
100
AcDbSymbolTableRecord
100
AcDbRegAppTableRecord
  2
ACAD
 70
     0
  0
ENDTAB
  0
TABLE
  2
DIMSTYLE
  5
A
330
0
100
AcDbSymbolTable
 70
     1
  0
DIMSTYLE
105
27
330
A
100
AcDbSymbolTableRecord
100
AcDbDimStyleTableRecord
  2
ISO-25
 70
     0
  3

  4

  5

  6

  7

 40
1.0
 41
2.5
 42
0.625
 43
3.75
 44
1.25
 45
0.0
 46
0.0
 47
0.0
 48
0.0
140
2.5
141
2.5
142
0.0
143
0.03937007874016
144
1.0
145
0.0
146
1.0
147
0.625
 71
     0
 72
     0
 73
     0
 74
     0
 75
     0
 76
     0
 77
     1
 78
     8
170
     0
171
     3
172
     1
173
     0
174
     0
175
     0
176
     0
177
     0
178
     0
270
     2
271
     2
272
     2
273
     2
274
     3
340
11
275
     0
280
     0
281
     0
282
     0
283
     0
284
     8
285
     0
286
     0
287
     3
288
     0
  0
ENDTAB
  0
TABLE
  2
BLOCK_RECORD
  5
1
330
0
100
AcDbSymbolTable
 70
     1
  0
BLOCK_RECORD
  5
1F
330
1
100
AcDbSymbolTableRecord
100
AcDbBlockTableRecord
  2
*MODEL_SPACE
  0
BLOCK_RECORD
  5
1B
330
1
100
AcDbSymbolTableRecord
100
AcDbBlockTableRecord
  2
*PAPER_SPACE
  0
ENDTAB
  0
ENDSEC
  0
SECTION
  2
BLOCKS
  0
BLOCK
  5
20
330
1F
100
AcDbEntity
  8
0
100
AcDbBlockBegin
  2
*MODEL_SPACE
 70
     0
 10
0.0
 20
0.0
 30
0.0
  3
*MODEL_SPACE
  1

  0
ENDBLK
  5
21
330
1F
100
AcDbEntity
  8
0
100
AcDbBlockEnd
  0
BLOCK
  5
1C
330
1B
100
AcDbEntity
 67
     1
  8
0
100
AcDbBlockBegin
  2
*PAPER_SPACE
  1

  0
ENDBLK
  5
1D
330
1B
100
AcDbEntity
 67
     1
  8
0
100
AcDbBlockEnd
  0
ENDSEC
  0
SECTION
  2
ENTITIES
  0
SPLINE
  5
100
100
AcDbEntity
  8
0
 62
7
100
AcDbSpline
 70
8
 71
3
 72
8
 73
4
 74
0
 40
0
 40
0
 40
0
 40
0
 40
1
 40
1
 40
1
 40
1
 10
0.100001
 20
-81.048494
 30
0.0
 10
0.099994
 20
-81.757958
 30
0.0
 10
0.381824
 20
-82.438366
 30
0.0
 10
0.883491
 20
-82.940032
 30
0.0
  0
SPLINE
  5
101
100
AcDbEntity
  8
0
 62
7
100
AcDbSpline
 70
8
 71
3
 72
8
 73
4
 74
0
 40
0
 40
0
 40
0
 40
0
 40
1
 40
1
 40
1
 40
1
 10
14.284884
 20
-87.863568
 30
0.0
 10
14.994308
 20
-87.863603
 30
0.0
 10
15.674692
 20
-87.581830
 30
0.0
 10
16.176371
 20
-87.080232
 30
0.0
  0
LWPOLYLINE
  5
102
100
AcDbEntity
  8
0
 62
7
100
AcDbPolyline
 90
2
 70
0
 10
16.174720
 20
-0.446166
 30
0.0
 10
20.314920
 20
-4.586366
 30
0.0
  0
LWPOLYLINE
  5
103
100
AcDbEntity
  8
0
 62
7
100
AcDbPolyline
 90
2
 70
0
 10
20.314920
 20
-82.937746
 30
0.0
 10
16.174720
 20
-87.077946
 30
0.0
  0
SPLINE
  5
104
100
AcDbEntity
  8
0
 62
7
100
AcDbSpline
 70
8
 71
3
 72
8
 73
4
 74
0
 40
0
 40
0
 40
0
 40
0
 40
1
 40
1
 40
1
 40
1
 10
16.176396
 20
-0.447137
 30
0.0
 10
15.674736
 20
0.054524
 30
0.0
 10
14.994339
 20
0.336354
 30
0.0
 10
14.284884
 20
0.336354
 30
0.0
  0
SPLINE
  5
105
100
AcDbEntity
  8
0
 62
7
100
AcDbSpline
 70
8
 71
3
 72
8
 73
4
 74
0
 40
0
 40
0
 40
0
 40
0
 40
1
 40
1
 40
1
 40
1
 10
236.172248
 20
-87.863568
 30
0.0
 10
236.881690
 20
-87.863616
 30
0.0
 10
237.562094
 20
-87.581842
 30
0.0
 10
238.063786
 20
-87.080232
 30
0.0
  0
LWPOLYLINE
  5
106
100
AcDbEntity
  8
0
 62
7
100
AcDbPolyline
 90
2
 70
0
 10
222.737680
 20
-4.616846
 30
0.0
 10
226.910900
 20
-0.446166
 30
0.0
  0
LWPOLYLINE
  5
107
100
AcDbEntity
  8
0
 62
7
100
AcDbPolyline
 90
2
 70
0
 10
228.800660
 20
0.338694
 30
0.0
 10
236.171740
 20
0.338694
 30
0.0
  0
LWPOLYLINE
  5
108
100
AcDbEntity
  8
0
 62
7
100
AcDbPolyline
 90
2
 70
0
 10
242.201700
 20
-82.937746
 30
0.0
 10
238.061500
 20
-87.077946
 30
0.0
  0
SPLINE
  5
109
100
AcDbEntity
  8
0
 62
7
100
AcDbSpline
 70
8
 71
3
 72
8
 73
4
 74
0
 40
0
 40
0
 40
0
 40
0
 40
1
 40
1
 40
1
 40
1
 10
238.063786
 20
-0.447137
 30
0.0
 10
237.562120
 20
0.054530
 30
0.0
 10
236.881712
 20
0.336361
 30
0.0
 10
236.172248
 20
0.336354
 30
0.0
  0
LWPOLYLINE
  5
10a
100
AcDbEntity
  8
0
 62
7
100
AcDbPolyline
 90
2
 70
0
 10
22.913340
 20
-5.663326
 30
0.0
 10
220.172280
 20
-5.663326
 30
0.0
  0
SPLINE
  5
10b
100
AcDbEntity
  8
0
 62
7
100
AcDbSpline
 70
8
 71
3
 72
8
 73
4
 74
0
 40
0
 40
0
 40
0
 40
0
 40
1
 40
1
 40
1
 40
1
 10
222.770954
 20
-82.940032
 30
0.0
 10
222.081755
 20
-82.250797
 30
0.0
 10
221.146980
 20
-81.863584
 30
0.0
 10
220.172280
 20
-81.863580
 30
0.0
  0
LWPOLYLINE
  5
10c
100
AcDbEntity
  8
0
 62
7
100
AcDbPolyline
 90
2
 70
0
 10
5.021580
 20
-87.077946
 30
0.0
 10
0.881380
 20
-82.937746
 30
0.0
  0
SPLINE
  5
10d
100
AcDbEntity
  8
0
 62
7
100
AcDbSpline
 70
8
 71
3
 72
8
 73
4
 74
0
 40
0
 40
0
 40
0
 40
0
 40
1
 40
1
 40
1
 40
1
 10
220.172280
 20
-5.663656
 30
0.0
 10
221.131378
 20
-5.663696
 30
0.0
 10
222.052491
 20
-5.288788
 30
0.0
 10
222.738950
 20
-4.618980
 30
0.0
  0
LWPOLYLINE
  5
10e
100
AcDbEntity
  8
0
 62
7
100
AcDbPolyline
 90
1
 70
1
 10
222.737680
 20
-4.616846
 30
0.0
  0
SPLINE
  5
10f
100
AcDbEntity
  8
0
 62
7
100
AcDbSpline
 70
8
 71
3
 72
8
 73
4
 74
0
 40
0
 40
0
 40
0
 40
0
 40
1
 40
1
 40
1
 40
1
 10
232.487724
 20
-83.863764
 30
0.0
 10
231.982146
 20
-83.863764
 30
0.0
 10
231.526351
 20
-84.168317
 30
0.0
 10
231.332875
 20
-84.635410
 30
0.0
  0
SPLINE
  5
110
100
AcDbEntity
  8
0
 62
7
100
AcDbSpline
 70
8
 71
3
 72
8
 73
4
 74
0
 40
0
 40
0
 40
0
 40
0
 40
1
 40
1
 40
1
 40
1
 10
231.332875
 20
-84.635410
 30
0.0
 10
231.139398
 20
-85.102503
 30
0.0
 10
231.246343
 20
-85.640150
 30
0.0
 10
231.603840
 20
-85.997648
 30
0.0
  0
SPLINE
  5
111
100
AcDbEntity
  8
0
 62
7
100
AcDbSpline
 70
8
 71
3
 72
8
 73
4
 74
0
 40
0
 40
0
 40
0
 40
0
 40
1
 40
1
 40
1
 40
1
 10
231.603840
 20
-85.997648
 30
0.0
 10
231.961338
 20
-86.355145
 30
0.0
 10
232.498985
 20
-86.462090
 30
0.0
 10
232.966078
 20
-86.268614
 30
0.0
  0
SPLINE
  5
112
100
AcDbEntity
  8
0
 62
7
100
AcDbSpline
 70
8
 71
3
 72
8
 73
4
 74
0
 40
0
 40
0
 40
0
 40
0
 40
1
 40
1
 40
1
 40
1
 10
232.966078
 20
-86.268614
 30
0.0
 10
233.433171
 20
-86.075137
 30
0.0
 10
233.737724
 20
-85.619342
 30
0.0
 10
233.737724
 20
-85.113764
 30
0.0
  0
SPLINE
  5
113
100
AcDbEntity
  8
0
 62
7
100
AcDbSpline
 70
8
 71
3
 72
8
 73
4
 74
0
 40
0
 40
0
 40
0
 40
0
 40
1
 40
1
 40
1
 40
1
 10
233.737724
 20
-85.113764
 30
0.0
 10
233.737724
 20
-84.782244
 30
0.0
 10
233.606028
 20
-84.464301
 30
0.0
 10
233.371608
 20
-84.229881
 30
0.0
  0
SPLINE
  5
114
100
AcDbEntity
  8
0
 62
7
100
AcDbSpline
 70
8
 71
3
 72
8
 73
4
 74
0
 40
0
 40
0
 40
0
 40
0
 40
1
 40
1
 40
1
 40
1
 10
233.371608
 20
-84.229881
 30
0.0
 10
233.137187
 20
-83.995460
 30
0.0
 10
232.819245
 20
-83.863764
 30
0.0
 10
232.487724
 20
-83.863764
 30
0.0
  0
LWPOLYLINE
  5
115
100
AcDbEntity
  8
0
 62
7
100
AcDbPolyline
 90
2
 70
0
 10
236.171740
 20
-87.862806
 30
0.0
 10
228.800660
 20
-87.862806
 30
0.0
  0
LWPOLYLINE
  5
116
100
AcDbEntity
  8
0
 62
7
100
AcDbPolyline
 90
1
 70
1
 10
232.487724
 20
-83.863764
 30
0.0
  0
LWPOLYLINE
  5
117
100
AcDbEntity
  8
0
 62
7
100
AcDbPolyline
 90
2
 70
0
 10
0.881380
 20
-4.586366
 30
0.0
 10
5.021580
 20
-0.446166
 30
0.0
  0
SPLINE
  5
118
100
AcDbEntity
  8
0
 62
7
100
AcDbSpline
 70
8
 71
3
 72
8
 73
4
 74
0
 40
0
 40
0
 40
0
 40
0
 40
1
 40
1
 40
1
 40
1
 10
242.987576
 20
-6.478768
 30
0.0
 10
242.987550
 20
-5.769299
 30
0.0
 10
242.705683
 20
-5.088899
 30
0.0
 10
242.203986
 20
-4.587255
 30
0.0
  0
LWPOLYLINE
  5
119
100
AcDbEntity
  8
0
 62
7
100
AcDbPolyline
 90
2
 70
0
 10
220.172280
 20
-81.863326
 30
0.0
 10
22.913340
 20
-81.863326
 30
0.0
  0
SPLINE
  5
11a
100
AcDbEntity
  8
0
 62
7
100
AcDbSpline
 70
8
 71
3
 72
8
 73
4
 74
0
 40
0
 40
0
 40
0
 40
0
 40
1
 40
1
 40
1
 40
1
 10
228.802692
 20
0.336354
 30
0.0
 10
228.093228
 20
0.336361
 30
0.0
 10
227.412820
 20
0.054530
 30
0.0
 10
226.911154
 20
-0.447137
 30
0.0
  0
SPLINE
  5
11b
100
AcDbEntity
  8
0
 62
7
100
AcDbSpline
 70
8
 71
3
 72
8
 73
4
 74
0
 40
0
 40
0
 40
0
 40
0
 40
1
 40
1
 40
1
 40
1
 10
20.316520
 20
-4.587255
 30
0.0
 10
21.005708
 20
-5.276454
 30
0.0
 10
21.940452
 20
-5.663646
 30
0.0
 10
22.915118
 20
-5.663656
 30
0.0
  0
SPLINE
  5
11c
100
AcDbEntity
  8
0
 62
7
100
AcDbSpline
 70
8
 71
3
 72
8
 73
4
 74
0
 40
0
 40
0
 40
0
 40
0
 40
1
 40
1
 40
1
 40
1
 10
10.599877
 20
-1.163650
 30
0.0
 10
10.094299
 20
-1.163650
 30
0.0
 10
9.638504
 20
-1.468203
 30
0.0
 10
9.445028
 20
-1.935296
 30
0.0
  0
SPLINE
  5
11d
100
AcDbEntity
  8
0
 62
7
100
AcDbSpline
 70
8
 71
3
 72
8
 73
4
 74
0
 40
0
 40
0
 40
0
 40
0
 40
1
 40
1
 40
1
 40
1
 10
9.445028
 20
-1.935296
 30
0.0
 10
9.251551
 20
-2.402389
 30
0.0
 10
9.358496
 20
-2.940036
 30
0.0
 10
9.715994
 20
-3.297534
 30
0.0
  0
SPLINE
  5
11e
100
AcDbEntity
  8
0
 62
7
100
AcDbSpline
 70
8
 71
3
 72
8
 73
4
 74
0
 40
0
 40
0
 40
0
 40
0
 40
1
 40
1
 40
1
 40
1
 10
9.715994
 20
-3.297534
 30
0.0
 10
10.073491
 20
-3.655031
 30
0.0
 10
10.611139
 20
-3.761976
 30
0.0
 10
11.078232
 20
-3.568500
 30
0.0
  0
SPLINE
  5
11f
100
AcDbEntity
  8
0
 62
7
100
AcDbSpline
 70
8
 71
3
 72
8
 73
4
 74
0
 40
0
 40
0
 40
0
 40
0
 40
1
 40
1
 40
1
 40
1
 10
11.078232
 20
-3.568500
 30
0.0
 10
11.545325
 20
-3.375023
 30
0.0
 10
11.849877
 20
-2.919228
 30
0.0
 10
11.849877
 20
-2.413650
 30
0.0
  0
SPLINE
  5
120
100
AcDbEntity
  8
0
 62
7
100
AcDbSpline
 70
8
 71
3
 72
8
 73
4
 74
0
 40
0
 40
0
 40
0
 40
0
 40
1
 40
1
 40
1
 40
1
 10
11.849877
 20
-2.413650
 30
0.0
 10
11.849877
 20
-1.723294
 30
0.0
 10
11.290233
 20
-1.163650
 30
0.0
 10
10.599877
 20
-1.163650
 30
0.0
  0
LWPOLYLINE
  5
121
100
AcDbEntity
  8
0
 62
7
100
AcDbPolyline
 90
2
 70
0
 10
242.986560
 20
-6.478666
 30
0.0
 10
242.986560
 20
-81.047986
 30
0.0
  0
SPLINE
  5
122
100
AcDbEntity
  8
0
 62
7
100
AcDbSpline
 70
8
 71
3
 72
8
 73
4
 74
0
 40
0
 40
0
 40
0
 40
0
 40
1
 40
1
 40
1
 40
1
 10
242.203986
 20
-82.940032
 30
0.0
 10
242.705689
 20
-82.438382
 30
0.0
 10
242.987556
 20
-81.757972
 30
0.0
 10
242.987576
 20
-81.048494
 30
0.0
  0
SPLINE
  5
123
100
AcDbEntity
  8
0
 62
7
100
AcDbSpline
 70
8
 71
3
 72
8
 73
4
 74
0
 40
0
 40
0
 40
0
 40
0
 40
1
 40
1
 40
1
 40
1
 10
5.023612
 20
-87.080232
 30
0.0
 10
5.525297
 20
-87.581836
 30
0.0
 10
6.205692
 20
-87.863609
 30
0.0
 10
6.915125
 20
-87.863568
 30
0.0
  0
SPLINE
  5
124
100
AcDbEntity
  8
0
 62
7
100
AcDbSpline
 70
8
 71
3
 72
8
 73
4
 74
0
 40
0
 40
0
 40
0
 40
0
 40
1
 40
1
 40
1
 40
1
 10
22.915118
 20
-81.863580
 30
0.0
 10
21.940444
 20
-81.863604
 30
0.0
 10
21.005700
 20
-82.250815
 30
0.0
 10
20.316520
 20
-82.940032
 30
0.0
  0
LWPOLYLINE
  5
125
100
AcDbEntity
  8
0
 62
7
100
AcDbPolyline
 90
1
 70
1
 10
10.599877
 20
-1.163650
 30
0.0
  0
LWPOLYLINE
  5
126
100
AcDbEntity
  8
0
 62
7
100
AcDbPolyline
 90
2
 70
0
 10
226.910900
 20
-87.077946
 30
0.0
 10
222.770700
 20
-82.937746
 30
0.0
  0
SPLINE
  5
127
100
AcDbEntity
  8
0
 62
7
100
AcDbSpline
 70
8
 71
3
 72
8
 73
4
 74
0
 40
0
 40
0
 40
0
 40
0
 40
1
 40
1
 40
1
 40
1
 10
6.915125
 20
0.336354
 30
0.0
 10
6.205670
 20
0.336354
 30
0.0
 10
5.525272
 20
0.054524
 30
0.0
 10
5.023612
 20
-0.447137
 30
0.0
  0
LWPOLYLINE
  5
128
100
AcDbEntity
  8
0
 62
7
100
AcDbPolyline
 90
2
 70
0
 10
6.913880
 20
0.338694
 30
0.0
 10
14.282420
 20
0.338694
 30
0.0
  0
SPLINE
  5
129
100
AcDbEntity
  8
0
 62
7
100
AcDbSpline
 70
8
 71
3
 72
8
 73
4
 74
0
 40
0
 40
0
 40
0
 40
0
 40
1
 40
1
 40
1
 40
1
 10
0.883491
 20
-4.587255
 30
0.0
 10
0.381831
 20
-5.088916
 30
0.0
 10
0.100001
 20
-5.769313
 30
0.0
 10
0.100002
 20
-6.478768
 30
0.0
  0
LWPOLYLINE
  5
12a
100
AcDbEntity
  8
0
 62
7
100
AcDbPolyline
 90
2
 70
0
 10
14.282420
 20
-87.862806
 30
0.0
 10
6.913880
 20
-87.862806
 30
0.0
  0
SPLINE
  5
12b
100
AcDbEntity
  8
0
 62
7
100
AcDbSpline
 70
8
 71
3
 72
8
 73
4
 74
0
 40
0
 40
0
 40
0
 40
0
 40
1
 40
1
 40
1
 40
1
 10
226.911154
 20
-87.080232
 30
0.0
 10
227.412846
 20
-87.581842
 30
0.0
 10
228.093250
 20
-87.863616
 30
0.0
 10
228.802692
 20
-87.863568
 30
0.0
  0
LWPOLYLINE
  5
12c
100
AcDbEntity
  8
0
 62
7
100
AcDbPolyline
 90
2
 70
0
 10
0.099060
 20
-81.047986
 30
0.0
 10
0.099060
 20
-6.478666
 30
0.0
  0
SPLINE
  5
12d
100
AcDbEntity
  8
0
 62
7
100
AcDbSpline
 70
8
 71
3
 72
8
 73
4
 74
0
 40
0
 40
0
 40
0
 40
0
 40
1
 40
1
 40
1
 40
1
 10
10.600131
 20
-83.863764
 30
0.0
 10
10.094553
 20
-83.863764
 30
0.0
 10
9.638758
 20
-84.168317
 30
0.0
 10
9.445282
 20
-84.635410
 30
0.0
  0
SPLINE
  5
12e
100
AcDbEntity
  8
0
 62
7
100
AcDbSpline
 70
8
 71
3
 72
8
 73
4
 74
0
 40
0
 40
0
 40
0
 40
0
 40
1
 40
1
 40
1
 40
1
 10
9.445282
 20
-84.635410
 30
0.0
 10
9.251805
 20
-85.102503
 30
0.0
 10
9.358750
 20
-85.640150
 30
0.0
 10
9.716248
 20
-85.997648
 30
0.0
  0
SPLINE
  5
12f
100
AcDbEntity
  8
0
 62
7
100
AcDbSpline
 70
8
 71
3
 72
8
 73
4
 74
0
 40
0
 40
0
 40
0
 40
0
 40
1
 40
1
 40
1
 40
1
 10
9.716248
 20
-85.997648
 30
0.0
 10
10.073745
 20
-86.355145
 30
0.0
 10
10.611393
 20
-86.462090
 30
0.0
 10
11.078486
 20
-86.268614
 30
0.0
  0
SPLINE
  5
130
100
AcDbEntity
  8
0
 62
7
100
AcDbSpline
 70
8
 71
3
 72
8
 73
4
 74
0
 40
0
 40
0
 40
0
 40
0
 40
1
 40
1
 40
1
 40
1
 10
11.078486
 20
-86.268614
 30
0.0
 10
11.545579
 20
-86.075137
 30
0.0
 10
11.850131
 20
-85.619342
 30
0.0
 10
11.850131
 20
-85.113764
 30
0.0
  0
SPLINE
  5
131
100
AcDbEntity
  8
0
 62
7
100
AcDbSpline
 70
8
 71
3
 72
8
 73
4
 74
0
 40
0
 40
0
 40
0
 40
0
 40
1
 40
1
 40
1
 40
1
 10
11.850131
 20
-85.113764
 30
0.0
 10
11.850131
 20
-84.423408
 30
0.0
 10
11.290487
 20
-83.863764
 30
0.0
 10
10.600131
 20
-83.863764
 30
0.0
  0
LWPOLYLINE
  5
132
100
AcDbEntity
  8
0
 62
7
100
AcDbPolyline
 90
2
 70
0
 10
238.061500
 20
-0.446166
 30
0.0
 10
242.201700
 20
-4.586366
 30
0.0
  0
SPLINE
  5
133
100
AcDbEntity
  8
0
 62
7
100
AcDbSpline
 70
8
 71
3
 72
8
 73
4
 74
0
 40
0
 40
0
 40
0
 40
0
 40
1
 40
1
 40
1
 40
1
 10
232.487470
 20
-1.163650
 30
0.0
 10
231.797114
 20
-1.163650
 30
0.0
 10
231.237470
 20
-1.723294
 30
0.0
 10
231.237470
 20
-2.413650
 30
0.0
  0
SPLINE
  5
134
100
AcDbEntity
  8
0
 62
7
100
AcDbSpline
 70
8
 71
3
 72
8
 73
4
 74
0
 40
0
 40
0
 40
0
 40
0
 40
1
 40
1
 40
1
 40
1
 10
231.237470
 20
-2.413650
 30
0.0
 10
231.237470
 20
-3.104006
 30
0.0
 10
231.797114
 20
-3.663650
 30
0.0
 10
232.487470
 20
-3.663650
 30
0.0
  0
SPLINE
  5
135
100
AcDbEntity
  8
0
 62
7
100
AcDbSpline
 70
8
 71
3
 72
8
 73
4
 74
0
 40
0
 40
0
 40
0
 40
0
 40
1
 40
1
 40
1
 40
1
 10
232.487470
 20
-3.663650
 30
0.0
 10
233.177826
 20
-3.663650
 30
0.0
 10
233.737470
 20
-3.104006
 30
0.0
 10
233.737470
 20
-2.413650
 30
0.0
  0
SPLINE
  5
136
100
AcDbEntity
  8
0
 62
7
100
AcDbSpline
 70
8
 71
3
 72
8
 73
4
 74
0
 40
0
 40
0
 40
0
 40
0
 40
1
 40
1
 40
1
 40
1
 10
233.737470
 20
-2.413650
 30
0.0
 10
233.737470
 20
-2.082130
 30
0.0
 10
233.605774
 20
-1.764187
 30
0.0
 10
233.371354
 20
-1.529767
 30
0.0
  0
SPLINE
  5
137
100
AcDbEntity
  8
0
 62
7
100
AcDbSpline
 70
8
 71
3
 72
8
 73
4
 74
0
 40
0
 40
0
 40
0
 40
0
 40
1
 40
1
 40
1
 40
1
 10
233.371354
 20
-1.529767
 30
0.0
 10
233.136933
 20
-1.295346
 30
0.0
 10
232.818991
 20
-1.163650
 30
0.0
 10
232.487470
 20
-1.163650
 30
0.0
  0
LWPOLYLINE
  5
138
100
AcDbEntity
  8
0
 62
7
100
AcDbPolyline
 90
1
 70
1
 10
10.600131
 20
-83.863764
 30
0.0
  0
LWPOLYLINE
  5
139
100
AcDbEntity
  8
0
 62
7
100
AcDbPolyline
 90
1
 70
1
 10
232.487470
 20
-1.163650
 30
0.0
  0
LWPOLYLINE
  5
13a
100
AcDbEntity
  8
0
 62
7
100
AcDbPolyline
 90
2
 70
0
 10
241.632740
 20
-8.139826
 30
0.0
 10
212.656420
 20
-8.139826
 30
0.0
  0
LWPOLYLINE
  5
13b
100
AcDbEntity
  8
0
 62
7
100
AcDbPolyline
 90
2
 70
0
 10
212.158580
 20
-8.640206
 30
0.0
 10
212.158580
 20
-21.639926
 30
0.0
  0
LWPOLYLINE
  5
13c
100
AcDbEntity
  8
0
 62
7
100
AcDbPolyline
 90
2
 70
0
 10
212.656420
 20
-22.140306
 30
0.0
 10
241.632740
 20
-22.140306
 30
0.0
  0
SPLINE
  5
13d
100
AcDbEntity
  8
0
 62
7
100
AcDbSpline
 70
8
 71
3
 72
8
 73
4
 74
0
 40
0
 40
0
 40
0
 40
0
 40
1
 40
1
 40
1
 40
1
 10
242.133882
 20
-8.640638
 30
0.0
 10
242.133882
 20
-8.508008
 30
0.0
 10
242.081186
 20
-8.380812
 30
0.0
 10
241.987391
 20
-8.287040
 30
0.0
  0
SPLINE
  5
13e
100
AcDbEntity
  8
0
 62
7
100
AcDbSpline
 70
8
 71
3
 72
8
 73
4
 74
0
 40
0
 40
0
 40
0
 40
0
 40
1
 40
1
 40
1
 40
1
 10
241.987391
 20
-8.287040
 30
0.0
 10
241.893595
 20
-8.193269
 30
0.0
 10
241.766386
 20
-8.140605
 30
0.0
 10
241.633756
 20
-8.140639
 30
0.0
  0
SPLINE
  5
13f
100
AcDbEntity
  8
0
 62
7
100
AcDbSpline
 70
8
 71
3
 72
8
 73
4
 74
0
 40
0
 40
0
 40
0
 40
0
 40
1
 40
1
 40
1
 40
1
 10
212.658960
 20
-8.140639
 30
0.0
 10
212.526330
 20
-8.140605
 30
0.0
 10
212.399121
 20
-8.193269
 30
0.0
 10
212.305325
 20
-8.287040
 30
0.0
  0
SPLINE
  5
140
100
AcDbEntity
  8
0
 62
7
100
AcDbSpline
 70
8
 71
3
 72
8
 73
4
 74
0
 40
0
 40
0
 40
0
 40
0
 40
1
 40
1
 40
1
 40
1
 10
212.305325
 20
-8.287040
 30
0.0
 10
212.211530
 20
-8.380812
 30
0.0
 10
212.158834
 20
-8.508008
 30
0.0
 10
212.158834
 20
-8.640638
 30
0.0
  0
SPLINE
  5
141
100
AcDbEntity
  8
0
 62
7
100
AcDbSpline
 70
8
 71
3
 72
8
 73
4
 74
0
 40
0
 40
0
 40
0
 40
0
 40
1
 40
1
 40
1
 40
1
 10
212.158834
 20
-21.640637
 30
0.0
 10
212.158834
 20
-21.773267
 30
0.0
 10
212.211530
 20
-21.900463
 30
0.0
 10
212.305325
 20
-21.994235
 30
0.0
  0
SPLINE
  5
142
100
AcDbEntity
  8
0
 62
7
100
AcDbSpline
 70
8
 71
3
 72
8
 73
4
 74
0
 40
0
 40
0
 40
0
 40
0
 40
1
 40
1
 40
1
 40
1
 10
212.305325
 20
-21.994235
 30
0.0
 10
212.399121
 20
-22.088007
 30
0.0
 10
212.526330
 20
-22.140670
 30
0.0
 10
212.658960
 20
-22.140636
 30
0.0
  0
SPLINE
  5
143
100
AcDbEntity
  8
0
 62
7
100
AcDbSpline
 70
8
 71
3
 72
8
 73
4
 74
0
 40
0
 40
0
 40
0
 40
0
 40
1
 40
1
 40
1
 40
1
 10
241.633756
 20
-22.140636
 30
0.0
 10
241.766386
 20
-22.140670
 30
0.0
 10
241.893595
 20
-22.088007
 30
0.0
 10
241.987391
 20
-21.994235
 30
0.0
  0
SPLINE
  5
144
100
AcDbEntity
  8
0
 62
7
100
AcDbSpline
 70
8
 71
3
 72
8
 73
4
 74
0
 40
0
 40
0
 40
0
 40
0
 40
1
 40
1
 40
1
 40
1
 10
241.987391
 20
-21.994235
 30
0.0
 10
242.081186
 20
-21.900463
 30
0.0
 10
242.133882
 20
-21.773267
 30
0.0
 10
242.133882
 20
-21.640637
 30
0.0
  0
SPLINE
  5
145
100
AcDbEntity
  8
0
 62
7
100
AcDbSpline
 70
8
 71
3
 72
8
 73
4
 74
0
 40
0
 40
0
 40
0
 40
0
 40
1
 40
1
 40
1
 40
1
 10
163.401248
 20
-77.787134
 30
0.0
 10
163.401282
 20
-77.919742
 30
0.0
 10
163.453992
 20
-78.046906
 30
0.0
 10
163.547784
 20
-78.140650
 30
0.0
  0
SPLINE
  5
146
100
AcDbEntity
  8
0
 62
7
100
AcDbSpline
 70
8
 71
3
 72
8
 73
4
 74
0
 40
0
 40
0
 40
0
 40
0
 40
1
 40
1
 40
1
 40
1
 10
163.547784
 20
-78.140650
 30
0.0
 10
163.641576
 20
-78.234394
 30
0.0
 10
163.768766
 20
-78.287040
 30
0.0
 10
163.901374
 20
-78.287006
 30
0.0
  0
SPLINE
  5
147
100
AcDbEntity
  8
0
 62
7
100
AcDbSpline
 70
8
 71
3
 72
8
 73
4
 74
0
 40
0
 40
0
 40
0
 40
0
 40
1
 40
1
 40
1
 40
1
 10
169.651426
 20
-78.287006
 30
0.0
 10
169.927469
 20
-78.286936
 30
0.0
 10
170.151228
 20
-78.063177
 30
0.0
 10
170.151298
 20
-77.787134
 30
0.0
  0
SPLINE
  5
148
100
AcDbEntity
  8
0
 62
7
100
AcDbSpline
 70
8
 71
3
 72
8
 73
4
 74
0
 40
0
 40
0
 40
0
 40
0
 40
1
 40
1
 40
1
 40
1
 10
170.151298
 20
-64.787160
 30
0.0
 10
170.151332
 20
-64.654552
 30
0.0
 10
170.098686
 20
-64.527362
 30
0.0
 10
170.004941
 20
-64.433570
 30
0.0
  0
SPLINE
  5
149
100
AcDbEntity
  8
0
 62
7
100
AcDbSpline
 70
8
 71
3
 72
8
 73
4
 74
0
 40
0
 40
0
 40
0
 40
0
 40
1
 40
1
 40
1
 40
1
 10
170.004941
 20
-64.433570
 30
0.0
 10
169.911197
 20
-64.339779
 30
0.0
 10
169.784034
 20
-64.287068
 30
0.0
 10
169.651426
 20
-64.287034
 30
0.0
  0
SPLINE
  5
14a
100
AcDbEntity
  8
0
 62
7
100
AcDbSpline
 70
8
 71
3
 72
8
 73
4
 74
0
 40
0
 40
0
 40
0
 40
0
 40
1
 40
1
 40
1
 40
1
 10
163.901374
 20
-64.287034
 30
0.0
 10
163.768722
 20
-64.287001
 30
0.0
 10
163.641493
 20
-64.339681
 30
0.0
 10
163.547694
 20
-64.433481
 30
0.0
  0
SPLINE
  5
14b
100
AcDbEntity
  8
0
 62
7
100
AcDbSpline
 70
8
 71
3
 72
8
 73
4
 74
0
 40
0
 40
0
 40
0
 40
0
 40
1
 40
1
 40
1
 40
1
 10
163.547694
 20
-64.433481
 30
0.0
 10
163.453895
 20
-64.527280
 30
0.0
 10
163.401214
 20
-64.654508
 30
0.0
 10
163.401248
 20
-64.787160
 30
0.0
  0
SPLINE
  5
14c
100
AcDbEntity
  8
0
 62
7
100
AcDbSpline
 70
8
 71
3
 72
8
 73
4
 74
0
 40
0
 40
0
 40
0
 40
0
 40
1
 40
1
 40
1
 40
1
 10
154.226260
 20
-79.287004
 30
0.0
 10
154.358868
 20
-79.287038
 30
0.0
 10
154.486058
 20
-79.234392
 30
0.0
 10
154.579850
 20
-79.140648
 30
0.0
  0
SPLINE
  5
14d
100
AcDbEntity
  8
0
 62
7
100
AcDbSpline
 70
8
 71
3
 72
8
 73
4
 74
0
 40
0
 40
0
 40
0
 40
0
 40
1
 40
1
 40
1
 40
1
 10
154.579850
 20
-79.140648
 30
0.0
 10
154.673642
 20
-79.046904
 30
0.0
 10
154.726352
 20
-78.919740
 30
0.0
 10
154.726386
 20
-78.787132
 30
0.0
  0
SPLINE
  5
14e
100
AcDbEntity
  8
0
 62
7
100
AcDbSpline
 70
8
 71
3
 72
8
 73
4
 74
0
 40
0
 40
0
 40
0
 40
0
 40
1
 40
1
 40
1
 40
1
 10
154.726386
 20
-65.787158
 30
0.0
 10
154.726420
 20
-65.654506
 30
0.0
 10
154.673739
 20
-65.527278
 30
0.0
 10
154.579940
 20
-65.433479
 30
0.0
  0
SPLINE
  5
14f
100
AcDbEntity
  8
0
 62
7
100
AcDbSpline
 70
8
 71
3
 72
8
 73
4
 74
0
 40
0
 40
0
 40
0
 40
0
 40
1
 40
1
 40
1
 40
1
 10
154.579940
 20
-65.433479
 30
0.0
 10
154.486141
 20
-65.339679
 30
0.0
 10
154.358912
 20
-65.286999
 30
0.0
 10
154.226260
 20
-65.287032
 30
0.0
  0
SPLINE
  5
150
100
AcDbEntity
  8
0
 62
7
100
AcDbSpline
 70
8
 71
3
 72
8
 73
4
 74
0
 40
0
 40
0
 40
0
 40
0
 40
1
 40
1
 40
1
 40
1
 10
141.226286
 20
-65.287032
 30
0.0
 10
141.093678
 20
-65.287066
 30
0.0
 10
140.966515
 20
-65.339777
 30
0.0
 10
140.872771
 20
-65.433568
 30
0.0
  0
SPLINE
  5
151
100
AcDbEntity
  8
0
 62
7
100
AcDbSpline
 70
8
 71
3
 72
8
 73
4
 74
0
 40
0
 40
0
 40
0
 40
0
 40
1
 40
1
 40
1
 40
1
 10
140.872771
 20
-65.433568
 30
0.0
 10
140.779026
 20
-65.527360
 30
0.0
 10
140.726380
 20
-65.654550
 30
0.0
 10
140.726414
 20
-65.787158
 30
0.0
  0
SPLINE
  5
152
100
AcDbEntity
  8
0
 62
7
100
AcDbSpline
 70
8
 71
3
 72
8
 73
4
 74
0
 40
0
 40
0
 40
0
 40
0
 40
1
 40
1
 40
1
 40
1
 10
140.726414
 20
-78.787132
 30
0.0
 10
140.726484
 20
-79.063175
 30
0.0
 10
140.950243
 20
-79.286934
 30
0.0
 10
141.226286
 20
-79.287004
 30
0.0
  0
SPLINE
  5
153
100
AcDbEntity
  8
0
 62
7
100
AcDbSpline
 70
8
 71
3
 72
8
 73
4
 74
0
 40
0
 40
0
 40
0
 40
0
 40
1
 40
1
 40
1
 40
1
 10
125.301248
 20
-77.787134
 30
0.0
 10
125.301282
 20
-77.919742
 30
0.0
 10
125.353992
 20
-78.046906
 30
0.0
 10
125.447784
 20
-78.140650
 30
0.0
  0
SPLINE
  5
154
100
AcDbEntity
  8
0
 62
7
100
AcDbSpline
 70
8
 71
3
 72
8
 73
4
 74
0
 40
0
 40
0
 40
0
 40
0
 40
1
 40
1
 40
1
 40
1
 10
125.447784
 20
-78.140650
 30
0.0
 10
125.541576
 20
-78.234394
 30
0.0
 10
125.668766
 20
-78.287040
 30
0.0
 10
125.801374
 20
-78.287006
 30
0.0
  0
SPLINE
  5
155
100
AcDbEntity
  8
0
 62
7
100
AcDbSpline
 70
8
 71
3
 72
8
 73
4
 74
0
 40
0
 40
0
 40
0
 40
0
 40
1
 40
1
 40
1
 40
1
 10
131.551426
 20
-78.287006
 30
0.0
 10
131.827469
 20
-78.286936
 30
0.0
 10
132.051228
 20
-78.063177
 30
0.0
 10
132.051298
 20
-77.787134
 30
0.0
  0
SPLINE
  5
156
100
AcDbEntity
  8
0
 62
7
100
AcDbSpline
 70
8
 71
3
 72
8
 73
4
 74
0
 40
0
 40
0
 40
0
 40
0
 40
1
 40
1
 40
1
 40
1
 10
132.051298
 20
-64.787160
 30
0.0
 10
132.051332
 20
-64.654552
 30
0.0
 10
131.998686
 20
-64.527362
 30
0.0
 10
131.904941
 20
-64.433570
 30
0.0
  0
SPLINE
  5
157
100
AcDbEntity
  8
0
 62
7
100
AcDbSpline
 70
8
 71
3
 72
8
 73
4
 74
0
 40
0
 40
0
 40
0
 40
0
 40
1
 40
1
 40
1
 40
1
 10
131.904941
 20
-64.433570
 30
0.0
 10
131.811197
 20
-64.339779
 30
0.0
 10
131.684034
 20
-64.287068
 30
0.0
 10
131.551426
 20
-64.287034
 30
0.0
  0
SPLINE
  5
158
100
AcDbEntity
  8
0
 62
7
100
AcDbSpline
 70
8
 71
3
 72
8
 73
4
 74
0
 40
0
 40
0
 40
0
 40
0
 40
1
 40
1
 40
1
 40
1
 10
125.801374
 20
-64.287034
 30
0.0
 10
125.668722
 20
-64.287001
 30
0.0
 10
125.541493
 20
-64.339681
 30
0.0
 10
125.447694
 20
-64.433481
 30
0.0
  0
SPLINE
  5
159
100
AcDbEntity
  8
0
 62
7
100
AcDbSpline
 70
8
 71
3
 72
8
 73
4
 74
0
 40
0
 40
0
 40
0
 40
0
 40
1
 40
1
 40
1
 40
1
 10
125.447694
 20
-64.433481
 30
0.0
 10
125.353895
 20
-64.527280
 30
0.0
 10
125.301214
 20
-64.654508
 30
0.0
 10
125.301248
 20
-64.787160
 30
0.0
  0
LWPOLYLINE
  5
15a
100
AcDbEntity
  8
0
 62
7
100
AcDbPolyline
 90
2
 70
0
 10
242.133120
 20
-21.639926
 30
0.0
 10
242.133120
 20
-8.640206
 30
0.0
  0
LWPOLYLINE
  5
15b
100
AcDbEntity
  8
0
 62
7
100
AcDbPolyline
 90
2
 70
0
 10
154.226260
 20
-79.285226
 30
0.0
 10
141.224000
 20
-79.285226
 30
0.0
  0
LWPOLYLINE
  5
15c
100
AcDbEntity
  8
0
 62
7
100
AcDbPolyline
 90
2
 70
0
 10
140.726160
 20
-78.784846
 30
0.0
 10
140.726160
 20
-65.785126
 30
0.0
  0
LWPOLYLINE
  5
15d
100
AcDbEntity
  8
0
 62
7
100
AcDbPolyline
 90
2
 70
0
 10
141.224000
 20
-65.284746
 30
0.0
 10
154.226260
 20
-65.284746
 30
0.0
  0
LWPOLYLINE
  5
15e
100
AcDbEntity
  8
0
 62
7
100
AcDbPolyline
 90
2
 70
0
 10
154.724100
 20
-65.785126
 30
0.0
 10
154.724100
 20
-78.784846
 30
0.0
  0
LWPOLYLINE
  5
15f
100
AcDbEntity
  8
0
 62
7
100
AcDbPolyline
 90
2
 70
0
 10
163.400740
 20
-77.786626
 30
0.0
 10
163.400740
 20
-64.786906
 30
0.0
  0
LWPOLYLINE
  5
160
100
AcDbEntity
  8
0
 62
7
100
AcDbPolyline
 90
2
 70
0
 10
163.901120
 20
-64.286526
 30
0.0
 10
169.649140
 20
-64.286526
 30
0.0
  0
LWPOLYLINE
  5
161
100
AcDbEntity
  8
0
 62
7
100
AcDbPolyline
 90
2
 70
0
 10
170.149520
 20
-64.786906
 30
0.0
 10
170.149520
 20
-77.786626
 30
0.0
  0
LWPOLYLINE
  5
162
100
AcDbEntity
  8
0
 62
7
100
AcDbPolyline
 90
2
 70
0
 10
169.649140
 20
-78.287006
 30
0.0
 10
163.901120
 20
-78.287006
 30
0.0
  0
LWPOLYLINE
  5
163
100
AcDbEntity
  8
0
 62
7
100
AcDbPolyline
 90
2
 70
0
 10
125.300740
 20
-77.786626
 30
0.0
 10
125.300740
 20
-64.786906
 30
0.0
  0
LWPOLYLINE
  5
164
100
AcDbEntity
  8
0
 62
7
100
AcDbPolyline
 90
2
 70
0
 10
125.801120
 20
-64.286526
 30
0.0
 10
131.549140
 20
-64.286526
 30
0.0
  0
LWPOLYLINE
  5
165
100
AcDbEntity
  8
0
 62
7
100
AcDbPolyline
 90
2
 70
0
 10
132.049520
 20
-64.786906
 30
0.0
 10
132.049520
 20
-77.786626
 30
0.0
  0
SPLINE
  5
166
100
AcDbEntity
  8
0
 62
7
100
AcDbSpline
 70
8
 71
3
 72
8
 73
4
 74
0
 40
0
 40
0
 40
0
 40
0
 40
1
 40
1
 40
1
 40
1
 10
106.254804
 20
-77.787134
 30
0.0
 10
106.254838
 20
-77.919742
 30
0.0
 10
106.307548
 20
-78.046906
 30
0.0
 10
106.401340
 20
-78.140650
 30
0.0
  0
SPLINE
  5
167
100
AcDbEntity
  8
0
 62
7
100
AcDbSpline
 70
8
 71
3
 72
8
 73
4
 74
0
 40
0
 40
0
 40
0
 40
0
 40
1
 40
1
 40
1
 40
1
 10
106.401340
 20
-78.140650
 30
0.0
 10
106.495132
 20
-78.234394
 30
0.0
 10
106.622322
 20
-78.287040
 30
0.0
 10
106.754930
 20
-78.287006
 30
0.0
  0
SPLINE
  5
168
100
AcDbEntity
  8
0
 62
7
100
AcDbSpline
 70
8
 71
3
 72
8
 73
4
 74
0
 40
0
 40
0
 40
0
 40
0
 40
1
 40
1
 40
1
 40
1
 10
112.504982
 20
-78.287006
 30
0.0
 10
112.781025
 20
-78.286936
 30
0.0
 10
113.004784
 20
-78.063177
 30
0.0
 10
113.004854
 20
-77.787134
 30
0.0
  0
SPLINE
  5
169
100
AcDbEntity
  8
0
 62
7
100
AcDbSpline
 70
8
 71
3
 72
8
 73
4
 74
0
 40
0
 40
0
 40
0
 40
0
 40
1
 40
1
 40
1
 40
1
 10
113.004854
 20
-64.787160
 30
0.0
 10
113.004888
 20
-64.654552
 30
0.0
 10
112.952242
 20
-64.527362
 30
0.0
 10
112.858497
 20
-64.433570
 30
0.0
  0
SPLINE
  5
16a
100
AcDbEntity
  8
0
 62
7
100
AcDbSpline
 70
8
 71
3
 72
8
 73
4
 74
0
 40
0
 40
0
 40
0
 40
0
 40
1
 40
1
 40
1
 40
1
 10
112.858497
 20
-64.433570
 30
0.0
 10
112.764753
 20
-64.339779
 30
0.0
 10
112.637590
 20
-64.287068
 30
0.0
 10
112.504982
 20
-64.287034
 30
0.0
  0
SPLINE
  5
16b
100
AcDbEntity
  8
0
 62
7
100
AcDbSpline
 70
8
 71
3
 72
8
 73
4
 74
0
 40
0
 40
0
 40
0
 40
0
 40
1
 40
1
 40
1
 40
1
 10
106.754930
 20
-64.287034
 30
0.0
 10
106.622278
 20
-64.287001
 30
0.0
 10
106.495049
 20
-64.339681
 30
0.0
 10
106.401250
 20
-64.433481
 30
0.0
  0
SPLINE
  5
16c
100
AcDbEntity
  8
0
 62
7
100
AcDbSpline
 70
8
 71
3
 72
8
 73
4
 74
0
 40
0
 40
0
 40
0
 40
0
 40
1
 40
1
 40
1
 40
1
 10
106.401250
 20
-64.433481
 30
0.0
 10
106.307451
 20
-64.527280
 30
0.0
 10
106.254770
 20
-64.654508
 30
0.0
 10
106.254804
 20
-64.787160
 30
0.0
  0
SPLINE
  5
16d
100
AcDbEntity
  8
0
 62
7
100
AcDbSpline
 70
8
 71
3
 72
8
 73
4
 74
0
 40
0
 40
0
 40
0
 40
0
 40
1
 40
1
 40
1
 40
1
 10
97.079816
 20
-79.287004
 30
0.0
 10
97.212424
 20
-79.287038
 30
0.0
 10
97.339614
 20
-79.234392
 30
0.0
 10
97.433406
 20
-79.140648
 30
0.0
  0
SPLINE
  5
16e
100
AcDbEntity
  8
0
 62
7
100
AcDbSpline
 70
8
 71
3
 72
8
 73
4
 74
0
 40
0
 40
0
 40
0
 40
0
 40
1
 40
1
 40
1
 40
1
 10
97.433406
 20
-79.140648
 30
0.0
 10
97.527198
 20
-79.046904
 30
0.0
 10
97.579908
 20
-78.919740
 30
0.0
 10
97.579942
 20
-78.787132
 30
0.0
  0
SPLINE
  5
16f
100
AcDbEntity
  8
0
 62
7
100
AcDbSpline
 70
8
 71
3
 72
8
 73
4
 74
0
 40
0
 40
0
 40
0
 40
0
 40
1
 40
1
 40
1
 40
1
 10
97.579942
 20
-65.787158
 30
0.0
 10
97.579976
 20
-65.654506
 30
0.0
 10
97.527295
 20
-65.527278
 30
0.0
 10
97.433496
 20
-65.433479
 30
0.0
  0
SPLINE
  5
170
100
AcDbEntity
  8
0
 62
7
100
AcDbSpline
 70
8
 71
3
 72
8
 73
4
 74
0
 40
0
 40
0
 40
0
 40
0
 40
1
 40
1
 40
1
 40
1
 10
97.433496
 20
-65.433479
 30
0.0
 10
97.339697
 20
-65.339679
 30
0.0
 10
97.212468
 20
-65.286999
 30
0.0
 10
97.079816
 20
-65.287032
 30
0.0
  0
SPLINE
  5
171
100
AcDbEntity
  8
0
 62
7
100
AcDbSpline
 70
8
 71
3
 72
8
 73
4
 74
0
 40
0
 40
0
 40
0
 40
0
 40
1
 40
1
 40
1
 40
1
 10
84.079842
 20
-65.287032
 30
0.0
 10
83.947234
 20
-65.287066
 30
0.0
 10
83.820071
 20
-65.339777
 30
0.0
 10
83.726327
 20
-65.433568
 30
0.0
  0
SPLINE
  5
172
100
AcDbEntity
  8
0
 62
7
100
AcDbSpline
 70
8
 71
3
 72
8
 73
4
 74
0
 40
0
 40
0
 40
0
 40
0
 40
1
 40
1
 40
1
 40
1
 10
83.726327
 20
-65.433568
 30
0.0
 10
83.632582
 20
-65.527360
 30
0.0
 10
83.579936
 20
-65.654550
 30
0.0
 10
83.579970
 20
-65.787158
 30
0.0
  0
SPLINE
  5
173
100
AcDbEntity
  8
0
 62
7
100
AcDbSpline
 70
8
 71
3
 72
8
 73
4
 74
0
 40
0
 40
0
 40
0
 40
0
 40
1
 40
1
 40
1
 40
1
 10
83.579970
 20
-78.787132
 30
0.0
 10
83.580040
 20
-79.063175
 30
0.0
 10
83.803799
 20
-79.286934
 30
0.0
 10
84.079842
 20
-79.287004
 30
0.0
  0
SPLINE
  5
174
100
AcDbEntity
  8
0
 62
7
100
AcDbSpline
 70
8
 71
3
 72
8
 73
4
 74
0
 40
0
 40
0
 40
0
 40
0
 40
1
 40
1
 40
1
 40
1
 10
68.154804
 20
-77.787134
 30
0.0
 10
68.154838
 20
-77.919742
 30
0.0
 10
68.207548
 20
-78.046906
 30
0.0
 10
68.301340
 20
-78.140650
 30
0.0
  0
SPLINE
  5
175
100
AcDbEntity
  8
0
 62
7
100
AcDbSpline
 70
8
 71
3
 72
8
 73
4
 74
0
 40
0
 40
0
 40
0
 40
0
 40
1
 40
1
 40
1
 40
1
 10
68.301340
 20
-78.140650
 30
0.0
 10
68.395132
 20
-78.234394
 30
0.0
 10
68.522322
 20
-78.287040
 30
0.0
 10
68.654930
 20
-78.287006
 30
0.0
  0
SPLINE
  5
176
100
AcDbEntity
  8
0
 62
7
100
AcDbSpline
 70
8
 71
3
 72
8
 73
4
 74
0
 40
0
 40
0
 40
0
 40
0
 40
1
 40
1
 40
1
 40
1
 10
74.404982
 20
-78.287006
 30
0.0
 10
74.681025
 20
-78.286936
 30
0.0
 10
74.904784
 20
-78.063177
 30
0.0
 10
74.904854
 20
-77.787134
 30
0.0
  0
SPLINE
  5
177
100
AcDbEntity
  8
0
 62
7
100
AcDbSpline
 70
8
 71
3
 72
8
 73
4
 74
0
 40
0
 40
0
 40
0
 40
0
 40
1
 40
1
 40
1
 40
1
 10
74.904854
 20
-64.787160
 30
0.0
 10
74.904888
 20
-64.654552
 30
0.0
 10
74.852242
 20
-64.527362
 30
0.0
 10
74.758497
 20
-64.433570
 30
0.0
  0
SPLINE
  5
178
100
AcDbEntity
  8
0
 62
7
100
AcDbSpline
 70
8
 71
3
 72
8
 73
4
 74
0
 40
0
 40
0
 40
0
 40
0
 40
1
 40
1
 40
1
 40
1
 10
74.758497
 20
-64.433570
 30
0.0
 10
74.664753
 20
-64.339779
 30
0.0
 10
74.537590
 20
-64.287068
 30
0.0
 10
74.404982
 20
-64.287034
 30
0.0
  0
SPLINE
  5
179
100
AcDbEntity
  8
0
 62
7
100
AcDbSpline
 70
8
 71
3
 72
8
 73
4
 74
0
 40
0
 40
0
 40
0
 40
0
 40
1
 40
1
 40
1
 40
1
 10
68.654930
 20
-64.287034
 30
0.0
 10
68.522278
 20
-64.287001
 30
0.0
 10
68.395049
 20
-64.339681
 30
0.0
 10
68.301250
 20
-64.433481
 30
0.0
  0
SPLINE
  5
17a
100
AcDbEntity
  8
0
 62
7
100
AcDbSpline
 70
8
 71
3
 72
8
 73
4
 74
0
 40
0
 40
0
 40
0
 40
0
 40
1
 40
1
 40
1
 40
1
 10
68.301250
 20
-64.433481
 30
0.0
 10
68.207451
 20
-64.527280
 30
0.0
 10
68.154770
 20
-64.654508
 30
0.0
 10
68.154804
 20
-64.787160
 30
0.0
  0
LWPOLYLINE
  5
17b
100
AcDbEntity
  8
0
 62
7
100
AcDbPolyline
 90
2
 70
0
 10
131.549140
 20
-78.287006
 30
0.0
 10
125.801120
 20
-78.287006
 30
0.0
  0
LWPOLYLINE
  5
17c
100
AcDbEntity
  8
0
 62
7
100
AcDbPolyline
 90
2
 70
0
 10
97.078800
 20
-79.285226
 30
0.0
 10
84.079080
 20
-79.285226
 30
0.0
  0
LWPOLYLINE
  5
17d
100
AcDbEntity
  8
0
 62
7
100
AcDbPolyline
 90
2
 70
0
 10
83.578700
 20
-78.784846
 30
0.0
 10
83.578700
 20
-65.785126
 30
0.0
  0
LWPOLYLINE
  5
17e
100
AcDbEntity
  8
0
 62
7
100
AcDbPolyline
 90
2
 70
0
 10
84.079080
 20
-65.284746
 30
0.0
 10
97.078800
 20
-65.284746
 30
0.0
  0
LWPOLYLINE
  5
17f
100
AcDbEntity
  8
0
 62
7
100
AcDbPolyline
 90
2
 70
0
 10
97.579180
 20
-65.785126
 30
0.0
 10
97.579180
 20
-78.784846
 30
0.0
  0
LWPOLYLINE
  5
180
100
AcDbEntity
  8
0
 62
7
100
AcDbPolyline
 90
2
 70
0
 10
106.253280
 20
-77.786626
 30
0.0
 10
106.253280
 20
-64.786906
 30
0.0
  0
LWPOLYLINE
  5
181
100
AcDbEntity
  8
0
 62
7
100
AcDbPolyline
 90
2
 70
0
 10
106.753660
 20
-64.286526
 30
0.0
 10
112.504220
 20
-64.286526
 30
0.0
  0
LWPOLYLINE
  5
182
100
AcDbEntity
  8
0
 62
7
100
AcDbPolyline
 90
2
 70
0
 10
113.004600
 20
-64.786906
 30
0.0
 10
113.004600
 20
-77.786626
 30
0.0
  0
LWPOLYLINE
  5
183
100
AcDbEntity
  8
0
 62
7
100
AcDbPolyline
 90
2
 70
0
 10
112.504220
 20
-78.287006
 30
0.0
 10
106.753660
 20
-78.287006
 30
0.0
  0
LWPOLYLINE
  5
184
100
AcDbEntity
  8
0
 62
7
100
AcDbPolyline
 90
2
 70
0
 10
68.153280
 20
-77.786626
 30
0.0
 10
68.153280
 20
-64.786906
 30
0.0
  0
LWPOLYLINE
  5
185
100
AcDbEntity
  8
0
 62
7
100
AcDbPolyline
 90
2
 70
0
 10
68.653660
 20
-64.286526
 30
0.0
 10
74.404220
 20
-64.286526
 30
0.0
  0
LWPOLYLINE
  5
186
100
AcDbEntity
  8
0
 62
7
100
AcDbPolyline
 90
2
 70
0
 10
74.904600
 20
-64.786906
 30
0.0
 10
74.904600
 20
-77.786626
 30
0.0
  0
SPLINE
  5
187
100
AcDbEntity
  8
0
 62
7
100
AcDbSpline
 70
8
 71
3
 72
8
 73
4
 74
0
 40
0
 40
0
 40
0
 40
0
 40
1
 40
1
 40
1
 40
1
 10
235.683806
 20
-27.689444
 30
0.0
 10
235.683772
 20
-27.556836
 30
0.0
 10
235.631062
 20
-27.429673
 30
0.0
 10
235.537270
 20
-27.335929
 30
0.0
  0
SPLINE
  5
188
100
AcDbEntity
  8
0
 62
7
100
AcDbSpline
 70
8
 71
3
 72
8
 73
4
 74
0
 40
0
 40
0
 40
0
 40
0
 40
1
 40
1
 40
1
 40
1
 10
235.537270
 20
-27.335929
 30
0.0
 10
235.443478
 20
-27.242185
 30
0.0
 10
235.316288
 20
-27.189539
 30
0.0
 10
235.183680
 20
-27.189572
 30
0.0
  0
SPLINE
  5
189
100
AcDbEntity
  8
0
 62
7
100
AcDbSpline
 70
8
 71
3
 72
8
 73
4
 74
0
 40
0
 40
0
 40
0
 40
0
 40
1
 40
1
 40
1
 40
1
 10
222.183706
 20
-27.189572
 30
0.0
 10
222.051098
 20
-27.189539
 30
0.0
 10
221.923908
 20
-27.242185
 30
0.0
 10
221.830116
 20
-27.335929
 30
0.0
  0
SPLINE
  5
18a
100
AcDbEntity
  8
0
 62
7
100
AcDbSpline
 70
8
 71
3
 72
8
 73
4
 74
0
 40
0
 40
0
 40
0
 40
0
 40
1
 40
1
 40
1
 40
1
 10
221.830116
 20
-27.335929
 30
0.0
 10
221.736324
 20
-27.429673
 30
0.0
 10
221.683614
 20
-27.556836
 30
0.0
 10
221.683580
 20
-27.689444
 30
0.0
  0
SPLINE
  5
18b
100
AcDbEntity
  8
0
 62
7
100
AcDbSpline
 70
8
 71
3
 72
8
 73
4
 74
0
 40
0
 40
0
 40
0
 40
0
 40
1
 40
1
 40
1
 40
1
 10
221.683580
 20
-40.689418
 30
0.0
 10
221.683546
 20
-40.822070
 30
0.0
 10
221.736227
 20
-40.949299
 30
0.0
 10
221.830026
 20
-41.043098
 30
0.0
  0
SPLINE
  5
18c
100
AcDbEntity
  8
0
 62
7
100
AcDbSpline
 70
8
 71
3
 72
8
 73
4
 74
0
 40
0
 40
0
 40
0
 40
0
 40
1
 40
1
 40
1
 40
1
 10
221.830026
 20
-41.043098
 30
0.0
 10
221.923825
 20
-41.136897
 30
0.0
 10
222.051054
 20
-41.189578
 30
0.0
 10
222.183706
 20
-41.189544
 30
0.0
  0
SPLINE
  5
18d
100
AcDbEntity
  8
0
 62
7
100
AcDbSpline
 70
8
 71
3
 72
8
 73
4
 74
0
 40
0
 40
0
 40
0
 40
0
 40
1
 40
1
 40
1
 40
1
 10
235.183680
 20
-41.189544
 30
0.0
 10
235.316332
 20
-41.189578
 30
0.0
 10
235.443561
 20
-41.136897
 30
0.0
 10
235.537360
 20
-41.043098
 30
0.0
  0
SPLINE
  5
18e
100
AcDbEntity
  8
0
 62
7
100
AcDbSpline
 70
8
 71
3
 72
8
 73
4
 74
0
 40
0
 40
0
 40
0
 40
0
 40
1
 40
1
 40
1
 40
1
 10
235.537360
 20
-41.043098
 30
0.0
 10
235.631159
 20
-40.949299
 30
0.0
 10
235.683840
 20
-40.822070
 30
0.0
 10
235.683806
 20
-40.689418
 30
0.0
  0
LWPOLYLINE
  5
18f
100
AcDbEntity
  8
0
 62
7
100
AcDbPolyline
 90
2
 70
0
 10
74.404220
 20
-78.287006
 30
0.0
 10
68.653660
 20
-78.287006
 30
0.0
  0
LWPOLYLINE
  5
190
100
AcDbEntity
  8
0
 62
7
100
AcDbPolyline
 90
2
 70
0
 10
235.681520
 20
-40.687386
 30
0.0
 10
235.681520
 20
-27.687666
 30
0.0
  0
LWPOLYLINE
  5
191
100
AcDbEntity
  8
0
 62
7
100
AcDbPolyline
 90
2
 70
0
 10
222.181420
 20
-41.187766
 30
0.0
 10
235.183680
 20
-41.187766
 30
0.0
  0
LWPOLYLINE
  5
192
100
AcDbEntity
  8
0
 62
7
100
AcDbPolyline
 90
2
 70
0
 10
221.683580
 20
-27.687666
 30
0.0
 10
221.683580
 20
-40.687386
 30
0.0
  0
LWPOLYLINE
  5
193
100
AcDbEntity
  8
0
 62
7
100
AcDbPolyline
 90
2
 70
0
 10
235.183680
 20
-27.187286
 30
0.0
 10
222.181420
 20
-27.187286
 30
0.0
  0
LWPOLYLINE
  5
194
100
AcDbEntity
  8
0
 62
7
100
AcDbPolyline
 90
2
 70
0
 10
238.064040
 20
-78.784846
 30
0.0
 10
238.064040
 20
-65.785126
 30
0.0
  0
LWPOLYLINE
  5
195
100
AcDbEntity
  8
0
 62
7
100
AcDbPolyline
 90
2
 70
0
 10
224.563940
 20
-79.285226
 30
0.0
 10
237.563660
 20
-79.285226
 30
0.0
  0
LWPOLYLINE
  5
196
100
AcDbEntity
  8
0
 62
7
100
AcDbPolyline
 90
2
 70
0
 10
224.063560
 20
-65.785126
 30
0.0
 10
224.063560
 20
-78.784846
 30
0.0
  0
SPLINE
  5
197
100
AcDbEntity
  8
0
 62
7
100
AcDbSpline
 70
8
 71
3
 72
8
 73
4
 74
0
 40
0
 40
0
 40
0
 40
0
 40
1
 40
1
 40
1
 40
1
 10
238.064802
 20
-65.787158
 30
0.0
 10
238.064836
 20
-65.654506
 30
0.0
 10
238.012155
 20
-65.527278
 30
0.0
 10
237.918356
 20
-65.433479
 30
0.0
  0
SPLINE
  5
198
100
AcDbEntity
  8
0
 62
7
100
AcDbSpline
 70
8
 71
3
 72
8
 73
4
 74
0
 40
0
 40
0
 40
0
 40
0
 40
1
 40
1
 40
1
 40
1
 10
237.918356
 20
-65.433479
 30
0.0
 10
237.824557
 20
-65.339679
 30
0.0
 10
237.697328
 20
-65.286999
 30
0.0
 10
237.564676
 20
-65.287032
 30
0.0
  0
SPLINE
  5
199
100
AcDbEntity
  8
0
 62
7
100
AcDbSpline
 70
8
 71
3
 72
8
 73
4
 74
0
 40
0
 40
0
 40
0
 40
0
 40
1
 40
1
 40
1
 40
1
 10
224.564702
 20
-65.287032
 30
0.0
 10
224.432094
 20
-65.287066
 30
0.0
 10
224.304931
 20
-65.339777
 30
0.0
 10
224.211187
 20
-65.433568
 30
0.0
  0
SPLINE
  5
19a
100
AcDbEntity
  8
0
 62
7
100
AcDbSpline
 70
8
 71
3
 72
8
 73
4
 74
0
 40
0
 40
0
 40
0
 40
0
 40
1
 40
1
 40
1
 40
1
 10
224.211187
 20
-65.433568
 30
0.0
 10
224.117442
 20
-65.527360
 30
0.0
 10
224.064796
 20
-65.654550
 30
0.0
 10
224.064830
 20
-65.787158
 30
0.0
  0
SPLINE
  5
19b
100
AcDbEntity
  8
0
 62
7
100
AcDbSpline
 70
8
 71
3
 72
8
 73
4
 74
0
 40
0
 40
0
 40
0
 40
0
 40
1
 40
1
 40
1
 40
1
 10
224.064830
 20
-78.787132
 30
0.0
 10
224.064900
 20
-79.063175
 30
0.0
 10
224.288659
 20
-79.286934
 30
0.0
 10
224.564702
 20
-79.287004
 30
0.0
  0
SPLINE
  5
19c
100
AcDbEntity
  8
0
 62
7
100
AcDbSpline
 70
8
 71
3
 72
8
 73
4
 74
0
 40
0
 40
0
 40
0
 40
0
 40
1
 40
1
 40
1
 40
1
 10
237.564676
 20
-79.287004
 30
0.0
 10
237.697284
 20
-79.287038
 30
0.0
 10
237.824474
 20
-79.234392
 30
0.0
 10
237.918266
 20
-79.140648
 30
0.0
  0
SPLINE
  5
19d
100
AcDbEntity
  8
0
 62
7
100
AcDbSpline
 70
8
 71
3
 72
8
 73
4
 74
0
 40
0
 40
0
 40
0
 40
0
 40
1
 40
1
 40
1
 40
1
 10
237.918266
 20
-79.140648
 30
0.0
 10
238.012058
 20
-79.046904
 30
0.0
 10
238.064768
 20
-78.919740
 30
0.0
 10
238.064802
 20
-78.787132
 30
0.0
  0
LWPOLYLINE
  5
19e
100
AcDbEntity
  8
0
 62
7
100
AcDbPolyline
 90
2
 70
0
 10
237.563660
 20
-65.284746
 30
0.0
 10
224.563940
 20
-65.284746
 30
0.0
  0
LWPOLYLINE
  5
19f
100
AcDbEntity
  8
0
 62
7
100
AcDbPolyline
 90
2
 70
0
 10
195.204080
 20
-78.784846
 30
0.0
 10
195.204080
 20
-65.785126
 30
0.0
  0
LWPOLYLINE
  5
1a0
100
AcDbEntity
  8
0
 62
7
100
AcDbPolyline
 90
2
 70
0
 10
181.703980
 20
-79.285226
 30
0.0
 10
194.703700
 20
-79.285226
 30
0.0
  0
LWPOLYLINE
  5
1a1
100
AcDbEntity
  8
0
 62
7
100
AcDbPolyline
 90
2
 70
0
 10
181.203600
 20
-65.785126
 30
0.0
 10
181.203600
 20
-78.784846
 30
0.0
  0
SPLINE
  5
1a2
100
AcDbEntity
  8
0
 62
7
100
AcDbSpline
 70
8
 71
3
 72
8
 73
4
 74
0
 40
0
 40
0
 40
0
 40
0
 40
1
 40
1
 40
1
 40
1
 10
195.205096
 20
-65.787158
 30
0.0
 10
195.205130
 20
-65.654506
 30
0.0
 10
195.152449
 20
-65.527278
 30
0.0
 10
195.058650
 20
-65.433479
 30
0.0
  0
SPLINE
  5
1a3
100
AcDbEntity
  8
0
 62
7
100
AcDbSpline
 70
8
 71
3
 72
8
 73
4
 74
0
 40
0
 40
0
 40
0
 40
0
 40
1
 40
1
 40
1
 40
1
 10
195.058650
 20
-65.433479
 30
0.0
 10
194.964851
 20
-65.339679
 30
0.0
 10
194.837622
 20
-65.286999
 30
0.0
 10
194.704970
 20
-65.287032
 30
0.0
  0
SPLINE
  5
1a4
100
AcDbEntity
  8
0
 62
7
100
AcDbSpline
 70
8
 71
3
 72
8
 73
4
 74
0
 40
0
 40
0
 40
0
 40
0
 40
1
 40
1
 40
1
 40
1
 10
181.704996
 20
-65.287032
 30
0.0
 10
181.572388
 20
-65.287066
 30
0.0
 10
181.445225
 20
-65.339777
 30
0.0
 10
181.351481
 20
-65.433568
 30
0.0
  0
SPLINE
  5
1a5
100
AcDbEntity
  8
0
 62
7
100
AcDbSpline
 70
8
 71
3
 72
8
 73
4
 74
0
 40
0
 40
0
 40
0
 40
0
 40
1
 40
1
 40
1
 40
1
 10
181.351481
 20
-65.433568
 30
0.0
 10
181.257736
 20
-65.527360
 30
0.0
 10
181.205090
 20
-65.654550
 30
0.0
 10
181.205124
 20
-65.787158
 30
0.0
  0
SPLINE
  5
1a6
100
AcDbEntity
  8
0
 62
7
100
AcDbSpline
 70
8
 71
3
 72
8
 73
4
 74
0
 40
0
 40
0
 40
0
 40
0
 40
1
 40
1
 40
1
 40
1
 10
181.205124
 20
-78.787132
 30
0.0
 10
181.205194
 20
-79.063175
 30
0.0
 10
181.428953
 20
-79.286934
 30
0.0
 10
181.704996
 20
-79.287004
 30
0.0
  0
SPLINE
  5
1a7
100
AcDbEntity
  8
0
 62
7
100
AcDbSpline
 70
8
 71
3
 72
8
 73
4
 74
0
 40
0
 40
0
 40
0
 40
0
 40
1
 40
1
 40
1
 40
1
 10
194.704970
 20
-79.287004
 30
0.0
 10
194.837578
 20
-79.287038
 30
0.0
 10
194.964768
 20
-79.234392
 30
0.0
 10
195.058560
 20
-79.140648
 30
0.0
  0
SPLINE
  5
1a8
100
AcDbEntity
  8
0
 62
7
100
AcDbSpline
 70
8
 71
3
 72
8
 73
4
 74
0
 40
0
 40
0
 40
0
 40
0
 40
1
 40
1
 40
1
 40
1
 10
195.058560
 20
-79.140648
 30
0.0
 10
195.152352
 20
-79.046904
 30
0.0
 10
195.205062
 20
-78.919740
 30
0.0
 10
195.205096
 20
-78.787132
 30
0.0
  0
LWPOLYLINE
  5
1a9
100
AcDbEntity
  8
0
 62
7
100
AcDbPolyline
 90
2
 70
0
 10
194.703700
 20
-65.284746
 30
0.0
 10
181.703980
 20
-65.284746
 30
0.0
  0
LWPOLYLINE
  5
1aa
100
AcDbEntity
  8
0
 62
7
100
AcDbPolyline
 90
2
 70
0
 10
38.051740
 20
-78.784846
 30
0.0
 10
38.051740
 20
-65.785126
 30
0.0
  0
LWPOLYLINE
  5
1ab
100
AcDbEntity
  8
0
 62
7
100
AcDbPolyline
 90
2
 70
0
 10
24.551640
 20
-79.285226
 30
0.0
 10
37.551360
 20
-79.285226
 30
0.0
  0
LWPOLYLINE
  5
1ac
100
AcDbEntity
  8
0
 62
7
100
AcDbPolyline
 90
2
 70
0
 10
24.051260
 20
-65.785126
 30
0.0
 10
24.051260
 20
-78.784846
 30
0.0
  0
SPLINE
  5
1ad
100
AcDbEntity
  8
0
 62
7
100
AcDbSpline
 70
8
 71
3
 72
8
 73
4
 74
0
 40
0
 40
0
 40
0
 40
0
 40
1
 40
1
 40
1
 40
1
 10
38.052502
 20
-65.787158
 30
0.0
 10
38.052536
 20
-65.654506
 30
0.0
 10
37.999855
 20
-65.527278
 30
0.0
 10
37.906056
 20
-65.433479
 30
0.0
  0
SPLINE
  5
1ae
100
AcDbEntity
  8
0
 62
7
100
AcDbSpline
 70
8
 71
3
 72
8
 73
4
 74
0
 40
0
 40
0
 40
0
 40
0
 40
1
 40
1
 40
1
 40
1
 10
37.906056
 20
-65.433479
 30
0.0
 10
37.812257
 20
-65.339679
 30
0.0
 10
37.685028
 20
-65.286999
 30
0.0
 10
37.552376
 20
-65.287032
 30
0.0
  0
SPLINE
  5
1af
100
AcDbEntity
  8
0
 62
7
100
AcDbSpline
 70
8
 71
3
 72
8
 73
4
 74
0
 40
0
 40
0
 40
0
 40
0
 40
1
 40
1
 40
1
 40
1
 10
24.552402
 20
-65.287032
 30
0.0
 10
24.419772
 20
-65.287032
 30
0.0
 10
24.292576
 20
-65.339728
 30
0.0
 10
24.198804
 20
-65.433523
 30
0.0
  0
SPLINE
  5
1b0
100
AcDbEntity
  8
0
 62
7
100
AcDbSpline
 70
8
 71
3
 72
8
 73
4
 74
0
 40
0
 40
0
 40
0
 40
0
 40
1
 40
1
 40
1
 40
1
 10
24.198804
 20
-65.433523
 30
0.0
 10
24.105033
 20
-65.527319
 30
0.0
 10
24.052369
 20
-65.654528
 30
0.0
 10
24.052403
 20
-65.787158
 30
0.0
  0
SPLINE
  5
1b1
100
AcDbEntity
  8
0
 62
7
100
AcDbSpline
 70
8
 71
3
 72
8
 73
4
 74
0
 40
0
 40
0
 40
0
 40
0
 40
1
 40
1
 40
1
 40
1
 10
24.052403
 20
-78.787132
 30
0.0
 10
24.052473
 20
-79.063224
 30
0.0
 10
24.276310
 20
-79.287004
 30
0.0
 10
24.552402
 20
-79.287004
 30
0.0
  0
SPLINE
  5
1b2
100
AcDbEntity
  8
0
 62
7
100
AcDbSpline
 70
8
 71
3
 72
8
 73
4
 74
0
 40
0
 40
0
 40
0
 40
0
 40
1
 40
1
 40
1
 40
1
 10
37.552376
 20
-79.287004
 30
0.0
 10
37.684984
 20
-79.287038
 30
0.0
 10
37.812174
 20
-79.234392
 30
0.0
 10
37.905966
 20
-79.140648
 30
0.0
  0
SPLINE
  5
1b3
100
AcDbEntity
  8
0
 62
7
100
AcDbSpline
 70
8
 71
3
 72
8
 73
4
 74
0
 40
0
 40
0
 40
0
 40
0
 40
1
 40
1
 40
1
 40
1
 10
37.905966
 20
-79.140648
 30
0.0
 10
37.999758
 20
-79.046904
 30
0.0
 10
38.052468
 20
-78.919740
 30
0.0
 10
38.052502
 20
-78.787132
 30
0.0
  0
SPLINE
  5
1b4
100
AcDbEntity
  8
0
 62
7
100
AcDbSpline
 70
8
 71
3
 72
8
 73
4
 74
0
 40
0
 40
0
 40
0
 40
0
 40
1
 40
1
 40
1
 40
1
 10
23.265790
 20
-60.238274
 30
0.0
 10
23.398420
 20
-60.238274
 30
0.0
 10
23.525616
 20
-60.185578
 30
0.0
 10
23.619388
 20
-60.091783
 30
0.0
  0
SPLINE
  5
1b5
100
AcDbEntity
  8
0
 62
7
100
AcDbSpline
 70
8
 71
3
 72
8
 73
4
 74
0
 40
0
 40
0
 40
0
 40
0
 40
1
 40
1
 40
1
 40
1
 10
23.619388
 20
-60.091783
 30
0.0
 10
23.713160
 20
-59.997988
 30
0.0
 10
23.765823
 20
-59.870778
 30
0.0
 10
23.765789
 20
-59.738148
 30
0.0
  0
SPLINE
  5
1b6
100
AcDbEntity
  8
0
 62
7
100
AcDbSpline
 70
8
 71
3
 72
8
 73
4
 74
0
 40
0
 40
0
 40
0
 40
0
 40
1
 40
1
 40
1
 40
1
 10
9.765792
 20
-59.738148
 30
0.0
 10
9.765758
 20
-59.870778
 30
0.0
 10
9.818422
 20
-59.997988
 30
0.0
 10
9.912193
 20
-60.091783
 30
0.0
  0
SPLINE
  5
1b7
100
AcDbEntity
  8
0
 62
7
100
AcDbSpline
 70
8
 71
3
 72
8
 73
4
 74
0
 40
0
 40
0
 40
0
 40
0
 40
1
 40
1
 40
1
 40
1
 10
9.912193
 20
-60.091783
 30
0.0
 10
10.005965
 20
-60.185578
 30
0.0
 10
10.133161
 20
-60.238274
 30
0.0
 10
10.265791
 20
-60.238274
 30
0.0
  0
SPLINE
  5
1b8
100
AcDbEntity
  8
0
 62
7
100
AcDbSpline
 70
8
 71
3
 72
8
 73
4
 74
0
 40
0
 40
0
 40
0
 40
0
 40
1
 40
1
 40
1
 40
1
 10
10.265791
 20
-46.238302
 30
0.0
 10
9.989699
 20
-46.238302
 30
0.0
 10
9.765862
 20
-46.462082
 30
0.0
 10
9.765792
 20
-46.738174
 30
0.0
  0
SPLINE
  5
1b9
100
AcDbEntity
  8
0
 62
7
100
AcDbSpline
 70
8
 71
3
 72
8
 73
4
 74
0
 40
0
 40
0
 40
0
 40
0
 40
1
 40
1
 40
1
 40
1
 10
23.765789
 20
-46.738174
 30
0.0
 10
23.765719
 20
-46.462082
 30
0.0
 10
23.541883
 20
-46.238302
 30
0.0
 10
23.265790
 20
-46.238302
 30
0.0
  0
LWPOLYLINE
  5
1ba
100
AcDbEntity
  8
0
 62
7
100
AcDbPolyline
 90
2
 70
0
 10
37.551360
 20
-65.284746
 30
0.0
 10
24.551640
 20
-65.284746
 30
0.0
  0
LWPOLYLINE
  5
1bb
100
AcDbEntity
  8
0
 62
7
100
AcDbPolyline
 90
2
 70
0
 10
23.764240
 20
-59.737386
 30
0.0
 10
23.764240
 20
-46.737666
 30
0.0
  0
LWPOLYLINE
  5
1bc
100
AcDbEntity
  8
0
 62
7
100
AcDbPolyline
 90
2
 70
0
 10
10.264140
 20
-60.237766
 30
0.0
 10
23.263860
 20
-60.237766
 30
0.0
  0
LWPOLYLINE
  5
1bd
100
AcDbEntity
  8
0
 62
7
100
AcDbPolyline
 90
2
 70
0
 10
9.763760
 20
-46.737666
 30
0.0
 10
9.763760
 20
-59.737386
 30
0.0
  0
LWPOLYLINE
  5
1be
100
AcDbEntity
  8
0
 62
7
100
AcDbPolyline
 90
2
 70
0
 10
23.263860
 20
-46.237286
 30
0.0
 10
10.264140
 20
-46.237286
 30
0.0
  0
LWPOLYLINE
  5
1bf
100
AcDbEntity
  8
0
 62
7
100
AcDbPolyline
 90
2
 70
0
 10
19.001740
 20
-40.687386
 30
0.0
 10
19.001740
 20
-27.687666
 30
0.0
  0
LWPOLYLINE
  5
1c0
100
AcDbEntity
  8
0
 62
7
100
AcDbPolyline
 90
2
 70
0
 10
5.501640
 20
-41.187766
 30
0.0
 10
18.501360
 20
-41.187766
 30
0.0
  0
LWPOLYLINE
  5
1c1
100
AcDbEntity
  8
0
 62
7
100
AcDbPolyline
 90
2
 70
0
 10
5.001260
 20
-27.687666
 30
0.0
 10
5.001260
 20
-40.687386
 30
0.0
  0
SPLINE
  5
1c2
100
AcDbEntity
  8
0
 62
7
100
AcDbSpline
 70
8
 71
3
 72
8
 73
4
 74
0
 40
0
 40
0
 40
0
 40
0
 40
1
 40
1
 40
1
 40
1
 10
19.003594
 20
-27.689444
 30
0.0
 10
19.003524
 20
-27.413352
 30
0.0
 10
18.779687
 20
-27.189572
 30
0.0
 10
18.503595
 20
-27.189572
 30
0.0
  0
SPLINE
  5
1c3
100
AcDbEntity
  8
0
 62
7
100
AcDbSpline
 70
8
 71
3
 72
8
 73
4
 74
0
 40
0
 40
0
 40
0
 40
0
 40
1
 40
1
 40
1
 40
1
 10
5.503596
 20
-27.189572
 30
0.0
 10
5.227504
 20
-27.189572
 30
0.0
 10
5.003667
 20
-27.413352
 30
0.0
 10
5.003597
 20
-27.689444
 30
0.0
  0
SPLINE
  5
1c4
100
AcDbEntity
  8
0
 62
7
100
AcDbSpline
 70
8
 71
3
 72
8
 73
4
 74
0
 40
0
 40
0
 40
0
 40
0
 40
1
 40
1
 40
1
 40
1
 10
5.003597
 20
-40.689418
 30
0.0
 10
5.003563
 20
-40.822048
 30
0.0
 10
5.056227
 20
-40.949258
 30
0.0
 10
5.149998
 20
-41.043053
 30
0.0
  0
SPLINE
  5
1c5
100
AcDbEntity
  8
0
 62
7
100
AcDbSpline
 70
8
 71
3
 72
8
 73
4
 74
0
 40
0
 40
0
 40
0
 40
0
 40
1
 40
1
 40
1
 40
1
 10
5.149998
 20
-41.043053
 30
0.0
 10
5.243770
 20
-41.136848
 30
0.0
 10
5.370966
 20
-41.189544
 30
0.0
 10
5.503596
 20
-41.189544
 30
0.0
  0
SPLINE
  5
1c6
100
AcDbEntity
  8
0
 62
7
100
AcDbSpline
 70
8
 71
3
 72
8
 73
4
 74
0
 40
0
 40
0
 40
0
 40
0
 40
1
 40
1
 40
1
 40
1
 10
18.503595
 20
-41.189544
 30
0.0
 10
18.636225
 20
-41.189544
 30
0.0
 10
18.763421
 20
-41.136848
 30
0.0
 10
18.857193
 20
-41.043053
 30
0.0
  0
SPLINE
  5
1c7
100
AcDbEntity
  8
0
 62
7
100
AcDbSpline
 70
8
 71
3
 72
8
 73
4
 74
0
 40
0
 40
0
 40
0
 40
0
 40
1
 40
1
 40
1
 40
1
 10
18.857193
 20
-41.043053
 30
0.0
 10
18.950964
 20
-40.949258
 30
0.0
 10
19.003628
 20
-40.822048
 30
0.0
 10
19.003594
 20
-40.689418
 30
0.0
  0
SPLINE
  5
1c8
100
AcDbEntity
  8
0
 62
7
100
AcDbSpline
 70
8
 71
3
 72
8
 73
4
 74
0
 40
0
 40
0
 40
0
 40
0
 40
1
 40
1
 40
1
 40
1
 10
216.134950
 20
-79.287004
 30
0.0
 10
216.410993
 20
-79.286934
 30
0.0
 10
216.634752
 20
-79.063175
 30
0.0
 10
216.634822
 20
-78.787132
 30
0.0
  0
SPLINE
  5
1c9
100
AcDbEntity
  8
0
 62
7
100
AcDbSpline
 70
8
 71
3
 72
8
 73
4
 74
0
 40
0
 40
0
 40
0
 40
0
 40
1
 40
1
 40
1
 40
1
 10
202.634850
 20
-78.787132
 30
0.0
 10
202.634884
 20
-78.919740
 30
0.0
 10
202.687594
 20
-79.046904
 30
0.0
 10
202.781386
 20
-79.140648
 30
0.0
  0
SPLINE
  5
1ca
100
AcDbEntity
  8
0
 62
7
100
AcDbSpline
 70
8
 71
3
 72
8
 73
4
 74
0
 40
0
 40
0
 40
0
 40
0
 40
1
 40
1
 40
1
 40
1
 10
202.781386
 20
-79.140648
 30
0.0
 10
202.875178
 20
-79.234392
 30
0.0
 10
203.002368
 20
-79.287038
 30
0.0
 10
203.134976
 20
-79.287004
 30
0.0
  0
SPLINE
  5
1cb
100
AcDbEntity
  8
0
 62
7
100
AcDbSpline
 70
8
 71
3
 72
8
 73
4
 74
0
 40
0
 40
0
 40
0
 40
0
 40
1
 40
1
 40
1
 40
1
 10
203.134976
 20
-65.287032
 30
0.0
 10
203.002324
 20
-65.286999
 30
0.0
 10
202.875095
 20
-65.339679
 30
0.0
 10
202.781296
 20
-65.433479
 30
0.0
  0
SPLINE
  5
1cc
100
AcDbEntity
  8
0
 62
7
100
AcDbSpline
 70
8
 71
3
 72
8
 73
4
 74
0
 40
0
 40
0
 40
0
 40
0
 40
1
 40
1
 40
1
 40
1
 10
202.781296
 20
-65.433479
 30
0.0
 10
202.687497
 20
-65.527278
 30
0.0
 10
202.634816
 20
-65.654506
 30
0.0
 10
202.634850
 20
-65.787158
 30
0.0
  0
SPLINE
  5
1cd
100
AcDbEntity
  8
0
 62
7
100
AcDbSpline
 70
8
 71
3
 72
8
 73
4
 74
0
 40
0
 40
0
 40
0
 40
0
 40
1
 40
1
 40
1
 40
1
 10
216.634822
 20
-65.787158
 30
0.0
 10
216.634856
 20
-65.654550
 30
0.0
 10
216.582210
 20
-65.527360
 30
0.0
 10
216.488465
 20
-65.433568
 30
0.0
  0
SPLINE
  5
1ce
100
AcDbEntity
  8
0
 62
7
100
AcDbSpline
 70
8
 71
3
 72
8
 73
4
 74
0
 40
0
 40
0
 40
0
 40
0
 40
1
 40
1
 40
1
 40
1
 10
216.488465
 20
-65.433568
 30
0.0
 10
216.394721
 20
-65.339777
 30
0.0
 10
216.267558
 20
-65.287066
 30
0.0
 10
216.134950
 20
-65.287032
 30
0.0
  0
LWPOLYLINE
  5
1cf
100
AcDbEntity
  8
0
 62
7
100
AcDbPolyline
 90
2
 70
0
 10
18.501360
 20
-27.187286
 30
0.0
 10
5.501640
 20
-27.187286
 30
0.0
  0
LWPOLYLINE
  5
1d0
100
AcDbEntity
  8
0
 62
7
100
AcDbPolyline
 90
2
 70
0
 10
216.634060
 20
-78.784846
 30
0.0
 10
216.634060
 20
-65.785126
 30
0.0
  0
LWPOLYLINE
  5
1d1
100
AcDbEntity
  8
0
 62
7
100
AcDbPolyline
 90
2
 70
0
 10
203.133960
 20
-79.285226
 30
0.0
 10
216.133680
 20
-79.285226
 30
0.0
  0
LWPOLYLINE
  5
1d2
100
AcDbEntity
  8
0
 62
7
100
AcDbPolyline
 90
2
 70
0
 10
202.633580
 20
-65.785126
 30
0.0
 10
202.633580
 20
-78.784846
 30
0.0
  0
SPLINE
  5
1d3
100
AcDbEntity
  8
0
 62
7
100
AcDbSpline
 70
8
 71
3
 72
8
 73
4
 74
0
 40
0
 40
0
 40
0
 40
0
 40
1
 40
1
 40
1
 40
1
 10
58.982356
 20
-79.287004
 30
0.0
 10
59.258399
 20
-79.286934
 30
0.0
 10
59.482158
 20
-79.063175
 30
0.0
 10
59.482228
 20
-78.787132
 30
0.0
  0
SPLINE
  5
1d4
100
AcDbEntity
  8
0
 62
7
100
AcDbSpline
 70
8
 71
3
 72
8
 73
4
 74
0
 40
0
 40
0
 40
0
 40
0
 40
1
 40
1
 40
1
 40
1
 10
45.482256
 20
-78.787132
 30
0.0
 10
45.482290
 20
-78.919740
 30
0.0
 10
45.535000
 20
-79.046904
 30
0.0
 10
45.628792
 20
-79.140648
 30
0.0
  0
SPLINE
  5
1d5
100
AcDbEntity
  8
0
 62
7
100
AcDbSpline
 70
8
 71
3
 72
8
 73
4
 74
0
 40
0
 40
0
 40
0
 40
0
 40
1
 40
1
 40
1
 40
1
 10
45.628792
 20
-79.140648
 30
0.0
 10
45.722584
 20
-79.234392
 30
0.0
 10
45.849774
 20
-79.287038
 30
0.0
 10
45.982382
 20
-79.287004
 30
0.0
  0
SPLINE
  5
1d6
100
AcDbEntity
  8
0
 62
7
100
AcDbSpline
 70
8
 71
3
 72
8
 73
4
 74
0
 40
0
 40
0
 40
0
 40
0
 40
1
 40
1
 40
1
 40
1
 10
45.982382
 20
-65.287032
 30
0.0
 10
45.849730
 20
-65.286999
 30
0.0
 10
45.722501
 20
-65.339679
 30
0.0
 10
45.628702
 20
-65.433479
 30
0.0
  0
SPLINE
  5
1d7
100
AcDbEntity
  8
0
 62
7
100
AcDbSpline
 70
8
 71
3
 72
8
 73
4
 74
0
 40
0
 40
0
 40
0
 40
0
 40
1
 40
1
 40
1
 40
1
 10
45.628702
 20
-65.433479
 30
0.0
 10
45.534903
 20
-65.527278
 30
0.0
 10
45.482222
 20
-65.654506
 30
0.0
 10
45.482256
 20
-65.787158
 30
0.0
  0
SPLINE
  5
1d8
100
AcDbEntity
  8
0
 62
7
100
AcDbSpline
 70
8
 71
3
 72
8
 73
4
 74
0
 40
0
 40
0
 40
0
 40
0
 40
1
 40
1
 40
1
 40
1
 10
59.482228
 20
-65.787158
 30
0.0
 10
59.482262
 20
-65.654550
 30
0.0
 10
59.429616
 20
-65.527360
 30
0.0
 10
59.335871
 20
-65.433568
 30
0.0
  0
SPLINE
  5
1d9
100
AcDbEntity
  8
0
 62
7
100
AcDbSpline
 70
8
 71
3
 72
8
 73
4
 74
0
 40
0
 40
0
 40
0
 40
0
 40
1
 40
1
 40
1
 40
1
 10
59.335871
 20
-65.433568
 30
0.0
 10
59.242127
 20
-65.339777
 30
0.0
 10
59.114964
 20
-65.287066
 30
0.0
 10
58.982356
 20
-65.287032
 30
0.0
  0
LWPOLYLINE
  5
1da
100
AcDbEntity
  8
0
 62
7
100
AcDbPolyline
 90
2
 70
0
 10
216.133680
 20
-65.284746
 30
0.0
 10
203.133960
 20
-65.284746
 30
0.0
  0
LWPOLYLINE
  5
1db
100
AcDbEntity
  8
0
 62
7
100
AcDbPolyline
 90
2
 70
0
 10
59.481720
 20
-78.784846
 30
0.0
 10
59.481720
 20
-65.785126
 30
0.0
  0
LWPOLYLINE
  5
1dc
100
AcDbEntity
  8
0
 62
7
100
AcDbPolyline
 90
2
 70
0
 10
45.981620
 20
-79.285226
 30
0.0
 10
58.981340
 20
-79.285226
 30
0.0
  0
LWPOLYLINE
  5
1dd
100
AcDbEntity
  8
0
 62
7
100
AcDbPolyline
 90
2
 70
0
 10
45.481240
 20
-65.785126
 30
0.0
 10
45.481240
 20
-78.784846
 30
0.0
  0
SPLINE
  5
1de
100
AcDbEntity
  8
0
 62
7
100
AcDbSpline
 70
8
 71
3
 72
8
 73
4
 74
0
 40
0
 40
0
 40
0
 40
0
 40
1
 40
1
 40
1
 40
1
 10
16.122498
 20
-79.287004
 30
0.0
 10
16.398590
 20
-79.287004
 30
0.0
 10
16.622426
 20
-79.063224
 30
0.0
 10
16.622497
 20
-78.787132
 30
0.0
  0
SPLINE
  5
1df
100
AcDbEntity
  8
0
 62
7
100
AcDbSpline
 70
8
 71
3
 72
8
 73
4
 74
0
 40
0
 40
0
 40
0
 40
0
 40
1
 40
1
 40
1
 40
1
 10
2.622499
 20
-78.787132
 30
0.0
 10
2.622569
 20
-79.063224
 30
0.0
 10
2.846406
 20
-79.287004
 30
0.0
 10
3.122498
 20
-79.287004
 30
0.0
  0
SPLINE
  5
1e0
100
AcDbEntity
  8
0
 62
7
100
AcDbSpline
 70
8
 71
3
 72
8
 73
4
 74
0
 40
0
 40
0
 40
0
 40
0
 40
1
 40
1
 40
1
 40
1
 10
3.122498
 20
-65.287032
 30
0.0
 10
2.989868
 20
-65.287032
 30
0.0
 10
2.862672
 20
-65.339728
 30
0.0
 10
2.768901
 20
-65.433523
 30
0.0
  0
SPLINE
  5
1e1
100
AcDbEntity
  8
0
 62
7
100
AcDbSpline
 70
8
 71
3
 72
8
 73
4
 74
0
 40
0
 40
0
 40
0
 40
0
 40
1
 40
1
 40
1
 40
1
 10
2.768901
 20
-65.433523
 30
0.0
 10
2.675129
 20
-65.527319
 30
0.0
 10
2.622466
 20
-65.654528
 30
0.0
 10
2.622499
 20
-65.787158
 30
0.0
  0
SPLINE
  5
1e2
100
AcDbEntity
  8
0
 62
7
100
AcDbSpline
 70
8
 71
3
 72
8
 73
4
 74
0
 40
0
 40
0
 40
0
 40
0
 40
1
 40
1
 40
1
 40
1
 10
16.622497
 20
-65.787158
 30
0.0
 10
16.622530
 20
-65.654528
 30
0.0
 10
16.569867
 20
-65.527319
 30
0.0
 10
16.476095
 20
-65.433523
 30
0.0
  0
SPLINE
  5
1e3
100
AcDbEntity
  8
0
 62
7
100
AcDbSpline
 70
8
 71
3
 72
8
 73
4
 74
0
 40
0
 40
0
 40
0
 40
0
 40
1
 40
1
 40
1
 40
1
 10
16.476095
 20
-65.433523
 30
0.0
 10
16.382324
 20
-65.339728
 30
0.0
 10
16.255128
 20
-65.287032
 30
0.0
 10
16.122498
 20
-65.287032
 30
0.0
  0
LWPOLYLINE
  5
1e4
100
AcDbEntity
  8
0
 62
7
100
AcDbPolyline
 90
2
 70
0
 10
58.981340
 20
-65.284746
 30
0.0
 10
45.981620
 20
-65.284746
 30
0.0
  0
LWPOLYLINE
  5
1e5
100
AcDbEntity
  8
0
 62
7
100
AcDbPolyline
 90
2
 70
0
 10
16.621760
 20
-78.784846
 30
0.0
 10
16.621760
 20
-65.785126
 30
0.0
  0
LWPOLYLINE
  5
1e6
100
AcDbEntity
  8
0
 62
7
100
AcDbPolyline
 90
2
 70
0
 10
3.121660
 20
-79.285226
 30
0.0
 10
16.121380
 20
-79.285226
 30
0.0
  0
LWPOLYLINE
  5
1e7
100
AcDbEntity
  8
0
 62
7
100
AcDbPolyline
 90
2
 70
0
 10
2.621280
 20
-65.785126
 30
0.0
 10
2.621280
 20
-78.784846
 30
0.0
  0
SPLINE
  5
1e8
100
AcDbEntity
  8
0
 62
7
100
AcDbSpline
 70
8
 71
3
 72
8
 73
4
 74
0
 40
0
 40
0
 40
0
 40
0
 40
1
 40
1
 40
1
 40
1
 10
49.457864
 20
-60.238274
 30
0.0
 10
49.590516
 20
-60.238308
 30
0.0
 10
49.717745
 20
-60.185627
 30
0.0
 10
49.811544
 20
-60.091828
 30
0.0
  0
SPLINE
  5
1e9
100
AcDbEntity
  8
0
 62
7
100
AcDbSpline
 70
8
 71
3
 72
8
 73
4
 74
0
 40
0
 40
0
 40
0
 40
0
 40
1
 40
1
 40
1
 40
1
 10
49.811544
 20
-60.091828
 30
0.0
 10
49.905343
 20
-59.998029
 30
0.0
 10
49.958024
 20
-59.870800
 30
0.0
 10
49.957990
 20
-59.738148
 30
0.0
  0
SPLINE
  5
1ea
100
AcDbEntity
  8
0
 62
7
100
AcDbSpline
 70
8
 71
3
 72
8
 73
4
 74
0
 40
0
 40
0
 40
0
 40
0
 40
1
 40
1
 40
1
 40
1
 10
35.958018
 20
-59.738148
 30
0.0
 10
35.957984
 20
-59.870756
 30
0.0
 10
36.010630
 20
-59.997946
 30
0.0
 10
36.104375
 20
-60.091738
 30
0.0
  0
SPLINE
  5
1eb
100
AcDbEntity
  8
0
 62
7
100
AcDbSpline
 70
8
 71
3
 72
8
 73
4
 74
0
 40
0
 40
0
 40
0
 40
0
 40
1
 40
1
 40
1
 40
1
 10
36.104375
 20
-60.091738
 30
0.0
 10
36.198119
 20
-60.185530
 30
0.0
 10
36.325282
 20
-60.238241
 30
0.0
 10
36.457890
 20
-60.238274
 30
0.0
  0
SPLINE
  5
1ec
100
AcDbEntity
  8
0
 62
7
100
AcDbSpline
 70
8
 71
3
 72
8
 73
4
 74
0
 40
0
 40
0
 40
0
 40
0
 40
1
 40
1
 40
1
 40
1
 10
36.457890
 20
-46.238302
 30
0.0
 10
36.181847
 20
-46.238372
 30
0.0
 10
35.958088
 20
-46.462132
 30
0.0
 10
35.958018
 20
-46.738174
 30
0.0
  0
SPLINE
  5
1ed
100
AcDbEntity
  8
0
 62
7
100
AcDbSpline
 70
8
 71
3
 72
8
 73
4
 74
0
 40
0
 40
0
 40
0
 40
0
 40
1
 40
1
 40
1
 40
1
 10
49.957990
 20
-46.738174
 30
0.0
 10
49.957956
 20
-46.605566
 30
0.0
 10
49.905246
 20
-46.478403
 30
0.0
 10
49.811454
 20
-46.384659
 30
0.0
  0
SPLINE
  5
1ee
100
AcDbEntity
  8
0
 62
7
100
AcDbSpline
 70
8
 71
3
 72
8
 73
4
 74
0
 40
0
 40
0
 40
0
 40
0
 40
1
 40
1
 40
1
 40
1
 10
49.811454
 20
-46.384659
 30
0.0
 10
49.717662
 20
-46.290915
 30
0.0
 10
49.590472
 20
-46.238269
 30
0.0
 10
49.457864
 20
-46.238302
 30
0.0
  0
LWPOLYLINE
  5
1ef
100
AcDbEntity
  8
0
 62
7
100
AcDbPolyline
 90
2
 70
0
 10
16.121380
 20
-65.284746
 30
0.0
 10
3.121660
 20
-65.284746
 30
0.0
  0
LWPOLYLINE
  5
1f0
100
AcDbEntity
  8
0
 62
7
100
AcDbPolyline
 90
2
 70
0
 10
49.956720
 20
-59.737386
 30
0.0
 10
49.956720
 20
-46.737666
 30
0.0
  0
LWPOLYLINE
  5
1f1
100
AcDbEntity
  8
0
 62
7
100
AcDbPolyline
 90
2
 70
0
 10
36.456620
 20
-60.237766
 30
0.0
 10
49.456340
 20
-60.237766
 30
0.0
  0
LWPOLYLINE
  5
1f2
100
AcDbEntity
  8
0
 62
7
100
AcDbPolyline
 90
2
 70
0
 10
35.956240
 20
-46.737666
 30
0.0
 10
35.956240
 20
-59.737386
 30
0.0
  0
SPLINE
  5
1f3
100
AcDbEntity
  8
0
 62
7
100
AcDbSpline
 70
8
 71
3
 72
8
 73
4
 74
0
 40
0
 40
0
 40
0
 40
0
 40
1
 40
1
 40
1
 40
1
 10
68.506594
 20
-60.238274
 30
0.0
 10
68.639246
 20
-60.238308
 30
0.0
 10
68.766475
 20
-60.185627
 30
0.0
 10
68.860274
 20
-60.091828
 30
0.0
  0
SPLINE
  5
1f4
100
AcDbEntity
  8
0
 62
7
100
AcDbSpline
 70
8
 71
3
 72
8
 73
4
 74
0
 40
0
 40
0
 40
0
 40
0
 40
1
 40
1
 40
1
 40
1
 10
68.860274
 20
-60.091828
 30
0.0
 10
68.954073
 20
-59.998029
 30
0.0
 10
69.006754
 20
-59.870800
 30
0.0
 10
69.006720
 20
-59.738148
 30
0.0
  0
SPLINE
  5
1f5
100
AcDbEntity
  8
0
 62
7
100
AcDbSpline
 70
8
 71
3
 72
8
 73
4
 74
0
 40
0
 40
0
 40
0
 40
0
 40
1
 40
1
 40
1
 40
1
 10
55.006748
 20
-59.738148
 30
0.0
 10
55.006714
 20
-59.870756
 30
0.0
 10
55.059360
 20
-59.997946
 30
0.0
 10
55.153105
 20
-60.091738
 30
0.0
  0
SPLINE
  5
1f6
100
AcDbEntity
  8
0
 62
7
100
AcDbSpline
 70
8
 71
3
 72
8
 73
4
 74
0
 40
0
 40
0
 40
0
 40
0
 40
1
 40
1
 40
1
 40
1
 10
55.153105
 20
-60.091738
 30
0.0
 10
55.246849
 20
-60.185530
 30
0.0
 10
55.374012
 20
-60.238241
 30
0.0
 10
55.506620
 20
-60.238274
 30
0.0
  0
SPLINE
  5
1f7
100
AcDbEntity
  8
0
 62
7
100
AcDbSpline
 70
8
 71
3
 72
8
 73
4
 74
0
 40
0
 40
0
 40
0
 40
0
 40
1
 40
1
 40
1
 40
1
 10
55.506620
 20
-46.238302
 30
0.0
 10
55.230577
 20
-46.238372
 30
0.0
 10
55.006818
 20
-46.462132
 30
0.0
 10
55.006748
 20
-46.738174
 30
0.0
  0
SPLINE
  5
1f8
100
AcDbEntity
  8
0
 62
7
100
AcDbSpline
 70
8
 71
3
 72
8
 73
4
 74
0
 40
0
 40
0
 40
0
 40
0
 40
1
 40
1
 40
1
 40
1
 10
69.006720
 20
-46.738174
 30
0.0
 10
69.006686
 20
-46.605566
 30
0.0
 10
68.953976
 20
-46.478403
 30
0.0
 10
68.860184
 20
-46.384659
 30
0.0
  0
SPLINE
  5
1f9
100
AcDbEntity
  8
0
 62
7
100
AcDbSpline
 70
8
 71
3
 72
8
 73
4
 74
0
 40
0
 40
0
 40
0
 40
0
 40
1
 40
1
 40
1
 40
1
 10
68.860184
 20
-46.384659
 30
0.0
 10
68.766392
 20
-46.290915
 30
0.0
 10
68.639202
 20
-46.238269
 30
0.0
 10
68.506594
 20
-46.238302
 30
0.0
  0
LWPOLYLINE
  5
1fa
100
AcDbEntity
  8
0
 62
7
100
AcDbPolyline
 90
2
 70
0
 10
49.456340
 20
-46.237286
 30
0.0
 10
36.456620
 20
-46.237286
 30
0.0
  0
LWPOLYLINE
  5
1fb
100
AcDbEntity
  8
0
 62
7
100
AcDbPolyline
 90
2
 70
0
 10
69.004180
 20
-59.737386
 30
0.0
 10
69.004180
 20
-46.737666
 30
0.0
  0
LWPOLYLINE
  5
1fc
100
AcDbEntity
  8
0
 62
7
100
AcDbPolyline
 90
2
 70
0
 10
55.506620
 20
-60.237766
 30
0.0
 10
68.506340
 20
-60.237766
 30
0.0
  0
LWPOLYLINE
  5
1fd
100
AcDbEntity
  8
0
 62
7
100
AcDbPolyline
 90
2
 70
0
 10
55.006240
 20
-46.737666
 30
0.0
 10
55.006240
 20
-59.737386
 30
0.0
  0
SPLINE
  5
1fe
100
AcDbEntity
  8
0
 62
7
100
AcDbSpline
 70
8
 71
3
 72
8
 73
4
 74
0
 40
0
 40
0
 40
0
 40
0
 40
1
 40
1
 40
1
 40
1
 10
87.555578
 20
-60.238274
 30
0.0
 10
87.688186
 20
-60.238241
 30
0.0
 10
87.815349
 20
-60.185530
 30
0.0
 10
87.909093
 20
-60.091738
 30
0.0
  0
SPLINE
  5
1ff
100
AcDbEntity
  8
0
 62
7
100
AcDbSpline
 70
8
 71
3
 72
8
 73
4
 74
0
 40
0
 40
0
 40
0
 40
0
 40
1
 40
1
 40
1
 40
1
 10
87.909093
 20
-60.091738
 30
0.0
 10
88.002838
 20
-59.997946
 30
0.0
 10
88.055484
 20
-59.870756
 30
0.0
 10
88.055450
 20
-59.738148
 30
0.0
  0
SPLINE
  5
200
100
AcDbEntity
  8
0
 62
7
100
AcDbSpline
 70
8
 71
3
 72
8
 73
4
 74
0
 40
0
 40
0
 40
0
 40
0
 40
1
 40
1
 40
1
 40
1
 10
74.055478
 20
-59.738148
 30
0.0
 10
74.055444
 20
-59.870800
 30
0.0
 10
74.108125
 20
-59.998029
 30
0.0
 10
74.201924
 20
-60.091828
 30
0.0
  0
SPLINE
  5
201
100
AcDbEntity
  8
0
 62
7
100
AcDbSpline
 70
8
 71
3
 72
8
 73
4
 74
0
 40
0
 40
0
 40
0
 40
0
 40
1
 40
1
 40
1
 40
1
 10
74.201924
 20
-60.091828
 30
0.0
 10
74.295723
 20
-60.185627
 30
0.0
 10
74.422952
 20
-60.238308
 30
0.0
 10
74.555604
 20
-60.238274
 30
0.0
  0
SPLINE
  5
202
100
AcDbEntity
  8
0
 62
7
100
AcDbSpline
 70
8
 71
3
 72
8
 73
4
 74
0
 40
0
 40
0
 40
0
 40
0
 40
1
 40
1
 40
1
 40
1
 10
74.555604
 20
-46.238302
 30
0.0
 10
74.422996
 20
-46.238269
 30
0.0
 10
74.295806
 20
-46.290915
 30
0.0
 10
74.202014
 20
-46.384659
 30
0.0
  0
SPLINE
  5
203
100
AcDbEntity
  8
0
 62
7
100
AcDbSpline
 70
8
 71
3
 72
8
 73
4
 74
0
 40
0
 40
0
 40
0
 40
0
 40
1
 40
1
 40
1
 40
1
 10
74.202014
 20
-46.384659
 30
0.0
 10
74.108222
 20
-46.478403
 30
0.0
 10
74.055512
 20
-46.605566
 30
0.0
 10
74.055478
 20
-46.738174
 30
0.0
  0
SPLINE
  5
204
100
AcDbEntity
  8
0
 62
7
100
AcDbSpline
 70
8
 71
3
 72
8
 73
4
 74
0
 40
0
 40
0
 40
0
 40
0
 40
1
 40
1
 40
1
 40
1
 10
88.055450
 20
-46.738174
 30
0.0
 10
88.055380
 20
-46.462132
 30
0.0
 10
87.831621
 20
-46.238372
 30
0.0
 10
87.555578
 20
-46.238302
 30
0.0
  0
LWPOLYLINE
  5
205
100
AcDbEntity
  8
0
 62
7
100
AcDbPolyline
 90
2
 70
0
 10
68.506340
 20
-46.237286
 30
0.0
 10
55.506620
 20
-46.237286
 30
0.0
  0
LWPOLYLINE
  5
206
100
AcDbEntity
  8
0
 62
7
100
AcDbPolyline
 90
2
 70
0
 10
88.054180
 20
-59.737386
 30
0.0
 10
88.054180
 20
-46.737666
 30
0.0
  0
LWPOLYLINE
  5
207
100
AcDbEntity
  8
0
 62
7
100
AcDbPolyline
 90
2
 70
0
 10
74.554080
 20
-60.237766
 30
0.0
 10
87.553800
 20
-60.237766
 30
0.0
  0
LWPOLYLINE
  5
208
100
AcDbEntity
  8
0
 62
7
100
AcDbPolyline
 90
2
 70
0
 10
74.053700
 20
-46.737666
 30
0.0
 10
74.053700
 20
-59.737386
 30
0.0
  0
SPLINE
  5
209
100
AcDbEntity
  8
0
 62
7
100
AcDbSpline
 70
8
 71
3
 72
8
 73
4
 74
0
 40
0
 40
0
 40
0
 40
0
 40
1
 40
1
 40
1
 40
1
 10
106.604308
 20
-60.238274
 30
0.0
 10
106.736916
 20
-60.238241
 30
0.0
 10
106.864079
 20
-60.185530
 30
0.0
 10
106.957823
 20
-60.091738
 30
0.0
  0
SPLINE
  5
20a
100
AcDbEntity
  8
0
 62
7
100
AcDbSpline
 70
8
 71
3
 72
8
 73
4
 74
0
 40
0
 40
0
 40
0
 40
0
 40
1
 40
1
 40
1
 40
1
 10
106.957823
 20
-60.091738
 30
0.0
 10
107.051568
 20
-59.997946
 30
0.0
 10
107.104214
 20
-59.870756
 30
0.0
 10
107.104180
 20
-59.738148
 30
0.0
  0
SPLINE
  5
20b
100
AcDbEntity
  8
0
 62
7
100
AcDbSpline
 70
8
 71
3
 72
8
 73
4
 74
0
 40
0
 40
0
 40
0
 40
0
 40
1
 40
1
 40
1
 40
1
 10
93.104208
 20
-59.738148
 30
0.0
 10
93.104174
 20
-59.870800
 30
0.0
 10
93.156855
 20
-59.998029
 30
0.0
 10
93.250654
 20
-60.091828
 30
0.0
  0
SPLINE
  5
20c
100
AcDbEntity
  8
0
 62
7
100
AcDbSpline
 70
8
 71
3
 72
8
 73
4
 74
0
 40
0
 40
0
 40
0
 40
0
 40
1
 40
1
 40
1
 40
1
 10
93.250654
 20
-60.091828
 30
0.0
 10
93.344453
 20
-60.185627
 30
0.0
 10
93.471682
 20
-60.238308
 30
0.0
 10
93.604334
 20
-60.238274
 30
0.0
  0
SPLINE
  5
20d
100
AcDbEntity
  8
0
 62
7
100
AcDbSpline
 70
8
 71
3
 72
8
 73
4
 74
0
 40
0
 40
0
 40
0
 40
0
 40
1
 40
1
 40
1
 40
1
 10
93.604334
 20
-46.238302
 30
0.0
 10
93.471726
 20
-46.238269
 30
0.0
 10
93.344536
 20
-46.290915
 30
0.0
 10
93.250744
 20
-46.384659
 30
0.0
  0
SPLINE
  5
20e
100
AcDbEntity
  8
0
 62
7
100
AcDbSpline
 70
8
 71
3
 72
8
 73
4
 74
0
 40
0
 40
0
 40
0
 40
0
 40
1
 40
1
 40
1
 40
1
 10
93.250744
 20
-46.384659
 30
0.0
 10
93.156952
 20
-46.478403
 30
0.0
 10
93.104242
 20
-46.605566
 30
0.0
 10
93.104208
 20
-46.738174
 30
0.0
  0
SPLINE
  5
20f
100
AcDbEntity
  8
0
 62
7
100
AcDbSpline
 70
8
 71
3
 72
8
 73
4
 74
0
 40
0
 40
0
 40
0
 40
0
 40
1
 40
1
 40
1
 40
1
 10
107.104180
 20
-46.738174
 30
0.0
 10
107.104110
 20
-46.462132
 30
0.0
 10
106.880351
 20
-46.238372
 30
0.0
 10
106.604308
 20
-46.238302
 30
0.0
  0
LWPOLYLINE
  5
210
100
AcDbEntity
  8
0
 62
7
100
AcDbPolyline
 90
2
 70
0
 10
87.553800
 20
-46.237286
 30
0.0
 10
74.554080
 20
-46.237286
 30
0.0
  0
LWPOLYLINE
  5
211
100
AcDbEntity
  8
0
 62
7
100
AcDbPolyline
 90
2
 70
0
 10
107.104180
 20
-59.737386
 30
0.0
 10
107.104180
 20
-46.737666
 30
0.0
  0
LWPOLYLINE
  5
212
100
AcDbEntity
  8
0
 62
7
100
AcDbPolyline
 90
2
 70
0
 10
93.604080
 20
-60.237766
 30
0.0
 10
106.603800
 20
-60.237766
 30
0.0
  0
LWPOLYLINE
  5
213
100
AcDbEntity
  8
0
 62
7
100
AcDbPolyline
 90
2
 70
0
 10
93.103700
 20
-46.737666
 30
0.0
 10
93.103700
 20
-59.737386
 30
0.0
  0
SPLINE
  5
214
100
AcDbEntity
  8
0
 62
7
100
AcDbSpline
 70
8
 71
3
 72
8
 73
4
 74
0
 40
0
 40
0
 40
0
 40
0
 40
1
 40
1
 40
1
 40
1
 10
125.653038
 20
-60.238274
 30
0.0
 10
125.785690
 20
-60.238308
 30
0.0
 10
125.912919
 20
-60.185627
 30
0.0
 10
126.006718
 20
-60.091828
 30
0.0
  0
SPLINE
  5
215
100
AcDbEntity
  8
0
 62
7
100
AcDbSpline
 70
8
 71
3
 72
8
 73
4
 74
0
 40
0
 40
0
 40
0
 40
0
 40
1
 40
1
 40
1
 40
1
 10
126.006718
 20
-60.091828
 30
0.0
 10
126.100517
 20
-59.998029
 30
0.0
 10
126.153198
 20
-59.870800
 30
0.0
 10
126.153164
 20
-59.738148
 30
0.0
  0
SPLINE
  5
216
100
AcDbEntity
  8
0
 62
7
100
AcDbSpline
 70
8
 71
3
 72
8
 73
4
 74
0
 40
0
 40
0
 40
0
 40
0
 40
1
 40
1
 40
1
 40
1
 10
112.153192
 20
-59.738148
 30
0.0
 10
112.153158
 20
-59.870756
 30
0.0
 10
112.205804
 20
-59.997946
 30
0.0
 10
112.299549
 20
-60.091738
 30
0.0
  0
SPLINE
  5
217
100
AcDbEntity
  8
0
 62
7
100
AcDbSpline
 70
8
 71
3
 72
8
 73
4
 74
0
 40
0
 40
0
 40
0
 40
0
 40
1
 40
1
 40
1
 40
1
 10
112.299549
 20
-60.091738
 30
0.0
 10
112.393293
 20
-60.185530
 30
0.0
 10
112.520456
 20
-60.238241
 30
0.0
 10
112.653064
 20
-60.238274
 30
0.0
  0
SPLINE
  5
218
100
AcDbEntity
  8
0
 62
7
100
AcDbSpline
 70
8
 71
3
 72
8
 73
4
 74
0
 40
0
 40
0
 40
0
 40
0
 40
1
 40
1
 40
1
 40
1
 10
112.653064
 20
-46.238302
 30
0.0
 10
112.377021
 20
-46.238372
 30
0.0
 10
112.153262
 20
-46.462132
 30
0.0
 10
112.153192
 20
-46.738174
 30
0.0
  0
SPLINE
  5
219
100
AcDbEntity
  8
0
 62
7
100
AcDbSpline
 70
8
 71
3
 72
8
 73
4
 74
0
 40
0
 40
0
 40
0
 40
0
 40
1
 40
1
 40
1
 40
1
 10
126.153164
 20
-46.738174
 30
0.0
 10
126.153130
 20
-46.605566
 30
0.0
 10
126.100420
 20
-46.478403
 30
0.0
 10
126.006628
 20
-46.384659
 30
0.0
  0
SPLINE
  5
21a
100
AcDbEntity
  8
0
 62
7
100
AcDbSpline
 70
8
 71
3
 72
8
 73
4
 74
0
 40
0
 40
0
 40
0
 40
0
 40
1
 40
1
 40
1
 40
1
 10
126.006628
 20
-46.384659
 30
0.0
 10
125.912836
 20
-46.290915
 30
0.0
 10
125.785646
 20
-46.238269
 30
0.0
 10
125.653038
 20
-46.238302
 30
0.0
  0
LWPOLYLINE
  5
21b
100
AcDbEntity
  8
0
 62
7
100
AcDbPolyline
 90
2
 70
0
 10
106.603800
 20
-46.237286
 30
0.0
 10
93.604080
 20
-46.237286
 30
0.0
  0
LWPOLYLINE
  5
21c
100
AcDbEntity
  8
0
 62
7
100
AcDbPolyline
 90
2
 70
0
 10
126.151640
 20
-59.737386
 30
0.0
 10
126.151640
 20
-46.737666
 30
0.0
  0
LWPOLYLINE
  5
21d
100
AcDbEntity
  8
0
 62
7
100
AcDbPolyline
 90
2
 70
0
 10
112.651540
 20
-60.237766
 30
0.0
 10
125.651260
 20
-60.237766
 30
0.0
  0
LWPOLYLINE
  5
21e
100
AcDbEntity
  8
0
 62
7
100
AcDbPolyline
 90
2
 70
0
 10
112.151160
 20
-46.737666
 30
0.0
 10
112.151160
 20
-59.737386
 30
0.0
  0
SPLINE
  5
21f
100
AcDbEntity
  8
0
 62
7
100
AcDbSpline
 70
8
 71
3
 72
8
 73
4
 74
0
 40
0
 40
0
 40
0
 40
0
 40
1
 40
1
 40
1
 40
1
 10
144.702022
 20
-60.238274
 30
0.0
 10
144.834630
 20
-60.238241
 30
0.0
 10
144.961793
 20
-60.185530
 30
0.0
 10
145.055537
 20
-60.091738
 30
0.0
  0
SPLINE
  5
220
100
AcDbEntity
  8
0
 62
7
100
AcDbSpline
 70
8
 71
3
 72
8
 73
4
 74
0
 40
0
 40
0
 40
0
 40
0
 40
1
 40
1
 40
1
 40
1
 10
145.055537
 20
-60.091738
 30
0.0
 10
145.149282
 20
-59.997946
 30
0.0
 10
145.201928
 20
-59.870756
 30
0.0
 10
145.201894
 20
-59.738148
 30
0.0
  0
SPLINE
  5
221
100
AcDbEntity
  8
0
 62
7
100
AcDbSpline
 70
8
 71
3
 72
8
 73
4
 74
0
 40
0
 40
0
 40
0
 40
0
 40
1
 40
1
 40
1
 40
1
 10
131.201922
 20
-59.738148
 30
0.0
 10
131.201888
 20
-59.870756
 30
0.0
 10
131.254534
 20
-59.997946
 30
0.0
 10
131.348279
 20
-60.091738
 30
0.0
  0
SPLINE
  5
222
100
AcDbEntity
  8
0
 62
7
100
AcDbSpline
 70
8
 71
3
 72
8
 73
4
 74
0
 40
0
 40
0
 40
0
 40
0
 40
1
 40
1
 40
1
 40
1
 10
131.348279
 20
-60.091738
 30
0.0
 10
131.442023
 20
-60.185530
 30
0.0
 10
131.569186
 20
-60.238241
 30
0.0
 10
131.701794
 20
-60.238274
 30
0.0
  0
SPLINE
  5
223
100
AcDbEntity
  8
0
 62
7
100
AcDbSpline
 70
8
 71
3
 72
8
 73
4
 74
0
 40
0
 40
0
 40
0
 40
0
 40
1
 40
1
 40
1
 40
1
 10
131.701794
 20
-46.238302
 30
0.0
 10
131.425751
 20
-46.238372
 30
0.0
 10
131.201992
 20
-46.462132
 30
0.0
 10
131.201922
 20
-46.738174
 30
0.0
  0
SPLINE
  5
224
100
AcDbEntity
  8
0
 62
7
100
AcDbSpline
 70
8
 71
3
 72
8
 73
4
 74
0
 40
0
 40
0
 40
0
 40
0
 40
1
 40
1
 40
1
 40
1
 10
145.201894
 20
-46.738174
 30
0.0
 10
145.201824
 20
-46.462132
 30
0.0
 10
144.978065
 20
-46.238372
 30
0.0
 10
144.702022
 20
-46.238302
 30
0.0
  0
LWPOLYLINE
  5
225
100
AcDbEntity
  8
0
 62
7
100
AcDbPolyline
 90
2
 70
0
 10
125.651260
 20
-46.237286
 30
0.0
 10
112.651540
 20
-46.237286
 30
0.0
  0
LWPOLYLINE
  5
226
100
AcDbEntity
  8
0
 62
7
100
AcDbPolyline
 90
2
 70
0
 10
145.201640
 20
-59.737386
 30
0.0
 10
145.201640
 20
-46.737666
 30
0.0
  0
LWPOLYLINE
  5
227
100
AcDbEntity
  8
0
 62
7
100
AcDbPolyline
 90
2
 70
0
 10
131.701540
 20
-60.237766
 30
0.0
 10
144.701260
 20
-60.237766
 30
0.0
  0
LWPOLYLINE
  5
228
100
AcDbEntity
  8
0
 62
7
100
AcDbPolyline
 90
2
 70
0
 10
131.201160
 20
-46.737666
 30
0.0
 10
131.201160
 20
-59.737386
 30
0.0
  0
SPLINE
  5
229
100
AcDbEntity
  8
0
 62
7
100
AcDbSpline
 70
8
 71
3
 72
8
 73
4
 74
0
 40
0
 40
0
 40
0
 40
0
 40
1
 40
1
 40
1
 40
1
 10
163.750752
 20
-60.238274
 30
0.0
 10
163.883360
 20
-60.238241
 30
0.0
 10
164.010523
 20
-60.185530
 30
0.0
 10
164.104267
 20
-60.091738
 30
0.0
  0
SPLINE
  5
22a
100
AcDbEntity
  8
0
 62
7
100
AcDbSpline
 70
8
 71
3
 72
8
 73
4
 74
0
 40
0
 40
0
 40
0
 40
0
 40
1
 40
1
 40
1
 40
1
 10
164.104267
 20
-60.091738
 30
0.0
 10
164.198012
 20
-59.997946
 30
0.0
 10
164.250658
 20
-59.870756
 30
0.0
 10
164.250624
 20
-59.738148
 30
0.0
  0
SPLINE
  5
22b
100
AcDbEntity
  8
0
 62
7
100
AcDbSpline
 70
8
 71
3
 72
8
 73
4
 74
0
 40
0
 40
0
 40
0
 40
0
 40
1
 40
1
 40
1
 40
1
 10
150.250652
 20
-59.738148
 30
0.0
 10
150.250618
 20
-59.870800
 30
0.0
 10
150.303299
 20
-59.998029
 30
0.0
 10
150.397098
 20
-60.091828
 30
0.0
  0
SPLINE
  5
22c
100
AcDbEntity
  8
0
 62
7
100
AcDbSpline
 70
8
 71
3
 72
8
 73
4
 74
0
 40
0
 40
0
 40
0
 40
0
 40
1
 40
1
 40
1
 40
1
 10
150.397098
 20
-60.091828
 30
0.0
 10
150.490897
 20
-60.185627
 30
0.0
 10
150.618126
 20
-60.238308
 30
0.0
 10
150.750778
 20
-60.238274
 30
0.0
  0
SPLINE
  5
22d
100
AcDbEntity
  8
0
 62
7
100
AcDbSpline
 70
8
 71
3
 72
8
 73
4
 74
0
 40
0
 40
0
 40
0
 40
0
 40
1
 40
1
 40
1
 40
1
 10
150.750778
 20
-46.238302
 30
0.0
 10
150.618170
 20
-46.238269
 30
0.0
 10
150.490980
 20
-46.290915
 30
0.0
 10
150.397188
 20
-46.384659
 30
0.0
  0
SPLINE
  5
22e
100
AcDbEntity
  8
0
 62
7
100
AcDbSpline
 70
8
 71
3
 72
8
 73
4
 74
0
 40
0
 40
0
 40
0
 40
0
 40
1
 40
1
 40
1
 40
1
 10
150.397188
 20
-46.384659
 30
0.0
 10
150.303396
 20
-46.478403
 30
0.0
 10
150.250686
 20
-46.605566
 30
0.0
 10
150.250652
 20
-46.738174
 30
0.0
  0
SPLINE
  5
22f
100
AcDbEntity
  8
0
 62
7
100
AcDbSpline
 70
8
 71
3
 72
8
 73
4
 74
0
 40
0
 40
0
 40
0
 40
0
 40
1
 40
1
 40
1
 40
1
 10
164.250624
 20
-46.738174
 30
0.0
 10
164.250554
 20
-46.462132
 30
0.0
 10
164.026795
 20
-46.238372
 30
0.0
 10
163.750752
 20
-46.238302
 30
0.0
  0
LWPOLYLINE
  5
230
100
AcDbEntity
  8
0
 62
7
100
AcDbPolyline
 90
2
 70
0
 10
144.701260
 20
-46.237286
 30
0.0
 10
131.701540
 20
-46.237286
 30
0.0
  0
LWPOLYLINE
  5
231
100
AcDbEntity
  8
0
 62
7
100
AcDbPolyline
 90
2
 70
0
 10
164.249100
 20
-59.737386
 30
0.0
 10
164.249100
 20
-46.737666
 30
0.0
  0
LWPOLYLINE
  5
232
100
AcDbEntity
  8
0
 62
7
100
AcDbPolyline
 90
2
 70
0
 10
150.749000
 20
-60.237766
 30
0.0
 10
163.748720
 20
-60.237766
 30
0.0
  0
LWPOLYLINE
  5
233
100
AcDbEntity
  8
0
 62
7
100
AcDbPolyline
 90
2
 70
0
 10
150.248620
 20
-46.737666
 30
0.0
 10
150.248620
 20
-59.737386
 30
0.0
  0
SPLINE
  5
234
100
AcDbEntity
  8
0
 62
7
100
AcDbSpline
 70
8
 71
3
 72
8
 73
4
 74
0
 40
0
 40
0
 40
0
 40
0
 40
1
 40
1
 40
1
 40
1
 10
182.799482
 20
-60.238274
 30
0.0
 10
182.932134
 20
-60.238308
 30
0.0
 10
183.059363
 20
-60.185627
 30
0.0
 10
183.153162
 20
-60.091828
 30
0.0
  0
SPLINE
  5
235
100
AcDbEntity
  8
0
 62
7
100
AcDbSpline
 70
8
 71
3
 72
8
 73
4
 74
0
 40
0
 40
0
 40
0
 40
0
 40
1
 40
1
 40
1
 40
1
 10
183.153162
 20
-60.091828
 30
0.0
 10
183.246961
 20
-59.998029
 30
0.0
 10
183.299642
 20
-59.870800
 30
0.0
 10
183.299608
 20
-59.738148
 30
0.0
  0
SPLINE
  5
236
100
AcDbEntity
  8
0
 62
7
100
AcDbSpline
 70
8
 71
3
 72
8
 73
4
 74
0
 40
0
 40
0
 40
0
 40
0
 40
1
 40
1
 40
1
 40
1
 10
169.299382
 20
-59.738148
 30
0.0
 10
169.299348
 20
-59.870800
 30
0.0
 10
169.352029
 20
-59.998029
 30
0.0
 10
169.445828
 20
-60.091828
 30
0.0
  0
SPLINE
  5
237
100
AcDbEntity
  8
0
 62
7
100
AcDbSpline
 70
8
 71
3
 72
8
 73
4
 74
0
 40
0
 40
0
 40
0
 40
0
 40
1
 40
1
 40
1
 40
1
 10
169.445828
 20
-60.091828
 30
0.0
 10
169.539627
 20
-60.185627
 30
0.0
 10
169.666856
 20
-60.238308
 30
0.0
 10
169.799508
 20
-60.238274
 30
0.0
  0
SPLINE
  5
238
100
AcDbEntity
  8
0
 62
7
100
AcDbSpline
 70
8
 71
3
 72
8
 73
4
 74
0
 40
0
 40
0
 40
0
 40
0
 40
1
 40
1
 40
1
 40
1
 10
169.799508
 20
-46.238302
 30
0.0
 10
169.666900
 20
-46.238269
 30
0.0
 10
169.539710
 20
-46.290915
 30
0.0
 10
169.445918
 20
-46.384659
 30
0.0
  0
SPLINE
  5
239
100
AcDbEntity
  8
0
 62
7
100
AcDbSpline
 70
8
 71
3
 72
8
 73
4
 74
0
 40
0
 40
0
 40
0
 40
0
 40
1
 40
1
 40
1
 40
1
 10
169.445918
 20
-46.384659
 30
0.0
 10
169.352126
 20
-46.478403
 30
0.0
 10
169.299416
 20
-46.605566
 30
0.0
 10
169.299382
 20
-46.738174
 30
0.0
  0
SPLINE
  5
23a
100
AcDbEntity
  8
0
 62
7
100
AcDbSpline
 70
8
 71
3
 72
8
 73
4
 74
0
 40
0
 40
0
 40
0
 40
0
 40
1
 40
1
 40
1
 40
1
 10
183.299608
 20
-46.738174
 30
0.0
 10
183.299574
 20
-46.605566
 30
0.0
 10
183.246864
 20
-46.478403
 30
0.0
 10
183.153072
 20
-46.384659
 30
0.0
  0
SPLINE
  5
23b
100
AcDbEntity
  8
0
 62
7
100
AcDbSpline
 70
8
 71
3
 72
8
 73
4
 74
0
 40
0
 40
0
 40
0
 40
0
 40
1
 40
1
 40
1
 40
1
 10
183.153072
 20
-46.384659
 30
0.0
 10
183.059280
 20
-46.290915
 30
0.0
 10
182.932090
 20
-46.238269
 30
0.0
 10
182.799482
 20
-46.238302
 30
0.0
  0
LWPOLYLINE
  5
23c
100
AcDbEntity
  8
0
 62
7
100
AcDbPolyline
 90
2
 70
0
 10
163.748720
 20
-46.237286
 30
0.0
 10
150.749000
 20
-46.237286
 30
0.0
  0
LWPOLYLINE
  5
23d
100
AcDbEntity
  8
0
 62
7
100
AcDbPolyline
 90
2
 70
0
 10
183.299100
 20
-59.737386
 30
0.0
 10
183.299100
 20
-46.737666
 30
0.0
  0
LWPOLYLINE
  5
23e
100
AcDbEntity
  8
0
 62
7
100
AcDbPolyline
 90
2
 70
0
 10
169.799000
 20
-60.237766
 30
0.0
 10
182.798720
 20
-60.237766
 30
0.0
  0
LWPOLYLINE
  5
23f
100
AcDbEntity
  8
0
 62
7
100
AcDbPolyline
 90
2
 70
0
 10
169.298620
 20
-46.737666
 30
0.0
 10
169.298620
 20
-59.737386
 30
0.0
  0
SPLINE
  5
240
100
AcDbEntity
  8
0
 62
7
100
AcDbSpline
 70
8
 71
3
 72
8
 73
4
 74
0
 40
0
 40
0
 40
0
 40
0
 40
1
 40
1
 40
1
 40
1
 10
201.848212
 20
-60.238274
 30
0.0
 10
201.980864
 20
-60.238308
 30
0.0
 10
202.108093
 20
-60.185627
 30
0.0
 10
202.201892
 20
-60.091828
 30
0.0
  0
SPLINE
  5
241
100
AcDbEntity
  8
0
 62
7
100
AcDbSpline
 70
8
 71
3
 72
8
 73
4
 74
0
 40
0
 40
0
 40
0
 40
0
 40
1
 40
1
 40
1
 40
1
 10
202.201892
 20
-60.091828
 30
0.0
 10
202.295691
 20
-59.998029
 30
0.0
 10
202.348372
 20
-59.870800
 30
0.0
 10
202.348338
 20
-59.738148
 30
0.0
  0
SPLINE
  5
242
100
AcDbEntity
  8
0
 62
7
100
AcDbSpline
 70
8
 71
3
 72
8
 73
4
 74
0
 40
0
 40
0
 40
0
 40
0
 40
1
 40
1
 40
1
 40
1
 10
188.348366
 20
-59.738148
 30
0.0
 10
188.348332
 20
-59.870756
 30
0.0
 10
188.400978
 20
-59.997946
 30
0.0
 10
188.494723
 20
-60.091738
 30
0.0
  0
SPLINE
  5
243
100
AcDbEntity
  8
0
 62
7
100
AcDbSpline
 70
8
 71
3
 72
8
 73
4
 74
0
 40
0
 40
0
 40
0
 40
0
 40
1
 40
1
 40
1
 40
1
 10
188.494723
 20
-60.091738
 30
0.0
 10
188.588467
 20
-60.185530
 30
0.0
 10
188.715630
 20
-60.238241
 30
0.0
 10
188.848238
 20
-60.238274
 30
0.0
  0
SPLINE
  5
244
100
AcDbEntity
  8
0
 62
7
100
AcDbSpline
 70
8
 71
3
 72
8
 73
4
 74
0
 40
0
 40
0
 40
0
 40
0
 40
1
 40
1
 40
1
 40
1
 10
188.848238
 20
-46.238302
 30
0.0
 10
188.572195
 20
-46.238372
 30
0.0
 10
188.348436
 20
-46.462132
 30
0.0
 10
188.348366
 20
-46.738174
 30
0.0
  0
SPLINE
  5
245
100
AcDbEntity
  8
0
 62
7
100
AcDbSpline
 70
8
 71
3
 72
8
 73
4
 74
0
 40
0
 40
0
 40
0
 40
0
 40
1
 40
1
 40
1
 40
1
 10
202.348338
 20
-46.738174
 30
0.0
 10
202.348304
 20
-46.605566
 30
0.0
 10
202.295594
 20
-46.478403
 30
0.0
 10
202.201802
 20
-46.384659
 30
0.0
  0
SPLINE
  5
246
100
AcDbEntity
  8
0
 62
7
100
AcDbSpline
 70
8
 71
3
 72
8
 73
4
 74
0
 40
0
 40
0
 40
0
 40
0
 40
1
 40
1
 40
1
 40
1
 10
202.201802
 20
-46.384659
 30
0.0
 10
202.108010
 20
-46.290915
 30
0.0
 10
201.980820
 20
-46.238269
 30
0.0
 10
201.848212
 20
-46.238302
 30
0.0
  0
LWPOLYLINE
  5
247
100
AcDbEntity
  8
0
 62
7
100
AcDbPolyline
 90
2
 70
0
 10
182.798720
 20
-46.237286
 30
0.0
 10
169.799000
 20
-46.237286
 30
0.0
  0
LWPOLYLINE
  5
248
100
AcDbEntity
  8
0
 62
7
100
AcDbPolyline
 90
2
 70
0
 10
202.346560
 20
-59.737386
 30
0.0
 10
202.346560
 20
-46.737666
 30
0.0
  0
LWPOLYLINE
  5
249
100
AcDbEntity
  8
0
 62
7
100
AcDbPolyline
 90
2
 70
0
 10
188.846460
 20
-60.237766
 30
0.0
 10
201.846180
 20
-60.237766
 30
0.0
  0
LWPOLYLINE
  5
24a
100
AcDbEntity
  8
0
 62
7
100
AcDbPolyline
 90
2
 70
0
 10
188.346080
 20
-46.737666
 30
0.0
 10
188.346080
 20
-59.737386
 30
0.0
  0
SPLINE
  5
24b
100
AcDbEntity
  8
0
 62
7
100
AcDbSpline
 70
8
 71
3
 72
8
 73
4
 74
0
 40
0
 40
0
 40
0
 40
0
 40
1
 40
1
 40
1
 40
1
 10
220.897196
 20
-60.238274
 30
0.0
 10
221.029804
 20
-60.238241
 30
0.0
 10
221.156967
 20
-60.185530
 30
0.0
 10
221.250711
 20
-60.091738
 30
0.0
  0
SPLINE
  5
24c
100
AcDbEntity
  8
0
 62
7
100
AcDbSpline
 70
8
 71
3
 72
8
 73
4
 74
0
 40
0
 40
0
 40
0
 40
0
 40
1
 40
1
 40
1
 40
1
 10
221.250711
 20
-60.091738
 30
0.0
 10
221.344456
 20
-59.997946
 30
0.0
 10
221.397102
 20
-59.870756
 30
0.0
 10
221.397068
 20
-59.738148
 30
0.0
  0
SPLINE
  5
24d
100
AcDbEntity
  8
0
 62
7
100
AcDbSpline
 70
8
 71
3
 72
8
 73
4
 74
0
 40
0
 40
0
 40
0
 40
0
 40
1
 40
1
 40
1
 40
1
 10
207.397096
 20
-59.738148
 30
0.0
 10
207.397062
 20
-59.870800
 30
0.0
 10
207.449743
 20
-59.998029
 30
0.0
 10
207.543542
 20
-60.091828
 30
0.0
  0
SPLINE
  5
24e
100
AcDbEntity
  8
0
 62
7
100
AcDbSpline
 70
8
 71
3
 72
8
 73
4
 74
0
 40
0
 40
0
 40
0
 40
0
 40
1
 40
1
 40
1
 40
1
 10
207.543542
 20
-60.091828
 30
0.0
 10
207.637341
 20
-60.185627
 30
0.0
 10
207.764570
 20
-60.238308
 30
0.0
 10
207.897222
 20
-60.238274
 30
0.0
  0
SPLINE
  5
24f
100
AcDbEntity
  8
0
 62
7
100
AcDbSpline
 70
8
 71
3
 72
8
 73
4
 74
0
 40
0
 40
0
 40
0
 40
0
 40
1
 40
1
 40
1
 40
1
 10
207.897222
 20
-46.238302
 30
0.0
 10
207.764614
 20
-46.238269
 30
0.0
 10
207.637424
 20
-46.290915
 30
0.0
 10
207.543632
 20
-46.384659
 30
0.0
  0
SPLINE
  5
250
100
AcDbEntity
  8
0
 62
7
100
AcDbSpline
 70
8
 71
3
 72
8
 73
4
 74
0
 40
0
 40
0
 40
0
 40
0
 40
1
 40
1
 40
1
 40
1
 10
207.543632
 20
-46.384659
 30
0.0
 10
207.449840
 20
-46.478403
 30
0.0
 10
207.397130
 20
-46.605566
 30
0.0
 10
207.397096
 20
-46.738174
 30
0.0
  0
SPLINE
  5
251
100
AcDbEntity
  8
0
 62
7
100
AcDbSpline
 70
8
 71
3
 72
8
 73
4
 74
0
 40
0
 40
0
 40
0
 40
0
 40
1
 40
1
 40
1
 40
1
 10
221.397068
 20
-46.738174
 30
0.0
 10
221.396998
 20
-46.462132
 30
0.0
 10
221.173239
 20
-46.238372
 30
0.0
 10
220.897196
 20
-46.238302
 30
0.0
  0
LWPOLYLINE
  5
252
100
AcDbEntity
  8
0
 62
7
100
AcDbPolyline
 90
2
 70
0
 10
201.846180
 20
-46.237286
 30
0.0
 10
188.846460
 20
-46.237286
 30
0.0
  0
LWPOLYLINE
  5
253
100
AcDbEntity
  8
0
 62
7
100
AcDbPolyline
 90
2
 70
0
 10
221.396560
 20
-59.737386
 30
0.0
 10
221.396560
 20
-46.737666
 30
0.0
  0
LWPOLYLINE
  5
254
100
AcDbEntity
  8
0
 62
7
100
AcDbPolyline
 90
2
 70
0
 10
207.896460
 20
-60.237766
 30
0.0
 10
220.896180
 20
-60.237766
 30
0.0
  0
LWPOLYLINE
  5
255
100
AcDbEntity
  8
0
 62
7
100
AcDbPolyline
 90
2
 70
0
 10
207.396080
 20
-46.737666
 30
0.0
 10
207.396080
 20
-59.737386
 30
0.0
  0
SPLINE
  5
256
100
AcDbEntity
  8
0
 62
7
100
AcDbSpline
 70
8
 71
3
 72
8
 73
4
 74
0
 40
0
 40
0
 40
0
 40
0
 40
1
 40
1
 40
1
 40
1
 10
239.945926
 20
-60.238274
 30
0.0
 10
240.078534
 20
-60.238241
 30
0.0
 10
240.205697
 20
-60.185530
 30
0.0
 10
240.299441
 20
-60.091738
 30
0.0
  0
SPLINE
  5
257
100
AcDbEntity
  8
0
 62
7
100
AcDbSpline
 70
8
 71
3
 72
8
 73
4
 74
0
 40
0
 40
0
 40
0
 40
0
 40
1
 40
1
 40
1
 40
1
 10
240.299441
 20
-60.091738
 30
0.0
 10
240.393186
 20
-59.997946
 30
0.0
 10
240.445832
 20
-59.870756
 30
0.0
 10
240.445798
 20
-59.738148
 30
0.0
  0
SPLINE
  5
258
100
AcDbEntity
  8
0
 62
7
100
AcDbSpline
 70
8
 71
3
 72
8
 73
4
 74
0
 40
0
 40
0
 40
0
 40
0
 40
1
 40
1
 40
1
 40
1
 10
226.445826
 20
-59.738148
 30
0.0
 10
226.445792
 20
-59.870800
 30
0.0
 10
226.498473
 20
-59.998029
 30
0.0
 10
226.592272
 20
-60.091828
 30
0.0
  0
SPLINE
  5
259
100
AcDbEntity
  8
0
 62
7
100
AcDbSpline
 70
8
 71
3
 72
8
 73
4
 74
0
 40
0
 40
0
 40
0
 40
0
 40
1
 40
1
 40
1
 40
1
 10
226.592272
 20
-60.091828
 30
0.0
 10
226.686071
 20
-60.185627
 30
0.0
 10
226.813300
 20
-60.238308
 30
0.0
 10
226.945952
 20
-60.238274
 30
0.0
  0
SPLINE
  5
25a
100
AcDbEntity
  8
0
 62
7
100
AcDbSpline
 70
8
 71
3
 72
8
 73
4
 74
0
 40
0
 40
0
 40
0
 40
0
 40
1
 40
1
 40
1
 40
1
 10
226.945952
 20
-46.238302
 30
0.0
 10
226.813344
 20
-46.238269
 30
0.0
 10
226.686154
 20
-46.290915
 30
0.0
 10
226.592362
 20
-46.384659
 30
0.0
  0
SPLINE
  5
25b
100
AcDbEntity
  8
0
 62
7
100
AcDbSpline
 70
8
 71
3
 72
8
 73
4
 74
0
 40
0
 40
0
 40
0
 40
0
 40
1
 40
1
 40
1
 40
1
 10
226.592362
 20
-46.384659
 30
0.0
 10
226.498570
 20
-46.478403
 30
0.0
 10
226.445860
 20
-46.605566
 30
0.0
 10
226.445826
 20
-46.738174
 30
0.0
  0
SPLINE
  5
25c
100
AcDbEntity
  8
0
 62
7
100
AcDbSpline
 70
8
 71
3
 72
8
 73
4
 74
0
 40
0
 40
0
 40
0
 40
0
 40
1
 40
1
 40
1
 40
1
 10
240.445798
 20
-46.738174
 30
0.0
 10
240.445728
 20
-46.462132
 30
0.0
 10
240.221969
 20
-46.238372
 30
0.0
 10
239.945926
 20
-46.238302
 30
0.0
  0
LWPOLYLINE
  5
25d
100
AcDbEntity
  8
0
 62
7
100
AcDbPolyline
 90
2
 70
0
 10
220.896180
 20
-46.237286
 30
0.0
 10
207.896460
 20
-46.237286
 30
0.0
  0
LWPOLYLINE
  5
25e
100
AcDbEntity
  8
0
 62
7
100
AcDbPolyline
 90
2
 70
0
 10
240.444020
 20
-59.737386
 30
0.0
 10
240.444020
 20
-46.737666
 30
0.0
  0
LWPOLYLINE
  5
25f
100
AcDbEntity
  8
0
 62
7
100
AcDbPolyline
 90
2
 70
0
 10
226.943920
 20
-60.237766
 30
0.0
 10
239.943640
 20
-60.237766
 30
0.0
  0
LWPOLYLINE
  5
260
100
AcDbEntity
  8
0
 62
7
100
AcDbPolyline
 90
2
 70
0
 10
226.443540
 20
-46.737666
 30
0.0
 10
226.443540
 20
-59.737386
 30
0.0
  0
SPLINE
  5
261
100
AcDbEntity
  8
0
 62
7
100
AcDbSpline
 70
8
 71
3
 72
8
 73
4
 74
0
 40
0
 40
0
 40
0
 40
0
 40
1
 40
1
 40
1
 40
1
 10
211.372704
 20
-41.189544
 30
0.0
 10
211.505312
 20
-41.189511
 30
0.0
 10
211.632475
 20
-41.136800
 30
0.0
 10
211.726219
 20
-41.043008
 30
0.0
  0
SPLINE
  5
262
100
AcDbEntity
  8
0
 62
7
100
AcDbSpline
 70
8
 71
3
 72
8
 73
4
 74
0
 40
0
 40
0
 40
0
 40
0
 40
1
 40
1
 40
1
 40
1
 10
211.726219
 20
-41.043008
 30
0.0
 10
211.819964
 20
-40.949216
 30
0.0
 10
211.872610
 20
-40.822026
 30
0.0
 10
211.872576
 20
-40.689418
 30
0.0
  0
SPLINE
  5
263
100
AcDbEntity
  8
0
 62
7
100
AcDbSpline
 70
8
 71
3
 72
8
 73
4
 74
0
 40
0
 40
0
 40
0
 40
0
 40
1
 40
1
 40
1
 40
1
 10
197.872604
 20
-40.689418
 30
0.0
 10
197.872570
 20
-40.822070
 30
0.0
 10
197.925251
 20
-40.949299
 30
0.0
 10
198.019050
 20
-41.043098
 30
0.0
  0
SPLINE
  5
264
100
AcDbEntity
  8
0
 62
7
100
AcDbSpline
 70
8
 71
3
 72
8
 73
4
 74
0
 40
0
 40
0
 40
0
 40
0
 40
1
 40
1
 40
1
 40
1
 10
198.019050
 20
-41.043098
 30
0.0
 10
198.112849
 20
-41.136897
 30
0.0
 10
198.240078
 20
-41.189578
 30
0.0
 10
198.372730
 20
-41.189544
 30
0.0
  0
SPLINE
  5
265
100
AcDbEntity
  8
0
 62
7
100
AcDbSpline
 70
8
 71
3
 72
8
 73
4
 74
0
 40
0
 40
0
 40
0
 40
0
 40
1
 40
1
 40
1
 40
1
 10
198.372730
 20
-27.189572
 30
0.0
 10
198.240122
 20
-27.189539
 30
0.0
 10
198.112932
 20
-27.242185
 30
0.0
 10
198.019140
 20
-27.335929
 30
0.0
  0
SPLINE
  5
266
100
AcDbEntity
  8
0
 62
7
100
AcDbSpline
 70
8
 71
3
 72
8
 73
4
 74
0
 40
0
 40
0
 40
0
 40
0
 40
1
 40
1
 40
1
 40
1
 10
198.019140
 20
-27.335929
 30
0.0
 10
197.925348
 20
-27.429673
 30
0.0
 10
197.872638
 20
-27.556836
 30
0.0
 10
197.872604
 20
-27.689444
 30
0.0
  0
SPLINE
  5
267
100
AcDbEntity
  8
0
 62
7
100
AcDbSpline
 70
8
 71
3
 72
8
 73
4
 74
0
 40
0
 40
0
 40
0
 40
0
 40
1
 40
1
 40
1
 40
1
 10
211.872576
 20
-27.689444
 30
0.0
 10
211.872506
 20
-27.413402
 30
0.0
 10
211.648747
 20
-27.189642
 30
0.0
 10
211.372704
 20
-27.189572
 30
0.0
  0
LWPOLYLINE
  5
268
100
AcDbEntity
  8
0
 62
7
100
AcDbPolyline
 90
2
 70
0
 10
239.943640
 20
-46.237286
 30
0.0
 10
226.943920
 20
-46.237286
 30
0.0
  0
LWPOLYLINE
  5
269
100
AcDbEntity
  8
0
 62
7
100
AcDbPolyline
 90
2
 70
0
 10
211.871560
 20
-40.687386
 30
0.0
 10
211.871560
 20
-27.687666
 30
0.0
  0
LWPOLYLINE
  5
26a
100
AcDbEntity
  8
0
 62
7
100
AcDbPolyline
 90
2
 70
0
 10
198.371460
 20
-41.187766
 30
0.0
 10
211.371180
 20
-41.187766
 30
0.0
  0
LWPOLYLINE
  5
26b
100
AcDbEntity
  8
0
 62
7
100
AcDbPolyline
 90
2
 70
0
 10
197.871080
 20
-27.687666
 30
0.0
 10
197.871080
 20
-40.687386
 30
0.0
  0
SPLINE
  5
26c
100
AcDbEntity
  8
0
 62
7
100
AcDbSpline
 70
8
 71
3
 72
8
 73
4
 74
0
 40
0
 40
0
 40
0
 40
0
 40
1
 40
1
 40
1
 40
1
 10
192.323974
 20
-41.189544
 30
0.0
 10
192.456582
 20
-41.189511
 30
0.0
 10
192.583745
 20
-41.136800
 30
0.0
 10
192.677489
 20
-41.043008
 30
0.0
  0
SPLINE
  5
26d
100
AcDbEntity
  8
0
 62
7
100
AcDbSpline
 70
8
 71
3
 72
8
 73
4
 74
0
 40
0
 40
0
 40
0
 40
0
 40
1
 40
1
 40
1
 40
1
 10
192.677489
 20
-41.043008
 30
0.0
 10
192.771234
 20
-40.949216
 30
0.0
 10
192.823880
 20
-40.822026
 30
0.0
 10
192.823846
 20
-40.689418
 30
0.0
  0
SPLINE
  5
26e
100
AcDbEntity
  8
0
 62
7
100
AcDbSpline
 70
8
 71
3
 72
8
 73
4
 74
0
 40
0
 40
0
 40
0
 40
0
 40
1
 40
1
 40
1
 40
1
 10
178.823874
 20
-40.689418
 30
0.0
 10
178.823840
 20
-40.822070
 30
0.0
 10
178.876521
 20
-40.949299
 30
0.0
 10
178.970320
 20
-41.043098
 30
0.0
  0
SPLINE
  5
26f
100
AcDbEntity
  8
0
 62
7
100
AcDbSpline
 70
8
 71
3
 72
8
 73
4
 74
0
 40
0
 40
0
 40
0
 40
0
 40
1
 40
1
 40
1
 40
1
 10
178.970320
 20
-41.043098
 30
0.0
 10
179.064119
 20
-41.136897
 30
0.0
 10
179.191348
 20
-41.189578
 30
0.0
 10
179.324000
 20
-41.189544
 30
0.0
  0
SPLINE
  5
270
100
AcDbEntity
  8
0
 62
7
100
AcDbSpline
 70
8
 71
3
 72
8
 73
4
 74
0
 40
0
 40
0
 40
0
 40
0
 40
1
 40
1
 40
1
 40
1
 10
179.324000
 20
-27.189572
 30
0.0
 10
179.191392
 20
-27.189539
 30
0.0
 10
179.064202
 20
-27.242185
 30
0.0
 10
178.970410
 20
-27.335929
 30
0.0
  0
SPLINE
  5
271
100
AcDbEntity
  8
0
 62
7
100
AcDbSpline
 70
8
 71
3
 72
8
 73
4
 74
0
 40
0
 40
0
 40
0
 40
0
 40
1
 40
1
 40
1
 40
1
 10
178.970410
 20
-27.335929
 30
0.0
 10
178.876618
 20
-27.429673
 30
0.0
 10
178.823908
 20
-27.556836
 30
0.0
 10
178.823874
 20
-27.689444
 30
0.0
  0
SPLINE
  5
272
100
AcDbEntity
  8
0
 62
7
100
AcDbSpline
 70
8
 71
3
 72
8
 73
4
 74
0
 40
0
 40
0
 40
0
 40
0
 40
1
 40
1
 40
1
 40
1
 10
192.823846
 20
-27.689444
 30
0.0
 10
192.823776
 20
-27.413402
 30
0.0
 10
192.600017
 20
-27.189642
 30
0.0
 10
192.323974
 20
-27.189572
 30
0.0
  0
LWPOLYLINE
  5
273
100
AcDbEntity
  8
0
 62
7
100
AcDbPolyline
 90
2
 70
0
 10
211.371180
 20
-27.187286
 30
0.0
 10
198.371460
 20
-27.187286
 30
0.0
  0
LWPOLYLINE
  5
274
100
AcDbEntity
  8
0
 62
7
100
AcDbPolyline
 90
2
 70
0
 10
192.821560
 20
-40.687386
 30
0.0
 10
192.821560
 20
-27.687666
 30
0.0
  0
LWPOLYLINE
  5
275
100
AcDbEntity
  8
0
 62
7
100
AcDbPolyline
 90
2
 70
0
 10
179.321460
 20
-41.187766
 30
0.0
 10
192.323720
 20
-41.187766
 30
0.0
  0
LWPOLYLINE
  5
276
100
AcDbEntity
  8
0
 62
7
100
AcDbPolyline
 90
2
 70
0
 10
178.823620
 20
-27.687666
 30
0.0
 10
178.823620
 20
-40.687386
 30
0.0
  0
SPLINE
  5
277
100
AcDbEntity
  8
0
 62
7
100
AcDbSpline
 70
8
 71
3
 72
8
 73
4
 74
0
 40
0
 40
0
 40
0
 40
0
 40
1
 40
1
 40
1
 40
1
 10
173.274990
 20
-41.189544
 30
0.0
 10
173.407642
 20
-41.189578
 30
0.0
 10
173.534871
 20
-41.136897
 30
0.0
 10
173.628670
 20
-41.043098
 30
0.0
  0
SPLINE
  5
278
100
AcDbEntity
  8
0
 62
7
100
AcDbSpline
 70
8
 71
3
 72
8
 73
4
 74
0
 40
0
 40
0
 40
0
 40
0
 40
1
 40
1
 40
1
 40
1
 10
173.628670
 20
-41.043098
 30
0.0
 10
173.722469
 20
-40.949299
 30
0.0
 10
173.775150
 20
-40.822070
 30
0.0
 10
173.775116
 20
-40.689418
 30
0.0
  0
SPLINE
  5
279
100
AcDbEntity
  8
0
 62
7
100
AcDbSpline
 70
8
 71
3
 72
8
 73
4
 74
0
 40
0
 40
0
 40
0
 40
0
 40
1
 40
1
 40
1
 40
1
 10
159.775144
 20
-40.689418
 30
0.0
 10
159.775110
 20
-40.822026
 30
0.0
 10
159.827756
 20
-40.949216
 30
0.0
 10
159.921501
 20
-41.043008
 30
0.0
  0
SPLINE
  5
27a
100
AcDbEntity
  8
0
 62
7
100
AcDbSpline
 70
8
 71
3
 72
8
 73
4
 74
0
 40
0
 40
0
 40
0
 40
0
 40
1
 40
1
 40
1
 40
1
 10
159.921501
 20
-41.043008
 30
0.0
 10
160.015245
 20
-41.136800
 30
0.0
 10
160.142408
 20
-41.189511
 30
0.0
 10
160.275016
 20
-41.189544
 30
0.0
  0
SPLINE
  5
27b
100
AcDbEntity
  8
0
 62
7
100
AcDbSpline
 70
8
 71
3
 72
8
 73
4
 74
0
 40
0
 40
0
 40
0
 40
0
 40
1
 40
1
 40
1
 40
1
 10
160.275016
 20
-27.189572
 30
0.0
 10
159.998973
 20
-27.189642
 30
0.0
 10
159.775214
 20
-27.413402
 30
0.0
 10
159.775144
 20
-27.689444
 30
0.0
  0
SPLINE
  5
27c
100
AcDbEntity
  8
0
 62
7
100
AcDbSpline
 70
8
 71
3
 72
8
 73
4
 74
0
 40
0
 40
0
 40
0
 40
0
 40
1
 40
1
 40
1
 40
1
 10
173.775116
 20
-27.689444
 30
0.0
 10
173.775082
 20
-27.556836
 30
0.0
 10
173.722372
 20
-27.429673
 30
0.0
 10
173.628580
 20
-27.335929
 30
0.0
  0
SPLINE
  5
27d
100
AcDbEntity
  8
0
 62
7
100
AcDbSpline
 70
8
 71
3
 72
8
 73
4
 74
0
 40
0
 40
0
 40
0
 40
0
 40
1
 40
1
 40
1
 40
1
 10
173.628580
 20
-27.335929
 30
0.0
 10
173.534788
 20
-27.242185
 30
0.0
 10
173.407598
 20
-27.189539
 30
0.0
 10
173.274990
 20
-27.189572
 30
0.0
  0
LWPOLYLINE
  5
27e
100
AcDbEntity
  8
0
 62
7
100
AcDbPolyline
 90
2
 70
0
 10
192.323720
 20
-27.187286
 30
0.0
 10
179.321460
 20
-27.187286
 30
0.0
  0
LWPOLYLINE
  5
27f
100
AcDbEntity
  8
0
 62
7
100
AcDbPolyline
 90
2
 70
0
 10
173.774100
 20
-40.687386
 30
0.0
 10
173.774100
 20
-27.687666
 30
0.0
  0
LWPOLYLINE
  5
280
100
AcDbEntity
  8
0
 62
7
100
AcDbPolyline
 90
2
 70
0
 10
160.274000
 20
-41.187766
 30
0.0
 10
173.273720
 20
-41.187766
 30
0.0
  0
LWPOLYLINE
  5
281
100
AcDbEntity
  8
0
 62
7
100
AcDbPolyline
 90
2
 70
0
 10
159.773620
 20
-27.687666
 30
0.0
 10
159.773620
 20
-40.687386
 30
0.0
  0
SPLINE
  5
282
100
AcDbEntity
  8
0
 62
7
100
AcDbSpline
 70
8
 71
3
 72
8
 73
4
 74
0
 40
0
 40
0
 40
0
 40
0
 40
1
 40
1
 40
1
 40
1
 10
154.226260
 20
-41.189544
 30
0.0
 10
154.358912
 20
-41.189578
 30
0.0
 10
154.486141
 20
-41.136897
 30
0.0
 10
154.579940
 20
-41.043098
 30
0.0
  0
SPLINE
  5
283
100
AcDbEntity
  8
0
 62
7
100
AcDbSpline
 70
8
 71
3
 72
8
 73
4
 74
0
 40
0
 40
0
 40
0
 40
0
 40
1
 40
1
 40
1
 40
1
 10
154.579940
 20
-41.043098
 30
0.0
 10
154.673739
 20
-40.949299
 30
0.0
 10
154.726420
 20
-40.822070
 30
0.0
 10
154.726386
 20
-40.689418
 30
0.0
  0
SPLINE
  5
284
100
AcDbEntity
  8
0
 62
7
100
AcDbSpline
 70
8
 71
3
 72
8
 73
4
 74
0
 40
0
 40
0
 40
0
 40
0
 40
1
 40
1
 40
1
 40
1
 10
140.726414
 20
-40.689418
 30
0.0
 10
140.726380
 20
-40.822026
 30
0.0
 10
140.779026
 20
-40.949216
 30
0.0
 10
140.872771
 20
-41.043008
 30
0.0
  0
SPLINE
  5
285
100
AcDbEntity
  8
0
 62
7
100
AcDbSpline
 70
8
 71
3
 72
8
 73
4
 74
0
 40
0
 40
0
 40
0
 40
0
 40
1
 40
1
 40
1
 40
1
 10
140.872771
 20
-41.043008
 30
0.0
 10
140.966515
 20
-41.136800
 30
0.0
 10
141.093678
 20
-41.189511
 30
0.0
 10
141.226286
 20
-41.189544
 30
0.0
  0
SPLINE
  5
286
100
AcDbEntity
  8
0
 62
7
100
AcDbSpline
 70
8
 71
3
 72
8
 73
4
 74
0
 40
0
 40
0
 40
0
 40
0
 40
1
 40
1
 40
1
 40
1
 10
141.226286
 20
-27.189572
 30
0.0
 10
140.950243
 20
-27.189642
 30
0.0
 10
140.726484
 20
-27.413402
 30
0.0
 10
140.726414
 20
-27.689444
 30
0.0
  0
SPLINE
  5
287
100
AcDbEntity
  8
0
 62
7
100
AcDbSpline
 70
8
 71
3
 72
8
 73
4
 74
0
 40
0
 40
0
 40
0
 40
0
 40
1
 40
1
 40
1
 40
1
 10
154.726386
 20
-27.689444
 30
0.0
 10
154.726352
 20
-27.556836
 30
0.0
 10
154.673642
 20
-27.429673
 30
0.0
 10
154.579850
 20
-27.335929
 30
0.0
  0
SPLINE
  5
288
100
AcDbEntity
  8
0
 62
7
100
AcDbSpline
 70
8
 71
3
 72
8
 73
4
 74
0
 40
0
 40
0
 40
0
 40
0
 40
1
 40
1
 40
1
 40
1
 10
154.579850
 20
-27.335929
 30
0.0
 10
154.486058
 20
-27.242185
 30
0.0
 10
154.358868
 20
-27.189539
 30
0.0
 10
154.226260
 20
-27.189572
 30
0.0
  0
LWPOLYLINE
  5
289
100
AcDbEntity
  8
0
 62
7
100
AcDbPolyline
 90
2
 70
0
 10
173.273720
 20
-27.187286
 30
0.0
 10
160.274000
 20
-27.187286
 30
0.0
  0
LWPOLYLINE
  5
28a
100
AcDbEntity
  8
0
 62
7
100
AcDbPolyline
 90
2
 70
0
 10
154.724100
 20
-40.687386
 30
0.0
 10
154.724100
 20
-27.687666
 30
0.0
  0
LWPOLYLINE
  5
28b
100
AcDbEntity
  8
0
 62
7
100
AcDbPolyline
 90
2
 70
0
 10
141.224000
 20
-41.187766
 30
0.0
 10
154.226260
 20
-41.187766
 30
0.0
  0
LWPOLYLINE
  5
28c
100
AcDbEntity
  8
0
 62
7
100
AcDbPolyline
 90
2
 70
0
 10
140.726160
 20
-27.687666
 30
0.0
 10
140.726160
 20
-40.687386
 30
0.0
  0
SPLINE
  5
28d
100
AcDbEntity
  8
0
 62
7
100
AcDbSpline
 70
8
 71
3
 72
8
 73
4
 74
0
 40
0
 40
0
 40
0
 40
0
 40
1
 40
1
 40
1
 40
1
 10
135.177530
 20
-41.189544
 30
0.0
 10
135.310138
 20
-41.189511
 30
0.0
 10
135.437301
 20
-41.136800
 30
0.0
 10
135.531045
 20
-41.043008
 30
0.0
  0
SPLINE
  5
28e
100
AcDbEntity
  8
0
 62
7
100
AcDbSpline
 70
8
 71
3
 72
8
 73
4
 74
0
 40
0
 40
0
 40
0
 40
0
 40
1
 40
1
 40
1
 40
1
 10
135.531045
 20
-41.043008
 30
0.0
 10
135.624790
 20
-40.949216
 30
0.0
 10
135.677436
 20
-40.822026
 30
0.0
 10
135.677402
 20
-40.689418
 30
0.0
  0
SPLINE
  5
28f
100
AcDbEntity
  8
0
 62
7
100
AcDbSpline
 70
8
 71
3
 72
8
 73
4
 74
0
 40
0
 40
0
 40
0
 40
0
 40
1
 40
1
 40
1
 40
1
 10
121.677430
 20
-40.689418
 30
0.0
 10
121.677396
 20
-40.822070
 30
0.0
 10
121.730077
 20
-40.949299
 30
0.0
 10
121.823876
 20
-41.043098
 30
0.0
  0
SPLINE
  5
290
100
AcDbEntity
  8
0
 62
7
100
AcDbSpline
 70
8
 71
3
 72
8
 73
4
 74
0
 40
0
 40
0
 40
0
 40
0
 40
1
 40
1
 40
1
 40
1
 10
121.823876
 20
-41.043098
 30
0.0
 10
121.917675
 20
-41.136897
 30
0.0
 10
122.044904
 20
-41.189578
 30
0.0
 10
122.177556
 20
-41.189544
 30
0.0
  0
SPLINE
  5
291
100
AcDbEntity
  8
0
 62
7
100
AcDbSpline
 70
8
 71
3
 72
8
 73
4
 74
0
 40
0
 40
0
 40
0
 40
0
 40
1
 40
1
 40
1
 40
1
 10
122.177556
 20
-27.189572
 30
0.0
 10
122.044948
 20
-27.189539
 30
0.0
 10
121.917758
 20
-27.242185
 30
0.0
 10
121.823966
 20
-27.335929
 30
0.0
  0
SPLINE
  5
292
100
AcDbEntity
  8
0
 62
7
100
AcDbSpline
 70
8
 71
3
 72
8
 73
4
 74
0
 40
0
 40
0
 40
0
 40
0
 40
1
 40
1
 40
1
 40
1
 10
121.823966
 20
-27.335929
 30
0.0
 10
121.730174
 20
-27.429673
 30
0.0
 10
121.677464
 20
-27.556836
 30
0.0
 10
121.677430
 20
-27.689444
 30
0.0
  0
SPLINE
  5
293
100
AcDbEntity
  8
0
 62
7
100
AcDbSpline
 70
8
 71
3
 72
8
 73
4
 74
0
 40
0
 40
0
 40
0
 40
0
 40
1
 40
1
 40
1
 40
1
 10
135.677402
 20
-27.689444
 30
0.0
 10
135.677332
 20
-27.413402
 30
0.0
 10
135.453573
 20
-27.189642
 30
0.0
 10
135.177530
 20
-27.189572
 30
0.0
  0
LWPOLYLINE
  5
294
100
AcDbEntity
  8
0
 62
7
100
AcDbPolyline
 90
2
 70
0
 10
154.226260
 20
-27.187286
 30
0.0
 10
141.224000
 20
-27.187286
 30
0.0
  0
LWPOLYLINE
  5
295
100
AcDbEntity
  8
0
 62
7
100
AcDbPolyline
 90
2
 70
0
 10
135.676640
 20
-40.687386
 30
0.0
 10
135.676640
 20
-27.687666
 30
0.0
  0
LWPOLYLINE
  5
296
100
AcDbEntity
  8
0
 62
7
100
AcDbPolyline
 90
2
 70
0
 10
122.176540
 20
-41.187766
 30
0.0
 10
135.176260
 20
-41.187766
 30
0.0
  0
LWPOLYLINE
  5
297
100
AcDbEntity
  8
0
 62
7
100
AcDbPolyline
 90
2
 70
0
 10
121.676160
 20
-27.687666
 30
0.0
 10
121.676160
 20
-40.687386
 30
0.0
  0
SPLINE
  5
298
100
AcDbEntity
  8
0
 62
7
100
AcDbSpline
 70
8
 71
3
 72
8
 73
4
 74
0
 40
0
 40
0
 40
0
 40
0
 40
1
 40
1
 40
1
 40
1
 10
116.128800
 20
-41.189544
 30
0.0
 10
116.261408
 20
-41.189511
 30
0.0
 10
116.388571
 20
-41.136800
 30
0.0
 10
116.482315
 20
-41.043008
 30
0.0
  0
SPLINE
  5
299
100
AcDbEntity
  8
0
 62
7
100
AcDbSpline
 70
8
 71
3
 72
8
 73
4
 74
0
 40
0
 40
0
 40
0
 40
0
 40
1
 40
1
 40
1
 40
1
 10
116.482315
 20
-41.043008
 30
0.0
 10
116.576060
 20
-40.949216
 30
0.0
 10
116.628706
 20
-40.822026
 30
0.0
 10
116.628672
 20
-40.689418
 30
0.0
  0
SPLINE
  5
29a
100
AcDbEntity
  8
0
 62
7
100
AcDbSpline
 70
8
 71
3
 72
8
 73
4
 74
0
 40
0
 40
0
 40
0
 40
0
 40
1
 40
1
 40
1
 40
1
 10
102.628700
 20
-40.689418
 30
0.0
 10
102.628666
 20
-40.822070
 30
0.0
 10
102.681347
 20
-40.949299
 30
0.0
 10
102.775146
 20
-41.043098
 30
0.0
  0
SPLINE
  5
29b
100
AcDbEntity
  8
0
 62
7
100
AcDbSpline
 70
8
 71
3
 72
8
 73
4
 74
0
 40
0
 40
0
 40
0
 40
0
 40
1
 40
1
 40
1
 40
1
 10
102.775146
 20
-41.043098
 30
0.0
 10
102.868945
 20
-41.136897
 30
0.0
 10
102.996174
 20
-41.189578
 30
0.0
 10
103.128826
 20
-41.189544
 30
0.0
  0
SPLINE
  5
29c
100
AcDbEntity
  8
0
 62
7
100
AcDbSpline
 70
8
 71
3
 72
8
 73
4
 74
0
 40
0
 40
0
 40
0
 40
0
 40
1
 40
1
 40
1
 40
1
 10
103.128826
 20
-27.189572
 30
0.0
 10
102.996218
 20
-27.189539
 30
0.0
 10
102.869028
 20
-27.242185
 30
0.0
 10
102.775236
 20
-27.335929
 30
0.0
  0
SPLINE
  5
29d
100
AcDbEntity
  8
0
 62
7
100
AcDbSpline
 70
8
 71
3
 72
8
 73
4
 74
0
 40
0
 40
0
 40
0
 40
0
 40
1
 40
1
 40
1
 40
1
 10
102.775236
 20
-27.335929
 30
0.0
 10
102.681444
 20
-27.429673
 30
0.0
 10
102.628734
 20
-27.556836
 30
0.0
 10
102.628700
 20
-27.689444
 30
0.0
  0
SPLINE
  5
29e
100
AcDbEntity
  8
0
 62
7
100
AcDbSpline
 70
8
 71
3
 72
8
 73
4
 74
0
 40
0
 40
0
 40
0
 40
0
 40
1
 40
1
 40
1
 40
1
 10
116.628672
 20
-27.689444
 30
0.0
 10
116.628602
 20
-27.413402
 30
0.0
 10
116.404843
 20
-27.189642
 30
0.0
 10
116.128800
 20
-27.189572
 30
0.0
  0
LWPOLYLINE
  5
29f
100
AcDbEntity
  8
0
 62
7
100
AcDbPolyline
 90
2
 70
0
 10
135.176260
 20
-27.187286
 30
0.0
 10
122.176540
 20
-27.187286
 30
0.0
  0
LWPOLYLINE
  5
2a0
100
AcDbEntity
  8
0
 62
7
100
AcDbPolyline
 90
2
 70
0
 10
116.626640
 20
-40.687386
 30
0.0
 10
116.626640
 20
-27.687666
 30
0.0
  0
LWPOLYLINE
  5
2a1
100
AcDbEntity
  8
0
 62
7
100
AcDbPolyline
 90
2
 70
0
 10
103.126540
 20
-41.187766
 30
0.0
 10
116.126260
 20
-41.187766
 30
0.0
  0
LWPOLYLINE
  5
2a2
100
AcDbEntity
  8
0
 62
7
100
AcDbPolyline
 90
2
 70
0
 10
102.628700
 20
-27.687666
 30
0.0
 10
102.628700
 20
-40.687386
 30
0.0
  0
SPLINE
  5
2a3
100
AcDbEntity
  8
0
 62
7
100
AcDbSpline
 70
8
 71
3
 72
8
 73
4
 74
0
 40
0
 40
0
 40
0
 40
0
 40
1
 40
1
 40
1
 40
1
 10
97.079816
 20
-41.189544
 30
0.0
 10
97.212468
 20
-41.189578
 30
0.0
 10
97.339697
 20
-41.136897
 30
0.0
 10
97.433496
 20
-41.043098
 30
0.0
  0
SPLINE
  5
2a4
100
AcDbEntity
  8
0
 62
7
100
AcDbSpline
 70
8
 71
3
 72
8
 73
4
 74
0
 40
0
 40
0
 40
0
 40
0
 40
1
 40
1
 40
1
 40
1
 10
97.433496
 20
-41.043098
 30
0.0
 10
97.527295
 20
-40.949299
 30
0.0
 10
97.579976
 20
-40.822070
 30
0.0
 10
97.579942
 20
-40.689418
 30
0.0
  0
SPLINE
  5
2a5
100
AcDbEntity
  8
0
 62
7
100
AcDbSpline
 70
8
 71
3
 72
8
 73
4
 74
0
 40
0
 40
0
 40
0
 40
0
 40
1
 40
1
 40
1
 40
1
 10
83.579970
 20
-40.689418
 30
0.0
 10
83.579936
 20
-40.822026
 30
0.0
 10
83.632582
 20
-40.949216
 30
0.0
 10
83.726327
 20
-41.043008
 30
0.0
  0
SPLINE
  5
2a6
100
AcDbEntity
  8
0
 62
7
100
AcDbSpline
 70
8
 71
3
 72
8
 73
4
 74
0
 40
0
 40
0
 40
0
 40
0
 40
1
 40
1
 40
1
 40
1
 10
83.726327
 20
-41.043008
 30
0.0
 10
83.820071
 20
-41.136800
 30
0.0
 10
83.947234
 20
-41.189511
 30
0.0
 10
84.079842
 20
-41.189544
 30
0.0
  0
SPLINE
  5
2a7
100
AcDbEntity
  8
0
 62
7
100
AcDbSpline
 70
8
 71
3
 72
8
 73
4
 74
0
 40
0
 40
0
 40
0
 40
0
 40
1
 40
1
 40
1
 40
1
 10
84.079842
 20
-27.189572
 30
0.0
 10
83.803799
 20
-27.189642
 30
0.0
 10
83.580040
 20
-27.413402
 30
0.0
 10
83.579970
 20
-27.689444
 30
0.0
  0
SPLINE
  5
2a8
100
AcDbEntity
  8
0
 62
7
100
AcDbSpline
 70
8
 71
3
 72
8
 73
4
 74
0
 40
0
 40
0
 40
0
 40
0
 40
1
 40
1
 40
1
 40
1
 10
97.579942
 20
-27.689444
 30
0.0
 10
97.579908
 20
-27.556836
 30
0.0
 10
97.527198
 20
-27.429673
 30
0.0
 10
97.433406
 20
-27.335929
 30
0.0
  0
SPLINE
  5
2a9
100
AcDbEntity
  8
0
 62
7
100
AcDbSpline
 70
8
 71
3
 72
8
 73
4
 74
0
 40
0
 40
0
 40
0
 40
0
 40
1
 40
1
 40
1
 40
1
 10
97.433406
 20
-27.335929
 30
0.0
 10
97.339614
 20
-27.242185
 30
0.0
 10
97.212424
 20
-27.189539
 30
0.0
 10
97.079816
 20
-27.189572
 30
0.0
  0
LWPOLYLINE
  5
2aa
100
AcDbEntity
  8
0
 62
7
100
AcDbPolyline
 90
2
 70
0
 10
116.126260
 20
-27.187286
 30
0.0
 10
103.126540
 20
-27.187286
 30
0.0
  0
LWPOLYLINE
  5
2ab
100
AcDbEntity
  8
0
 62
7
100
AcDbPolyline
 90
2
 70
0
 10
97.579180
 20
-40.687386
 30
0.0
 10
97.579180
 20
-27.687666
 30
0.0
  0
LWPOLYLINE
  5
2ac
100
AcDbEntity
  8
0
 62
7
100
AcDbPolyline
 90
2
 70
0
 10
84.079080
 20
-41.187766
 30
0.0
 10
97.078800
 20
-41.187766
 30
0.0
  0
LWPOLYLINE
  5
2ad
100
AcDbEntity
  8
0
 62
7
100
AcDbPolyline
 90
2
 70
0
 10
83.578700
 20
-27.687666
 30
0.0
 10
83.578700
 20
-40.687386
 30
0.0
  0
SPLINE
  5
2ae
100
AcDbEntity
  8
0
 62
7
100
AcDbSpline
 70
8
 71
3
 72
8
 73
4
 74
0
 40
0
 40
0
 40
0
 40
0
 40
1
 40
1
 40
1
 40
1
 10
78.031086
 20
-41.189544
 30
0.0
 10
78.163738
 20
-41.189578
 30
0.0
 10
78.290967
 20
-41.136897
 30
0.0
 10
78.384766
 20
-41.043098
 30
0.0
  0
SPLINE
  5
2af
100
AcDbEntity
  8
0
 62
7
100
AcDbSpline
 70
8
 71
3
 72
8
 73
4
 74
0
 40
0
 40
0
 40
0
 40
0
 40
1
 40
1
 40
1
 40
1
 10
78.384766
 20
-41.043098
 30
0.0
 10
78.478565
 20
-40.949299
 30
0.0
 10
78.531246
 20
-40.822070
 30
0.0
 10
78.531212
 20
-40.689418
 30
0.0
  0
SPLINE
  5
2b0
100
AcDbEntity
  8
0
 62
7
100
AcDbSpline
 70
8
 71
3
 72
8
 73
4
 74
0
 40
0
 40
0
 40
0
 40
0
 40
1
 40
1
 40
1
 40
1
 10
64.530986
 20
-40.689418
 30
0.0
 10
64.530952
 20
-40.822070
 30
0.0
 10
64.583633
 20
-40.949299
 30
0.0
 10
64.677432
 20
-41.043098
 30
0.0
  0
SPLINE
  5
2b1
100
AcDbEntity
  8
0
 62
7
100
AcDbSpline
 70
8
 71
3
 72
8
 73
4
 74
0
 40
0
 40
0
 40
0
 40
0
 40
1
 40
1
 40
1
 40
1
 10
64.677432
 20
-41.043098
 30
0.0
 10
64.771231
 20
-41.136897
 30
0.0
 10
64.898460
 20
-41.189578
 30
0.0
 10
65.031112
 20
-41.189544
 30
0.0
  0
SPLINE
  5
2b2
100
AcDbEntity
  8
0
 62
7
100
AcDbSpline
 70
8
 71
3
 72
8
 73
4
 74
0
 40
0
 40
0
 40
0
 40
0
 40
1
 40
1
 40
1
 40
1
 10
65.031112
 20
-27.189572
 30
0.0
 10
64.898504
 20
-27.189539
 30
0.0
 10
64.771314
 20
-27.242185
 30
0.0
 10
64.677522
 20
-27.335929
 30
0.0
  0
SPLINE
  5
2b3
100
AcDbEntity
  8
0
 62
7
100
AcDbSpline
 70
8
 71
3
 72
8
 73
4
 74
0
 40
0
 40
0
 40
0
 40
0
 40
1
 40
1
 40
1
 40
1
 10
64.677522
 20
-27.335929
 30
0.0
 10
64.583730
 20
-27.429673
 30
0.0
 10
64.531020
 20
-27.556836
 30
0.0
 10
64.530986
 20
-27.689444
 30
0.0
  0
SPLINE
  5
2b4
100
AcDbEntity
  8
0
 62
7
100
AcDbSpline
 70
8
 71
3
 72
8
 73
4
 74
0
 40
0
 40
0
 40
0
 40
0
 40
1
 40
1
 40
1
 40
1
 10
78.531212
 20
-27.689444
 30
0.0
 10
78.531178
 20
-27.556836
 30
0.0
 10
78.478468
 20
-27.429673
 30
0.0
 10
78.384676
 20
-27.335929
 30
0.0
  0
SPLINE
  5
2b5
100
AcDbEntity
  8
0
 62
7
100
AcDbSpline
 70
8
 71
3
 72
8
 73
4
 74
0
 40
0
 40
0
 40
0
 40
0
 40
1
 40
1
 40
1
 40
1
 10
78.384676
 20
-27.335929
 30
0.0
 10
78.290884
 20
-27.242185
 30
0.0
 10
78.163694
 20
-27.189539
 30
0.0
 10
78.031086
 20
-27.189572
 30
0.0
  0
LWPOLYLINE
  5
2b6
100
AcDbEntity
  8
0
 62
7
100
AcDbPolyline
 90
2
 70
0
 10
97.078800
 20
-27.187286
 30
0.0
 10
84.079080
 20
-27.187286
 30
0.0
  0
LWPOLYLINE
  5
2b7
100
AcDbEntity
  8
0
 62
7
100
AcDbPolyline
 90
2
 70
0
 10
78.529180
 20
-40.687386
 30
0.0
 10
78.529180
 20
-27.687666
 30
0.0
  0
LWPOLYLINE
  5
2b8
100
AcDbEntity
  8
0
 62
7
100
AcDbPolyline
 90
2
 70
0
 10
65.029080
 20
-41.187766
 30
0.0
 10
78.028800
 20
-41.187766
 30
0.0
  0
LWPOLYLINE
  5
2b9
100
AcDbEntity
  8
0
 62
7
100
AcDbPolyline
 90
2
 70
0
 10
64.528700
 20
-27.687666
 30
0.0
 10
64.528700
 20
-40.687386
 30
0.0
  0
SPLINE
  5
2ba
100
AcDbEntity
  8
0
 62
7
100
AcDbSpline
 70
8
 71
3
 72
8
 73
4
 74
0
 40
0
 40
0
 40
0
 40
0
 40
1
 40
1
 40
1
 40
1
 10
58.982356
 20
-41.189544
 30
0.0
 10
59.114964
 20
-41.189511
 30
0.0
 10
59.242127
 20
-41.136800
 30
0.0
 10
59.335871
 20
-41.043008
 30
0.0
  0
SPLINE
  5
2bb
100
AcDbEntity
  8
0
 62
7
100
AcDbSpline
 70
8
 71
3
 72
8
 73
4
 74
0
 40
0
 40
0
 40
0
 40
0
 40
1
 40
1
 40
1
 40
1
 10
59.335871
 20
-41.043008
 30
0.0
 10
59.429616
 20
-40.949216
 30
0.0
 10
59.482262
 20
-40.822026
 30
0.0
 10
59.482228
 20
-40.689418
 30
0.0
  0
SPLINE
  5
2bc
100
AcDbEntity
  8
0
 62
7
100
AcDbSpline
 70
8
 71
3
 72
8
 73
4
 74
0
 40
0
 40
0
 40
0
 40
0
 40
1
 40
1
 40
1
 40
1
 10
45.482256
 20
-40.689418
 30
0.0
 10
45.482222
 20
-40.822070
 30
0.0
 10
45.534903
 20
-40.949299
 30
0.0
 10
45.628702
 20
-41.043098
 30
0.0
  0
SPLINE
  5
2bd
100
AcDbEntity
  8
0
 62
7
100
AcDbSpline
 70
8
 71
3
 72
8
 73
4
 74
0
 40
0
 40
0
 40
0
 40
0
 40
1
 40
1
 40
1
 40
1
 10
45.628702
 20
-41.043098
 30
0.0
 10
45.722501
 20
-41.136897
 30
0.0
 10
45.849730
 20
-41.189578
 30
0.0
 10
45.982382
 20
-41.189544
 30
0.0
  0
SPLINE
  5
2be
100
AcDbEntity
  8
0
 62
7
100
AcDbSpline
 70
8
 71
3
 72
8
 73
4
 74
0
 40
0
 40
0
 40
0
 40
0
 40
1
 40
1
 40
1
 40
1
 10
45.982382
 20
-27.189572
 30
0.0
 10
45.849774
 20
-27.189539
 30
0.0
 10
45.722584
 20
-27.242185
 30
0.0
 10
45.628792
 20
-27.335929
 30
0.0
  0
SPLINE
  5
2bf
100
AcDbEntity
  8
0
 62
7
100
AcDbSpline
 70
8
 71
3
 72
8
 73
4
 74
0
 40
0
 40
0
 40
0
 40
0
 40
1
 40
1
 40
1
 40
1
 10
45.628792
 20
-27.335929
 30
0.0
 10
45.535000
 20
-27.429673
 30
0.0
 10
45.482290
 20
-27.556836
 30
0.0
 10
45.482256
 20
-27.689444
 30
0.0
  0
SPLINE
  5
2c0
100
AcDbEntity
  8
0
 62
7
100
AcDbSpline
 70
8
 71
3
 72
8
 73
4
 74
0
 40
0
 40
0
 40
0
 40
0
 40
1
 40
1
 40
1
 40
1
 10
59.482228
 20
-27.689444
 30
0.0
 10
59.482158
 20
-27.413402
 30
0.0
 10
59.258399
 20
-27.189642
 30
0.0
 10
58.982356
 20
-27.189572
 30
0.0
  0
LWPOLYLINE
  5
2c1
100
AcDbEntity
  8
0
 62
7
100
AcDbPolyline
 90
2
 70
0
 10
78.028800
 20
-27.187286
 30
0.0
 10
65.029080
 20
-27.187286
 30
0.0
  0
LWPOLYLINE
  5
2c2
100
AcDbEntity
  8
0
 62
7
100
AcDbPolyline
 90
2
 70
0
 10
59.481720
 20
-40.687386
 30
0.0
 10
59.481720
 20
-27.687666
 30
0.0
  0
LWPOLYLINE
  5
2c3
100
AcDbEntity
  8
0
 62
7
100
AcDbPolyline
 90
2
 70
0
 10
45.981620
 20
-41.187766
 30
0.0
 10
58.981340
 20
-41.187766
 30
0.0
  0
LWPOLYLINE
  5
2c4
100
AcDbEntity
  8
0
 62
7
100
AcDbPolyline
 90
2
 70
0
 10
45.481240
 20
-27.687666
 30
0.0
 10
45.481240
 20
-40.687386
 30
0.0
  0
SPLINE
  5
2c5
100
AcDbEntity
  8
0
 62
7
100
AcDbSpline
 70
8
 71
3
 72
8
 73
4
 74
0
 40
0
 40
0
 40
0
 40
0
 40
1
 40
1
 40
1
 40
1
 10
39.933626
 20
-41.189544
 30
0.0
 10
40.066234
 20
-41.189511
 30
0.0
 10
40.193397
 20
-41.136800
 30
0.0
 10
40.287141
 20
-41.043008
 30
0.0
  0
SPLINE
  5
2c6
100
AcDbEntity
  8
0
 62
7
100
AcDbSpline
 70
8
 71
3
 72
8
 73
4
 74
0
 40
0
 40
0
 40
0
 40
0
 40
1
 40
1
 40
1
 40
1
 10
40.287141
 20
-41.043008
 30
0.0
 10
40.380886
 20
-40.949216
 30
0.0
 10
40.433532
 20
-40.822026
 30
0.0
 10
40.433498
 20
-40.689418
 30
0.0
  0
SPLINE
  5
2c7
100
AcDbEntity
  8
0
 62
7
100
AcDbSpline
 70
8
 71
3
 72
8
 73
4
 74
0
 40
0
 40
0
 40
0
 40
0
 40
1
 40
1
 40
1
 40
1
 10
26.433526
 20
-40.689418
 30
0.0
 10
26.433492
 20
-40.822026
 30
0.0
 10
26.486138
 20
-40.949216
 30
0.0
 10
26.579883
 20
-41.043008
 30
0.0
  0
SPLINE
  5
2c8
100
AcDbEntity
  8
0
 62
7
100
AcDbSpline
 70
8
 71
3
 72
8
 73
4
 74
0
 40
0
 40
0
 40
0
 40
0
 40
1
 40
1
 40
1
 40
1
 10
26.579883
 20
-41.043008
 30
0.0
 10
26.673627
 20
-41.136800
 30
0.0
 10
26.800790
 20
-41.189511
 30
0.0
 10
26.933398
 20
-41.189544
 30
0.0
  0
SPLINE
  5
2c9
100
AcDbEntity
  8
0
 62
7
100
AcDbSpline
 70
8
 71
3
 72
8
 73
4
 74
0
 40
0
 40
0
 40
0
 40
0
 40
1
 40
1
 40
1
 40
1
 10
26.933398
 20
-27.189572
 30
0.0
 10
26.657355
 20
-27.189642
 30
0.0
 10
26.433596
 20
-27.413402
 30
0.0
 10
26.433526
 20
-27.689444
 30
0.0
  0
SPLINE
  5
2ca
100
AcDbEntity
  8
0
 62
7
100
AcDbSpline
 70
8
 71
3
 72
8
 73
4
 74
0
 40
0
 40
0
 40
0
 40
0
 40
1
 40
1
 40
1
 40
1
 10
40.433498
 20
-27.689444
 30
0.0
 10
40.433428
 20
-27.413402
 30
0.0
 10
40.209669
 20
-27.189642
 30
0.0
 10
39.933626
 20
-27.189572
 30
0.0
  0
LWPOLYLINE
  5
2cb
100
AcDbEntity
  8
0
 62
7
100
AcDbPolyline
 90
2
 70
0
 10
58.981340
 20
-27.187286
 30
0.0
 10
45.981620
 20
-27.187286
 30
0.0
  0
LWPOLYLINE
  5
2cc
100
AcDbEntity
  8
0
 62
7
100
AcDbPolyline
 90
2
 70
0
 10
40.431720
 20
-40.687386
 30
0.0
 10
40.431720
 20
-27.687666
 30
0.0
  0
LWPOLYLINE
  5
2cd
100
AcDbEntity
  8
0
 62
7
100
AcDbPolyline
 90
2
 70
0
 10
26.931620
 20
-41.187766
 30
0.0
 10
39.931340
 20
-41.187766
 30
0.0
  0
LWPOLYLINE
  5
2ce
100
AcDbEntity
  8
0
 62
7
100
AcDbPolyline
 90
2
 70
0
 10
26.431240
 20
-27.687666
 30
0.0
 10
26.431240
 20
-40.687386
 30
0.0
  0
SPLINE
  5
2cf
100
AcDbEntity
  8
0
 62
7
100
AcDbSpline
 70
8
 71
3
 72
8
 73
4
 74
0
 40
0
 40
0
 40
0
 40
0
 40
1
 40
1
 40
1
 40
1
 10
206.610458
 20
-22.140636
 30
0.0
 10
206.743088
 20
-22.140670
 30
0.0
 10
206.870297
 20
-22.088007
 30
0.0
 10
206.964093
 20
-21.994235
 30
0.0
  0
SPLINE
  5
2d0
100
AcDbEntity
  8
0
 62
7
100
AcDbSpline
 70
8
 71
3
 72
8
 73
4
 74
0
 40
0
 40
0
 40
0
 40
0
 40
1
 40
1
 40
1
 40
1
 10
206.964093
 20
-21.994235
 30
0.0
 10
207.057888
 20
-21.900463
 30
0.0
 10
207.110584
 20
-21.773267
 30
0.0
 10
207.110584
 20
-21.640637
 30
0.0
  0
SPLINE
  5
2d1
100
AcDbEntity
  8
0
 62
7
100
AcDbSpline
 70
8
 71
3
 72
8
 73
4
 74
0
 40
0
 40
0
 40
0
 40
0
 40
1
 40
1
 40
1
 40
1
 10
193.110612
 20
-21.640637
 30
0.0
 10
193.110612
 20
-21.916730
 30
0.0
 10
193.334392
 20
-22.140566
 30
0.0
 10
193.610484
 20
-22.140636
 30
0.0
  0
SPLINE
  5
2d2
100
AcDbEntity
  8
0
 62
7
100
AcDbSpline
 70
8
 71
3
 72
8
 73
4
 74
0
 40
0
 40
0
 40
0
 40
0
 40
1
 40
1
 40
1
 40
1
 10
193.610484
 20
-8.140639
 30
0.0
 10
193.334392
 20
-8.140709
 30
0.0
 10
193.110612
 20
-8.364546
 30
0.0
 10
193.110612
 20
-8.640638
 30
0.0
  0
SPLINE
  5
2d3
100
AcDbEntity
  8
0
 62
7
100
AcDbSpline
 70
8
 71
3
 72
8
 73
4
 74
0
 40
0
 40
0
 40
0
 40
0
 40
1
 40
1
 40
1
 40
1
 10
207.110584
 20
-8.640638
 30
0.0
 10
207.110584
 20
-8.508008
 30
0.0
 10
207.057888
 20
-8.380812
 30
0.0
 10
206.964093
 20
-8.287040
 30
0.0
  0
SPLINE
  5
2d4
100
AcDbEntity
  8
0
 62
7
100
AcDbSpline
 70
8
 71
3
 72
8
 73
4
 74
0
 40
0
 40
0
 40
0
 40
0
 40
1
 40
1
 40
1
 40
1
 10
206.964093
 20
-8.287040
 30
0.0
 10
206.870297
 20
-8.193269
 30
0.0
 10
206.743088
 20
-8.140605
 30
0.0
 10
206.610458
 20
-8.140639
 30
0.0
  0
LWPOLYLINE
  5
2d5
100
AcDbEntity
  8
0
 62
7
100
AcDbPolyline
 90
2
 70
0
 10
39.931340
 20
-27.187286
 30
0.0
 10
26.931620
 20
-27.187286
 30
0.0
  0
LWPOLYLINE
  5
2d6
100
AcDbEntity
  8
0
 62
7
100
AcDbPolyline
 90
2
 70
0
 10
207.109060
 20
-21.639926
 30
0.0
 10
207.109060
 20
-8.640206
 30
0.0
  0
LWPOLYLINE
  5
2d7
100
AcDbEntity
  8
0
 62
7
100
AcDbPolyline
 90
2
 70
0
 10
193.608960
 20
-22.140306
 30
0.0
 10
206.608680
 20
-22.140306
 30
0.0
  0
LWPOLYLINE
  5
2d8
100
AcDbEntity
  8
0
 62
7
100
AcDbPolyline
 90
2
 70
0
 10
193.108580
 20
-8.640206
 30
0.0
 10
193.108580
 20
-21.639926
 30
0.0
  0
SPLINE
  5
2d9
100
AcDbEntity
  8
0
 62
7
100
AcDbSpline
 70
8
 71
3
 72
8
 73
4
 74
0
 40
0
 40
0
 40
0
 40
0
 40
1
 40
1
 40
1
 40
1
 10
187.561728
 20
-22.140636
 30
0.0
 10
187.837820
 20
-22.140566
 30
0.0
 10
188.061600
 20
-21.916730
 30
0.0
 10
188.061600
 20
-21.640637
 30
0.0
  0
SPLINE
  5
2da
100
AcDbEntity
  8
0
 62
7
100
AcDbSpline
 70
8
 71
3
 72
8
 73
4
 74
0
 40
0
 40
0
 40
0
 40
0
 40
1
 40
1
 40
1
 40
1
 10
174.061628
 20
-21.640637
 30
0.0
 10
174.061628
 20
-21.773267
 30
0.0
 10
174.114324
 20
-21.900463
 30
0.0
 10
174.208119
 20
-21.994235
 30
0.0
  0
SPLINE
  5
2db
100
AcDbEntity
  8
0
 62
7
100
AcDbSpline
 70
8
 71
3
 72
8
 73
4
 74
0
 40
0
 40
0
 40
0
 40
0
 40
1
 40
1
 40
1
 40
1
 10
174.208119
 20
-21.994235
 30
0.0
 10
174.301915
 20
-22.088007
 30
0.0
 10
174.429124
 20
-22.140670
 30
0.0
 10
174.561754
 20
-22.140636
 30
0.0
  0
SPLINE
  5
2dc
100
AcDbEntity
  8
0
 62
7
100
AcDbSpline
 70
8
 71
3
 72
8
 73
4
 74
0
 40
0
 40
0
 40
0
 40
0
 40
1
 40
1
 40
1
 40
1
 10
174.561754
 20
-8.140639
 30
0.0
 10
174.429124
 20
-8.140605
 30
0.0
 10
174.301915
 20
-8.193269
 30
0.0
 10
174.208119
 20
-8.287040
 30
0.0
  0
SPLINE
  5
2dd
100
AcDbEntity
  8
0
 62
7
100
AcDbSpline
 70
8
 71
3
 72
8
 73
4
 74
0
 40
0
 40
0
 40
0
 40
0
 40
1
 40
1
 40
1
 40
1
 10
174.208119
 20
-8.287040
 30
0.0
 10
174.114324
 20
-8.380812
 30
0.0
 10
174.061628
 20
-8.508008
 30
0.0
 10
174.061628
 20
-8.640638
 30
0.0
  0
SPLINE
  5
2de
100
AcDbEntity
  8
0
 62
7
100
AcDbSpline
 70
8
 71
3
 72
8
 73
4
 74
0
 40
0
 40
0
 40
0
 40
0
 40
1
 40
1
 40
1
 40
1
 10
188.061600
 20
-8.640638
 30
0.0
 10
188.061600
 20
-8.364546
 30
0.0
 10
187.837820
 20
-8.140709
 30
0.0
 10
187.561728
 20
-8.140639
 30
0.0
  0
LWPOLYLINE
  5
2df
100
AcDbEntity
  8
0
 62
7
100
AcDbPolyline
 90
2
 70
0
 10
206.608680
 20
-8.139826
 30
0.0
 10
193.608960
 20
-8.139826
 30
0.0
  0
LWPOLYLINE
  5
2e0
100
AcDbEntity
  8
0
 62
7
100
AcDbPolyline
 90
2
 70
0
 10
188.061600
 20
-21.639926
 30
0.0
 10
188.061600
 20
-8.640206
 30
0.0
  0
LWPOLYLINE
  5
2e1
100
AcDbEntity
  8
0
 62
7
100
AcDbPolyline
 90
2
 70
0
 10
174.561500
 20
-22.140306
 30
0.0
 10
187.561220
 20
-22.140306
 30
0.0
  0
LWPOLYLINE
  5
2e2
100
AcDbEntity
  8
0
 62
7
100
AcDbPolyline
 90
2
 70
0
 10
174.061120
 20
-8.640206
 30
0.0
 10
174.061120
 20
-21.639926
 30
0.0
  0
SPLINE
  5
2e3
100
AcDbEntity
  8
0
 62
7
100
AcDbSpline
 70
8
 71
3
 72
8
 73
4
 74
0
 40
0
 40
0
 40
0
 40
0
 40
1
 40
1
 40
1
 40
1
 10
168.512998
 20
-22.140636
 30
0.0
 10
168.789090
 20
-22.140566
 30
0.0
 10
169.012870
 20
-21.916730
 30
0.0
 10
169.012870
 20
-21.640637
 30
0.0
  0
SPLINE
  5
2e4
100
AcDbEntity
  8
0
 62
7
100
AcDbSpline
 70
8
 71
3
 72
8
 73
4
 74
0
 40
0
 40
0
 40
0
 40
0
 40
1
 40
1
 40
1
 40
1
 10
155.012898
 20
-21.640637
 30
0.0
 10
155.012898
 20
-21.773267
 30
0.0
 10
155.065594
 20
-21.900463
 30
0.0
 10
155.159389
 20
-21.994235
 30
0.0
  0
SPLINE
  5
2e5
100
AcDbEntity
  8
0
 62
7
100
AcDbSpline
 70
8
 71
3
 72
8
 73
4
 74
0
 40
0
 40
0
 40
0
 40
0
 40
1
 40
1
 40
1
 40
1
 10
155.159389
 20
-21.994235
 30
0.0
 10
155.253185
 20
-22.088007
 30
0.0
 10
155.380394
 20
-22.140670
 30
0.0
 10
155.513024
 20
-22.140636
 30
0.0
  0
SPLINE
  5
2e6
100
AcDbEntity
  8
0
 62
7
100
AcDbSpline
 70
8
 71
3
 72
8
 73
4
 74
0
 40
0
 40
0
 40
0
 40
0
 40
1
 40
1
 40
1
 40
1
 10
155.513024
 20
-8.140639
 30
0.0
 10
155.380394
 20
-8.140605
 30
0.0
 10
155.253185
 20
-8.193269
 30
0.0
 10
155.159389
 20
-8.287040
 30
0.0
  0
SPLINE
  5
2e7
100
AcDbEntity
  8
0
 62
7
100
AcDbSpline
 70
8
 71
3
 72
8
 73
4
 74
0
 40
0
 40
0
 40
0
 40
0
 40
1
 40
1
 40
1
 40
1
 10
155.159389
 20
-8.287040
 30
0.0
 10
155.065594
 20
-8.380812
 30
0.0
 10
155.012898
 20
-8.508008
 30
0.0
 10
155.012898
 20
-8.640638
 30
0.0
  0
SPLINE
  5
2e8
100
AcDbEntity
  8
0
 62
7
100
AcDbSpline
 70
8
 71
3
 72
8
 73
4
 74
0
 40
0
 40
0
 40
0
 40
0
 40
1
 40
1
 40
1
 40
1
 10
169.012870
 20
-8.640638
 30
0.0
 10
169.012870
 20
-8.364546
 30
0.0
 10
168.789090
 20
-8.140709
 30
0.0
 10
168.512998
 20
-8.140639
 30
0.0
  0
LWPOLYLINE
  5
2e9
100
AcDbEntity
  8
0
 62
7
100
AcDbPolyline
 90
2
 70
0
 10
187.561220
 20
-8.139826
 30
0.0
 10
174.561500
 20
-8.139826
 30
0.0
  0
LWPOLYLINE
  5
2ea
100
AcDbEntity
  8
0
 62
7
100
AcDbPolyline
 90
2
 70
0
 10
169.011600
 20
-21.639926
 30
0.0
 10
169.011600
 20
-8.640206
 30
0.0
  0
LWPOLYLINE
  5
2eb
100
AcDbEntity
  8
0
 62
7
100
AcDbPolyline
 90
2
 70
0
 10
155.511500
 20
-22.140306
 30
0.0
 10
168.511220
 20
-22.140306
 30
0.0
  0
LWPOLYLINE
  5
2ec
100
AcDbEntity
  8
0
 62
7
100
AcDbPolyline
 90
2
 70
0
 10
155.011120
 20
-8.640206
 30
0.0
 10
155.011120
 20
-21.639926
 30
0.0
  0
SPLINE
  5
2ed
100
AcDbEntity
  8
0
 62
7
100
AcDbSpline
 70
8
 71
3
 72
8
 73
4
 74
0
 40
0
 40
0
 40
0
 40
0
 40
1
 40
1
 40
1
 40
1
 10
149.464014
 20
-22.140636
 30
0.0
 10
149.596644
 20
-22.140670
 30
0.0
 10
149.723853
 20
-22.088007
 30
0.0
 10
149.817649
 20
-21.994235
 30
0.0
  0
SPLINE
  5
2ee
100
AcDbEntity
  8
0
 62
7
100
AcDbSpline
 70
8
 71
3
 72
8
 73
4
 74
0
 40
0
 40
0
 40
0
 40
0
 40
1
 40
1
 40
1
 40
1
 10
149.817649
 20
-21.994235
 30
0.0
 10
149.911444
 20
-21.900463
 30
0.0
 10
149.964140
 20
-21.773267
 30
0.0
 10
149.964140
 20
-21.640637
 30
0.0
  0
SPLINE
  5
2ef
100
AcDbEntity
  8
0
 62
7
100
AcDbSpline
 70
8
 71
3
 72
8
 73
4
 74
0
 40
0
 40
0
 40
0
 40
0
 40
1
 40
1
 40
1
 40
1
 10
135.964168
 20
-21.640637
 30
0.0
 10
135.964168
 20
-21.916730
 30
0.0
 10
136.187948
 20
-22.140566
 30
0.0
 10
136.464040
 20
-22.140636
 30
0.0
  0
SPLINE
  5
2f0
100
AcDbEntity
  8
0
 62
7
100
AcDbSpline
 70
8
 71
3
 72
8
 73
4
 74
0
 40
0
 40
0
 40
0
 40
0
 40
1
 40
1
 40
1
 40
1
 10
136.464040
 20
-8.140639
 30
0.0
 10
136.187948
 20
-8.140709
 30
0.0
 10
135.964168
 20
-8.364546
 30
0.0
 10
135.964168
 20
-8.640638
 30
0.0
  0
SPLINE
  5
2f1
100
AcDbEntity
  8
0
 62
7
100
AcDbSpline
 70
8
 71
3
 72
8
 73
4
 74
0
 40
0
 40
0
 40
0
 40
0
 40
1
 40
1
 40
1
 40
1
 10
149.964140
 20
-8.640638
 30
0.0
 10
149.964140
 20
-8.508008
 30
0.0
 10
149.911444
 20
-8.380812
 30
0.0
 10
149.817649
 20
-8.287040
 30
0.0
  0
SPLINE
  5
2f2
100
AcDbEntity
  8
0
 62
7
100
AcDbSpline
 70
8
 71
3
 72
8
 73
4
 74
0
 40
0
 40
0
 40
0
 40
0
 40
1
 40
1
 40
1
 40
1
 10
149.817649
 20
-8.287040
 30
0.0
 10
149.723853
 20
-8.193269
 30
0.0
 10
149.596644
 20
-8.140605
 30
0.0
 10
149.464014
 20
-8.140639
 30
0.0
  0
LWPOLYLINE
  5
2f3
100
AcDbEntity
  8
0
 62
7
100
AcDbPolyline
 90
2
 70
0
 10
168.511220
 20
-8.139826
 30
0.0
 10
155.511500
 20
-8.139826
 30
0.0
  0
LWPOLYLINE
  5
2f4
100
AcDbEntity
  8
0
 62
7
100
AcDbPolyline
 90
2
 70
0
 10
149.961600
 20
-21.639926
 30
0.0
 10
149.961600
 20
-8.640206
 30
0.0
  0
LWPOLYLINE
  5
2f5
100
AcDbEntity
  8
0
 62
7
100
AcDbPolyline
 90
2
 70
0
 10
136.464040
 20
-22.140306
 30
0.0
 10
149.463760
 20
-22.140306
 30
0.0
  0
LWPOLYLINE
  5
2f6
100
AcDbEntity
  8
0
 62
7
100
AcDbPolyline
 90
2
 70
0
 10
135.963660
 20
-8.640206
 30
0.0
 10
135.963660
 20
-21.639926
 30
0.0
  0
SPLINE
  5
2f7
100
AcDbEntity
  8
0
 62
7
100
AcDbSpline
 70
8
 71
3
 72
8
 73
4
 74
0
 40
0
 40
0
 40
0
 40
0
 40
1
 40
1
 40
1
 40
1
 10
130.415284
 20
-22.140636
 30
0.0
 10
130.547914
 20
-22.140670
 30
0.0
 10
130.675123
 20
-22.088007
 30
0.0
 10
130.768919
 20
-21.994235
 30
0.0
  0
SPLINE
  5
2f8
100
AcDbEntity
  8
0
 62
7
100
AcDbSpline
 70
8
 71
3
 72
8
 73
4
 74
0
 40
0
 40
0
 40
0
 40
0
 40
1
 40
1
 40
1
 40
1
 10
130.768919
 20
-21.994235
 30
0.0
 10
130.862714
 20
-21.900463
 30
0.0
 10
130.915410
 20
-21.773267
 30
0.0
 10
130.915410
 20
-21.640637
 30
0.0
  0
SPLINE
  5
2f9
100
AcDbEntity
  8
0
 62
7
100
AcDbSpline
 70
8
 71
3
 72
8
 73
4
 74
0
 40
0
 40
0
 40
0
 40
0
 40
1
 40
1
 40
1
 40
1
 10
116.915184
 20
-21.640637
 30
0.0
 10
116.915184
 20
-21.773267
 30
0.0
 10
116.967880
 20
-21.900463
 30
0.0
 10
117.061675
 20
-21.994235
 30
0.0
  0
SPLINE
  5
2fa
100
AcDbEntity
  8
0
 62
7
100
AcDbSpline
 70
8
 71
3
 72
8
 73
4
 74
0
 40
0
 40
0
 40
0
 40
0
 40
1
 40
1
 40
1
 40
1
 10
117.061675
 20
-21.994235
 30
0.0
 10
117.155471
 20
-22.088007
 30
0.0
 10
117.282680
 20
-22.140670
 30
0.0
 10
117.415310
 20
-22.140636
 30
0.0
  0
SPLINE
  5
2fb
100
AcDbEntity
  8
0
 62
7
100
AcDbSpline
 70
8
 71
3
 72
8
 73
4
 74
0
 40
0
 40
0
 40
0
 40
0
 40
1
 40
1
 40
1
 40
1
 10
117.415310
 20
-8.140639
 30
0.0
 10
117.282680
 20
-8.140605
 30
0.0
 10
117.155471
 20
-8.193269
 30
0.0
 10
117.061675
 20
-8.287040
 30
0.0
  0
SPLINE
  5
2fc
100
AcDbEntity
  8
0
 62
7
100
AcDbSpline
 70
8
 71
3
 72
8
 73
4
 74
0
 40
0
 40
0
 40
0
 40
0
 40
1
 40
1
 40
1
 40
1
 10
117.061675
 20
-8.287040
 30
0.0
 10
116.967880
 20
-8.380812
 30
0.0
 10
116.915184
 20
-8.508008
 30
0.0
 10
116.915184
 20
-8.640638
 30
0.0
  0
SPLINE
  5
2fd
100
AcDbEntity
  8
0
 62
7
100
AcDbSpline
 70
8
 71
3
 72
8
 73
4
 74
0
 40
0
 40
0
 40
0
 40
0
 40
1
 40
1
 40
1
 40
1
 10
130.915410
 20
-8.640638
 30
0.0
 10
130.915410
 20
-8.508008
 30
0.0
 10
130.862714
 20
-8.380812
 30
0.0
 10
130.768919
 20
-8.287040
 30
0.0
  0
SPLINE
  5
2fe
100
AcDbEntity
  8
0
 62
7
100
AcDbSpline
 70
8
 71
3
 72
8
 73
4
 74
0
 40
0
 40
0
 40
0
 40
0
 40
1
 40
1
 40
1
 40
1
 10
130.768919
 20
-8.287040
 30
0.0
 10
130.675123
 20
-8.193269
 30
0.0
 10
130.547914
 20
-8.140605
 30
0.0
 10
130.415284
 20
-8.140639
 30
0.0
  0
LWPOLYLINE
  5
2ff
100
AcDbEntity
  8
0
 62
7
100
AcDbPolyline
 90
2
 70
0
 10
149.463760
 20
-8.139826
 30
0.0
 10
136.464040
 20
-8.139826
 30
0.0
  0
LWPOLYLINE
  5
300
100
AcDbEntity
  8
0
 62
7
100
AcDbPolyline
 90
2
 70
0
 10
130.914140
 20
-21.639926
 30
0.0
 10
130.914140
 20
-8.640206
 30
0.0
  0
LWPOLYLINE
  5
301
100
AcDbEntity
  8
0
 62
7
100
AcDbPolyline
 90
2
 70
0
 10
117.414040
 20
-22.140306
 30
0.0
 10
130.413760
 20
-22.140306
 30
0.0
  0
LWPOLYLINE
  5
302
100
AcDbEntity
  8
0
 62
7
100
AcDbPolyline
 90
2
 70
0
 10
116.913660
 20
-8.640206
 30
0.0
 10
116.913660
 20
-21.639926
 30
0.0
  0
SPLINE
  5
303
100
AcDbEntity
  8
0
 62
7
100
AcDbSpline
 70
8
 71
3
 72
8
 73
4
 74
0
 40
0
 40
0
 40
0
 40
0
 40
1
 40
1
 40
1
 40
1
 10
111.366554
 20
-22.140636
 30
0.0
 10
111.642646
 20
-22.140566
 30
0.0
 10
111.866426
 20
-21.916730
 30
0.0
 10
111.866426
 20
-21.640637
 30
0.0
  0
SPLINE
  5
304
100
AcDbEntity
  8
0
 62
7
100
AcDbSpline
 70
8
 71
3
 72
8
 73
4
 74
0
 40
0
 40
0
 40
0
 40
0
 40
1
 40
1
 40
1
 40
1
 10
97.866454
 20
-21.640637
 30
0.0
 10
97.866454
 20
-21.773267
 30
0.0
 10
97.919150
 20
-21.900463
 30
0.0
 10
98.012945
 20
-21.994235
 30
0.0
  0
SPLINE
  5
305
100
AcDbEntity
  8
0
 62
7
100
AcDbSpline
 70
8
 71
3
 72
8
 73
4
 74
0
 40
0
 40
0
 40
0
 40
0
 40
1
 40
1
 40
1
 40
1
 10
98.012945
 20
-21.994235
 30
0.0
 10
98.106741
 20
-22.088007
 30
0.0
 10
98.233950
 20
-22.140670
 30
0.0
 10
98.366580
 20
-22.140636
 30
0.0
  0
SPLINE
  5
306
100
AcDbEntity
  8
0
 62
7
100
AcDbSpline
 70
8
 71
3
 72
8
 73
4
 74
0
 40
0
 40
0
 40
0
 40
0
 40
1
 40
1
 40
1
 40
1
 10
98.366580
 20
-8.140639
 30
0.0
 10
98.233950
 20
-8.140605
 30
0.0
 10
98.106741
 20
-8.193269
 30
0.0
 10
98.012945
 20
-8.287040
 30
0.0
  0
SPLINE
  5
307
100
AcDbEntity
  8
0
 62
7
100
AcDbSpline
 70
8
 71
3
 72
8
 73
4
 74
0
 40
0
 40
0
 40
0
 40
0
 40
1
 40
1
 40
1
 40
1
 10
98.012945
 20
-8.287040
 30
0.0
 10
97.919150
 20
-8.380812
 30
0.0
 10
97.866454
 20
-8.508008
 30
0.0
 10
97.866454
 20
-8.640638
 30
0.0
  0
SPLINE
  5
308
100
AcDbEntity
  8
0
 62
7
100
AcDbSpline
 70
8
 71
3
 72
8
 73
4
 74
0
 40
0
 40
0
 40
0
 40
0
 40
1
 40
1
 40
1
 40
1
 10
111.866426
 20
-8.640638
 30
0.0
 10
111.866426
 20
-8.364546
 30
0.0
 10
111.642646
 20
-8.140709
 30
0.0
 10
111.366554
 20
-8.140639
 30
0.0
  0
LWPOLYLINE
  5
309
100
AcDbEntity
  8
0
 62
7
100
AcDbPolyline
 90
2
 70
0
 10
130.413760
 20
-8.139826
 30
0.0
 10
117.414040
 20
-8.139826
 30
0.0
  0
LWPOLYLINE
  5
30a
100
AcDbEntity
  8
0
 62
7
100
AcDbPolyline
 90
2
 70
0
 10
111.864140
 20
-21.639926
 30
0.0
 10
111.864140
 20
-8.640206
 30
0.0
  0
LWPOLYLINE
  5
30b
100
AcDbEntity
  8
0
 62
7
100
AcDbPolyline
 90
2
 70
0
 10
98.364040
 20
-22.140306
 30
0.0
 10
111.366300
 20
-22.140306
 30
0.0
  0
LWPOLYLINE
  5
30c
100
AcDbEntity
  8
0
 62
7
100
AcDbPolyline
 90
2
 70
0
 10
97.866200
 20
-8.640206
 30
0.0
 10
97.866200
 20
-21.639926
 30
0.0
  0
SPLINE
  5
30d
100
AcDbEntity
  8
0
 62
7
100
AcDbSpline
 70
8
 71
3
 72
8
 73
4
 74
0
 40
0
 40
0
 40
0
 40
0
 40
1
 40
1
 40
1
 40
1
 10
92.317824
 20
-22.140636
 30
0.0
 10
92.593916
 20
-22.140566
 30
0.0
 10
92.817696
 20
-21.916730
 30
0.0
 10
92.817696
 20
-21.640637
 30
0.0
  0
SPLINE
  5
30e
100
AcDbEntity
  8
0
 62
7
100
AcDbSpline
 70
8
 71
3
 72
8
 73
4
 74
0
 40
0
 40
0
 40
0
 40
0
 40
1
 40
1
 40
1
 40
1
 10
78.817724
 20
-21.640637
 30
0.0
 10
78.817724
 20
-21.916730
 30
0.0
 10
79.041504
 20
-22.140566
 30
0.0
 10
79.317596
 20
-22.140636
 30
0.0
  0
SPLINE
  5
30f
100
AcDbEntity
  8
0
 62
7
100
AcDbSpline
 70
8
 71
3
 72
8
 73
4
 74
0
 40
0
 40
0
 40
0
 40
0
 40
1
 40
1
 40
1
 40
1
 10
79.317596
 20
-8.140639
 30
0.0
 10
79.041504
 20
-8.140709
 30
0.0
 10
78.817724
 20
-8.364546
 30
0.0
 10
78.817724
 20
-8.640638
 30
0.0
  0
SPLINE
  5
310
100
AcDbEntity
  8
0
 62
7
100
AcDbSpline
 70
8
 71
3
 72
8
 73
4
 74
0
 40
0
 40
0
 40
0
 40
0
 40
1
 40
1
 40
1
 40
1
 10
92.817696
 20
-8.640638
 30
0.0
 10
92.817696
 20
-8.364546
 30
0.0
 10
92.593916
 20
-8.140709
 30
0.0
 10
92.317824
 20
-8.140639
 30
0.0
  0
LWPOLYLINE
  5
311
100
AcDbEntity
  8
0
 62
7
100
AcDbPolyline
 90
2
 70
0
 10
111.366300
 20
-8.139826
 30
0.0
 10
98.364040
 20
-8.139826
 30
0.0
  0
LWPOLYLINE
  5
312
100
AcDbEntity
  8
0
 62
7
100
AcDbPolyline
 90
2
 70
0
 10
92.816680
 20
-21.639926
 30
0.0
 10
92.816680
 20
-8.640206
 30
0.0
  0
LWPOLYLINE
  5
313
100
AcDbEntity
  8
0
 62
7
100
AcDbPolyline
 90
2
 70
0
 10
79.316580
 20
-22.140306
 30
0.0
 10
92.316300
 20
-22.140306
 30
0.0
  0
LWPOLYLINE
  5
314
100
AcDbEntity
  8
0
 62
7
100
AcDbPolyline
 90
2
 70
0
 10
78.816200
 20
-8.640206
 30
0.0
 10
78.816200
 20
-21.639926
 30
0.0
  0
SPLINE
  5
315
100
AcDbEntity
  8
0
 62
7
100
AcDbSpline
 70
8
 71
3
 72
8
 73
4
 74
0
 40
0
 40
0
 40
0
 40
0
 40
1
 40
1
 40
1
 40
1
 10
73.268840
 20
-22.140636
 30
0.0
 10
73.401470
 20
-22.140670
 30
0.0
 10
73.528679
 20
-22.088007
 30
0.0
 10
73.622475
 20
-21.994235
 30
0.0
  0
SPLINE
  5
316
100
AcDbEntity
  8
0
 62
7
100
AcDbSpline
 70
8
 71
3
 72
8
 73
4
 74
0
 40
0
 40
0
 40
0
 40
0
 40
1
 40
1
 40
1
 40
1
 10
73.622475
 20
-21.994235
 30
0.0
 10
73.716270
 20
-21.900463
 30
0.0
 10
73.768966
 20
-21.773267
 30
0.0
 10
73.768966
 20
-21.640637
 30
0.0
  0
SPLINE
  5
317
100
AcDbEntity
  8
0
 62
7
100
AcDbSpline
 70
8
 71
3
 72
8
 73
4
 74
0
 40
0
 40
0
 40
0
 40
0
 40
1
 40
1
 40
1
 40
1
 10
59.768994
 20
-21.640637
 30
0.0
 10
59.768994
 20
-21.916730
 30
0.0
 10
59.992774
 20
-22.140566
 30
0.0
 10
60.268866
 20
-22.140636
 30
0.0
  0
SPLINE
  5
318
100
AcDbEntity
  8
0
 62
7
100
AcDbSpline
 70
8
 71
3
 72
8
 73
4
 74
0
 40
0
 40
0
 40
0
 40
0
 40
1
 40
1
 40
1
 40
1
 10
60.268866
 20
-8.140639
 30
0.0
 10
59.992774
 20
-8.140709
 30
0.0
 10
59.768994
 20
-8.364546
 30
0.0
 10
59.768994
 20
-8.640638
 30
0.0
  0
SPLINE
  5
319
100
AcDbEntity
  8
0
 62
7
100
AcDbSpline
 70
8
 71
3
 72
8
 73
4
 74
0
 40
0
 40
0
 40
0
 40
0
 40
1
 40
1
 40
1
 40
1
 10
73.768966
 20
-8.640638
 30
0.0
 10
73.768966
 20
-8.508008
 30
0.0
 10
73.716270
 20
-8.380812
 30
0.0
 10
73.622475
 20
-8.287040
 30
0.0
  0
SPLINE
  5
31a
100
AcDbEntity
  8
0
 62
7
100
AcDbSpline
 70
8
 71
3
 72
8
 73
4
 74
0
 40
0
 40
0
 40
0
 40
0
 40
1
 40
1
 40
1
 40
1
 10
73.622475
 20
-8.287040
 30
0.0
 10
73.528679
 20
-8.193269
 30
0.0
 10
73.401470
 20
-8.140605
 30
0.0
 10
73.268840
 20
-8.140639
 30
0.0
  0
LWPOLYLINE
  5
31b
100
AcDbEntity
  8
0
 62
7
100
AcDbPolyline
 90
2
 70
0
 10
92.316300
 20
-8.139826
 30
0.0
 10
79.316580
 20
-8.139826
 30
0.0
  0
LWPOLYLINE
  5
31c
100
AcDbEntity
  8
0
 62
7
100
AcDbPolyline
 90
2
 70
0
 10
73.766680
 20
-21.639926
 30
0.0
 10
73.766680
 20
-8.640206
 30
0.0
  0
LWPOLYLINE
  5
31d
100
AcDbEntity
  8
0
 62
7
100
AcDbPolyline
 90
2
 70
0
 10
60.266580
 20
-22.140306
 30
0.0
 10
73.268840
 20
-22.140306
 30
0.0
  0
LWPOLYLINE
  5
31e
100
AcDbEntity
  8
0
 62
7
100
AcDbPolyline
 90
2
 70
0
 10
59.768740
 20
-8.640206
 30
0.0
 10
59.768740
 20
-21.639926
 30
0.0
  0
SPLINE
  5
31f
100
AcDbEntity
  8
0
 62
7
100
AcDbSpline
 70
8
 71
3
 72
8
 73
4
 74
0
 40
0
 40
0
 40
0
 40
0
 40
1
 40
1
 40
1
 40
1
 10
54.220110
 20
-22.140636
 30
0.0
 10
54.496202
 20
-22.140566
 30
0.0
 10
54.719982
 20
-21.916730
 30
0.0
 10
54.719982
 20
-21.640637
 30
0.0
  0
SPLINE
  5
320
100
AcDbEntity
  8
0
 62
7
100
AcDbSpline
 70
8
 71
3
 72
8
 73
4
 74
0
 40
0
 40
0
 40
0
 40
0
 40
1
 40
1
 40
1
 40
1
 10
40.720010
 20
-21.640637
 30
0.0
 10
40.720010
 20
-21.773267
 30
0.0
 10
40.772706
 20
-21.900463
 30
0.0
 10
40.866501
 20
-21.994235
 30
0.0
  0
SPLINE
  5
321
100
AcDbEntity
  8
0
 62
7
100
AcDbSpline
 70
8
 71
3
 72
8
 73
4
 74
0
 40
0
 40
0
 40
0
 40
0
 40
1
 40
1
 40
1
 40
1
 10
40.866501
 20
-21.994235
 30
0.0
 10
40.960297
 20
-22.088007
 30
0.0
 10
41.087506
 20
-22.140670
 30
0.0
 10
41.220136
 20
-22.140636
 30
0.0
  0
SPLINE
  5
322
100
AcDbEntity
  8
0
 62
7
100
AcDbSpline
 70
8
 71
3
 72
8
 73
4
 74
0
 40
0
 40
0
 40
0
 40
0
 40
1
 40
1
 40
1
 40
1
 10
41.220136
 20
-8.140639
 30
0.0
 10
41.087506
 20
-8.140605
 30
0.0
 10
40.960297
 20
-8.193269
 30
0.0
 10
40.866501
 20
-8.287040
 30
0.0
  0
SPLINE
  5
323
100
AcDbEntity
  8
0
 62
7
100
AcDbSpline
 70
8
 71
3
 72
8
 73
4
 74
0
 40
0
 40
0
 40
0
 40
0
 40
1
 40
1
 40
1
 40
1
 10
40.866501
 20
-8.287040
 30
0.0
 10
40.772706
 20
-8.380812
 30
0.0
 10
40.720010
 20
-8.508008
 30
0.0
 10
40.720010
 20
-8.640638
 30
0.0
  0
SPLINE
  5
324
100
AcDbEntity
  8
0
 62
7
100
AcDbSpline
 70
8
 71
3
 72
8
 73
4
 74
0
 40
0
 40
0
 40
0
 40
0
 40
1
 40
1
 40
1
 40
1
 10
54.719982
 20
-8.640638
 30
0.0
 10
54.719982
 20
-8.364546
 30
0.0
 10
54.496202
 20
-8.140709
 30
0.0
 10
54.220110
 20
-8.140639
 30
0.0
  0
LWPOLYLINE
  5
325
100
AcDbEntity
  8
0
 62
7
100
AcDbPolyline
 90
2
 70
0
 10
73.268840
 20
-8.139826
 30
0.0
 10
60.266580
 20
-8.139826
 30
0.0
  0
LWPOLYLINE
  5
326
100
AcDbEntity
  8
0
 62
7
100
AcDbPolyline
 90
2
 70
0
 10
54.719220
 20
-21.639926
 30
0.0
 10
54.719220
 20
-8.640206
 30
0.0
  0
LWPOLYLINE
  5
327
100
AcDbEntity
  8
0
 62
7
100
AcDbPolyline
 90
2
 70
0
 10
41.219120
 20
-22.140306
 30
0.0
 10
54.218840
 20
-22.140306
 30
0.0
  0
LWPOLYLINE
  5
328
100
AcDbEntity
  8
0
 62
7
100
AcDbPolyline
 90
2
 70
0
 10
40.718740
 20
-8.640206
 30
0.0
 10
40.718740
 20
-21.639926
 30
0.0
  0
SPLINE
  5
329
100
AcDbEntity
  8
0
 62
7
100
AcDbSpline
 70
8
 71
3
 72
8
 73
4
 74
0
 40
0
 40
0
 40
0
 40
0
 40
1
 40
1
 40
1
 40
1
 10
35.171380
 20
-22.140636
 30
0.0
 10
35.447472
 20
-22.140566
 30
0.0
 10
35.671252
 20
-21.916730
 30
0.0
 10
35.671252
 20
-21.640637
 30
0.0
  0
SPLINE
  5
32a
100
AcDbEntity
  8
0
 62
7
100
AcDbSpline
 70
8
 71
3
 72
8
 73
4
 74
0
 40
0
 40
0
 40
0
 40
0
 40
1
 40
1
 40
1
 40
1
 10
21.671305
 20
-21.640637
 30
0.0
 10
21.671305
 20
-21.773245
 30
0.0
 10
21.723984
 20
-21.900422
 30
0.0
 10
21.817752
 20
-21.994190
 30
0.0
  0
SPLINE
  5
32b
100
AcDbEntity
  8
0
 62
7
100
AcDbSpline
 70
8
 71
3
 72
8
 73
4
 74
0
 40
0
 40
0
 40
0
 40
0
 40
1
 40
1
 40
1
 40
1
 10
21.817752
 20
-21.994190
 30
0.0
 10
21.911520
 20
-22.087958
 30
0.0
 10
22.038696
 20
-22.140636
 30
0.0
 10
22.171304
 20
-22.140636
 30
0.0
  0
SPLINE
  5
32c
100
AcDbEntity
  8
0
 62
7
100
AcDbSpline
 70
8
 71
3
 72
8
 73
4
 74
0
 40
0
 40
0
 40
0
 40
0
 40
1
 40
1
 40
1
 40
1
 10
22.171304
 20
-8.140639
 30
0.0
 10
22.038696
 20
-8.140639
 30
0.0
 10
21.911520
 20
-8.193317
 30
0.0
 10
21.817752
 20
-8.287085
 30
0.0
  0
SPLINE
  5
32d
100
AcDbEntity
  8
0
 62
7
100
AcDbSpline
 70
8
 71
3
 72
8
 73
4
 74
0
 40
0
 40
0
 40
0
 40
0
 40
1
 40
1
 40
1
 40
1
 10
21.817752
 20
-8.287085
 30
0.0
 10
21.723984
 20
-8.380853
 30
0.0
 10
21.671305
 20
-8.508030
 30
0.0
 10
21.671305
 20
-8.640638
 30
0.0
  0
SPLINE
  5
32e
100
AcDbEntity
  8
0
 62
7
100
AcDbSpline
 70
8
 71
3
 72
8
 73
4
 74
0
 40
0
 40
0
 40
0
 40
0
 40
1
 40
1
 40
1
 40
1
 10
35.671252
 20
-8.640638
 30
0.0
 10
35.671252
 20
-8.364546
 30
0.0
 10
35.447472
 20
-8.140709
 30
0.0
 10
35.171380
 20
-8.140639
 30
0.0
  0
LWPOLYLINE
  5
32f
100
AcDbEntity
  8
0
 62
7
100
AcDbPolyline
 90
2
 70
0
 10
54.218840
 20
-8.139826
 30
0.0
 10
41.219120
 20
-8.139826
 30
0.0
  0
LWPOLYLINE
  5
330
100
AcDbEntity
  8
0
 62
7
100
AcDbPolyline
 90
2
 70
0
 10
35.669220
 20
-21.639926
 30
0.0
 10
35.669220
 20
-8.640206
 30
0.0
  0
LWPOLYLINE
  5
331
100
AcDbEntity
  8
0
 62
7
100
AcDbPolyline
 90
2
 70
0
 10
22.169120
 20
-22.140306
 30
0.0
 10
35.168840
 20
-22.140306
 30
0.0
  0
LWPOLYLINE
  5
332
100
AcDbEntity
  8
0
 62
7
100
AcDbPolyline
 90
2
 70
0
 10
21.671280
 20
-8.640206
 30
0.0
 10
21.671280
 20
-21.639926
 30
0.0
  0
SPLINE
  5
333
100
AcDbEntity
  8
0
 62
7
100
AcDbSpline
 70
8
 71
3
 72
8
 73
4
 74
0
 40
0
 40
0
 40
0
 40
0
 40
1
 40
1
 40
1
 40
1
 10
16.122498
 20
-22.140636
 30
0.0
 10
16.255106
 20
-22.140636
 30
0.0
 10
16.382282
 20
-22.087958
 30
0.0
 10
16.476050
 20
-21.994190
 30
0.0
  0
SPLINE
  5
334
100
AcDbEntity
  8
0
 62
7
100
AcDbSpline
 70
8
 71
3
 72
8
 73
4
 74
0
 40
0
 40
0
 40
0
 40
0
 40
1
 40
1
 40
1
 40
1
 10
16.476050
 20
-21.994190
 30
0.0
 10
16.569818
 20
-21.900422
 30
0.0
 10
16.622497
 20
-21.773245
 30
0.0
 10
16.622497
 20
-21.640637
 30
0.0
  0
SPLINE
  5
335
100
AcDbEntity
  8
0
 62
7
100
AcDbSpline
 70
8
 71
3
 72
8
 73
4
 74
0
 40
0
 40
0
 40
0
 40
0
 40
1
 40
1
 40
1
 40
1
 10
2.622499
 20
-21.640637
 30
0.0
 10
2.622499
 20
-21.916779
 30
0.0
 10
2.846356
 20
-22.140636
 30
0.0
 10
3.122498
 20
-22.140636
 30
0.0
  0
SPLINE
  5
336
100
AcDbEntity
  8
0
 62
7
100
AcDbSpline
 70
8
 71
3
 72
8
 73
4
 74
0
 40
0
 40
0
 40
0
 40
0
 40
1
 40
1
 40
1
 40
1
 10
3.122498
 20
-8.140639
 30
0.0
 10
2.846356
 20
-8.140639
 30
0.0
 10
2.622499
 20
-8.364496
 30
0.0
 10
2.622499
 20
-8.640638
 30
0.0
  0
SPLINE
  5
337
100
AcDbEntity
  8
0
 62
7
100
AcDbSpline
 70
8
 71
3
 72
8
 73
4
 74
0
 40
0
 40
0
 40
0
 40
0
 40
1
 40
1
 40
1
 40
1
 10
16.622497
 20
-8.640638
 30
0.0
 10
16.622497
 20
-8.508030
 30
0.0
 10
16.569818
 20
-8.380853
 30
0.0
 10
16.476050
 20
-8.287085
 30
0.0
  0
SPLINE
  5
338
100
AcDbEntity
  8
0
 62
7
100
AcDbSpline
 70
8
 71
3
 72
8
 73
4
 74
0
 40
0
 40
0
 40
0
 40
0
 40
1
 40
1
 40
1
 40
1
 10
16.476050
 20
-8.287085
 30
0.0
 10
16.382282
 20
-8.193317
 30
0.0
 10
16.255106
 20
-8.140639
 30
0.0
 10
16.122498
 20
-8.140639
 30
0.0
  0
LWPOLYLINE
  5
339
100
AcDbEntity
  8
0
 62
7
100
AcDbPolyline
 90
2
 70
0
 10
35.168840
 20
-8.139826
 30
0.0
 10
22.169120
 20
-8.139826
 30
0.0
  0
LWPOLYLINE
  5
33a
100
AcDbEntity
  8
0
 62
7
100
AcDbPolyline
 90
2
 70
0
 10
16.621760
 20
-21.639926
 30
0.0
 10
16.621760
 20
-8.640206
 30
0.0
  0
LWPOLYLINE
  5
33b
100
AcDbEntity
  8
0
 62
7
100
AcDbPolyline
 90
2
 70
0
 10
3.121660
 20
-22.140306
 30
0.0
 10
16.121380
 20
-22.140306
 30
0.0
  0
LWPOLYLINE
  5
33c
100
AcDbEntity
  8
0
 62
7
100
AcDbPolyline
 90
2
 70
0
 10
2.621280
 20
-8.640206
 30
0.0
 10
2.621280
 20
-21.639926
 30
0.0
  0
LWPOLYLINE
  5
33d
100
AcDbEntity
  8
0
 62
7
100
AcDbPolyline
 90
2
 70
0
 10
16.121380
 20
-8.139826
 30
0.0
 10
3.121660
 20
-8.139826
 30
0.0
  0
ENDSEC
  0
SECTION
  2
OBJECTS
  0
DICTIONARY
  5
C
330
0
100
AcDbDictionary
  3
ACAD_GROUP
350
D
  3
ACAD_MLINESTYLE
350
17
  0
DICTIONARY
  5
D
330
C
100
AcDbDictionary
  0
DICTIONARY
  5
1A
330
C
100
AcDbDictionary
  0
DICTIONARY
  5
17
330
C
100
AcDbDictionary
  3
STANDARD
350
18
  0
DICTIONARY
  5
19
330
C
100
AcDbDictionary
  0
ENDSEC
  0
EOF
